<svg xmlns="http://www.w3.org/2000/svg" xmlns:xlink="http://www.w3.org/1999/xlink" width="103" height="103" viewBox="0 0 103 103">
  <defs>
    <filter id="Elipse_13737" x="0" y="0" width="103" height="103" filterUnits="userSpaceOnUse">
      <feOffset dy="3" input="SourceAlpha"/>
      <feGaussianBlur stdDeviation="3" result="blur"/>
      <feFlood flood-opacity="0.161"/>
      <feComposite operator="in" in2="blur"/>
      <feComposite in="SourceGraphic"/>
    </filter>
  </defs>
  <g id="Grupo_1185651" data-name="Grupo 1185651" transform="translate(-592.826 -2579)">
    <g id="Grupo_1185647" data-name="Grupo 1185647" transform="translate(601.826 2585)">
      <g transform="matrix(1, 0, 0, 1, -9, -6)" filter="url(#Elipse_13737)">
        <circle id="Elipse_13737-2" data-name="Elipse 13737" cx="42.5" cy="42.5" r="42.5" transform="translate(9 6)" fill="#fff"/>
      </g>
    </g>
    <g id="XMLID_2603_" transform="translate(621.348 2600)">
      <g id="XMLID_1212_" transform="translate(20.336 14.563)">
        <path id="XMLID_1221_" d="M35.84,38.476v1.241l-5.175,1.135A4.856,4.856,0,0,0,26.85,45.6v9.527H50.241V45.6a4.856,4.856,0,0,0-3.819-4.744l-5.2-1.137v-1.25" transform="translate(-26.85 -23.894)" fill="#5ddef5"/>
        <path id="XMLID_2604_" d="M44.1,40.117l-2.69,7.194-2.69-7.194Z" transform="translate(-29.729 -24.295)" fill="#fff"/>
        <path id="XMLID_1217_" d="M40.466,19.227h0a5.7,5.7,0,0,0-5.7,5.7V26.3h2.786a6.26,6.26,0,0,0,4.8-2.239h0L46.164,26.3V24.925A5.7,5.7,0,0,0,40.466,19.227Z" transform="translate(-28.771 -19.227)" fill="#afabb0"/>
        <path id="XMLID_1216_" d="M41.125,26.724a6.259,6.259,0,0,1-3.571,1.12H34.768v2.42a5.7,5.7,0,0,0,5.7,5.7h0a5.7,5.7,0,0,0,5.7-5.7v-2.42l-1.906-1.12L42.353,25.6Z" transform="translate(-28.771 -20.774)" fill="#fed2a4"/>
      </g>
      <rect id="XMLID_2502_" width="48.765" height="3.965" transform="translate(0.991 45.792)" fill="#ffbe52"/>
      <ellipse id="XMLID_2195_" cx="8.181" cy="8.181" rx="8.181" ry="8.181" transform="translate(0.991 0.991)" fill="#93e7f8"/>
      <rect id="XMLID_2533_" width="21.409" height="15.858" transform="translate(0.991 22.499)" fill="#c7c4c8"/>
      <path id="XMLID_1029_" d="M16.789,51.969H12.824V42.156a1.982,1.982,0,0,1,1.982-1.982h0a1.982,1.982,0,0,1,1.982,1.982Z" transform="translate(-3.111 -9.745)" fill="#5ddef5"/>
      <path id="XMLID_1028_" d="M18.945,59.314H8.637V57.828a2.081,2.081,0,0,1,2.081-2.081h6.145a2.081,2.081,0,0,1,2.081,2.081Z" transform="translate(-2.095 -13.523)" fill="#5ddef5"/>
      <rect id="XMLID_1222_" width="12.687" height="3.965" transform="translate(37.069 41.827)" fill="#fff"/>
      <rect id="XMLID_1227_" width="12.687" height="3.965" transform="translate(37.069 37.862)" fill="#e8e7e9"/>
      <rect id="XMLID_1229_" width="12.687" height="3.965" transform="translate(37.069 33.898)" fill="#fff"/>
      <g id="XMLID_636_" transform="translate(0 0)">
        <path id="XMLID_1699_" d="M9.173,18.345A9.173,9.173,0,1,0,0,9.173,9.183,9.183,0,0,0,9.173,18.345Zm0-16.363a7.19,7.19,0,1,1-7.19,7.19A7.2,7.2,0,0,1,9.173,1.982Z"/>
        <path id="XMLID_1701_" d="M12.584,12.431a.991.991,0,0,0,1.4-1.4L12.793,9.84V5.44a.991.991,0,1,0-1.982,0v4.812a.992.992,0,0,0,.291.7Z" transform="translate(-2.622 -1.079)"/>
        <path id="XMLID_1706_" d="M49.756,37.253h-6.1A5.853,5.853,0,0,0,40.12,34.9l-4.357-.953A6.688,6.688,0,0,0,38.721,28.4V24.607a6.689,6.689,0,1,0-13.378,0V28.4a6.688,6.688,0,0,0,2.951,5.545L23.94,34.9c-.186.041-.369.091-.549.149v-8.2a.991.991,0,0,0-.991-.991H15.66a.991.991,0,0,0,0,1.982h5.749V41.713h-6.74V36.757a2.973,2.973,0,1,0-5.947,0v4.956H1.982V27.837H7.731a.991.991,0,0,0,0-1.982H.991A.991.991,0,0,0,0,26.846V42.7a.991.991,0,0,0,.991.991H8.722v1.883h-.1A3.076,3.076,0,0,0,5.55,48.651v.5H.991A.991.991,0,0,0,0,50.138V54.1a.991.991,0,0,0,.991.991H49.756a.991.991,0,0,0,.991-.991V38.244A.991.991,0,0,0,49.756,37.253ZM43.727,49.147H38.06V47.165h10.7v1.982Zm5.037-3.965H38.06V43.2h10.7Zm0-3.965H38.06V39.235h10.7ZM27.325,24.607a4.707,4.707,0,0,1,9.4-.369l-2.3-1.354a.991.991,0,0,0-1.262.218,5.256,5.256,0,0,1-4.038,1.885H27.325v-.381Zm0,2.363H29.12A7.231,7.231,0,0,0,34.1,24.994l2.642,1.552V28.4a4.707,4.707,0,1,1-9.413,0V26.97ZM33.585,34.9,32.017,39.1l-1.57-4.2a6.654,6.654,0,0,0,3.138.008ZM22.4,43.7a.991.991,0,0,0,.991-.991V37.191a3.855,3.855,0,0,1,.973-.356l4.335-.951,2.389,6.389a.991.991,0,0,0,1.857,0l2.389-6.389,4.362.954a3.858,3.858,0,0,1,1.081.415H37.069a.991.991,0,0,0-.991.991v10.9H21.327V43.7H22.4Zm-3.055,0v5.451h-1.5v-.5a3.076,3.076,0,0,0-3.073-3.073h-.1V43.7ZM10.7,36.757a.991.991,0,1,1,1.982,0v8.821H10.7ZM7.533,48.651a1.092,1.092,0,0,1,1.09-1.09h6.145a1.092,1.092,0,0,1,1.09,1.09v.5H7.533Zm41.232,4.46H1.982V51.129H48.765Z" transform="translate(0 -4.347)"/>
        <path id="XMLID_1768_" d="M14.423,28.687a.991.991,0,1,0,.7-.29A1,1,0,0,0,14.423,28.687Z" transform="translate(-3.428 -6.888)"/>
      </g>
    </g>
  </g>
</svg>
