<svg xmlns="http://www.w3.org/2000/svg" xmlns:xlink="http://www.w3.org/1999/xlink" width="103" height="103" viewBox="0 0 103 103">
  <defs>
    <filter id="Elipse_13737" x="0" y="0" width="103" height="103" filterUnits="userSpaceOnUse">
      <feOffset dy="3" input="SourceAlpha"/>
      <feGaussianBlur stdDeviation="3" result="blur"/>
      <feFlood flood-opacity="0.161"/>
      <feComposite operator="in" in2="blur"/>
      <feComposite in="SourceGraphic"/>
    </filter>
  </defs>
  <g id="Grupo_1185649" data-name="Grupo 1185649" transform="translate(-279 -2476)">
    <g id="Grupo_1185632" data-name="Grupo 1185632" transform="translate(288 2482)">
      <g transform="matrix(1, 0, 0, 1, -9, -6)" filter="url(#Elipse_13737)">
        <circle id="Elipse_13737-2" data-name="Elipse 13737" cx="42.5" cy="42.5" r="42.5" transform="translate(9 6)" fill="#fff"/>
      </g>
    </g>
    <g id="colaborar" transform="translate(305.127 2498.252)">
      <g id="Grupo_100545" data-name="Grupo 100545" transform="translate(0.818 0.819)">
        <g id="Grupo_100515" data-name="Grupo 100515" transform="translate(11.459 42.562)">
          <path id="Trazado_151127" data-name="Trazado 151127" d="M17.29,58.355h6.548V64.9H17.29Z" transform="translate(-17.29 -58.355)" fill="#969faa"/>
        </g>
        <g id="Grupo_100516" data-name="Grupo 100516" transform="translate(4.911 42.562)">
          <path id="Trazado_151128" data-name="Trazado 151128" d="M8.645,58.355h6.548V64.9H8.645Z" transform="translate(-8.645 -58.355)" fill="#969faa"/>
        </g>
        <g id="Grupo_100517" data-name="Grupo 100517" transform="translate(8.185 26.192)">
          <path id="Trazado_151129" data-name="Trazado 151129" d="M17.879,36.742l1.637,6.548H12.968L14.6,36.742Z" transform="translate(-12.968 -36.742)" fill="#ff826e"/>
        </g>
        <g id="Grupo_100518" data-name="Grupo 100518" transform="translate(8.971 21.281)">
          <path id="Trazado_151130" data-name="Trazado 151130" d="M16.493,30.258l2.488,1.5-.851,3.413H14.856l-.851-3.413Z" transform="translate(-14.005 -30.258)" fill="#fc6e51"/>
        </g>
        <g id="Grupo_100519" data-name="Grupo 100519" transform="translate(13.096 19.963)">
          <path id="Trazado_151131" data-name="Trazado 151131" d="M29.167,33.413a1.875,1.875,0,0,1-1.056,1.064c-.008.008-.016.008-.033.016a1.828,1.828,0,0,1-2.014-.352l-.941-.949-2.316,2.316.949.941a1.828,1.828,0,0,1,.352,2.014c-.008.016-.008.025-.016.033a1.805,1.805,0,0,1-1.662,1.162H21.089V41.3l-1.637-6.548.851-3.413,1.6.958.769-3.773,1.989.393A5.739,5.739,0,0,1,29.167,33.413Z" transform="translate(-19.452 -28.518)" fill="#e6e9ed"/>
        </g>
        <g id="Grupo_100520" data-name="Grupo 100520" transform="translate(4.911 37.651)">
          <path id="Trazado_151132" data-name="Trazado 151132" d="M21.741,54.31v2.472H8.645V51.871H21.054l-.949.819Z" transform="translate(-8.645 -51.871)" fill="#e6e9ed"/>
        </g>
        <g id="Grupo_100521" data-name="Grupo 100521" transform="translate(0 19.963)">
          <path id="Trazado_151133" data-name="Trazado 151133" d="M10.346,41.3h6.548v1.637h1.342A1.805,1.805,0,0,1,19.9,44.094c.008.008.008.016.016.033a1.828,1.828,0,0,1-.352,2.014l-.082.065H6.254a4.094,4.094,0,0,1-4.092-4.093V34.534a5.74,5.74,0,0,1,4.608-5.623l1.989-.393.769,3.773,1.6-.958.851,3.413Z" transform="translate(-2.161 -28.518)" fill="#e6e9ed"/>
        </g>
        <g id="Grupo_100522" data-name="Grupo 100522" transform="translate(6.597 19.644)">
          <path id="Trazado_151134" data-name="Trazado 151134" d="M15.733,29.734l-2.488,1.5-1.6.958-.769-3.773,1.588-.319Z" transform="translate(-10.871 -28.097)" fill="#ccd1d9"/>
        </g>
        <g id="Grupo_100523" data-name="Grupo 100523" transform="translate(11.459 19.644)">
          <path id="Trazado_151135" data-name="Trazado 151135" d="M22.152,28.416l-.769,3.773-1.6-.958-2.488-1.5L20.564,28.1Z" transform="translate(-17.29 -28.097)" fill="#ccd1d9"/>
        </g>
        <g id="Grupo_100524" data-name="Grupo 100524" transform="translate(3.274 0)">
          <path id="Trazado_151136" data-name="Trazado 151136" d="M22.854,7.793a5.734,5.734,0,0,1-.286,1.784l-.483,1.441a2.462,2.462,0,0,0-1.686-.671H19.58a1.642,1.642,0,0,0-1.637-1.637H16.6a2.7,2.7,0,0,1-1.9-.786A2.894,2.894,0,0,0,9.758,9.97v.377H8.939a2.462,2.462,0,0,0-1.686.671L6.77,9.577a5.734,5.734,0,0,1-.286-1.784,5.645,5.645,0,0,1,5.631-5.631h5.107A5.631,5.631,0,0,1,22.854,7.793Z" transform="translate(-6.484 -2.161)" fill="#b27946"/>
        </g>
        <g id="Grupo_100525" data-name="Grupo 100525" transform="translate(29.466)">
          <path id="Trazado_151137" data-name="Trazado 151137" d="M50.887,7.072A1.649,1.649,0,0,1,49.25,8.709H45.976a1.642,1.642,0,0,0-1.637,1.637H43.52a2.462,2.462,0,0,0-1.686.671l-.483-1.441a5.734,5.734,0,0,1-.286-1.784A5.645,5.645,0,0,1,46.7,2.161H51.8a5.631,5.631,0,0,1,5.631,5.631,5.734,5.734,0,0,1-.286,1.784l-.483,1.441a2.462,2.462,0,0,0-1.686-.671h-.818a3.29,3.29,0,0,0-2.48-3.078Z" transform="translate(-41.065 -2.161)" fill="#656d78"/>
        </g>
        <g id="Grupo_100526" data-name="Grupo 100526" transform="translate(37.651 42.562)">
          <path id="Trazado_151138" data-name="Trazado 151138" d="M51.871,58.355h6.548V64.9H51.871Z" transform="translate(-51.871 -58.355)" fill="#969faa"/>
        </g>
        <g id="Grupo_100527" data-name="Grupo 100527" transform="translate(31.103 42.562)">
          <path id="Trazado_151139" data-name="Trazado 151139" d="M43.226,58.355h6.548V64.9H43.226Z" transform="translate(-43.226 -58.355)" fill="#969faa"/>
        </g>
        <g id="Grupo_100528" data-name="Grupo 100528" transform="translate(31.103 37.651)">
          <path id="Trazado_151140" data-name="Trazado 151140" d="M56.322,51.871v4.911h-13.1V54.31l1.637-1.621-.949-.819Z" transform="translate(-43.226 -51.871)" fill="#4fc1e9"/>
        </g>
        <g id="Grupo_100529" data-name="Grupo 100529" transform="translate(34.377 26.192)">
          <path id="Trazado_151141" data-name="Trazado 151141" d="M52.459,36.742,54.1,43.29H47.548l1.637-6.548Z" transform="translate(-47.548 -36.742)" fill="#e6e9ed"/>
        </g>
        <g id="Grupo_100530" data-name="Grupo 100530" transform="translate(35.163 21.281)">
          <path id="Trazado_151142" data-name="Trazado 151142" d="M51.074,30.258l2.488,1.5-.851,3.413H49.437l-.851-3.413Z" transform="translate(-48.586 -30.258)" fill="#ccd1d9"/>
        </g>
        <g id="Grupo_100531" data-name="Grupo 100531" transform="translate(26.298 19.963)">
          <path id="Trazado_151143" data-name="Trazado 151143" d="M45.747,31.334l.851,3.413L44.961,41.3V39.658H43.619A1.805,1.805,0,0,1,41.957,38.5c-.008-.008-.008-.016-.016-.033a1.828,1.828,0,0,1,.352-2.014l.949-.941-2.316-2.316-.941.949a1.828,1.828,0,0,1-2.014.352c-.016-.008-.025-.008-.033-.016a1.875,1.875,0,0,1-1.056-1.064,5.739,5.739,0,0,1,4.5-4.5l1.989-.393.769,3.773Z" transform="translate(-36.882 -28.518)" fill="#4fc1e9"/>
        </g>
        <g id="Grupo_100532" data-name="Grupo 100532" transform="translate(31.201 19.963)">
          <path id="Trazado_151144" data-name="Trazado 151144" d="M53.079,41.3l-1.637-6.548.851-3.413,1.6.958.769-3.773,1.989.393a5.74,5.74,0,0,1,4.608,5.623v7.579a4.094,4.094,0,0,1-4.092,4.093H43.945l-.082-.065a1.82,1.82,0,0,1-.393-1.907,1.5,1.5,0,0,1,.057-.139,1.805,1.805,0,0,1,1.662-1.162h1.342V41.3Z" transform="translate(-43.355 -28.518)" fill="#4fc1e9"/>
        </g>
        <g id="Grupo_100533" data-name="Grupo 100533" transform="translate(32.789 19.644)">
          <path id="Trazado_151145" data-name="Trazado 151145" d="M50.314,29.734l-2.488,1.5-1.6.958-.769-3.773L47.04,28.1Z" transform="translate(-45.452 -28.097)" fill="#3bafda"/>
        </g>
        <g id="Grupo_100534" data-name="Grupo 100534" transform="translate(42.284 8.185)">
          <path id="Trazado_151146" data-name="Trazado 151146" d="M60.77,13.639a2.456,2.456,0,0,1-1.686,4.24h-1.1a4.946,4.946,0,0,0,.278-1.637V12.968h.819a2.462,2.462,0,0,1,1.686.671Z" transform="translate(-57.987 -12.968)" fill="#f0d0b4"/>
        </g>
        <g id="Grupo_100535" data-name="Grupo 100535" transform="translate(32.74 4.911)">
          <path id="Trazado_151147" data-name="Trazado 151147" d="M55.209,12.017v3.176a4.946,4.946,0,0,1-.278,1.637,4.837,4.837,0,0,1-1.162,1.833,4.5,4.5,0,0,1-.99.761,4.867,4.867,0,0,1-4.96,0,4.875,4.875,0,0,1-2.431-4.232V11.919a1.642,1.642,0,0,1,1.637-1.637H50.3a1.649,1.649,0,0,0,1.637-1.637l.794.2a3.29,3.29,0,0,1,2.48,3.078Z" transform="translate(-45.387 -8.645)" fill="#f0d0b4"/>
        </g>
        <g id="Grupo_100536" data-name="Grupo 100536" transform="translate(37.651 19.644)">
          <path id="Trazado_151148" data-name="Trazado 151148" d="M56.733,28.416l-.769,3.773-1.6-.958-2.488-1.5L55.145,28.1Z" transform="translate(-51.871 -28.097)" fill="#3bafda"/>
        </g>
        <g id="Grupo_100537" data-name="Grupo 100537" transform="translate(34.377 15.691)">
          <path id="Trazado_151149" data-name="Trazado 151149" d="M53.311,22.885l.786,3.945-3.274,1.637-3.274-1.637.786-3.945.008-.008a4.866,4.866,0,0,0,4.96,0Z" transform="translate(-47.548 -22.877)" fill="#f0d0b4"/>
        </g>
        <g id="Grupo_100538" data-name="Grupo 100538" transform="translate(14.733 22.918)">
          <path id="Trazado_151150" data-name="Trazado 151150" d="M33.178,34.359a1.875,1.875,0,0,0,1.056,1.064c.008.008.016.008.033.016a1.828,1.828,0,0,0,2.014-.352l.941-.949,2.316,2.316-.949.941a1.828,1.828,0,0,0-.352,2.014c.008.016.008.025.016.033A1.805,1.805,0,0,0,39.915,40.6h1.342v3.274H39.915a1.805,1.805,0,0,0-1.662,1.162,1.5,1.5,0,0,0-.057.139,1.82,1.82,0,0,0,.393,1.907l.082.065.949.819-1.637,1.621-.761.753L36.28,49.4a1.828,1.828,0,0,0-2.014-.352c-.016.008-.025.008-.033.016a1.805,1.805,0,0,0-1.162,1.662v1.342H29.8V50.721a1.805,1.805,0,0,0-1.162-1.662c-.008-.008-.016-.008-.033-.016a1.828,1.828,0,0,0-2.014.352l-.941.949-.761-.753L23.25,47.971l.949-.819.082-.065a1.828,1.828,0,0,0,.352-2.014c-.008-.016-.008-.025-.016-.033a1.805,1.805,0,0,0-1.662-1.162H21.613V40.6h1.342a1.805,1.805,0,0,0,1.662-1.162c.008-.008.008-.016.016-.033a1.828,1.828,0,0,0-.352-2.014l-.949-.941,2.316-2.316.941.949a1.828,1.828,0,0,0,2.014.352c.016-.008.025-.008.033-.016a1.875,1.875,0,0,0,1.056-1.064,1.8,1.8,0,0,0,.106-.6V32.419h3.274v1.342A1.8,1.8,0,0,0,33.178,34.359Zm3.168,7.882a4.911,4.911,0,1,0-4.911,4.911A4.915,4.915,0,0,0,36.346,42.241Z" transform="translate(-21.613 -32.419)" fill="#ffc729"/>
        </g>
        <g id="Grupo_100539" data-name="Grupo 100539" transform="translate(29.466 8.185)">
          <path id="Trazado_151151" data-name="Trazado 151151" d="M44.617,17.879h-1.1a2.456,2.456,0,0,1,0-4.911h.819v3.274A4.946,4.946,0,0,0,44.617,17.879Z" transform="translate(-41.065 -12.968)" fill="#f0d0b4"/>
        </g>
        <g id="Grupo_100540" data-name="Grupo 100540" transform="translate(19.644 27.829)">
          <path id="Trazado_151152" data-name="Trazado 151152" d="M33.008,38.9A4.911,4.911,0,1,1,28.1,43.814,4.915,4.915,0,0,1,33.008,38.9Zm1.637,4.911a1.637,1.637,0,1,0-1.637,1.637A1.642,1.642,0,0,0,34.645,43.814Z" transform="translate(-28.097 -38.903)" fill="#fcd770"/>
        </g>
        <g id="Grupo_100541" data-name="Grupo 100541" transform="translate(16.092 8.185)">
          <path id="Trazado_151153" data-name="Trazado 151153" d="M26.19,13.639a2.456,2.456,0,0,1-1.686,4.24h-1.1a4.946,4.946,0,0,0,.278-1.637V12.968H24.5a2.462,2.462,0,0,1,1.686.671Z" transform="translate(-23.407 -12.968)" fill="#f0d0b4"/>
        </g>
        <g id="Grupo_100542" data-name="Grupo 100542" transform="translate(6.548 4.911)">
          <path id="Trazado_151154" data-name="Trazado 151154" d="M20.628,11.919v3.274A4.875,4.875,0,0,1,18.2,19.425a4.867,4.867,0,0,1-4.96,0,4.5,4.5,0,0,1-.99-.761,4.837,4.837,0,0,1-1.162-1.833,4.946,4.946,0,0,1-.278-1.637V11.543A2.894,2.894,0,0,1,15.75,9.5a2.7,2.7,0,0,0,1.9.786h1.342A1.642,1.642,0,0,1,20.628,11.919Z" transform="translate(-10.806 -8.645)" fill="#f0d0b4"/>
        </g>
        <g id="Grupo_100543" data-name="Grupo 100543" transform="translate(8.185 15.691)">
          <path id="Trazado_151155" data-name="Trazado 151155" d="M18.73,22.885l.786,3.945-3.274,1.637-3.274-1.637.786-3.945.008-.008a4.866,4.866,0,0,0,4.96,0Z" transform="translate(-12.968 -22.877)" fill="#f0d0b4"/>
        </g>
        <g id="Grupo_100544" data-name="Grupo 100544" transform="translate(3.274 8.185)">
          <path id="Trazado_151156" data-name="Trazado 151156" d="M10.036,17.879h-1.1a2.456,2.456,0,0,1,0-4.911h.818v3.274A4.946,4.946,0,0,0,10.036,17.879Z" transform="translate(-6.484 -12.968)" fill="#f0d0b4"/>
        </g>
      </g>
      <g id="Grupo_100546" data-name="Grupo 100546" transform="translate(0 0)">
        <path id="Trazado_151157" data-name="Trazado 151157" d="M46.564,21.456l-3.045-.609-.577-2.883a5.764,5.764,0,0,0,1.776-2.151h.561a3.277,3.277,0,0,0,3.274-3.274,3.238,3.238,0,0,0-.667-1.959l.336-1.008A6.453,6.453,0,0,0,42.1,1.081H37a6.453,6.453,0,0,0-6.122,8.493l.336,1.008a3.238,3.238,0,0,0-.667,1.959,3.277,3.277,0,0,0,3.274,3.274h.561a5.764,5.764,0,0,0,1.776,2.151l-.577,2.883-3.045.609A6.532,6.532,0,0,0,28.542,24H24.364a6.529,6.529,0,0,0-3.993-2.542l-3.045-.609-.577-2.883a5.764,5.764,0,0,0,1.776-2.151h.562a3.277,3.277,0,0,0,3.274-3.274,3.238,3.238,0,0,0-.667-1.959l.336-1.008a6.451,6.451,0,0,0-6.121-8.493h-5.1A6.453,6.453,0,0,0,4.685,9.573l.336,1.008a3.238,3.238,0,0,0-.667,1.959,3.277,3.277,0,0,0,3.274,3.274h.561a5.764,5.764,0,0,0,1.776,2.151l-.577,2.883-3.045.609a6.566,6.566,0,0,0-5.263,6.421v7.58a4.916,4.916,0,0,0,4.911,4.911V51.828H20.725V43.845l1.465-1.472a1.032,1.032,0,0,1,1.154-.162,1,1,0,0,1,.655.909V45.28H28.91V43.12a1.105,1.105,0,0,1,1.808-.746l1.466,1.472v7.983H46.917V40.369a4.916,4.916,0,0,0,4.911-4.911v-7.58a6.566,6.566,0,0,0-5.264-6.421ZM37.85,23.246l-1.821,1.093L35.656,22.5l.5-.1Zm.7,5.664h2l1.228,4.911H37.325Zm2-1.637h-2L38,25.064l1.549-.93,1.55.93Zm.7-4.027,1.689-.845.5.1-.372,1.836Zm4.029-9.069h-.065a5.75,5.75,0,0,0,.065-.819V10.9a1.637,1.637,0,0,1,0,3.274ZM37,2.718h5.1a4.815,4.815,0,0,1,4.568,6.338l-.152.457a3.263,3.263,0,0,0-1.238-.246h-.117A4.077,4.077,0,0,0,42.18,6.214l-.265-.066A2.46,2.46,0,0,0,39.55,4.355h-.818V5.992h.818a.819.819,0,0,1,0,1.637H36.276a2.452,2.452,0,0,0-2.3,1.637h-.151a3.263,3.263,0,0,0-1.238.246l-.152-.457A4.815,4.815,0,0,1,37,2.718ZM33.821,14.177a1.637,1.637,0,0,1,0-3.274v2.456a5.751,5.751,0,0,0,.065.819Zm1.637-.819V10.084a.82.82,0,0,1,.819-.819H39.55a2.46,2.46,0,0,0,2.244-1.46,2.453,2.453,0,0,1,1.848,2.379v3.173a4.092,4.092,0,1,1-8.185,0Zm4.092,5.73a5.7,5.7,0,0,0,1.883-.324l.466,2.327L39.55,22.265,37.2,21.091l.466-2.327A5.7,5.7,0,0,0,39.55,19.088Zm-6.693,3.974,1.194-.239.834,4.111,1.647-.988.537,2.146-1.023,4.093H34.935a1.105,1.105,0,0,1-.746-1.808l1.528-1.522-3.477-3.477-1.521,1.528a1.032,1.032,0,0,1-1.154.162,1.09,1.09,0,0,1-.492-.4,4.885,4.885,0,0,1,3.785-3.61Zm-9.022,3.606a1.168,1.168,0,0,1-.526.415,1.015,1.015,0,0,1-1.119-.177l-1.522-1.528-3.477,3.477,1.528,1.521a1.032,1.032,0,0,1,.162,1.154,1,1,0,0,1-.909.655H16.861l-1.023-4.093.537-2.146,1.647.988.834-4.111,1.194.239A4.883,4.883,0,0,1,23.835,26.668ZM11.658,23.246,9.837,24.338,9.465,22.5l.5-.1Zm5.089-.845.5.1-.372,1.836-1.821-1.093Zm-3.389,1.734,1.55.93-.552,2.208h-2l-.552-2.208Zm-1,4.775h2l1.228,4.911H11.133Zm6.727-14.733h-.065a5.75,5.75,0,0,0,.065-.819V10.9a1.637,1.637,0,0,1,0,3.274ZM10.807,2.718h5.1a4.815,4.815,0,0,1,4.568,6.338l-.152.457a3.263,3.263,0,0,0-1.238-.246h-.151a2.452,2.452,0,0,0-2.3-1.637H15.293a1.891,1.891,0,0,1-1.327-.549A3.7,3.7,0,0,0,7.673,9.266H7.629a3.263,3.263,0,0,0-1.238.246l-.152-.457a4.815,4.815,0,0,1,4.568-6.338ZM7.629,14.177a1.637,1.637,0,0,1,0-3.274v2.456a5.751,5.751,0,0,0,.065.819Zm1.637-.819V9.7a2.075,2.075,0,0,1,3.543-1.468,3.536,3.536,0,0,0,2.484,1.029h1.339a.82.82,0,0,1,.818.819v3.274a4.092,4.092,0,1,1-8.185,0Zm4.092,5.73a5.7,5.7,0,0,0,1.883-.324l.466,2.327-2.349,1.175-2.349-1.175.466-2.327A5.7,5.7,0,0,0,13.358,19.088ZM2.718,35.458v-7.58a4.924,4.924,0,0,1,3.948-4.816l1.194-.239.834,4.111,1.647-.988.537,2.146-1.432,5.73H7.629V28.91H5.992V34.3l-1.4,1.4,1.157,1.157,1.4-1.4h8.665v1.637h2.16a1.015,1.015,0,0,1,.923.689,1.055,1.055,0,0,1-.044.948H5.992a3.277,3.277,0,0,1-3.274-3.274Zm14.388,4.911,1.982,1.962v1.312H7.629V40.369ZM7.629,45.28H12.54v4.911H7.629Zm6.548,4.911V45.28h4.911v4.911ZM28.938,40.7a2.638,2.638,0,0,0-1.666,2.421v.523H25.636V43.12a2.739,2.739,0,0,0-4.607-1.9l-.367.368-1.189-1.177.4-.346a2.738,2.738,0,0,0-1.9-4.6h-.523V33.821h.523a2.739,2.739,0,0,0,1.9-4.607l-.365-.363,1.157-1.157.363.365a2.738,2.738,0,0,0,4.6-1.9v-.523h1.637v.523a2.739,2.739,0,0,0,4.607,1.9l.363-.365L33.4,28.852l-.365.363a2.738,2.738,0,0,0,1.9,4.6h.523v1.637h-.523a2.638,2.638,0,0,0-2.421,1.666c-.011.029-.054.133-.07.179a2.635,2.635,0,0,0,.633,2.8l.357.307-1.188,1.176-.367-.368a2.654,2.654,0,0,0-2.94-.52Zm4.882,4.581h4.911v4.911H33.821Zm6.548,4.911V45.28H45.28v4.911Zm4.911-6.548H33.821V42.331L35.8,40.369H45.28Zm4.911-8.185a3.277,3.277,0,0,1-3.274,3.274H34.062a1.023,1.023,0,0,1-.077-.878l.041-.1a1,1,0,0,1,.909-.655h2.16V35.458h8.665l1.4,1.4L48.314,35.7l-1.4-1.4V28.91H45.28v4.911H43.463l-1.432-5.73.537-2.146,1.647.988.834-4.111,1.194.239a4.924,4.924,0,0,1,3.948,4.816Z" transform="translate(-1.081 -1.081)"/>
        <path id="Trazado_151158" data-name="Trazado 151158" d="M33.794,42.145A2.456,2.456,0,1,0,36.25,44.6,2.458,2.458,0,0,0,33.794,42.145Zm0,3.274a.819.819,0,1,1,.818-.819A.82.82,0,0,1,33.794,45.419Z" transform="translate(-8.421 -11.042)"/>
        <path id="Trazado_151159" data-name="Trazado 151159" d="M32.746,37.823a5.73,5.73,0,1,0,5.729,5.73A5.736,5.736,0,0,0,32.746,37.823Zm0,9.822a4.093,4.093,0,1,1,4.092-4.093A4.1,4.1,0,0,1,32.746,47.645Z" transform="translate(-7.372 -9.994)"/>
      </g>
    </g>
  </g>
</svg>
