<svg xmlns="http://www.w3.org/2000/svg" xmlns:xlink="http://www.w3.org/1999/xlink" width="103" height="103" viewBox="0 0 103 103">
  <defs>
    <filter id="Elipse_13737" x="0" y="0" width="103" height="103" filterUnits="userSpaceOnUse">
      <feOffset dy="3" input="SourceAlpha"/>
      <feGaussianBlur stdDeviation="3" result="blur"/>
      <feFlood flood-opacity="0.161"/>
      <feComposite operator="in" in2="blur"/>
      <feComposite in="SourceGraphic"/>
    </filter>
  </defs>
  <g id="Grupo_1185652" data-name="Grupo 1185652" transform="translate(-1007.348 -2476)">
    <g id="Grupo_1185634" data-name="Grupo 1185634" transform="translate(1016.348 2482)">
      <g transform="matrix(1, 0, 0, 1, -9, -6)" filter="url(#Elipse_13737)">
        <circle id="Elipse_13737-2" data-name="Elipse 13737" cx="42.5" cy="42.5" r="42.5" transform="translate(9 6)" fill="#fff"/>
      </g>
    </g>
    <g id="contrato" transform="translate(1036.348 2499)">
      <g id="Grupo_100604" data-name="Grupo 100604" transform="translate(0.743 0.743)">
        <g id="Grupo_100603" data-name="Grupo 100603">
          <g id="Grupo_100602" data-name="Grupo 100602">
            <g id="Grupo_100591" data-name="Grupo 100591">
              <g id="Grupo_100590" data-name="Grupo 100590">
                <g id="Grupo_100589" data-name="Grupo 100589">
                  <g id="Grupo_100588" data-name="Grupo 100588">
                    <g id="Grupo_100587" data-name="Grupo 100587">
                      <g id="Grupo_100586" data-name="Grupo 100586">
                        <g id="Grupo_100585" data-name="Grupo 100585">
                          <g id="Grupo_100584" data-name="Grupo 100584">
                            <g id="Grupo_100583" data-name="Grupo 100583">
                              <g id="Grupo_100582" data-name="Grupo 100582">
                                <path id="Trazado_151197" data-name="Trazado 151197" d="M7.8.981A3.062,3.062,0,0,0,4.742,4.043V43.486A3.062,3.062,0,0,0,7.8,46.548H36.592a3.062,3.062,0,0,0,3.062-3.062V10.424a2.32,2.32,0,0,0-.679-1.64L31.852,1.661a2.319,2.319,0,0,0-1.64-.679Z" transform="translate(-4.742 -0.981)" fill="#f4f8f8"/>
                                <path id="Trazado_151198" data-name="Trazado 151198" d="M42.485,12.155a3.073,3.073,0,0,1-.671-.075v34.1a3.062,3.062,0,0,1-3.062,3.062h6.09A3.062,3.062,0,0,0,47.9,46.178V13.116a2.317,2.317,0,0,0-.209-.961Z" transform="translate(-12.992 -3.674)" fill="#e7ecf1"/>
                                <path id="Trazado_151199" data-name="Trazado 151199" d="M47.44,8.85,40.318,1.728a2.317,2.317,0,0,0-.679-.47v5.21A3.062,3.062,0,0,0,42.7,9.529h5.21a2.321,2.321,0,0,0-.47-.679Z" transform="translate(-13.207 -1.048)" fill="#fc8086"/>
                              </g>
                            </g>
                          </g>
                        </g>
                      </g>
                    </g>
                  </g>
                </g>
              </g>
            </g>
            <g id="Grupo_100601" data-name="Grupo 100601" transform="translate(5.806 25.07)">
              <g id="Grupo_100599" data-name="Grupo 100599" transform="translate(1.698 1.993)">
                <g id="Grupo_100598" data-name="Grupo 100598">
                  <g id="Grupo_100593" data-name="Grupo 100593">
                    <g id="Grupo_100592" data-name="Grupo 100592">
                      <path id="Trazado_151200" data-name="Trazado 151200" d="M44.5,49.475,33.566,43a1.181,1.181,0,0,1-.414-1.617l.56-.945L31.5,39.128c-1.46-.838-2.142-.993-3.459-.483L26.6,39.2a3.055,3.055,0,0,1-2.659-.221L20.1,36.713l-5.456,9.209,4.919,2.9a3.056,3.056,0,0,1,.862.763l1.658,2.15A19.072,19.072,0,0,0,26.1,54.916l6.326,3.748a1.757,1.757,0,0,0,1.792-3.024L36.2,56.811a1.757,1.757,0,0,0,1.792-3.024l1.318.781A1.757,1.757,0,0,0,41.1,51.544l1.613.955A1.757,1.757,0,1,0,44.5,49.475Z" transform="translate(-14.649 -36.713)" fill="#ffece3"/>
                    </g>
                    <path id="Trazado_151201" data-name="Trazado 151201" d="M48.646,52.848l-3.769-2.232a2.015,2.015,0,0,1-.5.906,2.094,2.094,0,0,1-2.571.316L40.73,51.2a.094.094,0,0,0-.125.136,2.046,2.046,0,0,1-2.716,2.938l-.842-.5a.081.081,0,0,0-.106.119,2.045,2.045,0,0,1,.112,2.311,2.082,2.082,0,0,1-2.831.658l-.692-.41a.4.4,0,0,0-.6.427,2.038,2.038,0,0,1-1.2,2.287l4.806,2.847A1.8,1.8,0,0,0,39,61.391a1.757,1.757,0,0,0-.633-2.379L40.3,60.16a1.8,1.8,0,0,0,2.464-.622,1.757,1.757,0,0,0-.633-2.379l1.278.757a1.8,1.8,0,0,0,2.464-.622,1.757,1.757,0,0,0-.633-2.379l1.573.932a1.8,1.8,0,0,0,2.464-.622,1.758,1.758,0,0,0-.633-2.379Z" transform="translate(-18.792 -40.086)" fill="#ffddce"/>
                  </g>
                  <g id="Grupo_100594" data-name="Grupo 100594" transform="translate(15.647 0.55)">
                    <path id="Trazado_151202" data-name="Trazado 151202" d="M48.567,37.439l-2.95,1.715a3.056,3.056,0,0,1-2.659.221l-1.619-.636a2.6,2.6,0,0,0-1.589-.1l-2.48.628a2.6,2.6,0,0,0-1.963,2.522V45.1a.849.849,0,0,0,.847.849,2.554,2.554,0,0,0,2.556-2.554v-.14L49.325,49.54a3.053,3.053,0,0,1,.67-.538l4.028-2.353Z" transform="translate(-35.307 -37.439)" fill="#fcd0a3"/>
                  </g>
                  <g id="Grupo_100595" data-name="Grupo 100595" transform="translate(23.558 3.207)">
                    <path id="Trazado_151203" data-name="Trazado 151203" d="M52.674,40.947l-.567,2.1-6.355,3.724,6.107,3.616a3.056,3.056,0,0,1,.67-.538L56.556,47.5Z" transform="translate(-45.752 -40.947)" fill="#ffb983"/>
                  </g>
                  <g id="Grupo_100597" data-name="Grupo 100597" transform="translate(2.895 11.281)">
                    <g id="Grupo_100596" data-name="Grupo 100596">
                      <path id="Trazado_151204" data-name="Trazado 151204" d="M22.65,54.389l-1,1.386A1.757,1.757,0,1,1,18.8,53.726l1-1.386a1.757,1.757,0,1,1,2.854,2.049Z" transform="translate(-18.471 -51.608)" fill="#fcd0a3"/>
                      <path id="Trazado_151205" data-name="Trazado 151205" d="M27.517,55.075l-2.094,2.916a1.757,1.757,0,1,1-2.854-2.049l2.094-2.916a1.757,1.757,0,1,1,2.854,2.049Z" transform="translate(-19.385 -51.774)" fill="#fcd0a3"/>
                      <path id="Trazado_151206" data-name="Trazado 151206" d="M31.286,57.78,29.192,60.7a1.757,1.757,0,1,1-2.854-2.049l2.094-2.916a1.757,1.757,0,1,1,2.854,2.049Z" transform="translate(-20.299 -52.43)" fill="#fcd0a3"/>
                    </g>
                    <path id="Trazado_151207" data-name="Trazado 151207" d="M34.274,62.2l-.7.97a1.757,1.757,0,1,1-2.854-2.049l.7-.97A1.757,1.757,0,1,1,34.274,62.2Z" transform="translate(-21.363 -53.501)" fill="#ffb983"/>
                  </g>
                </g>
              </g>
              <g id="Grupo_100600" data-name="Grupo 100600">
                <path id="Trazado_151208" data-name="Trazado 151208" d="M21.617,35.117l-1.539-.912a.891.891,0,0,0-1.221.312L12.532,45.2a.891.891,0,0,0,.312,1.221l1.539.912a2.172,2.172,0,0,0,2.976-.762l5.02-8.474A2.172,2.172,0,0,0,21.617,35.117Z" transform="translate(-12.407 -34.081)" fill="#7c8b96"/>
                <path id="Trazado_151209" data-name="Trazado 151209" d="M51.3,34.206l-1.539.912A2.172,2.172,0,0,0,49,38.093l5.02,8.474a2.172,2.172,0,0,0,2.976.762l1.539-.912a.891.891,0,0,0,.312-1.221L52.517,34.518A.891.891,0,0,0,51.3,34.206Z" transform="translate(-21.209 -34.081)" fill="#7c8b96"/>
              </g>
            </g>
          </g>
        </g>
      </g>
      <g id="Grupo_100607" data-name="Grupo 100607" transform="translate(0 0)">
        <g id="Grupo_100606" data-name="Grupo 100606">
          <g id="Grupo_100605" data-name="Grupo 100605">
            <path id="Trazado_151210" data-name="Trazado 151210" d="M35.809,18.033h-24.3a.747.747,0,0,0,0,1.493h24.3a.747.747,0,1,0,0-1.493Z" transform="translate(-5.458 -4.374)"/>
            <path id="Trazado_151211" data-name="Trazado 151211" d="M11.507,12.689H23.658a.747.747,0,0,0,0-1.493H11.507a.747.747,0,0,0,0,1.493Z" transform="translate(-5.458 -2.716)"/>
            <path id="Trazado_151212" data-name="Trazado 151212" d="M35.809,24.091h-24.3a.747.747,0,0,0,0,1.493h24.3a.747.747,0,1,0,0-1.493Z" transform="translate(-5.458 -5.844)"/>
            <path id="Trazado_151213" data-name="Trazado 151213" d="M15.345,45.56H7.568a2.318,2.318,0,0,1-2.315-2.315V3.808A2.318,2.318,0,0,1,7.568,1.493H29.973a1.6,1.6,0,0,1,.214.016V6.165A3.812,3.812,0,0,0,34,9.973h4.656a1.584,1.584,0,0,1,.016.214V22.9a.747.747,0,1,0,1.493,0V10.187a3.046,3.046,0,0,0-.9-2.168L32.141.9A3.046,3.046,0,0,0,29.973,0H7.568A3.812,3.812,0,0,0,3.76,3.808V43.245a3.812,3.812,0,0,0,3.808,3.808h7.777a.746.746,0,1,0,0-1.493ZM37.612,8.48H34A2.318,2.318,0,0,1,31.68,6.165V2.549Z" transform="translate(-3.76 0)"/>
            <path id="Trazado_151214" data-name="Trazado 151214" d="M50.441,44.575,44.116,33.9a1.636,1.636,0,0,0-2.243-.574l-1.539.912a2.923,2.923,0,0,0-1.289,3.408,2.289,2.289,0,0,1-1.61-.017c-1.215-.382-2.138-1.151-3.664-.765-2.59.659-2.511.626-2.745.707-1.516-.863-2.428-1.12-4.038-.5l-1.435.555a2.3,2.3,0,0,1-2.01-.168l-.392-.231a2.916,2.916,0,0,0-1.392-2.99h0l-1.538-.911a1.639,1.639,0,0,0-2.243.574L11.653,44.575a1.636,1.636,0,0,0,.574,2.243l1.538.911a2.9,2.9,0,0,0,1.483.407,2.939,2.939,0,0,0,1.595-.471l.321.189-.677.943a2.5,2.5,0,0,0,2.422,3.931,2.5,2.5,0,0,0,2.854,2.05,2.5,2.5,0,0,0,3.453,1.878,2.5,2.5,0,0,0,4.253.7l1.8,1.066A2.507,2.507,0,0,0,35.03,56.57l0,0A2.5,2.5,0,0,0,38.807,54.6a2.5,2.5,0,0,0,3.1-2.165,2.5,2.5,0,0,0,2.83-3.943l.992-.579a2.912,2.912,0,0,0,2.6-.186l1.538-.911a1.636,1.636,0,0,0,.574-2.243Zm-35.915,1.87-1.538-.912a.144.144,0,0,1-.051-.2l6.326-10.677a.144.144,0,0,1,.2-.051L21,35.52a1.425,1.425,0,0,1,.5,1.953l-5.019,8.472a1.427,1.427,0,0,1-1.953.5Zm3.4,4.633a1.01,1.01,0,0,1-.231-1.41l1-1.386a1.01,1.01,0,0,1,1.641,1.178l-1,1.386A1.011,1.011,0,0,1,17.93,51.078Zm2.854,2.049a1.011,1.011,0,0,1-.231-1.41l1-1.386h0l1.1-1.53a1,1,0,0,1,.657-.408,1.019,1.019,0,0,1,.166-.014,1.01,1.01,0,0,1,.818,1.6L22.194,52.9A1.009,1.009,0,0,1,20.784,53.127Zm2.854,2.049a1.011,1.011,0,0,1-.232-1.409h0L25.5,50.85a1.01,1.01,0,1,1,1.641,1.178l-.93,1.3h0l-1.163,1.62a1.011,1.011,0,0,1-1.41.231Zm3.321,1.4a1.011,1.011,0,0,1-.232-1.409l.7-.97a1.01,1.01,0,0,1,1.641,1.178l-.7.969A1.011,1.011,0,0,1,26.959,56.574Zm16.733-5.952a1.012,1.012,0,0,1-1.384.354L35.7,47.061a.747.747,0,0,0-.761,1.284l5,2.96h0a1.011,1.011,0,0,1-1.03,1.739l-5-2.961a.747.747,0,0,0-.761,1.284l3.681,2.181h0A1.011,1.011,0,0,1,35.8,55.288l-1.975-1.17h0l-1.442-.854a.747.747,0,0,0-.761,1.284l1.442.854h0a1.011,1.011,0,1,1-1.03,1.739l-1.682-1a2.5,2.5,0,0,0-1.681-3.827,2.5,2.5,0,0,0-2.731-3.349,2.5,2.5,0,0,0-4.246-1.338,2.5,2.5,0,0,0-3.48-.893l-.342-.2,4.7-7.925.224.132a3.78,3.78,0,0,0,3.308.275l1.435-.555a2.2,2.2,0,0,1,2.086.045,3.342,3.342,0,0,0-.847,2.226v3.31a1.6,1.6,0,0,0,1.593,1.6h0A3.306,3.306,0,0,0,33.487,43.4l9.851,5.834a1.01,1.01,0,0,1,.354,1.384Zm5.414-5.088-1.539.912a1.427,1.427,0,0,1-1.953-.5l-2.353-3.971a.747.747,0,1,0-1.285.761l2.353,3.971c.044.075.092.146.142.215l-.654.382a3.786,3.786,0,0,0-.381.258L33.3,41.556a.747.747,0,0,0-1.127.642,1.907,1.907,0,0,1-.53,1.419,1.8,1.8,0,0,1-1.278.529h0a.1.1,0,0,1-.1-.1v-3.31a1.857,1.857,0,0,1,1.4-1.8l2.479-.628c.9-.227,1.408.253,2.755.709a3.774,3.774,0,0,0,2.855-.046l.451.761a.747.747,0,0,0,1.285-.761l-.887-1.5a1.425,1.425,0,0,1,.5-1.953l1.538-.911a.144.144,0,0,1,.2.051l6.325,10.677a.144.144,0,0,1-.05.2Z" transform="translate(-5.619 -8.028)"/>
          </g>
        </g>
      </g>
    </g>
  </g>
</svg>
