<svg id="Copyright" xmlns="http://www.w3.org/2000/svg" width="132.199" height="132.199" viewBox="0 0 132.199 132.199">
  <rect id="Rectángulo_456275" data-name="Rectángulo 456275" width="75" height="97" rx="2" transform="translate(35.518 2)" fill="#bcbec0"/>
  <rect id="Rectángulo_456276" data-name="Rectángulo 456276" width="74" height="97" rx="2" transform="translate(55.518 24)" fill="#d1d3d4"/>
  <path id="Trazado_997427" data-name="Trazado 997427" d="M43.813,21.407v83.726H39.407V21.407A4.42,4.42,0,0,0,35,17h4.407a4.42,4.42,0,0,1,4.407,4.407Z" transform="translate(37.71 16.05)" fill="#bcbec0"/>
  <path id="Trazado_997428" data-name="Trazado 997428" d="M53.2,13H51V30.627l2.2-4.407,2.2-4.407,4.407,8.813V13Z" transform="translate(56.963 11.236)" fill="#ff5023"/>
  <path id="Trazado_997429" data-name="Trazado 997429" d="M50.813,3V16.22L46.407,9.61,42,16.22V3Z" transform="translate(46.133 -0.797)" fill="#ff5023"/>
  <rect id="Rectángulo_456277" data-name="Rectángulo 456277" width="75" height="97" rx="2" transform="translate(2.518 33)" fill="#e6e7e8"/>
  <path id="Trazado_997430" data-name="Trazado 997430" d="M51.44,31.93,44.83,29l-9.915,4.407-5.508,2.446L25,37.813v13.22a26.219,26.219,0,0,0,1.564,8.813,27.22,27.22,0,0,0,5.288,8.813,25.924,25.924,0,0,0,6.742,5.354l6.235,3.459,6.235-3.459a2.093,2.093,0,0,0,.375-.22,25.867,25.867,0,0,0,6.368-5.134,25.075,25.075,0,0,0,3.217-4.407,26.356,26.356,0,0,0,3.239-8.813,25.756,25.756,0,0,0,.4-4.539V37.813Z" transform="translate(25.676 30.49)" fill="#ffd422"/>
  <path id="Trazado_997431" data-name="Trazado 997431" d="M35.813,17V34.627l-4.407-8.813L27,34.627V17Z" transform="translate(28.083 16.05)" fill="#ff5023"/>
  <path id="Trazado_997432" data-name="Trazado 997432" d="M127.589,24.033h-13.22V8.61A6.61,6.61,0,0,0,107.76,2H41.66a6.61,6.61,0,0,0-6.61,6.61V32.846H8.61A6.61,6.61,0,0,0,2,39.456v88.133a6.61,6.61,0,0,0,6.61,6.61h66.1a6.61,6.61,0,0,0,6.61-6.61v-2.2h46.27a6.61,6.61,0,0,0,6.61-6.61V30.643a6.61,6.61,0,0,0-6.61-6.61ZM112.166,28.44h4.407v6.09l-.22-.465a2.3,2.3,0,0,0-3.944,0l-.22.465ZM92.336,6.407h4.407v3.746l-.37-.555a2.289,2.289,0,0,0-3.666,0l-.37.555Zm-52.88,2.2a2.2,2.2,0,0,1,2.2-2.2H87.93V17.423a2.2,2.2,0,0,0,4.036,1.223l2.573-3.867,2.573,3.86a2.2,2.2,0,0,0,4.036-1.216V6.407h6.61a2.2,2.2,0,0,1,2.2,2.2V24.033H61.49a6.61,6.61,0,0,0-6.61,6.61v2.2H39.456Zm19.83,28.643h4.407v6.09l-.231-.465a2.3,2.3,0,0,0-3.944,0l-.231.465ZM74.71,129.792H8.61a2.2,2.2,0,0,1-2.2-2.2V39.456a2.2,2.2,0,0,1,2.2-2.2H54.88V52.676a2.2,2.2,0,0,0,4.175.985L61.49,48.79l2.435,4.872a2.2,2.2,0,0,0,4.175-.985V37.253h6.61a2.2,2.2,0,0,1,2.2,2.2V61.049L73.4,59.487a2.2,2.2,0,0,0-1.789,0L51.782,68.3a2.2,2.2,0,0,0-1.309,2V83.388A28.656,28.656,0,0,0,65.207,108.42l6.231,3.461a2.2,2.2,0,0,0,2.137,0l3.338-1.846v17.554a2.2,2.2,0,0,1-2.2,2.2Zm2.959-25.217-5.162,2.867-5.16-2.864A24.252,24.252,0,0,1,54.88,83.388V71.735L72.506,63.9l17.627,7.835V83.388A24.252,24.252,0,0,1,77.669,104.575Zm52.124,14.2a2.2,2.2,0,0,1-2.2,2.2H81.32v-13.46A28.654,28.654,0,0,0,94.54,83.388V70.3a2.2,2.2,0,0,0-1.309-2.014L81.32,63V39.456a6.61,6.61,0,0,0-6.61-6.61H59.286v-2.2a2.2,2.2,0,0,1,2.2-2.2h46.27V43.863a2.2,2.2,0,0,0,4.186.985l2.424-4.872,2.424,4.872a2.2,2.2,0,0,0,4.186-.985V28.44h6.61a2.2,2.2,0,0,1,2.2,2.2Z" transform="translate(-2 -2)"/>
  <path id="Trazado_997433" data-name="Trazado 997433" d="M40,24H75.253v4.407H40Z" transform="translate(43.726 24.473)"/>
  <path id="Trazado_997434" data-name="Trazado 997434" d="M42,28H72.847v4.407H42Z" transform="translate(46.133 29.286)"/>
  <path id="Trazado_997435" data-name="Trazado 997435" d="M52,32h8.813v4.407H52Z" transform="translate(58.166 34.099)"/>
  <path id="Trazado_997436" data-name="Trazado 997436" d="M46,32h8.813v4.407H46Z" transform="translate(50.946 34.099)"/>
  <path id="Trazado_997437" data-name="Trazado 997437" d="M46,36H68.033v4.407H46Z" transform="translate(50.946 38.913)"/>
  <path id="Trazado_997438" data-name="Trazado 997438" d="M46,40h8.813v4.407H46Z" transform="translate(50.946 43.726)"/>
  <path id="Trazado_997439" data-name="Trazado 997439" d="M52,40h8.813v4.407H52Z" transform="translate(58.166 43.726)"/>
  <path id="Trazado_997440" data-name="Trazado 997440" d="M46,44H68.033v4.407H46Z" transform="translate(50.946 48.539)"/>
  <path id="Trazado_997441" data-name="Trazado 997441" d="M44,48h8.813v4.407H44Z" transform="translate(48.54 53.353)"/>
  <path id="Trazado_997442" data-name="Trazado 997442" d="M50,48h4.407v4.407H50Z" transform="translate(55.76 53.353)"/>
  <path id="Trazado_997443" data-name="Trazado 997443" d="M54,48h4.407v4.407H54Z" transform="translate(60.573 53.353)"/>
  <path id="Trazado_997444" data-name="Trazado 997444" d="M8,30H21.22v4.407H8Z" transform="translate(5.22 31.693)"/>
  <path id="Trazado_997445" data-name="Trazado 997445" d="M16,30H29.22v4.407H16Z" transform="translate(14.847 31.693)"/>
  <path id="Trazado_997446" data-name="Trazado 997446" d="M8,46H21.22v4.407H8Z" transform="translate(5.22 50.946)"/>
  <path id="Trazado_997447" data-name="Trazado 997447" d="M16,46H33.627v4.407H16Z" transform="translate(14.847 50.946)"/>
  <path id="Trazado_997448" data-name="Trazado 997448" d="M8,50H25.627v4.407H8Z" transform="translate(5.22 55.759)"/>
  <path id="Trazado_997449" data-name="Trazado 997449" d="M18,50H40.033v4.407H18Z" transform="translate(17.253 55.759)"/>
  <path id="Trazado_997450" data-name="Trazado 997450" d="M8,34h4.407v4.407H8Z" transform="translate(5.22 36.506)"/>
  <path id="Trazado_997451" data-name="Trazado 997451" d="M12,34H34.033v4.407H12Z" transform="translate(10.033 36.506)"/>
  <path id="Trazado_997452" data-name="Trazado 997452" d="M8,38H38.847v4.407H8Z" transform="translate(5.22 41.319)"/>
  <path id="Trazado_997453" data-name="Trazado 997453" d="M8,42H38.847v4.407H8Z" transform="translate(5.22 46.133)"/>
  <path id="Trazado_997454" data-name="Trazado 997454" d="M23,7H40.627v4.407H23Z" transform="translate(23.27 4.017)"/>
  <path id="Trazado_997455" data-name="Trazado 997455" d="M33,7h8.813v4.407H33Z" transform="translate(35.303 4.017)"/>
  <path id="Trazado_997456" data-name="Trazado 997456" d="M8,22h8.813v4.407H8Z" transform="translate(5.22 22.066)"/>
  <path id="Trazado_997457" data-name="Trazado 997457" d="M14,22H31.627v4.407H14Z" transform="translate(12.44 22.066)"/>
  <path id="Trazado_997458" data-name="Trazado 997458" d="M8,26H38.847v4.407H8Z" transform="translate(5.22 26.88)"/>
  <path id="Trazado_997459" data-name="Trazado 997459" d="M40.017,39.407a6.61,6.61,0,0,1,4.957,2.238l3.305-2.915a11.017,11.017,0,1,0,0,14.573l-3.3-2.915a6.61,6.61,0,1,1-4.957-10.981Z" transform="translate(30.49 37.709)"/>
</svg>
