<svg xmlns="http://www.w3.org/2000/svg" width="124" height="124" viewBox="0 0 124 124">
  <g id="Grupo_1186780" data-name="Grupo 1186780" transform="translate(-1103 -8742.68)">
    <circle id="Elipse_13730" data-name="Elipse 13730" cx="62" cy="62" r="62" transform="translate(1103 8742.68)" fill="#fff"/>
    <ellipse id="Elipse_4498" data-name="Elipse 4498" cx="36.317" cy="36.317" rx="36.317" ry="36.317" transform="translate(1128 8768.363)" fill="#fff"/>
    <g id="atencion-al-cliente" transform="translate(1128 8768.363)">
      <g id="Grupo_100660" data-name="Grupo 100660" transform="translate(1.171 1.172)">
        <g id="Grupo_100644" data-name="Grupo 100644" transform="translate(0 3.514)">
          <path id="Trazado_151258" data-name="Trazado 151258" d="M43.7,9.677V20.666A24.609,24.609,0,0,0,16.921,55.647v.012a4.459,4.459,0,0,0-.164,1.195v12.57H13.911l-3.058-3.069,2.12-3.585A31.549,31.549,0,0,1,7.913,50.551L3.871,49.508V40.136l4.042-1.043a31.549,31.549,0,0,1,5.061-12.219l-2.12-3.585,6.631-6.631,3.585,2.12a31.549,31.549,0,0,1,12.219-5.061L34.33,9.677Z" transform="translate(-3.871 -9.677)" fill="#fcd770"/>
        </g>
        <g id="Grupo_100645" data-name="Grupo 100645" transform="translate(50.96 25.773)">
          <path id="Trazado_151259" data-name="Trazado 151259" d="M107.394,54.652v9.372l-4.042,1.043a31.549,31.549,0,0,1-5.061,12.219l2.12,3.585L97.355,83.94h-8.7l-.586-4.686h6.443a2.35,2.35,0,0,0,2.343-2.343V65.2a2.4,2.4,0,0,0-.41-1.336,24.971,24.971,0,0,0,.41-4.522,24.512,24.512,0,0,0-3.643-12.887h7.931a31.365,31.365,0,0,1,2.214,7.158Z" transform="translate(-88.064 -46.452)" fill="#fcd770"/>
        </g>
        <g id="Grupo_100646" data-name="Grupo 100646" transform="translate(0 63.261)">
          <path id="Trazado_151260" data-name="Trazado 151260" d="M74.161,113.073v2.343H3.871v-2.343a4.685,4.685,0,0,1,4.686-4.686H69.475A4.685,4.685,0,0,1,74.161,113.073Z" transform="translate(-3.871 -108.387)" fill="#969faa"/>
        </g>
        <g id="Grupo_100647" data-name="Grupo 100647" transform="translate(12.887 45.419)">
          <path id="Trazado_151261" data-name="Trazado 151261" d="M50.934,92.066v4.686H25.161V84.181a4.459,4.459,0,0,1,.164-1.195v-.012a4.679,4.679,0,0,1,3.6-3.386l3.386-.679,1.054,7.3,4.686-3.514,4.686,3.514,1.054-7.3,3.386.679a4.8,4.8,0,0,1,1.418.539v9.595A2.35,2.35,0,0,0,50.934,92.066Z" transform="translate(-25.161 -78.91)" fill="#ff826e"/>
        </g>
        <g id="Grupo_100648" data-name="Grupo 100648" transform="translate(25.773 44.611)">
          <path id="Trazado_151262" data-name="Trazado 151262" d="M51.348,78.207l.843.176-1.054,7.3-4.686-3.515,3.667-4.592a3.506,3.506,0,0,0,1.23.633Z" transform="translate(-46.452 -77.574)" fill="#fc6e51"/>
        </g>
        <g id="Grupo_100649" data-name="Grupo 100649" transform="translate(20.033 44.611)">
          <path id="Trazado_151263" data-name="Trazado 151263" d="M39.041,77.574l3.667,4.592-4.686,3.515-1.054-7.3.843-.176a3.506,3.506,0,0,0,1.23-.633Z" transform="translate(-36.968 -77.574)" fill="#fc6e51"/>
        </g>
        <g id="Grupo_100650" data-name="Grupo 100650" transform="translate(16.401 25.773)">
          <path id="Trazado_151264" data-name="Trazado 151264" d="M49.712,52.192a4.03,4.03,0,0,1-.035.539,4.129,4.129,0,0,1-1.418,2.542l-.937.843a2.265,2.265,0,0,0-1.125-.293H42.964A11.1,11.1,0,0,1,38,54.652a2.338,2.338,0,0,0-2.027,1.172H34.482a2.265,2.265,0,0,0-1.125.293l-.937-.843A4.129,4.129,0,0,1,31,52.731a4.03,4.03,0,0,1-.035-.539,4.455,4.455,0,0,1,1.781-3.561l1.816-1.359a4.027,4.027,0,0,1,2.448-.82h.469a4.083,4.083,0,0,1,2.858,1.172A4.083,4.083,0,0,1,43.2,46.452h.469a4.027,4.027,0,0,1,2.448.82l1.816,1.359a4.455,4.455,0,0,1,1.781,3.561Z" transform="translate(-30.968 -46.452)" fill="#656d78"/>
        </g>
        <g id="Grupo_100651" data-name="Grupo 100651" transform="translate(30.307 35.145)">
          <path id="Trazado_151265" data-name="Trazado 151265" d="M56.918,62.627a2.291,2.291,0,0,1,.691,1.652,2.35,2.35,0,0,1-2.343,2.343H53.942a4.284,4.284,0,0,0,.152-1.171V61.935h1.172a2.265,2.265,0,0,1,1.125.293A1.955,1.955,0,0,1,56.918,62.627Z" transform="translate(-53.942 -61.935)" fill="#f0d0b4"/>
        </g>
        <g id="Grupo_100652" data-name="Grupo 100652" transform="translate(22.106 42.654)">
          <path id="Trazado_151266" data-name="Trazado 151266" d="M47.727,76.3,44.06,80.891,40.394,76.3a3.451,3.451,0,0,0,1.23-1.945v-.012a4.641,4.641,0,0,0,4.873,0v.012A3.451,3.451,0,0,0,47.727,76.3Z" transform="translate(-40.394 -74.342)" fill="#f0d0b4"/>
        </g>
        <g id="Grupo_100653" data-name="Grupo 100653" transform="translate(21.087 33.974)">
          <path id="Trazado_151267" data-name="Trazado 151267" d="M47.929,65.857a4.629,4.629,0,0,1-2.1,2.823,4.641,4.641,0,0,1-4.873,0A4.9,4.9,0,0,1,40.08,68a4.778,4.778,0,0,1-1.218-2.144,4.284,4.284,0,0,1-.152-1.172V62.343A2.349,2.349,0,0,1,41.053,60a11.1,11.1,0,0,0,4.967,1.172h2.062v3.514a4.284,4.284,0,0,1-.152,1.172Z" transform="translate(-38.71 -60)" fill="#f0d0b4"/>
        </g>
        <g id="Grupo_100654" data-name="Grupo 100654" transform="translate(17.573 35.145)">
          <path id="Trazado_151268" data-name="Trazado 151268" d="M35.246,61.935h1.488a2.337,2.337,0,0,0-.316,1.171V65.45a4.284,4.284,0,0,0,.152,1.171H35.246A2.36,2.36,0,0,1,32.9,64.278a2.342,2.342,0,0,1,1.218-2.05A2.265,2.265,0,0,1,35.246,61.935Z" transform="translate(-32.903 -61.935)" fill="#f0d0b4"/>
        </g>
        <g id="Grupo_100655" data-name="Grupo 100655" transform="translate(36.317 42.174)">
          <path id="Trazado_151269" data-name="Trazado 151269" d="M87.3,75.891V87.606a2.35,2.35,0,0,1-2.343,2.343H78.515l-.586-4.686H73.243l-.586,4.686H66.214a2.35,2.35,0,0,1-2.343-2.343V75.891a2.35,2.35,0,0,1,2.343-2.343H84.958a2.369,2.369,0,0,1,1.933,1.007A2.4,2.4,0,0,1,87.3,75.891Z" transform="translate(-63.871 -73.548)" fill="#ccd1d9"/>
        </g>
        <g id="Grupo_100656" data-name="Grupo 100656" transform="translate(44.517 53.889)">
          <path id="Trazado_151270" data-name="Trazado 151270" d="M83.863,97.589l.586,4.686H77.419l.586-4.686.586-4.686h4.686Z" transform="translate(-77.419 -92.903)" fill="#aab2bd"/>
        </g>
        <g id="Grupo_100657" data-name="Grupo 100657" transform="translate(39.831)">
          <path id="Trazado_151271" data-name="Trazado 151271" d="M100.136,6.214V27.3a2.35,2.35,0,0,1-2.343,2.343H95.45V28.472A10.544,10.544,0,0,0,84.907,17.929a4.686,4.686,0,1,0-4.686-4.686,4.685,4.685,0,0,0,4.686,4.686A10.559,10.559,0,0,0,74.363,28.472v1.171H72.02A2.35,2.35,0,0,1,69.677,27.3V6.214A2.35,2.35,0,0,1,72.02,3.871H97.793A2.35,2.35,0,0,1,100.136,6.214Z" transform="translate(-69.677 -3.871)" fill="#e6e9ed"/>
        </g>
        <g id="Grupo_100658" data-name="Grupo 100658" transform="translate(44.517 14.058)">
          <path id="Trazado_151272" data-name="Trazado 151272" d="M98.506,37.64v1.171H86.791L82.105,43.5H79.762V38.812H77.419V37.64a10.544,10.544,0,0,1,21.087,0Z" transform="translate(-77.419 -27.097)" fill="#b4dd7f"/>
        </g>
        <g id="Grupo_100659" data-name="Grupo 100659" transform="translate(50.375 4.686)">
          <ellipse id="Elipse_4777" data-name="Elipse 4777" cx="4.686" cy="4.686" rx="4.686" ry="4.686" fill="#f0d0b4"/>
        </g>
      </g>
      <g id="Grupo_100661" data-name="Grupo 100661" transform="translate(0 0)">
        <path id="Trazado_151273" data-name="Trazado 151273" d="M74.569,26.537V5.45a3.519,3.519,0,0,0-3.515-3.515H45.281A3.519,3.519,0,0,0,41.767,5.45H32.659l-1.087,4.2a32.4,32.4,0,0,0-11.3,4.681l-3.741-2.2-7.911,7.91,2.206,3.741a32.4,32.4,0,0,0-4.681,11.3L1.935,36.174V47.36l4.206,1.087a32.394,32.394,0,0,0,4.681,11.3L8.617,63.491,10.322,65.2H7.793a5.864,5.864,0,0,0-5.858,5.858v3.514H74.569V71.054A5.864,5.864,0,0,0,68.711,65.2H66.182l1.706-1.706L65.682,59.75a32.394,32.394,0,0,0,4.681-11.3l4.206-1.088V36.173l-4.206-1.087A32.778,32.778,0,0,0,68.89,30.05h2.164a3.517,3.517,0,0,0,3.515-3.513ZM54.653,12.479a3.515,3.515,0,1,1,3.515,3.514A3.519,3.519,0,0,1,54.653,12.479Zm1.858,15.23-4.686,4.686h-.686V27.708H48.8a9.372,9.372,0,0,1,18.744,0ZM48.8,30.051v4.686h4l4.686-4.686h1.051a23.368,23.368,0,0,1,3.15,11.715,23.686,23.686,0,0,1-.146,2.513,3.5,3.5,0,0,0-1.025-.17H41.767a3.519,3.519,0,0,0-3.514,3.514v.438l-.013,0-4.145-.832a2.344,2.344,0,0,1-1.372-1.075,5.867,5.867,0,0,0,1.518-2.042h.5a3.519,3.519,0,0,0,3.515-3.515,3.48,3.48,0,0,0-.658-2.033A5.31,5.31,0,0,0,39.383,35.3a5.624,5.624,0,0,0-2.213-5.18L35.357,28.76A5.283,5.283,0,0,0,32.2,27.708h-.463a5.214,5.214,0,0,0-2.862.847,5.217,5.217,0,0,0-2.862-.847h-.463A5.29,5.29,0,0,0,22.4,28.759L20.59,30.118A5.635,5.635,0,0,0,18.376,35.3a5.311,5.311,0,0,0,1.789,3.267,3.5,3.5,0,0,0,2.857,5.547h.5a5.864,5.864,0,0,0,1.519,2.043A2.25,2.25,0,0,1,23.757,47.2l-4.237.854a5.83,5.83,0,0,0-3.225,1.887,23.222,23.222,0,0,1-1.473-8.178A23.29,23.29,0,0,1,41.767,18.625v7.912a3.519,3.519,0,0,0,3.515,3.514ZM17.165,53.8a3.524,3.524,0,0,1,2.817-3.444l2.171-.44,1.164,8.029,5.562-4.171,5.562,4.172,1.164-8.027,2.167.437a3.665,3.665,0,0,1,.478.138v8.845a3.51,3.51,0,0,0,2.343,3.3V65.2H17.165Zm5.858-12.034a1.172,1.172,0,1,1,0-2.343Zm.914-4.686h-.914a3.471,3.471,0,0,0-.867.121l-.415-.371A2.989,2.989,0,0,1,20.7,35.01a3.222,3.222,0,0,1-.022-.384A3.311,3.311,0,0,1,22,31.993l1.812-1.359a2.939,2.939,0,0,1,1.748-.582h.463a2.9,2.9,0,0,1,2.041.835l.821.807.821-.806a2.891,2.891,0,0,1,2.041-.836H32.2a2.939,2.939,0,0,1,1.748.582l1.812,1.359a3.309,3.309,0,0,1,1.316,2.634,2.773,2.773,0,0,1-1.064,2.2l-.415.37a3.453,3.453,0,0,0-.865-.121H31.5a9.96,9.96,0,0,1-4.439-1.048l-.247-.123h-.276a3.5,3.5,0,0,0-2.6,1.172Zm10.8,2.343a1.172,1.172,0,0,1,0,2.343Zm-1.9,9.816a4.893,4.893,0,0,0,.474.18L32.69,53.7l-2.139-1.6Zm-7.472-7.473V39.423a1.174,1.174,0,0,1,.949-1.15,12.33,12.33,0,0,0,5.185,1.15h.9v2.343a3.515,3.515,0,0,1-7.029,0Zm3.515,5.858a5.766,5.766,0,0,0,1.805-.314,4.748,4.748,0,0,0,.314.474L28.88,50.433l-2.117-2.646a4.573,4.573,0,0,0,.313-.477A5.759,5.759,0,0,0,28.88,47.624ZM24.932,49.25,27.211,52.1l-2.139,1.6-.621-4.275a4.645,4.645,0,0,0,.481-.178Zm18.006,13.6h3.944L46.59,65.2H42.938Zm11.578-7.029H47.761l-.586,4.686H41.767A1.172,1.172,0,0,1,40.6,59.339V47.624a1.172,1.172,0,0,1,1.172-1.172H60.511a1.172,1.172,0,0,1,1.171,1.172V59.339a1.172,1.172,0,0,1-1.171,1.172H55.1ZM53.326,65.2H48.95l.879-7.029h2.617ZM11.557,63.118,13.6,59.66l-.424-.616A30.116,30.116,0,0,1,8.3,47.287l-.135-.736L4.278,45.546V37.988l3.887-1,.135-.736a30.116,30.116,0,0,1,4.87-11.757l.424-.616-2.038-3.459L16.9,15.073l3.458,2.037.616-.424a30.11,30.11,0,0,1,11.756-4.869l.737-.135,1.005-3.889h7.294v8.468a26.113,26.113,0,0,0-3.514-.267A25.8,25.8,0,0,0,12.479,41.766a25.52,25.52,0,0,0,2.448,10.958,5.741,5.741,0,0,0-.105,1.075V65.2H13.635Zm60.669,7.936v1.172H4.278V71.054a3.519,3.519,0,0,1,3.515-3.514H68.711A3.519,3.519,0,0,1,72.226,71.054ZM55.687,65.2l-.293-2.343h5.116A3.508,3.508,0,0,0,63.642,60.9l1.306,2.215L62.869,65.2ZM68.2,36.248l.134.736,3.889,1v7.557l-3.887,1-.135.736a30.127,30.127,0,0,1-4.178,10.7V47.624a3.48,3.48,0,0,0-.375-1.549,26.244,26.244,0,0,0,.374-4.309,25.735,25.735,0,0,0-2.82-11.715h5.149a30.231,30.231,0,0,1,1.849,6.2ZM62.187,16.719a5.858,5.858,0,1,0-8.038,0,11.724,11.724,0,0,0-7.7,10.99H45.281a1.173,1.173,0,0,1-1.171-1.171V5.45a1.173,1.173,0,0,1,1.171-1.172H71.054A1.173,1.173,0,0,1,72.226,5.45V26.537a1.173,1.173,0,0,1-1.172,1.171H69.883A11.724,11.724,0,0,0,62.187,16.719Z" transform="translate(-1.935 -1.935)"/>
        <path id="Trazado_151274" data-name="Trazado 151274" d="M44.516,90.968h2.343v2.343H44.516Z" transform="translate(-18.743 -37.079)"/>
        <path id="Trazado_151275" data-name="Trazado 151275" d="M44.516,98.71h2.343v2.343H44.516Z" transform="translate(-18.743 -40.135)"/>
      </g>
    </g>
  </g>
</svg>
