<svg xmlns="http://www.w3.org/2000/svg" xmlns:xlink="http://www.w3.org/1999/xlink" width="103" height="103" viewBox="0 0 103 103">
  <defs>
    <filter id="Elipse_13737" x="0" y="0" width="103" height="103" filterUnits="userSpaceOnUse">
      <feOffset dy="3" input="SourceAlpha"/>
      <feGaussianBlur stdDeviation="3" result="blur"/>
      <feFlood flood-opacity="0.161"/>
      <feComposite operator="in" in2="blur"/>
      <feComposite in="SourceGraphic"/>
    </filter>
  </defs>
  <g id="Grupo_1186122" data-name="Grupo 1186122" transform="translate(-592 -10457)">
    <g id="Grupo_1185634" data-name="Grupo 1185634" transform="translate(601 10463)">
      <g transform="matrix(1, 0, 0, 1, -9, -6)" filter="url(#Elipse_13737)">
        <circle id="Elipse_13737-2" data-name="Elipse 13737" cx="42.5" cy="42.5" r="42.5" transform="translate(9 6)" fill="#fff"/>
      </g>
    </g>
    <g id="filled_outline" data-name="filled outline" transform="translate(619.407 10482.3)">
      <rect id="Rectángulo_456278" data-name="Rectángulo 456278" width="1.565" height="2.851" transform="translate(5.898 10.617)" fill="#ffb3d0"/>
      <path id="Trazado_997502" data-name="Trazado 997502" d="M156.562,30.321a2.068,2.068,0,0,0,2.222,3.153l1.732-.433v5.9h-6.587l.434,1.732a2.068,2.068,0,1,1-4.013,0l.434-1.732H144V24h16.516v5.9l-1.732-.434a2.043,2.043,0,0,0-.5-.062A2.068,2.068,0,0,0,156.562,30.321Z" transform="translate(-131.81 -23.607)" fill="#f2444e"/>
      <path id="Trazado_997503" data-name="Trazado 997503" d="M305.07,147.75v14.943H298.36l.434-1.732a2.068,2.068,0,1,0-4.013,0l.434,1.732h-6.66v-5.9l-1.732.433a2.068,2.068,0,1,1-.5-4.074,2.043,2.043,0,0,1,.5.062l1.732.434v-5.9Z" transform="translate(-258.276 -135.191)" fill="#3a69ff"/>
      <path id="Trazado_997504" data-name="Trazado 997504" d="M176.516,308.79v5.9H160V299.75h6.783l-.434,1.732a2.068,2.068,0,1,0,4.013,0l-.434-1.732h6.587v5.894l-1.732-.434a2.068,2.068,0,1,0,0,4.013Z" transform="translate(-146.238 -272.249)" fill="#fcc419"/>
      <path id="Trazado_997505" data-name="Trazado 997505" d="M305.048,260.283v14.943H288.533v-5.9l-1.732.434a2.068,2.068,0,1,1,0-4.013l1.732.434v-5.894h6.66l-.434-1.732a2.068,2.068,0,1,1,4.013,0l-.434,1.732Z" transform="translate(-258.255 -232.782)" fill="#06b790"/>
      <path id="Trazado_997506" data-name="Trazado 997506" d="M80,103.194v-1.819h2.359v2.605a.786.786,0,0,1-.786.786h0A1.573,1.573,0,0,1,80,103.194Z" transform="translate(-74.102 -93.375)" fill="#ffb3d0"/>
      <path id="Trazado_997507" data-name="Trazado 997507" d="M70.659,91.875h1.385a.865.865,0,0,1,.865.856h0a.865.865,0,0,1-.695.858l-1.311.264v1.006A1.341,1.341,0,0,1,69.561,96.2h0l-.705-1.388a2.022,2.022,0,0,1,1.8-2.937Z" transform="translate(-63.856 -84.809)" fill="#1b53a6"/>
      <path id="Trazado_997508" data-name="Trazado 997508" d="M34.224,284.448,35.4,273.831,33.831,264H25.18v10.617l-1.109,9.245a9.87,9.87,0,0,0-.07,1.176v.983H35.63a.2.2,0,0,0,.123-.35Zm-5.9,0L29.9,274.224v-6.664h.393l.963,7.058-1.264,9.162a9.829,9.829,0,0,0-.092,1.344v.583Z" transform="translate(-23.607 -240.013)" fill="#1b53a6"/>
      <path id="Trazado_997509" data-name="Trazado 997509" d="M53.25,158.834l-2.335,3.192a2.4,2.4,0,0,1-4.142-.456l-2.122-4.851v6.292H36v-8.061A2.949,2.949,0,0,1,38.949,152H44.3a2.359,2.359,0,0,1,2.156,1.4l2.524,5.677,1.791-2.335Z" transform="translate(-34.428 -139.024)" fill="#5f86fe"/>
      <path id="Trazado_997510" data-name="Trazado 997510" d="M191.108,167.278a.392.392,0,0,1,.071.539L188.7,171.2l-2.482-2.091.943-1.229-.531-1.472.128-.115a.641.641,0,0,1,.923.069l.333.406.691-.9a.393.393,0,0,1,.557-.068Z" transform="translate(-169.88 -151.39)" fill="#ffb3d0"/>
      <path id="Trazado_997511" data-name="Trazado 997511" d="M140.393,32.583a.393.393,0,0,0,.393-.393v-11.4h15.729v5l-1.243-.311a2.461,2.461,0,1,0,0,4.775l1.244-.311v5h-6.193a.393.393,0,0,0-.381.489l.433,1.731a1.672,1.672,0,0,1-.7,1.8,1.649,1.649,0,0,1-.689.264,1.715,1.715,0,0,1-.239.017.393.393,0,1,0,0,.786,2.5,2.5,0,0,0,.351-.025,2.431,2.431,0,0,0,1.015-.388,2.46,2.46,0,0,0,1.022-2.644l-.311-1.243h6.083a.393.393,0,0,0,.393-.393v-5.9a.393.393,0,0,0-.488-.382l-1.732.433a1.675,1.675,0,1,1,0-3.249l1.732.434a.393.393,0,0,0,.489-.381v-5.9a.393.393,0,0,0-.393-.393H140.393a.393.393,0,0,0-.393.393v11.8A.393.393,0,0,0,140.393,32.583Z" transform="translate(-128.204 -20)"/>
      <path id="Trazado_997512" data-name="Trazado 997512" d="M189.424,143.75H172.909a.393.393,0,0,0-.393.393v5.392l-1.242-.311a2.461,2.461,0,1,0,0,4.774l1.244-.31v5h-6.193a.393.393,0,0,0-.381.489l.433,1.731a1.675,1.675,0,1,1-3.25,0l.434-1.732a.393.393,0,0,0-.381-.489h-6.783a.393.393,0,0,0-.393.393v14.943a.393.393,0,0,0,.393.393h33.031a.393.393,0,0,0,.393-.393V144.143A.393.393,0,0,0,189.424,143.75Zm-18.343,9.486a1.675,1.675,0,1,1,0-3.249l1.732.434a.393.393,0,0,0,.489-.382v-5.5h15.729v14.156h-5.812l.311-1.244a2.461,2.461,0,1,0-4.776,0l.311,1.243H173.3v-5.508a.393.393,0,0,0-.488-.382Zm-14.295,6.243h5.886l-.311,1.244a2.462,2.462,0,1,0,4.776,0l-.311-1.243h5.689v5l-1.244-.311a2.461,2.461,0,1,0,0,4.775l1.243-.311v5H156.786ZM173.3,173.635v-5.509a.393.393,0,0,0-.489-.381l-1.732.433a1.675,1.675,0,1,1,0-3.25l1.732.434a.393.393,0,0,0,.489-.381v-5.5h6.267a.393.393,0,0,0,.381-.489l-.433-1.732a1.675,1.675,0,1,1,3.25,0l-.434,1.732a.393.393,0,0,0,.381.489h6.316v14.156Z" transform="translate(-142.631 -131.585)"/>
      <path id="Trazado_997513" data-name="Trazado 997513" d="M32.829,126.9l-1.8-1.438,1.071-9.644a6.03,6.03,0,0,0-.039-1.617l-1.446-9.046v-4.381l1.369,3.129a2.8,2.8,0,0,0,4.819.531l4.812-6.577a.785.785,0,0,0-.143-1.078l-1.842-1.477a.786.786,0,0,0-1.116.135l-.39.508-.019-.023a1.033,1.033,0,0,0-1.489-.111l-.128.115a.393.393,0,0,0-.107.426l.458,1.269-2.2,2.868-1.583-3.561h2.279a.393.393,0,1,0,0-.786H32.708l-.322-.725a2.755,2.755,0,0,0-2.516-1.635H27.857v-.864a1.182,1.182,0,0,0,.794-1.115V90.3a1.259,1.259,0,0,0-.463-2.43H26.8a2.415,2.415,0,0,0-2.153,3.508l.705,1.388a.394.394,0,0,0,.15.159v.854h-.983a3.346,3.346,0,0,0-3.342,3.342v18.655L20,125.59a.213.213,0,0,0,0,.024c0,.008,0,.015,0,.023v1.573a.393.393,0,0,0,.393.393h12.19a.393.393,0,0,0,.246-.7Zm4.5-30.567a.245.245,0,0,1,.172.089l.333.405a.393.393,0,0,0,.3.143h.007a.393.393,0,0,0,.305-.154l.691-.9h0L40.982,97.4l-2.228,3.044-1.873-1.578.714-.931a.393.393,0,0,0,.058-.373l-.435-1.207a.249.249,0,0,1,.109-.016ZM25.352,91.028A1.628,1.628,0,0,1,26.8,88.661h1.385a.472.472,0,0,1,.093.935l-1.311.263a.393.393,0,0,0-.316.386v1.006a.95.95,0,0,1-.721.921Zm.94,1.856a1.736,1.736,0,0,0,1.149-1.631v-.684l.424-.086v1.324a.4.4,0,0,1-.4.393.393.393,0,0,0-.393.393v1.192h-.779Zm-4.325,4.245a2.559,2.559,0,0,1,2.556-2.556H29.87a1.968,1.968,0,0,1,1.8,1.168l2.523,5.677a.393.393,0,0,0,.671.08L36.4,99.488l1.887,1.59-2.119,2.9a2.01,2.01,0,0,1-3.463-.381L30.584,98.74a.393.393,0,0,0-.754.157v5.9H21.966ZM25.9,125.583c0,.009,0,.018,0,.027a.246.246,0,0,0,0,.027v.44l-.756-.605,1.4-9.073a12.682,12.682,0,0,0,.147-1.923v-2.82l.566,4.15Zm.92,1.233-.138-.11v-1.042l1.353-9.8a.393.393,0,0,0,0-.107l-.963-7.058a.393.393,0,0,0-.389-.34h-.393a.393.393,0,0,0-.393.393v5.727a11.892,11.892,0,0,1-.138,1.8l-1.38,8.965H22a.393.393,0,1,0,0,.786h2.582l.983.786H20.786v-1.156l1.177-9.807a.394.394,0,0,0,0-.047V105.582h7.922l1.4,8.746a5.243,5.243,0,0,1,.034,1.406l-1.056,9.509H27.832a.393.393,0,1,0,0,.786h2.648l.983.786Z" transform="translate(-20 -81.202)"/>
    </g>
  </g>
</svg>
