<svg xmlns="http://www.w3.org/2000/svg" xmlns:xlink="http://www.w3.org/1999/xlink" width="1023" height="512" viewBox="0 0 1023 512">
  <defs>
    <linearGradient id="linear-gradient" x1="0.996" y1="0.018" x2="0.5" y2="1" gradientUnits="objectBoundingBox">
      <stop offset="0" stop-color="#edf2fd"/>
      <stop offset="1" stop-color="#f7fbff"/>
    </linearGradient>
    <clipPath id="clip-path">
      <path id="Trazado_997142" data-name="Trazado 997142" d="M424.259,327.773H410.91V313.719a6.674,6.674,0,0,1,6.674-6.674h0a6.674,6.674,0,0,1,6.674,6.674Z" transform="translate(-410.91 -307.045)"/>
    </clipPath>
  </defs>
  <g id="Grupo_1186784" data-name="Grupo 1186784" transform="translate(-288.348 -10838)">
    <rect id="Rectángulo_456388" data-name="Rectángulo 456388" width="1023" height="512" rx="10" transform="translate(288.348 10838)" fill="url(#linear-gradient)"/>
    <g id="Elipse_4744" data-name="Elipse 4744" transform="translate(738.128 10867)" fill="none" stroke="#12263f" stroke-width="2" stroke-dasharray="20 20">
      <circle cx="59.5" cy="59.5" r="59.5" stroke="none"/>
      <circle cx="59.5" cy="59.5" r="58.5" fill="none"/>
    </g>
    <g id="Elipse_4749" data-name="Elipse 4749" transform="translate(650.128 11202)" fill="none" stroke="#12263f" stroke-width="1">
      <circle cx="59.5" cy="59.5" r="59.5" stroke="none"/>
      <circle cx="59.5" cy="59.5" r="59" fill="none"/>
    </g>
    <path id="Trazado_997072" data-name="Trazado 997072" d="M59.5,0A59.5,59.5,0,1,1,0,59.5,59.5,59.5,0,0,1,59.5,0Z" transform="translate(894.128 10931)" fill="#eae7ad"/>
    <g id="Elipse_4750" data-name="Elipse 4750" transform="translate(826.128 11202)" fill="none" stroke="#12263f" stroke-width="3" stroke-dasharray="2">
      <circle cx="59.5" cy="59.5" r="59.5" stroke="none"/>
      <circle cx="59.5" cy="59.5" r="58" fill="none"/>
    </g>
    <g id="Elipse_4748" data-name="Elipse 4748" transform="translate(935.128 11083)" fill="none" stroke="#12263f" stroke-width="1" stroke-dasharray="5">
      <circle cx="59.5" cy="59.5" r="59.5" stroke="none"/>
      <circle cx="59.5" cy="59.5" r="59" fill="none"/>
    </g>
    <g id="Elipse_4746" data-name="Elipse 4746" transform="translate(579.128 10931)" fill="none" stroke="#12263f" stroke-width="3">
      <circle cx="59.5" cy="59.5" r="59.5" stroke="none"/>
      <circle cx="59.5" cy="59.5" r="58" fill="none"/>
    </g>
    <g id="Elipse_4747" data-name="Elipse 4747" transform="translate(545.128 11083)" fill="none" stroke="#12263f" stroke-width="3" stroke-dasharray="3">
      <circle cx="59.5" cy="59.5" r="59.5" stroke="none"/>
      <circle cx="59.5" cy="59.5" r="58" fill="none"/>
    </g>
    <path id="Unión_1" data-name="Unión 1" d="M8664.426,11721.666H8648v-17.789h16.425V11700l14.575,13-14.575,13Z" transform="translate(9462.13 22973) rotate(180)" fill="#12263f"/>
    <path id="Unión_2" data-name="Unión 2" d="M8664.426,11721.666H8648v-17.789h16.425V11700l14.575,13-14.575,13Z" transform="translate(-2253.813 25477.762) rotate(-132)" fill="#12263f"/>
    <path id="Unión_3" data-name="Unión 3" d="M8664.426,11721.666H8648v-17.789h16.425V11700l14.575,13-14.575,13Z" transform="translate(-11099.436 19726.5) rotate(-90)" fill="#12263f"/>
    <path id="Unión_4" data-name="Unión 4" d="M8664.426,11721.666H8648v-17.789h16.425V11700l14.575,13-14.575,13Z" transform="translate(-12740.6 5380.031) rotate(-31)" fill="#12263f"/>
    <path id="Unión_5" data-name="Unión 5" d="M8664.426,11721.666H8648v-17.789h16.425V11700l14.575,13-14.575,13Z" transform="translate(241.467 -3596.768) rotate(34)" fill="#12263f"/>
    <path id="Unión_6" data-name="Unión 6" d="M8664.426,11721.666H8648v-17.789h16.425V11700l14.575,13-14.575,13Z" transform="translate(10248.191 -172.846) rotate(76)" fill="#12263f"/>
    <path id="Unión_7" data-name="Unión 7" d="M8664.426,11721.666H8648v-17.789h16.425V11700l14.575,13-14.575,13Z" transform="matrix(-0.788, 0.616, -0.616, -0.788, 14976.303, 15097.756)" fill="#12263f"/>
    <path id="Trazado_998136" data-name="Trazado 998136" d="M7.778,0l-.94-2.716A3.377,3.377,0,0,0,6.13-3.973a1.292,1.292,0,0,0-.945-.457H5.036V0h-3.8V-12.6H6.284a7,7,0,0,1,3.907.866,2.941,2.941,0,0,1,1.261,2.6,3.286,3.286,0,0,1-.734,2.18A4.183,4.183,0,0,1,8.534-5.687v.035a3.052,3.052,0,0,1,1.332.8,4.948,4.948,0,0,1,.954,1.644L12.059,0Zm-.36-8.6a1.32,1.32,0,0,0-.387-1,1.707,1.707,0,0,0-1.213-.369H5.036v2.883h.686a1.741,1.741,0,0,0,1.23-.431A1.41,1.41,0,0,0,7.418-8.6ZM16.4-3.437a1.265,1.265,0,0,0,.668.91,3.012,3.012,0,0,0,1.512.33,6.226,6.226,0,0,0,2.479-.5V-.325a8.908,8.908,0,0,1-3.3.545,5.214,5.214,0,0,1-3.665-1.2A4.277,4.277,0,0,1,12.779-4.3a5.467,5.467,0,0,1,.576-2.558A4.142,4.142,0,0,1,15.06-8.591a5.038,5.038,0,0,1,2.492-.628,4.9,4.9,0,0,1,2.391.545A3.63,3.63,0,0,1,21.45-7.146a4.906,4.906,0,0,1,.514,2.3v1.406ZM18.65-5.4q0-1.556-1.116-1.556a.944.944,0,0,0-.782.426A2.127,2.127,0,0,0,16.383-5.4ZM30.674-.255A3.529,3.529,0,0,1,29.54.088,10.719,10.719,0,0,1,27.756.22a5.488,5.488,0,0,1-2.544-.576,4.2,4.2,0,0,1-1.736-1.613A4.478,4.478,0,0,1,22.86-4.3a5.1,5.1,0,0,1,.655-2.65,4.268,4.268,0,0,1,1.868-1.687A6.407,6.407,0,0,1,28.2-9.22a9.839,9.839,0,0,1,1.578.114,2.411,2.411,0,0,1,.9.264v2.918a2.6,2.6,0,0,0-.809-.387,3.248,3.248,0,0,0-.976-.167,2.375,2.375,0,0,0-1.666.523,1.9,1.9,0,0,0-.567,1.472,1.868,1.868,0,0,0,.558,1.446,2.177,2.177,0,0,0,1.534.514,3.82,3.82,0,0,0,1.925-.5Zm4.72-3.182a1.265,1.265,0,0,0,.668.91,3.012,3.012,0,0,0,1.512.33,6.226,6.226,0,0,0,2.479-.5V-.325a8.908,8.908,0,0,1-3.3.545,5.214,5.214,0,0,1-3.665-1.2A4.277,4.277,0,0,1,31.772-4.3a5.467,5.467,0,0,1,.576-2.558,4.142,4.142,0,0,1,1.705-1.736,5.038,5.038,0,0,1,2.492-.628,4.9,4.9,0,0,1,2.391.545,3.63,3.63,0,0,1,1.507,1.529,4.906,4.906,0,0,1,.514,2.3v1.406Zm2.25-1.96q0-1.556-1.116-1.556a.944.944,0,0,0-.782.426A2.127,2.127,0,0,0,35.376-5.4ZM52.4-4.772a6.4,6.4,0,0,1-.5,2.61A4.046,4.046,0,0,1,50.484-.4,3.564,3.564,0,0,1,48.428.22a2.755,2.755,0,0,1-2.4-1.151h-.035V4.14H42.249V-9h3.744v1.222h.035a3.171,3.171,0,0,1,1.16-1.059,3.364,3.364,0,0,1,1.617-.382,3.215,3.215,0,0,1,2.667,1.16A5.147,5.147,0,0,1,52.4-4.772Zm-3.8.114a2.346,2.346,0,0,0-.33-1.336,1.144,1.144,0,0,0-1.015-.483,1.141,1.141,0,0,0-.967.51,2.341,2.341,0,0,0-.369,1.4v.176a2.562,2.562,0,0,0,.316,1.362,1.044,1.044,0,0,0,.949.51,1.182,1.182,0,0,0,1.046-.558A2.849,2.849,0,0,0,48.6-4.658Zm12.621,4.4a3.529,3.529,0,0,1-1.134.343A10.719,10.719,0,0,1,58.307.22a5.488,5.488,0,0,1-2.544-.576,4.2,4.2,0,0,1-1.736-1.613A4.478,4.478,0,0,1,53.411-4.3a5.1,5.1,0,0,1,.655-2.65,4.268,4.268,0,0,1,1.868-1.687,6.407,6.407,0,0,1,2.813-.584,9.839,9.839,0,0,1,1.578.114,2.411,2.411,0,0,1,.9.264v2.918a2.6,2.6,0,0,0-.809-.387,3.248,3.248,0,0,0-.976-.167,2.375,2.375,0,0,0-1.666.523,1.9,1.9,0,0,0-.567,1.472,1.868,1.868,0,0,0,.558,1.446,2.177,2.177,0,0,0,1.534.514,3.82,3.82,0,0,0,1.925-.5Zm5.458-11.171a1.608,1.608,0,0,1-.576,1.283,2.252,2.252,0,0,1-1.516.492,2.2,2.2,0,0,1-1.5-.51,1.612,1.612,0,0,1-.584-1.266,1.561,1.561,0,0,1,.567-1.252,2.272,2.272,0,0,1,1.516-.479,2.293,2.293,0,0,1,1.516.479A1.551,1.551,0,0,1,66.683-11.426ZM62.719,0V-9h3.744V0ZM78.275-4.658A4.687,4.687,0,0,1,76.9-1.081,5.375,5.375,0,0,1,73.055.22a5.4,5.4,0,0,1-3.819-1.27,4.546,4.546,0,0,1-1.367-3.5,4.692,4.692,0,0,1,.642-2.487,4.172,4.172,0,0,1,1.828-1.617,6.311,6.311,0,0,1,2.733-.562,6.113,6.113,0,0,1,2.773.589A4.286,4.286,0,0,1,77.647-7,4.452,4.452,0,0,1,78.275-4.658Zm-3.8.018q0-1.837-1.406-1.837T71.666-4.553q0,2.03,1.424,2.03Q74.479-2.522,74.479-4.641Zm-.94-5.783H70.893l2.628-2.821h3.146ZM85.509,0V-4.913a2.184,2.184,0,0,0-.25-1.2.915.915,0,0,0-.813-.365.88.88,0,0,0-.756.378,1.613,1.613,0,0,0-.272.967V0H79.673V-9h3.744v1.406h.035a3.177,3.177,0,0,1,1.2-1.2A3.29,3.29,0,0,1,86.3-9.22q2.953,0,2.953,3.727V0Z" transform="translate(755 10933.5)" fill="#12263f"/>
    <path id="Trazado_998135" data-name="Trazado 998135" d="M9.141,0,8.587-2.32H4.825L4.228,0H.123L4.465-12.6H9.176L13.263,0ZM6.75-9.861H6.662a6.123,6.123,0,0,1-.123.694q-.105.483-1.063,4.148H7.884L7-8.446A10.84,10.84,0,0,1,6.75-9.861ZM20.232,0V-4.913a2.184,2.184,0,0,0-.25-1.2.915.915,0,0,0-.813-.365.88.88,0,0,0-.756.378,1.613,1.613,0,0,0-.272.967V0H14.4V-9h3.744v1.406h.035a3.177,3.177,0,0,1,1.2-1.2,3.29,3.29,0,0,1,1.644-.426q2.953,0,2.953,3.727V0ZM30.656,0V-1.371h-.035A2.944,2.944,0,0,1,27.879.22a2.625,2.625,0,0,1-2-.756,2.808,2.808,0,0,1-.721-2.021q0-2.654,3.261-3.076l2.232-.29a.851.851,0,0,0-.4-.721A1.8,1.8,0,0,0,29.2-6.926a7,7,0,0,0-3.19.861V-8.5a8.535,8.535,0,0,1,1.828-.519,10.639,10.639,0,0,1,1.881-.2,4.722,4.722,0,0,1,3.327.98,4.368,4.368,0,0,1,1.033,3.274V0ZM28.441-3.059a.83.83,0,0,0,.233.606.888.888,0,0,0,.664.237,1.18,1.18,0,0,0,.954-.439,1.7,1.7,0,0,0,.365-1.125v-.343l-1.266.176Q28.441-3.788,28.441-3.059ZM30.1-10.424H27.457l2.628-2.821h3.146ZM35.763,0V-13.324h3.744V0Zm9.51-11.426a1.608,1.608,0,0,1-.576,1.283,2.252,2.252,0,0,1-1.516.492,2.2,2.2,0,0,1-1.5-.51,1.612,1.612,0,0,1-.584-1.266,1.561,1.561,0,0,1,.567-1.252,2.272,2.272,0,0,1,1.516-.479,2.293,2.293,0,0,1,1.516.479A1.551,1.551,0,0,1,45.272-11.426ZM41.309,0V-9h3.744V0ZM54.167-2.988A2.749,2.749,0,0,1,53-.62,5.474,5.474,0,0,1,49.755.22,11.291,11.291,0,0,1,48.256.1,9.257,9.257,0,0,1,46.8-.2V-2.83a7.162,7.162,0,0,0,2.777.738q1.1,0,1.1-.571a.451.451,0,0,0-.255-.391,9.009,9.009,0,0,0-1.336-.514,3.773,3.773,0,0,1-1.74-1A2.382,2.382,0,0,1,46.8-6.2a2.594,2.594,0,0,1,1.112-2.21,5.216,5.216,0,0,1,3.125-.813,9.931,9.931,0,0,1,2.5.343v2.522a7.549,7.549,0,0,0-1.213-.4,4.9,4.9,0,0,0-1.107-.158,1.205,1.205,0,0,0-.589.123.379.379,0,0,0-.22.343.478.478,0,0,0,.237.413,4.2,4.2,0,0,0,.949.378,4.4,4.4,0,0,1,1.978,1.037A2.272,2.272,0,0,1,54.167-2.988Zm5.344-8.437a1.608,1.608,0,0,1-.576,1.283,2.252,2.252,0,0,1-1.516.492,2.2,2.2,0,0,1-1.5-.51,1.612,1.612,0,0,1-.584-1.266,1.561,1.561,0,0,1,.567-1.252,2.272,2.272,0,0,1,1.516-.479,2.293,2.293,0,0,1,1.516.479A1.551,1.551,0,0,1,59.511-11.426ZM55.547,0V-9h3.744V0ZM68.405-2.988A2.749,2.749,0,0,1,67.241-.62,5.474,5.474,0,0,1,63.993.22,11.291,11.291,0,0,1,62.495.1,9.257,9.257,0,0,1,61.04-.2V-2.83a7.162,7.162,0,0,0,2.777.738q1.1,0,1.1-.571a.451.451,0,0,0-.255-.391,9.009,9.009,0,0,0-1.336-.514,3.773,3.773,0,0,1-1.74-1A2.382,2.382,0,0,1,61.04-6.2a2.594,2.594,0,0,1,1.112-2.21,5.216,5.216,0,0,1,3.125-.813,9.931,9.931,0,0,1,2.5.343v2.522a7.549,7.549,0,0,0-1.213-.4,4.9,4.9,0,0,0-1.107-.158,1.205,1.205,0,0,0-.589.123.379.379,0,0,0-.22.343.478.478,0,0,0,.237.413,4.2,4.2,0,0,0,.949.378,4.4,4.4,0,0,1,1.978,1.037A2.272,2.272,0,0,1,68.405-2.988Z" transform="translate(919.128 10996.125)" fill="#12263f"/>
    <path id="Trazado_998134" data-name="Trazado 998134" d="M13.122-6.46a6.954,6.954,0,0,1-.8,3.388A5.542,5.542,0,0,1,10.02-.8,7.189,7.189,0,0,1,6.574,0H1.239V-12.6H6.46Q13.122-12.6,13.122-6.46Zm-4.034.035a3.627,3.627,0,0,0-.374-1.661A2.7,2.7,0,0,0,7.646-9.229a3.191,3.191,0,0,0-1.635-.4H5.036v6.662H6.1a2.736,2.736,0,0,0,2.175-.936A3.707,3.707,0,0,0,9.088-6.425Zm9.431-5a1.608,1.608,0,0,1-.576,1.283,2.252,2.252,0,0,1-1.516.492,2.2,2.2,0,0,1-1.5-.51,1.612,1.612,0,0,1-.584-1.266,1.561,1.561,0,0,1,.567-1.252,2.272,2.272,0,0,1,1.516-.479,2.293,2.293,0,0,1,1.516.479A1.551,1.551,0,0,1,18.519-11.426ZM14.555,0V-9H18.3V0ZM27.413-2.988A2.749,2.749,0,0,1,26.249-.62,5.474,5.474,0,0,1,23,.22,11.291,11.291,0,0,1,21.5.1a9.257,9.257,0,0,1-1.455-.3V-2.83a7.162,7.162,0,0,0,2.777.738q1.1,0,1.1-.571a.451.451,0,0,0-.255-.391,9.009,9.009,0,0,0-1.336-.514,3.773,3.773,0,0,1-1.74-1A2.382,2.382,0,0,1,20.048-6.2a2.594,2.594,0,0,1,1.112-2.21,5.216,5.216,0,0,1,3.125-.813,9.931,9.931,0,0,1,2.5.343v2.522a7.549,7.549,0,0,0-1.213-.4,4.9,4.9,0,0,0-1.107-.158,1.205,1.205,0,0,0-.589.123.379.379,0,0,0-.22.343.478.478,0,0,0,.237.413,4.2,4.2,0,0,0,.949.378,4.4,4.4,0,0,1,1.978,1.037A2.272,2.272,0,0,1,27.413-2.988ZM35.13-.123a3.648,3.648,0,0,1-.835.233,7.634,7.634,0,0,1-1.4.11A3.357,3.357,0,0,1,30.45-.642a3.269,3.269,0,0,1-.883-2.452V-6.407H28.151V-9h1.415v-1.767l3.691-1.02V-9H35.13v2.593H33.258v2.7q0,1.187.94,1.187a2.551,2.551,0,0,0,.932-.193Zm7.937-5.669a2.91,2.91,0,0,0-.571-.176,2.891,2.891,0,0,0-.6-.079q-1.854,0-1.854,2.145V0H36.3V-9h3.744v1.582h.035a2.81,2.81,0,0,1,.976-1.3,2.506,2.506,0,0,1,1.477-.444,1.269,1.269,0,0,1,.536.105Zm5.045-5.634a1.608,1.608,0,0,1-.576,1.283,2.252,2.252,0,0,1-1.516.492,2.2,2.2,0,0,1-1.5-.51,1.612,1.612,0,0,1-.584-1.266,1.561,1.561,0,0,1,.567-1.252,2.272,2.272,0,0,1,1.516-.479,2.293,2.293,0,0,1,1.516.479A1.551,1.551,0,0,1,48.111-11.426ZM44.147,0V-9h3.744V0Zm15.7-4.772a6.586,6.586,0,0,1-.488,2.615A3.975,3.975,0,0,1,57.973-.4a3.486,3.486,0,0,1-2.03.62A3.2,3.2,0,0,1,54.453-.1a2.683,2.683,0,0,1-.98-.831h-.035V0H49.693V-13.324h3.744v5.546h.035a3.083,3.083,0,0,1,1.191-1.055A3.567,3.567,0,0,1,56.32-9.22a3.157,3.157,0,0,1,2.615,1.134A5.2,5.2,0,0,1,59.845-4.772Zm-3.8.114A2.234,2.234,0,0,0,55.7-6.021a1.177,1.177,0,0,0-1-.457A1.174,1.174,0,0,0,53.75-6a1.933,1.933,0,0,0-.382,1.244v.545a2,2,0,0,0,.343,1.23,1.094,1.094,0,0,0,.923.457,1.182,1.182,0,0,0,1.046-.558A2.849,2.849,0,0,0,56.048-4.658ZM66.981,0V-1.389h-.035a4.926,4.926,0,0,1-.839.94,3.23,3.23,0,0,1-.844.483A2.983,2.983,0,0,1,64.169.22a2.722,2.722,0,0,1-2.25-.958,4.429,4.429,0,0,1-.773-2.83V-9H64.89v5.15q0,1.327.993,1.327a.972.972,0,0,0,.822-.36,1.642,1.642,0,0,0,.277-1.02V-9h3.744V0ZM79.937-.255A3.529,3.529,0,0,1,78.8.088,10.719,10.719,0,0,1,77.019.22a5.488,5.488,0,0,1-2.544-.576,4.2,4.2,0,0,1-1.736-1.613A4.478,4.478,0,0,1,72.123-4.3a5.1,5.1,0,0,1,.655-2.65,4.268,4.268,0,0,1,1.868-1.687,6.407,6.407,0,0,1,2.813-.584,9.839,9.839,0,0,1,1.578.114,2.411,2.411,0,0,1,.9.264v2.918a2.6,2.6,0,0,0-.809-.387,3.248,3.248,0,0,0-.976-.167,2.375,2.375,0,0,0-1.666.523,1.9,1.9,0,0,0-.567,1.472,1.868,1.868,0,0,0,.558,1.446,2.177,2.177,0,0,0,1.534.514,3.82,3.82,0,0,0,1.925-.5Zm5.458-11.171a1.608,1.608,0,0,1-.576,1.283A2.252,2.252,0,0,1,83.3-9.65a2.2,2.2,0,0,1-1.5-.51,1.612,1.612,0,0,1-.584-1.266,1.561,1.561,0,0,1,.567-1.252,2.272,2.272,0,0,1,1.516-.479,2.293,2.293,0,0,1,1.516.479A1.551,1.551,0,0,1,85.395-11.426ZM81.431,0V-9h3.744V0ZM96.987-4.658a4.687,4.687,0,0,1-1.375,3.577A5.375,5.375,0,0,1,91.767.22a5.4,5.4,0,0,1-3.819-1.27,4.546,4.546,0,0,1-1.367-3.5,4.692,4.692,0,0,1,.642-2.487,4.172,4.172,0,0,1,1.828-1.617,6.311,6.311,0,0,1,2.733-.562,6.113,6.113,0,0,1,2.773.589A4.286,4.286,0,0,1,96.359-7,4.452,4.452,0,0,1,96.987-4.658Zm-3.8.018q0-1.837-1.406-1.837T90.378-4.553q0,2.03,1.424,2.03Q93.19-2.522,93.19-4.641Zm-.94-5.783H89.6l2.628-2.821h3.146ZM104.221,0V-4.913a2.184,2.184,0,0,0-.25-1.2.915.915,0,0,0-.813-.365.88.88,0,0,0-.756.378,1.613,1.613,0,0,0-.272.967V0H98.385V-9h3.744v1.406h.035a3.177,3.177,0,0,1,1.2-1.2,3.29,3.29,0,0,1,1.644-.426q2.953,0,2.953,3.727V0Z" transform="translate(940.128 11151.232)" fill="#12263f"/>
    <path id="Trazado_998130" data-name="Trazado 998130" d="M1.239,0V-12.6h3.8V0ZM13.008,0V-4.913a2.184,2.184,0,0,0-.25-1.2.915.915,0,0,0-.813-.365.88.88,0,0,0-.756.378,1.613,1.613,0,0,0-.272.967V0H7.172V-9h3.744v1.406h.035a3.177,3.177,0,0,1,1.2-1.2A3.29,3.29,0,0,1,13.8-9.22q2.953,0,2.953,3.727V0ZM24.451,0V-1.046h-.035a3.089,3.089,0,0,1-1.169.927A3.331,3.331,0,0,1,21.823.22a3.663,3.663,0,0,1-2.03-.567,3.443,3.443,0,0,1-1.314-1.586,6.106,6.106,0,0,1-.435-2.408,5.925,5.925,0,0,1,.519-2.54A4.059,4.059,0,0,1,20.021-8.6a3.769,3.769,0,0,1,2.109-.615,3.193,3.193,0,0,1,1.024.158,2.77,2.77,0,0,1,.817.426,1.273,1.273,0,0,1,.444.532h.035v-5.221H28.2V0Zm.079-4.772a1.974,1.974,0,0,0-.356-1.257,1.164,1.164,0,0,0-.962-.448,1.155,1.155,0,0,0-.989.558,2.593,2.593,0,0,0-.382,1.49q0,1.907,1.318,1.907a1.173,1.173,0,0,0,1-.514,2.531,2.531,0,0,0,.374-1.5Zm9.431-6.653a1.608,1.608,0,0,1-.576,1.283,2.252,2.252,0,0,1-1.516.492,2.2,2.2,0,0,1-1.5-.51,1.612,1.612,0,0,1-.584-1.266,1.561,1.561,0,0,1,.567-1.252,2.272,2.272,0,0,1,1.516-.479,2.293,2.293,0,0,1,1.516.479A1.551,1.551,0,0,1,33.961-11.426ZM30,0V-9h3.744V0ZM42.961-.255a3.529,3.529,0,0,1-1.134.343A10.719,10.719,0,0,1,40.043.22,5.488,5.488,0,0,1,37.5-.356a4.2,4.2,0,0,1-1.736-1.613A4.478,4.478,0,0,1,35.147-4.3a5.1,5.1,0,0,1,.655-2.65A4.268,4.268,0,0,1,37.67-8.635a6.407,6.407,0,0,1,2.813-.584,9.839,9.839,0,0,1,1.578.114,2.411,2.411,0,0,1,.9.264v2.918a2.6,2.6,0,0,0-.809-.387,3.248,3.248,0,0,0-.976-.167,2.375,2.375,0,0,0-1.666.523,1.9,1.9,0,0,0-.567,1.472A1.868,1.868,0,0,0,39.5-3.037a2.177,2.177,0,0,0,1.534.514,3.82,3.82,0,0,0,1.925-.5ZM49.447,0V-1.371h-.035A2.944,2.944,0,0,1,46.67.22a2.625,2.625,0,0,1-2-.756,2.808,2.808,0,0,1-.721-2.021q0-2.654,3.261-3.076l2.232-.29a.851.851,0,0,0-.4-.721,1.8,1.8,0,0,0-1.063-.281,7,7,0,0,0-3.19.861V-8.5a8.535,8.535,0,0,1,1.828-.519,10.639,10.639,0,0,1,1.881-.2,4.722,4.722,0,0,1,3.327.98,4.368,4.368,0,0,1,1.033,3.274V0ZM47.232-3.059a.83.83,0,0,0,.233.606.888.888,0,0,0,.664.237,1.18,1.18,0,0,0,.954-.439,1.7,1.7,0,0,0,.365-1.125v-.343l-1.266.176Q47.232-3.788,47.232-3.059ZM60.565,0V-1.046H60.53a3.089,3.089,0,0,1-1.169.927A3.331,3.331,0,0,1,57.938.22a3.663,3.663,0,0,1-2.03-.567,3.443,3.443,0,0,1-1.314-1.586,6.106,6.106,0,0,1-.435-2.408,5.925,5.925,0,0,1,.519-2.54A4.059,4.059,0,0,1,56.136-8.6a3.769,3.769,0,0,1,2.109-.615,3.193,3.193,0,0,1,1.024.158,2.77,2.77,0,0,1,.817.426,1.273,1.273,0,0,1,.444.532h.035v-5.221H64.31V0Zm.079-4.772a1.974,1.974,0,0,0-.356-1.257,1.164,1.164,0,0,0-.962-.448,1.155,1.155,0,0,0-.989.558,2.593,2.593,0,0,0-.382,1.49q0,1.907,1.318,1.907a1.173,1.173,0,0,0,1-.514,2.531,2.531,0,0,0,.374-1.5Zm15.478.114a4.687,4.687,0,0,1-1.375,3.577A5.375,5.375,0,0,1,70.9.22a5.4,5.4,0,0,1-3.819-1.27,4.546,4.546,0,0,1-1.367-3.5,4.692,4.692,0,0,1,.642-2.487,4.172,4.172,0,0,1,1.828-1.617,6.311,6.311,0,0,1,2.733-.562,6.113,6.113,0,0,1,2.773.589A4.286,4.286,0,0,1,75.494-7,4.452,4.452,0,0,1,76.122-4.658Zm-3.8.018q0-1.837-1.406-1.837T69.513-4.553q0,2.03,1.424,2.03Q72.325-2.522,72.325-4.641ZM84.287-5.792a2.91,2.91,0,0,0-.571-.176,2.891,2.891,0,0,0-.6-.079q-1.854,0-1.854,2.145V0H77.52V-9h3.744v1.582H81.3a2.81,2.81,0,0,1,.976-1.3,2.506,2.506,0,0,1,1.477-.444,1.269,1.269,0,0,1,.536.105Zm4.307,2.355a1.265,1.265,0,0,0,.668.91,3.012,3.012,0,0,0,1.512.33,6.226,6.226,0,0,0,2.479-.5V-.325a8.908,8.908,0,0,1-3.3.545,5.214,5.214,0,0,1-3.665-1.2A4.277,4.277,0,0,1,84.973-4.3a5.467,5.467,0,0,1,.576-2.558,4.142,4.142,0,0,1,1.705-1.736,5.038,5.038,0,0,1,2.492-.628,4.9,4.9,0,0,1,2.391.545,3.63,3.63,0,0,1,1.507,1.529,4.906,4.906,0,0,1,.514,2.3v1.406Zm2.25-1.96q0-1.556-1.116-1.556a.944.944,0,0,0-.782.426A2.127,2.127,0,0,0,88.576-5.4Zm11.918,2.408A2.749,2.749,0,0,1,101.6-.62,5.474,5.474,0,0,1,98.35.22,11.291,11.291,0,0,1,96.851.1,9.257,9.257,0,0,1,95.4-.2V-2.83a7.162,7.162,0,0,0,2.777.738q1.1,0,1.1-.571a.451.451,0,0,0-.255-.391,9.009,9.009,0,0,0-1.336-.514,3.773,3.773,0,0,1-1.74-1A2.382,2.382,0,0,1,95.4-6.2a2.594,2.594,0,0,1,1.112-2.21,5.216,5.216,0,0,1,3.125-.813,9.931,9.931,0,0,1,2.5.343v2.522a7.549,7.549,0,0,0-1.213-.4,4.9,4.9,0,0,0-1.107-.158,1.205,1.205,0,0,0-.589.123.379.379,0,0,0-.22.343.478.478,0,0,0,.237.413,4.2,4.2,0,0,0,.949.378,4.4,4.4,0,0,1,1.978,1.037A2.272,2.272,0,0,1,102.762-2.988Z" transform="translate(587.128 10997.5)" fill="#12263f"/>
    <path id="Trazado_998131" data-name="Trazado 998131" d="M9.993-3.814a3.64,3.64,0,0,1-.672,2.188A3.985,3.985,0,0,1,7.436-.237,8.291,8.291,0,0,1,4.518.22,9.531,9.531,0,0,1,.9-.448V-3.9a7.153,7.153,0,0,0,1.749.936A5.145,5.145,0,0,0,4.43-2.61,1.761,1.761,0,0,0,5.4-2.834a.733.733,0,0,0,.343-.655.888.888,0,0,0-.171-.541,1.683,1.683,0,0,0-.519-.435,9.659,9.659,0,0,0-1.288-.554Q.721-6.187.721-8.8A3.531,3.531,0,0,1,2.109-11.72a5.858,5.858,0,0,1,3.727-1.094q.659,0,1.213.053t1.006.132q.453.079,1.27.3v3.208A6.49,6.49,0,0,0,6.2-9.993a1.931,1.931,0,0,0-1.02.237.73.73,0,0,0-.387.65.816.816,0,0,0,.312.655,5.85,5.85,0,0,0,1.305.672A7.237,7.237,0,0,1,9.18-6.047,3.3,3.3,0,0,1,9.993-3.814Zm4.421.378a1.265,1.265,0,0,0,.668.91,3.012,3.012,0,0,0,1.512.33,6.226,6.226,0,0,0,2.479-.5V-.325a8.908,8.908,0,0,1-3.3.545A5.214,5.214,0,0,1,12.1-.984,4.277,4.277,0,0,1,10.793-4.3a5.467,5.467,0,0,1,.576-2.558,4.142,4.142,0,0,1,1.705-1.736,5.038,5.038,0,0,1,2.492-.628,4.9,4.9,0,0,1,2.391.545,3.63,3.63,0,0,1,1.507,1.529,4.906,4.906,0,0,1,.514,2.3v1.406Zm2.25-1.96q0-1.556-1.116-1.556a.944.944,0,0,0-.782.426A2.127,2.127,0,0,0,14.4-5.4Zm14.361,4.14A5.116,5.116,0,0,1,29.4,2.782a6.962,6.962,0,0,1-4.759,1.446A9.93,9.93,0,0,1,23,4.1a4.5,4.5,0,0,1-1.134-.3V.861a5.022,5.022,0,0,0,1.318.563,5.072,5.072,0,0,0,1.345.211,3.122,3.122,0,0,0,2.013-.606A1.959,1.959,0,0,0,27.3-.58v-.554h-.035a2.909,2.909,0,0,1-1.112.984A3.23,3.23,0,0,1,24.636.22,3.4,3.4,0,0,1,21.885-.989a5.045,5.045,0,0,1-1.011-3.335A5.964,5.964,0,0,1,21.4-6.9a4.018,4.018,0,0,1,1.468-1.718,3.769,3.769,0,0,1,2.074-.6,2.6,2.6,0,0,1,2.32,1.151H27.3V-9h3.727Zm-3.665-3.5A2.02,2.02,0,0,0,27-6.012a1.13,1.13,0,0,0-.945-.466,1.163,1.163,0,0,0-1.011.563,2.656,2.656,0,0,0-.378,1.5,2.6,2.6,0,0,0,.316,1.38,1.092,1.092,0,0,0,1,.51A1.161,1.161,0,0,0,27-3.045a2.408,2.408,0,0,0,.365-1.4ZM38.558,0V-1.389h-.035a4.926,4.926,0,0,1-.839.94,3.23,3.23,0,0,1-.844.483A2.983,2.983,0,0,1,35.745.22,2.722,2.722,0,0,1,33.5-.738a4.429,4.429,0,0,1-.773-2.83V-9h3.744v5.15q0,1.327.993,1.327a.972.972,0,0,0,.822-.36,1.642,1.642,0,0,0,.277-1.02V-9H42.3V0Zm9.5-11.426a1.608,1.608,0,0,1-.576,1.283,2.252,2.252,0,0,1-1.516.492,2.2,2.2,0,0,1-1.5-.51,1.612,1.612,0,0,1-.584-1.266,1.561,1.561,0,0,1,.567-1.252,2.272,2.272,0,0,1,1.516-.479,2.293,2.293,0,0,1,1.516.479A1.551,1.551,0,0,1,48.059-11.426ZM44.095,0V-9h3.744V0ZM61.313,0V-5.186a1.654,1.654,0,0,0-.233-.971.876.876,0,0,0-.76-.321.949.949,0,0,0-.809.391A1.79,1.79,0,0,0,59.221-5V0H55.477V-5.1q0-1.38-.94-1.38a1,1,0,0,0-.861.4,1.933,1.933,0,0,0-.29,1.147V0H49.641V-9h3.744v1.424h.035a2.9,2.9,0,0,1,.672-.769,3.946,3.946,0,0,1,1.042-.633,3.235,3.235,0,0,1,1.257-.242A3.181,3.181,0,0,1,58-8.842a2.931,2.931,0,0,1,1.094,1.2,3.207,3.207,0,0,1,1.266-1.165,3.772,3.772,0,0,1,1.758-.409,2.645,2.645,0,0,1,2.171.923,4.109,4.109,0,0,1,.756,2.663V0Zm9.4-11.426a1.608,1.608,0,0,1-.576,1.283,2.252,2.252,0,0,1-1.516.492,2.2,2.2,0,0,1-1.5-.51,1.612,1.612,0,0,1-.584-1.266,1.561,1.561,0,0,1,.567-1.252,2.272,2.272,0,0,1,1.516-.479,2.293,2.293,0,0,1,1.516.479A1.551,1.551,0,0,1,70.708-11.426ZM66.744,0V-9h3.744V0Zm8.771-3.437a1.265,1.265,0,0,0,.668.91A3.012,3.012,0,0,0,77.7-2.2a6.226,6.226,0,0,0,2.479-.5V-.325a8.908,8.908,0,0,1-3.3.545A5.214,5.214,0,0,1,73.2-.984,4.277,4.277,0,0,1,71.895-4.3a5.467,5.467,0,0,1,.576-2.558,4.142,4.142,0,0,1,1.705-1.736,5.038,5.038,0,0,1,2.492-.628,4.9,4.9,0,0,1,2.391.545,3.63,3.63,0,0,1,1.507,1.529,4.906,4.906,0,0,1,.514,2.3v1.406Zm2.25-1.96q0-1.556-1.116-1.556a.944.944,0,0,0-.782.426A2.127,2.127,0,0,0,75.5-5.4ZM88.207,0V-4.913a2.184,2.184,0,0,0-.25-1.2.915.915,0,0,0-.813-.365.88.88,0,0,0-.756.378,1.613,1.613,0,0,0-.272.967V0H82.371V-9h3.744v1.406h.035a3.177,3.177,0,0,1,1.2-1.2A3.29,3.29,0,0,1,89-9.22q2.953,0,2.953,3.727V0ZM99.976-.123a3.648,3.648,0,0,1-.835.233,7.634,7.634,0,0,1-1.4.11A3.357,3.357,0,0,1,95.3-.642a3.269,3.269,0,0,1-.883-2.452V-6.407H93V-9h1.415v-1.767l3.691-1.02V-9h1.872v2.593H98.1v2.7q0,1.187.94,1.187a2.551,2.551,0,0,0,.932-.193Zm11.18-4.535a4.687,4.687,0,0,1-1.375,3.577,5.375,5.375,0,0,1-3.845,1.3,5.4,5.4,0,0,1-3.819-1.27,4.546,4.546,0,0,1-1.367-3.5,4.692,4.692,0,0,1,.642-2.487,4.172,4.172,0,0,1,1.828-1.617,6.311,6.311,0,0,1,2.733-.562,6.113,6.113,0,0,1,2.773.589A4.286,4.286,0,0,1,110.527-7,4.452,4.452,0,0,1,111.155-4.658Zm-3.8.018q0-1.837-1.406-1.837t-1.406,1.925q0,2.03,1.424,2.03Q107.358-2.522,107.358-4.641Z" transform="translate(548.628 11146.998)" fill="#12263f"/>
    <path id="Trazado_998132" data-name="Trazado 998132" d="M7.778,0l-.94-2.716A3.377,3.377,0,0,0,6.13-3.973a1.292,1.292,0,0,0-.945-.457H5.036V0h-3.8V-12.6H6.284a7,7,0,0,1,3.907.866,2.941,2.941,0,0,1,1.261,2.6,3.286,3.286,0,0,1-.734,2.18A4.183,4.183,0,0,1,8.534-5.687v.035a3.052,3.052,0,0,1,1.332.8,4.948,4.948,0,0,1,.954,1.644L12.059,0Zm-.36-8.6a1.32,1.32,0,0,0-.387-1,1.707,1.707,0,0,0-1.213-.369H5.036v2.883h.686a1.741,1.741,0,0,0,1.23-.431A1.41,1.41,0,0,0,7.418-8.6ZM16.4-3.437a1.265,1.265,0,0,0,.668.91,3.012,3.012,0,0,0,1.512.33,6.226,6.226,0,0,0,2.479-.5V-.325a8.908,8.908,0,0,1-3.3.545,5.214,5.214,0,0,1-3.665-1.2A4.277,4.277,0,0,1,12.779-4.3a5.467,5.467,0,0,1,.576-2.558A4.142,4.142,0,0,1,15.06-8.591a5.038,5.038,0,0,1,2.492-.628,4.9,4.9,0,0,1,2.391.545A3.63,3.63,0,0,1,21.45-7.146a4.906,4.906,0,0,1,.514,2.3v1.406ZM18.65-5.4q0-1.556-1.116-1.556a.944.944,0,0,0-.782.426A2.127,2.127,0,0,0,16.383-5.4ZM30.568-2.988A2.749,2.749,0,0,1,29.4-.62,5.474,5.474,0,0,1,26.156.22,11.291,11.291,0,0,1,24.658.1,9.257,9.257,0,0,1,23.2-.2V-2.83a7.162,7.162,0,0,0,2.777.738q1.1,0,1.1-.571a.451.451,0,0,0-.255-.391,9.009,9.009,0,0,0-1.336-.514,3.773,3.773,0,0,1-1.74-1A2.382,2.382,0,0,1,23.2-6.2a2.594,2.594,0,0,1,1.112-2.21,5.216,5.216,0,0,1,3.125-.813,9.931,9.931,0,0,1,2.5.343v2.522a7.549,7.549,0,0,0-1.213-.4,4.9,4.9,0,0,0-1.107-.158,1.205,1.205,0,0,0-.589.123.379.379,0,0,0-.22.343.478.478,0,0,0,.237.413,4.2,4.2,0,0,0,.949.378,4.4,4.4,0,0,1,1.978,1.037A2.272,2.272,0,0,1,30.568-2.988ZM42.1-4.772a6.4,6.4,0,0,1-.5,2.61A4.046,4.046,0,0,1,40.184-.4,3.564,3.564,0,0,1,38.127.22a2.755,2.755,0,0,1-2.4-1.151h-.035V4.14H31.948V-9h3.744v1.222h.035a3.171,3.171,0,0,1,1.16-1.059A3.364,3.364,0,0,1,38.5-9.22a3.215,3.215,0,0,1,2.667,1.16A5.147,5.147,0,0,1,42.1-4.772Zm-3.8.114a2.346,2.346,0,0,0-.33-1.336,1.144,1.144,0,0,0-1.015-.483,1.141,1.141,0,0,0-.967.51,2.341,2.341,0,0,0-.369,1.4v.176a2.562,2.562,0,0,0,.316,1.362,1.044,1.044,0,0,0,.949.51,1.182,1.182,0,0,0,1.046-.558A2.849,2.849,0,0,0,38.3-4.658ZM49.236,0V-1.389H49.2a4.926,4.926,0,0,1-.839.94,3.23,3.23,0,0,1-.844.483A2.983,2.983,0,0,1,46.424.22a2.722,2.722,0,0,1-2.25-.958,4.429,4.429,0,0,1-.773-2.83V-9h3.744v5.15q0,1.327.993,1.327a.972.972,0,0,0,.822-.36,1.642,1.642,0,0,0,.277-1.02V-9H52.98V0ZM58-3.437a1.265,1.265,0,0,0,.668.91,3.012,3.012,0,0,0,1.512.33,6.226,6.226,0,0,0,2.479-.5V-.325a8.908,8.908,0,0,1-3.3.545,5.214,5.214,0,0,1-3.665-1.2A4.277,4.277,0,0,1,54.378-4.3a5.467,5.467,0,0,1,.576-2.558,4.142,4.142,0,0,1,1.705-1.736A5.038,5.038,0,0,1,59.15-9.22a4.9,4.9,0,0,1,2.391.545,3.63,3.63,0,0,1,1.507,1.529,4.906,4.906,0,0,1,.514,2.3v1.406Zm2.25-1.96q0-1.556-1.116-1.556a.944.944,0,0,0-.782.426A2.127,2.127,0,0,0,57.981-5.4ZM72.167-2.988A2.749,2.749,0,0,1,71-.62,5.474,5.474,0,0,1,67.755.22,11.291,11.291,0,0,1,66.256.1,9.257,9.257,0,0,1,64.8-.2V-2.83a7.162,7.162,0,0,0,2.777.738q1.1,0,1.1-.571a.451.451,0,0,0-.255-.391,9.009,9.009,0,0,0-1.336-.514,3.773,3.773,0,0,1-1.74-1A2.382,2.382,0,0,1,64.8-6.2a2.594,2.594,0,0,1,1.112-2.21,5.216,5.216,0,0,1,3.125-.813,9.931,9.931,0,0,1,2.5.343v2.522a7.549,7.549,0,0,0-1.213-.4,4.9,4.9,0,0,0-1.107-.158,1.205,1.205,0,0,0-.589.123.379.379,0,0,0-.22.343.478.478,0,0,0,.237.413,4.2,4.2,0,0,0,.949.378,4.4,4.4,0,0,1,1.978,1.037A2.272,2.272,0,0,1,72.167-2.988ZM79.884-.123a3.648,3.648,0,0,1-.835.233,7.634,7.634,0,0,1-1.4.11A3.357,3.357,0,0,1,75.2-.642a3.269,3.269,0,0,1-.883-2.452V-6.407H72.905V-9H74.32v-1.767l3.691-1.02V-9h1.872v2.593H78.012v2.7q0,1.187.94,1.187a2.551,2.551,0,0,0,.932-.193ZM86.045,0V-1.371H86.01A2.944,2.944,0,0,1,83.268.22a2.625,2.625,0,0,1-2-.756,2.808,2.808,0,0,1-.721-2.021q0-2.654,3.261-3.076l2.232-.29a.851.851,0,0,0-.4-.721,1.8,1.8,0,0,0-1.063-.281,7,7,0,0,0-3.19.861V-8.5a8.535,8.535,0,0,1,1.828-.519,10.639,10.639,0,0,1,1.881-.2,4.722,4.722,0,0,1,3.327.98,4.368,4.368,0,0,1,1.033,3.274V0ZM83.83-3.059a.83.83,0,0,0,.233.606.888.888,0,0,0,.664.237,1.18,1.18,0,0,0,.954-.439,1.7,1.7,0,0,0,.365-1.125v-.343l-1.266.176Q83.83-3.788,83.83-3.059Z" transform="translate(666.128 11263.632)" fill="#12263f"/>
    <path id="Trazado_998133" data-name="Trazado 998133" d="M12.278-.826A8.127,8.127,0,0,1,10.151-.1a12.21,12.21,0,0,1-2.7.321A7.285,7.285,0,0,1,2.338-1.437a5.994,5.994,0,0,1-1.8-4.645,6.92,6.92,0,0,1,.91-3.56,5.9,5.9,0,0,1,2.562-2.364A8.766,8.766,0,0,1,7.9-12.814a14.489,14.489,0,0,1,3.507.466v3.313a7.456,7.456,0,0,0-1.67-.549,9.275,9.275,0,0,0-1.749-.154A3.341,3.341,0,0,0,5.5-8.8,3.52,3.52,0,0,0,4.57-6.214a3.609,3.609,0,0,0,.778,2.461,2.739,2.739,0,0,0,2.175.888,4.709,4.709,0,0,0,.958-.07v-1.8H6.064V-7.611h6.214Zm4.931-2.61a1.265,1.265,0,0,0,.668.91,3.012,3.012,0,0,0,1.512.33,6.226,6.226,0,0,0,2.479-.5V-.325a8.908,8.908,0,0,1-3.3.545A5.214,5.214,0,0,1,14.9-.984,4.277,4.277,0,0,1,13.588-4.3a5.467,5.467,0,0,1,.576-2.558,4.142,4.142,0,0,1,1.705-1.736A5.038,5.038,0,0,1,18.36-9.22a4.9,4.9,0,0,1,2.391.545,3.63,3.63,0,0,1,1.507,1.529,4.906,4.906,0,0,1,.514,2.3v1.406Zm2.25-1.96q0-1.556-1.116-1.556a.944.944,0,0,0-.782.426A2.127,2.127,0,0,0,17.191-5.4ZM31.377-2.988A2.749,2.749,0,0,1,30.212-.62,5.474,5.474,0,0,1,26.965.22,11.291,11.291,0,0,1,25.466.1a9.257,9.257,0,0,1-1.455-.3V-2.83a7.162,7.162,0,0,0,2.777.738q1.1,0,1.1-.571a.451.451,0,0,0-.255-.391A9.009,9.009,0,0,0,26.3-3.568a3.773,3.773,0,0,1-1.74-1A2.382,2.382,0,0,1,24.012-6.2a2.594,2.594,0,0,1,1.112-2.21,5.216,5.216,0,0,1,3.125-.813,9.931,9.931,0,0,1,2.5.343v2.522a7.549,7.549,0,0,0-1.213-.4,4.9,4.9,0,0,0-1.107-.158,1.205,1.205,0,0,0-.589.123.379.379,0,0,0-.22.343.478.478,0,0,0,.237.413,4.2,4.2,0,0,0,.949.378,4.4,4.4,0,0,1,1.978,1.037A2.272,2.272,0,0,1,31.377-2.988ZM39.094-.123a3.648,3.648,0,0,1-.835.233,7.634,7.634,0,0,1-1.4.11,3.357,3.357,0,0,1-2.448-.861,3.269,3.269,0,0,1-.883-2.452V-6.407H32.115V-9H33.53v-1.767l3.691-1.02V-9h1.872v2.593H37.222v2.7q0,1.187.94,1.187a2.551,2.551,0,0,0,.932-.193Zm5.133-11.3a1.608,1.608,0,0,1-.576,1.283,2.252,2.252,0,0,1-1.516.492,2.2,2.2,0,0,1-1.5-.51,1.612,1.612,0,0,1-.584-1.266,1.561,1.561,0,0,1,.567-1.252,2.272,2.272,0,0,1,1.516-.479,2.293,2.293,0,0,1,1.516.479A1.551,1.551,0,0,1,44.227-11.426ZM40.263,0V-9h3.744V0ZM55.819-4.658a4.687,4.687,0,0,1-1.375,3.577A5.375,5.375,0,0,1,50.6.22,5.4,5.4,0,0,1,46.78-1.05a4.546,4.546,0,0,1-1.367-3.5,4.692,4.692,0,0,1,.642-2.487,4.172,4.172,0,0,1,1.828-1.617,6.311,6.311,0,0,1,2.733-.562,6.113,6.113,0,0,1,2.773.589A4.286,4.286,0,0,1,55.191-7,4.452,4.452,0,0,1,55.819-4.658Zm-3.8.018q0-1.837-1.406-1.837T49.21-4.553q0,2.03,1.424,2.03Q52.022-2.522,52.022-4.641Zm-.94-5.783H48.437l2.628-2.821h3.146ZM63.053,0V-4.913a2.184,2.184,0,0,0-.25-1.2.915.915,0,0,0-.813-.365.88.88,0,0,0-.756.378,1.613,1.613,0,0,0-.272.967V0H57.217V-9h3.744v1.406H61a3.177,3.177,0,0,1,1.2-1.2,3.29,3.29,0,0,1,1.644-.426q2.953,0,2.953,3.727V0Z" transform="translate(851.628 11267)" fill="#12263f"/>
    <g id="_59563731_9315310" data-name="59563731_9315310" transform="translate(653.476 10924.585)">
      <g id="OBJECT" transform="translate(34.217 95.83)">
        <path id="Trazado_997073" data-name="Trazado 997073" d="M251.258,391.164H58.059a3.723,3.723,0,0,1-3.723-3.723h0a3.723,3.723,0,0,1,3.723-3.723h193.2a3.723,3.723,0,0,1,3.723,3.723h0A3.723,3.723,0,0,1,251.258,391.164Z" transform="translate(-44.571 -243.994)" fill="#ff7129"/>
        <g id="Grupo_1186032" data-name="Grupo 1186032" transform="translate(55.931)">
          <path id="Trazado_997074" data-name="Trazado 997074" d="M281.627,198.341H160.189a10.73,10.73,0,0,1-10.73-10.73V106.56a10.73,10.73,0,0,1,10.73-10.73H281.627a10.73,10.73,0,0,1,10.73,10.73v81.051A10.731,10.731,0,0,1,281.627,198.341Z" transform="translate(-149.459 -95.83)" fill="#f5f5f5"/>
          <path id="Trazado_997075" data-name="Trazado 997075" d="M292.357,111.41h-142.9v-4.85a10.73,10.73,0,0,1,10.73-10.73H281.626a10.73,10.73,0,0,1,10.73,10.73v4.85Z" transform="translate(-149.458 -95.83)" fill="#d6d6d6" opacity="0.5"/>
          <path id="Trazado_997076" data-name="Trazado 997076" d="M302.486,111.739H217.951a2.352,2.352,0,0,1-2.352-2.352h0a2.352,2.352,0,0,1,2.352-2.352h84.535a2.352,2.352,0,0,1,2.352,2.352h0A2.353,2.353,0,0,1,302.486,111.739Z" transform="translate(-183.498 -101.596)" fill="#f5f5f5"/>
          <path id="Trazado_997077" data-name="Trazado 997077" d="M166.526,109.843a1.922,1.922,0,1,1-1.922-1.922A1.922,1.922,0,0,1,166.526,109.843Z" transform="translate(-156.264 -102.053)" fill="#f5f5f5"/>
          <path id="Trazado_997078" data-name="Trazado 997078" d="M181.31,109.843a1.922,1.922,0,1,1-1.922-1.922A1.922,1.922,0,0,1,181.31,109.843Z" transform="translate(-163.873 -102.053)" fill="#f5f5f5"/>
          <path id="Trazado_997079" data-name="Trazado 997079" d="M195.851,109.843a1.922,1.922,0,1,1-1.922-1.922A1.922,1.922,0,0,1,195.851,109.843Z" transform="translate(-171.356 -102.053)" fill="#f5f5f5"/>
          <path id="Trazado_997080" data-name="Trazado 997080" d="M284.333,174.169l-12.082,12.082L260.17,174.169l-7.291,7.291,12.082,12.082-12.082,12.082,7.291,7.291,12.082-12.082,12.082,12.082,7.291-7.291-12.082-12.082,12.082-12.082Z" transform="translate(-202.685 -136.148)" fill="#d6d6d6"/>
        </g>
        <g id="Grupo_1186037" data-name="Grupo 1186037" transform="translate(20.197 31.552)">
          <g id="Grupo_1186033" data-name="Grupo 1186033" transform="translate(98.693 46.144)">
            <path id="Trazado_997081" data-name="Trazado 997081" d="M343.666,317.944H294.18l3.909-55.982a6.586,6.586,0,0,1,6.469-6.047h37.393a5.566,5.566,0,0,1,5.625,6.047Z" transform="translate(-286.9 -255.915)" fill="#1282d6"/>
            <path id="Trazado_997082" data-name="Trazado 997082" d="M328.666,317.944H279.18l3.909-55.982a6.586,6.586,0,0,1,6.469-6.047h37.393a5.566,5.566,0,0,1,5.625,6.047Z" transform="translate(-279.18 -255.915)" fill="#3897e9"/>
          </g>
          <path id="Trazado_997083" data-name="Trazado 997083" d="M320.193,255.908a9.251,9.251,0,0,1,2.879,4.595,18.371,18.371,0,0,1,.089,5.971h0c.955,1.133,2.172,2.66,3.478,4.54a69.039,69.039,0,0,1,4.98,8.566c2.566,5.435,6.727,14.246,4.785,23.619-1.488,7.182-6.566,14.738-6.566,14.738H301.683l3.45-62.035Z" transform="translate(-192.068 -209.764)" fill="#1282d6"/>
          <path id="Trazado_997084" data-name="Trazado 997084" d="M226.66,171.868c.138-.444,2.4-7.406,7.724-9.777a16.718,16.718,0,0,1,5.416-1.243,16.231,16.231,0,0,1,3.172.223,16.466,16.466,0,0,1,6.585,2.43c4.886,3.465,7.717,12.14,7.2,19.684-.185,2.682-.822,5.438.923,7.5.941,1.112,2.5,1.481,4.716,2.16,4.6,1.409,12.168,3.19,15.209,9.348s3.413,14.838,1.409,17.213-49.81,2.152-51.5.3-4.809-10.832-5.18-17.955c-.33-6.331,4.105-8.954,5.18-16.758A33.853,33.853,0,0,0,226.66,171.868Z" transform="translate(-151.217 -160.839)" fill="#262626"/>
          <path id="Trazado_997085" data-name="Trazado 997085" d="M287.467,182.143a40.542,40.542,0,0,1,3.19,8.4c1.514,5.9.318,6.836,1.706,9.106,3.082,5.042,9.773,1.963,16.174,7.716a18.56,18.56,0,0,1,5.252,8.607,20.752,20.752,0,0,1-.6,13.193" transform="translate(-184.752 -171.803)" fill="none" stroke="#262626" stroke-linecap="round" stroke-linejoin="round" stroke-miterlimit="10" stroke-width="1"/>
          <path id="Trazado_997086" data-name="Trazado 997086" d="M225.952,206.449c-.9,2.02-2.34,5.218-4.229,9.126-3.449,7.137-4.412,8.434-4.151,10.979.452,4.409,4.212,9.026,4.212,9.026" transform="translate(-148.759 -184.313)" fill="none" stroke="#262626" stroke-linecap="round" stroke-linejoin="round" stroke-miterlimit="10" stroke-width="1"/>
          <path id="Trazado_997087" data-name="Trazado 997087" d="M212.4,238.344h12.323c9.743,0,20.416,6.973,26.824,13.786a61.741,61.741,0,0,1,11.723,18.994c3.707,9.013,7.337,21.5,2.8,30.828a12.737,12.737,0,0,1-5.466,6.095c-3.581,1.813-7.322.73-8.482.73-7.567,0-74.637.02-74.637.02a86.891,86.891,0,0,1,4.155-37.71c2.317-6.654,5.027-14.166,12.1-21.3A47.165,47.165,0,0,1,212.4,238.344Z" transform="translate(-127.895 -200.728)" fill="#fec02d"/>
          <path id="Trazado_997088" data-name="Trazado 997088" d="M233.766,238.344,225.159,309.1l-5.564-.043,8.619-68.505Z" transform="translate(-149.821 -200.728)" fill="#eaa418"/>
          <g id="Grupo_1186034" data-name="Grupo 1186034" transform="translate(74.485 3.934)">
            <path id="Trazado_997089" data-name="Trazado 997089" d="M255.991,228.159h0a6.25,6.25,0,0,0,6.274-6.226l.051-13.449-12.5-.048-.051,13.449A6.249,6.249,0,0,0,255.991,228.159Z" transform="translate(-239.833 -189.27)" fill="#f7a99c"/>
            <path id="Trazado_997090" data-name="Trazado 997090" d="M249.784,223.956l8.141-4.182a9.547,9.547,0,0,1-3.449,6.287,9.186,9.186,0,0,1-4.7,1.883Z" transform="translate(-239.838 -195.104)" fill="#ff7769"/>
            <path id="Trazado_997091" data-name="Trazado 997091" d="M274.844,198.658c.039-.2.575-.51.739-.615a3.869,3.869,0,0,1,.893-.421,3.635,3.635,0,0,1,1.906-.1,3.369,3.369,0,0,1,2.558,2.615,3.819,3.819,0,0,1-.371,2.2,5.609,5.609,0,0,1-2.277,2.458,6.112,6.112,0,0,1-2.679.791,15.431,15.431,0,0,1-2.094-.107Q274.182,202.069,274.844,198.658Z" transform="translate(-252.058 -183.61)" fill="#f7a99c"/>
            <path id="Trazado_997092" data-name="Trazado 997092" d="M254.346,184.4a16.039,16.039,0,0,1-5.8,10.036c-.879.689-6.721,5.268-12.067,3.033-6.869-2.872-6.12-14.154-6.071-14.765.164-2.066.646-8.149,5.684-11.4a12.1,12.1,0,0,1,16.7,3.859A13.135,13.135,0,0,1,254.346,184.4Z" transform="translate(-229.847 -169.225)" fill="#f7a99c"/>
            <path id="Trazado_997093" data-name="Trazado 997093" d="M235.68,194.864a1.352,1.352,0,1,1-1.116-1.76A1.487,1.487,0,0,1,235.68,194.864Z" transform="translate(-231.221 -181.374)" fill="#262626"/>
            <path id="Trazado_997094" data-name="Trazado 997094" d="M252.035,196.918a1.351,1.351,0,1,1-1.116-1.76A1.487,1.487,0,0,1,252.035,196.918Z" transform="translate(-239.638 -182.431)" fill="#262626"/>
            <path id="Trazado_997095" data-name="Trazado 997095" d="M242,199.456l-1.217,1.643a.639.639,0,0,0,.182.927l1.117.68" transform="translate(-235.148 -184.647)" fill="none" stroke="#262626" stroke-linecap="round" stroke-linejoin="round" stroke-miterlimit="10" stroke-width="1.348"/>
            <path id="Trazado_997096" data-name="Trazado 997096" d="M256.518,205.191a1.8,1.8,0,1,1-1.565-2.014A1.8,1.8,0,0,1,256.518,205.191Z" transform="translate(-241.459 -186.555)" fill="#ff7769"/>
            <path id="Trazado_997097" data-name="Trazado 997097" d="M277.976,205.74a3.342,3.342,0,0,1,1.054-2.508,3.258,3.258,0,0,1,2.093-.813" transform="translate(-254.351 -186.172)" fill="none" stroke="#262626" stroke-linecap="round" stroke-linejoin="round" stroke-miterlimit="10" stroke-width="1.348"/>
            <path id="Trazado_997098" data-name="Trazado 997098" d="M279.934,204.626a1.517,1.517,0,0,1,1.286.436,1.474,1.474,0,0,1,.369,1.1" transform="translate(-255.36 -187.302)" fill="none" stroke="#262626" stroke-linecap="round" stroke-linejoin="round" stroke-miterlimit="10" stroke-width="1.348"/>
            <path id="Trazado_997099" data-name="Trazado 997099" d="M231.362,201.451a1.792,1.792,0,0,0-.963.15,25.871,25.871,0,0,0,.341,3.389c.058.013.113.032.173.04a1.8,1.8,0,1,0,.449-3.579Z" transform="translate(-229.866 -185.667)" fill="#ff7769"/>
            <path id="Trazado_997100" data-name="Trazado 997100" d="M0,1.361A3.771,3.771,0,0,1,1.975.109a3.8,3.8,0,0,1,2.56.278" transform="matrix(-0.966, -0.259, 0.259, -0.966, 9.484, 21.917)" fill="none" stroke="#262626" stroke-linecap="round" stroke-linejoin="round" stroke-miterlimit="10" stroke-width="1.348"/>
            <path id="Trazado_997101" data-name="Trazado 997101" d="M229.3,179.319h7.864a12.018,12.018,0,0,1,1.076-3.821,7.348,7.348,0,0,1,1.966-2.04,11.317,11.317,0,0,0-.538,1.771,8.875,8.875,0,0,0-.25,2.086s0,.337.195,2h6.826a4.869,4.869,0,0,1,.948-5.008,13.588,13.588,0,0,0,.276,4.711,16.049,16.049,0,0,0,1.688,4.108,21.193,21.193,0,0,0,1.411,2.247,8.627,8.627,0,0,1,1.677-1.625c.751-.455,1.519-.864,1.519-.864a11.472,11.472,0,0,0,.086-3.866,11.777,11.777,0,0,0-3.107-6.3,12.305,12.305,0,0,0-6.872-3.571,12.561,12.561,0,0,0-8.208,1.234,12.241,12.241,0,0,0-5.425,5.286A11.637,11.637,0,0,0,229.3,179.319Z" transform="translate(-229.301 -168.944)" fill="#262626"/>
          </g>
          <path id="Trazado_997102" data-name="Trazado 997102" d="M210.437,239.55s-7.614,31.195-8.5,41.656-1.224,28.514-1.224,28.514l-23.519-.3a78.541,78.541,0,0,1-.742-13.412,77.711,77.711,0,0,1,5.119-25.6c3.144-8.064,6.94-17.8,16.8-24.929A40.664,40.664,0,0,1,210.437,239.55Z" transform="translate(-127.596 -201.348)" fill="#fdb6d6"/>
          <path id="Trazado_997103" data-name="Trazado 997103" d="M204.164,280.13l-9.794,50.276h5.862Z" transform="translate(-136.838 -222.233)" fill="#ff94ca"/>
          <path id="Trazado_997104" data-name="Trazado 997104" d="M212.087,261.633c-.538,3.024-1.378,8.079-2.13,14.4-.921,7.736-.782,9.592-2.3,29.363-.454,5.927-1.212,15.495-1.212,15.495h0" transform="translate(-143.054 -212.714)" fill="none" stroke="#262626" stroke-linecap="round" stroke-linejoin="round" stroke-miterlimit="10" stroke-width="1"/>
          <g id="Grupo_1186035" data-name="Grupo 1186035" transform="translate(59.661 91.688)">
            <path id="Trazado_997105" data-name="Trazado 997105" d="M229.486,355.007a9.281,9.281,0,0,1,1.7,2.42,11.5,11.5,0,0,1,.983,5.054,16.042,16.042,0,0,1-.074,1.855s-11.5-3.709-13.206-3.561c-1.5.131-9,2.047-10.758,2.5a1.359,1.359,0,0,1-.741-.018l-2.524-.777-2.38.1a1.146,1.146,0,0,1-1.092-1.618,4.324,4.324,0,0,1,.355-.635,23.183,23.183,0,0,1,2.077-2.671l-3.813.688c-.37,0-.976-.05-1.183-.421-.31-.553.451-1.487.972-2.112a11.042,11.042,0,0,1,2.949-2.476,21.844,21.844,0,0,1,5.156-2.355,23.181,23.181,0,0,1,12.817-.566A21.8,21.8,0,0,1,229.486,355.007Z" transform="translate(-198.757 -349.754)" fill="#f7a99c"/>
            <path id="Trazado_997106" data-name="Trazado 997106" d="M254.057,359.544a6.362,6.362,0,0,1-1.386,4.785,6.444,6.444,0,0,1-4.991,2.19l9.591,2.855a39.775,39.775,0,0,0-.1-4.274,12.141,12.141,0,0,0-1.369-3.625A19.2,19.2,0,0,0,254.057,359.544Z" transform="translate(-223.936 -354.793)" fill="#ff7769"/>
            <path id="Trazado_997107" data-name="Trazado 997107" d="M211.34,369.211a20,20,0,0,1,12.5-6.381" transform="translate(-205.233 -356.484)" fill="none" stroke="#262626" stroke-linecap="round" stroke-linejoin="round" stroke-miterlimit="10" stroke-width="1"/>
            <path id="Trazado_997108" data-name="Trazado 997108" d="M206.437,367.621a14.731,14.731,0,0,1,5.087-5.369,55.53,55.53,0,0,1,6.566-2.708h0" transform="translate(-202.71 -354.793)" fill="none" stroke="#262626" stroke-linecap="round" stroke-linejoin="round" stroke-miterlimit="10" stroke-width="1"/>
            <path id="Trazado_997109" data-name="Trazado 997109" d="M208.843,360.958a9.663,9.663,0,0,1,3.92-3.518,21.884,21.884,0,0,1,4.748-1.336h0" transform="translate(-203.948 -353.022)" fill="none" stroke="#262626" stroke-linecap="round" stroke-linejoin="round" stroke-miterlimit="10" stroke-width="1"/>
          </g>
          <path id="Trazado_997110" data-name="Trazado 997110" d="M269.79,238.344s-2.4,17.869-2.738,28.553-.676,28.935-.676,28.935l-4.3,1.837s2.054,6.065,2.182,7.957a26.291,26.291,0,0,1,0,3.474c6.3-.123,11.411.033,14.929.2,2.992.141,7.448.168,16.359.223,3.169.019,5.846,0,8.853-1.473a16.522,16.522,0,0,0,5.615-4.76c1.45-1.981,3.725-6.181,2.448-16.582a60.19,60.19,0,0,0-13.021-31.05,51.011,51.011,0,0,0-13.719-11.97,43.514,43.514,0,0,0-10.417-4.325A40.09,40.09,0,0,0,269.79,238.344Z" transform="translate(-171.682 -200.728)" fill="#fdb6d6"/>
          <path id="Trazado_997111" data-name="Trazado 997111" d="M300.222,308.716a28.285,28.285,0,0,1-2.648,13.243,27.711,27.711,0,0,1-4.452,6.674l9.2-2.371Z" transform="translate(-187.663 -236.945)" fill="#ff94ca"/>
          <path id="Trazado_997112" data-name="Trazado 997112" d="M296.8,340.054s-26.862,6.6-30.427,8.124l-4.3,1.837" transform="translate(-171.682 -253.074)" fill="none" stroke="#262626" stroke-linecap="round" stroke-linejoin="round" stroke-miterlimit="10" stroke-width="1"/>
          <path id="Trazado_997113" data-name="Trazado 997113" d="M308.174,282.729s13.206,24.854,9.274,35.019a15.8,15.8,0,0,1-5.251,7.358c-3.115,2.29-6.473,2.652-12.258,2.806a189.967,189.967,0,0,1-19.809-.519" transform="translate(-180.976 -223.571)" fill="none" stroke="#fff" stroke-linecap="round" stroke-linejoin="round" stroke-miterlimit="10" stroke-width="1"/>
          <path id="Trazado_997114" data-name="Trazado 997114" d="M318.527,264.093c-5.448,2.157-7.987,5.066-9.27,7.042,0,0-3.936,6.063.913,32.363h0" transform="translate(-195.191 -213.98)" fill="none" stroke="#262626" stroke-linecap="round" stroke-linejoin="round" stroke-miterlimit="10" stroke-width="1"/>
          <g id="Grupo_1186036" data-name="Grupo 1186036" transform="translate(0 67.731)">
            <path id="Trazado_997115" data-name="Trazado 997115" d="M226.371,380.424h-36.05V376.1h37.912v2.456A1.863,1.863,0,0,1,226.371,380.424Z" transform="translate(-134.755 -339.358)" fill="#374acc"/>
            <path id="Trazado_997116" data-name="Trazado 997116" d="M138.443,341.457H88.7a2.394,2.394,0,0,1-2.311-2.059L81.87,302.451a1.784,1.784,0,0,1,1.807-2.059h49.746a2.394,2.394,0,0,1,2.311,2.059L140.25,339.4A1.784,1.784,0,0,1,138.443,341.457Z" transform="translate(-78.931 -300.392)" fill="#374acc"/>
            <path id="Trazado_997117" data-name="Trazado 997117" d="M132.443,341.457H82.7a2.394,2.394,0,0,1-2.311-2.059L75.87,302.451a1.784,1.784,0,0,1,1.807-2.059h49.746a2.394,2.394,0,0,1,2.311,2.059L134.25,339.4A1.784,1.784,0,0,1,132.443,341.457Z" transform="translate(-75.843 -300.392)" fill="#4450e4"/>
            <path id="Trazado_997118" data-name="Trazado 997118" d="M75.858,304.633c.36-.1,1.678,11.421,9.206,21.79a38.029,38.029,0,0,0,7.642,8.087s4.058,3.159,19.179,9.129h-27.2c-1.031,0-2.315.23-3.235-.346a3.08,3.08,0,0,1-1.2-2.311c-.077-.631-.068-1.27-.139-1.9s-.191-1.245-.267-1.871q-.25-2.05-.5-4.1-.41-3.354-.82-6.707-.442-3.617-.884-7.233l-.821-6.716c-.21-1.719-.389-3.442-.63-5.157A13.317,13.317,0,0,1,75.858,304.633Z" transform="translate(-75.832 -302.575)" fill="#5d6ff4"/>
            <path id="Trazado_997119" data-name="Trazado 997119" d="M85.193,380.761" transform="translate(-80.649 -341.755)" fill="none" stroke="#262626" stroke-linecap="round" stroke-linejoin="round" stroke-miterlimit="10" stroke-width="1"/>
            <path id="Trazado_997120" data-name="Trazado 997120" d="M89.954,385" transform="translate(-83.1 -343.938)" fill="none" stroke="#262626" stroke-linecap="round" stroke-linejoin="round" stroke-miterlimit="10" stroke-width="1"/>
            <path id="Trazado_997121" data-name="Trazado 997121" d="M192.45,385" transform="translate(-135.85 -343.938)" fill="none" stroke="#262626" stroke-linecap="round" stroke-linejoin="round" stroke-miterlimit="10" stroke-width="1"/>
            <path id="Trazado_997122" data-name="Trazado 997122" d="M79.61,300.392h49.746a2.394,2.394,0,0,1,2.311,2.059l4.517,36.948" transform="translate(-77.776 -300.392)" fill="none" stroke="#262626" stroke-linecap="round" stroke-linejoin="round" stroke-miterlimit="10" stroke-width="1"/>
            <path id="Trazado_997123" data-name="Trazado 997123" d="M75.886,304.634" transform="translate(-75.86 -302.575)" fill="none" stroke="#262626" stroke-linecap="round" stroke-linejoin="round" stroke-miterlimit="10" stroke-width="1"/>
            <path id="Trazado_997124" data-name="Trazado 997124" d="M132.919,337.538a2.865,2.865,0,1,1-2.865-2.865A2.866,2.866,0,0,1,132.919,337.538Z" transform="translate(-102.263 -318.035)" fill="#fec02d"/>
          </g>
          <path id="Trazado_997125" data-name="Trazado 997125" d="M357.786,262.856h5.524a4.168,4.168,0,0,1,4.156,4.48l-1.686,22.452" transform="translate(-220.942 -213.343)" fill="none" stroke="#fff" stroke-linecap="round" stroke-linejoin="round" stroke-miterlimit="10" stroke-width="1"/>
        </g>
        <g id="Grupo_1186038" data-name="Grupo 1186038" transform="translate(0 58.572)">
          <path id="Trazado_997126" data-name="Trazado 997126" d="M96.74,265.006H39.293a5.076,5.076,0,0,1-5.076-5.076V221.589a5.076,5.076,0,0,1,5.076-5.076H96.74a5.076,5.076,0,0,1,5.076,5.076V259.93A5.076,5.076,0,0,1,96.74,265.006Z" transform="translate(-34.217 -216.513)" fill="#f5f5f5"/>
          <path id="Trazado_997127" data-name="Trazado 997127" d="M101.816,223.883h-67.6v-2.294a5.076,5.076,0,0,1,5.076-5.076H96.74a5.076,5.076,0,0,1,5.076,5.076Z" transform="translate(-34.217 -216.513)" fill="#d6d6d6" opacity="0.5"/>
          <path id="Trazado_997128" data-name="Trazado 997128" d="M106.608,224.039H66.618a1.113,1.113,0,0,1-1.113-1.113h0a1.113,1.113,0,0,1,1.113-1.113h39.99a1.113,1.113,0,0,1,1.113,1.113h0A1.113,1.113,0,0,1,106.608,224.039Z" transform="translate(-50.32 -219.241)" fill="#f5f5f5"/>
          <path id="Trazado_997129" data-name="Trazado 997129" d="M42.292,223.142a.909.909,0,1,1-.909-.909A.909.909,0,0,1,42.292,223.142Z" transform="translate(-37.437 -219.457)" fill="#f5f5f5"/>
          <path id="Trazado_997130" data-name="Trazado 997130" d="M49.285,223.142a.909.909,0,1,1-.91-.909A.91.91,0,0,1,49.285,223.142Z" transform="translate(-41.036 -219.457)" fill="#f5f5f5"/>
          <path id="Trazado_997131" data-name="Trazado 997131" d="M56.164,223.142a.909.909,0,1,1-.909-.909A.909.909,0,0,1,56.164,223.142Z" transform="translate(-44.576 -219.457)" fill="#f5f5f5"/>
          <path id="Trazado_997132" data-name="Trazado 997132" d="M98.021,253.572l-5.715,5.715-5.715-5.715-3.449,3.449,5.715,5.715-5.715,5.715L86.59,271.9l5.715-5.715,5.715,5.715,3.449-3.449-5.715-5.715,5.715-5.715Z" transform="translate(-59.396 -235.586)" fill="#d6d6d6"/>
          <path id="Trazado_997133" data-name="Trazado 997133" d="M96.74,265.006H39.293a5.076,5.076,0,0,1-5.076-5.076V221.589a5.076,5.076,0,0,1,5.076-5.076H96.74a5.076,5.076,0,0,1,5.076,5.076V259.93A5.076,5.076,0,0,1,96.74,265.006Z" transform="translate(-34.217 -216.513)" fill="none" stroke="#262626" stroke-linecap="round" stroke-linejoin="round" stroke-miterlimit="10" stroke-width="1"/>
        </g>
        <g id="Grupo_1186039" data-name="Grupo 1186039" transform="translate(85.889 23.888)">
          <line id="Línea_3432" data-name="Línea 3432" x2="7.508" y2="3.115" transform="translate(0.325 8.352)" fill="none" stroke="#ff7129" stroke-linecap="round" stroke-linejoin="round" stroke-miterlimit="10" stroke-width="1"/>
          <line id="Línea_3433" data-name="Línea 3433" x2="9.503" y2="9.025" transform="translate(0 0.134)" fill="none" stroke="#ff7129" stroke-linecap="round" stroke-linejoin="round" stroke-miterlimit="10" stroke-width="1"/>
          <line id="Línea_3434" data-name="Línea 3434" x2="3.498" y2="7.338" transform="translate(8.257)" fill="none" stroke="#ff7129" stroke-linecap="round" stroke-linejoin="round" stroke-miterlimit="10" stroke-width="1"/>
        </g>
        <g id="Grupo_1186041" data-name="Grupo 1186041" transform="translate(181.552 41.912)">
          <g id="Grupo_1186040" data-name="Grupo 1186040">
            <path id="Trazado_997134" data-name="Trazado 997134" d="M411.81,204.479a19.654,19.654,0,0,1,2.053-4.156,7.7,7.7,0,0,1,2.731-2.389,8.08,8.08,0,0,1,2.08-.818,15.851,15.851,0,0,0,2.065-.642,7.187,7.187,0,0,0,1.788-1.008,4.332,4.332,0,0,0,1.313-1.943,3.836,3.836,0,0,0-.04-3.576,5.172,5.172,0,0,0-2.567-1.993q-2.407-.918-3.824.075A8.3,8.3,0,0,0,414.9,191.2l-5.855-2.234a11.544,11.544,0,0,1,2.267-3.763,9.188,9.188,0,0,1,3.243-2.3,9.751,9.751,0,0,1,3.967-.722,12.989,12.989,0,0,1,4.413.9q4.9,1.87,6.977,4.949t.361,7.573a10.494,10.494,0,0,1-1.264,2.429,7.179,7.179,0,0,1-1.638,1.637,9.353,9.353,0,0,1-2.085,1.1q-1.158.443-2.558.844a14.467,14.467,0,0,0-2.157.815,5.289,5.289,0,0,0-1.458,1.029,5.625,5.625,0,0,0-.989,1.365,16.958,16.958,0,0,0-.775,1.758Zm-3.523,8.691,2.268-5.946,6.127,2.337-2.268,5.946Z" transform="translate(-408.287 -182.185)" fill="#fdb6d6"/>
          </g>
        </g>
        <g id="Grupo_1186043" data-name="Grupo 1186043" transform="translate(18.771 18.112)">
          <g id="Grupo_1186042" data-name="Grupo 1186042">
            <path id="Trazado_997135" data-name="Trazado 997135" d="M81.2,148.5a12.286,12.286,0,0,1-.795-2.78,4.807,4.807,0,0,1,.259-2.249,5.052,5.052,0,0,1,.617-1.25,9.925,9.925,0,0,0,.684-1.162,4.481,4.481,0,0,0,.4-1.215,2.7,2.7,0,0,0-.208-1.448,2.394,2.394,0,0,0-1.518-1.635,3.22,3.22,0,0,0-2.021.156,2.484,2.484,0,0,0-1.735,1.638,5.181,5.181,0,0,0,.172,2.519l-3.64,1.424a7.2,7.2,0,0,1-.531-2.688,5.738,5.738,0,0,1,.533-2.421,6.091,6.091,0,0,1,1.529-2,8.1,8.1,0,0,1,2.417-1.433,8.84,8.84,0,0,1,5.3-.64,4.927,4.927,0,0,1,3.342,3.345,6.557,6.557,0,0,1,.435,1.652,4.475,4.475,0,0,1-.07,1.443,5.827,5.827,0,0,1-.5,1.383q-.349.69-.827,1.462a9.063,9.063,0,0,0-.654,1.281,3.3,3.3,0,0,0-.242,1.087,3.517,3.517,0,0,0,.116,1.044,10.557,10.557,0,0,0,.38,1.137Zm2.017,5.491-1.446-3.7,3.809-1.49,1.446,3.7Z" transform="translate(-72.893 -133.148)" fill="#fdb6d6"/>
          </g>
        </g>
        <path id="Trazado_997136" data-name="Trazado 997136" d="M423.1,366.239H407.615l-1.033-16.485h17.55Z" transform="translate(-225.858 -226.514)" fill="#fec02d"/>
        <path id="Trazado_997137" data-name="Trazado 997137" d="M424.259,327.773H410.91V313.719a6.674,6.674,0,0,1,6.674-6.674h0a6.674,6.674,0,0,1,6.674,6.674Z" transform="translate(-228.085 -204.534)" fill="#94e261"/>
        <g id="Grupo_1186049" data-name="Grupo 1186049" transform="translate(182.825 102.511)">
          <g id="Grupo_1186048" data-name="Grupo 1186048" clip-path="url(#clip-path)">
            <g id="Grupo_1186044" data-name="Grupo 1186044" transform="translate(1.317 2.035)">
              <path id="Trazado_997138" data-name="Trazado 997138" d="M414.745,311.237c0,1.869-1.122,1.869-1.122,3.738s1.122,1.87,1.122,3.739-1.122,1.869-1.122,3.738,1.122,1.87,1.122,3.74-1.122,1.87-1.122,3.74" transform="translate(-413.623 -311.237)" fill="none" stroke="#262626" stroke-linecap="round" stroke-linejoin="round" stroke-miterlimit="10" stroke-width="0.5"/>
            </g>
            <g id="Grupo_1186045" data-name="Grupo 1186045" transform="translate(4.147 0.279)">
              <path id="Trazado_997139" data-name="Trazado 997139" d="M420.682,307.62c0,2.044-1.227,2.044-1.227,4.089s1.227,2.045,1.227,4.09-1.227,2.044-1.227,4.089,1.227,2.046,1.227,4.091-1.227,2.046-1.227,4.091" transform="translate(-419.455 -307.62)" fill="none" stroke="#262626" stroke-linecap="round" stroke-linejoin="round" stroke-miterlimit="10" stroke-width="0.5"/>
            </g>
            <g id="Grupo_1186046" data-name="Grupo 1186046" transform="translate(8.476 0.449)">
              <path id="Trazado_997140" data-name="Trazado 997140" d="M429.591,307.97c0,2.027-1.217,2.027-1.217,4.055s1.217,2.028,1.217,4.056-1.217,2.027-1.217,4.055,1.217,2.029,1.217,4.057-1.217,2.029-1.217,4.057" transform="translate(-428.374 -307.97)" fill="none" stroke="#262626" stroke-linecap="round" stroke-linejoin="round" stroke-miterlimit="10" stroke-width="0.5"/>
            </g>
            <g id="Grupo_1186047" data-name="Grupo 1186047" transform="translate(11.639 2.893)">
              <path id="Trazado_997141" data-name="Trazado 997141" d="M435.962,313.006c0,1.783-1.07,1.783-1.07,3.566s1.07,1.784,1.07,3.567-1.07,1.783-1.07,3.566,1.07,1.784,1.07,3.568-1.07,1.784-1.07,3.568" transform="translate(-434.892 -313.006)" fill="none" stroke="#262626" stroke-linecap="round" stroke-linejoin="round" stroke-miterlimit="10" stroke-width="0.5"/>
            </g>
          </g>
        </g>
        <path id="Trazado_997143" data-name="Trazado 997143" d="M425.228,349.754l-1.033,16.485H408.711a23.432,23.432,0,0,0,16.517-16.485Z" transform="translate(-226.954 -226.514)" fill="#eaa418"/>
        <path id="Trazado_997144" data-name="Trazado 997144" d="M431.871,355.151a23.391,23.391,0,0,1-8.526,10.6" transform="translate(-234.485 -229.292)" fill="none" stroke="#262626" stroke-linecap="round" stroke-linejoin="round" stroke-miterlimit="10" stroke-width="0.5"/>
      </g>
    </g>
  </g>
</svg>
