<svg xmlns="http://www.w3.org/2000/svg" width="188" height="118" viewBox="0 0 188 118">
  <g id="Grupo_1186776" data-name="Grupo 1186776" transform="translate(-185.833 -348)">
    <rect id="Rectángulo_456383" data-name="Rectángulo 456383" width="188" height="118" rx="15" transform="translate(185.833 348)" fill="#faf9ea"/>
    <g id="gestion-de-proyectos" transform="translate(232.491 381.859)">
      <g id="Grupo_1186775" data-name="Grupo 1186775" transform="translate(3.675 -18.517)">
        <g id="Grupo_1186770" data-name="Grupo 1186770" transform="translate(18.386 15.124)">
          <path id="Trazado_998035" data-name="Trazado 998035" d="M115.808,72.713h37.557a1.184,1.184,0,0,1,.866.359l6.879,6.879a1.183,1.183,0,0,1,.359.866v51.44a1.228,1.228,0,0,1-1.225,1.225H115.808a1.227,1.227,0,0,1-1.225-1.225V73.938A1.227,1.227,0,0,1,115.808,72.713Z" transform="translate(-114.583 -72.713)" fill="#eceff1" fill-rule="evenodd"/>
          <path id="Trazado_998036" data-name="Trazado 998036" d="M115.808,72.713h2.241v60.769h-2.241a1.227,1.227,0,0,1-1.225-1.225V73.938A1.227,1.227,0,0,1,115.808,72.713Z" transform="translate(-114.583 -72.713)" fill="#d1d1d6" fill-rule="evenodd"/>
          <path id="Trazado_998037" data-name="Trazado 998037" d="M351.589,73.354a1.226,1.226,0,0,1,.359.253l6.879,6.879a1.23,1.23,0,0,1,.253.359H352.2a.614.614,0,0,1-.613-.613Z" transform="translate(-312.299 -73.248)" fill="#a79ba7" fill-rule="evenodd"/>
          <path id="Trazado_998038" data-name="Trazado 998038" d="M161.9,210.815h5.147a.5.5,0,0,1,.5.5v5.147a.5.5,0,0,1-.5.5H161.9a.5.5,0,0,1-.5-.5v-5.147A.5.5,0,0,1,161.9,210.815Zm0-23.209h5.147a.5.5,0,0,1,.5.5v5.147a.5.5,0,0,1-.5.5H161.9a.5.5,0,0,1-.5-.5V188.1A.5.5,0,0,1,161.9,187.606Zm0,11.6h5.147a.5.5,0,0,1,.5.5v5.147a.5.5,0,0,1-.5.5H161.9a.5.5,0,0,1-.5-.5v-5.147A.5.5,0,0,1,161.9,199.211Z" transform="translate(-153.645 -168.56)" fill="#8ac9fe" fill-rule="evenodd"/>
          <path id="Trazado_998039" data-name="Trazado 998039" d="M185.454,210.815h1.658a.5.5,0,0,1,.5.5v5.147a.5.5,0,0,1-.5.5h-1.658a.5.5,0,0,0,.5-.5v-5.147A.5.5,0,0,0,185.454,210.815Zm0-23.209h1.658a.5.5,0,0,1,.5.5v5.147a.5.5,0,0,1-.5.5h-1.658a.5.5,0,0,0,.5-.5V188.1A.5.5,0,0,0,185.454,187.606Zm0,11.6h1.658a.5.5,0,0,1,.5.5v5.147a.5.5,0,0,1-.5.5h-1.658a.5.5,0,0,0,.5-.5v-5.147A.5.5,0,0,0,185.454,199.211Z" transform="translate(-173.705 -168.56)" fill="#60b7ff" fill-rule="evenodd"/>
        </g>
        <g id="Grupo_1186771" data-name="Grupo 1186771" transform="translate(53.946 57.625)">
          <path id="Trazado_998040" data-name="Trazado 998040" d="M345.678,331.382a11.807,11.807,0,0,1,3.457,1.433l2.247-1,2.648,2.648-1,2.246a11.806,11.806,0,0,1,1.434,3.458l2.292.882V344.8l-2.293.882a11.811,11.811,0,0,1-1.433,3.457l1,2.247-2.648,2.648-2.246-1a11.808,11.808,0,0,1-3.458,1.434l-.882,2.292h-3.745l-.882-2.293a11.806,11.806,0,0,1-3.457-1.433l-2.247,1-2.648-2.648,1-2.246a11.809,11.809,0,0,1-1.434-3.458l-2.292-.882v-3.745l2.292-.882a11.806,11.806,0,0,1,1.433-3.458l-1-2.246,2.648-2.648,2.247,1a11.8,11.8,0,0,1,3.457-1.433l.882-2.293H344.8Z" transform="translate(-329.089 -329.089)" fill="#ffe177" fill-rule="evenodd"/>
          <path id="Trazado_998041" data-name="Trazado 998041" d="M362.023,353.033l-2.247,1-.346-.346,2.106-.935Q361.776,352.9,362.023,353.033Zm8.967-21.651a11.806,11.806,0,0,1,3.457,1.433l-.639.284a15.569,15.569,0,0,0-3.944-1.717l-.882-2.293h1.125Zm3.458,21.651a11.808,11.808,0,0,1-3.458,1.434l-.882,2.292h-1.125l.882-2.292a15.57,15.57,0,0,0,3.944-1.717Zm-15.018-20.87.346-.346,2.247,1q-.246.136-.486.284Zm16.485,0,.779-.346,2.648,2.648-1,2.246a11.806,11.806,0,0,1,1.434,3.458l2.292.882V344.8l-2.293.882a11.811,11.811,0,0,1-1.433,3.457l1,2.247-2.648,2.648-.779-.346,2.3-2.3-1-2.247a11.809,11.809,0,0,0,1.433-3.457l2.293-.882v-3.745l-2.292-.882a11.806,11.806,0,0,0-1.434-3.458l1-2.246Z" transform="translate(-354.4 -329.089)" fill="#ffd064" fill-rule="evenodd"/>
          <path id="Trazado_998042" data-name="Trazado 998042" d="M375.623,368.289a7.336,7.336,0,1,0,7.336,7.336A7.336,7.336,0,0,0,375.623,368.289Z" transform="translate(-361.789 -361.791)" fill="#eceff1" fill-rule="evenodd"/>
          <path id="Trazado_998043" data-name="Trazado 998043" d="M375.624,368.289a7.336,7.336,0,0,0,0,14.673q.295,0,.584-.023a7.337,7.337,0,0,1,0-14.627Q375.919,368.289,375.624,368.289Z" transform="translate(-361.79 -361.791)" fill="#d1d1d6" fill-rule="evenodd"/>
        </g>
        <g id="Grupo_1186772" data-name="Grupo 1186772" transform="translate(2.043 5.722)">
          <circle id="Elipse_13783" data-name="Elipse 13783" cx="13.835" cy="13.835" r="13.835" transform="translate(0 0)" fill="#ffc338"/>
          <path id="Trazado_998044" data-name="Trazado 998044" d="M93.493,16a13.835,13.835,0,1,1,0,27.67c-.4,0-.794-.018-1.184-.051a13.834,13.834,0,0,0,0-27.567c.39-.033.785-.051,1.184-.051Z" transform="translate(-79.659 -15.999)" fill="#f5b829" fill-rule="evenodd"/>
        </g>
        <g id="Grupo_1186773" data-name="Grupo 1186773" transform="translate(0 55.58)">
          <circle id="Elipse_13784" data-name="Elipse 13784" cx="13.835" cy="13.835" r="13.835" transform="matrix(0.16, -0.987, 0.987, 0.16, 0, 27.31)" fill="#685e68"/>
          <path id="Trazado_998045" data-name="Trazado 998045" d="M95.281,329.089a13.835,13.835,0,1,1,0,27.67c-.278,0-.555-.009-.829-.025a13.834,13.834,0,0,0,0-27.618C94.726,329.1,95,329.089,95.281,329.089Z" transform="translate(-79.403 -327.044)" fill="#544854" fill-rule="evenodd"/>
          <circle id="Elipse_13785" data-name="Elipse 13785" cx="4.885" cy="4.885" r="4.885" transform="translate(10.993 9.102)" fill="#f6dccd"/>
          <path id="Trazado_998046" data-name="Trazado 998046" d="M97.573,371.661a4.885,4.885,0,1,1,0,9.769q-.189,0-.374-.014a4.885,4.885,0,0,0,0-9.741Q97.384,371.661,97.573,371.661Z" transform="translate(-81.695 -362.559)" fill="#f1cbbc" fill-rule="evenodd"/>
          <path id="Trazado_998047" data-name="Trazado 998047" d="M54.932,430.923a9.673,9.673,0,0,0-11.86,6.878,13.835,13.835,0,0,0,18.693,0,9.672,9.672,0,0,0-6.833-6.878Z" transform="translate(-36.541 -411.721)" fill="#9bc9ff" fill-rule="evenodd"/>
          <path id="Trazado_998048" data-name="Trazado 998048" d="M71.524,430.923a9.679,9.679,0,0,0-8.563,1.8,9.662,9.662,0,0,1,15.054,5.342q-.368.337-.76.648a13.89,13.89,0,0,0,1.1-.91,9.672,9.672,0,0,0-6.833-6.878Z" transform="translate(-53.133 -411.721)" fill="#60b7ff" fill-rule="evenodd"/>
        </g>
        <g id="Grupo_1186774" data-name="Grupo 1186774" transform="translate(48.209 0)">
          <circle id="Elipse_13786" data-name="Elipse 13786" cx="13.835" cy="13.835" r="13.835" transform="translate(0 19.562) rotate(-45)" fill="#8ac9fe"/>
          <path id="Trazado_998049" data-name="Trazado 998049" d="M410.458,16a13.835,13.835,0,0,1,0,27.669c-.139,0-.277,0-.414-.007a13.834,13.834,0,0,0,0-27.656c.138,0,.276-.007.414-.007Z" transform="translate(-390.887 -10.277)" fill="#60b7ff" fill-rule="evenodd"/>
        </g>
      </g>
      <path id="Trazado_998050" data-name="Trazado 998050" d="M43.835,62.894h20.1a1.326,1.326,0,0,0,0-2.653h-20.1a1.326,1.326,0,0,0,0,2.653Zm0-11.6h20.1a1.326,1.326,0,0,0,0-2.653h-20.1a1.326,1.326,0,0,0,0,2.653Zm0,4.974h20.1a1.326,1.326,0,0,0,0-2.653h-20.1a1.326,1.326,0,0,0,0,2.653Zm-5.592-5.557H34.756v3.488h3.488ZM40.9,55.52a1.325,1.325,0,0,1-1.326,1.326H33.43A1.326,1.326,0,0,1,32.1,55.52V49.38a1.326,1.326,0,0,1,1.326-1.326h6.141A1.325,1.325,0,0,1,40.9,49.38Zm2.939-15.835h20.1a1.326,1.326,0,0,0,0-2.652h-20.1a1.326,1.326,0,0,0,0,2.652Zm0,4.973h20.1a1.326,1.326,0,0,0,0-2.653h-20.1a1.326,1.326,0,0,0,0,2.653ZM34.756,42.59h3.488V39.1H34.756ZM32.1,43.916V37.774a1.327,1.327,0,0,1,1.326-1.326h6.141A1.326,1.326,0,0,1,40.9,37.774v6.142a1.326,1.326,0,0,1-1.326,1.327H33.43A1.326,1.326,0,0,1,32.1,43.916ZM81.069,75.064a6.009,6.009,0,1,0-6.008,6.011A6.015,6.015,0,0,0,81.069,75.064Zm2.653,0A8.662,8.662,0,1,1,75.061,66.4,8.672,8.672,0,0,1,83.722,75.064ZM87.57,74.1v1.923l-1.444.556a1.328,1.328,0,0,0-.812.931,10.458,10.458,0,0,1-1.272,3.069,1.308,1.308,0,0,0-.086,1.234l.632,1.416-1.366,1.36-1.413-.628a1.327,1.327,0,0,0-1.233.083,10.428,10.428,0,0,1-3.069,1.273,1.331,1.331,0,0,0-.93.814l-.556,1.442H74.1l-.555-1.444a1.327,1.327,0,0,0-.93-.812,10.459,10.459,0,0,1-3.07-1.273,1.326,1.326,0,0,0-1.233-.083l-1.414.628-1.362-1.36.629-1.414a1.322,1.322,0,0,0-.084-1.234,10.512,10.512,0,0,1-1.273-3.07,1.322,1.322,0,0,0-.814-.931l-1.441-.556V74.1L64,73.546a1.324,1.324,0,0,0,.814-.93,10.484,10.484,0,0,1,1.271-3.07,1.322,1.322,0,0,0,.084-1.233L65.535,66.9,66.9,65.54l1.414.628a1.328,1.328,0,0,0,1.233-.083,10.472,10.472,0,0,1,3.069-1.274A1.327,1.327,0,0,0,73.544,64l.555-1.442h1.923L76.578,64a1.327,1.327,0,0,0,.93.814,10.452,10.452,0,0,1,3.069,1.274,1.329,1.329,0,0,0,1.233.083l1.413-.628,1.366,1.36-.632,1.414a1.328,1.328,0,0,0,.086,1.233,10.468,10.468,0,0,1,1.272,3.07,1.328,1.328,0,0,0,.812.93Zm-49.249.961a15.067,15.067,0,0,0-1.52-6.612h2.77A1.326,1.326,0,0,0,40.9,67.126V60.985a1.326,1.326,0,0,0-1.326-1.327H33.43A1.326,1.326,0,0,0,32.1,60.985v1.846A15.09,15.09,0,0,0,26.993,60.4V37.83A15.162,15.162,0,0,0,38,20.056H60.221A15.17,15.17,0,0,0,71.227,37.83V62.443a13.031,13.031,0,0,0-2.457,1.026l-1.629-.724a1.326,1.326,0,0,0-1.476.275l-2.2,2.195H43.835a1.326,1.326,0,0,0,0,2.653H63.064l.4.905a13.072,13.072,0,0,0-1.052,2.542l-1.663.64a1.324,1.324,0,0,0-.849,1.238v3.745a1.324,1.324,0,0,0,.842,1.234H38A15.16,15.16,0,0,0,38.32,75.064ZM23.159,87.573a12.458,12.458,0,0,0,8.189-3.065,8.335,8.335,0,0,0-16.378,0A12.459,12.459,0,0,0,23.159,87.573Zm0-12.5A3.558,3.558,0,1,0,19.6,71.515,3.562,3.562,0,0,0,23.159,75.072ZM35.15,65.8h3.094V62.311H34.756v3c.134.159.265.323.394.488Zm-24.5,9.264a12.433,12.433,0,0,0,2.227,7.112,10.963,10.963,0,0,1,5.948-6.218,6.212,6.212,0,1,1,8.666,0,10.955,10.955,0,0,1,5.948,6.218,12.505,12.505,0,1,0-22.789-7.112ZM23.159,35.67A12.508,12.508,0,1,0,10.651,23.161,12.523,12.523,0,0,0,23.159,35.67ZM62.553,23.161A12.508,12.508,0,1,0,75.061,10.654,12.523,12.523,0,0,0,62.553,23.161Zm27.67,50.03v3.745a1.322,1.322,0,0,1-.851,1.237l-1.662.64a13.049,13.049,0,0,1-1.054,2.541l.726,1.629a1.344,1.344,0,0,1-.273,1.477l-2.653,2.648a1.324,1.324,0,0,1-1.475.273l-1.623-.723a13.337,13.337,0,0,1-2.547,1.054l-.64,1.661a1.326,1.326,0,0,1-1.238.851H73.189a1.325,1.325,0,0,1-1.238-.851l-.64-1.662A13.1,13.1,0,0,1,68.77,86.66l-1.629.723a1.328,1.328,0,0,1-1.476-.273l-2.647-2.648a1.329,1.329,0,0,1-.276-1.477l.723-1.628c-.094-.176-.183-.354-.272-.534H37.183A15.161,15.161,0,1,1,23.159,59.9c.4,0,.792.015,1.181.046V38.277c-.389.03-.784.046-1.181.046A15.161,15.161,0,1,1,37.183,17.4H61.039A15.16,15.16,0,1,1,75.061,38.323c-.4,0-.792-.016-1.181-.046V59.9h3.054a1.327,1.327,0,0,1,1.238.848l.64,1.663a13.064,13.064,0,0,1,2.54,1.054l1.631-.724a1.326,1.326,0,0,1,1.475.275L87.1,65.668a1.33,1.33,0,0,1,.281,1.475l-.726,1.629a13.068,13.068,0,0,1,1.054,2.542l1.662.64a1.322,1.322,0,0,1,.85,1.238ZM23.386,21.8c-2.807-.461-2.86-1.55-2.88-1.961a2.129,2.129,0,0,1,1.9-2.066,3.04,3.04,0,0,1,3.605,1.7,1.327,1.327,0,1,0,2.447-1.027,5.405,5.405,0,0,0-3.971-3.269v-.77a1.326,1.326,0,1,0-2.653,0v.78l-.016,0a4.718,4.718,0,0,0-3.959,4.781c.081,1.661,1.032,3.781,5.1,4.449,2.748.451,3.207,1.381,3.3,2.139a1.332,1.332,0,0,1-.3,1.1,3.818,3.818,0,0,1-2.646.975,3.1,3.1,0,0,1-3.3-2.07,1.326,1.326,0,1,0-2.573.641,5.428,5.428,0,0,0,4.4,3.954v.758a1.326,1.326,0,1,0,2.653,0V31.18a5.868,5.868,0,0,0,3.474-1.786,3.965,3.965,0,0,0,.93-3.155c-.29-2.392-2.142-3.883-5.5-4.436Zm50.349,1.358V14.942a1.326,1.326,0,0,1,2.653,0V22.4l5.282,3.051a1.326,1.326,0,1,1-1.327,2.3L74.4,24.31a1.329,1.329,0,0,1-.663-1.149Z" transform="translate(-3.606 -22.122)" fill="#242222" fill-rule="evenodd"/>
    </g>
  </g>
</svg>
