<svg xmlns="http://www.w3.org/2000/svg" width="29.988" height="29.984" viewBox="0 0 29.988 29.984">
  <path id="Trazado_993040" data-name="Trazado 993040" d="M29.984,7.646V7.428A7.429,7.429,0,0,0,22.557,0h-.218A7.423,7.423,0,0,0,14.99,6.4,7.416,7.416,0,0,0,7.646,0H7.428A7.429,7.429,0,0,0,0,7.428v.218a7.423,7.423,0,0,0,6.4,7.348A7.419,7.419,0,0,0,0,22.338v.218a7.429,7.429,0,0,0,7.428,7.428h.218a7.423,7.423,0,0,0,7.348-6.4,7.423,7.423,0,0,0,7.348,6.4h.218a7.429,7.429,0,0,0,7.428-7.428v-.218a7.423,7.423,0,0,0-6.4-7.348,7.423,7.423,0,0,0,6.4-7.348Z" fill="#cbc232"/>
</svg>
