<svg xmlns="http://www.w3.org/2000/svg" width="124" height="124" viewBox="0 0 124 124">
  <g id="Grupo_1186764" data-name="Grupo 1186764" transform="translate(-740.174 -11301.125)">
    <circle id="Elipse_13635" data-name="Elipse 13635" cx="62" cy="62" r="62" transform="translate(740.174 11301.125)" fill="#fff"/>
    <g id="informe-seo" transform="translate(773.494 11330.331)">
      <rect id="Rect치ngulo_456380" data-name="Rect치ngulo 456380" width="42" height="56" rx="3" transform="translate(8 6)" fill="#c0dafb"/>
      <rect id="Rect치ngulo_456381" data-name="Rect치ngulo 456381" width="42" height="56" rx="3" transform="translate(4 2)" fill="#e3e8f6"/>
      <path id="Trazado_997925" data-name="Trazado 997925" d="M43,2H7V51a3,3,0,0,0,3,3H46V5A3,3,0,0,0,43,2Z" fill="#f8f7fe"/>
      <path id="Trazado_997926" data-name="Trazado 997926" d="M52,36V58a4,4,0,0,1-4,4H6a4,4,0,0,1-4-4V30a4,4,0,0,1,4-4H18l4,6H48A4,4,0,0,1,52,36Z" fill="#f3a845"/>
      <path id="Trazado_997927" data-name="Trazado 997927" d="M22,32H36l-3-4H19.333Z" fill="#f3a845"/>
      <path id="Trazado_997928" data-name="Trazado 997928" d="M48,32H22l-4-6H6a3.974,3.974,0,0,0-.892.108A3.974,3.974,0,0,0,5,27V55a4,4,0,0,0,4,4H51a3.973,3.973,0,0,0,.892-.108A3.974,3.974,0,0,0,52,58V36A4,4,0,0,0,48,32Z" fill="#eecc61"/>
      <path id="Trazado_997929" data-name="Trazado 997929" d="M8,6h6v4H8Z" fill="#f3a845"/>
      <path id="Trazado_997930" data-name="Trazado 997930" d="M12,8h2V6H10A2,2,0,0,0,12,8Z" fill="#eecc61"/>
      <path id="Trazado_997931" data-name="Trazado 997931" d="M8,16h6v4H8Z" fill="#f3a845"/>
      <path id="Trazado_997932" data-name="Trazado 997932" d="M12,18h2V16H10A2,2,0,0,0,12,18Z" fill="#eecc61"/>
      <path id="Trazado_997933" data-name="Trazado 997933" d="M62,54l-8-8-3,3L62,60Z" fill="#939393"/>
      <circle id="Elipse_13780" data-name="Elipse 13780" cx="12" cy="12" r="12" transform="translate(30 24)" fill="#939393"/>
      <path id="Trazado_997934" data-name="Trazado 997934" d="M52.237,42.237a12.023,12.023,0,0,1-5.306,4.694L50,50l5-5Z" fill="#686868"/>
      <circle id="Elipse_13781" data-name="Elipse 13781" cx="8" cy="8" r="8" transform="translate(34 28)" fill="#e3e8f6"/>
      <ellipse id="Elipse_13782" data-name="Elipse 13782" cx="6.5" cy="7.855" rx="6.5" ry="7.855" transform="translate(37 28.145)" fill="#f8f7fe"/>
      <path id="Trazado_997935" data-name="Trazado 997935" d="M54,47.414l7.293,7.293,1.414-1.415L55.414,46l.293-.293a1,1,0,0,0,0-1.414l-2.221-2.221A12.943,12.943,0,0,0,51,26.641V9a4,4,0,0,0-4-4,4,4,0,0,0-4-4H7A4,4,0,0,0,3,5V26.026A4.977,4.977,0,0,0,1,30V58a5.006,5.006,0,0,0,5,5H48a5.006,5.006,0,0,0,5-5V52.414l8.293,8.293,1.414-1.414L52.414,49ZM53.586,45,50,48.586l-1.4-1.4A13.063,13.063,0,0,0,52.384,43.8ZM53,36A11,11,0,1,1,42,25,11,11,0,0,1,53,36ZM30,31H22.535L21.2,29h9.861A12.862,12.862,0,0,0,30,31ZM49,9V25.063A12.907,12.907,0,0,0,47,24V7A2,2,0,0,1,49,9ZM5,5A2,2,0,0,1,7,3H43a2,2,0,0,1,2,2V23.363A12.867,12.867,0,0,0,32.641,27H19.868l-1.036-1.555A1,1,0,0,0,18,25H6a5,5,0,0,0-1,.1ZM51,58a3,3,0,0,1-3,3H6a3,3,0,0,1-3-3V30a3,3,0,0,1,3-3H17.465l3.7,5.555A1,1,0,0,0,22,33h7.363A12.968,12.968,0,0,0,46.7,48.109l2.6,2.6a1,1,0,0,0,1.414,0L51,50.414Z"/>
      <path id="Trazado_997936" data-name="Trazado 997936" d="M42,27a9,9,0,1,0,9,9,9,9,0,0,0-9-9Zm0,16a7,7,0,1,1,7-7,7,7,0,0,1-7,7Z"/>
      <path id="Trazado_997937" data-name="Trazado 997937" d="M8,11h6a1,1,0,0,0,1-1V6a1,1,0,0,0-1-1H8A1,1,0,0,0,7,6v4A1,1,0,0,0,8,11ZM9,7h4V9H9Z"/>
      <path id="Trazado_997938" data-name="Trazado 997938" d="M17,5H34V7H17Z"/>
      <path id="Trazado_997939" data-name="Trazado 997939" d="M17,9H39v2H17Z"/>
      <path id="Trazado_997940" data-name="Trazado 997940" d="M41,9h2v2H41Z"/>
      <path id="Trazado_997941" data-name="Trazado 997941" d="M8,21h6a1,1,0,0,0,1-1V16a1,1,0,0,0-1-1H8a1,1,0,0,0-1,1v4A1,1,0,0,0,8,21Zm1-4h4v2H9Z"/>
      <path id="Trazado_997942" data-name="Trazado 997942" d="M17,15H34v2H17Z"/>
      <path id="Trazado_997943" data-name="Trazado 997943" d="M17,19H39v2H17Z"/>
      <path id="Trazado_997944" data-name="Trazado 997944" d="M41,19h2v2H41Z"/>
    </g>
  </g>
</svg>
