<svg xmlns="http://www.w3.org/2000/svg" width="136" height="135.194" viewBox="0 0 136 135.194">
  <g id="kpi" transform="translate(-0.806 -1.21)">
    <g id="Grupo_100772" data-name="Grupo 100772">
      <g id="Grupo_100771" data-name="Grupo 100771">
        <g id="Grupo_100770" data-name="Grupo 100770">
          <path id="Trazado_151673" data-name="Trazado 151673" d="M52.7,35.464H50.816a4.662,4.662,0,1,1,0-9.323h1.638v6.5A15.08,15.08,0,0,0,52.7,35.464Z" fill="#ffb69f"/>
          <path id="Trazado_151674" data-name="Trazado 151674" d="M91.152,30.8a4.657,4.657,0,0,1-4.659,4.659H84.6a15.146,15.146,0,0,0,.25-2.822v-6.5h1.638A4.658,4.658,0,0,1,91.152,30.8Z" fill="#ffb69f"/>
          <path id="Trazado_151675" data-name="Trazado 151675" d="M84.855,19.124V32.642a15.146,15.146,0,0,1-.25,2.822,16.2,16.2,0,0,1-31.9,0,14.993,14.993,0,0,1-.25-2.822V19.124Z" fill="#ffb69f"/>
        </g>
        <path id="Trazado_151676" data-name="Trazado 151676" d="M85.681,4.561,82.748,2.553a5.561,5.561,0,0,1-5.462,4.525H59.808a7.356,7.356,0,0,0-7.353,7.355l0,4.692h32.4l2.027-2.057a8.192,8.192,0,0,0-1.2-12.507Z" fill="#7c7b7a"/>
        <path id="Trazado_151677" data-name="Trazado 151677" d="M58.954,19.125l-6.5,9.166V19.125Z" fill="#afafaf"/>
        <path id="Trazado_151678" data-name="Trazado 151678" d="M84.856,19.125v9.166l-6.509-9.166Z" fill="#afafaf"/>
        <path id="Trazado_151679" data-name="Trazado 151679" d="M81.906,54.588a17.957,17.957,0,0,1-26.27,0l4.112-1.247V46.175l17.8-.011v7.176L81.9,54.588Z" fill="#ffb69f"/>
        <path id="Trazado_151680" data-name="Trazado 151680" d="M103.747,71.483H33.871l.656-3.763.4-2.279a7.9,7.9,0,0,1,5.488-6.219l15.218-4.634h.005a17.957,17.957,0,0,0,26.27,0l15.616,4.747a7.885,7.885,0,0,1,5.171,6.107l.4,2.279Z" fill="#72c3e9"/>
        <path id="Trazado_151681" data-name="Trazado 151681" d="M103.747,71.483H33.871l.656-3.763h68.564Z" fill="#4ba5c8"/>
      </g>
    </g>
    <path id="Trazado_151682" data-name="Trazado 151682" d="M135.462,74.171v58.2a2.689,2.689,0,0,1-2.688,2.688H4.838a2.689,2.689,0,0,1-2.688-2.688v-58.2a2.689,2.689,0,0,1,2.688-2.688H8.805V73.51a3.76,3.76,0,0,0,3.763,3.763H24.394a3.764,3.764,0,0,0,3.763-3.763V71.483h81.3V73.51a3.764,3.764,0,0,0,3.763,3.763h11.826a3.76,3.76,0,0,0,3.763-3.763V71.483h3.967a2.689,2.689,0,0,1,2.688,2.688Z" fill="#efefef"/>
    <path id="Trazado_151683" data-name="Trazado 151683" d="M31.382,71.483V73.51A7,7,0,0,1,24.394,80.5H12.568A7,7,0,0,1,5.58,73.51V71.483H8.805V73.51a3.76,3.76,0,0,0,3.763,3.763H24.394a3.764,3.764,0,0,0,3.763-3.763V71.483Z" fill="#afafaf"/>
    <path id="Trazado_151684" data-name="Trazado 151684" d="M132.033,71.483V73.51a7,7,0,0,1-6.988,6.988H113.219a7,7,0,0,1-6.988-6.988V71.483h3.225V73.51a3.764,3.764,0,0,0,3.763,3.763h11.826a3.76,3.76,0,0,0,3.763-3.763V71.483Z" fill="#afafaf"/>
    <path id="Trazado_151685" data-name="Trazado 151685" d="M89.241,122.895a3.225,3.225,0,0,1-3.225,3.225H15.051a3.225,3.225,0,0,1-3.225-3.225V88.7a3.225,3.225,0,1,1,6.451,0v30.974H86.015A3.225,3.225,0,0,1,89.241,122.895Z" fill="#72c3e9"/>
    <path id="Trazado_151686" data-name="Trazado 151686" d="M58.439,119.669H46.971V97.451a2.688,2.688,0,0,1,2.688-2.688h6.092a2.688,2.688,0,0,1,2.688,2.688Z" fill="#f0c020"/>
    <path id="Trazado_151687" data-name="Trazado 151687" d="M40.254,119.669H28.787V104.925a2.688,2.688,0,0,1,2.688-2.688h6.092a2.688,2.688,0,0,1,2.688,2.688Z" fill="#fc5d3d"/>
    <path id="Trazado_151688" data-name="Trazado 151688" d="M76.623,119.669H65.155V91.249a2.688,2.688,0,0,1,2.688-2.688h6.092a2.688,2.688,0,0,1,2.688,2.688Z" fill="#13bf6d"/>
    <g id="Grupo_100773" data-name="Grupo 100773">
      <path id="Trazado_151689" data-name="Trazado 151689" d="M128.808,67.457V73.51a3.76,3.76,0,0,1-3.763,3.763H113.219a3.764,3.764,0,0,1-3.763-3.763V67.457a3.767,3.767,0,0,1,3.763-3.763h11.826A3.764,3.764,0,0,1,128.808,67.457Z" fill="#ffb69f"/>
      <path id="Trazado_151690" data-name="Trazado 151690" d="M28.157,67.457V73.51a3.764,3.764,0,0,1-3.763,3.763H12.568A3.76,3.76,0,0,1,8.805,73.51V67.457a3.764,3.764,0,0,1,3.763-3.763H24.394A3.767,3.767,0,0,1,28.157,67.457Z" fill="#ffb69f"/>
    </g>
    <g id="Grupo_100774" data-name="Grupo 100774">
      <path id="Trazado_151691" data-name="Trazado 151691" d="M45.041,86.561c-2.2-.727-4.473-1.363-5.75-6.859-1.175,5.063-3.058,5.97-5.75,6.859,4.39,1.45,5.052,3.852,5.75,6.859C40.495,88.236,42.484,87.4,45.041,86.561Z" fill="#f0c020"/>
    </g>
    <g id="Grupo_100775" data-name="Grupo 100775">
      <path id="Trazado_151692" data-name="Trazado 151692" d="M101.422,110.953c-2.2-.727-4.473-1.363-5.75-6.859-1.175,5.063-3.058,5.97-5.75,6.859,4.39,1.45,5.052,3.852,5.75,6.859C96.876,112.628,98.865,111.8,101.422,110.953Z" fill="#f0c020"/>
    </g>
    <path id="Trazado_151693" data-name="Trazado 151693" d="M130.624,131.565h-2.464a1.344,1.344,0,0,1,0-2.688h2.464a1.344,1.344,0,0,1,0,2.688Zm-7.839,0H6.988a1.344,1.344,0,0,1-1.344-1.344V82.066a1.344,1.344,0,0,1,2.688,0v46.811H122.785a1.344,1.344,0,1,1,0,2.688Z" fill="#fff"/>
    <path id="Trazado_151694" data-name="Trazado 151694" d="M54.292,121.013a1.344,1.344,0,0,1-1.344-1.344v-13.5a1.344,1.344,0,0,1,2.688,0v13.5A1.344,1.344,0,0,1,54.292,121.013Zm0-18.879a1.344,1.344,0,0,1-1.344-1.344V99.715a1.344,1.344,0,0,1,2.688,0v1.075A1.344,1.344,0,0,1,54.292,102.134Z" fill="#f8e5b0"/>
    <path id="Trazado_151695" data-name="Trazado 151695" d="M36.374,121.013a1.344,1.344,0,0,1-1.344-1.344v-6a1.344,1.344,0,0,1,2.688,0v6A1.344,1.344,0,0,1,36.374,121.013Zm0-11.378a1.344,1.344,0,0,1-1.344-1.344v-1.075a1.344,1.344,0,0,1,2.688,0v1.075A1.344,1.344,0,0,1,36.374,109.635Z" fill="#ffcbc3"/>
    <path id="Trazado_151696" data-name="Trazado 151696" d="M72.659,121.013a1.344,1.344,0,0,1-1.344-1.344V100.791a1.344,1.344,0,0,1,2.688,0v18.879A1.344,1.344,0,0,1,72.659,121.013Zm0-24.254a1.344,1.344,0,0,1-1.344-1.344V94.34a1.344,1.344,0,0,1,2.688,0v1.075A1.344,1.344,0,0,1,72.659,96.759Z" fill="#76ffbb"/>
    <path id="Trazado_151697" data-name="Trazado 151697" d="M62.673,38.311a6.388,6.388,0,0,0,11.96.006,1.351,1.351,0,0,0-.79-1.731,1.373,1.373,0,0,0-1.731.791,3.7,3.7,0,0,1-6.918,0,1.372,1.372,0,0,0-1.726-.791,1.342,1.342,0,0,0-.8,1.72Z"/>
    <path id="Trazado_151698" data-name="Trazado 151698" d="M62.457,28.361v-.954a1.344,1.344,0,0,0-2.688,0v.954a1.344,1.344,0,0,0,2.688,0Z"/>
    <path id="Trazado_151699" data-name="Trazado 151699" d="M76.191,29.7a1.344,1.344,0,0,0,1.344-1.344v-.954a1.344,1.344,0,0,0-2.688,0v.954A1.344,1.344,0,0,0,76.191,29.7Z"/>
    <path id="Trazado_151700" data-name="Trazado 151700" d="M68.652,34.057A1.344,1.344,0,0,0,70,32.713V28.361a1.344,1.344,0,0,0-2.688,0v4.353A1.344,1.344,0,0,0,68.652,34.057Z"/>
    <path id="Trazado_151701" data-name="Trazado 151701" d="M65.689,7.08a1.344,1.344,0,1,0,1.344-1.344A1.343,1.343,0,0,0,65.689,7.08Z"/>
    <path id="Trazado_151702" data-name="Trazado 151702" d="M34.236,69.392a1.345,1.345,0,1,0-1.1-1.559,1.346,1.346,0,0,0,1.1,1.559Z"/>
    <path id="Trazado_151703" data-name="Trazado 151703" d="M125.518,92.5a1.344,1.344,0,0,0-1.344-1.344H100.7a1.345,1.345,0,0,0-.623.153l-16.1,8.422a1.344,1.344,0,0,0,1.246,2.381l15.8-8.269h23.143A1.344,1.344,0,0,0,125.518,92.5Z"/>
    <path id="Trazado_151704" data-name="Trazado 151704" d="M124.174,97.789H104.732a1.344,1.344,0,1,0,0,2.688h19.442a1.344,1.344,0,1,0,0-2.688Z"/>
    <path id="Trazado_151705" data-name="Trazado 151705" d="M124.174,104.419H104.732a1.344,1.344,0,1,0,0,2.688h19.442a1.344,1.344,0,1,0,0-2.688Z"/>
    <path id="Trazado_151706" data-name="Trazado 151706" d="M104.732,123.771h19.442a1.344,1.344,0,0,0,0-2.688H104.732a1.344,1.344,0,1,0,0,2.688Z"/>
    <circle id="Elipse_4788" data-name="Elipse 4788" cx="1.344" cy="1.344" r="1.344" transform="translate(110.659 133.715)"/>
    <path id="Trazado_151707" data-name="Trazado 151707" d="M15.051,84.126A4.574,4.574,0,0,0,10.482,88.7v34.2a4.574,4.574,0,0,0,4.569,4.569H86.016a4.569,4.569,0,1,0,0-9.138H77.967V91.249a4.036,4.036,0,0,0-4.032-4.032H67.843a4.036,4.036,0,0,0-4.032,4.032v27.076H59.782V97.451a4.036,4.036,0,0,0-4.032-4.032H49.659a4.036,4.036,0,0,0-4.032,4.032v20.874H41.6v-13.4a4.036,4.036,0,0,0-4.032-4.032H31.475a4.036,4.036,0,0,0-4.032,4.032v13.4H19.621V88.7a4.574,4.574,0,0,0-4.569-4.569ZM66.5,91.249a1.345,1.345,0,0,1,1.344-1.344h6.092a1.345,1.345,0,0,1,1.344,1.344v27.076H66.5Zm-18.184,6.2a1.345,1.345,0,0,1,1.344-1.344h6.092a1.345,1.345,0,0,1,1.344,1.344v20.874h-8.78Zm-18.184,7.474a1.345,1.345,0,0,1,1.344-1.344h6.092a1.345,1.345,0,0,1,1.344,1.344v13.4h-8.78Zm55.885,16.088a1.881,1.881,0,1,1,0,3.763H15.051a1.883,1.883,0,0,1-1.881-1.881V88.7a1.881,1.881,0,1,1,3.763,0v30.974a1.344,1.344,0,0,0,1.344,1.344Z"/>
    <path id="Trazado_151708" data-name="Trazado 151708" d="M37.983,93.723a1.344,1.344,0,0,0,2.619,0c1.075-4.636,2.664-5.16,4.862-5.887a1.345,1.345,0,0,0,0-2.552c-2.105-.7-3.76-1.14-4.862-5.888a1.344,1.344,0,0,0-2.618,0c-1.076,4.636-2.665,5.162-4.862,5.887a1.345,1.345,0,0,0,0,2.552c3.786,1.251,4.214,3.1,4.862,5.887ZM39.3,83.731a7.484,7.484,0,0,0,2.452,2.844,7.266,7.266,0,0,0-2.425,2.745,7.6,7.6,0,0,0-2.561-2.726A7.287,7.287,0,0,0,39.3,83.731Z"/>
    <path id="Trazado_151709" data-name="Trazado 151709" d="M94.364,118.116a1.344,1.344,0,0,0,2.619,0c1.075-4.636,2.664-5.16,4.862-5.887a1.345,1.345,0,0,0,0-2.552c-2.105-.7-3.76-1.14-4.862-5.888a1.344,1.344,0,0,0-2.618,0c-1.076,4.636-2.665,5.162-4.862,5.887a1.345,1.345,0,0,0,0,2.552c3.786,1.251,4.214,3.1,4.862,5.887Zm1.314-9.992a7.484,7.484,0,0,0,2.452,2.844,7.266,7.266,0,0,0-2.425,2.745,7.6,7.6,0,0,0-2.561-2.726A7.283,7.283,0,0,0,95.678,108.124Z"/>
    <g id="Grupo_100776" data-name="Grupo 100776">
      <path id="Trazado_151710" data-name="Trazado 151710" d="M132.775,70.139h-2.623V67.457a5.111,5.111,0,0,0-5.107-5.107H113.219a5.111,5.111,0,0,0-5.107,5.107v2.682h-3.236l-.86-4.929a9.251,9.251,0,0,0-6.053-7.144C78.826,52.25,83.638,53.688,78.9,52.331V46.869a17.458,17.458,0,0,0,6.8-10.063h.8a6,6,0,1,0,0-12.009H86.2V19.669l1.634-1.656a9.535,9.535,0,0,0-1.4-14.562l-2.93-2.005a1.344,1.344,0,0,0-2.08.855,4.222,4.222,0,0,1-4.145,3.435H72.408a1.344,1.344,0,0,0,0,2.688l4.876-.005a6.864,6.864,0,0,0,6.15-3.763l1.489,1.016a6.85,6.85,0,0,1,1.005,10.45l-1.634,1.661h-30.5l.005-3.349a6.035,6.035,0,0,1,6.01-6.015h1.849a1.341,1.341,0,1,0,0-2.682H59.808a8.7,8.7,0,0,0-8.7,8.7V24.8h-.3a6,6,0,0,0,0,12.009h.806A17.592,17.592,0,0,0,58.4,46.88v5.467s-1.127.337-8.2,2.489a1.345,1.345,0,1,0,.779,2.575l4.263-1.3A19.2,19.2,0,0,0,68.72,61.641h.021a19.381,19.381,0,0,0,13.546-5.531l14.818,4.5a6.627,6.627,0,0,1,4.265,5.062l.779,4.467H35.468l.779-4.467a6.55,6.55,0,0,1,4.468-5.14,1.341,1.341,0,0,0,.87-1.688,1.357,1.357,0,0,0-1.688-.871A9.212,9.212,0,0,0,33.6,65.215l-.86,4.924H29.5V67.457a5.111,5.111,0,0,0-5.107-5.107H12.568a5.111,5.111,0,0,0-5.107,5.107v2.682H4.838A4.04,4.04,0,0,0,.806,74.171v58.2A4.04,4.04,0,0,0,4.838,136.4h101.79a1.344,1.344,0,0,0,0-2.688H4.838a1.344,1.344,0,0,1-1.344-1.344v-58.2a1.344,1.344,0,0,1,1.344-1.344H7.461v.683a5.111,5.111,0,0,0,5.107,5.107H24.394A5.111,5.111,0,0,0,29.5,73.51v-.683h78.611v.683a5.111,5.111,0,0,0,5.107,5.107h11.826a5.111,5.111,0,0,0,5.107-5.107v-.683h2.623a1.344,1.344,0,0,1,1.344,1.344v58.2a1.344,1.344,0,0,1-1.344,1.344h-15.4a1.344,1.344,0,0,0,0,2.688h15.4a4.04,4.04,0,0,0,4.032-4.032v-58.2a4.04,4.04,0,0,0-4.032-4.032ZM86.2,32.64V28.3c.009-.008.005-.805.005-.817h.29a3.317,3.317,0,1,1,0,6.633h-.355c.034-.138.059-1.317.059-1.478ZM51.169,34.118h-.355a3.317,3.317,0,0,1,0-6.633h.3V32.64c0,.69.059,1.47.059,1.478ZM26.813,73.51a2.423,2.423,0,0,1-2.419,2.419H22.98V70.876a1.344,1.344,0,0,0-2.688,0v5.053H16.659V70.876a1.341,1.341,0,1,0-2.682,0v5.053H12.568a2.423,2.423,0,0,1-2.419-2.419V67.457a2.423,2.423,0,0,1,2.419-2.419H24.394a2.423,2.423,0,0,1,2.419,2.419Zm56.7-53.04v3.607L80.95,20.47Zm-29.71,0h2.553l-2.553,3.6Zm0,12.17V28.716l5.849-8.246H77.654l5.854,8.246V32.64a14.855,14.855,0,1,1-29.71,0Zm6.343,21.986a1.343,1.343,0,0,0,.951-1.285V48.482a17.489,17.489,0,0,0,15.116-.005v4.865a1.347,1.347,0,0,0,.973,1.29l2.053.591a16.664,16.664,0,0,1-10.5,3.731h0A16.47,16.47,0,0,1,58.255,55.2ZM127.464,73.51a2.423,2.423,0,0,1-2.419,2.419h-1.408V70.876a1.344,1.344,0,0,0-2.688,0v5.053H117.32V70.876a1.344,1.344,0,0,0-2.688,0v5.053h-1.414A2.423,2.423,0,0,1,110.8,73.51V67.457a2.423,2.423,0,0,1,2.419-2.419h11.826a2.423,2.423,0,0,1,2.419,2.419Z"/>
      <path id="Trazado_151711" data-name="Trazado 151711" d="M45.837,58.975a1.345,1.345,0,1,0-1.677-.9A1.347,1.347,0,0,0,45.837,58.975Z"/>
    </g>
  </g>
</svg>
