<svg xmlns="http://www.w3.org/2000/svg" width="136" height="100.938" viewBox="0 0 136 100.938">
  <g id="frecuencia" transform="translate(0 -17.531)">
    <g id="Grupo_100777" data-name="Grupo 100777">
      <path id="Trazado_151712" data-name="Trazado 151712" d="M127.253,50.456,133.344,68H112.649l4.375-17.194a5.315,5.315,0,0,1,10.229-.351Z" fill="#ff7d95"/>
      <path id="Trazado_151713" data-name="Trazado 151713" d="M94.563,68,92.148,79.082l3.007,16.285a5.314,5.314,0,0,0,10.415.452L112.649,68Z" fill="#a0e5a5"/>
      <circle id="Elipse_4789" data-name="Elipse 4789" cx="26.563" cy="26.563" r="26.563" transform="translate(41.438 41.438)" fill="#ffda8f"/>
      <path id="Trazado_151714" data-name="Trazado 151714" d="M83.876,24.7a5.313,5.313,0,0,0-10.524.143l-2.083,16.8,16.493,8.614Z" fill="#ff7d95"/>
      <path id="Trazado_151715" data-name="Trazado 151715" d="M48.559,86.1l3.557,25.152a5.314,5.314,0,0,0,10.532-.09l2.083-16.8Z" fill="#a0e5a5"/>
      <path id="Trazado_151716" data-name="Trazado 151716" d="M40.853,35.373a5.314,5.314,0,0,0-10.49-.191L24.2,68H41.438L44.3,55.991Z" fill="#ff7d95"/>
      <path id="Trazado_151717" data-name="Trazado 151717" d="M24.2,68,19.043,95.506A5.315,5.315,0,0,1,8.6,95.591L2.656,68Z" fill="#a0e5a5"/>
    </g>
    <g id="Grupo_100778" data-name="Grupo 100778">
      <path id="Trazado_151718" data-name="Trazado 151718" d="M68.024,75.857A4.752,4.752,0,0,1,64.6,73.851a2.656,2.656,0,1,0-4.071,3.413,11.008,11.008,0,0,0,4.817,3.448v3.227a2.656,2.656,0,1,0,5.313,0v-3.2a7.971,7.971,0,0,0-2.611-15.5,2.656,2.656,0,0,1-.027-5.313h.02a4.27,4.27,0,0,1,2.88,1.388,2.656,2.656,0,0,0,3.695-3.817,10.239,10.239,0,0,0-3.956-2.46V52.063a2.656,2.656,0,1,0-5.312,0v3.02A7.966,7.966,0,0,0,67.129,70.49c.592.218,3.573-.2,3.573,2.711a2.654,2.654,0,0,1-2.677,2.656Z"/>
      <circle id="Elipse_4790" data-name="Elipse 4790" cx="2.656" cy="2.656" r="2.656" transform="translate(24.969 46.75)"/>
      <path id="Trazado_151719" data-name="Trazado 151719" d="M22.875,60.678,22,65.344H2.656a2.656,2.656,0,0,0-2.6,3.216L6,96.129A7.971,7.971,0,0,0,21.653,96l4.754-25.339H38.9a29.069,29.069,0,0,0,7.141,16.619l3.443,24.348a7.97,7.97,0,0,0,15.8-.135L67.055,97.2q.472.015.945.015A29.324,29.324,0,0,0,90.778,86.293l1.758,9.519a7.97,7.97,0,0,0,15.611.65l6.567-25.806h18.63a2.656,2.656,0,0,0,2.509-3.527l-6.08-17.514a7.971,7.971,0,0,0-15.326.548l-3.862,15.18H97.1a29.128,29.128,0,0,0-6.826-16.255L86.5,24.3a7.97,7.97,0,0,0-15.787.215L68.945,38.8q-.472-.015-.945-.015A29.078,29.078,0,0,0,45.819,48.962l-2.341-14a7.97,7.97,0,0,0-15.725-.273l-.467,2.488a2.656,2.656,0,0,0,5.221.98l.47-2.508a2.658,2.658,0,0,1,5.245.093c0,.022,3.318,19.846,3.318,19.846A28.756,28.756,0,0,0,38.9,65.344H27.405l.692-3.686a2.656,2.656,0,0,0-5.222-.98ZM16.428,95.036a2.659,2.659,0,0,1-5.224.041c0-.015-5.259-24.421-5.259-24.421H21ZM119.6,51.461l.007-.028a2.659,2.659,0,0,1,5.116-.176c.007.024.015.047.023.07l4.866,14.017H116.066Zm-22.5,19.2h12.133l-6.243,24.535a2.658,2.658,0,0,1-5.208-.223c0-.028-2.872-15.564-2.872-15.564a28.853,28.853,0,0,0,2.19-8.748ZM60.012,110.833a2.657,2.657,0,0,1-5.266.047L52.153,92.541a29.187,29.187,0,0,0,9.63,4.011ZM75.988,25.167a2.657,2.657,0,0,1,5.262-.073l2.813,18.5a29.111,29.111,0,0,0-9.846-4.152ZM68,44.094A23.906,23.906,0,1,1,44.094,68,23.906,23.906,0,0,1,68,44.094Z"/>
    </g>
  </g>
</svg>
