<svg xmlns="http://www.w3.org/2000/svg" xmlns:xlink="http://www.w3.org/1999/xlink" width="103" height="103" viewBox="0 0 103 103">
  <defs>
    <filter id="Elipse_13737" x="0" y="0" width="103" height="103" filterUnits="userSpaceOnUse">
      <feOffset dy="3" input="SourceAlpha"/>
      <feGaussianBlur stdDeviation="3" result="blur"/>
      <feFlood flood-opacity="0.161"/>
      <feComposite operator="in" in2="blur"/>
      <feComposite in="SourceGraphic"/>
    </filter>
  </defs>
  <g id="Grupo_1185643" data-name="Grupo 1185643" transform="translate(-904 -2099)">
    <g id="Grupo_1185637" data-name="Grupo 1185637" transform="translate(913 2105)">
      <g transform="matrix(1, 0, 0, 1, -9, -6)" filter="url(#Elipse_13737)">
        <circle id="Elipse_13737-2" data-name="Elipse 13737" cx="42.5" cy="42.5" r="42.5" transform="translate(9 6)" fill="#fff"/>
      </g>
    </g>
    <g id="Indentity_theft" data-name="Indentity theft" transform="translate(934 2127.892)">
      <path id="Trazado_151036" data-name="Trazado 151036" d="M45.021,6.224V27.778a2.874,2.874,0,0,1-2.874,2.874H6.224A2.874,2.874,0,0,1,3.35,27.778V6.224A2.874,2.874,0,0,1,6.224,3.35H42.147A2.874,2.874,0,0,1,45.021,6.224Z" transform="translate(-2.632 -2.632)" fill="#ffb655"/>
      <path id="Trazado_151037" data-name="Trazado 151037" d="M39.274,28.5H9.1a2.874,2.874,0,0,1-2.874-2.874V4.068a2.857,2.857,0,0,1,.1-.718h-.1A2.874,2.874,0,0,0,3.35,6.224V27.778a2.874,2.874,0,0,0,2.874,2.874H42.147A2.866,2.866,0,0,0,44.92,28.5Z" transform="translate(-2.632 -2.632)" fill="#ffa733"/>
      <ellipse id="Elipse_4770" data-name="Elipse 4770" cx="9.34" cy="9.34" rx="9.34" ry="9.34" transform="translate(20.836 3.592)" fill="#ff5023"/>
      <path id="Trazado_151038" data-name="Trazado 151038" d="M27.917,47.939a3.592,3.592,0,0,0,3.592,3.592h2.155V45.783H27.917Z" transform="translate(-11.392 -17.763)" fill="#ffbcab"/>
      <path id="Trazado_151039" data-name="Trazado 151039" d="M10.05,10.05h11.5v11.5H10.05Z" transform="translate(-5.021 -5.021)" fill="#d1e7f8"/>
      <ellipse id="Elipse_4771" data-name="Elipse 4771" cx="1.437" cy="1.437" rx="1.437" ry="1.437" transform="translate(9.34 7.903)" fill="none"/>
      <path id="Trazado_151040" data-name="Trazado 151040" d="M17.391,20.1a2.874,2.874,0,0,0-2.874,2.874v2.155h5.748V22.974A2.874,2.874,0,0,0,17.391,20.1Z" transform="translate(-6.613 -8.604)" fill="#2488ff"/>
      <ellipse id="Elipse_4772" data-name="Elipse 4772" cx="1.437" cy="1.437" rx="1.437" ry="1.437" transform="translate(9.34 7.903)" fill="#006df0"/>
      <path id="Trazado_151041" data-name="Trazado 151041" d="M49.3,41.317H43.55v9.34a3.592,3.592,0,1,0,7.185,0v-9.34Z" transform="translate(-16.967 -16.17)" fill="#006df0"/>
      <ellipse id="Elipse_4773" data-name="Elipse 4773" cx="6.467" cy="6.467" rx="6.467" ry="6.467" transform="translate(21.209 11.193) rotate(-33.913)" fill="#ffb655"/>
      <path id="Trazado_151042" data-name="Trazado 151042" d="M16.773,36.85A2.874,2.874,0,0,0,13.9,39.724V42.6H7.433L4.85,48.409a1.437,1.437,0,0,0,.057,1.282L7.97,55.2a1.437,1.437,0,0,1,.181.7v1.783h11.5V39.724A2.874,2.874,0,0,0,16.773,36.85Z" transform="translate(-3.122 -14.577)" fill="#ffbcab"/>
      <path id="Trazado_151043" data-name="Trazado 151043" d="M42.316,13.149a6.466,6.466,0,1,0,8.833,2.367,6.466,6.466,0,0,0-8.833-2.367Z" transform="translate(-15.373 -5.817)" fill="none"/>
      <path id="Trazado_151044" data-name="Trazado 151044" d="M45.783,36.446V39.58h4.311V36.446A9.061,9.061,0,0,1,45.783,36.446Z" transform="translate(-17.763 -14.433)" fill="#9bc9ff"/>
      <path id="Trazado_151045" data-name="Trazado 151045" d="M41.749,2.233H5.826A3.6,3.6,0,0,0,2.233,5.826V27.38a3.584,3.584,0,0,0,3.222,3.555L3.6,35.119a3.61,3.61,0,0,0,.144,3.2l2.535,4.562a2.163,2.163,0,0,1,.267,1.048v.692a.718.718,0,1,0,1.437,0v-.692a3.607,3.607,0,0,0-.452-1.745L4.994,37.625A2.168,2.168,0,0,1,4.909,35.7l2.1-4.73h5.281V36a.718.718,0,1,0,1.437,0V27.38a2.155,2.155,0,1,1,4.311,0V44.623a.718.718,0,1,0,1.437,0v-9.01a4.289,4.289,0,0,0,2.874,1.106h2.155A.718.718,0,0,0,25.224,36V30.972H28.1V36.72a4.311,4.311,0,1,0,8.622,0V30.972h5.029a3.6,3.6,0,0,0,3.592-3.592V5.826a3.6,3.6,0,0,0-3.592-3.592ZM23.787,35.283H22.351a2.874,2.874,0,0,1-2.874-2.874V30.972h4.311Zm11.5,1.437a2.874,2.874,0,1,1-5.748,0V28.1h5.748ZM32.409,23.787a8.622,8.622,0,1,1,8.622-8.622,8.622,8.622,0,0,1-8.622,8.622Zm-1.437,1.322a9.038,9.038,0,0,0,2.874,0v1.552H30.972ZM43.9,27.38a2.155,2.155,0,0,1-2.155,2.155H36.72V27.38A.718.718,0,0,0,36,26.661h-.718V24.8a10.059,10.059,0,1,0-5.748,0v1.861h-.718a.718.718,0,0,0-.718.718v2.155H19.477V27.38a3.592,3.592,0,1,0-7.185,0v2.155H5.826A2.155,2.155,0,0,1,3.67,27.38V5.826A2.155,2.155,0,0,1,5.826,3.67H41.749A2.155,2.155,0,0,1,43.9,5.826Z" transform="translate(-2.233 -2.233)"/>
      <path id="Trazado_151046" data-name="Trazado 151046" d="M21.147,8.933H9.652a.718.718,0,0,0-.718.718v11.5a.718.718,0,0,0,.718.718h11.5a.718.718,0,0,0,.718-.718V9.652A.718.718,0,0,0,21.147,8.933Zm-7.9,11.5V18.992a2.155,2.155,0,1,1,4.311,0v1.437ZM15.4,14.681a.718.718,0,1,1,.718-.718A.718.718,0,0,1,15.4,14.681Zm5.029,5.748H18.992V18.992a3.592,3.592,0,0,0-2.276-3.334,2.155,2.155,0,1,0-2.632,0,3.592,3.592,0,0,0-2.276,3.334v1.437H10.37V10.37H20.429Z" transform="translate(-4.623 -4.622)"/>
      <path id="Trazado_151047" data-name="Trazado 151047" d="M51.374,14.758a7.185,7.185,0,1,0-2.63,9.815A7.185,7.185,0,0,0,51.374,14.758Zm-3.349,8.57a5.748,5.748,0,1,1,2.1-7.851A5.748,5.748,0,0,1,48.025,23.328Z" transform="translate(-14.975 -5.418)"/>
      <path id="Trazado_151048" data-name="Trazado 151048" d="M45.385,18.187H49.7a.718.718,0,0,0,0-1.437H45.385a.718.718,0,0,0,0,1.437Z" transform="translate(-17.365 -7.41)"/>
      <path id="Trazado_151049" data-name="Trazado 151049" d="M49.7,25.683H45.385a.718.718,0,1,0,0,1.437H49.7a.718.718,0,0,0,0-1.437Z" transform="translate(-17.365 -10.595)"/>
      <path id="Trazado_151050" data-name="Trazado 151050" d="M50.337,21.217H43.152a.718.718,0,1,0,0,1.437h7.185a.718.718,0,0,0,0-1.437Z" transform="translate(-16.568 -9.003)"/>
      <path id="Trazado_151051" data-name="Trazado 151051" d="M21.147,31.267H9.652a.718.718,0,0,0,0,1.437h11.5a.718.718,0,1,0,0-1.437Z" transform="translate(-4.623 -12.586)"/>
    </g>
  </g>
</svg>
