<svg xmlns="http://www.w3.org/2000/svg" xmlns:xlink="http://www.w3.org/1999/xlink" width="103" height="103" viewBox="0 0 103 103">
  <defs>
    <filter id="Elipse_13737" x="0" y="0" width="103" height="103" filterUnits="userSpaceOnUse">
      <feOffset dy="3" input="SourceAlpha"/>
      <feGaussianBlur stdDeviation="3" result="blur"/>
      <feFlood flood-opacity="0.161"/>
      <feComposite operator="in" in2="blur"/>
      <feComposite in="SourceGraphic"/>
    </filter>
  </defs>
  <g id="Grupo_1185645" data-name="Grupo 1185645" transform="translate(-592 -1997)">
    <g id="Grupo_1185633" data-name="Grupo 1185633" transform="translate(601 2003)">
      <g transform="matrix(1, 0, 0, 1, -9, -6)" filter="url(#Elipse_13737)">
        <circle id="Elipse_13737-2" data-name="Elipse 13737" cx="42.5" cy="42.5" r="42.5" transform="translate(9 6)" fill="#fff"/>
      </g>
    </g>
    <g id="cuenta" transform="translate(624.348 2025.445)">
      <g id="Grupo_100501" data-name="Grupo 100501" transform="translate(0.695 0.695)">
        <g id="Grupo_100490" data-name="Grupo 100490" transform="translate(15.992 13.906)">
          <path id="Trazado_151019" data-name="Trazado 151019" d="M29.334,33.695a3.031,3.031,0,0,1-.382.927L27.2,34.155l-1.262-.336V32.191a.7.7,0,0,1,.422-.64l.653-.28A6.256,6.256,0,0,0,30.8,25.52v-.045h1.391a2.78,2.78,0,0,0,2.781-2.781V27.6a8.324,8.324,0,0,0-2.637,4.671h0a5.943,5.943,0,0,1-3,1.424Z" transform="translate(-25.935 -22.694)" fill="#656d78"/>
        </g>
        <g id="Grupo_100491" data-name="Grupo 100491" transform="translate(1.391)">
          <path id="Trazado_151020" data-name="Trazado 151020" d="M11.4,9.792a4.5,4.5,0,0,1-3.987,2.414H6.023a2.782,2.782,0,0,0-2.781,2.781V12.9a11.82,11.82,0,1,1,23.64,0v2.086A2.782,2.782,0,0,0,24.1,12.205H22.71v-.727a1.359,1.359,0,0,0-1.358-1.358h-.727V8.7a1.359,1.359,0,0,0-2.489-.754,2.525,2.525,0,0,1-2.714,1.049l-1.054-.263.7,2.781-1.429-.238A3.277,3.277,0,0,1,11.4,9.792Z" transform="translate(-3.242 -1.081)" fill="#656d78"/>
        </g>
        <g id="Grupo_100492" data-name="Grupo 100492" transform="translate(1.391 13.906)">
          <path id="Trazado_151021" data-name="Trazado 151021" d="M8.883,33.695l-.2-.041a3.3,3.3,0,0,1-2.42-2.014L5.9,31.568A3.3,3.3,0,0,1,3.242,28.33V22.694a2.78,2.78,0,0,0,2.781,2.781H7.414v.045a6.256,6.256,0,0,0,3.793,5.752l.653.28a.7.7,0,0,1,.422.64v1.627l-1.262.336-1.754.468A3.031,3.031,0,0,1,8.883,33.695Z" transform="translate(-3.242 -22.694)" fill="#656d78"/>
        </g>
        <g id="Grupo_100493" data-name="Grupo 100493" transform="translate(0 26.084)">
          <path id="Trazado_151022" data-name="Trazado 151022" d="M21.939,57.255H1.081v-8.3A7.3,7.3,0,0,1,6.5,41.9l1.06-.282a6.954,6.954,0,0,0,13.461,0l1.06.282a7.372,7.372,0,0,1,1.466.565A8.353,8.353,0,0,0,27.4,47.734a7.3,7.3,0,0,1,.1,1.224v8.3Z" transform="translate(-1.081 -41.621)" fill="#ff826e"/>
        </g>
        <g id="Grupo_100494" data-name="Grupo 100494" transform="translate(6.48 25.367)">
          <path id="Trazado_151023" data-name="Trazado 151023" d="M23.68,40.974l.933.249a6.954,6.954,0,0,1-13.461,0l.933-.249,1.754-.468a4.173,4.173,0,0,0,8.086,0Z" transform="translate(-11.152 -40.507)" fill="#fc6e51"/>
        </g>
        <g id="Grupo_100495" data-name="Grupo 100495" transform="translate(20.859 11.125)">
          <path id="Trazado_151024" data-name="Trazado 151024" d="M34.891,18.371a2.781,2.781,0,1,1,0,5.562H33.5V18.371Z" transform="translate(-33.5 -18.371)" fill="#f0d0b4"/>
        </g>
        <g id="Grupo_100496" data-name="Grupo 100496" transform="translate(5.562 6.258)">
          <path id="Trazado_151025" data-name="Trazado 151025" d="M25.022,21.236v.045a6.256,6.256,0,0,1-3.793,5.752l-.653.28a.7.7,0,0,0-.422.64v1.627l1.262.336a4.173,4.173,0,0,1-8.086,0l1.262-.336V27.952a.7.7,0,0,0-.422-.64l-.653-.28a6.256,6.256,0,0,1-3.793-5.752V15.674a4.5,4.5,0,0,0,3.987-2.414,3.277,3.277,0,0,0,2.233,1.48l1.429.238-.7-2.781,1.054.263a2.525,2.525,0,0,0,2.714-1.049,1.359,1.359,0,0,1,2.489.754v1.423h.727a1.359,1.359,0,0,1,1.358,1.358v6.29Z" transform="translate(-9.726 -10.806)" fill="#f0d0b4"/>
        </g>
        <g id="Grupo_100497" data-name="Grupo 100497" transform="translate(1.391 11.125)">
          <path id="Trazado_151026" data-name="Trazado 151026" d="M7.414,18.371v5.562H6.023a2.781,2.781,0,0,1,0-5.562Z" transform="translate(-3.242 -18.371)" fill="#f0d0b4"/>
        </g>
        <g id="Grupo_100498" data-name="Grupo 100498" transform="translate(27.812)">
          <path id="Trazado_151027" data-name="Trazado 151027" d="M58.212,2.471V9.424a1.39,1.39,0,0,1-1.391,1.391H52.65L51.5,13.121a.859.859,0,0,1-1.628-.384V10.815H45.7a1.39,1.39,0,0,1-1.391-1.391V2.471A1.39,1.39,0,0,1,45.7,1.081H56.822a1.39,1.39,0,0,1,1.391,1.391Z" transform="translate(-44.306 -1.081)" fill="#e6e9ed"/>
        </g>
        <g id="Grupo_100499" data-name="Grupo 100499" transform="translate(29.202 33.258)">
          <path id="Trazado_151028" data-name="Trazado 151028" d="M49.249,59.84v.7a.7.7,0,0,1-.7.7H47.163a.7.7,0,0,1-.7-.7V52.771h0a8.36,8.36,0,0,0,2.781,0h0V59.84Z" transform="translate(-46.468 -52.771)" fill="#fcd770"/>
        </g>
        <g id="Grupo_100500" data-name="Grupo 100500" transform="translate(22.249 16.687)">
          <path id="Trazado_151029" data-name="Trazado 151029" d="M35.879,37.26A8.344,8.344,0,1,1,45.4,43.587a8.35,8.35,0,0,1-5.665-1.06A8.353,8.353,0,0,1,35.879,37.26Zm13.688-1.9A5.562,5.562,0,1,0,44,40.922,5.562,5.562,0,0,0,49.567,35.36Z" transform="translate(-35.661 -27.016)" fill="#fcd770"/>
        </g>
      </g>
      <g id="Grupo_100502" data-name="Grupo 100502" transform="translate(0 0)">
        <path id="Trazado_151030" data-name="Trazado 151030" d="M18.681,23.248a1.327,1.327,0,0,1,1.325-1.325h.131a1.325,1.325,0,0,1,.419,2.582l-1.18.393v3.282h1.391V25.9L21,25.824a2.716,2.716,0,0,0-.859-5.292h-.131a2.719,2.719,0,0,0-2.716,2.716v.066h1.391Z" transform="translate(-6.166 -7.322)"/>
        <ellipse id="Elipse_4769" data-name="Elipse 4769" cx="0.695" cy="0.695" rx="0.695" ry="0.695" transform="translate(13.211 22.249)"/>
        <path id="Trazado_151031" data-name="Trazado 151031" d="M45.161,30.258a6.258,6.258,0,1,0,6.258,6.258A6.265,6.265,0,0,0,45.161,30.258Zm0,11.125a4.867,4.867,0,1,1,4.867-4.867A4.873,4.873,0,0,1,45.161,41.383Z" transform="translate(-13.873 -10.79)"/>
        <path id="Trazado_151032" data-name="Trazado 151032" d="M31.288,16.687a8.986,8.986,0,0,0-4.867,1.425v-5.6a12.515,12.515,0,1,0-25.031,0v7.722A4.009,4.009,0,0,0,4.6,24.158l.018,0a4.012,4.012,0,0,0,2.311,1.963l-1,.266A8.006,8.006,0,0,0,0,34.116v8.992H27.812V34.116c0-.016,0-.032,0-.047a8.968,8.968,0,0,0,1.392.453v7.2a1.392,1.392,0,0,0,1.391,1.391h1.391a1.392,1.392,0,0,0,1.391-1.391h1.391V40.327H33.374V38.937h2.781V37.546H33.374V34.521a9.039,9.039,0,0,0-2.086-17.834ZM22.456,23.8a5.235,5.235,0,0,1-1.6.891V23.64H19.468v1.278a2.354,2.354,0,0,1-.138.793l-1.948-.519V24.1l.653-.28a6.944,6.944,0,0,0,4.183-5.741h.727a3.458,3.458,0,0,0,2.086-.7V19.21A9.036,9.036,0,0,0,22.456,23.8Zm-.172,2.708q-.2-.066-.408-.12l-.965-.257a6.622,6.622,0,0,0,1.34-.533c0,.042,0,.084,0,.127,0,.264.012.526.034.785ZM9.412,26.9a4.845,4.845,0,0,0,.91,1.424l-.983.983A6.24,6.24,0,0,1,8.06,27.263ZM5.562,16.687h-.7a2.086,2.086,0,0,1,0-4.172h.7Zm1.391-4.218a5.172,5.172,0,0,0,3.359-1.9,3.974,3.974,0,0,0,2.051,1l2.475.412L14.166,9.3a3.228,3.228,0,0,0,3.392-1.355.663.663,0,0,1,1.215.368v2.118H20.2a.664.664,0,0,1,.663.663v6.335a5.556,5.556,0,0,1-3.371,5.113l-.653.28a1.389,1.389,0,0,0-.843,1.278V26.26l1.047.279a3.479,3.479,0,0,1-6.267,0l1.047-.279V24.1a1.389,1.389,0,0,0-.843-1.278l-.653-.28a5.556,5.556,0,0,1-3.371-5.113Zm4.453,16.74a4.858,4.858,0,0,0,1.8.638v1.4A6.245,6.245,0,0,1,10.4,30.214Zm3.195.638a4.858,4.858,0,0,0,1.8-.638l1,1A6.245,6.245,0,0,1,14.6,31.248Zm3.871-.538-.983-.983A4.846,4.846,0,0,0,18.4,26.9l1.352.361A6.24,6.24,0,0,1,18.472,29.309Zm3.777-16.794h.7a2.086,2.086,0,0,1,0,4.172h-.7ZM13.906,1.391A11.139,11.139,0,0,1,25.007,11.8a3.458,3.458,0,0,0-2.063-.68h-.7v-.032A2.056,2.056,0,0,0,20.2,9.039h-.032V8.312A2.054,2.054,0,0,0,16.4,7.172a1.834,1.834,0,0,1-1.967.76l-2.179-.545.719,2.877-.382-.064a2.58,2.58,0,0,1-2.162-2.553H9.039a3.982,3.982,0,0,0,.4,1.751,3.787,3.787,0,0,1-2.489,1.66V8.344H5.562v2.781h-.7A3.458,3.458,0,0,0,2.8,11.8a11.139,11.139,0,0,1,11.1-10.414ZM5.562,22.323V20.859H4.172v1.464c0,.075,0,.149.007.222a2.616,2.616,0,0,1-1.4-2.308V17.38a3.458,3.458,0,0,0,2.086.7h.727a6.944,6.944,0,0,0,4.183,5.741l.653.28v1.093l-1.948.519a2.354,2.354,0,0,1-.138-.793V23.64H6.953v.988A2.616,2.616,0,0,1,5.562,22.323ZM26.421,34.116v7.6H22.249V34.765H20.859v6.953H6.953V34.765H5.562v6.953H1.391v-7.6a6.613,6.613,0,0,1,4.9-6.382l.416-.111a7.648,7.648,0,0,0,14.391,0l.416.111a6.632,6.632,0,0,1,1.052.379,9.073,9.073,0,0,0,3.8,5.194,6.663,6.663,0,0,1,.05.809Zm5.562,7.6H30.593V34.738q.344.026.7.027t.7-.027Zm-.7-8.344a7.648,7.648,0,1,1,7.648-7.648A7.657,7.657,0,0,1,31.288,33.374Z" transform="translate(0 0)"/>
        <path id="Trazado_151033" data-name="Trazado 151033" d="M56.436,0H45.312a2.088,2.088,0,0,0-2.086,2.086V9.039a2.088,2.088,0,0,0,2.086,2.086h3.476v1.226a1.555,1.555,0,0,0,2.945.7l.961-1.922h3.742a2.088,2.088,0,0,0,2.086-2.086V2.086A2.088,2.088,0,0,0,56.436,0Zm.7,9.039a.7.7,0,0,1-.7.7h-4.6l-1.345,2.69a.164.164,0,0,1-.311-.073V9.734H45.312a.7.7,0,0,1-.7-.7V2.086a.7.7,0,0,1,.7-.7H56.436a.7.7,0,0,1,.7.7Z" transform="translate(-15.414 0)"/>
        <path id="Trazado_151034" data-name="Trazado 151034" d="M50.956,4.639,49.362,6.233,47.768,4.639l-.983.983,1.594,1.594L46.784,8.811l.983.983L49.362,8.2l1.594,1.594.983-.983L50.345,7.217l1.594-1.594Z" transform="translate(-16.683 -1.654)"/>
        <path id="Trazado_151035" data-name="Trazado 151035" d="M59.6,4.639,58.007,6.233,56.413,4.639l-.983.983,1.594,1.594L55.429,8.811l.983.983L58.007,8.2,59.6,9.794l.983-.983L58.99,7.217l1.594-1.594Z" transform="translate(-19.766 -1.654)"/>
      </g>
    </g>
  </g>
</svg>
