<svg xmlns="http://www.w3.org/2000/svg" xmlns:xlink="http://www.w3.org/1999/xlink" width="103" height="103" viewBox="0 0 103 103">
  <defs>
    <filter id="Elipse_13737" x="0" y="0" width="103" height="103" filterUnits="userSpaceOnUse">
      <feOffset dy="3" input="SourceAlpha"/>
      <feGaussianBlur stdDeviation="3" result="blur"/>
      <feFlood flood-opacity="0.161"/>
      <feComposite operator="in" in2="blur"/>
      <feComposite in="SourceGraphic"/>
    </filter>
  </defs>
  <g id="Grupo_1185648" data-name="Grupo 1185648" transform="translate(-280 -2579)">
    <g id="Grupo_1185632" data-name="Grupo 1185632" transform="translate(289 2585)">
      <g transform="matrix(1, 0, 0, 1, -9, -6)" filter="url(#Elipse_13737)">
        <circle id="Elipse_13737-2" data-name="Elipse 13737" cx="42.5" cy="42.5" r="42.5" transform="translate(9 6)" fill="#fff"/>
      </g>
    </g>
    <g id="operador" transform="translate(312.141 2602.126)">
      <g id="Grupo_100547" data-name="Grupo 100547" transform="translate(10.293 5.062)">
        <path id="Trazado_151160" data-name="Trazado 151160" d="M30.6,6.683A9.092,9.092,0,0,0,21.53,15.75v1.736c4.4.309,6.282-.708,10.83-2.416,2.877-.823,4.338.739,7.3,2.475v-1.8A9.092,9.092,0,0,0,30.6,6.683Z" transform="translate(-21.53 -6.683)" fill="#9ea6bf" fill-rule="evenodd"/>
      </g>
      <g id="Grupo_100548" data-name="Grupo 100548" transform="translate(10.293 13.223)">
        <path id="Trazado_151161" data-name="Trazado 151161" d="M21.53,20.1v3.835A8.887,8.887,0,0,0,21.595,25a9.1,9.1,0,0,0,4.666,6.889,9,9,0,0,0,8.67,0,9.136,9.136,0,0,0,3.192-2.916A8.986,8.986,0,0,0,39.6,25a8.888,8.888,0,0,0,.062-1.065V20.158c-2.964-1.736-4.425-3.3-7.3-2.475-4.548,1.708-6.431,2.725-10.83,2.416Z" transform="translate(-21.53 -17.457)" fill="#f5c6af" fill-rule="evenodd"/>
      </g>
      <g id="Grupo_100549" data-name="Grupo 100549" transform="translate(6.095 14.516)">
        <path id="Trazado_151162" data-name="Trazado 151162" d="M15.989,21.764v1.048a2.608,2.608,0,0,0,2.6,2.6H20.25a8.886,8.886,0,0,1-.065-1.065V19.165h-1.6a2.606,2.606,0,0,0-2.6,2.6Z" transform="translate(-15.989 -19.165)" fill="#cfd3df" fill-rule="evenodd"/>
      </g>
      <g id="Grupo_100550" data-name="Grupo 100550" transform="translate(28.363 14.516)">
        <path id="Trazado_151163" data-name="Trazado 151163" d="M45.45,20.573v3.776a8.867,8.867,0,0,1-.062,1.065h1.66A2.608,2.608,0,0,0,49.358,24a2.574,2.574,0,0,0,.289-1.191V21.764a2.606,2.606,0,0,0-2.6-2.6h-1.6v1.408Z" transform="translate(-45.388 -19.165)" fill="#cfd3df" fill-rule="evenodd"/>
      </g>
      <g id="Grupo_100551" data-name="Grupo 100551" transform="translate(15.024 27.654)">
        <path id="Trazado_151164" data-name="Trazado 151164" d="M27.777,36.51v4.144l4.335,2.925,4.335-2.925V36.51a9,9,0,0,1-8.67,0Z" transform="translate(-27.777 -36.51)" fill="#f2b394" fill-rule="evenodd"/>
      </g>
      <g id="Grupo_100552" data-name="Grupo 100552" transform="translate(15.768 41.859)">
        <path id="Trazado_151165" data-name="Trazado 151165" d="M30.56,55.264l-1.8,7.9h7.184l-1.8-7.9Z" transform="translate(-28.76 -55.264)" fill="#ff6c8a" fill-rule="evenodd"/>
      </g>
      <g id="Grupo_100553" data-name="Grupo 100553" transform="translate(16.232 34.722)">
        <path id="Trazado_151166" data-name="Trazado 151166" d="M29.372,47.953l1.337,5.026h3.579l1.337-5.026L32.5,45.843Z" transform="translate(-29.372 -45.843)" fill="#ff6c8a" fill-rule="evenodd"/>
      </g>
      <g id="Grupo_100554" data-name="Grupo 100554" transform="translate(11.237 31.798)">
        <path id="Trazado_151167" data-name="Trazado 151167" d="M22.777,43.111l2.773,5.4,2.222-1.5,3.127-2.11-4.335-2.925C25.437,42.352,24.131,42.706,22.777,43.111Z" transform="translate(-22.777 -41.981)" fill="#cbf4fb" fill-rule="evenodd"/>
      </g>
      <g id="Grupo_100555" data-name="Grupo 100555" transform="translate(19.359 31.798)">
        <path id="Trazado_151168" data-name="Trazado 151168" d="M37.835,41.981,33.5,44.906l3.127,2.11,2.225,1.5,2.77-5.4C40.268,42.706,38.961,42.352,37.835,41.981Z" transform="translate(-33.5 -41.981)" fill="#cbf4fb" fill-rule="evenodd"/>
      </g>
      <g id="Grupo_100556" data-name="Grupo 100556" transform="translate(21.149 32.927)">
        <path id="Trazado_151169" data-name="Trazado 151169" d="M42.2,43.472l-2.77,5.4-2.225-1.5L35.863,52.4l1.8,7.9H52.441V52.564C52.348,46.937,46.974,44.894,42.2,43.472Z" transform="translate(-35.863 -43.472)" fill="#98eaf9" fill-rule="evenodd"/>
      </g>
      <g id="Grupo_100557" data-name="Grupo 100557" transform="translate(0.991 32.927)">
        <path id="Trazado_151170" data-name="Trazado 151170" d="M19.5,43.472c-4.779,1.422-10.153,3.464-10.246,9.092V60.3H24.027l1.8-7.9L24.49,47.378l-2.222,1.5Z" transform="translate(-9.249 -43.472)" fill="#98eaf9" fill-rule="evenodd"/>
      </g>
      <g id="Grupo_100558" data-name="Grupo 100558" transform="translate(0 0)">
        <path id="Trazado_151171" data-name="Trazado 151171" d="M46.659,42c-.113-6.9-7.164-8.934-12.313-10.422-.6-.174-1.178-.341-1.72-.507V28.228a10.139,10.139,0,0,0,2.719-2.5h3.136a2.787,2.787,0,0,0,2.784-2.784v-3.37a3.574,3.574,0,0,0,.289-1.412V17.115a3.57,3.57,0,0,0-.289-1.411V13.965a13.964,13.964,0,1,0-27.927,0v1.689c0,.013,0,.026,0,.039a3.569,3.569,0,0,0-.294,1.422v1.048a3.6,3.6,0,0,0,3.59,3.593h.819a10.087,10.087,0,0,0,4.519,6.471v2.846c-.541.167-1.119.334-1.72.507C15.1,33.068,8.053,35.106,7.941,42c0,.005,0,.011,0,.016v7.737a.991.991,0,0,0,.991.991H11.87a.991.991,0,1,0,0-1.982H9.923V42.027A6.5,6.5,0,0,1,13.4,36.35a22.715,22.715,0,0,1,5.273-2.234l2.395,4.666a1,1,0,0,0,1.436.369l1.068-.72.917,3.446-1.571,6.888H20.771a.991.991,0,0,0,0,1.982h24.9a.991.991,0,0,0,.991-.991V42.018C46.659,42.013,46.659,42.008,46.659,42ZM33.8,33.484l.2.057-1.713,3.342-3.206-2.162,2.717-1.833c.631.2,1.3.393,2.006.6ZM27.3,35.917l1.987,1.34-.961,3.61H26.272l-.96-3.609Zm0-2.391L23.956,31.27V29.184a10.044,10.044,0,0,0,6.688,0V31.27Zm8.074-19.379-.041-.026c-2.034-1.295-3.79-2.413-6.543-1.625-.026.007-.051.016-.076.025-.583.219-1.114.423-1.627.621-3.134,1.207-4.846,1.865-7.864,1.781v-.794a8.075,8.075,0,1,1,16.15,0v.018Zm3.908,8.8a.8.8,0,0,1-.8.8H36.506a9.974,9.974,0,0,0,.639-1.99h.819a3.566,3.566,0,0,0,1.318-.252v1.441Zm.289-4.782a1.611,1.611,0,0,1-1.608,1.61h-.608c0-.025,0-4.266,0-4.266h.607a1.609,1.609,0,0,1,1.608,1.608v1.048ZM16.635,19.773a1.611,1.611,0,0,1-1.608-1.61V17.115a1.609,1.609,0,0,1,1.608-1.608h.607s0,4.241,0,4.266Zm.626-6.248h-.626a3.569,3.569,0,0,0-1.313.25,11.98,11.98,0,0,1,23.958,0,3.569,3.569,0,0,0-1.316-.251h-.626a10.057,10.057,0,0,0-20.077,0Zm2.023,7.139v0a8.12,8.12,0,0,1-.059-.961V16.9c3.391.083,5.414-.7,8.576-1.913.5-.192,1.013-.39,1.573-.6,1.872-.523,2.95.163,4.9,1.4.338.215.708.451,1.105.693V19.7a8.023,8.023,0,0,1-1.091,4.046H27.3a.991.991,0,0,0,0,1.982h5.365a8.067,8.067,0,0,1-13.38-5.064Zm3.038,16.219-1.715-3.342.2-.057c.7-.2,1.374-.4,2.006-.6l2.718,1.833Zm2.63,11.882L26.3,42.85h2l1.351,5.915Zm19.725,0H31.683L30.11,41.877l.917-3.447,1.07.722a1,1,0,0,0,1.436-.37l2.392-4.665A22.716,22.716,0,0,1,41.2,36.35a6.5,6.5,0,0,1,3.478,5.676v6.738Z" transform="translate(-7.941 0)"/>
        <path id="Trazado_151172" data-name="Trazado 151172" d="M49.357,57.839h-5a.991.991,0,0,0,0,1.982h5a.991.991,0,0,0,0-1.982Z" transform="translate(-16.535 -14.031)"/>
        <path id="Trazado_151173" data-name="Trazado 151173" d="M18.687,64.383a.991.991,0,0,0,0,1.982h0a.991.991,0,0,0,0-1.982Z" transform="translate(-10.307 -15.618)"/>
      </g>
    </g>
  </g>
</svg>
