<svg id="comentarios-de-los-clientes" xmlns="http://www.w3.org/2000/svg" width="136.606" height="136.606" viewBox="0 0 136.606 136.606">
  <g id="Grupo_1186101" data-name="Grupo 1186101" transform="translate(2.203 2.203)">
    <g id="Grupo_1186078" data-name="Grupo 1186078" transform="translate(89.058 110.166)">
      <path id="Trazado_997380" data-name="Trazado 997380" d="M68.463,52.132a22.578,22.578,0,0,1,17.1,21.9H45.9v-5.42A26.813,26.813,0,0,0,42.42,55.371l.815-.441a22.5,22.5,0,0,1,6.544-2.8L50.308,52l1.3,1.3a10.639,10.639,0,0,0,15.027,0l1.3-1.3Z" transform="translate(-42.42 -52)" fill="#b4dd7f"/>
    </g>
    <g id="Grupo_1186079" data-name="Grupo 1186079" transform="translate(39.66 104.283)">
      <path id="Trazado_997381" data-name="Trazado 997381" d="M72.88,71.826v5.42H20v-5.42A26.761,26.761,0,0,1,23.437,58.65,22.7,22.7,0,0,1,25.486,55.5a27.279,27.279,0,0,1,6.456-6.169l3.481,8.086,11.017-6.61,11.017,6.61,3.481-8.086a27.246,27.246,0,0,1,7.095,7.029A19.457,19.457,0,0,1,69.4,58.584,26.813,26.813,0,0,1,72.88,71.826Z" transform="translate(-20 -49.33)" fill="#75b1f2"/>
    </g>
    <g id="Grupo_1186080" data-name="Grupo 1186080" transform="translate(66.1 101.353)">
      <path id="Trazado_997382" data-name="Trazado 997382" d="M46.5,50.93l-3.481,8.086L32,52.407,40.813,48A28.272,28.272,0,0,1,46.5,50.93Z" transform="translate(-32 -48)" fill="#5d9cec"/>
    </g>
    <g id="Grupo_1186081" data-name="Grupo 1186081" transform="translate(51.602 101.353)">
      <path id="Trazado_997383" data-name="Trazado 997383" d="M39.918,52.407,28.9,59.017,25.42,50.93A28.272,28.272,0,0,1,31.1,48Z" transform="translate(-25.42 -48)" fill="#5d9cec"/>
    </g>
    <g id="Grupo_1186082" data-name="Grupo 1186082" transform="translate(26.44 110.166)">
      <path id="Trazado_997384" data-name="Trazado 997384" d="M30.657,55.437A26.761,26.761,0,0,0,27.22,68.613v5.42H14a22,22,0,0,0,8.373-13.22,22.474,22.474,0,0,0,.441-4.407V52l.529.132a22.586,22.586,0,0,1,7.293,3.283Z" transform="translate(-14 -52)" fill="#ff826e"/>
    </g>
    <g id="Grupo_1186083" data-name="Grupo 1186083" transform="translate(0 110.166)">
      <path id="Trazado_997385" data-name="Trazado 997385" d="M19.627,52v4.407a22.474,22.474,0,0,0,.441,4.407,22,22,0,0,0,8.373,13.22H2a22.607,22.607,0,0,1,17.1-21.9Z" transform="translate(-2 -52)" fill="#ff826e"/>
    </g>
    <g id="Grupo_1186084" data-name="Grupo 1186084" transform="translate(18.067 118.979)">
      <path id="Trazado_997386" data-name="Trazado 997386" d="M26.945,56a22,22,0,0,1-8.373,13.22A22,22,0,0,1,10.2,56Z" transform="translate(-10.2 -56)" fill="#e6e9ed"/>
    </g>
    <g id="Grupo_1186085" data-name="Grupo 1186085" transform="translate(44.066 52.88)">
      <path id="Trazado_997387" data-name="Trazado 997387" d="M65.868,39.33a13.992,13.992,0,0,1,.2,2.358A15.7,15.7,0,0,1,65.6,45.5l-1.19,4.759-.022.022a6.454,6.454,0,0,0-4.935-2.247h-2.2v-.088a6.507,6.507,0,0,0-6.522-6.522h-13.4a6.507,6.507,0,0,0-6.522,6.522v.088h-2.2a6.454,6.454,0,0,0-4.935,2.247l-.022-.022-1.388-5.574a6.545,6.545,0,0,1-.176-.947A7.3,7.3,0,0,1,22,42.525a8.814,8.814,0,0,1,1.344-4.671,8.964,8.964,0,0,1,3.591-3.3l3.878-1.939a9.67,9.67,0,0,1,3.525-4.781A9.534,9.534,0,0,1,39.979,26h10.4A15.665,15.665,0,0,1,65.868,39.33Z" transform="translate(-22 -26)" fill="#b27946"/>
    </g>
    <g id="Grupo_1186086" data-name="Grupo 1186086" transform="translate(86.458 57.286)">
      <path id="Trazado_997388" data-name="Trazado 997388" d="M70.809,30.49a5.775,5.775,0,0,1,.485-.551A6.594,6.594,0,0,1,75.964,28,10.983,10.983,0,0,1,86.981,39.017a15.331,15.331,0,0,1-4.517,10.906c-1.322,1.322-2.864,2.4-8.7,4.341l-2.2.176a15.358,15.358,0,0,1-13.925-8.813h-1.5a8.811,8.811,0,0,0-8.813,8.813h-2.2a6.478,6.478,0,0,0-2.842.639l.639-2.842a6.445,6.445,0,0,0-1.675-4.363l.022-.022,1.19-4.759a15.7,15.7,0,0,0,.463-3.812,13.992,13.992,0,0,0-.2-2.358h.022a11.714,11.714,0,0,1,4.583-2.313L48.533,33.4A18.42,18.42,0,0,1,70.809,30.49Z" transform="translate(-41.24 -28)" fill="#656d78"/>
    </g>
    <g id="Grupo_1186087" data-name="Grupo 1186087" transform="translate(4.407 61.693)">
      <path id="Trazado_997389" data-name="Trazado 997389" d="M42.668,81.888a22.587,22.587,0,0,0-7.293-3.283l-.529-.132-2.908-5.795a13.23,13.23,0,0,0,7.315-11.832V59.679A8.83,8.83,0,0,0,31.7,50.954,17.749,17.749,0,0,1,19.423,43.22a9.668,9.668,0,0,0-6.61,9.166v8.461a13.1,13.1,0,0,0,3.878,9.342l3.437,2.49L17.22,78.473l-.529.132a22.339,22.339,0,0,0-7.117,3.173A22.548,22.548,0,0,1,4,66.928V52.033a22.031,22.031,0,0,1,39.748-13.11,6.545,6.545,0,0,0,.176.947l1.388,5.574.022.022A6.559,6.559,0,0,0,45.6,54.5a6.252,6.252,0,0,0,2.468,1.542V66.928a22.69,22.69,0,0,1-3.349,11.832h.022A22.7,22.7,0,0,0,42.69,81.91Z" transform="translate(-4 -30)" fill="#656d78"/>
    </g>
    <g id="Grupo_1186088" data-name="Grupo 1186088" transform="translate(44.066 74.913)">
      <path id="Trazado_997390" data-name="Trazado 997390" d="M30.813,36V49.22h-2.2a6.107,6.107,0,0,1-2.2-.4,6.252,6.252,0,0,1-2.468-1.542,6.559,6.559,0,0,1-.264-9.034A6.454,6.454,0,0,1,28.61,36Z" transform="translate(-22 -36)" fill="#f0d0b4"/>
    </g>
    <g id="Grupo_1186089" data-name="Grupo 1186089" transform="translate(79.32 74.913)">
      <path id="Trazado_997391" data-name="Trazado 997391" d="M40.2,36a6.666,6.666,0,0,1,6.61,6.61l-.639,2.842-1.3,1.829A6.543,6.543,0,0,1,40.2,49.22H38V36Z" transform="translate(-38 -36)" fill="#f0d0b4"/>
    </g>
    <g id="Grupo_1186090" data-name="Grupo 1186090" transform="translate(118.979 83.726)">
      <path id="Trazado_997392" data-name="Trazado 997392" d="M58.2,40a6.61,6.61,0,0,1,0,13.22H56V40Z" transform="translate(-56 -40)" fill="#f0d0b4"/>
    </g>
    <g id="Grupo_1186091" data-name="Grupo 1186091" transform="translate(83.726 83.726)">
      <path id="Trazado_997393" data-name="Trazado 997393" d="M48.813,40V53.22h-2.2A6.62,6.62,0,0,1,40,46.61a6.478,6.478,0,0,1,.639-2.842,6.733,6.733,0,0,0,1.829-1.3l1.3-1.829A6.478,6.478,0,0,1,46.61,40Z" transform="translate(-40 -40)" fill="#f0d0b4"/>
    </g>
    <g id="Grupo_1186092" data-name="Grupo 1186092" transform="translate(96.946 105.296)">
      <path id="Trazado_997394" data-name="Trazado 997394" d="M59.22,50.253a8.472,8.472,0,0,0,2.8-.463v.022l1.608,4.847-1.3,1.3a10.639,10.639,0,0,1-15.027,0l-1.3-1.3,1.608-4.847V49.79a8.378,8.378,0,0,0,2.8.463Z" transform="translate(-46 -49.79)" fill="#f0d0b4"/>
    </g>
    <g id="Grupo_1186093" data-name="Grupo 1186093" transform="translate(92.54 74.913)">
      <path id="Trazado_997395" data-name="Trazado 997395" d="M70.44,44.813v13.22a8.8,8.8,0,0,1-6.015,8.351,8.472,8.472,0,0,1-2.8.463H52.813a8.378,8.378,0,0,1-2.8-.463A8.8,8.8,0,0,1,44,58.033V44.813A8.811,8.811,0,0,1,52.813,36h1.5a15.358,15.358,0,0,0,13.925,8.813l2.2-.176v.176Z" transform="translate(-44 -36)" fill="#f0d0b4"/>
    </g>
    <g id="Grupo_1186094" data-name="Grupo 1186094" transform="translate(57.286 96.483)">
      <path id="Trazado_997396" data-name="Trazado 997396" d="M45.627,50.659l-8.813,4.407L28,50.659l1.608-4.847V45.79a8.378,8.378,0,0,0,2.8.463H41.22a8.378,8.378,0,0,0,2.8-.463v.022Z" transform="translate(-28 -45.79)" fill="#f0d0b4"/>
    </g>
    <g id="Grupo_1186095" data-name="Grupo 1186095" transform="translate(17.627 104.371)">
      <path id="Trazado_997397" data-name="Trazado 997397" d="M27.627,55.165v4.407a22.474,22.474,0,0,1-.441,4.407H10.441A22.474,22.474,0,0,1,10,59.571V55.165l2.908-5.795a13.254,13.254,0,0,0,11.81,0Z" transform="translate(-10 -49.37)" fill="#f0d0b4"/>
    </g>
    <g id="Grupo_1186096" data-name="Grupo 1186096" transform="translate(52.88 68.303)">
      <path id="Trazado_997398" data-name="Trazado 997398" d="M52.44,39.61V52.83a8.8,8.8,0,0,1-6.015,8.351,8.378,8.378,0,0,1-2.8.463H34.813a8.378,8.378,0,0,1-2.8-.463A8.8,8.8,0,0,1,26,52.83V39.522A6.507,6.507,0,0,1,32.522,33h13.4a6.507,6.507,0,0,1,6.522,6.522Z" transform="translate(-26 -33)" fill="#f0d0b4"/>
    </g>
    <g id="Grupo_1186097" data-name="Grupo 1186097" transform="translate(13.22 74.913)">
      <path id="Trazado_997399" data-name="Trazado 997399" d="M34.44,52.459v1.168A13.226,13.226,0,0,1,15.315,65.458l-3.437-2.49A13.1,13.1,0,0,1,8,53.627V45.166A9.668,9.668,0,0,1,14.61,36a17.749,17.749,0,0,0,12.273,7.734,8.83,8.83,0,0,1,7.557,8.725Z" transform="translate(-8 -36)" fill="#f0d0b4"/>
    </g>
    <g id="Grupo_1186098" data-name="Grupo 1186098" transform="translate(105.759 22.033)">
      <path id="Trazado_997400" data-name="Trazado 997400" d="M76.44,12V38.44H50V12H76.44Z" transform="translate(-50 -12)" fill="#ffeaa7"/>
    </g>
    <g id="Grupo_1186099" data-name="Grupo 1186099" transform="translate(52.88)">
      <path id="Trazado_997401" data-name="Trazado 997401" d="M52.44,7.53V28.44H26V2H52.44Z" transform="translate(-26 -2)" fill="#ffeaa7"/>
    </g>
    <g id="Grupo_1186100" data-name="Grupo 1186100" transform="translate(0 26.44)">
      <path id="Trazado_997402" data-name="Trazado 997402" d="M28.44,14V40.44H2V14H28.44Z" transform="translate(-2 -14)" fill="#ffeaa7"/>
    </g>
  </g>
  <g id="Grupo_1186102" data-name="Grupo 1186102" transform="translate(0 0)">
    <path id="Trazado_997403" data-name="Trazado 997403" d="M137.606,42.627a13.233,13.233,0,0,0-13.22-13.22,8.723,8.723,0,0,0-5.561,2.034,20.489,20.489,0,0,0-23.432,4.012l-.8.8a13.682,13.682,0,0,0-2.053.813A17.911,17.911,0,0,0,75.642,25H65.253a11.85,11.85,0,0,0-10.924,7.227l-3.115,1.558a11.047,11.047,0,0,0-5.477,6.194A24.2,24.2,0,0,0,5.407,58.05V72.938a24.755,24.755,0,0,0,4.649,14.436A24.729,24.729,0,0,0,1,106.523v2.2H137.606v-2.2a24.746,24.746,0,0,0-18.12-23.869l-.63-1.89a11.01,11.01,0,0,0,5.306-7.293h.225a8.8,8.8,0,0,0,5.063-16,17.607,17.607,0,0,0,8.157-14.839ZM96.278,40.357l.593-.148,1.641-1.641a16.223,16.223,0,0,1,17.675-3.523,8.764,8.764,0,0,0,8.2,11.988V42.627a4.407,4.407,0,1,1,0-8.813,8.822,8.822,0,0,1,8.813,8.813,13.22,13.22,0,0,1-26.44,0h-4.407a17.564,17.564,0,0,0,.621,4.567,11.011,11.011,0,0,0-9.212,8.652H93.54a8.759,8.759,0,0,0-1.472-4.858L93,47.24A17.894,17.894,0,0,0,93.54,42.9c0-.427-.035-.844-.064-1.265a9.368,9.368,0,0,1,2.8-1.276Zm2.161,42.3a24.7,24.7,0,0,0-5.389,2.28A29.4,29.4,0,0,0,79.881,74L79.2,71.948A11.01,11.01,0,0,0,84.5,64.655h.225a8.822,8.822,0,0,0,8.813,8.813h.223a11.015,11.015,0,0,0,5.306,7.293ZM24.186,95.506H35.1a19.925,19.925,0,0,1-5.458,8.135,19.964,19.964,0,0,1-5.455-8.135ZM29.643,77.88A11.029,11.029,0,0,1,18.627,66.863V58.407a7.451,7.451,0,0,1,3.686-6.438,19.987,19.987,0,0,0,12.671,7.181,6.645,6.645,0,0,1,5.676,6.544v1.17A11.029,11.029,0,0,1,29.643,77.88Zm0,4.407a15.379,15.379,0,0,0,4.852-.793l1.758,3.516V88.9a19.811,19.811,0,0,1-.13,2.2H23.165a19.3,19.3,0,0,1-.132-2.2V85.01l1.758-3.516A15.379,15.379,0,0,0,29.643,82.286ZM40.66,88.9V87.462a20.3,20.3,0,0,1,2.772,1.269,29.178,29.178,0,0,0-2.772,12.38v3.208H35.1A24.351,24.351,0,0,0,40.66,88.9ZM53.88,60.253a4.407,4.407,0,1,1,0-8.813ZM54.1,64.66a11.015,11.015,0,0,0,5.306,7.293l-.685,2.056a28.948,28.948,0,0,0-5.182,2.833,24.578,24.578,0,0,0,.339-3.9V64.66ZM60.408,78.1l4.319,2.159-5.416,3.25-1.734-4.017A24.625,24.625,0,0,1,60.408,78.1Zm17.79,0a24.625,24.625,0,0,1,2.831,1.392L79.3,83.509l-5.416-3.25Zm-2.776-3.541L69.3,77.62l-6.119-3.058.405-1.218a11.119,11.119,0,0,0,1.307.13H73.71a10.667,10.667,0,0,0,1.307-.132ZM73.71,69.066H64.9a6.618,6.618,0,0,1-6.61-6.61V49.142A4.317,4.317,0,0,1,62.6,44.83H76.01a4.317,4.317,0,0,1,4.31,4.312V62.456A6.618,6.618,0,0,1,73.71,69.066ZM45.066,101.111A25.067,25.067,0,0,1,53.9,82.1l3.358,7.778L69.3,82.652l12.041,7.225L84.7,82.1a25.067,25.067,0,0,1,8.838,19.012v3.208H45.066ZM84.726,51.44a4.407,4.407,0,1,1,0,8.813Zm8.813,8.813v8.813a4.411,4.411,0,0,1-4.407-4.407,4.353,4.353,0,0,1,.24-1.357,8.853,8.853,0,0,0,2.811-2.811,4.39,4.39,0,0,1,1.355-.238ZM53.186,37.726l4.7-2.351.289-.866a7.454,7.454,0,0,1,7.079-5.1H75.642A13.489,13.489,0,0,1,88.73,46.169l-.412,1.646a8.737,8.737,0,0,0-3.591-.782H84.44a8.714,8.714,0,0,0-8.43-6.61H62.6a8.712,8.712,0,0,0-8.43,6.61H53.88a8.7,8.7,0,0,0-3.591.784l-.615-2.459a6.711,6.711,0,0,1,3.512-7.632ZM9.813,72.938V58.05a19.854,19.854,0,0,1,19.83-19.83,19.652,19.652,0,0,1,15.661,7.7c.035.17.053.344.095.511l1.139,4.559a8.745,8.745,0,0,0,2.935,12.449V72.94a20.38,20.38,0,0,1-3.03,10.69l.031.02c-.3.41-.608.82-.89,1.245a24.807,24.807,0,0,0-5.607-2.289l-1.542-3.085a15.415,15.415,0,0,0,6.632-12.658v-1.17A11.071,11.071,0,0,0,35.61,54.787a15.571,15.571,0,0,1-10.741-6.773l-.934-1.4-1.6.533A11.856,11.856,0,0,0,14.22,58.407v8.456a15.408,15.408,0,0,0,6.632,12.656L19.31,82.6a24.9,24.9,0,0,0-5.621,2.287A20.371,20.371,0,0,1,9.813,72.938ZM18.627,87.5v1.4a24.351,24.351,0,0,0,5.559,15.423H5.526A20.3,20.3,0,0,1,18.627,87.5ZM133.08,104.319H97.946v-3.208a29.178,29.178,0,0,0-2.75-12.33,20.253,20.253,0,0,1,4.321-1.807l.366.366a12.843,12.843,0,0,0,18.16,0l.366-.366a20.309,20.309,0,0,1,14.672,17.347ZM115.256,83.895l-.328.328a8.639,8.639,0,0,1-11.929,0l-.328-.328.579-1.741a10.667,10.667,0,0,0,1.307.132h8.813a10.666,10.666,0,0,0,1.307-.132Zm4.724-12.625a6.618,6.618,0,0,1-6.61,6.61h-8.813a6.618,6.618,0,0,1-6.61-6.61V58.05a6.618,6.618,0,0,1,6.61-6.61h.181a17.623,17.623,0,0,0,15.243,8.813Zm4.407-2.2V60.253a4.407,4.407,0,1,1,0,8.813Z" transform="translate(-1 27.88)"/>
    <path id="Trazado_997404" data-name="Trazado 997404" d="M119.127,23.033a79.2,79.2,0,0,0-34.4-16.089V1H53.88V6.956a78.76,78.76,0,0,0-39.4,20.484H1V58.286H31.847V27.44H21.03A74.259,74.259,0,0,1,53.88,11.457V31.846H84.726v-20.4a74.686,74.686,0,0,1,27.019,11.589h-4.986V53.88h30.847V23.033ZM5.407,53.88V31.846h19.38l-10.675,12.2-2.741-2.741L8.256,44.421l6.072,6.072L27.44,35.506V53.88Zm52.88-26.44V5.407h19.38l-10.675,12.2-2.741-2.741-3.115,3.115,6.072,6.072L80.32,9.066V27.44Zm52.88,22.033V27.44h19.38l-10.675,12.2L117.131,36.9l-3.116,3.115,6.072,6.072L133.2,31.1V49.473Z" transform="translate(-1 -1)"/>
    <path id="Trazado_997405" data-name="Trazado 997405" d="M31,19h4.407v4.407H31Z" transform="translate(35.1 20.66)"/>
    <path id="Trazado_997406" data-name="Trazado 997406" d="M35,19h4.407v4.407H35Z" transform="translate(39.913 20.66)"/>
    <path id="Trazado_997407" data-name="Trazado 997407" d="M27,19h4.407v4.407H27Z" transform="translate(30.286 20.66)"/>
  </g>
</svg>
