<svg id="XMLID_72_" xmlns="http://www.w3.org/2000/svg" width="139.59" height="123.325" viewBox="0 0 139.59 123.325">
  <g id="XMLID_428_" transform="translate(2.045 2.045)">
    <path id="XMLID_885_" d="M332.924,324.319a3.672,3.672,0,0,1-3.141,5.57H273.028a3.661,3.661,0,0,1-3.141-5.57l1.6-2.653,26.775-44.28a3.671,3.671,0,0,1,6.082-.294,3.27,3.27,0,0,1,.2.294Z" transform="translate(-197.963 -210.653)" fill="#feef8f"/>
    <path id="XMLID_901_" d="M276.187,324.436l28.422-46.946-.063-.1a3.274,3.274,0,0,0-.2-.294,3.671,3.671,0,0,0-6.082.294l-26.775,44.28-1.6,2.653a3.661,3.661,0,0,0,3.141,5.57h56.755a3.67,3.67,0,0,0,3.206-5.453Z" transform="translate(-197.963 -210.653)" fill="#fcad42"/>
    <path id="XMLID_884_" d="M81.027,375.341l-1.6,2.653a3.655,3.655,0,0,0-.537,1.919H22.74A15.241,15.241,0,0,1,7.5,364.673V349.409H76.663v15.264A15.171,15.171,0,0,0,81.027,375.341Z" transform="translate(-7.5 -264.328)" fill="#bcbcc0"/>
    <path id="XMLID_181_" d="M12.953,364.674v-9.812h63.71V349.41H7.5v15.264a15.241,15.241,0,0,0,15.24,15.24h8.615C21,379.914,12.953,370.071,12.953,364.674Z" transform="translate(-7.5 -264.329)" fill="#69676c"/>
    <path id="XMLID_883_" d="M170.721,37.329v66.439a3.671,3.671,0,0,0-6.082.294l-26.775,44.28a15.171,15.171,0,0,1-4.365-10.668V122.41H85.64V37.329Z" transform="translate(-64.337 -37.329)" fill="#fff"/>
    <path id="XMLID_722_" d="M91.093,42.782h79.629V37.329H85.64V122.41h5.453Z" transform="translate(-64.337 -37.329)" fill="#bcbcc0"/>
  </g>
  <g id="XMLID_1244_" transform="translate(0 0)">
    <path id="XMLID_1247_" d="M138.756,144.482,110.474,97.708V29.829H21.3V46.508h4.089V33.918h80.992V94.864a5.769,5.769,0,0,0-1.169-.066,5.7,5.7,0,0,0-4.618,2.75L75.334,139.329a13.092,13.092,0,0,1-2.082-7.111V114.91H25.392v-64.3H21.3v64.3H0v17.309A17.3,17.3,0,0,0,17.285,149.5H53.469v-4.089H17.285a13.21,13.21,0,0,1-13.2-13.2V119H69.163v13.219a17.146,17.146,0,0,0,3.879,10.9l-.821,1.358a5.783,5.783,0,0,0-.454.935H57.524V149.5H71.783a5.737,5.737,0,0,0,5.326,3.65h56.755a5.716,5.716,0,0,0,4.89-8.672Zm-3.476,3.756a1.594,1.594,0,0,1-1.414.827H77.11a1.637,1.637,0,0,1-1.633-1.615,1.607,1.607,0,0,1,.242-.853L104.1,99.664a1.6,1.6,0,0,1,1.309-.78l.074,0a1.594,1.594,0,0,1,1.3.646l.018.024a1.285,1.285,0,0,1,.076.113L135.256,146.6a1.6,1.6,0,0,1,.024,1.64Z" transform="translate(0 -29.829)"/>
    <path id="XMLID_1248_" d="M379.43,334.379h4.089V355.09H379.43Z" transform="translate(-275.987 -251.351)"/>
    <path id="XMLID_1249_" d="M379.43,425.409h4.089v4.073H379.43Z" transform="translate(-275.987 -317.564)"/>
    <path id="XMLID_1250_" d="M136.12,83.509h4.057V87.6H136.12Z" transform="translate(-99.01 -68.874)"/>
    <path id="XMLID_1251_" d="M166.13,83.509h49.037V87.6H166.13Z" transform="translate(-120.838 -68.874)"/>
    <path id="XMLID_1252_" d="M136.12,128.569h49.04v4.089H136.12Z" transform="translate(-99.01 -101.65)"/>
    <path id="XMLID_1253_" d="M331,128.569h4.089v4.089H331Z" transform="translate(-240.76 -101.65)"/>
    <path id="XMLID_1254_" d="M136.12,173.639h57.219v4.089H136.12Z" transform="translate(-99.01 -134.433)"/>
    <path id="XMLID_1255_" d="M136.12,218.7h4.057v4.089H136.12Z" transform="translate(-99.01 -167.208)"/>
    <path id="XMLID_1256_" d="M166.13,218.7h49.037v4.089H166.13Z" transform="translate(-120.838 -167.208)"/>
    <path id="XMLID_1257_" d="M331,263.759h4.089v4.089H331Z" transform="translate(-240.76 -199.984)"/>
    <path id="XMLID_1258_" d="M301,263.759h4.089v4.089H301Z" transform="translate(-218.939 -199.984)"/>
    <path id="XMLID_1259_" d="M271,263.759h4.089v4.089H271Z" transform="translate(-197.118 -199.984)"/>
    <path id="XMLID_1261_" d="M136.12,263.759H168.8v4.089H136.12Z" transform="translate(-99.01 -199.984)"/>
  </g>
</svg>
