<svg xmlns="http://www.w3.org/2000/svg" xmlns:xlink="http://www.w3.org/1999/xlink" width="103" height="103" viewBox="0 0 103 103">
  <defs>
    <filter id="Elipse_13737" x="0" y="0" width="103" height="103" filterUnits="userSpaceOnUse">
      <feOffset dy="3" input="SourceAlpha"/>
      <feGaussianBlur stdDeviation="3" result="blur"/>
      <feFlood flood-opacity="0.161"/>
      <feComposite operator="in" in2="blur"/>
      <feComposite in="SourceGraphic"/>
    </filter>
  </defs>
  <g id="Grupo_1186121" data-name="Grupo 1186121" transform="translate(-281.652 -10556)">
    <g id="Grupo_1185634" data-name="Grupo 1185634" transform="translate(290.652 10562)">
      <g transform="matrix(1, 0, 0, 1, -9, -6)" filter="url(#Elipse_13737)">
        <circle id="Elipse_13737-2" data-name="Elipse 13737" cx="42.5" cy="42.5" r="42.5" transform="translate(9 6)" fill="#fff"/>
      </g>
    </g>
    <g id="puntualidad" transform="translate(312.102 10578.834)">
      <g id="Grupo_1186117" data-name="Grupo 1186117" transform="translate(0.737 0.737)">
        <g id="Grupo_1186114" data-name="Grupo 1186114" transform="translate(0 37.062)">
          <path id="Trazado_997485" data-name="Trazado 997485" d="M199.513,390.4v2.949a2.949,2.949,0,0,1-2.949,2.949H180.021c-3.693-.479-8.471-2.466-8.471-4.715,0-2.7,2.4-7.082,2.4-7.082h19.661A5.9,5.9,0,0,1,199.513,390.4Z" transform="translate(-160.191 -384.5)" fill="#7fb0e4"/>
          <g id="Grupo_1186113" data-name="Grupo 1186113">
            <path id="Trazado_997486" data-name="Trazado 997486" d="M77.141,386.69a4.893,4.893,0,0,0-1.31,9.607H58.949A2.949,2.949,0,0,1,56,393.348V390.4a5.9,5.9,0,0,1,5.9-5.9h7.865C73.021,384.5,79.842,386.69,77.141,386.69Z" transform="translate(-56 -384.5)" fill="#68a2df"/>
          </g>
        </g>
        <path id="Trazado_997487" data-name="Trazado 997487" d="M315.371,73.391l8.342,8.342,2.085-2.085a5.9,5.9,0,0,0-8.342-8.342Z" transform="translate(-289.873 -63.475)" fill="#f8ea69"/>
        <path id="Trazado_997488" data-name="Trazado 997488" d="M85.144,73.391,76.8,81.732l-2.085-2.085a5.9,5.9,0,0,1,8.342-8.342Z" transform="translate(-71.32 -63.475)" fill="#f6ca56"/>
        <path id="Trazado_997489" data-name="Trazado 997489" d="M236,31h3.932V44.76H236Z" transform="translate(-218.305 -28.687)" fill="#ffb25a"/>
        <path id="Trazado_997490" data-name="Trazado 997490" d="M206,9.22a1.72,1.72,0,0,1,1.72-1.72h6.39a1.72,1.72,0,1,1,0,3.441h-6.39A1.72,1.72,0,0,1,206,9.22Z" transform="translate(-191.254 -7.5)" fill="#f8ea69"/>
        <g id="Grupo_1186116" data-name="Grupo 1186116" transform="translate(2.458 6.39)">
          <ellipse id="Elipse_13762" data-name="Elipse 13762" cx="14.746" cy="14.746" rx="14.746" ry="14.746" transform="translate(2.458 2.458)" fill="#fff8e6"/>
          <path id="Trazado_997491" data-name="Trazado 997491" d="M128.443,125.159a14.747,14.747,0,1,1-8.737-27.289,17.076,17.076,0,0,0,8.737,27.289Z" transform="translate(-103.542 -95.376)" fill="#ffeab7"/>
          <path id="Trazado_997492" data-name="Trazado 997492" d="M236.155,73.08c-3.033.964-3.972,2.4-3.667,4.129h0a13.213,13.213,0,0,1,7.982,24.928c.64,2.049,2.56,2.33,5.384,1.229a17.2,17.2,0,0,0-9.7-30.286Z" transform="translate(-217.547 -73.023)" fill="#fd7a6e"/>
          <path id="Trazado_997493" data-name="Trazado 997493" d="M103.924,101.614h0a13.212,13.212,0,1,1-7.982-24.929,17.117,17.117,0,0,1,3.667-4.129q-.695-.058-1.4-.057a17.2,17.2,0,1,0,11.1,30.343A16.964,16.964,0,0,1,103.924,101.614Z" transform="translate(-81 -72.5)" fill="#fb695b"/>
          <g id="Grupo_1186115" data-name="Grupo 1186115" transform="translate(10.59 11.756)">
            <path id="Trazado_997494" data-name="Trazado 997494" d="M220.041,195.026l-7.094,7.094a2.945,2.945,0,0,1-3.253.622c-1.725-1.914-2.9-4.094-2.426-6.47a1.7,1.7,0,0,1,1.018.492l2.229,2.229a.492.492,0,0,0,.7,0l6.4-6.4a1.72,1.72,0,1,1,2.432,2.432Z" transform="translate(-205.35 -192.09)" fill="#9cda82"/>
            <path id="Trazado_997495" data-name="Trazado 997495" d="M193.064,241a2.905,2.905,0,0,1-.918-.622l-2.923-2.923a1.72,1.72,0,0,1,1.415-2.925A16.943,16.943,0,0,0,193.064,241Z" transform="translate(-188.72 -230.35)" fill="#7dce5c"/>
          </g>
        </g>
      </g>
      <g id="Grupo_1186119" data-name="Grupo 1186119" transform="translate(0)">
        <path id="Trazado_997496" data-name="Trazado 997496" d="M82.662,37.062H81.528a17.916,17.916,0,0,0,4-19.471l.16-.16a6.636,6.636,0,0,0-9.346-9.423A18.032,18.032,0,0,0,71.6,6.6V4.915h.492a2.458,2.458,0,1,0,0-4.915H65.7a2.458,2.458,0,1,0,0,4.915H66.2V6.593a17.794,17.794,0,0,0-4.737,1.413,6.642,6.642,0,0,0-7.784-1.12.737.737,0,1,0,.7,1.3,5.169,5.169,0,0,1,5.682.54,18.07,18.07,0,0,0-7.12,7.425,5.132,5.132,0,0,1-.689-5.833.737.737,0,1,0-1.3-.691,6.6,6.6,0,0,0,1.171,7.8l.159.159a17.923,17.923,0,0,0,4,19.473H55.136A6.643,6.643,0,0,0,48.5,43.7v2.949a3.691,3.691,0,0,0,3.687,3.686H85.611A3.691,3.691,0,0,0,89.3,46.646V43.7A6.643,6.643,0,0,0,82.662,37.062ZM65.7,3.441a.983.983,0,0,1,0-1.966h6.39a.983.983,0,0,1,0,1.966Zm4.424,1.475V6.432Q69.515,6.39,68.9,6.39t-1.229.042V4.915Zm-17.7,19.416a16.467,16.467,0,0,1,26.8-12.819.737.737,0,1,0,.926-1.147,17.784,17.784,0,0,0-2.414-1.641,5.161,5.161,0,0,1,7.118,7.425,17.864,17.864,0,0,0-2.15-3.265.737.737,0,1,0-1.135.941A16.467,16.467,0,1,1,52.432,24.331Zm35.39,22.316a2.214,2.214,0,0,1-2.212,2.212H52.186a2.214,2.214,0,0,1-2.212-2.212V43.7a5.167,5.167,0,0,1,5.161-5.161h2.816a17.907,17.907,0,0,0,21.893,0h2.816A5.167,5.167,0,0,1,87.823,43.7Z" transform="translate(-48.5)"/>
        <path id="Trazado_997497" data-name="Trazado 997497" d="M128.072,105.625a13.947,13.947,0,1,0,13.947,13.947A13.963,13.963,0,0,0,128.072,105.625Zm9.321,22.226-.463-.463a.737.737,0,1,0-1.043,1.043l.463.463a12.423,12.423,0,0,1-7.541,3.13V130.14a.737.737,0,0,0-1.475,0v1.883a12.424,12.424,0,0,1-7.541-3.13l.463-.463a.737.737,0,0,0-1.043-1.043l-.463.463a12.423,12.423,0,0,1-3.13-7.541H117.5a.737.737,0,0,0,0-1.475h-1.883a12.423,12.423,0,0,1,3.13-7.541l.463.463a.737.737,0,0,0,1.043-1.043l-.463-.463a12.423,12.423,0,0,1,7.541-3.13V109a.737.737,0,1,0,1.475,0v-1.883a12.423,12.423,0,0,1,7.541,3.13l-.463.463a.737.737,0,0,0,1.043,1.043l.463-.463a12.423,12.423,0,0,1,3.13,7.541H138.64a.737.737,0,1,0,0,1.475h1.883A12.423,12.423,0,0,1,137.394,127.851Z" transform="translate(-107.674 -95.241)"/>
        <g id="Grupo_1186118" data-name="Grupo 1186118" transform="translate(13.522 43.634)">
          <path id="Trazado_997498" data-name="Trazado 997498" d="M186.789,446.51a.737.737,0,0,1-.737-.737v-1.18a.737.737,0,0,1,1.475,0v1.18A.737.737,0,0,1,186.789,446.51Z" transform="translate(-186.052 -443.856)"/>
          <path id="Trazado_997499" data-name="Trazado 997499" d="M311.685,446.51a.737.737,0,0,1-.737-.737v-1.18a.737.737,0,1,1,1.475,0v1.18A.737.737,0,0,1,311.685,446.51Z" transform="translate(-298.67 -443.856)"/>
          <path id="Trazado_997500" data-name="Trazado 997500" d="M234.392,457.711a2.884,2.884,0,0,1-2.174-.99.737.737,0,1,1,1.112-.969,1.408,1.408,0,0,0,2.125,0,.737.737,0,1,1,1.112.969A2.884,2.884,0,0,1,234.392,457.711Z" transform="translate(-227.515 -454.355)"/>
        </g>
        <path id="Trazado_997501" data-name="Trazado 997501" d="M187.469,196.958a3.676,3.676,0,0,1-2.607-1.078l-2.923-2.923a2.458,2.458,0,0,1,3.476-3.476l2.055,2.055,1.559-1.559a.737.737,0,1,1,1.042,1.043l-1.733,1.732a1.23,1.23,0,0,1-1.738,0l-2.229-2.229a.983.983,0,0,0-1.678.7.973.973,0,0,0,.287.694l2.923,2.923a2.215,2.215,0,0,0,3.128,0l7.094-7.094a.982.982,0,1,0-1.389-1.389l-2.232,2.233a.737.737,0,0,1-1.043-1.042l2.233-2.234a2.457,2.457,0,1,1,3.475,3.475l-7.094,7.094A3.675,3.675,0,0,1,187.469,196.958Z" transform="translate(-168.173 -166.444)"/>
      </g>
    </g>
  </g>
</svg>
