<svg xmlns="http://www.w3.org/2000/svg" xmlns:xlink="http://www.w3.org/1999/xlink" width="103" height="103" viewBox="0 0 103 103">
  <defs>
    <filter id="Elipse_13737" x="0" y="0" width="103" height="103" filterUnits="userSpaceOnUse">
      <feOffset dy="3" input="SourceAlpha"/>
      <feGaussianBlur stdDeviation="3" result="blur"/>
      <feFlood flood-opacity="0.161"/>
      <feComposite operator="in" in2="blur"/>
      <feComposite in="SourceGraphic"/>
    </filter>
  </defs>
  <g id="Grupo_1186778" data-name="Grupo 1186778" transform="translate(-282 -2871)">
    <g id="Grupo_1185634" data-name="Grupo 1185634" transform="translate(291 2877)">
      <g transform="matrix(1, 0, 0, 1, -9, -6)" filter="url(#Elipse_13737)">
        <circle id="Elipse_13737-2" data-name="Elipse 13737" cx="42.5" cy="42.5" r="42.5" transform="translate(9 6)" fill="#fff"/>
      </g>
    </g>
    <g id="estadisticas" transform="translate(308.179 2901.009)">
      <g id="Grupo_100662" data-name="Grupo 100662" transform="translate(0.677 2.709)">
        <path id="Trazado_151287" data-name="Trazado 151287" d="M15.677,14.322a1.355,1.355,0,1,1-1.355-1.355A1.355,1.355,0,0,1,15.677,14.322Zm0,0" transform="translate(-5.518 -7.55)" fill="#ff826e"/>
        <path id="Trazado_151288" data-name="Trazado 151288" d="M3.79,14.322a1.355,1.355,0,1,1-1.355-1.355A1.355,1.355,0,0,1,3.79,14.322Zm0,0" transform="translate(-1.081 -7.55)" fill="#ff826e"/>
        <path id="Trazado_151289" data-name="Trazado 151289" d="M29.725,5.677a1.355,1.355,0,1,1-1.355-1.355A1.355,1.355,0,0,1,29.725,5.677Zm0,0" transform="translate(-10.762 -4.323)" fill="#ff826e"/>
        <path id="Trazado_151290" data-name="Trazado 151290" d="M35.755,21.965a1.331,1.331,0,0,1,.454,1,1.355,1.355,0,1,1-1.355-1.355,1.306,1.306,0,0,1,.9.352Zm0,0" transform="translate(-13.182 -10.776)" fill="#ff826e"/>
        <path id="Trazado_151291" data-name="Trazado 151291" d="M45.535,11.206a1.326,1.326,0,0,1,.4.955,1.358,1.358,0,0,1-1.355,1.355,1.306,1.306,0,0,1-.9-.352,1.331,1.331,0,0,1-.454-1,1.358,1.358,0,0,1,1.355-1.355,1.326,1.326,0,0,1,.955.4Zm0,0" transform="translate(-16.812 -6.743)" fill="#ff826e"/>
      </g>
      <path id="Trazado_151292" data-name="Trazado 151292" d="M46.955,25.935v7.8A9.359,9.359,0,0,0,44.144,32.4l.1-.366v-6.1Zm0,0" transform="translate(-16.478 -9.681)" fill="#ffeaa7"/>
      <path id="Trazado_151293" data-name="Trazado 151293" d="M38.37,31.339v2.709a9.429,9.429,0,0,0-2.709.393v-3.1Zm0,0" transform="translate(-13.311 -11.698)" fill="#ffeaa7"/>
      <path id="Trazado_151294" data-name="Trazado 151294" d="M55.661,20.532V39.5H54.306a9.426,9.426,0,0,0-1.355-4.883V20.532Zm0,0" transform="translate(-19.765 -7.664)" fill="#ffeaa7"/>
      <path id="Trazado_151295" data-name="Trazado 151295" d="M61.6,11.887h2.709V36.269H61.6Zm0,0" transform="translate(-22.992 -4.437)" fill="#ffeaa7"/>
      <path id="Trazado_151296" data-name="Trazado 151296" d="M19.807,33.9a9.542,9.542,0,0,0-2.472,2.736l-.02-.014q.02-.264.02-.528A6.1,6.1,0,1,0,16.15,39.7a9.968,9.968,0,0,0-.169,1.808,9.449,9.449,0,0,0,.413,2.784l-.785-.562a8.6,8.6,0,0,1-2.059.847l-.278,1.673H9.208L8.93,44.581a8.6,8.6,0,0,1-2.059-.847l-1.382.982L2.618,41.845,3.6,40.463A8.6,8.6,0,0,1,2.754,38.4l-1.673-.278V34.063l1.673-.278A8.6,8.6,0,0,1,3.6,31.726l-.982-1.382L5.49,27.473l1.382.982a8.6,8.6,0,0,1,2.059-.847l.278-1.673h4.064l.278,1.673a8.6,8.6,0,0,1,2.059.847l1.382-.982,2.871,2.871-.982,1.382a8.6,8.6,0,0,1,.847,2.059Zm0,0" transform="translate(-0.403 -9.681)" fill="#ffc729"/>
      <path id="Trazado_151297" data-name="Trazado 151297" d="M19.755,38.515q0,.264-.02.528l.02.014a9.284,9.284,0,0,0-1.179,3.061l-.007.007a6.094,6.094,0,1,1,1.185-3.61Zm-2.709,0A3.386,3.386,0,1,0,13.66,41.9,3.388,3.388,0,0,0,17.046,38.515Zm0,0" transform="translate(-2.824 -12.101)" fill="#fcd770"/>
      <path id="Trazado_151298" data-name="Trazado 151298" d="M42.464,40.26a9.486,9.486,0,1,1-17.609,4.883,9.968,9.968,0,0,1,.169-1.808l.007-.007a9.284,9.284,0,0,1,1.179-3.061,9.451,9.451,0,0,1,5.418-4.212A9.507,9.507,0,0,1,42.464,40.26Zm0,0" transform="translate(-9.278 -13.311)" fill="#b4dd7f"/>
      <path id="Trazado_151299" data-name="Trazado 151299" d="M42.723,46.757a6.773,6.773,0,1,1-6.773-6.773A6.773,6.773,0,0,1,42.723,46.757Zm0,0" transform="translate(-10.891 -14.925)" fill="#e6e9ed"/>
      <path id="Trazado_151300" data-name="Trazado 151300" d="M18.215,39.32a2.705,2.705,0,0,1-3.749,3.75L13.718,44.2a4.06,4.06,0,0,0,5.627-5.628Zm0,0" transform="translate(-5.12 -14.397)"/>
      <path id="Trazado_151301" data-name="Trazado 151301" d="M14.87,37.016a2.692,2.692,0,0,1,1.491.45l.748-1.129a4.06,4.06,0,0,0-5.627,5.628l1.13-.748a2.705,2.705,0,0,1,2.258-4.2Zm0,0" transform="translate(-4.034 -13.311)"/>
      <path id="Trazado_151302" data-name="Trazado 151302" d="M38.9,45.387v4.064h2.709V48.1H40.258V45.387Zm0,0" transform="translate(-14.521 -16.941)"/>
      <path id="Trazado_151303" data-name="Trazado 151303" d="M37.176,38.9a7.464,7.464,0,0,0-4.714,1.682l.859,1.049A6.1,6.1,0,0,1,36.5,40.3v1.312h1.355V40.3a6.1,6.1,0,0,1,5.378,5.378H41.917V47.03h1.312A6.1,6.1,0,0,1,41.9,50.209l1.048.858A7.449,7.449,0,0,0,37.176,38.9Zm0,0" transform="translate(-12.117 -14.521)"/>
      <path id="Trazado_151304" data-name="Trazado 151304" d="M36.224,54.035V52.723H34.869v1.315a6.1,6.1,0,0,1-5.378-5.378h1.315V47.305H29.494a6.1,6.1,0,0,1,1.334-3.179l-1.048-.858A7.449,7.449,0,0,0,40.261,53.75L39.4,52.7A6.1,6.1,0,0,1,36.224,54.035Zm0,0" transform="translate(-10.488 -16.151)"/>
      <path id="Trazado_151305" data-name="Trazado 151305" d="M37.927,35.188H36.573V16.225H32.509V28.982a10.214,10.214,0,0,0-1.355-1.225V19.611H27.091v6.3a10.189,10.189,0,0,0-1.355-.171V23H21.673v3.3a10.108,10.108,0,0,0-1.935.929,9.366,9.366,0,0,0-.468-1.1l1.071-1.5-3.684-3.685-1.5,1.071a9.432,9.432,0,0,0-1.411-.582l-.3-1.82H8.231l-.3,1.82a9.432,9.432,0,0,0-1.411.582l-1.5-1.071L1.333,24.627l1.071,1.5a9.308,9.308,0,0,0-.583,1.411L0,27.842v5.211l1.82.3A9.377,9.377,0,0,0,2.4,34.768l-1.071,1.5,3.684,3.685,1.5-1.071a9.431,9.431,0,0,0,1.411.582l.3,1.821h5.212l.3-1.82a9.432,9.432,0,0,0,1.411-.582l.271.193a10.148,10.148,0,0,0,19.757-2.532h6.807V10.807H37.927ZM33.864,17.579h1.355V35.188h-.034a10.081,10.081,0,0,0-1.32-4.369Zm-5.418,3.386H29.8v5.922a10.075,10.075,0,0,0-1.355-.588Zm-5.418,3.386h1.355v1.389a10.134,10.134,0,0,0-1.355.171ZM14.87,37.5a8.059,8.059,0,0,1-1.9.785l-.419.114-.256,1.534H9.378L9.122,38.4,8.7,38.281A8.07,8.07,0,0,1,6.8,37.5l-.377-.216-1.263.9L3.1,36.122,4,34.857l-.216-.377A8.052,8.052,0,0,1,3,32.58l-.113-.419-1.534-.255V28.989l1.534-.255L3,28.315a8.068,8.068,0,0,1,.785-1.9L4,26.038l-.9-1.264,2.062-2.062,1.263.9L6.8,23.4a8.059,8.059,0,0,1,1.9-.785l.419-.114.256-1.534h2.915L12.55,22.5l.419.114a8.07,8.07,0,0,1,1.9.785l.377.216,1.263-.9,2.062,2.062-.9,1.264.216.377a8.056,8.056,0,0,1,.694,1.633,10.279,10.279,0,0,0-1.1,1.078A6.8,6.8,0,1,0,14.9,35.847c0,.006,0,.012,0,.018a10.137,10.137,0,0,0,.129,1.539Zm1.368-6.65a10.106,10.106,0,0,0-1.113,2.9,5.411,5.411,0,1,1,1.13-3.3c0,.135-.008.267-.017.4ZM25.059,44.67a8.8,8.8,0,1,1,8.8-8.8A8.815,8.815,0,0,1,25.059,44.67ZM39.282,12.161h1.355V35.188H39.282Zm0,0" transform="translate(0 -4.034)"/>
      <path id="Trazado_151306" data-name="Trazado 151306" d="M37.927,0V1.355h1.455L34.591,5.188,32.509,3.106,29.316,6.3a2,2,0,0,0-.87-.2,2.034,2.034,0,0,0-2.032,2.032,2.008,2.008,0,0,0,.254.963l-3.54,3.934a2.021,2.021,0,0,0-.777-.156c-.013,0-.024,0-.037,0L19.589,5.609A2.028,2.028,0,1,0,16.3,4.49L10.749,7.906a2.009,2.009,0,0,0-3.174.9H3.939a2.032,2.032,0,1,0,0,1.355H7.575a2.027,2.027,0,0,0,3.892-1.1L17.02,5.639a2.007,2.007,0,0,0,1.267.456c.013,0,.024,0,.037,0l2.723,7.262a2.036,2.036,0,1,0,3.081.583L27.668,10a2.03,2.03,0,0,0,2.809-1.876,2,2,0,0,0-.2-.87l2.236-2.236L34.491,7l6.146-4.916V4.064h1.355V0ZM2.032,10.159a.677.677,0,1,1,.677-.677A.678.678,0,0,1,2.032,10.159Zm7.45,0a.677.677,0,1,1,.677-.677A.678.678,0,0,1,9.482,10.159Zm8.127-6.1a.677.677,0,1,1,.677.677A.678.678,0,0,1,17.609,4.064ZM22.35,15.577a.677.677,0,1,1,.677-.677A.678.678,0,0,1,22.35,15.577Zm6.1-6.773a.677.677,0,1,1,.677-.677A.678.678,0,0,1,28.445,8.8Zm0,0" transform="translate(0)"/>
    </g>
  </g>
</svg>
