<svg xmlns="http://www.w3.org/2000/svg" width="109.746" height="110" viewBox="0 0 109.746 110">
  <g id="servicio-al-cliente_1_" data-name="servicio-al-cliente (1)" transform="translate(-0.127)">
    <path id="Trazado_151408" data-name="Trazado 151408" d="M33.583,53.226V40.806a21.291,21.291,0,0,1,21.29-21.29h0a21.291,21.291,0,0,1,21.29,21.29V53.226Z" fill="#d3a06c"/>
    <path id="Trazado_151409" data-name="Trazado 151409" d="M54.873,19.516c-.6,0-1.187.041-1.774.089a21.283,21.283,0,0,1,19.516,21.2V53.226h3.548V40.806A21.291,21.291,0,0,0,54.873,19.516Z" fill="#b27946"/>
    <path id="Trazado_151410" data-name="Trazado 151410" d="M47.776,94.032H86.809l-3.33-9.989a10.647,10.647,0,0,0-8.195-7.107L61.97,74.516H47.776l-13.315,2.42a10.646,10.646,0,0,0-8.195,7.107l-1.554,7.063v2.926Z" fill="#92e0c0"/>
    <g id="Grupo_100683" data-name="Grupo 100683">
      <path id="Trazado_151411" data-name="Trazado 151411" d="M47.776,69.194v5.323l7.1,7.1,7.1-7.1V69.194Z" fill="#f9e0a6"/>
      <path id="Trazado_151412" data-name="Trazado 151412" d="M69.067,47.9h1.774a5.322,5.322,0,0,1,5.323,5.323h0a5.322,5.322,0,0,1-5.323,5.323H69.067Z" fill="#f9e0a6"/>
      <path id="Trazado_151413" data-name="Trazado 151413" d="M40.68,47.9H38.905a5.322,5.322,0,0,0-5.323,5.323h0a5.322,5.322,0,0,0,5.323,5.323H40.68Z" fill="#f9e0a6"/>
      <path id="Trazado_151414" data-name="Trazado 151414" d="M38.905,46.129V56.774A15.967,15.967,0,0,0,54.873,72.742h0A15.967,15.967,0,0,0,70.841,56.774V46.129h0A21.419,21.419,0,0,1,55.7,39.855l-.823-.823-.823.823a21.419,21.419,0,0,1-15.145,6.274Z" fill="#f9e0a6"/>
    </g>
    <path id="Trazado_151415" data-name="Trazado 151415" d="M67.293,56.774A15.966,15.966,0,0,1,53.1,72.637,15.919,15.919,0,0,0,70.841,56.774V46.129a21.487,21.487,0,0,1-3.548-.318Z" fill="#eabd8c"/>
    <path id="Trazado_151416" data-name="Trazado 151416" d="M79.712,1.774h24.839A3.547,3.547,0,0,1,108.1,5.323V19.516a3.547,3.547,0,0,1-3.548,3.548H99.228L85.034,31.935l1.52-8.871H79.712a3.547,3.547,0,0,1-3.548-3.548V5.323A3.547,3.547,0,0,1,79.712,1.774Z" fill="#ececec"/>
    <path id="Trazado_151417" data-name="Trazado 151417" d="M79.121,94.032h7.688l-3.33-9.989a10.647,10.647,0,0,0-8.195-7.107L61.97,74.516l12.765,7.091a7.1,7.1,0,0,1,3.607,5.42Z" fill="#48c397"/>
    <path id="Trazado_151418" data-name="Trazado 151418" d="M40.68,87.8,34.317,93.55a3.548,3.548,0,0,1-5.017,0L16.575,80.825a3.548,3.548,0,0,1,0-5.017l5.754-5.754L11.684,59.409,5.018,66.075a10.645,10.645,0,0,0,0,15.054L29,105.107a10.645,10.645,0,0,0,15.054,0l7.274-6.666Z" fill="#fb5968"/>
    <path id="Trazado_151419" data-name="Trazado 151419" d="M85.162,83.483A12.42,12.42,0,0,0,75.6,75.192L63.744,73.035v-.919a17.856,17.856,0,0,0,5.289-4.7h3.582A5.329,5.329,0,0,0,77.938,62.1V40.806a23.065,23.065,0,0,0-46.129,0V53.226a7.108,7.108,0,0,0,5.658,6.95A17.775,17.775,0,0,0,46,72.116v.919L34.143,75.192a12.417,12.417,0,0,0-9.559,8.291l-.71,2.131-6.043-6.043a1.778,1.778,0,0,1,0-2.51l7.008-7.006L11.686,56.9l-7.92,7.92a12.419,12.419,0,0,0,0,17.563l23.978,23.978a12.413,12.413,0,0,0,17.508.053L53.894,98.5,51.2,95.806H89.269ZM54.873,79.1l-5.323-5.323V73.7a17.728,17.728,0,0,0,10.645,0v.083ZM72.615,63.871H71.123a17.622,17.622,0,0,0,1.157-3.7,7.028,7.028,0,0,0,2.11-.839V62.1A1.776,1.776,0,0,1,72.615,63.871Zm0-13.7a3.518,3.518,0,0,1,0,6.11ZM35.357,53.226a3.537,3.537,0,0,1,1.774-3.055v6.11A3.537,3.537,0,0,1,35.357,53.226Zm1.774-8.871v2.026a7.037,7.037,0,0,0-1.774.735V40.806a19.516,19.516,0,1,1,39.032,0v6.309a6.973,6.973,0,0,0-1.774-.735V44.355H70.841A19.52,19.52,0,0,1,56.951,38.6l-2.078-2.078L52.8,38.6a19.52,19.52,0,0,1-13.89,5.754ZM40.68,56.774V47.836A23,23,0,0,0,54.873,41.53a22.993,22.993,0,0,0,14.194,6.305v8.938a14.087,14.087,0,0,1-1.92,7.1H54.873v3.548H64.23A14.171,14.171,0,0,1,40.68,56.774ZM19.82,70.054l-1.927,1.927L9.757,63.844l1.927-1.927Zm16.7,36.4a8.822,8.822,0,0,1-6.274-2.6L6.271,79.876a8.873,8.873,0,0,1,0-12.545l.976-.976,8.136,8.136-.064.064a5.332,5.332,0,0,0,0,7.528L28.042,94.806a5.3,5.3,0,0,0,3.765,1.56,5.224,5.224,0,0,0,3.7-1.5l.133-.119,8.174,8.174-1.018.933A8.826,8.826,0,0,1,36.523,106.452Zm9.909-5.931-8.156-8.156,2.344-2.118,8.142,8.142Zm1.219-8.262-6.91-6.91-7.679,6.946a1.812,1.812,0,0,1-2.509,0l-3.875-3.875,1.27-3.815a8.874,8.874,0,0,1,6.829-5.924l12.4-2.253,7.695,7.695,7.693-7.693,12.4,2.253a8.871,8.871,0,0,1,6.829,5.924l2.553,7.652Z"/>
    <path id="Trazado_151420" data-name="Trazado 151420" d="M104.551,0H79.712a5.329,5.329,0,0,0-5.323,5.323V19.516a5.329,5.329,0,0,0,5.323,5.323h4.739l-1.835,10.7,17.121-10.7h4.813a5.329,5.329,0,0,0,5.323-5.323V5.323A5.329,5.329,0,0,0,104.551,0Zm1.774,19.516a1.777,1.777,0,0,1-1.774,1.774H98.719L87.451,28.332l1.208-7.042H79.712a1.777,1.777,0,0,1-1.774-1.774V5.323a1.777,1.777,0,0,1,1.774-1.774h24.839a1.777,1.777,0,0,1,1.774,1.774Z"/>
    <rect id="Rectángulo_36125" data-name="Rectángulo 36125" width="21.29" height="3.548" transform="translate(81.486 7.097)"/>
    <rect id="Rectángulo_36126" data-name="Rectángulo 36126" width="14.194" height="3.548" transform="translate(81.486 14.194)"/>
    <rect id="Rectángulo_36127" data-name="Rectángulo 36127" width="3.548" height="3.548" transform="translate(99.228 14.194)"/>
    <path id="Trazado_151421" data-name="Trazado 151421" d="M16.755,44.1l-1.826-3.043-4.808,2.885A46.141,46.141,0,0,1,68.542,10.929l1.05-3.389A49.679,49.679,0,0,0,6.532,43.725L3.17,38.12.127,39.946,6.363,50.337Z"/>
    <path id="Trazado_151422" data-name="Trazado 151422" d="M92.385,43.441l3.043,1.826,3.1-5.175a46.168,46.168,0,0,1-7.819,43.952l2.755,2.235a49.684,49.684,0,0,0,8.5-47.08l5.214,3.128,1.826-3.043L98.619,33.048Z"/>
  </g>
</svg>
