<svg xmlns="http://www.w3.org/2000/svg" width="126" height="101.883" viewBox="0 0 126 101.883">
  <g id="satisfaccion" transform="translate(0 -12.059)">
    <g id="Grupo_100685" data-name="Grupo 100685">
      <g id="Grupo_100684" data-name="Grupo 100684">
        <path id="Trazado_151423" data-name="Trazado 151423" d="M82.441,13.9H43.559A2.461,2.461,0,0,0,41.1,16.365V55.248a2.461,2.461,0,0,0,2.461,2.461H58.826a1.23,1.23,0,0,1,1.1.685L61.9,62.371a1.231,1.231,0,0,0,2.206,0l1.968-3.977a1.23,1.23,0,0,1,1.1-.685H82.441A2.461,2.461,0,0,0,84.9,55.248V16.365A2.461,2.461,0,0,0,82.441,13.9Z" fill="#0593fc"/>
      </g>
    </g>
    <g id="Grupo_100687" data-name="Grupo 100687">
      <g id="Grupo_100686" data-name="Grupo 100686">
        <path id="Trazado_151424" data-name="Trazado 151424" d="M48.48,55.248V16.365A2.461,2.461,0,0,1,50.941,13.9H43.559A2.461,2.461,0,0,0,41.1,16.365V55.248a2.461,2.461,0,0,0,2.461,2.461h7.383A2.461,2.461,0,0,1,48.48,55.248Z" fill="#0182fc"/>
      </g>
    </g>
    <g id="Grupo_100688" data-name="Grupo 100688">
      <path id="Trazado_151425" data-name="Trazado 151425" d="M64.1,22.973l3.1,6.29a1.23,1.23,0,0,0,.927.673l6.942,1.009a1.23,1.23,0,0,1,.682,2.1l-5.023,4.9a1.231,1.231,0,0,0-.354,1.089l1.186,6.914a1.231,1.231,0,0,1-1.785,1.3l-6.209-3.264a1.23,1.23,0,0,0-1.145,0L56.219,47.24a1.231,1.231,0,0,1-1.785-1.3l1.186-6.914a1.231,1.231,0,0,0-.354-1.089l-5.023-4.9a1.23,1.23,0,0,1,.682-2.1l6.942-1.009a1.231,1.231,0,0,0,.927-.673l3.1-6.29a1.23,1.23,0,0,1,2.207,0Z" fill="#fed402"/>
    </g>
    <g id="Grupo_100690" data-name="Grupo 100690">
      <g id="Grupo_100689" data-name="Grupo 100689">
        <path id="Trazado_151426" data-name="Trazado 151426" d="M60.673,43.836l1.186-6.914a1.231,1.231,0,0,0-.354-1.089l-5.023-4.9a1.21,1.21,0,0,1-.365-.746l-5.194.755a1.231,1.231,0,0,0-.682,2.1l5.023,4.9a1.231,1.231,0,0,1,.354,1.089l-1.186,6.914a1.231,1.231,0,0,0,1.785,1.3L60.9,44.779a1.208,1.208,0,0,1-.227-.943Z" fill="#fac600"/>
      </g>
    </g>
    <g id="Grupo_100703" data-name="Grupo 100703">
      <g id="Grupo_100693" data-name="Grupo 100693">
        <g id="Grupo_100691" data-name="Grupo 100691">
          <path id="Trazado_151427" data-name="Trazado 151427" d="M41.61,90.459A21.308,21.308,0,0,1,47.186,76.07H16.235a14.389,14.389,0,0,0,0,28.779H47.186A21.308,21.308,0,0,1,41.61,90.459Z" fill="#83c4e8"/>
        </g>
        <g id="Grupo_100692" data-name="Grupo 100692">
          <path id="Trazado_151428" data-name="Trazado 151428" d="M109.765,76.07H78.814a21.352,21.352,0,0,1,0,28.778h30.951a14.389,14.389,0,1,0,0-28.778Z" fill="#83c4e8"/>
        </g>
      </g>
      <g id="Grupo_100696" data-name="Grupo 100696">
        <g id="Grupo_100694" data-name="Grupo 100694">
          <path id="Trazado_151429" data-name="Trazado 151429" d="M16.235,82.494a7.966,7.966,0,0,0,0,15.931H29.083V82.494H16.235Z" fill="#e41f2d"/>
        </g>
        <g id="Grupo_100695" data-name="Grupo 100695">
          <path id="Trazado_151430" data-name="Trazado 151430" d="M109.765,82.494H96.917V98.424h12.848a7.965,7.965,0,1,0,0-15.931Z" fill="#97d729"/>
        </g>
      </g>
      <g id="Grupo_100699" data-name="Grupo 100699">
        <g id="Grupo_100697" data-name="Grupo 100697">
          <path id="Trazado_151431" data-name="Trazado 151431" d="M41.61,90.459a21.276,21.276,0,0,1,1.539-7.966H29.083V98.424H43.149a21.275,21.275,0,0,1-1.539-7.965Z" fill="#fd4755"/>
        </g>
        <g id="Grupo_100698" data-name="Grupo 100698">
          <path id="Trazado_151432" data-name="Trazado 151432" d="M82.851,82.494a21.379,21.379,0,0,1,0,15.931H96.918V82.494Z" fill="#fac600"/>
        </g>
      </g>
      <g id="Grupo_100702" data-name="Grupo 100702">
        <g id="Grupo_100700" data-name="Grupo 100700">
          <circle id="Elipse_4781" data-name="Elipse 4781" cx="21.637" cy="21.637" r="21.637" transform="translate(41.363 68.822)" fill="#fe9901"/>
        </g>
        <g id="Grupo_100701" data-name="Grupo 100701">
          <path id="Trazado_151433" data-name="Trazado 151433" d="M49.012,90.459a21.643,21.643,0,0,1,17.813-21.3,21.637,21.637,0,1,0,0,42.6,21.643,21.643,0,0,1-17.813-21.3Z" fill="#fb8801"/>
        </g>
      </g>
    </g>
    <g id="Grupo_100704" data-name="Grupo 100704">
      <path id="Trazado_151434" data-name="Trazado 151434" d="M43.559,59.555H58.444l1.8,3.635a3.076,3.076,0,0,0,5.514,0l1.8-3.635H82.441a4.312,4.312,0,0,0,4.307-4.307V33.715a1.846,1.846,0,0,0-3.691,0V55.248a.616.616,0,0,1-.615.615H67.174a3.058,3.058,0,0,0-2.757,1.712L63,60.438l-1.417-2.863a3.058,3.058,0,0,0-2.757-1.712H43.559a.616.616,0,0,1-.615-.615V16.365a.616.616,0,0,1,.615-.615H82.441a.616.616,0,0,1,.615.615V25.1a1.846,1.846,0,0,0,3.691,0V16.365a4.312,4.312,0,0,0-4.307-4.307H43.559a4.312,4.312,0,0,0-4.307,4.307V55.248a4.312,4.312,0,0,0,4.307,4.307Z"/>
      <path id="Trazado_151435" data-name="Trazado 151435" d="M77.825,31.212a3.057,3.057,0,0,0-2.483-2.094l-6.622-.962-2.961-6a3.076,3.076,0,0,0-5.517,0l-2.961,6-6.622.962a3.076,3.076,0,0,0-1.7,5.247l4.791,4.671-1.131,6.6a3.076,3.076,0,0,0,4.463,3.243L63,45.76l5.923,3.114a3.076,3.076,0,0,0,4.463-3.243l-1.131-6.595,4.792-4.671a3.057,3.057,0,0,0,.778-3.154Zm-8.378,5.406a3.076,3.076,0,0,0-.885,2.723l.975,5.685-5.105-2.684a3.073,3.073,0,0,0-2.863,0l-5.105,2.684.975-5.686a3.076,3.076,0,0,0-.885-2.723l-4.13-4.026,5.708-.83a3.076,3.076,0,0,0,2.316-1.683L63,24.908l2.553,5.173a3.076,3.076,0,0,0,2.316,1.683l5.708.83Z"/>
      <path id="Trazado_151436" data-name="Trazado 151436" d="M109.765,74.224H97.453a1.846,1.846,0,0,0,0,3.691h12.312a12.544,12.544,0,1,1,0,25.087H82.839a23.485,23.485,0,0,0,1.492-2.732h25.433a9.811,9.811,0,1,0,0-19.623H84.332a23.506,23.506,0,0,0-1.492-2.732h6a1.846,1.846,0,0,0,0-3.691h-8.9a23.432,23.432,0,0,0-33.889,0H16.235a16.235,16.235,0,0,0,0,32.47h8.374a1.846,1.846,0,0,0,0-3.691H16.235a12.544,12.544,0,1,1,0-25.087H43.161a23.47,23.47,0,0,0-1.492,2.732H16.235a9.811,9.811,0,0,0,0,19.623H41.668A23.507,23.507,0,0,0,43.161,103H33.223a1.846,1.846,0,1,0,0,3.691H46.055a23.432,23.432,0,0,0,33.889,0h29.82a16.235,16.235,0,1,0,0-32.47Zm-11,10.115h11a6.12,6.12,0,0,1,0,12.24h-11Zm-13.091,0h9.4V96.579h-9.4a23.505,23.505,0,0,0,0-12.239ZM27.237,96.579h-11a6.12,6.12,0,0,1,0-12.24h11v12.24Zm13.091,0h-9.4V84.339h9.4a23.505,23.505,0,0,0,0,12.239ZM63,110.25A19.791,19.791,0,1,1,82.791,90.459,19.813,19.813,0,0,1,63,110.25Z"/>
      <path id="Trazado_151437" data-name="Trazado 151437" d="M56.934,89.676a1.846,1.846,0,0,0,1.846-1.846V83.584a1.846,1.846,0,0,0-3.691,0V87.83A1.846,1.846,0,0,0,56.934,89.676Z"/>
      <path id="Trazado_151438" data-name="Trazado 151438" d="M69.066,89.676a1.846,1.846,0,0,0,1.846-1.846V83.584a1.846,1.846,0,0,0-3.691,0V87.83A1.846,1.846,0,0,0,69.066,89.676Z"/>
      <path id="Trazado_151439" data-name="Trazado 151439" d="M70.179,95.489H55.821a1.846,1.846,0,1,0,0,3.691H70.179a1.846,1.846,0,0,0,0-3.691Z"/>
    </g>
  </g>
</svg>
