<svg id="Grupo_1186724" data-name="Grupo 1186724" xmlns="http://www.w3.org/2000/svg" width="189.602" height="416.376" viewBox="0 0 189.602 416.376">
  <g id="Grupo_98037" data-name="Grupo 98037">
    <g id="Grupo_98036" data-name="Grupo 98036">
      <g id="Grupo_98029" data-name="Grupo 98029" transform="translate(74.62 224.088)">
        <path id="Trazado_149484" data-name="Trazado 149484" d="M2439.594,1009.207c0,2.51-9.033,4.544-20.179,4.544s-20.182-2.034-20.182-4.544,9.036-4.543,20.182-4.543S2439.594,1006.7,2439.594,1009.207Z" transform="translate(-2399.233 -821.463)" fill="#2f2a2f"/>
        <path id="Trazado_149485" data-name="Trazado 149485" d="M2410.175,619.036V804.385c0,1.506,6.706,2.721,14.982,2.721s14.983-1.215,14.983-2.721V619.036Z" transform="translate(-2404.977 -619.036)" fill="#5f5860"/>
        <rect id="Rectángulo_35853" data-name="Rectángulo 35853" width="29.965" height="28.164" transform="translate(5.198 105.542)" fill="#413c40"/>
        <path id="Trazado_149486" data-name="Trazado 149486" d="M2452.471,945.082a3.421,3.421,0,0,1-3.422,3.42h0a3.421,3.421,0,0,1-3.421-3.42V911.216a3.422,3.422,0,0,1,3.421-3.422h0a3.422,3.422,0,0,1,3.422,3.422Z" transform="translate(-2423.587 -770.613)" fill="#7a7378"/>
      </g>
      <g id="Grupo_98035" data-name="Grupo 98035">
        <path id="Trazado_149487" data-name="Trazado 149487" d="M2299.521,210.078a1.769,1.769,0,0,0-1.772-1.638h-53.812a1.777,1.777,0,0,0-1.548.9,1.742,1.742,0,0,0,.032,1.777c5.911,9.589,10.175,22.205,14.3,34.406,7.295,21.588,9.438,41.978,24.721,41.978h21.575a1.781,1.781,0,0,0,1.3-.559,1.744,1.744,0,0,0,.474-1.321Z" transform="translate(-2242.162 -179.414)" fill="#353032"/>
        <path id="Trazado_149488" data-name="Trazado 149488" d="M2299.521,434.345a1.768,1.768,0,0,0-1.772-1.637h-53.812a1.775,1.775,0,0,0-1.548.9,1.743,1.743,0,0,0,.032,1.777c5.911,9.588,10.175,22.205,14.3,34.406,7.295,21.587,9.438,41.978,24.721,41.978h21.575a1.783,1.783,0,0,0,1.3-.559,1.746,1.746,0,0,0,.474-1.321Z" transform="translate(-2242.162 -297.139)" fill="#353032"/>
        <path id="Trazado_149489" data-name="Trazado 149489" d="M2299.521,658.613a1.769,1.769,0,0,0-1.772-1.639h-53.812a1.778,1.778,0,0,0-1.548.9,1.743,1.743,0,0,0,.032,1.777c5.911,9.588,10.175,22.2,14.3,34.406,7.295,21.586,9.438,41.977,24.721,41.977h21.575a1.779,1.779,0,0,0,1.3-.559,1.745,1.745,0,0,0,.474-1.32Z" transform="translate(-2242.162 -414.862)" fill="#353032"/>
        <path id="Trazado_149490" data-name="Trazado 149490" d="M2514.7,210.078a1.769,1.769,0,0,1,1.773-1.638h53.811a1.78,1.78,0,0,1,1.55.9,1.742,1.742,0,0,1-.032,1.777c-5.912,9.589-10.175,22.205-14.3,34.406-7.295,21.588-9.438,41.978-24.722,41.978H2511.2a1.783,1.783,0,0,1-1.3-.559,1.747,1.747,0,0,1-.473-1.321Z" transform="translate(-2382.458 -179.414)" fill="#353032"/>
        <path id="Trazado_149491" data-name="Trazado 149491" d="M2514.7,434.345a1.769,1.769,0,0,1,1.773-1.637h53.811a1.778,1.778,0,0,1,1.55.9,1.743,1.743,0,0,1-.032,1.777c-5.912,9.588-10.175,22.205-14.3,34.406-7.295,21.587-9.438,41.978-24.722,41.978H2511.2a1.785,1.785,0,0,1-1.3-.559,1.749,1.749,0,0,1-.473-1.321Z" transform="translate(-2382.458 -297.139)" fill="#353032"/>
        <path id="Trazado_149492" data-name="Trazado 149492" d="M2514.7,658.613a1.769,1.769,0,0,1,1.773-1.639h53.811a1.781,1.781,0,0,1,1.55.9,1.743,1.743,0,0,1-.032,1.777c-5.912,9.588-10.175,22.2-14.3,34.406-7.295,21.586-9.438,41.977-24.722,41.977H2511.2a1.781,1.781,0,0,1-1.3-.559,1.749,1.749,0,0,1-.473-1.32Z" transform="translate(-2382.458 -414.862)" fill="#353032"/>
        <g id="Grupo_98034" data-name="Grupo 98034" transform="translate(39.72)">
          <g id="Grupo_98033" data-name="Grupo 98033">
            <path id="Trazado_149493" data-name="Trazado 149493" d="M2437.488,182.044a9.907,9.907,0,0,1-9.921,9.9h-69.882a9.9,9.9,0,0,1-9.9-9.9V157.265a9.9,9.9,0,0,1,9.9-9.922h69.882a9.911,9.911,0,0,1,9.921,9.923Z" transform="translate(-2337.328 -147.343)" fill="#2f2a2f"/>
            <path id="Trazado_149494" data-name="Trazado 149494" d="M2437.488,823.986a9.907,9.907,0,0,1-9.921,9.9h-69.882a9.9,9.9,0,0,1-9.9-9.9V799.209a9.9,9.9,0,0,1,9.9-9.923h69.882a9.911,9.911,0,0,1,9.921,9.923Z" transform="translate(-2337.328 -484.317)" fill="#2f2a2f"/>
            <path id="Trazado_149495" data-name="Trazado 149495" d="M2438.3,642.743a8.19,8.19,0,0,1-8.2,8.191h-57.767a8.185,8.185,0,0,1-8.183-8.191V622.256a8.185,8.185,0,0,1,8.183-8.187H2430.1a8.19,8.19,0,0,1,8.2,8.187Z" transform="translate(-2345.917 -392.34)" fill="#2f2a2f"/>
            <path id="Trazado_149496" data-name="Trazado 149496" d="M2436.388,497.374a1.561,1.561,0,0,1-1.561,1.563H2327.333a1.563,1.563,0,0,1-1.562-1.563V176.931a1.562,1.562,0,0,1,1.563-1.562h107.494a1.561,1.561,0,0,1,1.561,1.562Z" transform="translate(-2325.771 -162.055)" fill="#272424"/>
            <g id="Grupo_98030" data-name="Grupo 98030" transform="translate(3.537 15.928)">
              <path id="Rectángulo_35854" data-name="Rectángulo 35854" d="M3.288,0h96.968a3.289,3.289,0,0,1,3.289,3.289v96.966a3.289,3.289,0,0,1-3.289,3.289H3.288A3.288,3.288,0,0,1,0,100.256V3.288A3.288,3.288,0,0,1,3.288,0Z" fill="#353032"/>
              <path id="Trazado_149497" data-name="Trazado 149497" d="M2437.561,236.2a48.551,48.551,0,1,1-48.548-48.558A48.562,48.562,0,0,1,2437.561,236.2Z" transform="translate(-2337.018 -184.423)" fill="#413c40"/>
              <path id="Trazado_149498" data-name="Trazado 149498" d="M2345.952,190.015a3.119,3.119,0,1,1-3.119-3.12A3.12,3.12,0,0,1,2345.952,190.015Z" transform="translate(-2336.626 -184.033)" fill="#5f5860"/>
              <path id="Trazado_149499" data-name="Trazado 149499" d="M2345.952,382.043a3.119,3.119,0,1,1-3.119-3.12A3.119,3.119,0,0,1,2345.952,382.043Z" transform="translate(-2336.626 -284.834)" fill="#5f5860"/>
              <path id="Trazado_149500" data-name="Trazado 149500" d="M2537.96,190.015a3.12,3.12,0,1,1-3.119-3.12A3.121,3.121,0,0,1,2537.96,190.015Z" transform="translate(-2437.417 -184.033)" fill="#5f5860"/>
              <path id="Trazado_149501" data-name="Trazado 149501" d="M2537.96,382.043a3.12,3.12,0,1,1-3.119-3.12A3.12,3.12,0,0,1,2537.96,382.043Z" transform="translate(-2437.417 -284.834)" fill="#5f5860"/>
              <path id="Trazado_149502" data-name="Trazado 149502" d="M2438.282,243.791a41.679,41.679,0,1,1-41.676-41.685A41.686,41.686,0,0,1,2438.282,243.791Z" transform="translate(-2344.612 -192.017)" fill="#272424"/>
              <path id="Trazado_149503" data-name="Trazado 149503" d="M2438.721,248.4a37.506,37.506,0,1,1-37.5-37.512A37.515,37.515,0,0,1,2438.721,248.4Z" transform="translate(-2349.222 -196.628)" fill="#413c40"/>
              <path id="Trazado_149504" data-name="Trazado 149504" d="M2439.094,252.13a34.14,34.14,0,1,1-34.148-34.137A34.139,34.139,0,0,1,2439.094,252.13Z" transform="translate(-2352.952 -200.357)" fill="#2f2a2f"/>
              <path id="Trazado_149505" data-name="Trazado 149505" d="M2442.156,344.434c0,1.776-2.125,3.213-4.749,3.213s-4.75-1.437-4.75-3.213,2.128-3.216,4.75-3.216S2442.156,342.659,2442.156,344.434Z" transform="translate(-2385.415 -265.041)" fill="#464045"/>
              <path id="Trazado_149506" data-name="Trazado 149506" d="M2405.193,257.675c13.224,0,25.2-3.59,33.923-9.408a34.14,34.14,0,0,0-67.842,0C2380,254.086,2391.98,257.675,2405.193,257.675Z" transform="translate(-2353.194 -200.357)" fill="#352f35"/>
              <path id="Trazado_149507" data-name="Trazado 149507" d="M2440.8,240.018c0,6.6-7.893,11.933-17.64,11.933s-17.644-5.337-17.644-11.933,7.907-11.947,17.644-11.947S2440.8,233.425,2440.8,240.018Z" transform="translate(-2371.17 -205.647)" fill="#464045"/>
            </g>
            <g id="Grupo_98031" data-name="Grupo 98031" transform="translate(3.537 123.149)">
              <path id="Rectángulo_35855" data-name="Rectángulo 35855" d="M3.288,0h96.969a3.287,3.287,0,0,1,3.287,3.287v96.97a3.287,3.287,0,0,1-3.287,3.287H3.288A3.288,3.288,0,0,1,0,100.256V3.288A3.288,3.288,0,0,1,3.288,0Z" fill="#353032"/>
              <path id="Trazado_149508" data-name="Trazado 149508" d="M2437.561,461.891a48.551,48.551,0,1,1-48.548-48.558A48.562,48.562,0,0,1,2437.561,461.891Z" transform="translate(-2337.018 -410.118)" fill="#413c40"/>
              <path id="Trazado_149509" data-name="Trazado 149509" d="M2345.952,415.71a3.119,3.119,0,1,1-3.119-3.12A3.119,3.119,0,0,1,2345.952,415.71Z" transform="translate(-2336.626 -409.728)" fill="#5f5860"/>
              <path id="Trazado_149510" data-name="Trazado 149510" d="M2345.952,607.737a3.119,3.119,0,1,1-3.119-3.121A3.12,3.12,0,0,1,2345.952,607.737Z" transform="translate(-2336.626 -510.527)" fill="#5f5860"/>
              <path id="Trazado_149511" data-name="Trazado 149511" d="M2537.96,415.71a3.12,3.12,0,1,1-3.119-3.12A3.12,3.12,0,0,1,2537.96,415.71Z" transform="translate(-2437.417 -409.728)" fill="#5f5860"/>
              <path id="Trazado_149512" data-name="Trazado 149512" d="M2537.96,607.737a3.12,3.12,0,1,1-3.119-3.121A3.12,3.12,0,0,1,2537.96,607.737Z" transform="translate(-2437.417 -510.527)" fill="#5f5860"/>
              <path id="Trazado_149513" data-name="Trazado 149513" d="M2438.282,469.485a41.679,41.679,0,1,1-41.676-41.684A41.686,41.686,0,0,1,2438.282,469.485Z" transform="translate(-2344.612 -417.712)" fill="#272424"/>
              <path id="Trazado_149514" data-name="Trazado 149514" d="M2438.721,474.1a37.506,37.506,0,1,1-37.5-37.512A37.515,37.515,0,0,1,2438.721,474.1Z" transform="translate(-2349.222 -422.322)" fill="#413c40"/>
              <path id="Trazado_149515" data-name="Trazado 149515" d="M2439.094,477.823a34.14,34.14,0,1,1-34.148-34.137A34.139,34.139,0,0,1,2439.094,477.823Z" transform="translate(-2352.952 -426.051)" fill="#2f2a2f"/>
              <path id="Trazado_149516" data-name="Trazado 149516" d="M2442.156,569.962c0,1.776-2.125,3.213-4.749,3.213s-4.75-1.437-4.75-3.213,2.128-3.215,4.75-3.215S2442.156,568.187,2442.156,569.962Z" transform="translate(-2385.415 -490.649)" fill="#464045"/>
              <path id="Trazado_149517" data-name="Trazado 149517" d="M2405.193,483.368c13.224,0,25.2-3.59,33.923-9.408a34.14,34.14,0,0,0-67.842,0C2380,479.78,2391.98,483.368,2405.193,483.368Z" transform="translate(-2353.194 -426.051)" fill="#352f35"/>
              <path id="Trazado_149518" data-name="Trazado 149518" d="M2440.8,465.712c0,6.594-7.893,11.933-17.64,11.933s-17.644-5.339-17.644-11.933,7.907-11.947,17.644-11.947S2440.8,459.12,2440.8,465.712Z" transform="translate(-2371.17 -431.342)" fill="#464045"/>
            </g>
            <g id="Grupo_98032" data-name="Grupo 98032" transform="translate(3.537 230.37)">
              <path id="Rectángulo_35856" data-name="Rectángulo 35856" d="M3.289,0h96.966a3.289,3.289,0,0,1,3.289,3.289v96.968a3.287,3.287,0,0,1-3.287,3.287H3.287A3.287,3.287,0,0,1,0,100.257V3.289A3.289,3.289,0,0,1,3.289,0Z" fill="#353032"/>
              <path id="Trazado_149519" data-name="Trazado 149519" d="M2437.561,687.585a48.551,48.551,0,1,1-48.548-48.557A48.562,48.562,0,0,1,2437.561,687.585Z" transform="translate(-2337.018 -635.812)" fill="#413c40"/>
              <path id="Trazado_149520" data-name="Trazado 149520" d="M2345.952,641.4a3.119,3.119,0,1,1-3.119-3.121A3.12,3.12,0,0,1,2345.952,641.4Z" transform="translate(-2336.626 -635.421)" fill="#5f5860"/>
              <path id="Trazado_149521" data-name="Trazado 149521" d="M2345.952,833.428a3.119,3.119,0,1,1-3.119-3.12A3.12,3.12,0,0,1,2345.952,833.428Z" transform="translate(-2336.626 -736.22)" fill="#5f5860"/>
              <path id="Trazado_149522" data-name="Trazado 149522" d="M2537.96,641.4a3.12,3.12,0,1,1-3.119-3.12A3.12,3.12,0,0,1,2537.96,641.4Z" transform="translate(-2437.417 -635.422)" fill="#5f5860"/>
              <path id="Trazado_149523" data-name="Trazado 149523" d="M2537.96,833.428a3.12,3.12,0,1,1-3.119-3.12A3.12,3.12,0,0,1,2537.96,833.428Z" transform="translate(-2437.417 -736.22)" fill="#5f5860"/>
              <path id="Trazado_149524" data-name="Trazado 149524" d="M2438.282,695.179a41.679,41.679,0,1,1-41.676-41.684A41.686,41.686,0,0,1,2438.282,695.179Z" transform="translate(-2344.612 -643.406)" fill="#272424"/>
              <path id="Trazado_149525" data-name="Trazado 149525" d="M2438.721,699.788a37.506,37.506,0,1,1-37.5-37.512A37.514,37.514,0,0,1,2438.721,699.788Z" transform="translate(-2349.222 -648.016)" fill="#00682a"/>
              <path id="Trazado_149526" data-name="Trazado 149526" d="M2439.094,703.517a34.14,34.14,0,1,1-34.148-34.137A34.138,34.138,0,0,1,2439.094,703.517Z" transform="translate(-2352.952 -651.745)" fill="#007d2e"/>
              <path id="Trazado_149527" data-name="Trazado 149527" d="M2405.193,709.062c13.224,0,25.2-3.591,33.923-9.408a34.14,34.14,0,0,0-67.842,0C2380,705.474,2391.98,709.062,2405.193,709.062Z" transform="translate(-2353.194 -651.745)" fill="#3b9025"/>
              <path id="Trazado_149528" data-name="Trazado 149528" d="M2440.8,691.406c0,6.594-7.893,11.934-17.64,11.934s-17.644-5.339-17.644-11.934,7.907-11.946,17.644-11.946S2440.8,684.814,2440.8,691.406Z" transform="translate(-2371.17 -657.036)" fill="#83b239"/>
              <path id="Trazado_149529" data-name="Trazado 149529" d="M2442.156,796.146c0,1.776-2.125,3.213-4.749,3.213s-4.75-1.438-4.75-3.213,2.128-3.215,4.75-3.215S2442.156,794.371,2442.156,796.146Z" transform="translate(-2385.415 -716.6)" fill="#3b9025"/>
            </g>
          </g>
        </g>
      </g>
    </g>
  </g>
</svg>
