<svg id="Grupo_1186723" data-name="Grupo 1186723" xmlns="http://www.w3.org/2000/svg" width="189.603" height="416.376" viewBox="0 0 189.603 416.376">
  <g id="Grupo_98027" data-name="Grupo 98027">
    <g id="Grupo_98026" data-name="Grupo 98026">
      <g id="Grupo_98020" data-name="Grupo 98020" transform="translate(75.079 224.088)">
        <path id="Trazado_149438" data-name="Trazado 149438" d="M1746.522,1009.207c0,2.51-9.034,4.544-20.179,4.544s-20.182-2.034-20.182-4.544,9.036-4.543,20.182-4.543S1746.522,1006.7,1746.522,1009.207Z" transform="translate(-1706.161 -821.463)" fill="#2f2a2f"/>
        <path id="Trazado_149439" data-name="Trazado 149439" d="M1717.1,619.036V804.385c0,1.506,6.707,2.721,14.983,2.721s14.983-1.215,14.983-2.721V619.036Z" transform="translate(-1711.904 -619.036)" fill="#5f5860"/>
        <rect id="Rectángulo_35848" data-name="Rectángulo 35848" width="29.967" height="28.164" transform="translate(5.197 105.542)" fill="#413c40"/>
        <path id="Trazado_149440" data-name="Trazado 149440" d="M1759.4,945.082a3.421,3.421,0,0,1-3.422,3.42h0a3.421,3.421,0,0,1-3.42-3.42V911.216a3.422,3.422,0,0,1,3.42-3.422h0a3.422,3.422,0,0,1,3.422,3.422Z" transform="translate(-1730.516 -770.613)" fill="#7a7378"/>
      </g>
      <g id="Grupo_98025" data-name="Grupo 98025">
        <path id="Trazado_149441" data-name="Trazado 149441" d="M1605.484,210.078a1.768,1.768,0,0,0-1.772-1.638H1549.9a1.78,1.78,0,0,0-1.549.9,1.744,1.744,0,0,0,.032,1.777c5.912,9.589,10.175,22.205,14.3,34.406,7.295,21.588,9.438,41.978,24.721,41.978h21.576a1.785,1.785,0,0,0,1.3-.559,1.746,1.746,0,0,0,.472-1.321Z" transform="translate(-1548.124 -179.414)" fill="#353032"/>
        <path id="Trazado_149442" data-name="Trazado 149442" d="M1605.484,434.345a1.768,1.768,0,0,0-1.772-1.637H1549.9a1.779,1.779,0,0,0-1.549.9,1.744,1.744,0,0,0,.032,1.777c5.912,9.588,10.175,22.205,14.3,34.406,7.295,21.587,9.438,41.978,24.721,41.978h21.576a1.787,1.787,0,0,0,1.3-.559,1.747,1.747,0,0,0,.472-1.321Z" transform="translate(-1548.124 -297.139)" fill="#353032"/>
        <path id="Trazado_149443" data-name="Trazado 149443" d="M1605.484,658.613a1.768,1.768,0,0,0-1.772-1.639H1549.9a1.781,1.781,0,0,0-1.549.9,1.744,1.744,0,0,0,.032,1.777c5.912,9.588,10.175,22.2,14.3,34.406,7.295,21.586,9.438,41.977,24.721,41.977h21.576a1.783,1.783,0,0,0,1.3-.559,1.747,1.747,0,0,0,.472-1.32Z" transform="translate(-1548.124 -414.862)" fill="#353032"/>
        <path id="Trazado_149444" data-name="Trazado 149444" d="M1820.661,210.078a1.77,1.77,0,0,1,1.774-1.638h53.811a1.781,1.781,0,0,1,1.549.9,1.744,1.744,0,0,1-.032,1.777c-5.911,9.589-10.175,22.205-14.3,34.406-7.3,21.588-9.437,41.978-24.722,41.978h-21.575a1.787,1.787,0,0,1-1.3-.559,1.749,1.749,0,0,1-.474-1.321Z" transform="translate(-1688.419 -179.414)" fill="#353032"/>
        <path id="Trazado_149445" data-name="Trazado 149445" d="M1820.661,434.345a1.769,1.769,0,0,1,1.774-1.637h53.811a1.779,1.779,0,0,1,1.549.9,1.745,1.745,0,0,1-.032,1.777c-5.911,9.588-10.175,22.205-14.3,34.406-7.3,21.587-9.437,41.978-24.722,41.978h-21.575a1.789,1.789,0,0,1-1.3-.559,1.751,1.751,0,0,1-.474-1.321Z" transform="translate(-1688.419 -297.139)" fill="#353032"/>
        <path id="Trazado_149446" data-name="Trazado 149446" d="M1820.661,658.613a1.77,1.77,0,0,1,1.774-1.639h53.811a1.782,1.782,0,0,1,1.549.9,1.745,1.745,0,0,1-.032,1.777c-5.911,9.588-10.175,22.2-14.3,34.406-7.3,21.586-9.437,41.977-24.722,41.977h-21.575a1.785,1.785,0,0,1-1.3-.559,1.751,1.751,0,0,1-.474-1.32Z" transform="translate(-1688.419 -414.862)" fill="#353032"/>
        <g id="Grupo_98024" data-name="Grupo 98024" transform="translate(39.721)">
          <path id="Trazado_149447" data-name="Trazado 149447" d="M1743.451,182.044a9.908,9.908,0,0,1-9.922,9.9h-69.88a9.9,9.9,0,0,1-9.9-9.9V157.265a9.9,9.9,0,0,1,9.9-9.922h69.88a9.912,9.912,0,0,1,9.922,9.923Z" transform="translate(-1643.291 -147.343)" fill="#2f2a2f"/>
          <path id="Trazado_149448" data-name="Trazado 149448" d="M1743.451,823.986a9.909,9.909,0,0,1-9.922,9.9h-69.88a9.9,9.9,0,0,1-9.9-9.9V799.209a9.9,9.9,0,0,1,9.9-9.923h69.88a9.912,9.912,0,0,1,9.922,9.923Z" transform="translate(-1643.291 -484.317)" fill="#2f2a2f"/>
          <path id="Trazado_149449" data-name="Trazado 149449" d="M1744.265,642.743a8.191,8.191,0,0,1-8.2,8.191H1678.3a8.185,8.185,0,0,1-8.183-8.191V622.256a8.184,8.184,0,0,1,8.183-8.187h57.768a8.19,8.19,0,0,1,8.2,8.187Z" transform="translate(-1651.88 -392.34)" fill="#2f2a2f"/>
          <path id="Rectángulo_35849" data-name="Rectángulo 35849" d="M3.289,0H107.332a3.287,3.287,0,0,1,3.287,3.287V320.28a3.288,3.288,0,0,1-3.288,3.288H3.289A3.289,3.289,0,0,1,0,320.279V3.289A3.289,3.289,0,0,1,3.289,0Z" transform="translate(0 13.314)" fill="#272424"/>
          <g id="Grupo_98021" data-name="Grupo 98021" transform="translate(3.537 15.928)">
            <path id="Rectángulo_35850" data-name="Rectángulo 35850" d="M3.288,0h96.969a3.288,3.288,0,0,1,3.288,3.288v96.968a3.288,3.288,0,0,1-3.288,3.288H3.287A3.287,3.287,0,0,1,0,100.257V3.288A3.288,3.288,0,0,1,3.288,0Z" fill="#353032"/>
            <path id="Trazado_149450" data-name="Trazado 149450" d="M1743.525,236.2a48.551,48.551,0,1,1-48.548-48.558A48.561,48.561,0,0,1,1743.525,236.2Z" transform="translate(-1642.981 -184.423)" fill="#413c40"/>
            <path id="Trazado_149451" data-name="Trazado 149451" d="M1651.915,190.015a3.119,3.119,0,1,1-3.119-3.12A3.12,3.12,0,0,1,1651.915,190.015Z" transform="translate(-1642.589 -184.033)" fill="#5f5860"/>
            <path id="Trazado_149452" data-name="Trazado 149452" d="M1651.915,382.043a3.119,3.119,0,1,1-3.119-3.12A3.12,3.12,0,0,1,1651.915,382.043Z" transform="translate(-1642.589 -284.834)" fill="#5f5860"/>
            <path id="Trazado_149453" data-name="Trazado 149453" d="M1843.924,190.015a3.119,3.119,0,1,1-3.119-3.12A3.121,3.121,0,0,1,1843.924,190.015Z" transform="translate(-1743.38 -184.033)" fill="#5f5860"/>
            <path id="Trazado_149454" data-name="Trazado 149454" d="M1843.924,382.043a3.119,3.119,0,1,1-3.119-3.12A3.12,3.12,0,0,1,1843.924,382.043Z" transform="translate(-1743.38 -284.834)" fill="#5f5860"/>
            <path id="Trazado_149455" data-name="Trazado 149455" d="M1744.246,243.791a41.68,41.68,0,1,1-41.677-41.685A41.688,41.688,0,0,1,1744.246,243.791Z" transform="translate(-1650.574 -192.017)" fill="#272424"/>
            <path id="Trazado_149456" data-name="Trazado 149456" d="M1744.684,248.4a37.507,37.507,0,1,1-37.5-37.512A37.515,37.515,0,0,1,1744.684,248.4Z" transform="translate(-1655.185 -196.628)" fill="#413c40"/>
            <path id="Trazado_149457" data-name="Trazado 149457" d="M1745.056,252.13a34.14,34.14,0,1,1-34.148-34.137A34.138,34.138,0,0,1,1745.056,252.13Z" transform="translate(-1658.915 -200.357)" fill="#2f2a2f"/>
            <path id="Trazado_149458" data-name="Trazado 149458" d="M1748.118,344.434c0,1.776-2.124,3.213-4.749,3.213s-4.751-1.437-4.751-3.213,2.13-3.216,4.751-3.216S1748.118,342.659,1748.118,344.434Z" transform="translate(-1691.377 -265.041)" fill="#464045"/>
            <path id="Trazado_149459" data-name="Trazado 149459" d="M1711.155,257.675c13.225,0,25.2-3.59,33.924-9.408a34.14,34.14,0,0,0-67.841,0C1685.965,254.086,1697.944,257.675,1711.155,257.675Z" transform="translate(-1659.157 -200.357)" fill="#352f35"/>
            <path id="Trazado_149460" data-name="Trazado 149460" d="M1746.765,240.018c0,6.6-7.893,11.933-17.639,11.933s-17.645-5.337-17.645-11.933,7.907-11.947,17.645-11.947S1746.765,233.425,1746.765,240.018Z" transform="translate(-1677.132 -205.647)" fill="#464045"/>
          </g>
          <g id="Grupo_98022" data-name="Grupo 98022" transform="translate(3.537 123.149)">
            <path id="Rectángulo_35851" data-name="Rectángulo 35851" d="M3.287,0h96.97a3.287,3.287,0,0,1,3.287,3.287v96.969a3.288,3.288,0,0,1-3.288,3.288H3.287A3.287,3.287,0,0,1,0,100.257V3.287A3.287,3.287,0,0,1,3.287,0Z" fill="#353032"/>
            <path id="Trazado_149461" data-name="Trazado 149461" d="M1743.525,461.891a48.551,48.551,0,1,1-48.548-48.558A48.561,48.561,0,0,1,1743.525,461.891Z" transform="translate(-1642.981 -410.118)" fill="#413c40"/>
            <path id="Trazado_149462" data-name="Trazado 149462" d="M1651.915,415.71a3.119,3.119,0,1,1-3.119-3.12A3.12,3.12,0,0,1,1651.915,415.71Z" transform="translate(-1642.589 -409.728)" fill="#5f5860"/>
            <path id="Trazado_149463" data-name="Trazado 149463" d="M1651.915,607.737a3.119,3.119,0,1,1-3.119-3.121A3.12,3.12,0,0,1,1651.915,607.737Z" transform="translate(-1642.589 -510.527)" fill="#5f5860"/>
            <path id="Trazado_149464" data-name="Trazado 149464" d="M1843.924,415.71a3.119,3.119,0,1,1-3.119-3.12A3.12,3.12,0,0,1,1843.924,415.71Z" transform="translate(-1743.38 -409.728)" fill="#5f5860"/>
            <path id="Trazado_149465" data-name="Trazado 149465" d="M1843.924,607.737a3.119,3.119,0,1,1-3.119-3.121A3.12,3.12,0,0,1,1843.924,607.737Z" transform="translate(-1743.38 -510.527)" fill="#5f5860"/>
            <path id="Trazado_149466" data-name="Trazado 149466" d="M1744.246,469.485a41.68,41.68,0,1,1-41.677-41.684A41.687,41.687,0,0,1,1744.246,469.485Z" transform="translate(-1650.574 -417.712)" fill="#272424"/>
            <path id="Trazado_149467" data-name="Trazado 149467" d="M1744.684,474.1a37.507,37.507,0,1,1-37.5-37.512A37.515,37.515,0,0,1,1744.684,474.1Z" transform="translate(-1655.185 -422.322)" fill="#f49300"/>
            <path id="Trazado_149468" data-name="Trazado 149468" d="M1745.056,477.823a34.14,34.14,0,1,1-34.148-34.137A34.138,34.138,0,0,1,1745.056,477.823Z" transform="translate(-1658.915 -426.051)" fill="#ffb600"/>
            <path id="Trazado_149469" data-name="Trazado 149469" d="M1748.118,569.962c0,1.776-2.124,3.213-4.749,3.213s-4.751-1.437-4.751-3.213,2.13-3.215,4.751-3.215S1748.118,568.187,1748.118,569.962Z" transform="translate(-1691.377 -490.649)" fill="#ffc90f"/>
            <path id="Trazado_149470" data-name="Trazado 149470" d="M1711.155,483.368c13.225,0,25.2-3.59,33.924-9.408a34.14,34.14,0,0,0-67.841,0C1685.965,479.78,1697.944,483.368,1711.155,483.368Z" transform="translate(-1659.157 -426.051)" fill="#ffc90f"/>
            <path id="Trazado_149471" data-name="Trazado 149471" d="M1746.765,465.712c0,6.594-7.893,11.933-17.639,11.933s-17.645-5.339-17.645-11.933,7.907-11.947,17.645-11.947S1746.765,459.12,1746.765,465.712Z" transform="translate(-1677.132 -431.342)" fill="#ffe545"/>
          </g>
          <g id="Grupo_98023" data-name="Grupo 98023" transform="translate(3.537 230.37)">
            <path id="Rectángulo_35852" data-name="Rectángulo 35852" d="M3.289,0h96.967a3.288,3.288,0,0,1,3.288,3.288v96.969a3.287,3.287,0,0,1-3.287,3.287H3.287A3.287,3.287,0,0,1,0,100.257V3.289A3.289,3.289,0,0,1,3.289,0Z" fill="#353032"/>
            <path id="Trazado_149472" data-name="Trazado 149472" d="M1743.525,687.585a48.551,48.551,0,1,1-48.548-48.557A48.561,48.561,0,0,1,1743.525,687.585Z" transform="translate(-1642.981 -635.812)" fill="#413c40"/>
            <path id="Trazado_149473" data-name="Trazado 149473" d="M1651.915,641.4a3.119,3.119,0,1,1-3.119-3.121A3.12,3.12,0,0,1,1651.915,641.4Z" transform="translate(-1642.589 -635.421)" fill="#5f5860"/>
            <path id="Trazado_149474" data-name="Trazado 149474" d="M1651.915,833.428a3.119,3.119,0,1,1-3.119-3.12A3.12,3.12,0,0,1,1651.915,833.428Z" transform="translate(-1642.589 -736.22)" fill="#5f5860"/>
            <circle id="Elipse_4743" data-name="Elipse 4743" cx="3.12" cy="3.12" r="3.12" transform="translate(94.305 2.862)" fill="#5f5860"/>
            <path id="Trazado_149475" data-name="Trazado 149475" d="M1843.924,833.428a3.119,3.119,0,1,1-3.119-3.12A3.12,3.12,0,0,1,1843.924,833.428Z" transform="translate(-1743.38 -736.22)" fill="#5f5860"/>
            <path id="Trazado_149476" data-name="Trazado 149476" d="M1744.246,695.179a41.68,41.68,0,1,1-41.677-41.684A41.687,41.687,0,0,1,1744.246,695.179Z" transform="translate(-1650.574 -643.406)" fill="#272424"/>
            <path id="Trazado_149477" data-name="Trazado 149477" d="M1744.684,699.788a37.507,37.507,0,1,1-37.5-37.512A37.514,37.514,0,0,1,1744.684,699.788Z" transform="translate(-1655.185 -648.016)" fill="#413c40"/>
            <path id="Trazado_149478" data-name="Trazado 149478" d="M1745.056,703.517a34.14,34.14,0,1,1-34.148-34.137A34.138,34.138,0,0,1,1745.056,703.517Z" transform="translate(-1658.915 -651.745)" fill="#2f2a2f"/>
            <path id="Trazado_149479" data-name="Trazado 149479" d="M1711.155,709.062c13.225,0,25.2-3.591,33.924-9.408a34.14,34.14,0,0,0-67.841,0C1685.965,705.474,1697.944,709.062,1711.155,709.062Z" transform="translate(-1659.157 -651.745)" fill="#352f35"/>
            <path id="Trazado_149480" data-name="Trazado 149480" d="M1746.765,691.406c0,6.594-7.893,11.934-17.639,11.934s-17.645-5.339-17.645-11.934,7.907-11.946,17.645-11.946S1746.765,684.814,1746.765,691.406Z" transform="translate(-1677.132 -657.036)" fill="#464045"/>
            <path id="Trazado_149481" data-name="Trazado 149481" d="M1748.118,796.146c0,1.776-2.124,3.213-4.749,3.213s-4.751-1.438-4.751-3.213,2.13-3.215,4.751-3.215S1748.118,794.371,1748.118,796.146Z" transform="translate(-1691.377 -716.6)" fill="#464045"/>
          </g>
        </g>
      </g>
    </g>
  </g>
</svg>
