<svg xmlns="http://www.w3.org/2000/svg" width="124" height="124" viewBox="0 0 124 124">
  <g id="Grupo_1186765" data-name="Grupo 1186765" transform="translate(-323.174 -11301.125)">
    <circle id="Elipse_13634" data-name="Elipse 13634" cx="62" cy="62" r="62" transform="translate(323.174 11301.125)" fill="#fff"/>
    <g id="informe-seo" transform="translate(343.887 11327.662)">
      <g id="Grupo_100746" data-name="Grupo 100746" transform="translate(15.832 1.016)">
        <path id="Trazado_151546" data-name="Trazado 151546" d="M67.8,64.364H27.1a2.389,2.389,0,0,1-2.389-2.389V4.146A2.389,2.389,0,0,1,27.1,1.758H67.8a2.389,2.389,0,0,1,2.389,2.389V61.975A2.389,2.389,0,0,1,67.8,64.364Z" transform="translate(-20.008 -1.758)" fill="#3c87d0"/>
        <path id="Trazado_151547" data-name="Trazado 151547" d="M59.669,72.5H18.962a2.389,2.389,0,0,1-2.389-2.389V12.281a2.389,2.389,0,0,1,2.389-2.389H59.669a2.389,2.389,0,0,1,2.389,2.389V70.11A2.389,2.389,0,0,1,59.669,72.5Z" transform="translate(-16.574 -5.192)" fill="#c8effe"/>
        <path id="Trazado_151548" data-name="Trazado 151548" d="M87.51,9.893H82.518a2.389,2.389,0,0,1,2.389,2.389V70.11A2.389,2.389,0,0,1,82.518,72.5H87.51A2.389,2.389,0,0,0,89.9,70.11V12.281A2.389,2.389,0,0,0,87.51,9.893Z" transform="translate(-44.414 -5.192)" fill="#b3dafe"/>
        <g id="Grupo_100740" data-name="Grupo 100740" transform="translate(25.471 13.658)">
          <g id="Grupo_100737" data-name="Grupo 100737">
            <path id="Trazado_151549" data-name="Trazado 151549" d="M74.731,27.285H61.6a.945.945,0,1,1,0-1.889H74.731a.945.945,0,1,1,0,1.889Z" transform="translate(-60.655 -25.395)" fill="#3e5959"/>
          </g>
          <g id="Grupo_100738" data-name="Grupo 100738" transform="translate(0 4.419)">
            <path id="Trazado_151550" data-name="Trazado 151550" d="M74.731,34.934H61.6a.945.945,0,1,1,0-1.889H74.731a.945.945,0,1,1,0,1.889Z" transform="translate(-60.655 -33.044)" fill="#3e5959"/>
          </g>
          <g id="Grupo_100739" data-name="Grupo 100739" transform="translate(0 8.839)">
            <path id="Trazado_151551" data-name="Trazado 151551" d="M74.731,42.582H61.6a.945.945,0,0,1,0-1.889H74.731a.945.945,0,1,1,0,1.889Z" transform="translate(-60.655 -40.693)" fill="#3e5959"/>
          </g>
        </g>
        <g id="Grupo_100741" data-name="Grupo 100741" transform="translate(26.395 47.162)">
          <path id="Trazado_151552" data-name="Trazado 151552" d="M75.407,85.269H63.2a.945.945,0,0,1,0-1.889H75.407a.945.945,0,0,1,0,1.889Z" transform="translate(-62.255 -83.38)" fill="#3e5959"/>
        </g>
        <g id="Grupo_100742" data-name="Grupo 100742" transform="translate(4.992 37.944)">
          <path id="Trazado_151553" data-name="Trazado 151553" d="M39.29,69.314H26.158a.945.945,0,0,1,0-1.889H39.29a.945.945,0,0,1,0,1.889Z" transform="translate(-25.213 -67.425)" fill="#3e5959"/>
        </g>
        <g id="Grupo_100743" data-name="Grupo 100743" transform="translate(4.992 33.524)">
          <path id="Trazado_151554" data-name="Trazado 151554" d="M39.29,61.666H26.158a.945.945,0,0,1,0-1.889H39.29a.945.945,0,0,1,0,1.889Z" transform="translate(-25.213 -59.776)" fill="#3e5959"/>
        </g>
        <path id="Trazado_151555" data-name="Trazado 151555" d="M40.4,18.8v8.776h8.776A8.776,8.776,0,0,0,40.4,18.8Z" transform="translate(-26.634 -8.951)" fill="#ee6161"/>
        <path id="Trazado_151556" data-name="Trazado 151556" d="M33.99,18.8a8.776,8.776,0,1,0,8.776,8.776H33.99Z" transform="translate(-20.222 -8.951)" fill="#fea95c"/>
        <path id="Trazado_151557" data-name="Trazado 151557" d="M73.574,66.627H57.8a.63.63,0,0,1-.63-.63v-9.07a.63.63,0,0,1,.63-.63H73.574a.63.63,0,0,1,.63.63V66A.63.63,0,0,1,73.574,66.627Z" transform="translate(-33.712 -24.783)" fill="#ee6161"/>
        <path id="Trazado_151558" data-name="Trazado 151558" d="M28.6,95.564h-2.76a.63.63,0,0,1-.63-.63V81.157a.63.63,0,0,1,.63-.63H28.6a.63.63,0,0,1,.63.63V94.934A.63.63,0,0,1,28.6,95.564Z" transform="translate(-20.221 -35.013)" fill="#fe7701"/>
        <path id="Trazado_151559" data-name="Trazado 151559" d="M41.58,98.205h-2.76a.63.63,0,0,1-.63-.63V87.413a.63.63,0,0,1,.63-.63h2.76a.63.63,0,0,1,.63.63V97.576a.63.63,0,0,1-.63.63Z" transform="translate(-25.7 -37.654)" fill="#fe9738"/>
        <path id="Trazado_151560" data-name="Trazado 151560" d="M54.558,101.5H51.8a.63.63,0,0,1-.63-.63V95.207a.63.63,0,0,1,.63-.63h2.76a.63.63,0,0,1,.63.63v5.659A.63.63,0,0,1,54.558,101.5Z" transform="translate(-31.179 -40.945)" fill="#fea95c"/>
        <g id="Grupo_100744" data-name="Grupo 100744" transform="translate(26.395 51.804)">
          <path id="Trazado_151561" data-name="Trazado 151561" d="M75.407,93.3H63.2a.945.945,0,0,1,0-1.889H75.407a.945.945,0,0,1,0,1.889Z" transform="translate(-62.255 -91.413)" fill="#3e5959"/>
        </g>
        <g id="Grupo_100745" data-name="Grupo 100745" transform="translate(26.395 56.446)">
          <path id="Trazado_151562" data-name="Trazado 151562" d="M75.407,101.336H63.2a.945.945,0,0,1,0-1.889H75.407a.945.945,0,0,1,0,1.889Z" transform="translate(-62.255 -99.447)" fill="#3e5959"/>
        </g>
      </g>
      <g id="Grupo_100747" data-name="Grupo 100747" transform="translate(14.816 0)">
        <path id="Trazado_151563" data-name="Trazado 151563" d="M61.6,27.285H74.731a.945.945,0,1,0,0-1.889H61.6a.945.945,0,1,0,0,1.889Z" transform="translate(-34.169 -10.721)"/>
        <path id="Trazado_151564" data-name="Trazado 151564" d="M60.655,33.989a.945.945,0,0,0,.945.945H74.731a.945.945,0,1,0,0-1.889H61.6A.945.945,0,0,0,60.655,33.989Z" transform="translate(-34.169 -13.951)"/>
        <path id="Trazado_151565" data-name="Trazado 151565" d="M61.6,42.582H74.731a.945.945,0,1,0,0-1.889H61.6a.945.945,0,0,0,0,1.889Z" transform="translate(-34.169 -17.18)"/>
        <path id="Trazado_151566" data-name="Trazado 151566" d="M76.352,84.324a.945.945,0,0,0-.945-.945H63.2a.945.945,0,1,0,0,1.889H75.407A.945.945,0,0,0,76.352,84.324Z" transform="translate(-34.844 -35.202)"/>
        <path id="Trazado_151567" data-name="Trazado 151567" d="M40.235,68.369a.945.945,0,0,0-.945-.945H26.158a.945.945,0,1,0,0,1.889H39.29A.945.945,0,0,0,40.235,68.369Z" transform="translate(-19.206 -28.466)"/>
        <path id="Trazado_151568" data-name="Trazado 151568" d="M26.158,61.666H39.29a.945.945,0,0,0,0-1.889H26.158a.945.945,0,1,0,0,1.889Z" transform="translate(-19.206 -25.237)"/>
        <path id="Trazado_151569" data-name="Trazado 151569" d="M33.248,17.038a9.791,9.791,0,1,0,9.791,9.791A9.8,9.8,0,0,0,33.248,17.038Zm0,17.552a7.76,7.76,0,0,1-1.016-15.454v7.694a1.016,1.016,0,0,0,1.016,1.016h7.694A7.772,7.772,0,0,1,33.248,34.589Zm1.016-8.776V19.135a7.777,7.777,0,0,1,6.678,6.678Z" transform="translate(-18.464 -7.193)"/>
        <path id="Trazado_151570" data-name="Trazado 151570" d="M55.41,56.185v9.07A1.647,1.647,0,0,0,57.056,66.9H72.832a1.647,1.647,0,0,0,1.646-1.646v-9.07a1.647,1.647,0,0,0-1.646-1.646H57.056a1.647,1.647,0,0,0-1.645,1.646Zm2.031.386h15v8.3h-15Z" transform="translate(-31.954 -23.026)"/>
        <path id="Trazado_151571" data-name="Trazado 151571" d="M23.456,94.192A1.647,1.647,0,0,0,25.1,95.838h2.76a1.647,1.647,0,0,0,1.646-1.646V80.415a1.647,1.647,0,0,0-1.646-1.645H25.1a1.647,1.647,0,0,0-1.645,1.645ZM25.487,80.8h1.988V93.806H25.487Z" transform="translate(-18.464 -33.255)"/>
        <path id="Trazado_151572" data-name="Trazado 151572" d="M38.079,85.025a1.647,1.647,0,0,0-1.646,1.645V96.833a1.647,1.647,0,0,0,1.646,1.646h2.76a1.647,1.647,0,0,0,1.646-1.646V86.671a1.647,1.647,0,0,0-1.646-1.645Zm2.374,11.422H38.465V87.057h1.988Z" transform="translate(-23.942 -35.896)"/>
        <path id="Trazado_151573" data-name="Trazado 151573" d="M51.056,101.77h2.76a1.647,1.647,0,0,0,1.646-1.646V94.465a1.647,1.647,0,0,0-1.646-1.646h-2.76a1.647,1.647,0,0,0-1.646,1.646v5.659A1.647,1.647,0,0,0,51.056,101.77Zm.386-6.918H53.43v4.887H51.442Z" transform="translate(-29.421 -39.187)"/>
        <path id="Trazado_151574" data-name="Trazado 151574" d="M75.407,91.413H63.2a.945.945,0,0,0,0,1.889H75.407a.945.945,0,0,0,0-1.889Z" transform="translate(-34.844 -38.593)"/>
        <path id="Trazado_151575" data-name="Trazado 151575" d="M75.407,99.447H63.2a.945.945,0,0,0,0,1.889H75.407a.945.945,0,0,0,0-1.889Z" transform="translate(-34.844 -41.985)"/>
        <path id="Trazado_151576" data-name="Trazado 151576" d="M66.016,12.593a1.016,1.016,0,0,0,1.016-1.016V3.4a3.408,3.408,0,0,0-3.4-3.4H22.921a3.408,3.408,0,0,0-3.4,3.4V4.7h-1.3a3.408,3.408,0,0,0-3.4,3.4V51.619a1.016,1.016,0,0,0,2.031,0V8.1A1.375,1.375,0,0,1,18.22,6.732H58.927A1.375,1.375,0,0,1,60.3,8.1V65.934a1.375,1.375,0,0,1-1.373,1.373H18.22a1.375,1.375,0,0,1-1.373-1.373V56.359a1.016,1.016,0,0,0-2.031,0v9.574a3.408,3.408,0,0,0,3.4,3.4H58.927a3.408,3.408,0,0,0,3.4-3.4v-1.3h1.3a3.408,3.408,0,0,0,3.4-3.4V16.317a1.016,1.016,0,0,0-2.031,0V61.233a1.375,1.375,0,0,1-1.373,1.373h-1.3V8.1a3.408,3.408,0,0,0-3.4-3.4H21.548V3.4a1.375,1.375,0,0,1,1.373-1.373H63.628A1.375,1.375,0,0,1,65,3.4v8.173a1.016,1.016,0,0,0,1.016,1.016Z" transform="translate(-14.816 0)"/>
      </g>
    </g>
  </g>
</svg>
