<svg id="Grupo_1186767" data-name="Grupo 1186767" xmlns="http://www.w3.org/2000/svg" xmlns:xlink="http://www.w3.org/1999/xlink" width="208" height="177.039" viewBox="0 0 208 177.039">
  <defs>
    <clipPath id="clip-path">
      <rect id="Rectángulo_456382" data-name="Rectángulo 456382" width="208" height="177.039" fill="none"/>
    </clipPath>
  </defs>
  <g id="Grupo_1186766" data-name="Grupo 1186766" clip-path="url(#clip-path)">
    <path id="Trazado_997964" data-name="Trazado 997964" d="M206.568,122.2c4.6-67.976-65.357-103.036-124.4-90.412A83.28,83.28,0,0,0,54.443,43.028a145.788,145.788,0,0,0-22.9,18.726C17.947,75.048,6.315,91.073,1.885,109.845-2.445,128.189.5,147.692,12.641,162.488c25.19,30.7,74.793,32.034,111.054,31.618,20.392-.233,44.331-1.314,60.3-15.578,11.289-10.085,17.695-24.743,20.428-39.631a148.084,148.084,0,0,0,2.148-16.7" transform="translate(0 -17.12)" fill="#21c9b8"/>
    <path id="Trazado_997965" data-name="Trazado 997965" d="M280.48,8.6c.362,2.517,1.967,4.683,3.583,6.557a75.125,75.125,0,0,0,11.49,11.37c3.685,2.756,7.985,4.739,11.32,7.956a16.821,16.821,0,0,1,2.192,2.559,28.691,28.691,0,0,1,1.7,3.078,9.375,9.375,0,0,0,4.759,4.836c3.089,1.194,5.88,5.058,9.213,5.41,8.647.91,3.653-16.013-2.414-21.535C319.2,26,316.632,25,310.982,24.109c-2.076-.327-4.567-.439-6.106-2.209-1.3-1.5-1.57-3.659-2.073-5.511a20.022,20.022,0,0,0-7.08-10.447A19.445,19.445,0,0,0,283.9,1.7a.84.84,0,0,0-.715.358,4.711,4.711,0,0,0-.971.721A6.835,6.835,0,0,0,280.48,8.6" transform="translate(-164.142 -0.997)" fill="#180c45"/>
    <path id="Trazado_997966" data-name="Trazado 997966" d="M252.359,42.9c-.954-5.154-14.869-1.625-15.861-6.771a38.063,38.063,0,0,1-.777-7.659c.014-1.173.034-2.8-1.3-3.3a1.912,1.912,0,0,0-1.972.483,17.784,17.784,0,0,0-9.731,6.027,17.607,17.607,0,0,0-4.065,10.913c-.124,4.493.956,9.191-.681,13.526a8.7,8.7,0,0,1-1.566,2.666,23.447,23.447,0,0,1-2.316,2.161,14.928,14.928,0,0,0-2.238,2.3,8.892,8.892,0,0,0-1.42,2.972,14.685,14.685,0,0,0,.823,9.01,27.663,27.663,0,0,0,3.062,4.45,43.364,43.364,0,0,0,8.5.721,27.412,27.412,0,0,0,7.219-.606,10.781,10.781,0,0,0,6.1-3.883c1.681-2.232,2.428-5.045,3.159-7.7.805-2.925,17.014-4.427,17.091-7.47.066-2.627-3.547-15.259-4.026-17.84" transform="translate(-122.954 -14.671)" fill="#180c45"/>
    <path id="Trazado_997967" data-name="Trazado 997967" d="M237.892,67.912a7.786,7.786,0,1,0,8.1-7.463,7.786,7.786,0,0,0-8.1,7.463" transform="translate(-139.255 -35.382)" fill="#ffb43b"/>
    <path id="Trazado_997968" data-name="Trazado 997968" d="M315.182,322.082c-15.734,10.816-37.153,11.724-55.652,11.938-8.583.1-17.911.1-27.485-.367,1.766-4.954,3.545-9.905,5.431-14.786,2.086-5.4,4.323-10.709,6.83-15.818a108.8,108.8,0,0,1,8.326-14.335c5.281-7.558,12.155-14.606,20.074-18.331,12.712-5.986,25.739,1.493,31.615,12.112,6.276,11.347,9.291,26.183,10.86,39.587" transform="translate(-135.836 -157.033)" fill="#180c45"/>
    <path id="Trazado_997969" data-name="Trazado 997969" d="M357.984,287.32q1.194,10.657,2.9,21.249,1.718,10.663,3.954,21.235,1.257,5.942,2.677,11.848c.1.417.745.241.644-.177q-2.5-10.423-4.5-20.959t-3.485-21.152q-.841-6.01-1.516-12.043c-.047-.422-.715-.427-.668,0" transform="translate(-209.557 -168.007)" fill="#614ab5"/>
    <path id="Trazado_997970" data-name="Trazado 997970" d="M365.986,302.68a15.631,15.631,0,0,0,6.436-7.965,27.151,27.151,0,0,0,1.38-11.968c-.194-2.542-.582-5.064-.973-7.581-.065-.423-.709-.243-.644.177,1.183,7.62,2.346,16.192-2.39,22.906a13.394,13.394,0,0,1-4.146,3.854.334.334,0,0,0,.337.577" transform="translate(-213.951 -160.937)" fill="#614ab5"/>
    <path id="Trazado_997971" data-name="Trazado 997971" d="M33.026,173.894H62.253a4.649,4.649,0,0,0,4.649-4.649V129.063a4.648,4.648,0,0,0-4.649-4.648H33.026a4.648,4.648,0,0,0-4.649,4.648v40.182a4.649,4.649,0,0,0,4.649,4.649" transform="translate(-16.611 -72.831)" fill="#fff"/>
    <path id="Trazado_997972" data-name="Trazado 997972" d="M40.751,123.573H35.228c-2,0-4-.057-5.994,0a1.735,1.735,0,0,0-1.7,1.872v10.032c0,1.816-.058,3.643,0,5.458,0,.029,0,.059,0,.089a.334.334,0,0,0,.668,0V125.976c0-.7-.067-1.616.886-1.731a14.3,14.3,0,0,1,1.676,0h9.985a.334.334,0,0,0,0-.668" transform="translate(-16.104 -72.323)" fill="#180c45"/>
    <path id="Trazado_997973" data-name="Trazado 997973" d="M64.67,162.795h-17.6a.334.334,0,0,0,0,.668h17.6a.334.334,0,0,0,0-.668" transform="translate(-27.365 -95.298)" fill="#180c45"/>
    <path id="Trazado_997974" data-name="Trazado 997974" d="M64.67,150.624h-17.6a.334.334,0,0,0,0,.668h17.6a.334.334,0,0,0,0-.668" transform="translate(-27.365 -88.173)" fill="#180c45"/>
    <path id="Trazado_997975" data-name="Trazado 997975" d="M55.315,138.452H47.069a.334.334,0,0,0,0,.668h8.247a.334.334,0,0,0,0-.668" transform="translate(-27.365 -81.048)" fill="#180c45"/>
    <path id="Trazado_997976" data-name="Trazado 997976" d="M68.8,214.572H51.2a.334.334,0,0,0,0,.668H68.8a.334.334,0,0,0,0-.668" transform="translate(-29.782 -125.607)" fill="#180c45"/>
    <path id="Trazado_997977" data-name="Trazado 997977" d="M68.8,202.4H51.2a.334.334,0,0,0,0,.668H68.8a.334.334,0,0,0,0-.668" transform="translate(-29.782 -118.483)" fill="#180c45"/>
    <path id="Trazado_997978" data-name="Trazado 997978" d="M59.444,190.229H51.2a.334.334,0,0,0,0,.668h8.247a.334.334,0,0,0,0-.668" transform="translate(-29.782 -111.357)" fill="#180c45"/>
    <path id="Trazado_997979" data-name="Trazado 997979" d="M158.577,140.559c5.3-9.089,9.753-19.127,17.9-26.112,6.794-5.828,16.66-8.436,25.7-10.39,1.058-.117.081-.011,1.14-.12q10.206-1.049,20.454-1.6c5.354-.285,10.747-.576,16.121-.546a59.944,59.944,0,0,1,4.813,7.8c5.936,11.449,8.942,24.133,10.678,36.839.9,6.578,11.419,29.1,11.419,29.1-20.921,9.028-48.847,12.449-65.628,10.891-1.3-12.594-5.287-33.154-5.287-33.154-6.3-.951-25.425,7.791-31.3,5.3a61.991,61.991,0,0,1-6.934-3.46,48.958,48.958,0,0,1-5.1-3.336c1.776-3.849,3.885-7.549,6.024-11.213" transform="translate(-89.302 -59.587)" fill="#4050ff"/>
    <path id="Trazado_997980" data-name="Trazado 997980" d="M180.2,213.788c-2.233-1.147-4.4-2.427-6.558-3.71q-3.8-2.261-7.531-4.65c-1.068-.689-2.132-1.387-3.169-2.122-.351-.249-.685.329-.337.576,2.047,1.453,4.182,2.787,6.315,4.11,2.507,1.555,5.036,3.076,7.6,4.539,1.1.63,2.214,1.253,3.344,1.833.381.2.72-.38.337-.576" transform="translate(-95.1 -118.977)" fill="#180c45"/>
    <path id="Trazado_997981" data-name="Trazado 997981" d="M260.859,110.931q5.514,11.08,11.069,22.139,1.471,2.928,2.946,5.854c.193.384.769.046.576-.337q-5.571-11.052-11.091-22.13-1.463-2.931-2.923-5.863c-.191-.385-.767-.047-.576.337" transform="translate(-152.68 -64.641)" fill="#180c45"/>
    <path id="Trazado_997982" data-name="Trazado 997982" d="M310.426,131.432q-4.309,7.3-8.742,14.521-1.557,2.553-3.108,5.109a.334.334,0,0,0,.576.337c2.964-4.887,5.966-9.75,8.9-14.656q1.483-2.483,2.952-4.974a.334.334,0,0,0-.576-.337" transform="translate(-174.752 -76.844)" fill="#180c45"/>
    <path id="Trazado_997983" data-name="Trazado 997983" d="M245.558,166.765q.623,7.659,1.245,15.318c.034.425.7.429.668,0q-.623-7.659-1.245-15.318c-.034-.425-.7-.429-.668,0" transform="translate(-143.745 -97.434)" fill="#180c45"/>
    <path id="Trazado_997984" data-name="Trazado 997984" d="M19.195,259.91c.6-1.225,1.309-2.359,1.766-3.2a54.915,54.915,0,0,1,7.089-10.157c3.335-3.782,6.9-7.071,11.893-8.461a19.672,19.672,0,0,1,5.574-.712v0s35.538-.423,40.422,1.735S100.572,260.771,77.5,265.7a80.029,80.029,0,0,1-29.657.926c-.2.438-1.322.768-2.815,1.013-.3.486-.6.976-.915,1.46a46.178,46.178,0,0,1-2.41,4.232c-1.1,1.709-2.609,3.615-4.625,4.257a3.394,3.394,0,0,1-3.119-.408,4.057,4.057,0,0,1-1.493-2.615,7.618,7.618,0,0,1,.486-3.508c.186-.567.387-1.129.6-1.689l-.032.018c-.262.411-.529.818-.8,1.218-1.154,1.675-2.717,3.534-4.751,4.115a3.4,3.4,0,0,1-3.105-.5,4.056,4.056,0,0,1-1.413-2.659,7.621,7.621,0,0,1,.591-3.492c.323-.892.685-1.771,1.061-2.642a16.579,16.579,0,0,1-3.03,1.262,3.045,3.045,0,0,1-3.144-.563c-1.508-1.634-.777-4.062.279-6.211" transform="translate(-10.571 -138.934)" fill="#c2573c"/>
    <path id="Trazado_997985" data-name="Trazado 997985" d="M41.58,279.594Q38.459,284.9,35,290c-.242.356.337.691.577.337q3.462-5.1,6.584-10.409a.334.334,0,0,0-.576-.337" transform="translate(-20.452 -163.576)" fill="#180c45"/>
    <path id="Trazado_997986" data-name="Trazado 997986" d="M118.162,275.583H83.294l-6.02-6.533a2.337,2.337,0,0,0-1.719-.753H47.163a2.337,2.337,0,0,0-2.251,2.964l13.716,49.28h72.555Z" transform="translate(-26.239 -157.057)" fill="#ffb43b"/>
    <path id="Trazado_997987" data-name="Trazado 997987" d="M144.572,232.586,185.5,248.1a1.336,1.336,0,0,0,1.722-.776l20.188-53.279a1.335,1.335,0,0,0-.776-1.722l-40.931-15.509a1.335,1.335,0,0,0-1.722.776L143.8,230.864a1.336,1.336,0,0,0,.776,1.722" transform="translate(-84.125 -103.451)" fill="#fff"/>
    <path id="Trazado_997988" data-name="Trazado 997988" d="M218.086,234.851l-19.841-7.518c-.4-.152-.576.493-.177.644l19.841,7.518c.4.152.576-.493.177-.644" transform="translate(-115.814 -133.064)" fill="#180c45"/>
    <path id="Trazado_997989" data-name="Trazado 997989" d="M223.284,221.131l-19.841-7.518c-.4-.152-.576.493-.177.644l19.841,7.518c.4.152.576-.493.178-.644" transform="translate(-118.856 -125.032)" fill="#180c45"/>
    <path id="Trazado_997990" data-name="Trazado 997990" d="M217.939,203.415l-9.3-3.523c-.4-.152-.576.493-.178.644l9.3,3.523c.4.152.576-.493.178-.644" transform="translate(-121.9 -117.001)" fill="#180c45"/>
    <path id="Trazado_997991" data-name="Trazado 997991" d="M192.378,267.855l3.6-12.97a13.461,13.461,0,1,0,9.46,16.216Z" transform="translate(-104.735 -148.919)" fill="#d5dbe8"/>
    <path id="Trazado_997992" data-name="Trazado 997992" d="M217.673,263.225l11.607-6.818a13.466,13.466,0,0,0-6.837-5.77q-.523-.2-1.061-.352Z" transform="translate(-127.423 -146.513)" fill="#ff5c33"/>
    <path id="Trazado_997993" data-name="Trazado 997993" d="M216.128,278.516l13.427.956a13.465,13.465,0,0,0-.845-5.74Z" transform="translate(-126.518 -160.239)" fill="#ffb43b"/>
    <path id="Trazado_997994" data-name="Trazado 997994" d="M158.678,332.93H89.762L78.115,358.376H150.67L160.8,336.239a2.337,2.337,0,0,0-2.125-3.309" transform="translate(-45.727 -194.892)" fill="#ffb43b"/>
    <path id="Trazado_997995" data-name="Trazado 997995" d="M240.531,176.325a5.125,5.125,0,0,1,2.009-1.911,42.213,42.213,0,0,1,27.306-6.334c10.347,1.178,42.371,11.464,42.371,11.464-.832-1.179-2.061-3.055-3.015-4.155.585-.435,2.663-2.042,3.238-2.492a119.411,119.411,0,0,0,9.873-8.644c1.149-1.122,4.732-4.3,5.746-5.481,5.847,7.249,10.593,15.293,15.378,23.269,8.685,14.476,7.551,30.455-11.452,32.191-9.249.845-19-3.819-27.689-6.418-5.063-1.513-45.625-17-45.743-16.912-2.077,1.492-4.171,3.261-6.677,3.966a5.2,5.2,0,0,1-3.488-.092c-1.451-.694-1.345-2.168-1.073-3.54a11.4,11.4,0,0,1,.593-1.987,4.153,4.153,0,0,1-2.581.14,2.636,2.636,0,0,1-1.936-2.657c.086-1.265,1.109-2.289,1.919-3.166a39.775,39.775,0,0,1,4.186-3.89c-.158.024-.316.052-.474.075a19.043,19.043,0,0,1-5.732.313,4.112,4.112,0,0,1-2.518-1.161,2.34,2.34,0,0,1-.243-2.578" transform="translate(-140.643 -92.943)" fill="#c2573c"/>
    <path id="Trazado_997996" data-name="Trazado 997996" d="M422.227,210.352q-5.978-2.019-11.734-4.626c-.388-.176-.728.4-.337.577q5.826,2.641,11.893,4.693c.408.138.583-.507.177-.644" transform="translate(-239.998 -120.41)" fill="#180c45"/>
    <path id="Trazado_997997" data-name="Trazado 997997" d="M270.013,209.574a47.2,47.2,0,0,0-11.687,9.088c-.293.314.178.787.472.472a46.608,46.608,0,0,1,11.552-8.983c.376-.207.04-.784-.337-.577" transform="translate(-151.166 -122.656)" fill="#180c45"/>
    <path id="Trazado_997998" data-name="Trazado 997998" d="M269.553,196.074a59.028,59.028,0,0,0-7.5,4.95c-.339.263.136.732.472.472a57.983,57.983,0,0,1,7.369-4.846c.376-.208.039-.785-.337-.576" transform="translate(-153.332 -114.753)" fill="#180c45"/>
    <path id="Trazado_997999" data-name="Trazado 997999" d="M267.638,56.519l6.053,18.135s5.278,6.656,13.044-.846l-6.128-22.975Z" transform="translate(-156.671 -29.757)" fill="#c2573c"/>
    <path id="Trazado_998000" data-name="Trazado 998000" d="M368.485,106.413c10.005,6.909,16.653,16.158,23.813,25.933-12.343,8.728-15.9,10.8-23.785,14.206l-14.333-4.1-17.754-36.794s19.7-7.788,32.06.75" transform="translate(-196.938 -59.951)" fill="#4050ff"/>
    <path id="Trazado_998001" data-name="Trazado 998001" d="M420.2,157.988A197.884,197.884,0,0,1,399.891,171.2q-3.115,1.756-6.286,3.409c-.381.2-.044.775.337.576a199.228,199.228,0,0,0,20.826-12.493q2.919-2.014,5.77-4.124c.342-.253.009-.833-.337-.577" transform="translate(-230.313 -92.447)" fill="#180c45"/>
    <path id="Trazado_998002" data-name="Trazado 998002" d="M359.824,167.549l6.3,11.184a.334.334,0,0,0,.577-.337l-6.3-11.185a.334.334,0,0,0-.577.337" transform="translate(-210.609 -97.788)" fill="#180c45"/>
    <path id="Trazado_998003" data-name="Trazado 998003" d="M298.09,100.893s-14.593,23.915-15.322,24l-10.531-21.358Z" transform="translate(-159.363 -59.061)" fill="#c2573c"/>
    <path id="Trazado_998004" data-name="Trazado 998004" d="M292.665,112.437a9.919,9.919,0,0,1-8.258,2.965,14.4,14.4,0,0,1-8.558-4.3,22.907,22.907,0,0,1-3.324-4.241c-.226-.364-.8-.029-.576.337a20.146,20.146,0,0,0,7.088,7.157,12.539,12.539,0,0,0,9.65,1.3,9.946,9.946,0,0,0,4.451-2.745c.291-.316-.18-.789-.472-.472" transform="translate(-159.164 -62.462)" fill="#ffb43b"/>
    <path id="Trazado_998005" data-name="Trazado 998005" d="M92.639,86.634h36.755a4.648,4.648,0,0,0,4.649-4.649V32.136a4.648,4.648,0,0,0-4.649-4.649H92.639a4.649,4.649,0,0,0-4.649,4.649v49.85a4.649,4.649,0,0,0,4.649,4.649" transform="translate(-51.508 -16.09)" fill="#fff"/>
    <path id="Trazado_998006" data-name="Trazado 998006" d="M133.88,29.973a10.625,10.625,0,0,0-.031-1.946,1.7,1.7,0,0,0-1.664-1.353c-.381-.011-.763,0-1.144,0H89.273a1.88,1.88,0,0,0-1.986,1.036,4.866,4.866,0,0,0-.128,1.767V55.363a.334.334,0,0,0,.668,0V28.722c0-.125-.006-.252,0-.377a1.028,1.028,0,0,1,1.063-1c1.318-.018,2.637,0,3.955,0h38.792c.642,0,1.406-.02,1.557.82a10.487,10.487,0,0,1,.018,1.812.334.334,0,0,0,.668,0" transform="translate(-51.012 -15.612)" fill="#180c45"/>
    <path id="Trazado_998007" data-name="Trazado 998007" d="M87.182,124.53V141.1a2.49,2.49,0,0,0,.528,2.035,3.235,3.235,0,0,0,2.337.452H93.89c2.324,0,4.654.051,6.978,0H101a.334.334,0,0,0,0-.668H95.175c-2.093,0-4.2.079-6.293,0a1.026,1.026,0,0,1-1.033-1.031c-.007-.18,0-.362,0-.541V130.2c0-1.857.061-3.725,0-5.581,0-.029,0-.058,0-.087a.334.334,0,0,0-.668,0" transform="translate(-51.034 -72.709)" fill="#180c45"/>
    <path id="Trazado_998008" data-name="Trazado 998008" d="M131.464,73.523h-21.04a.334.334,0,0,0,0,.668h21.04a.334.334,0,0,0,0-.668" transform="translate(-64.452 -43.039)" fill="#180c45"/>
    <path id="Trazado_998009" data-name="Trazado 998009" d="M131.464,58.974h-21.04a.334.334,0,0,0,0,.668h21.04a.334.334,0,0,0,0-.668" transform="translate(-64.452 -34.523)" fill="#180c45"/>
    <path id="Trazado_998010" data-name="Trazado 998010" d="M120.282,44.424h-9.858a.334.334,0,0,0,0,.668h9.858a.334.334,0,0,0,0-.668" transform="translate(-64.452 -26.005)" fill="#180c45"/>
    <path id="Trazado_998011" data-name="Trazado 998011" d="M140.549,117.851h6.2v-17.23a3.1,3.1,0,0,0-6.2,0Z" transform="translate(-82.275 -57.087)" fill="#4050ff"/>
    <path id="Trazado_998012" data-name="Trazado 998012" d="M159.8,128.671h6.2V119.1a3.1,3.1,0,1,0-6.2,0Z" transform="translate(-93.548 -67.907)" fill="#4050ff"/>
    <path id="Trazado_998013" data-name="Trazado 998013" d="M121.294,114.948h6.2V95.662a3.1,3.1,0,1,0-6.2,0Z" transform="translate(-71.004 -54.184)" fill="#4050ff"/>
    <path id="Trazado_998014" data-name="Trazado 998014" d="M131.954,131.843h3.564V123.2a1.782,1.782,0,1,0-3.564,0Z" transform="translate(-77.244 -71.079)" fill="#ff5c33"/>
    <path id="Trazado_998015" data-name="Trazado 998015" d="M151.21,124.422h3.564v-13.9a1.782,1.782,0,0,0-3.564,0Z" transform="translate(-88.516 -63.658)" fill="#ff5c33"/>
    <path id="Trazado_998016" data-name="Trazado 998016" d="M138.858,145.933H109.813a.334.334,0,0,0,0,.668h29.044a.334.334,0,0,0,0-.668" transform="translate(-64.094 -85.427)" fill="#180c45"/>
    <path id="Trazado_998017" data-name="Trazado 998017" d="M110.132,113.578V90.543a.334.334,0,0,0-.668,0v23.035a.334.334,0,0,0,.668,0" transform="translate(-64.079 -52.814)" fill="#180c45"/>
    <path id="Trazado_998018" data-name="Trazado 998018" d="M71,268.373a4.056,4.056,0,0,0,1.9,2.339,3.394,3.394,0,0,0,3.144-.1c2.371-1.207,3.358-3.83,4.306-6.133,1.2-2.906,2.327-5.837,3.455-8.769a6.694,6.694,0,0,0,.752-3.863,4.49,4.49,0,0,0-2.176-2.735A10.974,10.974,0,0,0,79.312,248a2.834,2.834,0,0,0-3.108.788,15.551,15.551,0,0,0-1.514,3.11q-.66,1.542-1.225,3.123a56.507,56.507,0,0,0-1.909,6.51c-.248,1.092-.469,2.192-.642,3.3a7.618,7.618,0,0,0,.087,3.54" transform="translate(-41.415 -145.096)" fill="#c2573c"/>
    <path id="Trazado_998019" data-name="Trazado 998019" d="M275.239,24.261a7.513,7.513,0,0,0,1.352-3.689c.6-8.463-8.425-15.485-16.4-14.638a12.522,12.522,0,0,0-7.575,3.636c-2.263,2.321-3.622,7.7-2.759,13.677a69.5,69.5,0,0,0-1.751,7.546c-1.155,7.353,3.088,14.1,12.317,8.986,7.292-4.04,6.483-8.575,7.851-10.48,1.156-1.61,4.48-2.3,5.847-3.685a9.887,9.887,0,0,0,1.119-1.353" transform="translate(-145.129 -3.433)" fill="#c2573c"/>
    <path id="Trazado_998020" data-name="Trazado 998020" d="M269.188,8.6c.516,4.036,3.806,9.814,6.27,12.371,2.578,2.671,3.577,2.959,5.619,6.145a1.456,1.456,0,0,1-.8,2.223c.121.155.245.3.362.459a19.53,19.53,0,0,1,3.374,6.669c.684,2.4,1.014,4.892,1.5,7.338a28.786,28.786,0,0,0,2.059,6.729,22.645,22.645,0,0,0,3.54,5.386,20.367,20.367,0,0,0,5.6,4.441q1.667-.2,3.326-.446a34.413,34.413,0,0,1-5.688-9.754,36.159,36.159,0,0,0,9.516,9.107A111.9,111.9,0,0,0,321.68,54.4a20.5,20.5,0,0,0-3.65-10.409c-2.991-4.258-7.6-6.761-12.229-8.874-4.487-2.05-9.229-3.92-12.826-7.417-1.829-1.779,1.726-4.4.789-6.754-1.412-3.556-.975-7.484-2.606-11.092-1.511-3.343-3.919-6.565-7.434-7.957-3.881-1.537-12.671-3.968-14.511,1.449a13.505,13.505,0,0,0-.024,5.256" transform="translate(-157.433 0)" fill="#180c45"/>
    <path id="Trazado_998021" data-name="Trazado 998021" d="M280.078,50.263a4.97,4.97,0,1,0,6.932,1.165,4.971,4.971,0,0,0-6.932-1.165" transform="translate(-162.732 -28.883)" fill="#c2573c"/>
    <path id="Trazado_998022" data-name="Trazado 998022" d="M294.048,59.184a3.326,3.326,0,0,0-.351-3.649.335.335,0,0,0-.472,0,.341.341,0,0,0,0,.472,2.635,2.635,0,0,1,.246,2.84c-.2.379.374.716.577.337" transform="translate(-171.594 -32.452)" fill="#180c45"/>
    <path id="Trazado_998023" data-name="Trazado 998023" d="M267.738,50.3c-1.492-.376-1.846,1.63-1.8,2.488a1.38,1.38,0,0,0,.9,1.415c.988.235,1.393-.969,1.538-1.632.163-.739.335-2.025-.643-2.271" transform="translate(-155.676 -29.419)" fill="#180c45"/>
    <path id="Trazado_998024" data-name="Trazado 998024" d="M253.681,50.3c-1.492-.376-1.846,1.63-1.8,2.488a1.38,1.38,0,0,0,.9,1.415c.988.235,1.393-.969,1.538-1.632.163-.739.335-2.025-.643-2.271" transform="translate(-147.447 -29.419)" fill="#180c45"/>
    <path id="Trazado_998025" data-name="Trazado 998025" d="M258.01,57.967a2.11,2.11,0,0,1-1.656-.357,1.1,1.1,0,0,1-.213-1.486c.293-.483.67-.923,1.008-1.375l.952-1.268c.258-.344-.321-.677-.576-.337l-1.083,1.443a5.4,5.4,0,0,0-1.137,1.8,1.776,1.776,0,0,0,.663,1.765,2.721,2.721,0,0,0,2.042.481.344.344,0,0,0,.334-.334.335.335,0,0,0-.334-.334" transform="translate(-149.427 -31.027)" fill="#180c45"/>
    <path id="Trazado_998026" data-name="Trazado 998026" d="M257.041,71.5a5.6,5.6,0,0,1-.774-1.085,47.913,47.913,0,0,1,6.376-.692c-.45,1.554-1.446,3.015-3.105,2.965a3.569,3.569,0,0,1-2.5-1.187" transform="translate(-150.015 -40.817)" fill="#fae4d4"/>
    <path id="Trazado_998027" data-name="Trazado 998027" d="M258.377,5.663a.838.838,0,0,0-.131-.2,2.9,2.9,0,0,0-2.21-.518,5.159,5.159,0,0,0-2.214.818,10.439,10.439,0,0,0-4.207,5.521,11.491,11.491,0,0,0-.6,3.557c-.006.807-.1,2.927.882,3.187,1.5.4,3.639-.748,4.77-1.659a9.978,9.978,0,0,0,2.918-4.106,14.382,14.382,0,0,0,.964-3.5,8.493,8.493,0,0,0,.044-1.864,3.94,3.94,0,0,0-.218-1.234" transform="translate(-145.768 -2.881)" fill="#180c45"/>
    <path id="Trazado_998028" data-name="Trazado 998028" d="M266.9,42.98a3.187,3.187,0,0,0,1.581.7,10.256,10.256,0,0,0,2.005.175,3.141,3.141,0,0,0,1.911-.385,1.356,1.356,0,0,0,.176-1.978,4.126,4.126,0,0,0-1.292-1.075c-1.209-.667-4.7-1.147-5.011.834a1.963,1.963,0,0,0,.63,1.729" transform="translate(-155.858 -23.32)" fill="#180c45"/>
    <path id="Trazado_998029" data-name="Trazado 998029" d="M254.24,40.384c-.11-1.479-2.06-1.759-3.579-1.576-1.334.209-1.2,3.873.25,3.873a8.655,8.655,0,0,0,.925-.057,3.163,3.163,0,0,0,1.632-.571,1.963,1.963,0,0,0,.771-1.669" transform="translate(-146.192 -22.688)" fill="#180c45"/>
    <path id="Trazado_998030" data-name="Trazado 998030" d="M268.214,43.494a.028.028,0,0,1,0-.006h0l0,.007h0" transform="translate(-157.008 -25.457)" fill="#180c45"/>
    <path id="Trazado_998031" data-name="Trazado 998031" d="M286.475,75.4a7.786,7.786,0,1,0,5.14-9.738,7.786,7.786,0,0,0-5.14,9.738" transform="translate(-167.494 -38.231)" fill="#ffb43b"/>
    <path id="Trazado_998032" data-name="Trazado 998032" d="M278.027,84.193a7.557,7.557,0,0,1-2.649,1.879.345.345,0,0,0-.233.41.336.336,0,0,0,.411.233,8.31,8.31,0,0,0,2.943-2.051.341.341,0,0,0,0-.472.337.337,0,0,0-.472,0" transform="translate(-161.059 -49.229)" fill="#180c45"/>
    <path id="Trazado_998033" data-name="Trazado 998033" d="M127.537,331.561H91.984a7.589,7.589,0,0,0-2.179.12,2.854,2.854,0,0,0-1.743,1.593c-.447.964-.883,1.933-1.324,2.9l-2.719,5.954-5.379,11.78-1.305,2.858c-.177.388.4.728.577.337l10.664-23.356a2.268,2.268,0,0,1,2.143-1.52c.265,0,.531,0,.8,0h28.919c2.33,0,4.671.067,7,0h.1a.334.334,0,0,0,0-.668" transform="translate(-45.251 -194.08)" fill="#180c45"/>
    <path id="Trazado_998034" data-name="Trazado 998034" d="M323.484,377.459a213.186,213.186,0,0,1-2.546-25.66c-.055-2.464-.029-4.929.1-7.39.022-.429-.646-.428-.668,0a145.02,145.02,0,0,0,1.516,26.35c.3,2.295.624,4.586.954,6.877.061.424.7.243.644-.177" transform="translate(-187.464 -201.424)" fill="#614ab5"/>
  </g>
</svg>
