<svg id="graficas" xmlns="http://www.w3.org/2000/svg" width="136" height="136" viewBox="0 0 136 136">
  <path id="Trazado_151734" data-name="Trazado 151734" d="M2.267,20.4H133.733v68H2.267Zm0,0" fill="#5aaae7"/>
  <path id="Trazado_151735" data-name="Trazado 151735" d="M133.733,20.4v68H2.267C61.753,80.89,106.97,59.575,133.733,20.4Zm0,0" fill="#3d9ae2"/>
  <path id="Trazado_151736" data-name="Trazado 151736" d="M92.933,124.666a4.533,4.533,0,1,1,0,9.067H43.067a4.533,4.533,0,1,1,0-9.067Zm0,0" fill="#787680"/>
  <path id="Trazado_151737" data-name="Trazado 151737" d="M86.133,124.666H49.867l2.267-18.133H83.867Zm0,0" fill="#898890"/>
  <path id="Trazado_151738" data-name="Trazado 151738" d="M133.733,88.4v9.067a9.093,9.093,0,0,1-9.067,9.067H11.333a9.093,9.093,0,0,1-9.067-9.067V88.4Zm0,0" fill="#c6c5ca"/>
  <path id="Trazado_151739" data-name="Trazado 151739" d="M133.733,11.333V20.4H2.267V11.333a9.093,9.093,0,0,1,9.067-9.067H124.666A9.067,9.067,0,0,1,133.733,11.333Zm0,0" fill="#ff5023"/>
  <path id="Trazado_151740" data-name="Trazado 151740" d="M84.433,111.066H51.567l.567-4.533H83.867Zm0,0" fill="#787680"/>
  <path id="Trazado_151741" data-name="Trazado 151741" d="M83.867,34h13.6V74.8h-13.6Zm0,0" fill="#ff9811"/>
  <path id="Trazado_151742" data-name="Trazado 151742" d="M61.2,43.067H74.8V74.8H61.2Zm0,0" fill="#00ccb3"/>
  <path id="Trazado_151743" data-name="Trazado 151743" d="M38.533,52.133h13.6V74.8h-13.6Zm0,0" fill="#ffd422"/>
  <path id="Trazado_151744" data-name="Trazado 151744" d="M36.267,72.533H24.933v4.533h86.133V72.533H99.733V34a2.267,2.267,0,0,0-2.267-2.267h-13.6A2.267,2.267,0,0,0,81.6,34V72.533H77.067V43.067A2.267,2.267,0,0,0,74.8,40.8H61.2a2.267,2.267,0,0,0-2.267,2.267V72.533H54.4v-20.4a2.267,2.267,0,0,0-2.267-2.267h-13.6a2.267,2.267,0,0,0-2.267,2.267ZM86.133,36.267H95.2V72.533H86.133ZM63.467,45.333h9.067v27.2H63.467ZM49.867,54.4V72.533H40.8V54.4Zm0,0"/>
  <path id="Trazado_151745" data-name="Trazado 151745" d="M13.6,31.733h4.533v4.533H13.6Zm0,0"/>
  <path id="Trazado_151746" data-name="Trazado 151746" d="M22.667,31.733h13.6v4.533h-13.6Zm0,0"/>
  <path id="Trazado_151747" data-name="Trazado 151747" d="M13.6,40.8H36.267v4.533H13.6Zm0,0"/>
  <path id="Trazado_151748" data-name="Trazado 151748" d="M111.066,31.733H122.4v4.533H111.066Zm0,0"/>
  <path id="Trazado_151749" data-name="Trazado 151749" d="M111.066,40.8H122.4v4.533H111.066Zm0,0"/>
  <path id="Trazado_151750" data-name="Trazado 151750" d="M124.666,0H11.333A11.347,11.347,0,0,0,0,11.333V97.466A11.347,11.347,0,0,0,11.333,108.8H49.566l-1.7,13.6h-4.8a6.8,6.8,0,1,0,0,13.6H92.933a6.8,6.8,0,0,0,0-13.6h-4.8l-1.7-13.6h38.232A11.347,11.347,0,0,0,136,97.466V11.333A11.347,11.347,0,0,0,124.667,0ZM11.333,4.533H124.666a6.8,6.8,0,0,1,6.8,6.8v6.8H4.533v-6.8A6.8,6.8,0,0,1,11.333,4.533ZM131.466,22.667V86.133H4.533V22.667ZM95.2,129.2a2.267,2.267,0,0,1-2.267,2.267H43.067a2.267,2.267,0,0,1,0-4.533H92.933A2.267,2.267,0,0,1,95.2,129.2Zm-11.634-6.8H52.434l1.7-13.6H81.865Zm41.1-18.133H11.333a6.8,6.8,0,0,1-6.8-6.8v-6.8H131.467v6.8A6.8,6.8,0,0,1,124.667,104.266Zm0,0"/>
  <path id="Trazado_151751" data-name="Trazado 151751" d="M117.866,95.2H122.4v4.533h-4.533Zm0,0"/>
  <path id="Trazado_151752" data-name="Trazado 151752" d="M13.6,9.067h4.533V13.6H13.6Zm0,0"/>
  <path id="Trazado_151753" data-name="Trazado 151753" d="M22.667,9.067H27.2V13.6H22.667Zm0,0"/>
  <path id="Trazado_151754" data-name="Trazado 151754" d="M31.733,9.067h4.533V13.6H31.733Zm0,0"/>
</svg>
