<svg xmlns="http://www.w3.org/2000/svg" xmlns:xlink="http://www.w3.org/1999/xlink" width="103" height="103" viewBox="0 0 103 103">
  <defs>
    <filter id="Elipse_13737" x="0" y="0" width="103" height="103" filterUnits="userSpaceOnUse">
      <feOffset dy="3" input="SourceAlpha"/>
      <feGaussianBlur stdDeviation="3" result="blur"/>
      <feFlood flood-opacity="0.161"/>
      <feComposite operator="in" in2="blur"/>
      <feComposite in="SourceGraphic"/>
    </filter>
  </defs>
  <g id="Grupo_1186780" data-name="Grupo 1186780" transform="translate(-282 -2996)">
    <g id="Grupo_1186404" data-name="Grupo 1186404" transform="translate(291 3002)">
      <g transform="matrix(1, 0, 0, 1, -9, -6)" filter="url(#Elipse_13737)">
        <circle id="Elipse_13737-2" data-name="Elipse 13737" cx="42.5" cy="42.5" r="42.5" transform="translate(9 6)" fill="#fff"/>
      </g>
    </g>
    <g id="anadir" transform="translate(312.505 3027.61)">
      <g id="Grupo_100678" data-name="Grupo 100678" transform="translate(0.82 0.82)">
        <ellipse id="Elipse_4779" data-name="Elipse 4779" cx="4.137" cy="4.137" rx="4.137" ry="4.137" transform="translate(16.039 15.238)" fill="none"/>
        <path id="Trazado_151342" data-name="Trazado 151342" d="M15.128,48.979a1.592,1.592,0,0,1-2.251,0l-.132-.132H1.309v8.071A1.686,1.686,0,0,0,2.995,58.6H14.012A1.686,1.686,0,0,0,15.7,56.917V48.846H15.26Z" transform="translate(-1.309 -19.854)" fill="#fff"/>
        <path id="Trazado_151343" data-name="Trazado 151343" d="M11.734,45.812a1.592,1.592,0,0,1,0-2.251l.136-.136H2.995A1.686,1.686,0,0,0,1.309,45.11v1.712H12.744Z" transform="translate(-1.309 -17.83)" fill="#a5dbff"/>
        <path id="Trazado_151344" data-name="Trazado 151344" d="M24.007,48.586v-.437l-.437.437Z" transform="translate(-9.618 -19.593)" fill="#a5dbff"/>
        <path id="Trazado_151345" data-name="Trazado 151345" d="M42.732,48.148v.437h.437Z" transform="translate(-16.771 -19.593)" fill="#9593e6"/>
        <path id="Trazado_151346" data-name="Trazado 151346" d="M11.734,15.378l1.143-1.143a1.592,1.592,0,0,1,2.251,0l.57.57v-6.8H1.309v8.071a1.686,1.686,0,0,0,1.686,1.686H11.87l-.136-.136a1.592,1.592,0,0,1,0-2.251ZM10.356,13.8l-2.566,1.5a1.131,1.131,0,0,1-1.7-.977V11.323a1.131,1.131,0,0,1,1.7-.977l2.566,1.5A1.131,1.131,0,0,1,10.356,13.8Z" transform="translate(-1.309 -4.61)" fill="#fff"/>
        <path id="Trazado_151347" data-name="Trazado 151347" d="M15.7,4.272a1.686,1.686,0,0,0-1.686-1.686H2.995A1.686,1.686,0,0,0,1.309,4.272V5.985H15.7Z" transform="translate(-1.309 -2.586)" fill="#9593e6"/>
        <path id="Trazado_151348" data-name="Trazado 151348" d="M45.554,14.235,46.7,15.378a1.592,1.592,0,0,1,0,2.251l-.136.136h8.875a1.686,1.686,0,0,0,1.686-1.686V8.009H42.732v6.8l.57-.57a1.592,1.592,0,0,1,2.251,0Z" transform="translate(-16.771 -4.61)" fill="#fff"/>
        <path id="Trazado_151349" data-name="Trazado 151349" d="M57.122,4.272a1.686,1.686,0,0,0-1.686-1.686H44.419a1.686,1.686,0,0,0-1.686,1.686V5.985H57.122Z" transform="translate(-16.771 -2.586)" fill="#a5dbff"/>
        <path id="Trazado_151350" data-name="Trazado 151350" d="M13.2,13.14l-2.566-1.5a1.131,1.131,0,0,0-1.7.977v2.991a1.131,1.131,0,0,0,1.7.977l2.566-1.5A1.131,1.131,0,0,0,13.2,13.14Z" transform="translate(-4.156 -5.91)" fill="#66e4d1"/>
        <path id="Trazado_151351" data-name="Trazado 151351" d="M32.125,35.519a1.592,1.592,0,0,0,2.251,0l.132-.132,1.011-1.011a1.592,1.592,0,0,0,0-2.251l-.136-.136L33.7,30.307a9.082,9.082,0,0,0,.887-2.138h2.57a1.592,1.592,0,0,0,1.592-1.592V24.961a1.592,1.592,0,0,0-1.592-1.592h-2.57a9.078,9.078,0,0,0-.887-2.138l1.682-1.682.136-.136a1.592,1.592,0,0,0,0-2.251l-1.143-1.143a1.592,1.592,0,0,0-2.251,0l-.57.57-1.248,1.248a9.082,9.082,0,0,0-2.138-.887V14.38a1.592,1.592,0,0,0-1.592-1.592H24.96a1.592,1.592,0,0,0-1.592,1.592v2.57a9.078,9.078,0,0,0-2.138.887l-1.818-1.818a1.592,1.592,0,0,0-2.251,0l-1.143,1.143a1.592,1.592,0,0,0,0,2.251l.136.136,1.682,1.682a9.079,9.079,0,0,0-.887,2.138h-2.57a1.592,1.592,0,0,0-1.592,1.592v1.616a1.592,1.592,0,0,0,1.592,1.592h2.57a9.082,9.082,0,0,0,.887,2.138l-1.682,1.682-.136.136a1.592,1.592,0,0,0,0,2.251l1.011,1.011.132.132a1.592,1.592,0,0,0,2.251,0L21.231,33.7a9.078,9.078,0,0,0,2.138.887v2.57A1.592,1.592,0,0,0,24.96,38.75h1.616a1.592,1.592,0,0,0,1.592-1.592v-2.57a9.078,9.078,0,0,0,2.138-.887l1.248,1.248.437.437Zm-6.356-5.614a4.137,4.137,0,1,1,4.137-4.137A4.137,4.137,0,0,1,25.769,29.906Z" transform="translate(-5.593 -6.394)" fill="#fff398"/>
        <path id="Trazado_151352" data-name="Trazado 151352" d="M48.456,45.812l-1.011,1.011H58.881V45.11a1.686,1.686,0,0,0-1.686-1.686H48.319l.136.136A1.592,1.592,0,0,1,48.456,45.812Z" transform="translate(-18.53 -17.83)" fill="#9593e6"/>
        <path id="Trazado_151353" data-name="Trazado 151353" d="M48.37,53.961l1.687,1.406a1.319,1.319,0,0,0,1.639.04l.861-.65a1.917,1.917,0,0,1,2.243-.047l2.321,1.6V48.846H45.686l-.132.132a1.592,1.592,0,0,1-2.251,0l-.132-.132h-.437v7.19l3.359-2.205A1.917,1.917,0,0,1,48.37,53.961Z" transform="translate(-16.771 -19.854)" fill="#fff"/>
        <path id="Trazado_151354" data-name="Trazado 151354" d="M57.119,59.7v-.605l-2.321-1.6a1.917,1.917,0,0,0-2.243.047l-.861.65a1.319,1.319,0,0,1-1.639-.04l-1.687-1.406a1.917,1.917,0,0,0-2.279-.13L42.73,58.817c.055.621-.277,1.732.9,2.374.662.348.22.123,11.8.193A1.686,1.686,0,0,0,57.119,59.7Z" transform="translate(-16.768 -22.635)" fill="#66e4d1"/>
      </g>
      <g id="Grupo_100679" data-name="Grupo 100679" transform="translate(0 0)">
        <path id="Trazado_151355" data-name="Trazado 151355" d="M39.485,1.277H28.468a2.509,2.509,0,0,0-2.506,2.506v8.168l-.579.579a9.9,9.9,0,0,0-1.166-.484V10.083A2.415,2.415,0,0,0,21.8,7.671H20.188a2.415,2.415,0,0,0-2.413,2.412v1.964a9.893,9.893,0,0,0-1.166.484l-.579-.579V3.783a2.509,2.509,0,0,0-2.506-2.506H2.506A2.509,2.509,0,0,0,0,3.783v9.783a2.509,2.509,0,0,0,2.506,2.506h8.535l1.013,1.013a9.9,9.9,0,0,0-.484,1.166H9.606a2.415,2.415,0,0,0-2.412,2.413V22.28a2.415,2.415,0,0,0,2.412,2.413H11.57a9.888,9.888,0,0,0,.484,1.166l-1.013,1.013H2.506A2.509,2.509,0,0,0,0,29.378v9.783a2.509,2.509,0,0,0,2.506,2.506H13.523a2.509,2.509,0,0,0,2.506-2.506V30.993l.579-.579a9.887,9.887,0,0,0,1.166.484v1.964a2.415,2.415,0,0,0,2.413,2.412H21.8a2.415,2.415,0,0,0,2.413-2.412V30.9a9.9,9.9,0,0,0,1.166-.484l.579.579v8.168a2.509,2.509,0,0,0,2.506,2.506H39.485a2.509,2.509,0,0,0,2.506-2.506V29.378a2.509,2.509,0,0,0-2.506-2.506H30.95l-1.013-1.013a9.888,9.888,0,0,0,.484-1.166h1.964A2.415,2.415,0,0,0,34.8,22.28V20.664a2.415,2.415,0,0,0-2.412-2.413H30.421a9.9,9.9,0,0,0-.484-1.166l1.013-1.013h8.535a2.509,2.509,0,0,0,2.506-2.506V3.784h0a2.509,2.509,0,0,0-2.506-2.506ZM1.64,3.784a.867.867,0,0,1,.866-.866H13.523a.867.867,0,0,1,.866.866v.892H1.64Zm.866,10.648a.867.867,0,0,1-.866-.866V6.316H14.389V10.6a2.439,2.439,0,0,0-.693-.156c-1.563-.118-2.093,1.039-3.032,1.841A2.416,2.416,0,0,0,10,14.432ZM1.64,29.378a.867.867,0,0,1,.866-.866H10a2.425,2.425,0,0,0,.349,1.758H1.64Zm12.749,9.783a.867.867,0,0,1-.866.866H2.506a.867.867,0,0,1-.866-.866V31.91H11.924a2.417,2.417,0,0,0,2.466.435ZM30.067,31.91H40.351v5.083l-1.035-.714a2.733,2.733,0,0,0-3.2.067l-.861.65a.5.5,0,0,1-.62-.015l-1.687-1.405a2.722,2.722,0,0,0-3.255-.185L27.6,36.76V32.345a2.42,2.42,0,0,0,2.466-.435Zm10.283,7.251a.867.867,0,0,1-.866.866H28.468a.867.867,0,0,1-.866-.866v-.438L30.59,36.76a1.09,1.09,0,0,1,1.3.074l1.687,1.406a2.131,2.131,0,0,0,2.658.065l.861-.65a1.1,1.1,0,0,1,1.284-.027l1.967,1.358Zm-.866-10.648a.867.867,0,0,1,.866.866v.891H31.642a2.426,2.426,0,0,0,.349-1.758Zm-7.1-8.62a.773.773,0,0,1,.772.773V22.28a.773.773,0,0,1-.772.773h-2.57a.82.82,0,0,0-.792.606,8.252,8.252,0,0,1-.807,1.944.82.82,0,0,0,.132.988l1.818,1.818a.773.773,0,0,1,0,1.091l-1.143,1.143a.773.773,0,0,1-1.091,0L27.8,30.51l-1.685-1.685a.82.82,0,0,0-.988-.132,8.253,8.253,0,0,1-1.944.806.82.82,0,0,0-.606.792v2.57a.773.773,0,0,1-.773.772H20.188a.773.773,0,0,1-.773-.772v-2.57a.82.82,0,0,0-.606-.792c-1.584-.43-1.865-.915-2.352-.915a.82.82,0,0,0-.58.24L14.06,30.643a.8.8,0,0,1-1.224-.133c-.938-.976-1.111-1.019-1.2-1.336a.86.86,0,0,1,.33-.9l1.682-1.682a.82.82,0,0,0,.132-.988,8.249,8.249,0,0,1-.807-1.944.82.82,0,0,0-.792-.606H9.606a.773.773,0,0,1-.772-.773V20.664a.773.773,0,0,1,.772-.773h2.57a.82.82,0,0,0,.792-.606,8.25,8.25,0,0,1,.807-1.944.82.82,0,0,0-.132-.988l-1.818-1.818a.773.773,0,0,1,0-1.091c1.194-1.192,1.146-1.151,1.2-1.2a.773.773,0,0,1,1.033.053l.285.285,1.533,1.533a.82.82,0,0,0,.988.132,8.255,8.255,0,0,1,1.944-.807.82.82,0,0,0,.606-.792v-2.57a.773.773,0,0,1,.773-.772H21.8a.773.773,0,0,1,.773.772v2.57a.82.82,0,0,0,.606.792,8.257,8.257,0,0,1,1.944.807.82.82,0,0,0,.988-.132L27.932,12.3a.772.772,0,0,1,1.091,0l1.143,1.143a.773.773,0,0,1,0,1.091l-1.818,1.818a.82.82,0,0,0-.132.988,8.251,8.251,0,0,1,.807,1.944.82.82,0,0,0,.792.606Zm7.1-5.46H31.991a2.427,2.427,0,0,0-.3-1.684,10.322,10.322,0,0,0-1.5-1.606A2.419,2.419,0,0,0,27.6,10.6V6.316h5.559a.82.82,0,0,0,0-1.64H27.6V3.784a.867.867,0,0,1,.866-.866H39.485a.867.867,0,0,1,.866.866v.892h-.629a.82.82,0,0,0,0,1.64h.629v7.25A.867.867,0,0,1,39.485,14.432Z" transform="translate(0 -1.277)"/>
        <path id="Trazado_151356" data-name="Trazado 151356" d="M13.127,15.314a1.951,1.951,0,0,0,0-3.372l-2.566-1.5a1.951,1.951,0,0,0-2.934,1.686v2.991a1.954,1.954,0,0,0,1.951,1.954C10.442,17.078,10.772,16.608,13.127,15.314ZM12.3,13.9l-2.566,1.5a.31.31,0,0,1-.467-.269V12.133a.31.31,0,0,1,.467-.269l2.566,1.5a.31.31,0,0,1,0,.537Z" transform="translate(-2.847 -4.6)"/>
        <path id="Trazado_151357" data-name="Trazado 151357" d="M15.758,51.494H11.071a.82.82,0,1,0,0,1.64h4.687a.82.82,0,0,0,0-1.64Z" transform="translate(-3.826 -20.021)"/>
        <path id="Trazado_151358" data-name="Trazado 151358" d="M13.884,55.377H6.049a.82.82,0,0,0,0,1.64h7.834a.82.82,0,0,0,0-1.64Z" transform="translate(-1.952 -21.471)"/>
        <path id="Trazado_151359" data-name="Trazado 151359" d="M13.884,59.261H6.049a.82.82,0,0,0,0,1.64h7.834a.82.82,0,0,0,0-1.64Z" transform="translate(-1.952 -22.92)"/>
        <path id="Trazado_151360" data-name="Trazado 151360" d="M54.3,13.2h-.612v-.612a.82.82,0,1,0-1.64,0V13.2h-.612a.82.82,0,0,0,0,1.64h.612v.612a.82.82,0,1,0,1.64,0v-.612H54.3a.82.82,0,0,0,0-1.64Z" transform="translate(-18.894 -5.195)"/>
        <path id="Trazado_151361" data-name="Trazado 151361" d="M30.548,25.591A4.957,4.957,0,1,0,35.5,30.548,4.962,4.962,0,0,0,30.548,25.591Zm0,8.273a3.317,3.317,0,1,1,3.317-3.317A3.32,3.32,0,0,1,30.548,33.864Z" transform="translate(-9.552 -10.353)"/>
        <path id="Trazado_151362" data-name="Trazado 151362" d="M57.659,6.7h0a.82.82,0,1,0,.822.82A.819.819,0,0,0,57.657,6.7Z" transform="translate(-21.216 -3.301)"/>
      </g>
    </g>
  </g>
</svg>
