<svg xmlns="http://www.w3.org/2000/svg" xmlns:xlink="http://www.w3.org/1999/xlink" width="103" height="103" viewBox="0 0 103 103">
  <defs>
    <filter id="Elipse_13737" x="0" y="0" width="103" height="103" filterUnits="userSpaceOnUse">
      <feOffset dy="3" input="SourceAlpha"/>
      <feGaussianBlur stdDeviation="3" result="blur"/>
      <feFlood flood-opacity="0.161"/>
      <feComposite operator="in" in2="blur"/>
      <feComposite in="SourceGraphic"/>
    </filter>
  </defs>
  <g id="Grupo_1186779" data-name="Grupo 1186779" transform="translate(-800 -2871)">
    <g id="Grupo_1186402" data-name="Grupo 1186402" transform="translate(809 2877)">
      <g transform="matrix(1, 0, 0, 1, -9, -6)" filter="url(#Elipse_13737)">
        <circle id="Elipse_13737-2" data-name="Elipse 13737" cx="42.5" cy="42.5" r="42.5" transform="translate(9 6)" fill="#fff"/>
      </g>
    </g>
    <g id="ventas" transform="translate(831.75 2896)">
      <path id="Trazado_151363" data-name="Trazado 151363" d="M36.626,41.361H30.555V20.169a2.422,2.422,0,0,1,2.422-2.422H34.2a2.421,2.421,0,0,1,2.422,2.422Zm0,0" transform="translate(-9.166 -5.297)" fill="#abebf4"/>
      <path id="Trazado_151364" data-name="Trazado 151364" d="M36.626,36.672a32.989,32.989,0,0,1-6.071,2.163V47.01h6.071Zm0,0" transform="translate(-9.166 -10.946)" fill="#8ed7e8"/>
      <path id="Trazado_151365" data-name="Trazado 151365" d="M24.213,43.769H18.143V27.927a2.112,2.112,0,0,1,2.111-2.112H22.1a2.112,2.112,0,0,1,2.112,2.112Zm0,0" transform="translate(-5.461 -7.705)" fill="#b2e59c"/>
      <path id="Trazado_151366" data-name="Trazado 151366" d="M49.039,35.155H42.969V10.7A2.406,2.406,0,0,1,45.375,8.3h1.258A2.406,2.406,0,0,1,49.039,10.7Zm0,0" transform="translate(-12.871 -2.476)" fill="#ffde55"/>
      <path id="Trazado_151367" data-name="Trazado 151367" d="M49.039,28.605a39.611,39.611,0,0,1-6.071,4.289v8.323h6.071Zm0,0" transform="translate(-12.871 -8.538)" fill="#ffcd00"/>
      <path id="Trazado_151368" data-name="Trazado 151368" d="M14.326,37.544l12.206-6.479a2.041,2.041,0,0,1,2.958,2.21,5.914,5.914,0,0,1-2.024,3.51L26.215,37.8a.849.849,0,0,0,.534,1.508l5.016,0a7.939,7.939,0,0,0,4.57-1.445l5.606-3.942a2.635,2.635,0,0,1,3.189,4.192l-7.343,6.034a7.938,7.938,0,0,1-3.152,1.577l-16.1,3.941Zm0,0" transform="translate(-4.322 -9.2)" fill="#ffe2d9"/>
      <path id="Trazado_151369" data-name="Trazado 151369" d="M21.089,46.206c-4.623-1.357-4.278-7.681-4.278-7.681l-2.484,1.319L18.54,51.965l12.269-3c-2.585-.718-6.743-1.882-9.72-2.755Zm0,0" transform="translate(-4.322 -11.499)" fill="#ffcfc2"/>
      <path id="Trazado_151370" data-name="Trazado 151370" d="M10.48,40.4l4.561,12.172A3.556,3.556,0,0,1,12.5,57.292l-4.362.991A3.556,3.556,0,0,1,3.908,55.71L1.559,46.671A3.662,3.662,0,0,1,4.1,42.228Zm0,0" transform="translate(-0.475 -12.06)" fill="#8ed7e8"/>
      <path id="Trazado_151371" data-name="Trazado 151371" d="M15.041,53.15l-.711-1.9A11.763,11.763,0,0,0,8.935,50.3a3.567,3.567,0,0,1-3.724-3.674,24.618,24.618,0,0,1,.551-4.3L4.1,42.8a3.663,3.663,0,0,0-2.538,4.443l2.349,9.038a3.556,3.556,0,0,0,4.229,2.573l4.362-.991a3.556,3.556,0,0,0,2.542-4.715Zm0,0" transform="translate(-0.475 -12.634)" fill="#7ac1dd"/>
      <path id="Trazado_151372" data-name="Trazado 151372" d="M13.446,57.867a2.024,2.024,0,1,1-2.024-2.024A2.024,2.024,0,0,1,13.446,57.867Zm0,0" transform="translate(-2.851 -16.669)" fill="#ffeb99"/>
      <path id="Trazado_151373" data-name="Trazado 151373" d="M26.245.981H20.74a1.429,1.429,0,0,0,0,2.859H22.7L16.957,9.367,14.235,7.959a1.43,1.43,0,0,0-1.671.263L1.46,19.411a1.429,1.429,0,0,0,2.029,2.014L13.854,10.981l2.7,1.4a1.43,1.43,0,0,0,1.648-.24l6.614-6.366V7.965a1.429,1.429,0,1,0,2.859,0V2.411s0,0,0,0A1.324,1.324,0,0,0,26.245.981Zm0,0" transform="translate(-0.358 -0.293)" fill="#97f7e5"/>
      <path id="Trazado_151374" data-name="Trazado 151374" d="M41.695,26.738c-2.16-2.15-4.656-.138-4.656-.138V15.281a.688.688,0,1,0-1.377,0V27.569a37.524,37.524,0,0,1-4.694,3.221V10.409a1.72,1.72,0,0,1,1.718-1.718h1.258a1.72,1.72,0,0,1,1.718,1.718v2.054a.688.688,0,1,0,1.377,0V10.409a3.1,3.1,0,0,0-3.1-3.095H32.686a3.1,3.1,0,0,0-3.1,3.095V31.335a7.229,7.229,0,0,1-1.26.235V17.055a3.114,3.114,0,0,0-3.11-3.11H23.993a3.114,3.114,0,0,0-3.11,3.11V24.07l-1.26.669V22.4a2.8,2.8,0,0,0-2.8-2.8H14.975a2.8,2.8,0,0,0-2.8,2.8v6.288L9.927,29.885l-6.313,1.8A4.351,4.351,0,0,0,.6,36.967l.706,2.717a.688.688,0,0,0,1.333-.346l-.706-2.717a2.957,2.957,0,0,1,2.062-3.608l5.772-1.65L14.1,42.941a3.084,3.084,0,0,1-2.05,3.8l-4.362.991a2.855,2.855,0,0,1-3.41-2.075L3.4,42.252a.689.689,0,0,0-1.333.346l.886,3.407a4.222,4.222,0,0,0,4.091,3.179,33.768,33.768,0,0,0,5.319-1.1,4.243,4.243,0,0,0,3.212-5.015l15.09-3.694a8.683,8.683,0,0,0,3.425-1.714l7.343-6.034a3.266,3.266,0,0,0,.267-4.891Zm-17.7-11.416h1.227a1.735,1.735,0,0,1,1.733,1.733V31.6l-4.344,0c-.4,0-.123-.267-.1-.285L23.759,30.3A6.542,6.542,0,0,0,26.025,26.4a2.73,2.73,0,0,0-3.765-3.048V17.055a1.735,1.735,0,0,1,1.733-1.733ZM13.552,22.4a1.425,1.425,0,0,1,1.423-1.423h1.847A1.425,1.425,0,0,1,18.246,22.4V25.47l-4.694,2.492Zm27,8.161L33.211,36.6a7.293,7.293,0,0,1-2.879,1.44l-15.2,3.722L11.043,30.852l11.672-6.2a1.353,1.353,0,0,1,1.96,1.464,5.2,5.2,0,0,1-1.783,3.113l-1.251,1.014a1.537,1.537,0,0,0,.967,2.732l5.017,0h0a8.585,8.585,0,0,0,4.963-1.571L38.2,27.468a1.94,1.94,0,0,1,2.513.232,1.911,1.911,0,0,1-.156,2.866Zm0,0" transform="translate(-0.182 -2.183)"/>
      <path id="Trazado_151375" data-name="Trazado 151375" d="M13.842,57.574a2.712,2.712,0,1,0-2.712,2.712A2.716,2.716,0,0,0,13.842,57.574Zm-4.048,0a1.335,1.335,0,1,1,1.335,1.335A1.337,1.337,0,0,1,9.794,57.574Zm0,0" transform="translate(-2.558 -16.376)"/>
      <path id="Trazado_151376" data-name="Trazado 151376" d="M3.686,21.617,13.694,11.532,15.945,12.7a2.117,2.117,0,0,0,2.442-.355L23.835,7.1s-.15,2.693,2.118,2.693a2.121,2.121,0,0,0,2.118-2.118V2.118c0-.006,0-.013,0-.02A2,2,0,0,0,25.953,0H20.447A2.12,2.12,0,0,0,18.33,2.118,2.088,2.088,0,0,0,20.7,4.236l-4.156,4L14.259,7.055a2.11,2.11,0,0,0-2.476.389L.679,18.633a2.12,2.12,0,0,0,.011,3,2.088,2.088,0,0,0,3-.011ZM1.656,19.6,12.76,8.414a.626.626,0,0,1,.866-.136l2.722,1.408a.688.688,0,0,0,.794-.115l5.742-5.527a.688.688,0,0,0-.477-1.184H20.447a.741.741,0,0,1,0-1.482h5.505a.647.647,0,0,1,.74.737c0,.006,0,.012,0,.019v5.54a.741.741,0,1,1-1.482,0V5.478a.689.689,0,0,0-1.166-.5l-6.614,6.366a.741.741,0,0,1-.854.124l-2.7-1.4a.689.689,0,0,0-.805.127L2.708,20.647a.71.71,0,0,1-1.048,0,.742.742,0,0,1,0-1.048Zm0,0" transform="translate(-0.065 0)"/>
    </g>
  </g>
</svg>
