<svg xmlns="http://www.w3.org/2000/svg" xmlns:xlink="http://www.w3.org/1999/xlink" width="103" height="103" viewBox="0 0 103 103">
  <defs>
    <filter id="Elipse_13737" x="0" y="0" width="103" height="103" filterUnits="userSpaceOnUse">
      <feOffset dy="3" input="SourceAlpha"/>
      <feGaussianBlur stdDeviation="3" result="blur"/>
      <feFlood flood-opacity="0.161"/>
      <feComposite operator="in" in2="blur"/>
      <feComposite in="SourceGraphic"/>
    </filter>
  </defs>
  <g id="Grupo_1186781" data-name="Grupo 1186781" transform="translate(-800 -2996)">
    <g id="Grupo_1186403" data-name="Grupo 1186403" transform="translate(809 3002)">
      <g transform="matrix(1, 0, 0, 1, -9, -6)" filter="url(#Elipse_13737)">
        <circle id="Elipse_13737-2" data-name="Elipse 13737" cx="42.5" cy="42.5" r="42.5" transform="translate(9 6)" fill="#fff"/>
      </g>
    </g>
    <g id="aumentar" transform="translate(830.504 3024.877)">
      <path id="Trazado_151328" data-name="Trazado 151328" d="M60,18.7H55.877a1.622,1.622,0,0,0-1.622,1.622V45.36a1.622,1.622,0,0,0,1.622,1.622H60a1.622,1.622,0,0,0,1.622-1.622V20.32A1.622,1.622,0,0,0,60,18.7Z" transform="translate(-20.251 -8.351)" fill="#bd9cde"/>
      <path id="Trazado_151329" data-name="Trazado 151329" d="M56.715,45.36V20.32A1.622,1.622,0,0,1,58.337,18.7h-2.46a1.622,1.622,0,0,0-1.622,1.622V45.36a1.622,1.622,0,0,0,1.622,1.622h2.46A1.623,1.623,0,0,1,56.715,45.36Z" transform="translate(-20.251 -8.351)" fill="#8c5ac5"/>
      <path id="Trazado_151330" data-name="Trazado 151330" d="M6.732,38.02H2.6A1.622,1.622,0,0,0,.981,39.642V52.573A1.622,1.622,0,0,0,2.6,54.2H6.732a1.622,1.622,0,0,0,1.622-1.622V39.642A1.623,1.623,0,0,0,6.732,38.02Z" transform="translate(-0.366 -15.564)" fill="#ffabcd"/>
      <path id="Trazado_151331" data-name="Trazado 151331" d="M3.442,52.573V39.642A1.622,1.622,0,0,1,5.064,38.02H2.6A1.622,1.622,0,0,0,.981,39.642V52.573A1.622,1.622,0,0,0,2.6,54.2h2.46A1.622,1.622,0,0,1,3.442,52.573Z" transform="translate(-0.366 -15.564)" fill="#ff5d9c"/>
      <path id="Trazado_151332" data-name="Trazado 151332" d="M24.49,31.579H20.362A1.622,1.622,0,0,0,18.739,33.2V50.169a1.622,1.622,0,0,0,1.622,1.622H24.49a1.622,1.622,0,0,0,1.622-1.622V33.2a1.622,1.622,0,0,0-1.622-1.622Z" transform="translate(-6.995 -13.16)" fill="#f4e74d"/>
      <path id="Trazado_151333" data-name="Trazado 151333" d="M21.2,50.169V33.2a1.622,1.622,0,0,1,1.622-1.622h-2.46A1.622,1.622,0,0,0,18.739,33.2V50.169a1.622,1.622,0,0,0,1.622,1.622h2.46A1.622,1.622,0,0,1,21.2,50.169Z" transform="translate(-6.995 -13.16)" fill="#f8ad3e"/>
      <path id="Trazado_151334" data-name="Trazado 151334" d="M42.247,25.138H38.119A1.622,1.622,0,0,0,36.5,26.76v21a1.622,1.622,0,0,0,1.622,1.622h4.128a1.622,1.622,0,0,0,1.622-1.622v-21A1.622,1.622,0,0,0,42.247,25.138Z" transform="translate(-13.623 -10.755)" fill="#ff7f5a"/>
      <path id="Trazado_151335" data-name="Trazado 151335" d="M38.957,47.765v-21a1.622,1.622,0,0,1,1.622-1.622h-2.46A1.622,1.622,0,0,0,36.5,26.76v21a1.622,1.622,0,0,0,1.622,1.622h2.46A1.622,1.622,0,0,1,38.957,47.765Z" transform="translate(-13.623 -10.755)" fill="#ff5d29"/>
      <path id="Trazado_151336" data-name="Trazado 151336" d="M9.949,14.542c.63.158,1.266.3,1.91.4a27.114,27.114,0,0,0,6.283.328A31.5,31.5,0,0,0,30.094,12.01c.385-.188.766-.389,1.148-.6l1.5,1.5a.6.6,0,0,0,1.023-.332L35,4.816a1.421,1.421,0,0,0-1.627-1.627L25.61,4.425a.6.6,0,0,0-.332,1.023l1.181,1.181c-.584.4-1.189.778-1.81,1.132a26.8,26.8,0,0,1-4.713,2.113,23.765,23.765,0,0,1-7.7,1.21c-.542,0-1.084-.034-1.626-.084a1.157,1.157,0,0,0-1.235.905L9.1,13.171a1.157,1.157,0,0,0,.847,1.371Z" transform="translate(-3.387 -2.556)" fill="#00d7bd"/>
      <path id="Trazado_151337" data-name="Trazado 151337" d="M59.639,17.716H55.511a2.24,2.24,0,0,0-2.238,2.238v4.606a.615.615,0,1,0,1.23,0V19.953a1.009,1.009,0,0,1,1.007-1.007h4.128a1.009,1.009,0,0,1,1.007,1.007V44.994A1.009,1.009,0,0,1,59.639,46H55.511A1.009,1.009,0,0,1,54.5,44.994V27a.615.615,0,1,0-1.23,0V44.994a2.24,2.24,0,0,0,2.238,2.238h4.128a2.24,2.24,0,0,0,2.238-2.238V19.953A2.24,2.24,0,0,0,59.639,17.716Z" transform="translate(-19.885 -7.985)"/>
      <path id="Trazado_151338" data-name="Trazado 151338" d="M2.238,54.444H6.366A2.24,2.24,0,0,0,8.6,52.207V39.276a2.24,2.24,0,0,0-2.238-2.238H2.238A2.24,2.24,0,0,0,0,39.276v12.93A2.24,2.24,0,0,0,2.238,54.444ZM1.23,39.276a1.008,1.008,0,0,1,1.007-1.007H6.366a1.009,1.009,0,0,1,1.007,1.007v12.93a1.009,1.009,0,0,1-1.007,1.007H2.238A1.009,1.009,0,0,1,1.23,52.207Z" transform="translate(0 -15.198)"/>
      <path id="Trazado_151339" data-name="Trazado 151339" d="M18.373,45.015a.615.615,0,0,0-.615.615V49.8A2.24,2.24,0,0,0,20,52.04h4.128A2.24,2.24,0,0,0,26.361,49.8V32.835A2.24,2.24,0,0,0,24.123,30.6H20a2.24,2.24,0,0,0-2.238,2.238V43.18a.615.615,0,1,0,1.23,0V32.835A1.009,1.009,0,0,1,20,31.828h4.128a1.009,1.009,0,0,1,1.007,1.007V49.8a1.008,1.008,0,0,1-1.007,1.007H20A1.009,1.009,0,0,1,18.988,49.8V45.63A.615.615,0,0,0,18.373,45.015Z" transform="translate(-6.628 -12.793)"/>
      <path id="Trazado_151340" data-name="Trazado 151340" d="M41.881,24.157H37.753a2.24,2.24,0,0,0-2.238,2.238v21a2.24,2.24,0,0,0,2.238,2.238h4.128A2.24,2.24,0,0,0,44.119,47.4v-21A2.24,2.24,0,0,0,41.881,24.157ZM42.888,47.4a1.009,1.009,0,0,1-1.007,1.007H37.753A1.009,1.009,0,0,1,36.746,47.4v-21a1.009,1.009,0,0,1,1.007-1.007h4.128a1.009,1.009,0,0,1,1.007,1.007Z" transform="translate(-13.257 -10.389)"/>
      <path id="Trazado_151341" data-name="Trazado 151341" d="M35.242,4.546a2.035,2.035,0,0,0-2.331-2.331L25.147,3.451a1.219,1.219,0,0,0-.67,2.066l.649.649A23.761,23.761,0,0,1,10.3,10.023a1.776,1.776,0,0,0-1.892,1.386l-.277,1.264a1.764,1.764,0,0,0,1.3,2.1A30.3,30.3,0,0,0,30.764,11.8l1.177,1.177a1.219,1.219,0,0,0,2.066-.67ZM32.8,12.1,31.309,10.61a.615.615,0,0,0-.732-.1A29.182,29.182,0,0,1,9.732,13.579a.54.54,0,0,1-.4-.642l.277-1.264a.543.543,0,0,1,.579-.424A25.114,25.114,0,0,0,26.439,6.771a.615.615,0,0,0,.088-.943L25.362,4.663,33.105,3.43a.805.805,0,0,1,.923.923Z" transform="translate(-3.02 -2.189)"/>
    </g>
  </g>
</svg>
