<svg xmlns="http://www.w3.org/2000/svg" xmlns:xlink="http://www.w3.org/1999/xlink" width="103" height="103" viewBox="0 0 103 103">
  <defs>
    <filter id="Elipse_13737" x="0" y="0" width="103" height="103" filterUnits="userSpaceOnUse">
      <feOffset dy="3" input="SourceAlpha"/>
      <feGaussianBlur stdDeviation="3" result="blur"/>
      <feFlood flood-opacity="0.161"/>
      <feComposite operator="in" in2="blur"/>
      <feComposite in="SourceGraphic"/>
    </filter>
  </defs>
  <g id="Grupo_1186509" data-name="Grupo 1186509" transform="translate(-280 -1894)">
    <g id="Grupo_1186490" data-name="Grupo 1186490" transform="translate(289 1900)">
      <g transform="matrix(1, 0, 0, 1, -9, -6)" filter="url(#Elipse_13737)">
        <circle id="Elipse_13737-2" data-name="Elipse 13737" cx="42.5" cy="42.5" r="42.5" transform="translate(9 6)" fill="#fff"/>
      </g>
    </g>
    <g id="Grupo_1186491" data-name="Grupo 1186491" transform="translate(73.969 -229)">
      <path id="Trazado_151526" data-name="Trazado 151526" d="M39.923,5.407A22.808,22.808,0,0,0,10.463,7.779c-.094.094-.181.193-.274.288l6.078.357.322,5.463a14.147,14.147,0,0,1,17.078-2.224L31.1,14.232l5.5-.323,5.463-.321.357-6.078.288-4.886Zm0,0" transform="translate(230.846 2147.675)" fill="#4db7e5"/>
      <path id="Trazado_151527" data-name="Trazado 151527" d="M37.022,53.011,36.7,47.549a14.146,14.146,0,0,1-17.074,2.223l2.566-2.566-5.5.323-5.463.322-.357,6.078-.288,4.887,2.788-2.788A22.808,22.808,0,0,0,42.83,53.656c.093-.094.181-.192.273-.288Zm0,0" transform="translate(230.731 2134.046)" fill="#4db7e5"/>
      <path id="Trazado_151528" data-name="Trazado 151528" d="M11.659,19.629l2.57,2.561-.323-5.5-.322-5.463-6.078-.357-4.889-.286L5.4,13.369A22.808,22.808,0,0,0,7.775,42.83c.094.094.192.181.288.273l.357-6.078,5.463-.322a14.145,14.145,0,0,1-2.223-17.074Zm0,0" transform="translate(233.534 2144.873)" fill="#348fd9"/>
      <path id="Trazado_151529" data-name="Trazado 151529" d="M53.652,10.467c-.094-.093-.192-.181-.288-.273l-.357,6.078-5.463.321a14.145,14.145,0,0,1,2.224,17.078L47.2,31.106l.323,5.5.322,5.462,6.078.357,4.886.288-2.787-2.788a22.807,22.807,0,0,0-2.372-29.462Zm0,0" transform="translate(219.905 2144.987)" fill="#348fd9"/>
      <path id="Trazado_151530" data-name="Trazado 151530" d="M38.488,31.415V28.27H36.734a7.026,7.026,0,0,0-.909-2.19l1.242-1.242-2.224-2.224L33.6,23.857a7.029,7.029,0,0,0-2.19-.909V21.194H28.266v1.754a7.029,7.029,0,0,0-2.19.909l-1.241-1.242-2.224,2.224,1.242,1.242a7.026,7.026,0,0,0-.909,2.19H21.19v3.145h1.754a7.027,7.027,0,0,0,.909,2.189l-1.242,1.242,2.224,2.224,1.241-1.242a7.039,7.039,0,0,0,2.19.909v1.754h3.145V36.737a7.039,7.039,0,0,0,2.19-.909l1.241,1.242,2.224-2.224L35.824,33.6a7.027,7.027,0,0,0,.909-2.189Zm-8.649,1.573a3.145,3.145,0,1,1,3.145-3.145A3.145,3.145,0,0,1,29.839,32.988Zm0,0" transform="translate(227.595 2141.735)" fill="#ffb531"/>
      <path id="Trazado_151531" data-name="Trazado 151531" d="M8.295,18.379c-.326.531-.629,1.082-.9,1.634l1.41.7c.251-.511.532-1.022.833-1.51Zm0,0" transform="translate(231.673 2142.567)" fill="#62a9e6"/>
      <path id="Trazado_151532" data-name="Trazado 151532" d="M5.786,23.021a20.257,20.257,0,0,0-.971,11.45l1.54-.314a18.7,18.7,0,0,1,.9-10.565Zm0,0" transform="translate(232.558 2141.195)" fill="#62a9e6"/>
      <path id="Trazado_151533" data-name="Trazado 151533" d="M36.888,27.143,38.129,25.9,37.017,24.79l-3.892,3.892a3.145,3.145,0,1,1-4.447,4.447l-3.892,3.892L25.9,38.133l1.241-1.242a7.039,7.039,0,0,0,2.19.909v1.754h3.145V37.8a7.039,7.039,0,0,0,2.19-.909l1.241,1.242,2.224-2.224-1.242-1.242a7.027,7.027,0,0,0,.909-2.189h1.754V29.333H37.8a7.026,7.026,0,0,0-.909-2.19Zm0,0" transform="translate(226.531 2140.672)" fill="#ffa912"/>
      <path id="Trazado_151534" data-name="Trazado 151534" d="M54.324,17.3l.345-5.874c-.287-.321-.566-.648-.874-.957-.094-.093-.192-.181-.288-.273l-.357,6.078-5.463.321c.334.334.64.683.933,1.04l.241-.014Zm0,0" transform="translate(219.762 2144.987)" fill="#2d7dbf"/>
      <path id="Trazado_151535" data-name="Trazado 151535" d="M53.625,53.512l-6.078-.357-.322-5.463c-.333.333-.682.641-1.039.933l.014.241.321,5.462,5.874.345c.322-.287.648-.565.957-.873.094-.094.181-.192.273-.288Zm0,0" transform="translate(220.206 2133.903)" fill="#45a7d1"/>
      <path id="Trazado_151536" data-name="Trazado 151536" d="M11.762,9.316,11.453,9.3c-.333.3-.671.585-.99.9-.094.094-.181.193-.274.288l6.078.357.322,5.463a14.115,14.115,0,0,1,1.562-1.336l-.314-5.3Zm0,0" transform="translate(230.846 2145.252)" fill="#45a7d1"/>
      <path id="Trazado_151537" data-name="Trazado 151537" d="M10.5,53.629l.357-6.078,5.463-.322c-.333-.333-.641-.683-.933-1.039l-.24.014-5.462.321L9.337,52.4c.287.321.566.648.874.957.094.094.192.181.288.273Zm0,0" transform="translate(231.098 2134.347)" fill="#2d7dbf"/>
      <path id="Trazado_151538" data-name="Trazado 151538" d="M9.637,19.2,8.3,18.379c-.326.531-.629,1.082-.9,1.634l1.41.7c.248-.511.528-1.019.83-1.51Zm0,0" transform="translate(231.672 2142.567)"/>
      <path id="Trazado_151539" data-name="Trazado 151539" d="M5.786,23.021a20.257,20.257,0,0,0-.971,11.45l1.54-.314a18.7,18.7,0,0,1,.9-10.565Zm0,0" transform="translate(232.558 2141.195)"/>
      <path id="Trazado_151540" data-name="Trazado 151540" d="M43.77,1.577a.787.787,0,0,0-.878.161L40.572,4.059A23.642,23.642,0,0,0,12.682,5.081l.978,1.232A22.06,22.06,0,0,1,40.2,5.72a.786.786,0,0,0,1.017-.078l1.326-1.327-.483,8.2-8.2.482,1.1-1.1a.787.787,0,0,0-.162-1.237,15.018,15.018,0,0,0-15.774.5l.875,1.307a13.446,13.446,0,0,1,13.2-.929l-1.812,1.809a.786.786,0,0,0,.556,1.342h.046l10.965-.645a.786.786,0,0,0,.739-.738l.645-10.965a.787.787,0,0,0-.463-.761Zm0,0" transform="translate(230.109 2148)"/>
      <path id="Trazado_151541" data-name="Trazado 151541" d="M40.2,56.32l-.923-1.273a21.936,21.936,0,0,1-25.78.017.786.786,0,0,0-1.017.079l-1.326,1.326.482-8.2,8.2-.482-1.1,1.1a.786.786,0,0,0,.162,1.236,15.024,15.024,0,0,0,15.738-.472l-.875-1.3a13.445,13.445,0,0,1-13.162.9l1.808-1.809a.786.786,0,0,0-.6-1.336l-10.964.645a.786.786,0,0,0-.739.738L9.456,58.45a.786.786,0,0,0,1.341.6l2.321-2.321a23.5,23.5,0,0,0,27.075-.4Zm0,0" transform="translate(231.064 2134.373)"/>
      <path id="Trazado_151542" data-name="Trazado 151542" d="M4.873,40.749l1.245-.96a22.111,22.111,0,0,1-.4-26.291.786.786,0,0,0-.079-1.017L4.316,11.156l8.2.483.482,8.2-1.1-1.1a.786.786,0,0,0-1.237.162,15.018,15.018,0,0,0,.494,15.772l1.306-.874a13.441,13.441,0,0,1-.926-13.2l1.808,1.809a.786.786,0,0,0,1.341-.6l-.645-10.964a.787.787,0,0,0-.738-.739L2.338,9.461a.787.787,0,0,0-.6,1.345l2.321,2.321a23.7,23.7,0,0,0,.812,27.622Zm0,0" transform="translate(233.854 2145.204)"/>
      <path id="Trazado_151543" data-name="Trazado 151543" d="M47.783,33.972l1.1,1.1a.787.787,0,0,0,1.237-.162,14.967,14.967,0,0,0,.022-14.941l-1.362.786a13.388,13.388,0,0,1,.464,12.454L47.436,31.4A.786.786,0,0,0,46.1,32l.645,10.964a.786.786,0,0,0,.738.739l10.965.645h.046a.786.786,0,0,0,.555-1.342l-2.321-2.321a23.7,23.7,0,0,0-.812-27.622l-1.245.96a22.111,22.111,0,0,1,.4,26.291.786.786,0,0,0,.079,1.017l1.318,1.327-8.2-.483Zm0,0" transform="translate(220.232 2144.139)"/>
      <path id="Trazado_151544" data-name="Trazado 151544" d="M31.818,35.754a3.931,3.931,0,1,0-3.931-3.931A3.931,3.931,0,0,0,31.818,35.754Zm0-6.29a2.359,2.359,0,1,1-2.359,2.359A2.359,2.359,0,0,1,31.818,29.464Zm0,0" transform="translate(225.615 2139.756)"/>
      <path id="Trazado_151545" data-name="Trazado 151545" d="M20.86,27.154a.786.786,0,0,0-.786.786v3.145a.786.786,0,0,0,.786.786h1.153a7.824,7.824,0,0,0,.529,1.273l-.816.816a.786.786,0,0,0,0,1.112L23.95,37.3a.786.786,0,0,0,1.111,0l.816-.815a7.79,7.79,0,0,0,1.273.527v1.153a.786.786,0,0,0,.786.786h3.145a.786.786,0,0,0,.786-.786V37.009a7.827,7.827,0,0,0,1.273-.528l.816.816a.786.786,0,0,0,1.111,0l2.224-2.224a.786.786,0,0,0,0-1.112l-.816-.816a7.824,7.824,0,0,0,.529-1.273h1.153a.786.786,0,0,0,.786-.786V27.94a.786.786,0,0,0-.786-.786H37.005a7.783,7.783,0,0,0-.529-1.273l.817-.816a.786.786,0,0,0,0-1.112l-2.224-2.224a.786.786,0,0,0-1.111,0l-.816.815a7.823,7.823,0,0,0-1.273-.527V20.864a.786.786,0,0,0-.786-.786H27.936a.786.786,0,0,0-.786.786v1.153a7.827,7.827,0,0,0-1.273.528l-.816-.816a.786.786,0,0,0-1.111,0l-2.224,2.224a.786.786,0,0,0,0,1.112l.815.816a7.825,7.825,0,0,0-.528,1.273Zm1.753,1.573a.786.786,0,0,0,.767-.612,6.224,6.224,0,0,1,.807-1.944.786.786,0,0,0-.109-.976l-.685-.686L24.505,23.4l.685.686a.786.786,0,0,0,.976.109,6.213,6.213,0,0,1,1.945-.807.787.787,0,0,0,.612-.767V21.65H30.3v.967a.787.787,0,0,0,.612.767,6.217,6.217,0,0,1,1.945.807.786.786,0,0,0,.976-.109l.685-.686,1.112,1.112-.686.686a.786.786,0,0,0-.109.975,6.233,6.233,0,0,1,.807,1.944.786.786,0,0,0,.767.613h.968V30.3H36.4a.786.786,0,0,0-.767.612,6.239,6.239,0,0,1-.807,1.945.786.786,0,0,0,.109.975l.686.686-1.112,1.112-.685-.686a.787.787,0,0,0-.976-.109,6.227,6.227,0,0,1-1.945.808.786.786,0,0,0-.612.767v.967H28.723v-.967a.786.786,0,0,0-.612-.767,6.223,6.223,0,0,1-1.945-.808.787.787,0,0,0-.976.109l-.685.686-1.112-1.112.685-.686a.785.785,0,0,0,.109-.976,6.23,6.23,0,0,1-.807-1.945.786.786,0,0,0-.767-.612h-.967V28.726Zm0,0" transform="translate(227.924 2142.065)"/>
    </g>
  </g>
</svg>
