<svg xmlns="http://www.w3.org/2000/svg" xmlns:xlink="http://www.w3.org/1999/xlink" width="103" height="103" viewBox="0 0 103 103">
  <defs>
    <filter id="Elipse_13737" x="0" y="0" width="103" height="103" filterUnits="userSpaceOnUse">
      <feOffset dy="3" input="SourceAlpha"/>
      <feGaussianBlur stdDeviation="3" result="blur"/>
      <feFlood flood-opacity="0.161"/>
      <feComposite operator="in" in2="blur"/>
      <feComposite in="SourceGraphic"/>
    </filter>
  </defs>
  <g id="Grupo_1186510" data-name="Grupo 1186510" transform="translate(-593 -1894)">
    <g id="Grupo_1186492" data-name="Grupo 1186492" transform="translate(602 1900)">
      <g transform="matrix(1, 0, 0, 1, -9, -6)" filter="url(#Elipse_13737)">
        <circle id="Elipse_13737-2" data-name="Elipse 13737" cx="42.5" cy="42.5" r="42.5" transform="translate(9 6)" fill="#fff"/>
      </g>
    </g>
    <g id="Grupo_1186500" data-name="Grupo 1186500" transform="translate(619.153 1919)">
      <g id="Grupo_100722" data-name="Grupo 100722" transform="translate(1.826 0.856)">
        <g id="Grupo_100705" data-name="Grupo 100705" transform="translate(37.64 1.711)">
          <path id="Trazado_151440" data-name="Trazado 151440" d="M57.229,4.323l4.277,5.133H58.94V21.432H55.518V9.455H52.952Z" transform="translate(-52.952 -4.323)" fill="#ff826e"/>
        </g>
        <g id="Grupo_100706" data-name="Grupo 100706" transform="translate(0 1.711)">
          <path id="Trazado_151441" data-name="Trazado 151441" d="M9.68,4.323l4.277,5.133H11.391V21.432H7.97V9.455H5.4Z" transform="translate(-5.403 -4.323)" fill="#ff826e"/>
        </g>
        <g id="Grupo_100707" data-name="Grupo 100707" transform="translate(13.687 0)">
          <path id="Trazado_151442" data-name="Trazado 151442" d="M41.513,9v7.7a2.513,2.513,0,0,0-2.566-2.566v-.855a1.716,1.716,0,0,0-1.711-1.711H35.525S32.1,9,28.682,9s-3.422,2.566-3.422,2.566v2.566A2.513,2.513,0,0,0,22.694,16.7V8.149L25.26,6.439V3.872S26.971,2.161,32.1,2.161,41.513,5.583,41.513,9Z" transform="translate(-22.694 -2.161)" fill="#656d78"/>
        </g>
        <g id="Grupo_100708" data-name="Grupo 100708" transform="translate(4.277 17.443)">
          <path id="Trazado_151443" data-name="Trazado 151443" d="M40.55,33.862A12.222,12.222,0,0,0,33.2,27.617a5.4,5.4,0,0,0,2.883-2.1l.2.06c.291.145.582.291.864.453L41.337,24.2l3.353,3.353-1.933,4.029a15.193,15.193,0,0,1,1.583,3.755l4.106,1.446V41.51l-4.021,1.583A15.138,15.138,0,0,1,42.86,47l1.831,3.815-3.353,3.345-3.824-1.668a15.148,15.148,0,0,1-4.132,1.754L31.876,58.08H27.146l-1.335-3.79A15.156,15.156,0,0,1,21.525,52.5l-3.456,1.66-3.345-3.345,1.565-3.6A15.4,15.4,0,0,1,14.57,42.99l-3.764-1.48V36.779l3.85-1.352a15.156,15.156,0,0,1,1.737-4.055l-1.668-3.824L18.069,24.2l3.815,1.831c.291-.171.59-.325.9-.479l.3-.171a5.33,5.33,0,0,0,2.968,2.241,12.175,12.175,0,0,0-2.558,22.165A11.976,11.976,0,0,0,26.2,50.954a12.1,12.1,0,0,0,3.413.488h.009a12.163,12.163,0,0,0,6.134-1.66,12.159,12.159,0,0,0,5.928-8.8,12.711,12.711,0,0,0,.12-1.719,12.133,12.133,0,0,0-1.258-5.4Z" transform="translate(-10.806 -24.196)" fill="#fcd770"/>
        </g>
        <g id="Grupo_100709" data-name="Grupo 100709" transform="translate(20.531 29.941)">
          <path id="Trazado_151444" data-name="Trazado 151444" d="M36.471,47.683v6.844H31.339V48.538l1.711-8.554h1.711Z" transform="translate(-31.339 -39.984)" fill="#e6e9ed"/>
        </g>
        <g id="Grupo_100710" data-name="Grupo 100710" transform="translate(20.625 26.519)">
          <path id="Trazado_151445" data-name="Trazado 151445" d="M36.4,36.654l-1.617,2.429H33.074l-1.617-2.429,2.472-.992Z" transform="translate(-31.458 -35.661)" fill="#ccd1d9"/>
        </g>
        <g id="Grupo_100711" data-name="Grupo 100711" transform="translate(23.953 24.158)">
          <path id="Trazado_151446" data-name="Trazado 151446" d="M46.987,41.028a12.711,12.711,0,0,1-.12,1.719l-.086-.009H43.36v6.844l.06.06a12.274,12.274,0,0,1-2.481,1.908l-.145-.257V41.028H37.372v5.133l-1.711-7.7,1.617-2.429,1.8.719,1.078-4.072A8.932,8.932,0,0,1,45.73,35.63a12.133,12.133,0,0,1,1.258,5.4Z" transform="translate(-35.661 -32.679)" fill="#4fc1e9"/>
        </g>
        <g id="Grupo_100712" data-name="Grupo 100712" transform="translate(10.916 24.149)">
          <path id="Trazado_151447" data-name="Trazado 151447" d="M28.9,36.03l1.617,2.429-1.711,8.554h-.855V52.72a11.976,11.976,0,0,1-2.712-1.172l.145-.257V42.737H21.964v5.988l-.017.017a12.2,12.2,0,0,1-1.5-13.114,8.955,8.955,0,0,1,5.629-2.96l1.018,4.08Z" transform="translate(-19.192 -32.668)" fill="#4fc1e9"/>
        </g>
        <g id="Grupo_100713" data-name="Grupo 100713" transform="translate(31.652 34.218)">
          <path id="Trazado_151448" data-name="Trazado 151448" d="M48.809,45.387l.086.009a12.187,12.187,0,0,1-3.447,6.895l-.06-.06V45.387Z" transform="translate(-45.387 -45.387)" fill="#ffeaa7"/>
        </g>
        <g id="Grupo_100714" data-name="Grupo 100714" transform="translate(25.664 32.507)">
          <path id="Trazado_151449" data-name="Trazado 151449" d="M41.244,53.491l.145.257a12.043,12.043,0,0,1-3.567,1.386V43.226h3.422Z" transform="translate(-37.823 -43.226)" fill="#ffeaa7"/>
        </g>
        <g id="Grupo_100715" data-name="Grupo 100715" transform="translate(19.675 38.495)">
          <path id="Trazado_151450" data-name="Trazado 151450" d="M33.68,50.79v5.988l-.009.205a12.1,12.1,0,0,1-3.413-.488V50.79H33.68Z" transform="translate(-30.258 -50.79)" fill="#ffeaa7"/>
        </g>
        <g id="Grupo_100716" data-name="Grupo 100716" transform="translate(13.67 34.218)">
          <path id="Trazado_151451" data-name="Trazado 151451" d="M26.111,45.387v8.554l-.145.257a12.215,12.215,0,0,1-3.293-2.806l.017-.017V45.387Z" transform="translate(-22.672 -45.387)" fill="#ffeaa7"/>
        </g>
        <g id="Grupo_100717" data-name="Grupo 100717" transform="translate(29.941 11.976)">
          <path id="Trazado_151452" data-name="Trazado 151452" d="M43.226,17.29a2.566,2.566,0,1,1,0,5.133Z" transform="translate(-43.226 -17.29)" fill="#f0d0b4"/>
        </g>
        <g id="Grupo_100718" data-name="Grupo 100718" transform="translate(16.254 6.844)">
          <path id="Trazado_151453" data-name="Trazado 151453" d="M29.2,24.827a5.33,5.33,0,0,1-2.968-2.241,2.706,2.706,0,0,1-.3-.659V13.373s0-2.566,3.422-2.566S36.2,13.373,36.2,13.373h3.422v8.554a3.012,3.012,0,0,1-.385.8,5.4,5.4,0,0,1-2.883,2.1l-.154-.051v.094a11.073,11.073,0,0,1-3.422.479,11.073,11.073,0,0,1-3.422-.479,1.034,1.034,0,0,0-.154-.043Z" transform="translate(-25.935 -10.806)" fill="#f0d0b4"/>
        </g>
        <g id="Grupo_100719" data-name="Grupo 100719" transform="translate(17.802 23.953)">
          <path id="Trazado_151454" data-name="Trazado 151454" d="M35.659,35.978l-2.472-.992-2.472.992-1.805.719-1.018-4.08a11.731,11.731,0,0,1,1.873-.2l3.422,1.711,3.422-1.711a11.969,11.969,0,0,1,1.933.205L37.464,36.7Z" transform="translate(-27.891 -32.419)" fill="#3bafda"/>
        </g>
        <g id="Grupo_100720" data-name="Grupo 100720" transform="translate(19.675 20.907)">
          <path id="Trazado_151455" data-name="Trazado 151455" d="M37.1,28.572v3.045L33.68,33.329l-3.422-1.711V28.572a11.073,11.073,0,0,0,3.422.479A11.073,11.073,0,0,0,37.1,28.572Z" transform="translate(-30.258 -28.572)" fill="#f0d0b4"/>
        </g>
        <g id="Grupo_100721" data-name="Grupo 100721" transform="translate(13.687 11.976)">
          <path id="Trazado_151456" data-name="Trazado 151456" d="M25.26,17.29v5.133a2.566,2.566,0,1,1,0-5.133Z" transform="translate(-22.694 -17.29)" fill="#f0d0b4"/>
        </g>
      </g>
      <g id="Grupo_100723" data-name="Grupo 100723" transform="translate(0 0)">
        <path id="Trazado_151457" data-name="Trazado 151457" d="M40.8,10.084a22.076,22.076,0,0,0-7.149-3.567l-.416,1.66a20.753,20.753,0,0,1,6.539,3.276Z" transform="translate(-9.377 -2.213)"/>
        <ellipse id="Elipse_4782" data-name="Elipse 4782" cx="0.855" cy="0.855" rx="0.855" ry="0.855" transform="translate(20.646 11.976)"/>
        <ellipse id="Elipse_4783" data-name="Elipse 4783" cx="0.855" cy="0.855" rx="0.855" ry="0.855" transform="translate(27.49 11.976)"/>
        <path id="Trazado_151458" data-name="Trazado 151458" d="M31.684,22.872,30.739,24.3a6.128,6.128,0,0,0,3.141.909,5.22,5.22,0,0,0,2.941-.909l-.949-1.423A3.945,3.945,0,0,1,31.684,22.872Z" transform="translate(-8.857 -5.622)"/>
        <path id="Trazado_151459" data-name="Trazado 151459" d="M43.5,26.724l2-4.172-4.188-4.188-4.27,1.86c.019-.057.032-.1.035-.115v-.321a3.227,3.227,0,0,0,2.591-3.308V8.78c0-4.029-4.893-7.7-10.265-7.7-5.333,0-7.248,1.761-7.448,1.962l-.251.251V5.756L19.136,7.467v9.012a3.224,3.224,0,0,0,2.566,3.3v.12l.026.208c0,.011.01.038.022.078-.039.021-.08.039-.119.061l-3.96-1.9-4.188,4.188,1.725,3.958a16.174,16.174,0,0,0-1.478,3.454l-4,1.407v5.922l3.9,1.534a16.14,16.14,0,0,0,1.483,3.64l-1.628,3.737,4.188,4.188,3.587-1.72a16.155,16.155,0,0,0,3.672,1.531l1.382,3.931h5.922L33.8,50.142a16.135,16.135,0,0,0,3.551-1.506l3.958,1.725L45.5,46.173l-1.9-3.96a16.226,16.226,0,0,0,1.319-3.3l4.159-1.636V31.356l-4.259-1.5A16.193,16.193,0,0,0,43.5,26.724ZM37.081,18l.009-3.039a1.517,1.517,0,0,1,.867,1.519A1.514,1.514,0,0,1,37.081,18ZM23.413,6.671v-2.6c.617-.4,2.392-1.281,5.988-1.281,4.818,0,8.555,3.219,8.555,5.988v4.714a3.682,3.682,0,0,0-.861-.318l.005-1.829H35.389V19.77c-.165.45-1.231,2.7-5.988,2.7-4.74,0-5.819-2.246-5.988-2.7V11.346c0-.07.029-1.711,2.566-1.711,3.087,0,6.3,2.371,6.331,2.4l1.026-1.37c-.149-.112-3.692-2.737-7.357-2.737-3.383,0-4.277,2.239-4.277,3.422v1.831a3.717,3.717,0,0,0-.855.317V8.382ZM40.68,35.3H37.1v7.423q-.409.381-.855.721V33.588H31.513l-.342-1.54L32.2,30.5l2.067.826,1.058-4.233a7.76,7.76,0,0,1,4.2,2.341,11.24,11.24,0,0,1,1.19,5.011c0,.289-.022.572-.044.855Zm-.262,1.711a11.27,11.27,0,0,1-1.607,3.72v-3.72ZM22.558,43.442a11.419,11.419,0,0,1-1.711-1.6V37.009h1.711ZM19.136,35.3v3.891a11.167,11.167,0,0,1,.133-9.757,7.758,7.758,0,0,1,4.2-2.341l1.058,4.233L26.6,30.5l1.039,1.559-1.5,7.519H25.124V44.92c-.293-.12-.576-.255-.855-.4V35.3ZM29.8,31.021H29l-.782-1.173,1.179-.472,1.18.472Zm-4.008-4.27,2.474,1.237-2.549,1.02L25.164,26.8C25.437,26.772,25.649,26.758,25.791,26.751Zm4.746,1.237,2.474-1.237c.142.007.354.021.627.05l-.552,2.207Zm1.43-4.051V25.36L29.4,26.643,26.835,25.36V23.937a13.82,13.82,0,0,0,5.133,0Zm-6.844,1.145a14.674,14.674,0,0,0-2.832.562,11.237,11.237,0,0,1,2.832-1.679Zm1.711,16.2h1.711v4.435a11.256,11.256,0,0,1-1.711-.261Zm1.044-1.711,1.369-6.844h.323l1.542,6.937v5.952c-.282.043-.566.079-.855.1V39.576Zm6.655,4.946a11.264,11.264,0,0,1-1.711.712V35.3h1.711Zm-.855-19.44V23.966a11.254,11.254,0,0,1,2.831,1.678A14.59,14.59,0,0,0,33.678,25.082Zm-12.832-8.6a1.515,1.515,0,0,1,.855-1.511v3.025a1.519,1.519,0,0,1-.855-1.514ZM47.366,36.113l-3.89,1.529-.107.429a14.408,14.408,0,0,1-1.477,3.69l-.223.39,1.761,3.671-2.506,2.506-3.7-1.611-.38.232a14.428,14.428,0,0,1-3.9,1.655l-.421.109-1.453,3.7H27.526l-1.285-3.652-.448-.11a14.421,14.421,0,0,1-4.048-1.688l-.4-.241L18.025,48.31,15.518,45.8l1.51-3.465-.224-.376a14.426,14.426,0,0,1-1.624-3.986l-.1-.432-3.639-1.43V32.568l3.708-1.3.116-.437A14.434,14.434,0,0,1,16.9,27l.232-.38-1.611-3.7,2.506-2.506,3.671,1.76.39-.222c.172-.1.349-.186.525-.277A5.809,5.809,0,0,0,23.747,22.7a13.129,13.129,0,0,0-5.921,5.793c-.013.016-.029.029-.042.045l.015.011A13.032,13.032,0,1,0,41,28.55l.015-.011c-.013-.016-.028-.029-.041-.045A13.129,13.129,0,0,0,35.057,22.7a5.875,5.875,0,0,0,1.067-.943c.122.065.248.126.368.2l.373.213,4.06-1.768L43.431,22.9l-1.868,3.9.232.393a14.436,14.436,0,0,1,1.5,3.549l.118.434,3.956,1.393Z" transform="translate(-4.478 -1.081)"/>
        <path id="Trazado_151460" data-name="Trazado 151460" d="M8.344,21.08V8.248h-1.6L9.2,5.307l2.451,2.941h-1.6V21.08h1.711V9.959H15.3L9.2,2.635,3.1,9.959H6.633V21.08Z" transform="translate(-3.096 -1.404)"/>
        <path id="Trazado_151461" data-name="Trazado 151461" d="M56.748,2.635l-6.1,7.324h3.537V21.08h1.711V8.248H54.3l2.451-2.941L59.2,8.248H57.6V21.08h1.711V9.959h3.537Z" transform="translate(-13.005 -1.404)"/>
      </g>
    </g>
  </g>
</svg>
