<svg xmlns="http://www.w3.org/2000/svg" xmlns:xlink="http://www.w3.org/1999/xlink" width="103" height="103" viewBox="0 0 103 103">
  <defs>
    <filter id="Elipse_13737" x="0" y="0" width="103" height="103" filterUnits="userSpaceOnUse">
      <feOffset dy="3" input="SourceAlpha"/>
      <feGaussianBlur stdDeviation="3" result="blur"/>
      <feFlood flood-opacity="0.161"/>
      <feComposite operator="in" in2="blur"/>
      <feComposite in="SourceGraphic"/>
    </filter>
  </defs>
  <g id="Grupo_1186508" data-name="Grupo 1186508" transform="translate(-384 -1996.764)">
    <g id="Grupo_1186505" data-name="Grupo 1186505" transform="translate(393 2002.764)">
      <g transform="matrix(1, 0, 0, 1, -9, -6)" filter="url(#Elipse_13737)">
        <circle id="Elipse_13737-2" data-name="Elipse 13737" cx="42.5" cy="42.5" r="42.5" transform="translate(9 6)" fill="#fff"/>
      </g>
    </g>
    <g id="Grupo_1186506" data-name="Grupo 1186506" transform="translate(-36.924 -248)">
      <path id="XMLID_1597_" d="M43.265,46.643l5.721,9.908-6.659-1.784-1.784,6.659L33.5,49.23" transform="translate(437.91 2258.557)" fill="#f5737f"/>
      <path id="XMLID_1591_" d="M19.268,46.643l-5.721,9.908,6.659-1.784,1.784,6.659,7.042-12.2" transform="translate(442.377 2258.557)" fill="#f5737f"/>
      <path id="XMLID_1545_" d="M29.967,1.921A3.878,3.878,0,0,1,35.5,3.4,3.878,3.878,0,0,0,39.13,5.5a3.878,3.878,0,0,1,4.054,4.054,3.878,3.878,0,0,0,2.093,3.625,3.878,3.878,0,0,1,1.484,5.538,3.878,3.878,0,0,0,0,4.186,3.878,3.878,0,0,1-1.484,5.538,3.878,3.878,0,0,0-2.093,3.625,3.878,3.878,0,0,1-4.054,4.054A3.878,3.878,0,0,0,35.5,38.209a3.878,3.878,0,0,1-5.538,1.484,3.878,3.878,0,0,0-4.186,0,3.878,3.878,0,0,1-5.538-1.484,3.878,3.878,0,0,0-3.625-2.093,3.878,3.878,0,0,1-4.054-4.054,3.878,3.878,0,0,0-2.093-3.625A3.878,3.878,0,0,1,8.988,22.9a3.878,3.878,0,0,0,0-4.186,3.878,3.878,0,0,1,1.484-5.538,3.878,3.878,0,0,0,2.093-3.625A3.878,3.878,0,0,1,16.619,5.5,3.878,3.878,0,0,0,20.244,3.4a3.878,3.878,0,0,1,5.538-1.484,3.878,3.878,0,0,0,4.186,0Z" transform="translate(443.535 2268.707)" fill="#ffcb7c"/>
      <ellipse id="XMLID_1544_" cx="14.016" cy="14.016" rx="14.016" ry="14.016" transform="translate(457.394 2275.498)" fill="#fff"/>
      <path id="XMLID_1543_" d="M29.4,30.365a6.607,6.607,0,0,0,3.619,1.08h5.208a2.284,2.284,0,0,0,2.284-2.284v-4.37a2.284,2.284,0,0,0-2.284-2.284H35.5l.974-2.855A1.736,1.736,0,0,0,33.336,18.2a10.361,10.361,0,0,1-3.345,3.442l-.621.395" transform="translate(438.834 2265.114)" fill="#ffcbbe"/>
      <path id="XMLID_1649_" d="M28.033,23.412a.874.874,0,0,0-.874-.874H24.153a.874.874,0,0,0-.874.874v8.319a.874.874,0,0,0,.874.874h3.006a.874.874,0,0,0,.874-.874Z" transform="translate(440.198 2263.954)" fill="#f5737f"/>
      <path id="XMLID_1656_" d="M47.323,18.97a4.894,4.894,0,0,0-1.872-6.988,2.87,2.87,0,0,1-1.545-2.676A4.894,4.894,0,0,0,38.79,4.19a2.87,2.87,0,0,1-2.676-1.545A4.894,4.894,0,0,0,29.127.773a2.87,2.87,0,0,1-3.089,0,4.894,4.894,0,0,0-6.988,1.872A2.87,2.87,0,0,1,16.373,4.19a4.894,4.894,0,0,0-5.116,5.116,2.87,2.87,0,0,1-1.545,2.676A4.893,4.893,0,0,0,7.841,18.97a2.869,2.869,0,0,1,0,3.089,4.894,4.894,0,0,0,1.872,6.988,2.87,2.87,0,0,1,1.545,2.676,4.891,4.891,0,0,0,5.017,5.118L11.216,45.6a1.016,1.016,0,0,0,1.142,1.489l5.678-1.522,1.522,5.678a1.016,1.016,0,0,0,1.861.245l6.162-10.673,6.162,10.673a1.016,1.016,0,0,0,1.861-.245l1.522-5.678L42.8,47.089A1.016,1.016,0,0,0,43.947,45.6l-5.058-8.76a4.891,4.891,0,0,0,5.017-5.118,2.87,2.87,0,0,1,1.545-2.676,4.893,4.893,0,0,0,1.873-6.988,2.869,2.869,0,0,1,0-3.089ZM20.887,48.352l-1.15-4.291a1.016,1.016,0,0,0-1.244-.718L14.2,44.493l4.069-7.048a2.856,2.856,0,0,1,.778.938,4.893,4.893,0,0,0,6.3,2.238Zm15.784-5.009a1.016,1.016,0,0,0-1.244.718l-1.15,4.291-4.463-7.73a4.892,4.892,0,0,0,6.3-2.239,2.848,2.848,0,0,1,.779-.937l4.069,7.047Zm8.942-20.188a2.862,2.862,0,0,1-1.1,4.087,4.907,4.907,0,0,0-2.641,4.574,2.862,2.862,0,0,1-2.992,2.992A4.911,4.911,0,0,0,34.31,37.45a2.862,2.862,0,0,1-4.087,1.1,4.889,4.889,0,0,0-2.553-.77l-.039,0h-.1l-.035,0a4.889,4.889,0,0,0-2.554.77,2.862,2.862,0,0,1-4.087-1.1A4.908,4.908,0,0,0,16.505,34.8q-.113,0-.226.005a2.862,2.862,0,0,1-2.992-2.992,4.907,4.907,0,0,0-2.641-4.574,2.862,2.862,0,0,1-1.1-4.087,4.906,4.906,0,0,0,0-5.282,2.862,2.862,0,0,1,1.1-4.087,4.907,4.907,0,0,0,2.641-4.574,2.862,2.862,0,0,1,2.992-2.992,4.908,4.908,0,0,0,4.574-2.641,2.862,2.862,0,0,1,4.087-1.1,4.907,4.907,0,0,0,5.282,0h0a2.862,2.862,0,0,1,4.087,1.1,4.907,4.907,0,0,0,4.574,2.641,2.862,2.862,0,0,1,2.992,2.992,4.907,4.907,0,0,0,2.641,4.574,2.862,2.862,0,0,1,1.1,4.087,4.906,4.906,0,0,0,0,5.282Z" transform="translate(443.828 2269)"/>
      <path id="XMLID_1708_" d="M21.971,30.278a1.892,1.892,0,0,0,1.889,1.889h3.006a1.884,1.884,0,0,0,1.42-.647,7.6,7.6,0,0,0,3.073.647h5.208a3.3,3.3,0,0,0,3.3-3.3V24.5a3.3,3.3,0,0,0-3.3-3.3H35.26l.516-1.511a2.752,2.752,0,0,0-4.969-2.3A9.393,9.393,0,0,1,27.934,20.4a1.878,1.878,0,0,0-1.067-.332H23.86a1.892,1.892,0,0,0-1.889,1.889v8.319ZM32.552,18.43a.721.721,0,0,1,1.3.6l-.745,2.185A1.015,1.015,0,0,0,33.3,23.23h3.272A1.27,1.27,0,0,1,37.835,24.5v4.37a1.27,1.27,0,0,1-1.268,1.268H31.359a5.573,5.573,0,0,1-2.6-.644v-7.2l.124-.079a11.435,11.435,0,0,0,3.672-3.78ZM24,22.1h2.723v7.985h0v.05H24Z" transform="translate(440.491 2265.407)"/>
      <path id="XMLID_1761_" d="M29.164,7.065a14.882,14.882,0,0,0-6.648,1.546,1.016,1.016,0,1,0,.9,1.821A12.871,12.871,0,0,1,29.164,9.1a13,13,0,1,1-13,13A12.871,12.871,0,0,1,17.5,16.348a1.016,1.016,0,1,0-1.821-.9A14.884,14.884,0,0,0,14.132,22.1,15.031,15.031,0,1,0,29.164,7.065Z" transform="translate(442.246 2267.418)"/>
      <path id="XMLID_1762_" d="M20.437,14.385a1.016,1.016,0,1,0-.718-.3A1.023,1.023,0,0,0,20.437,14.385Z" transform="translate(441.062 2266.234)"/>
    </g>
  </g>
</svg>
