<svg xmlns="http://www.w3.org/2000/svg" xmlns:xlink="http://www.w3.org/1999/xlink" width="103" height="103" viewBox="0 0 103 103">
  <defs>
    <filter id="Elipse_13737" x="0" y="0" width="103" height="103" filterUnits="userSpaceOnUse">
      <feOffset dy="3" input="SourceAlpha"/>
      <feGaussianBlur stdDeviation="3" result="blur"/>
      <feFlood flood-opacity="0.161"/>
      <feComposite operator="in" in2="blur"/>
      <feComposite in="SourceGraphic"/>
    </filter>
  </defs>
  <g id="Grupo_1186512" data-name="Grupo 1186512" transform="translate(-801 -1894)">
    <g id="Grupo_1186494" data-name="Grupo 1186494" transform="translate(810 1900)">
      <g transform="matrix(1, 0, 0, 1, -9, -6)" filter="url(#Elipse_13737)">
        <circle id="Elipse_13737-2" data-name="Elipse 13737" cx="42.5" cy="42.5" r="42.5" transform="translate(9 6)" fill="#fff"/>
      </g>
    </g>
    <g id="Grupo_1186499" data-name="Grupo 1186499" transform="translate(834.01 1916.078)">
      <g id="Grupo_100724" data-name="Grupo 100724" transform="translate(1.811 18.892)">
        <path id="Trazado_151462" data-name="Trazado 151462" d="M36.328,28.953l1.664,3.366,2.9,1.2,3.556-1.2,3.025,3.025-1.2,3.557,1.2,2.9,3.366,1.664v4.279l-3.366,1.663-1.2,2.9,1.2,3.557L44.453,58.9l-3.556-1.2-2.9,1.2-1.664,3.366H32.052L30.388,58.9l-2.9-1.2-3.557,1.2L20.9,55.872l1.2-3.557-1.2-2.9-3.368-1.663V43.469L20.9,41.8l1.2-2.9-1.2-3.557,3.025-3.025,3.557,1.2,2.9-1.2,1.666-3.366Z" transform="translate(-17.534 -28.953)" fill="#27a7ff"/>
        <ellipse id="Elipse_4784" data-name="Elipse 4784" cx="9.878" cy="9.878" rx="9.878" ry="9.878" transform="translate(6.776 6.776)" fill="#cce8fe"/>
        <path id="Trazado_151463" data-name="Trazado 151463" d="M40.432,49.67A2.473,2.473,0,1,1,37.959,47.2a2.473,2.473,0,0,1,2.473,2.473Z" transform="translate(-21.275 -32.755)" fill="#2980ba"/>
      </g>
      <g id="Grupo_100725" data-name="Grupo 100725" transform="translate(0 0)">
        <path id="Trazado_151464" data-name="Trazado 151464" d="M56.935,46.146l-1.327-.654a.835.835,0,1,0-.738,1.5l.859.425v3.243l-2.9,1.432a.836.836,0,0,0-.4.43l-1.2,2.907a.828.828,0,0,0-.019.587l1.036,3.065L49.95,61.368l-3.065-1.037a.835.835,0,0,0-.589.021l-.784.323a.835.835,0,1,0,.636,1.545l.5-.205,3.259,1.1a.848.848,0,0,0,.267.044.835.835,0,0,0,.592-.243l3.026-3.026a.835.835,0,0,0,.2-.859l-1.1-3.259.963-2.326,3.083-1.521a.836.836,0,0,0,.466-.749V46.9a.836.836,0,0,0-.466-.749Z" transform="translate(-21.446 -13.49)"/>
        <path id="Trazado_151465" data-name="Trazado 151465" d="M54.573,35.419l-3.026-3.026a.835.835,0,0,0-.859-.2l-1.375.463a.836.836,0,1,0,.535,1.584l.884-.3,2.291,2.291L51.988,39.3a.83.83,0,0,0,.019.587c.1.234.211.508.311.759a.835.835,0,0,0,1.551-.62c-.063-.156-.129-.317-.2-.487l1.1-3.259a.835.835,0,0,0-.2-.859Z" transform="translate(-22.228 -10.727)"/>
        <path id="Trazado_151466" data-name="Trazado 151466" d="M37.119,60.005a.836.836,0,0,0-1.12.377l-.409.825H32.345l-1.432-2.9a.834.834,0,0,0-.43-.4l-2.907-1.2a.835.835,0,0,0-.587-.02l-3.065,1.037-2.291-2.291,1.037-3.065a.831.831,0,0,0-.019-.584c-.291-.711-.515-1.251-.759-1.838l-.444-1.071a.836.836,0,0,0-.4-.43l-2.9-1.432V43.764l2.9-1.432a.836.836,0,0,0,.4-.43l.444-1.071c.244-.588.469-1.128.759-1.838a.831.831,0,0,0,.019-.584l-1.037-3.065,2.291-2.291L26.99,34.09a.838.838,0,0,0,.587-.02l2.907-1.2a.837.837,0,0,0,.43-.4l1.432-2.9H35.59l1.436,2.9a.834.834,0,0,0,.434.4c.048.021.637.264.787.323a.835.835,0,1,0,.611-1.555c-.135-.053-.273-.11-.417-.17l-.057-.024-1.527-3.084a.835.835,0,0,0-.748-.464H31.827a.834.834,0,0,0-.749.465l-1.522,3.083-2.326.963-3.259-1.1a.837.837,0,0,0-.859.2l-3.025,3.026a.834.834,0,0,0-.2.859l1.1,3.26c-.234.57-.43,1.039-.638,1.542l-.325.783L16.943,42.5a.836.836,0,0,0-.466.749v4.281a.836.836,0,0,0,.466.749L20.026,49.8l.325.783c.209.5.4.971.638,1.542l-1.1,3.26a.834.834,0,0,0,.2.859l3.026,3.026a.836.836,0,0,0,.859.2l3.259-1.1,2.326.963,1.522,3.083a.835.835,0,0,0,.749.466h4.281a.835.835,0,0,0,.748-.464l.64-1.289a.835.835,0,0,0-.378-1.121Z" transform="translate(-15.503 -9.841)"/>
        <path id="Trazado_151467" data-name="Trazado 151467" d="M35.753,36.458A10.714,10.714,0,1,0,46.467,47.172,10.714,10.714,0,0,0,35.753,36.458Zm0,19.757A9.043,9.043,0,1,1,44.8,47.172,9.043,9.043,0,0,1,35.753,56.215Z" transform="translate(-17.288 -11.625)"/>
        <path id="Trazado_151468" data-name="Trazado 151468" d="M35.952,8.783l.945-.907V20.2a.835.835,0,0,0,1.67,0V7.851l.974.932A.836.836,0,0,0,40.7,7.576L38.338,5.319a.871.871,0,0,0-1.184,0L34.8,7.576a.836.836,0,0,0,1.155,1.208Z" transform="translate(-19.27 -5.088)"/>
        <path id="Trazado_151469" data-name="Trazado 151469" d="M45.6,12.236l.945-.9V23.651a.835.835,0,0,0,1.67,0V11.3l.974.932a.835.835,0,1,0,1.155-1.207L47.989,8.772a.872.872,0,0,0-1.184,0l-2.357,2.257A.835.835,0,0,0,45.6,12.236Z" transform="translate(-21.278 -5.807)"/>
        <path id="Trazado_151470" data-name="Trazado 151470" d="M26.294,12.236l.945-.9V23.651a.835.835,0,0,0,1.67,0V11.3l.974.932a.835.835,0,1,0,1.155-1.207L28.681,8.773a.874.874,0,0,0-1.184,0L25.14,11.029a.835.835,0,1,0,1.155,1.207Z" transform="translate(-17.255 -5.807)"/>
        <path id="Trazado_151471" data-name="Trazado 151471" d="M17.591,16.9v12.32a.835.835,0,0,0,1.67,0V16.868l.974.932a.836.836,0,1,0,1.155-1.208l-2.357-2.256a.874.874,0,0,0-1.184,0l-2.358,2.256A.836.836,0,0,0,16.646,17.8Z" transform="translate(-15.247 -6.967)"/>
        <path id="Trazado_151472" data-name="Trazado 151472" d="M60,16.592l-2.357-2.256a.873.873,0,0,0-1.184,0L54.1,16.592A.836.836,0,0,0,55.258,17.8l.945-.9v12.32a.835.835,0,0,0,1.67,0V16.868l.974.932A.836.836,0,1,0,60,16.592Z" transform="translate(-23.293 -6.967)"/>
        <path id="Trazado_151473" data-name="Trazado 151473" d="M41.924,50.854l-1.167-.933a3.3,3.3,0,0,0-1.2-4.1l.94-2.762a.835.835,0,1,0-1.581-.538l-.94,2.762c-.08-.006-.16-.012-.242-.012a3.309,3.309,0,1,0,1.975,5.956l1.169.935a.835.835,0,0,0,1.043-1.305ZM36.1,48.577a1.638,1.638,0,1,1,1.638,1.638A1.638,1.638,0,0,1,36.1,48.577Z" transform="translate(-19.242 -12.77)"/>
      </g>
    </g>
  </g>
</svg>
