<svg xmlns="http://www.w3.org/2000/svg" xmlns:xlink="http://www.w3.org/1999/xlink" width="382.348" height="854.677" viewBox="0 0 382.348 854.677">
  <defs>
    <clipPath id="clip-path">
      <path id="Trazado_997200" data-name="Trazado 997200" d="M12.3,0H842.375c6.794,0,12.3,6.415,12.3,14.329v353.69c0,7.913-5.508,14.329-12.3,14.329H12.3c-6.794,0-12.3-6.415-12.3-14.329V14.329C0,6.415,5.508,0,12.3,0Z" transform="translate(-14208.879 -13307.311)" fill="#cbc232"/>
    </clipPath>
    <clipPath id="clip-path-2">
      <path id="Trazado_997181" data-name="Trazado 997181" d="M316.975,0C492.036,0,633.95,155.789,633.95,347.964S492.036,695.928,316.975,695.928,0,540.139,0,347.964,141.915,0,316.975,0Z" transform="translate(0 0)" fill="#21c9b8"/>
    </clipPath>
    <clipPath id="clip-path-3">
      <rect id="Rectángulo_456258" data-name="Rectángulo 456258" width="463.077" height="530.776" fill="#dee4f0"/>
    </clipPath>
    <clipPath id="clip-path-4">
      <rect id="Rectángulo_456260" data-name="Rectángulo 456260" width="143.709" height="168.09" fill="#fff" stroke="#fff" stroke-width="1"/>
    </clipPath>
    <filter id="Trazado_997888" x="163.675" y="397.339" width="69" height="69" filterUnits="userSpaceOnUse">
      <feOffset dy="3" input="SourceAlpha"/>
      <feGaussianBlur stdDeviation="3" result="blur"/>
      <feFlood flood-opacity="0.161"/>
      <feComposite operator="in" in2="blur"/>
      <feComposite in="SourceGraphic"/>
    </filter>
    <filter id="Elipse_13771" x="155.675" y="65.339" width="69" height="69" filterUnits="userSpaceOnUse">
      <feOffset dy="3" input="SourceAlpha"/>
      <feGaussianBlur stdDeviation="3" result="blur-2"/>
      <feFlood flood-opacity="0.161"/>
      <feComposite operator="in" in2="blur-2"/>
      <feComposite in="SourceGraphic"/>
    </filter>
    <filter id="Elipse_13771-2" x="157.257" y="509.718" width="69" height="69" filterUnits="userSpaceOnUse">
      <feOffset dy="3" input="SourceAlpha"/>
      <feGaussianBlur stdDeviation="3" result="blur-3"/>
      <feFlood flood-opacity="0.161"/>
      <feComposite operator="in" in2="blur-3"/>
      <feComposite in="SourceGraphic"/>
    </filter>
    <filter id="Elipse_13777" x="155.675" y="287.339" width="69" height="69" filterUnits="userSpaceOnUse">
      <feOffset dy="3" input="SourceAlpha"/>
      <feGaussianBlur stdDeviation="3" result="blur-4"/>
      <feFlood flood-opacity="0.161"/>
      <feComposite operator="in" in2="blur-4"/>
      <feComposite in="SourceGraphic"/>
    </filter>
    <filter id="Elipse_13777-2" x="157.257" y="731.718" width="69" height="69" filterUnits="userSpaceOnUse">
      <feOffset dy="3" input="SourceAlpha"/>
      <feGaussianBlur stdDeviation="3" result="blur-5"/>
      <feFlood flood-opacity="0.161"/>
      <feComposite operator="in" in2="blur-5"/>
      <feComposite in="SourceGraphic"/>
    </filter>
    <filter id="Elipse_13773" x="162.675" y="175.339" width="69" height="69" filterUnits="userSpaceOnUse">
      <feOffset dy="3" input="SourceAlpha"/>
      <feGaussianBlur stdDeviation="3" result="blur-6"/>
      <feFlood flood-opacity="0.161"/>
      <feComposite operator="in" in2="blur-6"/>
      <feComposite in="SourceGraphic"/>
    </filter>
    <filter id="Elipse_13773-2" x="165.257" y="619.718" width="69" height="69" filterUnits="userSpaceOnUse">
      <feOffset dy="3" input="SourceAlpha"/>
      <feGaussianBlur stdDeviation="3" result="blur-7"/>
      <feFlood flood-opacity="0.161"/>
      <feComposite operator="in" in2="blur-7"/>
      <feComposite in="SourceGraphic"/>
    </filter>
  </defs>
  <g id="Grupo_1186532" data-name="Grupo 1186532" transform="translate(722.269 10697.774)">
    <g id="Enmascarar_grupo_1119307" data-name="Enmascarar grupo 1119307" transform="translate(12585.042 -24051.977) rotate(-90)" opacity="0.61" clip-path="url(#clip-path)">
      <path id="Trazado_997173" data-name="Trazado 997173" d="M0,0H2092.255V505.308H0Z" transform="translate(-15009.535 -13371.444)" fill="#f3f9ff"/>
      <path id="Trazado_997174" data-name="Trazado 997174" d="M296.364,0C460.041,0,592.727,152.085,592.727,339.691S460.041,679.381,296.364,679.381,0,527.3,0,339.691,132.687,0,296.364,0Z" transform="translate(-13388.533 -13355.636)" fill="#dbe3fb" opacity="0.14"/>
      <path id="Trazado_997175" data-name="Trazado 997175" d="M296.364,0C460.041,0,592.727,152.085,592.727,339.691S460.041,679.381,296.364,679.381,0,527.3,0,339.691,132.687,0,296.364,0Z" transform="translate(-14079.263 -12959.152)" fill="#dbe3fb" opacity="0.14"/>
      <path id="Trazado_997176" data-name="Trazado 997176" d="M296.364,0C460.041,0,592.727,152.085,592.727,339.691S460.041,679.381,296.364,679.381,0,527.3,0,339.691,132.687,0,296.364,0Z" transform="translate(-13400.175 -13510.606)" fill="#dbe3fb" opacity="0"/>
      <rect id="Rectángulo_456257" data-name="Rectángulo 456257" width="8.131" height="2.485" transform="translate(-13273.666 -12939.704)" fill="#dbe3fb"/>
      <ellipse id="Elipse_13760" data-name="Elipse 13760" cx="295.969" cy="324.904" rx="295.969" ry="324.904" transform="translate(-14130.355 -13978.838)" fill="#94a6dd" opacity="0.13"/>
      <path id="Trazado_997177" data-name="Trazado 997177" d="M303.174,0C470.613,0,606.349,149.006,606.349,332.814S470.613,665.628,303.174,665.628,0,516.622,0,332.814,135.736,0,303.174,0Z" transform="translate(-13698.519 -13164.039)" fill="#fff" opacity="0.25"/>
      <path id="Trazado_997178" data-name="Trazado 997178" d="M395.451,0C613.853,0,790.9,202.933,790.9,453.264S613.853,906.528,395.451,906.528,0,703.595,0,453.264,177.049,0,395.451,0Z" transform="translate(-15009.535 -13116.137)" fill="#a5b9f6" opacity="0.23" style="mix-blend-mode: multiply;isolation: isolate"/>
      <path id="Trazado_997179" data-name="Trazado 997179" d="M395.451,0C613.853,0,790.9,202.933,790.9,453.264S613.853,906.528,395.451,906.528,0,703.595,0,453.264,177.049,0,395.451,0Z" transform="translate(-15095.577 -13963.87)" fill="#a5b9f6" opacity="0.23" style="mix-blend-mode: multiply;isolation: isolate"/>
      <path id="Trazado_997180" data-name="Trazado 997180" d="M395.451,0C613.853,0,790.9,202.933,790.9,453.264S613.853,906.528,395.451,906.528,0,703.595,0,453.264,177.049,0,395.451,0Z" transform="translate(-14414.402 -13878.895)" fill="#f6f8fe" opacity="0.51" style="mix-blend-mode: lighten;isolation: isolate"/>
      <g id="Grupo_1186056" data-name="Grupo 1186056" transform="translate(-14482.027 -13748.186)">
        <g id="Grupo_1186055" data-name="Grupo 1186055" clip-path="url(#clip-path-3)">
          <path id="Trazado_997182" data-name="Trazado 997182" d="M463.077,265.384c0-8.566-.388-17.023-1.083-25.387H354.483l100.784-43.039a289.433,289.433,0,0,0-15.459-47.595l-120.65,51.513,91.02-104.335a252.876,252.876,0,0,0-31.335-35.908l-76.036,87.161L347.5,35.715a217.678,217.678,0,0,0-40.295-21.142L253.7,148.75V1.233a199.708,199.708,0,0,0-44.32,0V124.478L171.836,8.96A211.287,211.287,0,0,0,130.3,26.679l44.943,138.279L84.227,60.633A253.8,253.8,0,0,0,52.892,96.541L128.935,183.7,31.16,132.474a284.222,284.222,0,0,0-18.445,46.185L129.777,240H1.076C.388,248.361,0,256.818,0,265.384c0,8.583.388,17.04,1.076,25.4H108.6L7.81,333.819a288.238,288.238,0,0,0,15.459,47.612l120.642-51.521L52.892,434.227a252.945,252.945,0,0,0,31.335,35.916l76.044-87.161-44.694,112.07A217.884,217.884,0,0,0,155.864,516.2l53.514-134.177V529.543a199.71,199.71,0,0,0,44.32,0V406.3l37.542,115.527a212.784,212.784,0,0,0,41.532-17.711l-44.95-138.288,91.02,104.318a252.023,252.023,0,0,0,31.335-35.916l-76.044-87.161,97.776,51.244a285.159,285.159,0,0,0,18.453-46.185L333.3,290.788H461.993c.7-8.365,1.083-16.821,1.083-25.4" fill="#dee4f0" opacity="0.12"/>
        </g>
      </g>
      <path id="Trazado_997183" data-name="Trazado 997183" d="M539.476,309.167c0-9.979-.452-19.831-1.262-29.576H412.966l117.412-50.14A337.177,337.177,0,0,0,512.368,174L371.813,234.016,477.849,112.468a294.6,294.6,0,0,0-36.505-41.832L352.763,172.177,404.831,41.607a253.592,253.592,0,0,0-46.942-24.63L295.554,173.291V1.437a232.656,232.656,0,0,0-51.632,0V145.015L200.185,10.438A246.145,246.145,0,0,0,151.8,31.081l52.357,161.093L98.123,70.636a295.678,295.678,0,0,0-36.505,41.832l88.589,101.541L36.3,154.33a331.112,331.112,0,0,0-21.489,53.805l136.376,71.457H1.254C.452,289.336,0,299.188,0,309.167c0,10,.452,19.851,1.254,29.6H126.519L9.1,388.893a335.793,335.793,0,0,0,18.01,55.467l140.546-60.021L61.618,505.867a294.678,294.678,0,0,0,36.505,41.842l88.589-101.541L134.645,576.727a253.829,253.829,0,0,0,46.934,24.64l62.343-156.314V616.908a232.654,232.654,0,0,0,51.632,0V473.329L339.29,607.916a247.884,247.884,0,0,0,48.384-20.633l-52.366-161.1L441.344,547.708a293.6,293.6,0,0,0,36.505-41.842L389.26,404.326l113.907,59.7a332.2,332.2,0,0,0,21.5-53.805L388.288,338.763H538.214c.81-9.745,1.262-19.6,1.262-29.6" transform="translate(-14304.676 -12938.46)" fill="none" stroke="#fff" stroke-width="1"/>
      <rect id="Rectángulo_456259" data-name="Rectángulo 456259" width="8.131" height="2.485" transform="translate(-13239.719 -12874.489)" fill="#e9dcbf"/>
      <g id="Grupo_1186058" data-name="Grupo 1186058" transform="translate(-13486.535 -13286.881)" style="isolation: isolate">
        <g id="Grupo_1186057" data-name="Grupo 1186057" transform="translate(0 0)" clip-path="url(#clip-path-4)" style="isolation: isolate">
          <path id="Trazado_997184" data-name="Trazado 997184" d="M16.936,0h0a2.991,2.991,0,0,0-2.772,2.829C13.3,9.814,8.535,15.08,2.451,16.186A3.159,3.159,0,0,0,0,19.4a3.156,3.156,0,0,0,2.469,3.214c6.112,1.068,10.886,6.368,11.713,13.354a3,3,0,0,0,2.774,2.852,2.982,2.982,0,0,0,2.767-2.8c.923-7.013,5.76-12.582,11.754-13.49a2.969,2.969,0,0,0,2.388-3.043v-.076a3.083,3.083,0,0,0-2.449-3.156C25.451,15.28,20.589,9.791,19.7,2.8A2.974,2.974,0,0,0,16.936,0" transform="translate(0 0)" fill="#fff" stroke="#fff" stroke-width="1"/>
          <path id="Trazado_997185" data-name="Trazado 997185" d="M38.479,0h0a2.991,2.991,0,0,0-2.772,2.829c-.865,6.986-5.629,12.251-11.713,13.358a3.159,3.159,0,0,0-2.451,3.21,3.156,3.156,0,0,0,2.469,3.214c6.112,1.068,10.886,6.368,11.713,13.354A3,3,0,0,0,38.5,38.817a2.981,2.981,0,0,0,2.767-2.8c.923-7.013,5.76-12.582,11.754-13.49a2.969,2.969,0,0,0,2.388-3.043v-.076a3.083,3.083,0,0,0-2.449-3.156C46.994,15.28,42.132,9.791,41.248,2.8A2.977,2.977,0,0,0,38.479,0" transform="translate(15.071 0)" fill="#fff" stroke="#fff" stroke-width="1"/>
          <path id="Trazado_997186" data-name="Trazado 997186" d="M60.022,0h0A2.991,2.991,0,0,0,57.25,2.829c-.865,6.986-5.629,12.251-11.713,13.358a3.159,3.159,0,0,0-2.451,3.21,3.156,3.156,0,0,0,2.469,3.214c6.112,1.068,10.886,6.368,11.713,13.354a2.771,2.771,0,1,0,5.541.056c.923-7.013,5.76-12.582,11.754-13.49a2.969,2.969,0,0,0,2.388-3.043v-.076A3.083,3.083,0,0,0,74.5,16.256C68.537,15.28,63.675,9.791,62.789,2.8A2.974,2.974,0,0,0,60.022,0" transform="translate(30.142 0)" fill="#fff" stroke="#fff" stroke-width="1"/>
          <path id="Trazado_997187" data-name="Trazado 997187" d="M81.566,0h0a2.991,2.991,0,0,0-2.772,2.829c-.865,6.986-5.629,12.251-11.713,13.358A3.159,3.159,0,0,0,64.63,19.4,3.156,3.156,0,0,0,67.1,22.611c6.112,1.068,10.886,6.368,11.713,13.354a2.771,2.771,0,1,0,5.541.056c.923-7.013,5.76-12.582,11.754-13.49A2.969,2.969,0,0,0,98.5,19.488v-.076a3.083,3.083,0,0,0-2.449-3.156C90.081,15.28,85.219,9.791,84.333,2.8A2.974,2.974,0,0,0,81.566,0" transform="translate(45.213 0)" fill="#fff" stroke="#fff" stroke-width="1"/>
          <path id="Trazado_997188" data-name="Trazado 997188" d="M16.936,22.12h0a2.993,2.993,0,0,0-2.772,2.83C13.3,31.936,8.535,37.2,2.451,38.308a3.327,3.327,0,0,0,.019,6.425C8.581,45.8,13.355,51.1,14.183,58.087a3,3,0,0,0,2.774,2.852,2.982,2.982,0,0,0,2.767-2.8c.923-7.011,5.76-12.58,11.754-13.488a2.971,2.971,0,0,0,2.388-3.043v-.078a3.085,3.085,0,0,0-2.449-3.156C25.451,37.4,20.589,31.911,19.7,24.919a2.974,2.974,0,0,0-2.767-2.8" transform="translate(0 20.97)" fill="#fff" stroke="#fff" stroke-width="1"/>
          <path id="Trazado_997189" data-name="Trazado 997189" d="M38.479,22.12h0a2.993,2.993,0,0,0-2.772,2.83c-.865,6.986-5.629,12.249-11.713,13.358a3.327,3.327,0,0,0,.019,6.425C30.124,45.8,34.9,51.1,35.726,58.087A3,3,0,0,0,38.5,60.938a2.981,2.981,0,0,0,2.767-2.8c.923-7.011,5.76-12.58,11.754-13.488a2.971,2.971,0,0,0,2.388-3.043v-.078a3.085,3.085,0,0,0-2.449-3.156c-5.965-.974-10.828-6.466-11.712-13.457a2.977,2.977,0,0,0-2.769-2.8" transform="translate(15.071 20.97)" fill="#fff" stroke="#fff" stroke-width="1"/>
          <path id="Trazado_997190" data-name="Trazado 997190" d="M60.022,22.12h0a2.993,2.993,0,0,0-2.772,2.83c-.865,6.986-5.629,12.249-11.713,13.358a3.327,3.327,0,0,0,.019,6.425C51.667,45.8,56.441,51.1,57.269,58.087a2.771,2.771,0,1,0,5.541.055c.923-7.011,5.76-12.58,11.754-13.488a2.971,2.971,0,0,0,2.388-3.043v-.078A3.085,3.085,0,0,0,74.5,38.376c-5.965-.974-10.828-6.466-11.713-13.457a2.974,2.974,0,0,0-2.767-2.8" transform="translate(30.142 20.97)" fill="#fff" stroke="#fff" stroke-width="1"/>
          <path id="Trazado_997191" data-name="Trazado 997191" d="M81.566,22.12h0a2.993,2.993,0,0,0-2.772,2.83c-.865,6.986-5.629,12.249-11.713,13.358a3.327,3.327,0,0,0,.019,6.425C73.211,45.8,77.985,51.1,78.813,58.087a2.771,2.771,0,1,0,5.541.055c.923-7.011,5.76-12.58,11.754-13.488A2.971,2.971,0,0,0,98.5,41.61v-.078a3.085,3.085,0,0,0-2.449-3.156c-5.965-.974-10.828-6.466-11.713-13.457a2.974,2.974,0,0,0-2.767-2.8" transform="translate(45.213 20.97)" fill="#fff" stroke="#fff" stroke-width="1"/>
          <path id="Trazado_997192" data-name="Trazado 997192" d="M16.936,44.241h0a2.991,2.991,0,0,0-2.772,2.829C13.3,54.055,8.535,59.321,2.451,60.425a3.329,3.329,0,0,0,.019,6.427c6.112,1.068,10.886,6.368,11.713,13.354a3,3,0,0,0,2.774,2.852,2.984,2.984,0,0,0,2.767-2.8c.923-7.013,5.76-12.582,11.754-13.49a2.971,2.971,0,0,0,2.388-3.043v-.076A3.083,3.083,0,0,0,31.416,60.5C25.451,59.521,20.589,54.032,19.7,47.04a2.974,2.974,0,0,0-2.767-2.8" transform="translate(0 41.942)" fill="#fff" stroke="#fff" stroke-width="1"/>
          <path id="Trazado_997193" data-name="Trazado 997193" d="M38.479,44.241h0a2.991,2.991,0,0,0-2.772,2.829c-.865,6.986-5.629,12.251-11.713,13.356a3.329,3.329,0,0,0,.019,6.427C30.124,67.919,34.9,73.22,35.726,80.206A3,3,0,0,0,38.5,83.058a2.982,2.982,0,0,0,2.767-2.8c.923-7.013,5.76-12.582,11.754-13.49a2.971,2.971,0,0,0,2.388-3.043v-.076A3.083,3.083,0,0,0,52.959,60.5c-5.965-.976-10.828-6.466-11.712-13.457a2.977,2.977,0,0,0-2.769-2.8" transform="translate(15.071 41.942)" fill="#fff" stroke="#fff" stroke-width="1"/>
          <path id="Trazado_997194" data-name="Trazado 997194" d="M60.022,44.241h0A2.991,2.991,0,0,0,57.25,47.07c-.865,6.986-5.629,12.251-11.713,13.356a3.329,3.329,0,0,0,.019,6.427c6.112,1.068,10.886,6.368,11.713,13.354a2.771,2.771,0,1,0,5.541.056c.923-7.013,5.76-12.582,11.754-13.49a2.971,2.971,0,0,0,2.388-3.043v-.076A3.083,3.083,0,0,0,74.5,60.5c-5.965-.976-10.828-6.466-11.713-13.457a2.974,2.974,0,0,0-2.767-2.8" transform="translate(30.142 41.942)" fill="#fff" stroke="#fff" stroke-width="1"/>
          <path id="Trazado_997195" data-name="Trazado 997195" d="M81.566,44.241h0a2.991,2.991,0,0,0-2.772,2.829c-.865,6.986-5.629,12.251-11.713,13.356a3.329,3.329,0,0,0,.019,6.427c6.112,1.068,10.886,6.368,11.713,13.354a2.771,2.771,0,1,0,5.541.056c.923-7.013,5.76-12.582,11.754-13.49A2.971,2.971,0,0,0,98.5,63.729v-.076A3.083,3.083,0,0,0,96.047,60.5c-5.965-.976-10.828-6.466-11.713-13.457a2.974,2.974,0,0,0-2.767-2.8" transform="translate(45.213 41.942)" fill="#fff" stroke="#fff" stroke-width="1"/>
          <path id="Trazado_997196" data-name="Trazado 997196" d="M16.936,66.361h0a2.991,2.991,0,0,0-2.772,2.829C13.3,76.175,8.535,81.441,2.451,82.547a3.327,3.327,0,0,0,.019,6.425c6.112,1.067,10.886,6.368,11.713,13.354a3,3,0,0,0,2.774,2.852,2.982,2.982,0,0,0,2.767-2.8c.923-7.013,5.76-12.582,11.754-13.49a2.969,2.969,0,0,0,2.388-3.043v-.076a3.083,3.083,0,0,0-2.449-3.156C25.451,81.641,20.589,76.152,19.7,69.16a2.974,2.974,0,0,0-2.767-2.8" transform="translate(0 62.912)" fill="#fff" stroke="#fff" stroke-width="1"/>
          <path id="Trazado_997197" data-name="Trazado 997197" d="M38.479,66.361h0a2.991,2.991,0,0,0-2.772,2.829c-.865,6.986-5.629,12.251-11.713,13.358a3.327,3.327,0,0,0,.019,6.425c6.112,1.067,10.886,6.368,11.713,13.354a3,3,0,0,0,2.774,2.852,2.981,2.981,0,0,0,2.767-2.8c.923-7.013,5.76-12.582,11.754-13.49a2.969,2.969,0,0,0,2.388-3.043v-.076a3.083,3.083,0,0,0-2.449-3.156c-5.965-.976-10.828-6.466-11.712-13.457a2.977,2.977,0,0,0-2.769-2.8" transform="translate(15.071 62.912)" fill="#fff" stroke="#fff" stroke-width="1"/>
          <path id="Trazado_997198" data-name="Trazado 997198" d="M60.022,66.361h0A2.991,2.991,0,0,0,57.25,69.19c-.865,6.986-5.629,12.251-11.713,13.358a3.327,3.327,0,0,0,.019,6.425c6.112,1.067,10.886,6.368,11.713,13.354a2.771,2.771,0,1,0,5.541.056c.923-7.013,5.76-12.582,11.754-13.49a2.969,2.969,0,0,0,2.388-3.043v-.076A3.083,3.083,0,0,0,74.5,82.617c-5.965-.976-10.828-6.466-11.713-13.457a2.974,2.974,0,0,0-2.767-2.8" transform="translate(30.142 62.912)" fill="#fff" stroke="#fff" stroke-width="1"/>
          <path id="Trazado_997199" data-name="Trazado 997199" d="M81.566,66.361h0a2.991,2.991,0,0,0-2.772,2.829c-.865,6.986-5.629,12.251-11.713,13.358a3.327,3.327,0,0,0,.019,6.425c6.112,1.067,10.886,6.368,11.713,13.354a2.771,2.771,0,1,0,5.541.056c.923-7.013,5.76-12.582,11.754-13.49A2.969,2.969,0,0,0,98.5,85.849v-.076a3.083,3.083,0,0,0-2.449-3.156c-5.965-.976-10.828-6.466-11.713-13.457a2.974,2.974,0,0,0-2.767-2.8" transform="translate(45.213 62.912)" fill="#fff" stroke="#fff" stroke-width="1"/>
        </g>
      </g>
    </g>
    <g id="Elipse_13774" data-name="Elipse 13774" transform="translate(-559.594 -10233.436) rotate(-90)" fill="none" stroke="#12263f" stroke-width="2" stroke-dasharray="3">
      <circle cx="35" cy="35" r="35" stroke="none"/>
      <circle cx="35" cy="35" r="34" fill="none"/>
    </g>
    <g transform="matrix(1, 0, 0, 1, -722.27, -10697.77)" filter="url(#Trazado_997888)">
      <path id="Trazado_997888-2" data-name="Trazado 997888" d="M25.5,0A25.5,25.5,0,1,1,0,25.5,25.5,25.5,0,0,1,25.5,0Z" transform="translate(172.67 403.34)" fill="#eae7ad"/>
    </g>
    <path id="Trazado_997874" data-name="Trazado 997874" d="M111.6,21.641A55.547,55.547,0,1,1,.5,21.641" transform="translate(-543.153 -10435.641) rotate(-90)" fill="none" stroke="#12263f" stroke-miterlimit="10" stroke-width="3" stroke-dasharray="3 10"/>
    <path id="Trazado_997880" data-name="Trazado 997880" d="M111.6,21.641A55.547,55.547,0,1,1,.5,21.641" transform="translate(-541.571 -9991.261) rotate(-90)" fill="none" stroke="#12263f" stroke-miterlimit="10" stroke-width="1" stroke-dasharray="10"/>
    <path id="Trazado_997876" data-name="Trazado 997876" d="M111.6,21.641A55.547,55.547,0,1,1,.5,21.641" transform="translate(-543.153 -10213.451) rotate(-90)" fill="none" stroke="#12263f" stroke-miterlimit="10" stroke-width="2" stroke-dasharray="3"/>
    <g id="Elipse_13770" data-name="Elipse 13770" transform="translate(-496.594 -10636.436) rotate(90)" fill="none" stroke="#12263f" stroke-width="1">
      <circle cx="35" cy="35" r="35" stroke="none"/>
      <circle cx="35" cy="35" r="34.5" fill="none"/>
    </g>
    <path id="Trazado_997872" data-name="Trazado 997872" d="M111.6,21.641A55.547,55.547,0,1,1,.5,21.641" transform="translate(-511.035 -10658.832) rotate(90)" fill="none" stroke="#12263f" stroke-miterlimit="10" stroke-width="1"/>
    <g id="Grupo_1186514" data-name="Grupo 1186514" transform="translate(-1037.942 -11996.436)">
      <g transform="matrix(1, 0, 0, 1, 315.67, 1298.66)" filter="url(#Elipse_13771)">
        <circle id="Elipse_13771-3" data-name="Elipse 13771" cx="25.5" cy="25.5" r="25.5" transform="translate(164.67 71.34)" fill="#a5b9f6"/>
      </g>
    </g>
    <g id="Elipse_13770-2" data-name="Elipse 13770" transform="translate(-495.012 -10192.057) rotate(90)" fill="none" stroke="#12263f" stroke-width="2">
      <circle cx="35" cy="35" r="35" stroke="none"/>
      <circle cx="35" cy="35" r="34" fill="none"/>
    </g>
    <path id="Trazado_997872-2" data-name="Trazado 997872" d="M111.6,21.641A55.547,55.547,0,1,1,.5,21.641" transform="translate(-509.453 -10214.453) rotate(90)" fill="none" stroke="#12263f" stroke-miterlimit="10" stroke-width="2"/>
    <g id="Grupo_1186514-2" data-name="Grupo 1186514" transform="translate(-1036.36 -11552.057)">
      <g transform="matrix(1, 0, 0, 1, 314.09, 854.28)" filter="url(#Elipse_13771-2)">
        <circle id="Elipse_13771-4" data-name="Elipse 13771" cx="25.5" cy="25.5" r="25.5" transform="translate(166.26 515.72)" fill="#bcefea"/>
      </g>
    </g>
    <g id="Grupo_1186519" data-name="Grupo 1186519" transform="translate(863.406 -11106.783) rotate(90)">
      <g id="Elipse_13776" data-name="Elipse 13776" transform="translate(692.348 1360)" fill="none" stroke="#12263f" stroke-width="3" stroke-dasharray="2 2">
        <circle cx="35" cy="35" r="35" stroke="none"/>
        <circle cx="35" cy="35" r="33.5" fill="none"/>
      </g>
      <path id="Trazado_997877" data-name="Trazado 997877" d="M111.6,21.641A55.547,55.547,0,1,1,.5,21.641" transform="translate(670.141 1374.441)" fill="none" stroke="#12263f" stroke-miterlimit="10" stroke-width="3" stroke-dasharray="2 2"/>
      <g id="Grupo_1186516" data-name="Grupo 1186516" transform="translate(-667.652 2123.348) rotate(-90)">
        <g transform="matrix(1, 0, 0, 1, 537.67, 1076.66)" filter="url(#Elipse_13777)">
          <circle id="Elipse_13777-3" data-name="Elipse 13777" cx="25.5" cy="25.5" r="25.5" transform="translate(164.67 293.34)" fill="#dbe3fb"/>
        </g>
      </g>
    </g>
    <g id="Elipse_13776-2" data-name="Elipse 13776" transform="translate(-495.012 -9970.057) rotate(90)" fill="none" stroke="#12263f" stroke-width="4" stroke-dasharray="2 5">
      <circle cx="35" cy="35" r="35" stroke="none"/>
      <circle cx="35" cy="35" r="33" fill="none"/>
    </g>
    <path id="Trazado_997877-2" data-name="Trazado 997877" d="M111.6,21.641A55.547,55.547,0,1,1,.5,21.641" transform="translate(-509.453 -9992.263) rotate(90)" fill="none" stroke="#12263f" stroke-miterlimit="10" stroke-width="4" stroke-dasharray="2 5"/>
    <g id="Grupo_1186516-2" data-name="Grupo 1186516" transform="translate(-1258.36 -11330.057)">
      <g transform="matrix(1, 0, 0, 1, 536.09, 632.28)" filter="url(#Elipse_13777-2)">
        <circle id="Elipse_13777-4" data-name="Elipse 13777" cx="25.5" cy="25.5" r="25.5" transform="translate(166.26 737.72)" fill="#21c9b8"/>
      </g>
    </g>
    <g id="Grupo_1186518" data-name="Grupo 1186518" transform="translate(-1140.942 -11878.436)">
      <g id="Elipse_13772" data-name="Elipse 13772" transform="translate(651.348 1423) rotate(180)" fill="none" stroke="#12263f" stroke-width="3" stroke-dasharray="3 10">
        <circle cx="35" cy="35" r="35" stroke="none"/>
        <circle cx="35" cy="35" r="33.5" fill="none"/>
      </g>
      <g id="Grupo_1186515" data-name="Grupo 1186515" transform="translate(1 1)">
        <g transform="matrix(1, 0, 0, 1, 417.67, 1179.66)" filter="url(#Elipse_13773)">
          <circle id="Elipse_13773-3" data-name="Elipse 13773" cx="25.5" cy="25.5" r="25.5" transform="translate(171.67 181.34)" fill="#eae7ad"/>
        </g>
      </g>
    </g>
    <g id="Elipse_13772-2" data-name="Elipse 13772" transform="translate(-558.012 -10011.057) rotate(-90)" fill="none" stroke="#12263f" stroke-width="1" stroke-dasharray="10">
      <circle cx="35" cy="35" r="35" stroke="none"/>
      <circle cx="35" cy="35" r="34.5" fill="none"/>
    </g>
    <g id="Grupo_1186515-2" data-name="Grupo 1186515" transform="translate(-1137.36 -11433.057)">
      <g transform="matrix(1, 0, 0, 1, 415.09, 735.28)" filter="url(#Elipse_13773-2)">
        <circle id="Elipse_13773-4" data-name="Elipse 13773" cx="25.5" cy="25.5" r="25.5" transform="translate(174.26 625.72)" fill="#94a6dd"/>
      </g>
    </g>
    <path id="Trazado_997878" data-name="Trazado 997878" d="M-1885.714-10310l8.143-11,5.714,11" transform="translate(-10853.594 -8669.436) rotate(90)" fill="none" stroke="#12263f" stroke-width="1"/>
    <path id="Trazado_997881" data-name="Trazado 997881" d="M-2007.667-10375v-38" transform="translate(-10871.594 -8595.117) rotate(90)" fill="none" stroke="#12263f" stroke-width="1"/>
    <path id="Trazado_997887" data-name="Trazado 997887" d="M-2007.667-10375v-38" transform="translate(-10869.594 -7929.27) rotate(90)" fill="none" stroke="#12263f" stroke-width="4" stroke-dasharray="2 5"/>
    <path id="Trazado_997885" data-name="Trazado 997885" d="M-2007.667-10375v-38" transform="translate(-10871.594 -8150.117) rotate(90)" fill="none" stroke="#12263f" stroke-width="2"/>
    <path id="Trazado_997884" data-name="Trazado 997884" d="M-2007.667-10383.951V-10413" transform="translate(9826.357 -12276.755) rotate(-90)" fill="none" stroke="#12263f" stroke-width="2" stroke-dasharray="3 3"/>
    <path id="Trazado_997883" data-name="Trazado 997883" d="M-2007.667-10375v-38" transform="translate(-10871.594 -8373.117) rotate(90)" fill="none" stroke="#12263f" stroke-width="3" stroke-dasharray="2 2"/>
    <path id="Trazado_997882" data-name="Trazado 997882" d="M-2007.667-10375v-38" transform="translate(9816.406 -12498.755) rotate(-90)" fill="none" stroke="#12263f" stroke-width="3" stroke-dasharray="3 10"/>
    <path id="Trazado_997886" data-name="Trazado 997886" d="M-2007.667-10375v-38" transform="translate(9819.406 -12052.755) rotate(-90)" fill="none" stroke="#12263f" stroke-width="1" stroke-dasharray="10 10"/>
    <g id="Grupo_1186525" data-name="Grupo 1186525" transform="translate(-407.787 44.576)">
      <g id="Rectángulo_456339" data-name="Rectángulo 456339" transform="translate(-53.094 -10663.936)" fill="none" stroke="#12263f" stroke-width="1">
        <rect width="69" height="32" rx="9" stroke="none"/>
        <rect x="0.5" y="0.5" width="68" height="31" rx="8.5" fill="none"/>
      </g>
    </g>
    <g id="Grupo_1186528" data-name="Grupo 1186528" transform="translate(9575.555 -9954.105) rotate(-90)">
      <g id="Rectángulo_456345" data-name="Rectángulo 456345" transform="translate(-0.594 -10036.436) rotate(90)" fill="none" stroke="#12263f" stroke-width="4" stroke-dasharray="2 5">
        <rect width="109" height="32" rx="9" stroke="none"/>
        <rect x="2" y="2" width="105" height="28" rx="7" fill="none"/>
      </g>
    </g>
    <g id="Grupo_1186527" data-name="Grupo 1186527" transform="translate(9812.555 -10178.105) rotate(-90)">
      <g id="Rectángulo_456343" data-name="Rectángulo 456343" transform="translate(5.406 -10272.436) rotate(90)" fill="none" stroke="#12263f" stroke-width="2">
        <rect width="98" height="52" rx="9" stroke="none"/>
        <rect x="1" y="1" width="96" height="50" rx="8" fill="none"/>
      </g>
    </g>
    <g id="Grupo_1186530" data-name="Grupo 1186530" transform="translate(9671.211 -10456.339) rotate(-90)">
      <g id="Rectángulo_456342" data-name="Rectángulo 456342" transform="translate(-203.594 -10259.436) rotate(-90)" fill="none" stroke="#12263f" stroke-width="2" stroke-dasharray="3 3">
        <rect width="112" height="32" rx="9" stroke="none"/>
        <rect x="1" y="1" width="110" height="30" rx="8" fill="none"/>
      </g>
    </g>
    <g id="Grupo_1186526" data-name="Grupo 1186526" transform="translate(9999.555 -10400.105) rotate(-90)">
      <g id="Rectángulo_456341" data-name="Rectángulo 456341" transform="translate(-2.594 -10460.436) rotate(90)" fill="none" stroke="#12263f" stroke-width="3" stroke-dasharray="2 2">
        <rect width="69" height="32" rx="9" stroke="none"/>
        <rect x="1.5" y="1.5" width="66" height="29" rx="7.5" fill="none"/>
      </g>
    </g>
    <g id="Grupo_1186529" data-name="Grupo 1186529" transform="translate(9901.436 -10679.529) rotate(-90)">
      <g id="Rectángulo_456340" data-name="Rectángulo 456340" transform="translate(-204.594 -10497.436) rotate(-90)" fill="none" stroke="#12263f" stroke-width="3" stroke-dasharray="3 10">
        <rect width="77" height="32" rx="9" stroke="none"/>
        <rect x="1.5" y="1.5" width="74" height="29" rx="7.5" fill="none"/>
      </g>
    </g>
    <g id="Grupo_1186531" data-name="Grupo 1186531" transform="translate(9455.436 -10230.529) rotate(-90)">
      <g id="Rectángulo_456344" data-name="Rectángulo 456344" transform="translate(-201.594 -10051.436) rotate(-90)" fill="none" stroke="#12263f" stroke-width="1" stroke-dasharray="10 10">
        <rect width="77" height="32" rx="9" stroke="none"/>
        <rect x="0.5" y="0.5" width="76" height="31" rx="8.5" fill="none"/>
      </g>
    </g>
    <g id="Grupo_1186779" data-name="Grupo 1186779">
      <path id="Trazado_998064" data-name="Trazado 998064" d="M13.916,0H10.479l-1-3.115H4.5L3.516,0H.1L5.2-14h3.74ZM8.76-5.537l-1.5-4.707a6.134,6.134,0,0,1-.234-1.26H6.943A5.341,5.341,0,0,1,6.7-10.283L5.176-5.537Z" transform="translate(-538.594 -10593.436)" fill="#12263f"/>
      <path id="Trazado_998060" data-name="Trazado 998060" d="M10,0H1.6V-14H9.678v2.568H4.756V-8.32h4.58v2.559H4.756v3.2H10Z" transform="translate(-537.012 -10149.057)" fill="#12263f"/>
      <path id="Trazado_998062" data-name="Trazado 998062" d="M11.641-.5a9.235,9.235,0,0,1-4,.742A6.749,6.749,0,0,1,2.568-1.65,6.925,6.925,0,0,1,.723-6.7,7.4,7.4,0,0,1,2.8-12.148a7.259,7.259,0,0,1,5.386-2.09,10.072,10.072,0,0,1,3.457.518v3.037a6.126,6.126,0,0,0-3.2-.84,4.249,4.249,0,0,0-3.184,1.24A4.6,4.6,0,0,0,4.043-6.924,4.514,4.514,0,0,0,5.186-3.687,4.036,4.036,0,0,0,8.262-2.48a6.561,6.561,0,0,0,3.379-.9Z" transform="translate(-538.594 -10371.436)" fill="#12263f"/>
      <path id="Trazado_998058" data-name="Trazado 998058" d="M13.1-.937A10.078,10.078,0,0,1,8,.244a7.372,7.372,0,0,1-5.327-1.87A6.8,6.8,0,0,1,.723-6.777a7.192,7.192,0,0,1,2.129-5.381,7.756,7.756,0,0,1,5.664-2.08,11.5,11.5,0,0,1,3.926.615v2.959A7.8,7.8,0,0,0,8.477-11.6a4.257,4.257,0,0,0-3.2,1.274,4.682,4.682,0,0,0-1.235,3.4,4.7,4.7,0,0,0,1.108,3.34A3.907,3.907,0,0,0,8.145-2.4a4.166,4.166,0,0,0,1.8-.322V-5.459h-2.8v-2.52H13.1Z" transform="translate(-537.012 -9927.057)" fill="#12263f"/>
      <path id="Trazado_998063" data-name="Trazado 998063" d="M1.6,0V-14H6.7a6.366,6.366,0,0,1,3.6.859,2.764,2.764,0,0,1,1.26,2.422A2.866,2.866,0,0,1,10.8-8.74,4.028,4.028,0,0,1,8.838-7.559v.039a3.881,3.881,0,0,1,2.388,1.1,3.086,3.086,0,0,1,.894,2.236,3.738,3.738,0,0,1-1.377,3.052A5.762,5.762,0,0,1,6.982,0ZM4.756-11.68v3.32H6.143a2.311,2.311,0,0,0,1.538-.474,1.614,1.614,0,0,0,.562-1.3q0-1.543-2.3-1.543Zm0,5.664v3.691H6.465a2.63,2.63,0,0,0,1.714-.508A1.7,1.7,0,0,0,8.8-4.219a1.583,1.583,0,0,0-.61-1.318,2.7,2.7,0,0,0-1.7-.479Z" transform="translate(-531.594 -10483.436)" fill="#12263f"/>
      <path id="Trazado_998059" data-name="Trazado 998059" d="M9.7-11.436H4.756V-8H9.3v2.559H4.756V0H1.6V-14H9.7Z" transform="translate(-529.012 -10039.057)" fill="#12263f"/>
      <path id="Trazado_998061" data-name="Trazado 998061" d="M1.6,0V-14H6.563q7.461,0,7.461,6.826a6.9,6.9,0,0,1-2.036,5.225A7.508,7.508,0,0,1,6.563,0ZM4.756-11.436v8.877H6.318a4.222,4.222,0,0,0,3.218-1.23A4.669,4.669,0,0,0,10.7-7.139a4.235,4.235,0,0,0-1.157-3.149A4.412,4.412,0,0,0,6.3-11.436Z" transform="translate(-530.594 -10261.436)" fill="#12263f"/>
      <path id="Trazado_998051" data-name="Trazado 998051" d="M-18.965,0h-2.523V-11.2h2.523Zm1.281-14.766-2.445,2.523H-21.91l2.031-2.523ZM-8.934,0h-2.461V-4.445q0-1.859-1.328-1.859a1.318,1.318,0,0,0-1.055.492,1.875,1.875,0,0,0-.414,1.25V0H-16.66V-8h2.469v1.266h.031A2.829,2.829,0,0,1-11.59-8.2q2.656,0,2.656,3.3ZM.848,0H-1.621V-1.1h-.031A2.768,2.768,0,0,1-4.129.2,3.033,3.033,0,0,1-6.543-.863,4.382,4.382,0,0,1-7.457-3.82,4.77,4.77,0,0,1-6.449-7,3.287,3.287,0,0,1-3.809-8.2,2.246,2.246,0,0,1-1.652-7.086h.031v-4.758H.848ZM-1.574-3.891v-.6a1.893,1.893,0,0,0-.453-1.3A1.5,1.5,0,0,0-3.207-6.3a1.487,1.487,0,0,0-1.281.645,2.993,2.993,0,0,0-.461,1.77A2.59,2.59,0,0,0-4.5-2.266,1.479,1.479,0,0,0-3.27-1.7a1.485,1.485,0,0,0,1.223-.6A2.507,2.507,0,0,0-1.574-3.891Zm5.75-5.375a1.442,1.442,0,0,1-1.023-.371,1.2,1.2,0,0,1-.4-.91,1.153,1.153,0,0,1,.4-.906A1.49,1.49,0,0,1,4.176-11.8a1.486,1.486,0,0,1,1.027.352,1.158,1.158,0,0,1,.395.906,1.191,1.191,0,0,1-.395.922A1.466,1.466,0,0,1,4.176-9.266ZM5.395,0H2.926V-8H5.395Zm8.141-.289A4.881,4.881,0,0,1,11.121.2,4.083,4.083,0,0,1,8.137-.922,3.859,3.859,0,0,1,7-3.8,4.251,4.251,0,0,1,8.219-7.02,4.518,4.518,0,0,1,11.488-8.2a4.2,4.2,0,0,1,2.047.375v2.094A2.814,2.814,0,0,0,11.809-6.3a2.275,2.275,0,0,0-1.684.621A2.317,2.317,0,0,0,9.5-3.969,2.28,2.28,0,0,0,10.1-2.3,2.182,2.182,0,0,0,11.73-1.7a3.258,3.258,0,0,0,1.8-.578ZM22.34-3.3H17.121q.125,1.742,2.2,1.742a4.286,4.286,0,0,0,2.32-.625V-.4A6.1,6.1,0,0,1,18.754.2,4.058,4.058,0,0,1,15.746-.879a4.058,4.058,0,0,1-1.07-3,4.281,4.281,0,0,1,1.156-3.156A3.852,3.852,0,0,1,18.676-8.2a3.5,3.5,0,0,1,2.707,1.039,4,4,0,0,1,.957,2.82ZM20.051-4.812q0-1.719-1.391-1.719a1.328,1.328,0,0,0-1.027.492,2.234,2.234,0,0,0-.527,1.227Z" transform="translate(-426.381 -10596.535)" fill="#12263f"/>
      <path id="Trazado_998057" data-name="Trazado 998057" d="M-43.129-3.859V0h-2.523V-11.2H-41.7q4.234,0,4.234,3.57A3.426,3.426,0,0,1-38.68-4.9a4.813,4.813,0,0,1-3.246,1.043Zm0-5.406v3.492h.992q2.016,0,2.016-1.766,0-1.727-2.016-1.727ZM-29.355-3.3h-5.219q.125,1.742,2.2,1.742a4.286,4.286,0,0,0,2.32-.625V-.4A6.1,6.1,0,0,1-32.941.2,4.058,4.058,0,0,1-35.949-.879a4.058,4.058,0,0,1-1.07-3,4.281,4.281,0,0,1,1.156-3.156A3.852,3.852,0,0,1-33.02-8.2a3.5,3.5,0,0,1,2.707,1.039,4,4,0,0,1,.957,2.82Zm-2.289-1.516q0-1.719-1.391-1.719a1.328,1.328,0,0,0-1.027.492,2.234,2.234,0,0,0-.527,1.227Zm8.977-.961a2.142,2.142,0,0,0-1.039-.242,1.5,1.5,0,0,0-1.258.59,2.573,2.573,0,0,0-.453,1.605V0h-2.469V-8h2.469v1.484h.031a2.136,2.136,0,0,1,2.109-1.625,1.59,1.59,0,0,1,.609.094Zm2.461-3.492a1.442,1.442,0,0,1-1.023-.371,1.2,1.2,0,0,1-.4-.91,1.153,1.153,0,0,1,.4-.906,1.49,1.49,0,0,1,1.023-.352,1.486,1.486,0,0,1,1.027.352,1.158,1.158,0,0,1,.395.906,1.191,1.191,0,0,1-.395.922A1.466,1.466,0,0,1-20.207-9.266ZM-18.988,0h-2.469V-8h2.469ZM-13.1.2A4.3,4.3,0,0,1-16.242-.926a4.064,4.064,0,0,1-1.145-3.043A4.065,4.065,0,0,1-16.2-7.074,4.487,4.487,0,0,1-12.988-8.2,4.249,4.249,0,0,1-9.863-7.074,3.985,3.985,0,0,1-8.73-4.109,4.23,4.23,0,0,1-9.9-.961,4.348,4.348,0,0,1-13.1.2Zm.063-6.5a1.647,1.647,0,0,0-1.359.6A2.653,2.653,0,0,0-14.879-4q0,2.3,1.859,2.3,1.773,0,1.773-2.367Q-11.246-6.3-13.035-6.3ZM.7,0H-1.77V-1.1H-1.8A2.768,2.768,0,0,1-4.277.2,3.033,3.033,0,0,1-6.691-.863,4.382,4.382,0,0,1-7.605-3.82,4.77,4.77,0,0,1-6.6-7,3.287,3.287,0,0,1-3.957-8.2,2.246,2.246,0,0,1-1.8-7.086h.031v-4.758H.7ZM-1.723-3.891v-.6a1.893,1.893,0,0,0-.453-1.3A1.5,1.5,0,0,0-3.355-6.3a1.487,1.487,0,0,0-1.281.645A2.993,2.993,0,0,0-5.1-3.891a2.59,2.59,0,0,0,.445,1.625,1.479,1.479,0,0,0,1.234.57A1.485,1.485,0,0,0-2.2-2.3,2.507,2.507,0,0,0-1.723-3.891Zm5.75-5.375A1.442,1.442,0,0,1,3-9.637a1.2,1.2,0,0,1-.4-.91,1.153,1.153,0,0,1,.4-.906A1.49,1.49,0,0,1,4.027-11.8a1.486,1.486,0,0,1,1.027.352,1.158,1.158,0,0,1,.395.906,1.191,1.191,0,0,1-.395.922A1.466,1.466,0,0,1,4.027-9.266ZM5.246,0H2.777V-8H5.246Zm8.141-.289A4.881,4.881,0,0,1,10.973.2,4.083,4.083,0,0,1,7.988-.922,3.859,3.859,0,0,1,6.848-3.8,4.251,4.251,0,0,1,8.07-7.02,4.518,4.518,0,0,1,11.34-8.2a4.2,4.2,0,0,1,2.047.375v2.094A2.814,2.814,0,0,0,11.66-6.3a2.275,2.275,0,0,0-1.684.621,2.317,2.317,0,0,0-.621,1.715A2.28,2.28,0,0,0,9.949-2.3a2.182,2.182,0,0,0,1.633.605,3.258,3.258,0,0,0,1.8-.578Zm2.867-8.977a1.442,1.442,0,0,1-1.023-.371,1.2,1.2,0,0,1-.4-.91,1.153,1.153,0,0,1,.4-.906,1.49,1.49,0,0,1,1.023-.352,1.486,1.486,0,0,1,1.027.352,1.158,1.158,0,0,1,.395.906,1.191,1.191,0,0,1-.395.922A1.466,1.466,0,0,1,16.254-9.266ZM17.473,0H15V-8h2.469Zm9.906,0H24.91V-1.1h-.031A2.768,2.768,0,0,1,22.4.2,3.033,3.033,0,0,1,19.988-.863a4.382,4.382,0,0,1-.914-2.957A4.77,4.77,0,0,1,20.082-7a3.287,3.287,0,0,1,2.641-1.2,2.246,2.246,0,0,1,2.156,1.109h.031v-4.758h2.469ZM24.957-3.891v-.6a1.893,1.893,0,0,0-.453-1.3,1.5,1.5,0,0,0-1.18-.516,1.487,1.487,0,0,0-1.281.645,2.993,2.993,0,0,0-.461,1.77,2.59,2.59,0,0,0,.445,1.625,1.479,1.479,0,0,0,1.234.57,1.485,1.485,0,0,0,1.223-.6A2.507,2.507,0,0,0,24.957-3.891ZM36.113,0H33.777V-1.148h-.031A2.607,2.607,0,0,1,31.363.2a2.492,2.492,0,0,1-1.832-.66,2.366,2.366,0,0,1-.668-1.762q0-2.328,2.758-2.687L33.793-5.2q0-1.312-1.422-1.312a4.853,4.853,0,0,0-2.719.852V-7.523a6.116,6.116,0,0,1,1.41-.469,7.413,7.413,0,0,1,1.629-.2q3.422,0,3.422,3.414Zm-2.32-3.25v-.539L32.34-3.6q-1.2.156-1.2,1.086a.9.9,0,0,0,.293.691,1.126,1.126,0,0,0,.793.27,1.462,1.462,0,0,0,1.133-.48A1.735,1.735,0,0,0,33.793-3.25ZM45.895,0H43.426V-1.1h-.031A2.768,2.768,0,0,1,40.918.2,3.033,3.033,0,0,1,38.5-.863,4.382,4.382,0,0,1,37.59-3.82,4.77,4.77,0,0,1,38.6-7a3.287,3.287,0,0,1,2.641-1.2,2.246,2.246,0,0,1,2.156,1.109h.031v-4.758h2.469ZM43.473-3.891v-.6a1.893,1.893,0,0,0-.453-1.3A1.5,1.5,0,0,0,41.84-6.3a1.487,1.487,0,0,0-1.281.645,2.993,2.993,0,0,0-.461,1.77,2.59,2.59,0,0,0,.445,1.625,1.479,1.479,0,0,0,1.234.57A1.485,1.485,0,0,0,43-2.3,2.507,2.507,0,0,0,43.473-3.891Z" transform="translate(-405.881 -9932.012)" fill="#12263f"/>
      <path id="Trazado_998055" data-name="Trazado 998055" d="M-29.828-9.148h-3.953V-6.4h3.633v2.047h-3.633V0H-36.3V-11.2h6.477ZM-24.414.2A4.3,4.3,0,0,1-27.559-.926,4.064,4.064,0,0,1-28.7-3.969a4.065,4.065,0,0,1,1.188-3.105A4.487,4.487,0,0,1-24.3-8.2,4.249,4.249,0,0,1-21.18-7.074a3.985,3.985,0,0,1,1.133,2.965A4.23,4.23,0,0,1-21.215-.961,4.348,4.348,0,0,1-24.414.2Zm.063-6.5a1.647,1.647,0,0,0-1.359.6A2.653,2.653,0,0,0-26.2-4q0,2.3,1.859,2.3,1.773,0,1.773-2.367Q-22.562-6.3-24.352-6.3Zm11.125.531a2.142,2.142,0,0,0-1.039-.242,1.5,1.5,0,0,0-1.258.59,2.573,2.573,0,0,0-.453,1.605V0h-2.469V-8h2.469v1.484h.031a2.136,2.136,0,0,1,2.109-1.625,1.59,1.59,0,0,1,.609.094ZM.672,0H-1.789V-4.562Q-1.789-6.3-3.07-6.3a1.177,1.177,0,0,0-.992.523,2.151,2.151,0,0,0-.383,1.3V0H-6.914V-4.609q0-1.7-1.258-1.7a1.206,1.206,0,0,0-1.012.5,2.2,2.2,0,0,0-.379,1.359V0h-2.469V-8h2.469v1.25h.031A2.952,2.952,0,0,1-8.457-7.793a2.952,2.952,0,0,1,1.512-.4A2.3,2.3,0,0,1-4.625-6.7,2.959,2.959,0,0,1-1.937-8.2Q.672-8.2.672-4.977ZM9.281,0H6.945V-1.148H6.914A2.607,2.607,0,0,1,4.531.2,2.492,2.492,0,0,1,2.7-.465a2.366,2.366,0,0,1-.668-1.762q0-2.328,2.758-2.687L6.961-5.2q0-1.312-1.422-1.312a4.853,4.853,0,0,0-2.719.852V-7.523a6.116,6.116,0,0,1,1.41-.469,7.413,7.413,0,0,1,1.629-.2q3.422,0,3.422,3.414ZM6.961-3.25v-.539L5.508-3.6q-1.2.156-1.2,1.086a.9.9,0,0,0,.293.691,1.126,1.126,0,0,0,.793.27,1.462,1.462,0,0,0,1.133-.48A1.735,1.735,0,0,0,6.961-3.25ZM23.477,0H21.008V-1.1h-.031A2.768,2.768,0,0,1,18.5.2,3.033,3.033,0,0,1,16.086-.863a4.382,4.382,0,0,1-.914-2.957A4.77,4.77,0,0,1,16.18-7,3.287,3.287,0,0,1,18.82-8.2a2.246,2.246,0,0,1,2.156,1.109h.031v-4.758h2.469ZM21.055-3.891v-.6a1.893,1.893,0,0,0-.453-1.3,1.5,1.5,0,0,0-1.18-.516,1.487,1.487,0,0,0-1.281.645,2.993,2.993,0,0,0-.461,1.77,2.59,2.59,0,0,0,.445,1.625,1.479,1.479,0,0,0,1.234.57,1.485,1.485,0,0,0,1.223-.6A2.507,2.507,0,0,0,21.055-3.891ZM32.742-3.3H27.523q.125,1.742,2.2,1.742a4.286,4.286,0,0,0,2.32-.625V-.4A6.1,6.1,0,0,1,29.156.2,4.058,4.058,0,0,1,26.148-.879a4.058,4.058,0,0,1-1.07-3,4.281,4.281,0,0,1,1.156-3.156A3.852,3.852,0,0,1,29.078-8.2a3.5,3.5,0,0,1,2.707,1.039,4,4,0,0,1,.957,2.82ZM30.453-4.812q0-1.719-1.391-1.719a1.328,1.328,0,0,0-1.027.492,2.234,2.234,0,0,0-.527,1.227ZM-19.16,23.711a4.881,4.881,0,0,1-2.414.484,4.083,4.083,0,0,1-2.984-1.117A3.859,3.859,0,0,1-25.7,20.2a4.251,4.251,0,0,1,1.223-3.215,4.518,4.518,0,0,1,3.27-1.176,4.2,4.2,0,0,1,2.047.375v2.094a2.814,2.814,0,0,0-1.727-.578,2.275,2.275,0,0,0-1.684.621,2.317,2.317,0,0,0-.621,1.715A2.28,2.28,0,0,0-22.6,21.7a2.182,2.182,0,0,0,1.633.605,3.258,3.258,0,0,0,1.8-.578Zm8.273.289h-2.336V22.852h-.031A2.607,2.607,0,0,1-15.637,24.2a2.492,2.492,0,0,1-1.832-.66,2.366,2.366,0,0,1-.668-1.762q0-2.328,2.758-2.687l2.172-.289q0-1.312-1.422-1.312a4.853,4.853,0,0,0-2.719.852V16.477a6.116,6.116,0,0,1,1.41-.469,7.413,7.413,0,0,1,1.629-.2q3.422,0,3.422,3.414Zm-2.32-3.25v-.539l-1.453.188q-1.2.156-1.2,1.086a.9.9,0,0,0,.293.691,1.126,1.126,0,0,0,.793.27,1.462,1.462,0,0,0,1.133-.48A1.735,1.735,0,0,0-13.207,20.75Zm1.586-8.539-2.445,2.523h-1.781l2.031-2.523ZM-6.465,24H-8.934V12.156h2.469Zm8.141-.289A4.881,4.881,0,0,1-.738,24.2a4.083,4.083,0,0,1-2.984-1.117A3.859,3.859,0,0,1-4.863,20.2,4.251,4.251,0,0,1-3.641,16.98,4.518,4.518,0,0,1-.371,15.8a4.2,4.2,0,0,1,2.047.375v2.094A2.814,2.814,0,0,0-.051,17.7a2.275,2.275,0,0,0-1.684.621,2.317,2.317,0,0,0-.621,1.715A2.28,2.28,0,0,0-1.762,21.7,2.182,2.182,0,0,0-.129,22.3a3.258,3.258,0,0,0,1.8-.578ZM10.895,24H8.434V22.781H8.395A2.792,2.792,0,0,1,5.949,24.2q-2.781,0-2.781-3.367V16H5.629v4.609q0,1.7,1.344,1.7a1.329,1.329,0,0,0,1.063-.465,1.874,1.874,0,0,0,.4-1.262V16h2.461Zm4.547,0H12.973V12.156h2.469Zm5.891.2a4.3,4.3,0,0,1-3.145-1.121,4.064,4.064,0,0,1-1.145-3.043,4.065,4.065,0,0,1,1.188-3.105A4.487,4.487,0,0,1,21.441,15.8a4.249,4.249,0,0,1,3.125,1.121A3.985,3.985,0,0,1,25.7,19.891a4.23,4.23,0,0,1-1.168,3.148A4.348,4.348,0,0,1,21.332,24.2Zm.063-6.5a1.647,1.647,0,0,0-1.359.6,2.653,2.653,0,0,0-.484,1.7q0,2.3,1.859,2.3,1.773,0,1.773-2.367Q23.184,17.7,21.395,17.7Z" transform="translate(-408.229 -10161.512)" fill="#12263f"/>
      <path id="Trazado_998053" data-name="Trazado 998053" d="M-36.27,0h-2.9L-40.91-2.883q-.2-.328-.375-.586a3.255,3.255,0,0,0-.363-.441,1.445,1.445,0,0,0-.383-.281.972.972,0,0,0-.434-.1h-.68V0h-2.523V-11.2h4q4.078,0,4.078,3.047a3.155,3.155,0,0,1-.18,1.082,3.006,3.006,0,0,1-.508.895,3.219,3.219,0,0,1-.793.688,4.089,4.089,0,0,1-1.035.453v.031a1.606,1.606,0,0,1,.484.254,3.468,3.468,0,0,1,.453.41,5.723,5.723,0,0,1,.418.5q.2.27.363.527Zm-6.875-9.312V-6.2h1.094a1.813,1.813,0,0,0,1.3-.469,1.564,1.564,0,0,0,.5-1.18q0-1.469-1.758-1.469ZM-28.676-3.3h-5.219q.125,1.742,2.2,1.742a4.286,4.286,0,0,0,2.32-.625V-.4A6.1,6.1,0,0,1-32.262.2,4.058,4.058,0,0,1-35.27-.879a4.058,4.058,0,0,1-1.07-3,4.281,4.281,0,0,1,1.156-3.156A3.852,3.852,0,0,1-32.34-8.2a3.5,3.5,0,0,1,2.707,1.039,4,4,0,0,1,.957,2.82Zm-2.289-1.516q0-1.719-1.391-1.719a1.328,1.328,0,0,0-1.027.492,2.234,2.234,0,0,0-.527,1.227Zm3.234,4.6v-2a5.256,5.256,0,0,0,1.215.547,4.028,4.028,0,0,0,1.145.18,2.455,2.455,0,0,0,1.035-.18.581.581,0,0,0,.379-.547.506.506,0,0,0-.172-.391,1.6,1.6,0,0,0-.441-.273,5.009,5.009,0,0,0-.59-.211q-.32-.094-.617-.211a5.913,5.913,0,0,1-.84-.387,2.427,2.427,0,0,1-.609-.48A1.889,1.889,0,0,1-27.6-4.8a2.525,2.525,0,0,1-.129-.852A2.192,2.192,0,0,1-27.437-6.8a2.393,2.393,0,0,1,.781-.793,3.57,3.57,0,0,1,1.117-.453A5.825,5.825,0,0,1-24.23-8.2a7.261,7.261,0,0,1,1.078.082,8.047,8.047,0,0,1,1.078.238v1.906a3.9,3.9,0,0,0-1-.41,4.235,4.235,0,0,0-1.051-.137,2.328,2.328,0,0,0-.457.043,1.505,1.505,0,0,0-.379.125.7.7,0,0,0-.258.211.486.486,0,0,0-.094.293.541.541,0,0,0,.141.375,1.221,1.221,0,0,0,.367.27,3.625,3.625,0,0,0,.5.2q.277.09.551.184a7.161,7.161,0,0,1,.891.375,2.848,2.848,0,0,1,.684.477,1.871,1.871,0,0,1,.438.641,2.277,2.277,0,0,1,.152.875A2.282,2.282,0,0,1-21.9-1.23a2.471,2.471,0,0,1-.82.82A3.72,3.72,0,0,1-23.9.051,6.54,6.54,0,0,1-25.285.2,7.149,7.149,0,0,1-27.73-.211ZM-17.668-.93H-17.7V3.68h-2.469V-8H-17.7v1.2h.031A2.9,2.9,0,0,1-15.1-8.2a2.892,2.892,0,0,1,2.4,1.066,4.54,4.54,0,0,1,.848,2.9,4.922,4.922,0,0,1-.988,3.211A3.222,3.222,0,0,1-15.465.2,2.491,2.491,0,0,1-17.668-.93Zm-.07-3.281v.641A2.037,2.037,0,0,0-17.3-2.219a1.424,1.424,0,0,0,1.148.523,1.514,1.514,0,0,0,1.309-.652A3.15,3.15,0,0,0-14.379-4.2q0-2.109-1.641-2.109a1.541,1.541,0,0,0-1.238.574A2.29,2.29,0,0,0-17.738-4.211ZM-6.434.2A4.3,4.3,0,0,1-9.578-.926a4.064,4.064,0,0,1-1.145-3.043A4.065,4.065,0,0,1-9.535-7.074,4.487,4.487,0,0,1-6.324-8.2,4.249,4.249,0,0,1-3.2-7.074,3.985,3.985,0,0,1-2.066-4.109,4.23,4.23,0,0,1-3.234-.961,4.348,4.348,0,0,1-6.434.2Zm.063-6.5a1.647,1.647,0,0,0-1.359.6A2.653,2.653,0,0,0-8.215-4q0,2.3,1.859,2.3,1.773,0,1.773-2.367Q-4.582-6.3-6.371-6.3ZM7.262,0H4.8V-4.445Q4.8-6.3,3.473-6.3a1.318,1.318,0,0,0-1.055.492A1.875,1.875,0,0,0,2-4.562V0H-.465V-8H2v1.266h.031A2.829,2.829,0,0,1,4.605-8.2q2.656,0,2.656,3.3Zm1.43-.211v-2a5.256,5.256,0,0,0,1.215.547,4.028,4.028,0,0,0,1.145.18,2.455,2.455,0,0,0,1.035-.18.581.581,0,0,0,.379-.547.506.506,0,0,0-.172-.391,1.6,1.6,0,0,0-.441-.273,5.009,5.009,0,0,0-.59-.211q-.32-.094-.617-.211a5.913,5.913,0,0,1-.84-.387,2.427,2.427,0,0,1-.609-.48A1.889,1.889,0,0,1,8.82-4.8a2.525,2.525,0,0,1-.129-.852A2.192,2.192,0,0,1,8.984-6.8,2.393,2.393,0,0,1,9.766-7.6a3.57,3.57,0,0,1,1.117-.453A5.825,5.825,0,0,1,12.191-8.2a7.261,7.261,0,0,1,1.078.082,8.047,8.047,0,0,1,1.078.238v1.906a3.9,3.9,0,0,0-1-.41,4.235,4.235,0,0,0-1.051-.137,2.328,2.328,0,0,0-.457.043,1.505,1.505,0,0,0-.379.125.7.7,0,0,0-.258.211.486.486,0,0,0-.094.293.541.541,0,0,0,.141.375,1.221,1.221,0,0,0,.367.27,3.625,3.625,0,0,0,.5.2q.277.09.551.184a7.161,7.161,0,0,1,.891.375,2.848,2.848,0,0,1,.684.477,1.872,1.872,0,0,1,.438.641,2.277,2.277,0,0,1,.152.875,2.282,2.282,0,0,1-.309,1.215,2.471,2.471,0,0,1-.82.82,3.72,3.72,0,0,1-1.18.461A6.54,6.54,0,0,1,11.137.2,7.149,7.149,0,0,1,8.691-.211ZM22.91,0H20.574V-1.148h-.031A2.607,2.607,0,0,1,18.16.2a2.492,2.492,0,0,1-1.832-.66,2.366,2.366,0,0,1-.668-1.762q0-2.328,2.758-2.687L20.59-5.2q0-1.312-1.422-1.312a4.853,4.853,0,0,0-2.719.852V-7.523a6.116,6.116,0,0,1,1.41-.469,7.413,7.413,0,0,1,1.629-.2q3.422,0,3.422,3.414ZM20.59-3.25v-.539L19.137-3.6q-1.2.156-1.2,1.086a.9.9,0,0,0,.293.691,1.126,1.126,0,0,0,.793.27,1.462,1.462,0,0,0,1.133-.48A1.735,1.735,0,0,0,20.59-3.25ZM27.363-.93h-.031V0H24.863V-11.844h2.469V-6.8h.031a2.929,2.929,0,0,1,2.6-1.4,2.855,2.855,0,0,1,2.383,1.063,4.582,4.582,0,0,1,.836,2.906,4.962,4.962,0,0,1-.977,3.211A3.181,3.181,0,0,1,29.6.2,2.521,2.521,0,0,1,27.363-.93ZM27.293-4.3v.82A1.872,1.872,0,0,0,27.738-2.2a1.449,1.449,0,0,0,1.141.508,1.514,1.514,0,0,0,1.309-.652A3.15,3.15,0,0,0,30.652-4.2a2.506,2.506,0,0,0-.426-1.551A1.437,1.437,0,0,0,29.012-6.3a1.569,1.569,0,0,0-1.23.555A2.107,2.107,0,0,0,27.293-4.3ZM37.254,0H34.785V-11.844h2.469ZM46.52-3.3H41.3q.125,1.742,2.2,1.742a4.286,4.286,0,0,0,2.32-.625V-.4A6.1,6.1,0,0,1,42.934.2,4.058,4.058,0,0,1,39.926-.879a4.058,4.058,0,0,1-1.07-3,4.281,4.281,0,0,1,1.156-3.156A3.852,3.852,0,0,1,42.855-8.2a3.5,3.5,0,0,1,2.707,1.039,4,4,0,0,1,.957,2.82ZM44.23-4.812q0-1.719-1.391-1.719a1.328,1.328,0,0,0-1.027.492,2.234,2.234,0,0,0-.527,1.227Z" transform="translate(-644.225 -10263.245)" fill="#12263f"/>
      <path id="Trazado_998054" data-name="Trazado 998054" d="M-5.355,0H-7.848V-6.7q0-1.086.094-2.4h-.062a11.8,11.8,0,0,1-.352,1.484L-10.793,0h-2.062l-2.672-7.539A14.67,14.67,0,0,1-15.879-9.1h-.07q.1,1.656.1,2.906V0h-2.273V-11.2h3.7l2.289,6.641a9.35,9.35,0,0,1,.4,1.6h.047a16.126,16.126,0,0,1,.445-1.617L-8.957-11.2h3.6ZM4.137-3.3H-1.082q.125,1.742,2.2,1.742a4.286,4.286,0,0,0,2.32-.625V-.4A6.1,6.1,0,0,1,.551.2,4.058,4.058,0,0,1-2.457-.879a4.058,4.058,0,0,1-1.07-3A4.281,4.281,0,0,1-2.371-7.031,3.852,3.852,0,0,1,.473-8.2,3.5,3.5,0,0,1,3.18-7.156a4,4,0,0,1,.957,2.82ZM1.848-4.812q0-1.719-1.391-1.719A1.328,1.328,0,0,0-.57-6.039,2.234,2.234,0,0,0-1.1-4.812ZM10.441-.094A3.649,3.649,0,0,1,8.793.2Q6.184.2,6.184-2.516V-6.18h-1.3V-8h1.3V-9.727l2.461-.7V-8h1.8v1.82h-1.8v3.234q0,1.25.992,1.25a1.673,1.673,0,0,0,.8-.227ZM18.488,0H16.152V-1.148h-.031A2.607,2.607,0,0,1,13.738.2a2.492,2.492,0,0,1-1.832-.66,2.366,2.366,0,0,1-.668-1.762q0-2.328,2.758-2.687L16.168-5.2q0-1.312-1.422-1.312a4.853,4.853,0,0,0-2.719.852V-7.523a6.116,6.116,0,0,1,1.41-.469,7.413,7.413,0,0,1,1.629-.2q3.422,0,3.422,3.414Zm-2.32-3.25v-.539L14.715-3.6q-1.2.156-1.2,1.086a.9.9,0,0,0,.293.691,1.126,1.126,0,0,0,.793.27,1.462,1.462,0,0,0,1.133-.48A1.735,1.735,0,0,0,16.168-3.25Z" transform="translate(-426.229 -10374.687)" fill="#12263f"/>
      <path id="Trazado_998052" data-name="Trazado 998052" d="M-17.918,0h-2.75l-.8-2.492h-3.984L-26.238,0h-2.734l4.078-11.2H-21.9Zm-4.125-4.43-1.2-3.766A4.907,4.907,0,0,1-23.434-9.2H-23.5a4.273,4.273,0,0,1-.2.977l-1.219,3.8ZM-14.293,0h-2.469V-11.844h2.469Zm8.141-.289A4.881,4.881,0,0,1-8.566.2,4.083,4.083,0,0,1-11.551-.922,3.859,3.859,0,0,1-12.691-3.8,4.251,4.251,0,0,1-11.469-7.02,4.518,4.518,0,0,1-8.2-8.2a4.2,4.2,0,0,1,2.047.375v2.094A2.814,2.814,0,0,0-7.879-6.3a2.275,2.275,0,0,0-1.684.621,2.317,2.317,0,0,0-.621,1.715A2.28,2.28,0,0,0-9.59-2.3,2.182,2.182,0,0,0-7.957-1.7a3.258,3.258,0,0,0,1.8-.578ZM2.121,0H-.215V-1.148H-.246A2.607,2.607,0,0,1-2.629.2a2.492,2.492,0,0,1-1.832-.66,2.366,2.366,0,0,1-.668-1.762q0-2.328,2.758-2.687L-.2-5.2q0-1.312-1.422-1.312a4.853,4.853,0,0,0-2.719.852V-7.523a6.116,6.116,0,0,1,1.41-.469A7.413,7.413,0,0,1-1.3-8.2q3.422,0,3.422,3.414ZM-.2-3.25v-.539L-1.652-3.6q-1.2.156-1.2,1.086a.9.9,0,0,0,.293.691,1.126,1.126,0,0,0,.793.27,1.462,1.462,0,0,0,1.133-.48A1.735,1.735,0,0,0-.2-3.25ZM11.8,0H9.34V-4.445Q9.34-6.3,8.012-6.3a1.318,1.318,0,0,0-1.055.492,1.875,1.875,0,0,0-.414,1.25V0H4.074V-8H6.543v1.266h.031A2.829,2.829,0,0,1,9.145-8.2Q11.8-8.2,11.8-4.9Zm8.016-.289A4.881,4.881,0,0,1,17.4.2,4.083,4.083,0,0,1,14.418-.922,3.859,3.859,0,0,1,13.277-3.8,4.251,4.251,0,0,1,14.5-7.02,4.518,4.518,0,0,1,17.77-8.2a4.2,4.2,0,0,1,2.047.375v2.094A2.814,2.814,0,0,0,18.09-6.3a2.275,2.275,0,0,0-1.684.621,2.317,2.317,0,0,0-.621,1.715A2.28,2.28,0,0,0,16.379-2.3a2.182,2.182,0,0,0,1.633.605,3.258,3.258,0,0,0,1.8-.578Zm8.8-3.008H23.4q.125,1.742,2.2,1.742a4.286,4.286,0,0,0,2.32-.625V-.4A6.1,6.1,0,0,1,25.035.2,4.058,4.058,0,0,1,22.027-.879a4.058,4.058,0,0,1-1.07-3,4.281,4.281,0,0,1,1.156-3.156A3.852,3.852,0,0,1,24.957-8.2a3.5,3.5,0,0,1,2.707,1.039,4,4,0,0,1,.957,2.82ZM26.332-4.812q0-1.719-1.391-1.719a1.328,1.328,0,0,0-1.027.492,2.234,2.234,0,0,0-.527,1.227Z" transform="translate(-634.652 -10485.462)" fill="#12263f"/>
      <path id="Trazado_998056" data-name="Trazado 998056" d="M-16.7-4.852Q-16.7.2-21.4.2q-4.562,0-4.562-4.93V-11.2h2.531v6.5q0,2.719,2.125,2.719,2.086,0,2.086-2.625V-11.2H-16.7ZM-6.773,0H-9.234V-4.445q0-1.859-1.328-1.859a1.318,1.318,0,0,0-1.055.492,1.875,1.875,0,0,0-.414,1.25V0H-14.5V-8h2.469v1.266H-12A2.829,2.829,0,0,1-9.43-8.2q2.656,0,2.656,3.3Zm3.2-9.266a1.442,1.442,0,0,1-1.023-.371,1.2,1.2,0,0,1-.4-.91,1.153,1.153,0,0,1,.4-.906A1.49,1.49,0,0,1-3.57-11.8a1.486,1.486,0,0,1,1.027.352,1.158,1.158,0,0,1,.395.906,1.191,1.191,0,0,1-.395.922A1.466,1.466,0,0,1-3.57-9.266ZM-2.352,0H-4.82V-8h2.469ZM7.555,0H5.086V-1.1H5.055A2.768,2.768,0,0,1,2.578.2,3.033,3.033,0,0,1,.164-.863,4.382,4.382,0,0,1-.75-3.82,4.77,4.77,0,0,1,.258-7,3.287,3.287,0,0,1,2.9-8.2,2.246,2.246,0,0,1,5.055-7.086h.031v-4.758H7.555ZM5.133-3.891v-.6a1.893,1.893,0,0,0-.453-1.3A1.5,1.5,0,0,0,3.5-6.3a1.487,1.487,0,0,0-1.281.645,2.993,2.993,0,0,0-.461,1.77A2.59,2.59,0,0,0,2.2-2.266a1.479,1.479,0,0,0,1.234.57A1.485,1.485,0,0,0,4.66-2.3,2.507,2.507,0,0,0,5.133-3.891ZM16.289,0H13.953V-1.148h-.031A2.607,2.607,0,0,1,11.539.2a2.492,2.492,0,0,1-1.832-.66,2.366,2.366,0,0,1-.668-1.762q0-2.328,2.758-2.687L13.969-5.2q0-1.312-1.422-1.312a4.853,4.853,0,0,0-2.719.852V-7.523a6.116,6.116,0,0,1,1.41-.469,7.413,7.413,0,0,1,1.629-.2q3.422,0,3.422,3.414Zm-2.32-3.25v-.539L12.516-3.6q-1.2.156-1.2,1.086a.9.9,0,0,0,.293.691,1.126,1.126,0,0,0,.793.27,1.462,1.462,0,0,0,1.133-.48A1.735,1.735,0,0,0,13.969-3.25ZM26.07,0H23.6V-1.1H23.57A2.768,2.768,0,0,1,21.094.2,3.033,3.033,0,0,1,18.68-.863a4.382,4.382,0,0,1-.914-2.957A4.77,4.77,0,0,1,18.773-7a3.287,3.287,0,0,1,2.641-1.2A2.246,2.246,0,0,1,23.57-7.086H23.6v-4.758H26.07ZM23.648-3.891v-.6a1.893,1.893,0,0,0-.453-1.3,1.5,1.5,0,0,0-1.18-.516,1.487,1.487,0,0,0-1.281.645,2.993,2.993,0,0,0-.461,1.77,2.59,2.59,0,0,0,.445,1.625,1.479,1.479,0,0,0,1.234.57,1.485,1.485,0,0,0,1.223-.6A2.507,2.507,0,0,0,23.648-3.891Z" transform="translate(-634.5 -10039.436)" fill="#12263f"/>
    </g>
  </g>
</svg>
