<svg xmlns="http://www.w3.org/2000/svg" xmlns:xlink="http://www.w3.org/1999/xlink" width="103" height="103" viewBox="0 0 103 103">
  <defs>
    <filter id="Elipse_13737" x="0" y="0" width="103" height="103" filterUnits="userSpaceOnUse">
      <feOffset dy="3" input="SourceAlpha"/>
      <feGaussianBlur stdDeviation="3" result="blur"/>
      <feFlood flood-opacity="0.161"/>
      <feComposite operator="in" in2="blur"/>
      <feComposite in="SourceGraphic"/>
    </filter>
  </defs>
  <g id="Grupo_1185642" data-name="Grupo 1185642" transform="translate(-592.348 -2099)">
    <g id="Grupo_1185636" data-name="Grupo 1185636" transform="translate(601.348 2105)">
      <g transform="matrix(1, 0, 0, 1, -9, -6)" filter="url(#Elipse_13737)">
        <circle id="Elipse_13737-2" data-name="Elipse 13737" cx="42.5" cy="42.5" r="42.5" transform="translate(9 6)" fill="#fff"/>
      </g>
    </g>
    <g id="correo-electronico" transform="translate(622.348 2128)">
      <path id="Trazado_151004" data-name="Trazado 151004" d="M36.962,16.393l-6.571-4.78L20.063,4.1a1.373,1.373,0,0,0-1.615,0L1.55,16.393A1.373,1.373,0,0,0,.985,17.5V40.628A1.373,1.373,0,0,0,2.357,42h33.8a1.373,1.373,0,0,0,1.373-1.373V17.5A1.372,1.372,0,0,0,36.962,16.393Z" transform="translate(-0.351 -3.209)" fill="#00aaf0"/>
      <path id="Trazado_151005" data-name="Trazado 151005" d="M2.672,40.628V18.01a1.372,1.372,0,0,1,.565-1.11l16.9-12.291A1.369,1.369,0,0,1,20.5,4.42L20.063,4.1a1.373,1.373,0,0,0-1.615,0L1.55,16.393A1.373,1.373,0,0,0,.985,17.5V40.628A1.373,1.373,0,0,0,2.357,42H4.045A1.373,1.373,0,0,1,2.672,40.628Z" transform="translate(-0.351 -3.209)" fill="#009aef"/>
      <path id="Trazado_151006" data-name="Trazado 151006" d="M19.329,42.158,3.118,55.576h33.8L20.7,42.158A1.078,1.078,0,0,0,19.329,42.158Z" transform="translate(-1.112 -16.785)" fill="#5bddfc"/>
      <g id="Grupo_100489" data-name="Grupo 100489" transform="translate(0.633 14.294)">
        <path id="Trazado_151007" data-name="Trazado 151007" d="M3.737,62.354l-.619.512H4.805A1.369,1.369,0,0,1,3.737,62.354Z" transform="translate(-1.745 -38.369)" fill="#00c3ff"/>
        <path id="Trazado_151008" data-name="Trazado 151008" d="M31.264,36.588,46.952,49.573A1.373,1.373,0,0,0,48.324,48.2V25.076Z" transform="translate(-11.782 -25.076)" fill="#00c3ff"/>
        <path id="Trazado_151009" data-name="Trazado 151009" d="M.985,25.076V48.2a1.373,1.373,0,0,0,1.373,1.373L18.044,36.588Z" transform="translate(-0.985 -25.076)" fill="#00c3ff"/>
      </g>
      <path id="Trazado_151010" data-name="Trazado 151010" d="M2.672,26.215.985,25.076h0V48.2a1.373,1.373,0,0,0,1.373,1.373l.619-.512a1.366,1.366,0,0,1-.3-.86Z" transform="translate(-0.351 -10.782)" fill="#00aaf0"/>
      <path id="Trazado_151011" data-name="Trazado 151011" d="M28.91,16.688A8.581,8.581,0,0,1,31.981,10.1h-21A1.064,1.064,0,0,0,9.92,11.166v12.45l11.311,7.633.524-.433a1.078,1.078,0,0,1,1.375,0l.523.433,10.106-6.82A8.6,8.6,0,0,1,28.91,16.688Z" transform="translate(-3.537 -5.443)" fill="#e4eaf8"/>
      <path id="Trazado_151012" data-name="Trazado 151012" d="M11.608,10.1h-.624A1.064,1.064,0,0,0,9.92,11.166v12.45l1.688,1.139Z" transform="translate(-3.537 -5.443)" fill="#d8dce5"/>
      <ellipse id="Elipse_4768" data-name="Elipse 4768" cx="8.617" cy="8.617" rx="8.617" ry="8.617" transform="translate(25.339 2.628)" fill="#7ce854"/>
      <path id="Trazado_151013" data-name="Trazado 151013" d="M41.038,15.563a8.617,8.617,0,0,1,7.79-8.577c-.272-.026-.548-.04-.827-.04A8.617,8.617,0,0,0,48,24.18c.279,0,.555-.014.827-.04A8.618,8.618,0,0,1,41.038,15.563Z" transform="translate(-14.044 -4.317)" fill="#5ec62e"/>
      <path id="Trazado_151014" data-name="Trazado 151014" d="M48.532,21.849l-2.491-2.4a1.3,1.3,0,0,1,1.8-1.868l1.5,1.45,3.048-3.526a1.3,1.3,0,0,1,1.963,1.7l-3.943,4.562A1.3,1.3,0,0,1,48.532,21.849Z" transform="translate(-16.277 -7.209)" fill="#e4eaf8"/>
      <path id="Trazado_151015" data-name="Trazado 151015" d="M50.164,22.235l-2.491-2.4a1.3,1.3,0,0,1-.326-1.353,1.3,1.3,0,0,0-1.305,2.165l2.491,2.4a1.3,1.3,0,0,0,1.882-.086l.347-.4A1.3,1.3,0,0,1,50.164,22.235Z" transform="translate(-16.277 -8.407)" fill="#d8dce5"/>
      <path id="Trazado_151016" data-name="Trazado 151016" d="M16.428,31.506H32.645a.633.633,0,0,0,0-1.266H16.428a.633.633,0,0,0,0,1.266Z" transform="translate(-5.633 -12.624)"/>
      <path id="Trazado_151017" data-name="Trazado 151017" d="M54.661,14.548a1.928,1.928,0,0,0-2.723.2l-2.611,3.02L48.3,16.779a1.93,1.93,0,0,0-2.679,2.779l2.491,2.4a1.931,1.931,0,0,0,2.8-.128l3.943-4.562A1.929,1.929,0,0,0,54.661,14.548Zm-.76,1.894L49.958,21a.665.665,0,0,1-.964.044l-2.491-2.4a.664.664,0,1,1,.922-.957l1.5,1.45a.633.633,0,0,0,.918-.042L52.9,15.574a.664.664,0,1,1,1.005.869Z" transform="translate(-16.059 -6.86)"/>
      <path id="Trazado_151018" data-name="Trazado 151018" d="M41.849,12.907a.633.633,0,1,0,1.252-.189A9.229,9.229,0,0,0,28.222,6.891H25.1L20.084,3.245a2,2,0,0,0-2.359,0L12.711,6.891H7.446a1.7,1.7,0,0,0-1.7,1.7v3.368L.826,15.536A2.011,2.011,0,0,0,0,17.158V40.282a2.008,2.008,0,0,0,2.006,2.006H17.536a.633.633,0,0,0,0-1.266H3.763l14.857-12.3a.445.445,0,0,1,.568,0l14.857,12.3H20.49a.633.633,0,0,0,0,1.266H35.8a2.009,2.009,0,0,0,2.006-2.006V22.505a9.236,9.236,0,0,0,5.226-6.618.633.633,0,1,0-1.242-.242,7.968,7.968,0,1,1,.058-2.738ZM18.9,27.356a1.819,1.819,0,0,0-1.25.524l-3.908-2.637H24.062L20.154,27.88A1.821,1.821,0,0,0,18.9,27.356ZM18.469,4.269a.738.738,0,0,1,.87,0l3.605,2.622H14.864ZM7.015,8.587a.431.431,0,0,1,.431-.431H26.915a9.228,9.228,0,0,0-2.154,5.32H10.8a.633.633,0,0,0,0,1.266H24.761a9.206,9.206,0,0,0,.433,2.234H10.8a.633.633,0,0,0,0,1.266H25.714a9.257,9.257,0,0,0,3.3,3.658l-3.078,2.077H11.87L7.015,20.7ZM1.57,16.559,5.749,13.52v6.326L1.329,16.863A.74.74,0,0,1,1.57,16.559Zm-.3,1.789L16.638,28.721,1.81,41a.741.741,0,0,1-.544-.713Zm35.276,4.63v17.3A.74.74,0,0,1,36,41L21.17,28.721l9.11-6.147A9.245,9.245,0,0,0,36.542,22.978Z" transform="translate(0 -2.86)"/>
    </g>
  </g>
</svg>
