<svg xmlns="http://www.w3.org/2000/svg" xmlns:xlink="http://www.w3.org/1999/xlink" width="103" height="103" viewBox="0 0 103 103">
  <defs>
    <filter id="Elipse_13737" x="0" y="0" width="103" height="103" filterUnits="userSpaceOnUse">
      <feOffset dy="3" input="SourceAlpha"/>
      <feGaussianBlur stdDeviation="3" result="blur"/>
      <feFlood flood-opacity="0.161"/>
      <feComposite operator="in" in2="blur"/>
      <feComposite in="SourceGraphic"/>
    </filter>
  </defs>
  <g id="Grupo_1185641" data-name="Grupo 1185641" transform="translate(-280 -2099)">
    <g id="Grupo_1185635" data-name="Grupo 1185635" transform="translate(289 2105)">
      <g transform="matrix(1, 0, 0, 1, -9, -6)" filter="url(#Elipse_13737)">
        <circle id="Elipse_13737-2" data-name="Elipse 13737" cx="42.5" cy="42.5" r="42.5" transform="translate(9 6)" fill="#fff"/>
      </g>
    </g>
    <g id="directorio-telefonico" transform="translate(312.537 2125.945)">
      <path id="Trazado_151093" data-name="Trazado 151093" d="M35.653.981H8.332A1.949,1.949,0,0,0,6.382,2.931V38.982L37.6,35.138V2.931A1.949,1.949,0,0,0,35.653.981Z" transform="translate(-5.751 -0.35)" fill="#9dc6fb"/>
      <path id="Trazado_151094" data-name="Trazado 151094" d="M50.559.981H48.183a1.949,1.949,0,0,1,1.949,1.949V35.138l1.1.631,1.276-.631V2.931A1.949,1.949,0,0,0,50.559.981Z" transform="translate(-20.657 -0.35)" fill="#80b4fb"/>
      <path id="Trazado_151095" data-name="Trazado 151095" d="M12.735.981h-4.4A1.949,1.949,0,0,0,6.382,2.931V38.982l6.352-.877Z" transform="translate(-5.751 -0.35)" fill="#26457d"/>
      <path id="Trazado_151096" data-name="Trazado 151096" d="M37.6,54.068H8.872a2.49,2.49,0,0,0-2.49,2.49v2.71a2.49,2.49,0,0,0,2.49,2.49H35.653A1.949,1.949,0,0,0,37.6,59.808v-5.74Z" transform="translate(-5.751 -19.28)" fill="#f9f6f6"/>
      <path id="Trazado_151097" data-name="Trazado 151097" d="M50.139,54.068v5.74a1.949,1.949,0,0,1-1.949,1.949h2.372a1.949,1.949,0,0,0,1.949-1.949v-5.74Z" transform="translate(-20.659 -19.28)" fill="#dddaec"/>
      <path id="Trazado_151098" data-name="Trazado 151098" d="M58.581,14.7H54.906V8.266h2.675a1,1,0,0,1,1,1Z" transform="translate(-23.054 -2.948)" fill="#ffe07d"/>
      <path id="Trazado_151099" data-name="Trazado 151099" d="M54.906,8.266h1.838V14.7H54.906Z" transform="translate(-23.054 -2.948)" fill="#ffd064"/>
      <path id="Trazado_151100" data-name="Trazado 151100" d="M54.906,18.266h3.675V24.7H54.906Z" transform="translate(-23.054 -6.514)" fill="#95d6a4"/>
      <path id="Trazado_151101" data-name="Trazado 151101" d="M54.906,18.266h1.838V24.7H54.906Z" transform="translate(-23.054 -6.514)" fill="#78c2a4"/>
      <path id="Trazado_151102" data-name="Trazado 151102" d="M54.906,28.266h3.675V34.7H54.906Z" transform="translate(-23.054 -10.079)" fill="#e7a561"/>
      <path id="Trazado_151103" data-name="Trazado 151103" d="M54.906,28.266h1.838V34.7H54.906Z" transform="translate(-23.054 -10.079)" fill="#e49542"/>
      <path id="Trazado_151104" data-name="Trazado 151104" d="M57.581,44.7H54.906V38.265h3.675V43.7A1,1,0,0,1,57.581,44.7Z" transform="translate(-23.054 -13.645)" fill="#df73c1"/>
      <path id="Trazado_151105" data-name="Trazado 151105" d="M54.906,38.265h1.838V44.7H54.906Z" transform="translate(-23.054 -13.645)" fill="#dd4fb1"/>
      <path id="Trazado_151106" data-name="Trazado 151106" d="M30.342,25.383l-4.5-4.5a.515.515,0,0,0-.729,0L24.1,21.894a3.871,3.871,0,0,0,0,5.474l8.36,8.36a3.871,3.871,0,0,0,5.474,0l1.012-1.012a.515.515,0,0,0,0-.729l-4.5-4.5a.515.515,0,0,0-.729,0l-.907.907a1.11,1.11,0,0,1-1.57,0l-1.8-1.8a1.11,1.11,0,0,1,0-1.57l.907-.907a.515.515,0,0,0,0-.729Z" transform="translate(-11.664 -7.392)" fill="#f9f6f6"/>
      <g id="Grupo_100514" data-name="Grupo 100514" transform="translate(0 0)">
        <path id="Trazado_151107" data-name="Trazado 151107" d="M11.959,58.434H35.553a.631.631,0,0,0,0-1.263H11.959a.631.631,0,0,0,0,1.263Z" transform="translate(-7.514 -20.387)"/>
        <path id="Trazado_151108" data-name="Trazado 151108" d="M11.959,62.216H35.553a.631.631,0,0,0,0-1.263H11.959a.631.631,0,0,0,0,1.263Z" transform="translate(-7.514 -21.735)"/>
        <path id="Trazado_151109" data-name="Trazado 151109" d="M39.928,4.687H37.884V2.581A2.584,2.584,0,0,0,35.3,0H19.522a.631.631,0,0,0,0,1.263H35.3a1.319,1.319,0,0,1,1.318,1.318V34.156h-23.6V1.263H17A.631.631,0,0,0,17,0H7.982A2.584,2.584,0,0,0,5.4,2.581V39.987a3.125,3.125,0,0,0,3.121,3.121H30.176a.631.631,0,1,0,0-1.263H8.522a1.86,1.86,0,0,1-1.858-1.858v-2.71a1.86,1.86,0,0,1,1.858-1.858h28.1v5.108A1.319,1.319,0,0,1,35.3,41.845H32.7a.631.631,0,0,0,0,1.263h2.6a2.584,2.584,0,0,0,2.581-2.581V31.686h2.044a1.633,1.633,0,0,0,1.631-1.631V6.318a1.633,1.633,0,0,0-1.631-1.631ZM6.664,34.772V2.581A1.319,1.319,0,0,1,7.982,1.263h3.771V34.156H8.522A3.1,3.1,0,0,0,6.664,34.772ZM40.3,17.555H37.884V12.384H40.3Zm-2.412,1.263H40.3v5.171H37.884ZM39.928,5.95a.369.369,0,0,1,.368.368v4.8H37.884V5.95Zm.368,24.1a.369.369,0,0,1-.368.368H37.884V25.252H40.3Z" transform="translate(-5.401 0)"/>
        <path id="Trazado_151110" data-name="Trazado 151110" d="M36.738,7.144a.631.631,0,0,0,0-1.263H29.617a.631.631,0,1,0,0,1.263Z" transform="translate(-13.811 -2.097)"/>
        <path id="Trazado_151111" data-name="Trazado 151111" d="M25.037,13.206H38.051a.631.631,0,0,0,0-1.263H25.037a.631.631,0,0,0,0,1.263Z" transform="translate(-12.178 -4.259)"/>
        <path id="Trazado_151112" data-name="Trazado 151112" d="M32.556,34.931l-4.149-4.149a.631.631,0,0,0-.893.893l4.149,4.149a4.507,4.507,0,0,0,6.367,0l1.012-1.012a1.148,1.148,0,0,0,0-1.622l-4.5-4.5a1.147,1.147,0,0,0-1.622,0l-.907.907a.479.479,0,0,1-.677,0l-1.8-1.8a.479.479,0,0,1,0-.677l.907-.907a1.147,1.147,0,0,0,0-1.622l-4.5-4.5a1.148,1.148,0,0,0-1.622,0L23.3,21.1a4.507,4.507,0,0,0,0,6.367l2.425,2.425A.631.631,0,0,0,26.621,29L24.2,26.571a3.243,3.243,0,0,1,0-4.581l.93-.93L29.465,25.4l-.825.825a1.744,1.744,0,0,0,0,2.463l1.8,1.8a1.744,1.744,0,0,0,2.463,0l.825-.825L38.067,34l-.93.93a3.242,3.242,0,0,1-4.581,0Z" transform="translate(-11.315 -7.043)"/>
      </g>
    </g>
  </g>
</svg>
