<svg xmlns="http://www.w3.org/2000/svg" xmlns:xlink="http://www.w3.org/1999/xlink" width="103" height="103" viewBox="0 0 103 103">
  <defs>
    <filter id="Elipse_13737" x="0" y="0" width="103" height="103" filterUnits="userSpaceOnUse">
      <feOffset dy="3" input="SourceAlpha"/>
      <feGaussianBlur stdDeviation="3" result="blur"/>
      <feFlood flood-opacity="0.161"/>
      <feComposite operator="in" in2="blur"/>
      <feComposite in="SourceGraphic"/>
    </filter>
  </defs>
  <g id="Grupo_1185646" data-name="Grupo 1185646" transform="translate(-279 -1997)">
    <g id="Grupo_1185632" data-name="Grupo 1185632" transform="translate(288 2003)">
      <g transform="matrix(1, 0, 0, 1, -9, -6)" filter="url(#Elipse_13737)">
        <circle id="Elipse_13737-2" data-name="Elipse 13737" cx="42.5" cy="42.5" r="42.5" transform="translate(9 6)" fill="#fff"/>
      </g>
    </g>
    <g id="XMLID_1390_" transform="translate(308.945 2022)">
      <g id="XMLID_2800_" transform="translate(28.121 14.103)">
        <path id="XMLID_282_" d="M54.887,35.146h.024A2.942,2.942,0,0,0,57.852,32.2V26.334a4.413,4.413,0,0,0-4.413-4.413H48.12a4.413,4.413,0,0,0-4.413,4.413V32.2a2.942,2.942,0,0,0,2.942,2.942h8.238Z" transform="translate(-43.707 -21.921)" fill="#ff7d97"/>
      </g>
      <g id="XMLID_2786_" transform="translate(31.489 25.858)">
        <g id="XMLID_2787_">
          <path id="XMLID_361_" d="M56.351,40.191V56.6h-3.7v0h-3.7V40.191Z" transform="translate(-48.942 -40.191)" fill="#8aa8bd"/>
        </g>
      </g>
      <g id="XMLID_2785_" transform="translate(32.165 7.495)">
        <path id="XMLID_360_" d="M53.021,18.258a3.029,3.029,0,0,1-3.029-3.029v-.551a3.029,3.029,0,1,1,6.057,0v.551a3.029,3.029,0,0,1-3.029,3.029Z" transform="translate(-49.992 -11.65)" fill="#efb789"/>
      </g>
      <g id="XMLID_2626_" transform="translate(0.843 28.596)">
        <g id="XMLID_2645_">
          <g id="XMLID_2659_">
            <path id="XMLID_359_" d="M5.351,58.114a4.041,4.041,0,0,1-4.041-4.041V48.486a4.041,4.041,0,1,1,8.083,0v5.587A4.041,4.041,0,0,1,5.351,58.114Z" transform="translate(-1.309 -44.445)" fill="#ffcd69"/>
          </g>
        </g>
        <g id="XMLID_2644_" transform="translate(0.912 0.014)">
          <path id="XMLID_358_" d="M8.986,47.6a3.13,3.13,0,1,1-3.13-3.13A3.13,3.13,0,0,1,8.986,47.6Z" transform="translate(-2.726 -44.467)" fill="#efb789"/>
        </g>
      </g>
      <g id="XMLID_2660_" transform="translate(11.283 12.984)">
        <g id="XMLID_2670_" transform="translate(3.794)">
          <path id="XMLID_357_" d="M26.374,26.064a2.942,2.942,0,1,1,2.942-2.942,2.942,2.942,0,0,1-2.942,2.942Z" transform="translate(-23.432 -20.18)" fill="#efb789"/>
        </g>
        <g id="XMLID_2668_" transform="translate(0 5.884)">
          <path id="XMLID_270_" d="M28.183,41.076h.023a2.8,2.8,0,0,0,2.8-2.8V33.528a4.2,4.2,0,0,0-4.2-4.2H21.738a4.2,4.2,0,0,0-4.2,4.2v4.747a2.8,2.8,0,0,0,2.8,2.8h7.846Z" transform="translate(-17.536 -29.325)" fill="#a0e5a5"/>
        </g>
        <g id="XMLID_2666_" transform="translate(3.368 15.3)">
          <g id="XMLID_2667_">
            <path id="XMLID_356_" d="M29.506,43.96V57.941H26.138v0H22.77V43.96Z" transform="translate(-22.77 -43.96)" fill="#33d6f5"/>
          </g>
        </g>
      </g>
      <g id="XMLID_481_" transform="translate(0 0)">
        <path id="XMLID_484_" d="M57.385,25.151a.842.842,0,0,0-.842.842v2.082a2.1,2.1,0,0,1-1.684,2.058V22.353a.842.842,0,1,0-1.684,0V28.7H47.45V22.353a.842.842,0,1,0-1.684,0v7.781a2.1,2.1,0,0,1-1.684-2.058V22.2a3.575,3.575,0,0,1,3.571-3.571h5.319a3.576,3.576,0,0,1,2.271.815.842.842,0,0,0,1.072-1.3,5.263,5.263,0,0,0-2.829-1.174,3.848,3.848,0,0,0,.7-2.213v-.551a3.871,3.871,0,1,0-7.741,0v.551a3.848,3.848,0,0,0,.7,2.212A5.262,5.262,0,0,0,42.4,22.2v5.871a3.789,3.789,0,0,0,3.368,3.76V45.953a.842.842,0,0,0,.842.842h7.409a.842.842,0,0,0,.842-.842V31.836a3.788,3.788,0,0,0,3.368-3.76V25.993a.842.842,0,0,0-.842-.842ZM48.126,14.212a2.187,2.187,0,1,1,4.374,0v.551a2.187,2.187,0,1,1-4.374,0ZM47.45,30.389h2.021V45.111H47.45Zm5.725,14.723H51.155V30.389h2.021Z" transform="translate(-15.119 -3.688)"/>
        <path id="XMLID_489_" d="M4.884,43.136A4.889,4.889,0,0,0,0,48.019v5.587a4.883,4.883,0,1,0,9.767,0V48.019A4.889,4.889,0,0,0,4.884,43.136Zm0,1.7A2.288,2.288,0,1,1,2.6,47.122,2.29,2.29,0,0,1,4.884,44.834Zm-3.2,4.727,2.021,2.021L1.685,53.6Zm3.2,7.245A3.2,3.2,0,0,1,2.25,55.419l5.834-5.834v4.021A3.2,3.2,0,0,1,4.884,56.806Z" transform="translate(0 -15.383)"/>
        <path id="XMLID_522_" d="M26.926,24.791a3.784,3.784,0,1,0-6.243,0A5.051,5.051,0,0,0,16.227,29.8v4.747a3.647,3.647,0,0,0,3.368,3.632V49a.842.842,0,0,0,.842.842h6.736A.842.842,0,0,0,28.014,49V38.179a3.647,3.647,0,0,0,3.368-3.632V29.8a5.051,5.051,0,0,0-4.456-5.009ZM23.8,20.556a2.1,2.1,0,1,1-2.1,2.1A2.1,2.1,0,0,1,23.8,20.556Zm-2.526,15.3h1.684v12.3H21.279Zm3.368,12.3v-12.3h1.684v12.3ZM29.7,34.547a1.962,1.962,0,0,1-1.684,1.94V30.108a.842.842,0,1,0-1.684,0v4.064H21.279V30.108a.842.842,0,1,0-1.684,0v6.379a1.962,1.962,0,0,1-1.684-1.94V29.8a3.365,3.365,0,0,1,3.361-3.361h5.066A3.365,3.365,0,0,1,29.7,29.8v4.747Z" transform="translate(-5.786 -6.73)"/>
        <path id="XMLID_541_" d="M.841,10.315A.844.844,0,0,0,1,10.3L37.032,3.28l-.364.631a.842.842,0,1,0,1.458.842L39.4,2.541a.842.842,0,0,0-.308-1.15L36.883.114a.842.842,0,0,0-.842,1.458l.24.139L.681,8.647a.842.842,0,0,0,.16,1.669Z" transform="translate(0 -0.001)"/>
        <path id="XMLID_551_" d="M64.629,28.908a.842.842,0,1,0-.247-.6.849.849,0,0,0,.247.6Z" transform="translate(-22.958 -9.796)"/>
      </g>
    </g>
  </g>
</svg>
