<svg xmlns="http://www.w3.org/2000/svg" xmlns:xlink="http://www.w3.org/1999/xlink" width="396" height="253" viewBox="0 0 396 253">
  <defs>
    <clipPath id="clip-path">
      <rect id="Rect치ngulo_456274" data-name="Rect치ngulo 456274" width="396" height="253" transform="translate(913.348 10394)" fill="#d2c6ac"/>
    </clipPath>
    <linearGradient id="linear-gradient" x1="-2.22" y1="4.638" x2="-2.018" y2="4.651" gradientUnits="objectBoundingBox">
      <stop offset="0" stop-color="#0794a0"/>
      <stop offset="1" stop-color="#27c0bd"/>
    </linearGradient>
    <linearGradient id="linear-gradient-2" x1="-0.208" y1="1.822" x2="-0.345" y2="1.727" gradientUnits="objectBoundingBox">
      <stop offset="0" stop-color="#0d1763"/>
      <stop offset="1" stop-color="#1c3b95"/>
    </linearGradient>
    <linearGradient id="linear-gradient-3" x1="-3.676" y1="5.209" x2="-3.873" y2="5.234" gradientUnits="objectBoundingBox">
      <stop offset="0" stop-color="#e2424c"/>
      <stop offset="1" stop-color="#f58777"/>
    </linearGradient>
    <linearGradient id="linear-gradient-4" x1="4.209" y1="1.724" x2="4.438" y2="1.764" gradientUnits="objectBoundingBox">
      <stop offset="0" stop-color="#10174a"/>
      <stop offset="1" stop-color="#204088"/>
    </linearGradient>
  </defs>
  <g id="Enmascarar_grupo_1119310" data-name="Enmascarar grupo 1119310" transform="translate(-913.348 -10394)" clip-path="url(#clip-path)">
    <rect id="Rect치ngulo_456273" data-name="Rect치ngulo 456273" width="396" height="253" transform="translate(913.348 10394)" fill="#f6f1e5"/>
    <g id="_287532298_30a0696e-2d06-4f93-87a8-290a3002e647" data-name="287532298_30a0696e-2d06-4f93-87a8-290a3002e647" transform="translate(964.51 10412.181)">
      <path id="Trazado_997220" data-name="Trazado 997220" d="M1676.757,574.113a4.291,4.291,0,0,1,1.42.322,3.23,3.23,0,0,1,1.722,1.92,2.994,2.994,0,0,1,.078.31,3.08,3.08,0,0,1,.047.316,3.178,3.178,0,0,1,.014.32,3.1,3.1,0,0,1-.019.319,3,3,0,0,1-.052.316,3.124,3.124,0,0,1-.084.308q-.05.152-.115.3a3.058,3.058,0,0,1-.145.283,3.757,3.757,0,0,1-2.437,1.739,3.653,3.653,0,0,1-1.391-.357,3.141,3.141,0,0,1-1.708-1.891,3.238,3.238,0,0,1,.269-2.545A3.428,3.428,0,0,1,1676.757,574.113Z" transform="translate(-1590.99 -574.113)" fill="#e6eaf6"/>
      <path id="Trazado_997221" data-name="Trazado 997221" d="M2202.572,872.281a6.034,6.034,0,0,1,1.406.014,3.631,3.631,0,0,1,2.277,1.7,3.367,3.367,0,0,1,.161.3,3.239,3.239,0,0,1,.129.32q.056.163.1.332c.026.112.047.226.062.34s.024.229.027.345a3.455,3.455,0,0,1-.126,1.026,3.855,3.855,0,0,1-2.225,2.369,4.111,4.111,0,0,1-2.2-.162,3.751,3.751,0,0,1-2.036-2.14,3.392,3.392,0,0,1,.1-2.611A3.543,3.543,0,0,1,2202.572,872.281Z" transform="translate(-2074.68 -847.688)" fill="#e6eaf6"/>
      <path id="Trazado_997222" data-name="Trazado 997222" d="M1235.833,2658.584a5.957,5.957,0,0,1,2.153.075,4.188,4.188,0,0,1,2.482,2.188,3.818,3.818,0,0,1,.133,3.007,4.424,4.424,0,0,1-2.49,2.3,4.565,4.565,0,0,1-2.22.062c-.122-.034-.242-.074-.36-.12a3.727,3.727,0,0,1-.347-.158,3.786,3.786,0,0,1-.329-.192c-.107-.07-.21-.146-.309-.226a3.841,3.841,0,0,1-.969-1.183q-.091-.174-.166-.357c-.05-.122-.093-.246-.131-.372s-.069-.254-.095-.384-.045-.26-.058-.391-.02-.263-.02-.4.006-.263.018-.395.031-.261.055-.391.055-.258.092-.384A4.343,4.343,0,0,1,1235.833,2658.584Z" transform="translate(-1185.609 -2486.82)" fill="#e6eaf6"/>
      <path id="Trazado_997223" data-name="Trazado 997223" d="M669.165,1926.58l.481.085.018,19.587,14.116.017c2.787,0,5.908.328,8.633-.285a6.919,6.919,0,0,0,3.484-1.9,8.705,8.705,0,0,0,1.986-3.538l.371.366a7.806,7.806,0,0,1-3.783,4.9,8.875,8.875,0,0,1-3.094.858,66.173,66.173,0,0,1-7.658.115l-14.038-.022c-.058,4.781.032,9.572-.065,14.351l-.462.026c-.085-4.787-.01-9.59-.011-14.379-3.48,0-13.881.452-16.563-.332a4.851,4.851,0,0,1-3.05-2.352c-1.3-2.557,0-6.2.8-8.735a28.806,28.806,0,0,1-2.8,2.565,25.024,25.024,0,0,1,3.52-4.8c.73,1.4,1.895,3.045,2.229,4.591-1-.333-1.675-1.755-2.189-2.632a22.821,22.821,0,0,0-1.468,6.43,4.334,4.334,0,0,0,1.138,3.248,5.116,5.116,0,0,0,2.581,1.324,29.36,29.36,0,0,0,5.888.177l9.914,0Z" transform="translate(-647.129 -1815.171)" fill="#1f2d8a"/>
      <path id="Trazado_997224" data-name="Trazado 997224" d="M686.331,2908.16a5.016,5.016,0,0,1,2.225.207,4.2,4.2,0,0,1,2.516,2.3,4.7,4.7,0,0,1,.369,1.377,4.671,4.671,0,0,1,.028.478c0,.16-.005.319-.02.478a4.754,4.754,0,0,1-.069.473,4.686,4.686,0,0,1-.278.912,5.249,5.249,0,0,1-3.118,2.862,4.721,4.721,0,0,1-2.63-.285,4.392,4.392,0,0,1-.422-.214,4.318,4.318,0,0,1-.4-.258,4.532,4.532,0,0,1-.369-.3,4.534,4.534,0,0,1-.894-1.112,4.587,4.587,0,0,1-.216-.428,4.638,4.638,0,0,1-.171-.448,4.856,4.856,0,0,1,.241-3.737A4.739,4.739,0,0,1,686.331,2908.16Z" transform="translate(-679.398 -2715.857)" fill="#e6eaf6"/>
      <path id="Trazado_997225" data-name="Trazado 997225" d="M646.2,1476.268a5.171,5.171,0,0,1,2.589.317,4.69,4.69,0,0,1,.434.22,4.78,4.78,0,0,1,.409.265,4.7,4.7,0,0,1,1.037,1.035,4.814,4.814,0,0,1,.677,1.311,4.469,4.469,0,0,1-.2,3.484,5.277,5.277,0,0,1-3.354,2.6,4.039,4.039,0,0,1-2.56-.212,4.25,4.25,0,0,1-2.375-2.409,4.607,4.607,0,0,1-.039-3.5A5.571,5.571,0,0,1,646.2,1476.268Z" transform="translate(-642.497 -1401.924)" fill="#e6eaf6"/>
      <path id="Trazado_997226" data-name="Trazado 997226" d="M4098.107,3117.2c0-.082,0-.164,0-.245a4.222,4.222,0,0,1,1.52-3.075c2.762-2.52,6.891-2.665,10.364-2.389,1.084.086,4.209.281,4.919,1.135l-.177.341c-4.332,3.994-7.464,5.845-13.49,5.446a14.253,14.253,0,0,1-2.989-.657.951.951,0,0,0-.517-.052l-.025-.194Z" transform="translate(-3819.841 -2902.38)" fill="#a792ed"/>
      <path id="Trazado_997227" data-name="Trazado 997227" d="M2861.45,703.626a43.179,43.179,0,0,1,4.714,2.607,4.461,4.461,0,0,0,.319,3.472,3.265,3.265,0,0,0,1.9,1.308,16.255,16.255,0,0,0,1.916.169c.285,1.69.608,3.382.745,5.093-.838.44-1.672.892-2.518,1.315-.132.97-.266,1.931-.311,2.911a3.948,3.948,0,0,1,1.1.928,1.2,1.2,0,0,1-.124,1.041,15.838,15.838,0,0,1-2.159,2.605,18.607,18.607,0,0,0-2.2-.991,24.271,24.271,0,0,0-2.383,1.934l.2,2.422-1.925.51a25.956,25.956,0,0,1-1.043-3.931,12.912,12.912,0,0,0,3.013-1.386,8.633,8.633,0,0,0,3.823-5.588,11.035,11.035,0,0,0-1.708-8.152,7.948,7.948,0,0,0-5.545-3.77,22.817,22.817,0,0,1-2.657-.156l-.178-.334c1.121-.045,2.23-.046,3.352-.018A10.446,10.446,0,0,1,2861.45,703.626Z" transform="translate(-2678.388 -692.957)" fill="#98116f"/>
      <path id="Trazado_997228" data-name="Trazado 997228" d="M3471.638,664.883a6.248,6.248,0,0,1,2.936.405,5.233,5.233,0,0,1,.484.237,5.314,5.314,0,0,1,.458.286,5.34,5.34,0,0,1,.82.706q.187.2.354.413a5.512,5.512,0,0,1,.576.925,5.465,5.465,0,0,1,.217.5c.071.184.132.372.186.563s.1.384.129.579.057.392.071.589.019.4.014.594-.02.4-.044.592-.058.391-.1.584-.1.383-.158.571-.134.371-.214.552a6.1,6.1,0,0,1-4.027,3.255,5.88,5.88,0,0,1-3.29-.641,5.546,5.546,0,0,1-.484-.29,5.628,5.628,0,0,1-.455-.337q-.218-.18-.419-.382t-.38-.423a5.678,5.678,0,0,1-.336-.46q-.157-.238-.291-.492t-.241-.519c-.072-.177-.135-.358-.189-.541s-.1-.36-.13-.543-.061-.367-.078-.553-.026-.372-.025-.558.01-.372.027-.558.045-.37.081-.553.08-.364.132-.542.114-.354.184-.526a5.5,5.5,0,0,1,.232-.506A6.02,6.02,0,0,1,3471.638,664.883Z" transform="translate(-3239.866 -657.386)" fill="#e6eaf6"/>
      <path id="Trazado_997229" data-name="Trazado 997229" d="M4095.452,2907.653a14.473,14.473,0,0,1,5.814-9.146c4.71-3.256,13.955-4.74,19.533-3.654l.182.074a24.854,24.854,0,0,1-13.374,12.627,17.82,17.82,0,0,1-11.736.371c-.842.572-1.534,1.354-2.376,1.905l-.161-.449A20.709,20.709,0,0,0,4095.452,2907.653Z" transform="translate(-3815.813 -2703.359)" fill="#a792ed"/>
      <path id="Trazado_997230" data-name="Trazado 997230" d="M2724.287,702.575a44.581,44.581,0,0,1,5.232-3.039c.5.754.924,1.554,1.361,2.346l.178.334a22.776,22.776,0,0,0,2.657.156,7.946,7.946,0,0,1,5.545,3.77,11.035,11.035,0,0,1,1.708,8.152,8.634,8.634,0,0,1-3.823,5.588,12.914,12.914,0,0,1-3.014,1.386,26.067,26.067,0,0,0,1.043,3.931,2.435,2.435,0,0,1-.461.229,2.16,2.16,0,0,1-1.8.1c-.726-.434-.933-1.5-1.171-2.267l-2.651-1.116a18.544,18.544,0,0,0-2.974,2.369,28.078,28.078,0,0,1-4.149-3.868c.579-.883,1.25-1.7,1.9-2.527a16.547,16.547,0,0,1-1.222-3.829c-.891-.392-1.837-.7-2.751-1.037q-.013-.686.028-1.371t.133-1.364q.093-.68.238-1.349t.34-1.326l2.232-.086a38.238,38.238,0,0,0,2.291-3.134Z" transform="translate(-2552.832 -689.204)" fill="#f379b8"/>
      <path id="Trazado_997231" data-name="Trazado 997231" d="M2816.526,791.451a6.771,6.771,0,0,1,2.236.105,4.744,4.744,0,0,1,2.893,2.484,6.011,6.011,0,0,1,.3,4.667,5.5,5.5,0,0,1-3.181,3.2,4.462,4.462,0,0,1-2.467-.219,5.206,5.206,0,0,1-2.905-2.986,5.936,5.936,0,0,1-.018-4.384A4.9,4.9,0,0,1,2816.526,791.451Z" transform="translate(-2638.421 -773.511)" fill="#fefefe"/>
      <path id="Trazado_997232" data-name="Trazado 997232" d="M3859.521,3581.509l16.84,0c2.943,0,6.791-.368,9.646.293a9.64,9.64,0,0,1,4.542,2.665,9.318,9.318,0,0,1,2.477,4.421c.717,3.116.364,6.8.395,10.006q.13,10.262.052,20.522c-1.922-2.176-3.753-4.851-6.012-6.665-.172-5.881,0-11.779,0-17.662,0-1.824-.052-3.565-1.437-4.906a4.509,4.509,0,0,0-2.062-1.185c-2.065-.451-4.54-.155-6.666-.14l-9.8.027C3865.557,3586.633,3860.836,3583.507,3859.521,3581.509Z" transform="translate(-3600.803 -3333.677)" fill="#f87d7c"/>
      <path id="Trazado_997233" data-name="Trazado 997233" d="M4123.075,2542.74c-2.824,9.251-4.944,24.976-14.074,29.9a10.034,10.034,0,0,1-7.127.849c-.134-.042-.264-.093-.4-.136-.032-.012-.066-.019-.1-.028q-1.3,3.141-2.473,6.337l-.311-.148c-.671-.74-.858-2.855-1.24-3.929a18.9,18.9,0,0,0,2.459-10.929,20.732,20.732,0,0,1-.745-3.021c.433.525.51.7,1.167.909l-.176-.052.3-.109-.075-.576.155-.114.121.029c.1-.187.068-.09.113-.336.871-4.726,1.966-6.694,5.228-10.09,4.086-3.619,10.218-5.873,15.393-7.253A18.423,18.423,0,0,1,4123.075,2542.74Z" transform="translate(-3819.51 -2380.575)" fill="#a792ed"/>
      <path id="Trazado_997234" data-name="Trazado 997234" d="M4118.681,2772.07c.432.526.508.7,1.166.909l-.175-.052.3-.109-.074-.576.155-.115.121.03c-.085,1.174-.2,2.358-.2,3.535l-.546-.6A20.615,20.615,0,0,1,4118.681,2772.07Z" transform="translate(-3839.121 -2591.014)" fill="#e6eaf6"/>
      <path id="Trazado_997235" data-name="Trazado 997235" d="M4099.815,2808.75l.546.6c.1,2.024.034,4.95,1.086,6.741-1.072,2.467-1.879,5.014-2.851,7.516-.671-.739-.858-2.855-1.24-3.928A18.893,18.893,0,0,0,4099.815,2808.75Z" transform="translate(-3819.512 -2624.672)" fill="#fefefe"/>
      <path id="Trazado_997236" data-name="Trazado 997236" d="M864.714,1697.9a2.558,2.558,0,0,1,1.894.661,3.291,3.291,0,0,1,.7,1.706c.331,2.188-.032,4.7-.048,6.917a44.305,44.305,0,0,1-.008,4.832,2.746,2.746,0,0,1-.944,2.091c-2.409,1.813-15.076,1.794-18.962,2.716l-.481-.085c-1.4.1-3.914.859-5.108-.023a3.133,3.133,0,0,1-.914-2.182,42.963,42.963,0,0,1,.048-4.869,56.083,56.083,0,0,1,.054-6.518,4.111,4.111,0,0,1,.756-2.136,5.226,5.226,0,0,1,2.5-.991,91.137,91.137,0,0,1,9.691-1.027c3.4-.324,6.886-.863,10.29-.947Z" transform="translate(-824.824 -1605.328)" fill="#f9b861"/>
      <path id="Trazado_997237" data-name="Trazado 997237" d="M920.16,1801.16a1.614,1.614,0,0,1,1.143.867,2.058,2.058,0,0,1-.453,1.345,2.53,2.53,0,0,1-.661-.138c-.379-.206-.423-.388-.555-.77A2.285,2.285,0,0,1,920.16,1801.16Z" transform="translate(-897.346 -1700.082)" fill="#1f2d8a"/>
      <path id="Trazado_997238" data-name="Trazado 997238" d="M1084.868,1786.82a2.7,2.7,0,0,1,.675.066c.435.162.5.279.686.674a2.176,2.176,0,0,1-.55,1.3,2.382,2.382,0,0,1-.636-.051c-.424-.164-.475-.322-.653-.71A2,2,0,0,1,1084.868,1786.82Z" transform="translate(-1048.852 -1686.924)" fill="#1f2d8a"/>
      <path id="Trazado_997239" data-name="Trazado 997239" d="M1004.245,1792.83a2.894,2.894,0,0,1,.677.263c.394.294.408.476.493.93a2.274,2.274,0,0,1-.81,1.241,2.958,2.958,0,0,1-.684-.286,1.161,1.161,0,0,1-.488-.93A2.317,2.317,0,0,1,1004.245,1792.83Z" transform="translate(-974.407 -1692.438)" fill="#1f2d8a"/>
      <path id="Trazado_997240" data-name="Trazado 997240" d="M1254.824,2231.237a11.219,11.219,0,0,1,2.856-2.012c3.11-1.55,5.981-1.411,9.194-.285.733.4,1.472.791,2.186,1.226a18.178,18.178,0,0,1,4.543,6.237c.527,4.467.965,7.166-.7,11.479a11.228,11.228,0,0,1-6.605,5.782c-.333.1-.674.171-1.014.24a13.167,13.167,0,0,1-5.877-.595,12.275,12.275,0,0,1-7.07-6.253,8.27,8.27,0,0,1-1.2-2.762c-.833-2.887-.678-7.237.952-9.831.57-.907,1.474-1.668,1.954-2.616.037-.073.072-.148.108-.222A2.586,2.586,0,0,0,1254.824,2231.237Z" transform="translate(-1201.742 -2091.832)" fill="#789bf2"/>
      <path id="Trazado_997241" data-name="Trazado 997241" d="M1274.148,2231.237a11.257,11.257,0,0,1,1.352-1.12,11.135,11.135,0,0,1,1.5-.893c3.11-1.55,5.981-1.411,9.194-.285.733.4,1.472.791,2.186,1.226a18.181,18.181,0,0,1,4.543,6.237c.527,4.467.965,7.166-.7,11.479a11.228,11.228,0,0,1-6.605,5.782c-.333.1-.674.171-1.014.24a13.169,13.169,0,0,1-5.878-.595,12.277,12.277,0,0,1-7.069-6.253c.8.007,2.656,1.944,3.416,2.455q.224.15.454.29t.468.267q.237.128.48.242t.491.217c.166.068.333.132.5.191s.339.115.51.166.344.1.518.139.348.079.524.112.352.061.529.085.354.043.532.058.356.024.534.03.357.006.535,0,.357-.012.535-.025.356-.031.533-.053.354-.048.53-.08.351-.067.525-.107a11,11,0,0,0,6.644-5.353,10.555,10.555,0,0,0,1.054-7.992,11.2,11.2,0,0,0-5.027-7.02,10.388,10.388,0,0,0-8.925-.578,25.837,25.837,0,0,1-2.571,1.072C1274.354,2231.2,1274.251,2231.215,1274.148,2231.237Z" transform="translate(-1221.066 -2091.832)" fill="#5b64ef"/>
      <path id="Trazado_997242" data-name="Trazado 997242" d="M2160.808,4224.6l59.835.1,16.979-.015a63.482,63.482,0,0,0,8.154-.1c.024,1.873.155,3.935-1.233,5.388a4.018,4.018,0,0,1-2.681,1.256,82.612,82.612,0,0,1-9.138.093l-18.155.009c-17.291-.011-34.621.258-51.907.024-.115,0-.229,0-.344-.009a4.544,4.544,0,0,1-1.242-.886c-1.2-1.282-.736-4.1-.714-5.746Z" transform="translate(-2038.195 -3923.88)" fill="#161848"/>
      <path id="Trazado_997243" data-name="Trazado 997243" d="M3394.768,3641.228c-.7.041-1.4.036-2.1.041l-15.808.023c-3.346,0-7.229.416-10.49-.366a8.37,8.37,0,0,1-4.322-2.421c-2.592-2.659-2.869-5.532-2.884-9.112l-.017-25.963c0-3.287-.366-9.277.213-12.238a12.332,12.332,0,0,1,3.223-6.11c4.268-4.337,9.95-3.521,15.446-3.5l10.75.008c2.158,2.192,5.335,4.778,6.948,7.349l-17.234-.049a69.892,69.892,0,0,0-9.656.181c-.08.011-.16.02-.239.032a4.949,4.949,0,0,0-2.688,2.185,4.2,4.2,0,0,0-.638,2.094c-.166,2.4-.051,4.883-.04,7.292l.06,12.75.025,9.816c0,2.26-.306,5.18.244,7.363a7.355,7.355,0,0,0,3.084,4.2,7.837,7.837,0,0,0,2.973.909,62.025,62.025,0,0,0,7.173.1c3.383,0,6.794.083,10.174-.026C3390.851,3637.651,3392.914,3639.334,3394.768,3641.228Z" transform="translate(-3140.564 -3333.773)" fill="#45aff1"/>
      <path id="Trazado_997244" data-name="Trazado 997244" d="M939.875,1509.553c2.837.011,6.4-.424,9.162.125a4.649,4.649,0,0,1,2.381,2.682c.5,1.64.419,32.2.266,35.632-.058,1.3-.9,2.29-1,3.533-.16,2.062.184,4.137.036,6.2a8.705,8.705,0,0,1-1.986,3.538,6.925,6.925,0,0,1-3.484,1.9c-2.725.612-5.846.288-8.633.285l-14.116-.017-.018-19.587c3.886-.921,16.554-.9,18.962-2.715a2.746,2.746,0,0,0,.944-2.091,44.244,44.244,0,0,0,.008-4.832c.016-2.218.379-4.73.048-6.917a3.291,3.291,0,0,0-.7-1.706,2.561,2.561,0,0,0-1.894-.661C939.93,1519.807,939.871,1514.676,939.875,1509.553Z" transform="translate(-899.972 -1432.356)" fill="#fefefe"/>
      <path id="Trazado_997245" data-name="Trazado 997245" d="M715.309,2345.791a19.308,19.308,0,0,1,11.406,4.073,17.406,17.406,0,0,1,6.69,11.714,17.992,17.992,0,0,1-3.515,13.414q-.285.373-.589.731t-.624.7q-.32.342-.656.667t-.688.633q-.352.308-.718.6t-.746.56q-.38.27-.772.521t-.8.481q-.4.23-.819.44t-.839.4q-.425.189-.857.355t-.874.311q-.441.145-.888.266t-.9.22q-.452.1-.909.175t-.917.128a17.326,17.326,0,0,1-13.25-3.859,18.007,18.007,0,0,1-2.849-25.438,19.029,19.029,0,0,1,13.647-7.06Z" transform="translate(-692.822 -2199.849)" fill="#f47045"/>
      <path id="Trazado_997246" data-name="Trazado 997246" d="M851.613,2389.217a4.2,4.2,0,0,1,3.538-.6,3.484,3.484,0,0,1,2.154,1.59,1.652,1.652,0,0,1,.2,1.123,2.621,2.621,0,0,1-1.184,1.449,1.283,1.283,0,0,1-.148.058c-3.723,1.654-4.891,1.133-8.629.141a2.744,2.744,0,0,1-1.332-1.426,1.637,1.637,0,0,1,.3-1.334,3.9,3.9,0,0,1,2.587-1.408,5.192,5.192,0,0,1,2.046.279l.294.077Z" transform="translate(-829.786 -2238.998)" fill="#98116f"/>
      <path id="Trazado_997247" data-name="Trazado 997247" d="M867.019,2441.67a7.852,7.852,0,0,1,.5,3.556q-.032.271-.09.537t-.142.526q-.084.258-.193.508t-.242.486a5.434,5.434,0,0,1-.991,1.275q-.2.185-.408.35a4.6,4.6,0,0,1-3.64.988,4.47,4.47,0,0,1-.465-.116,4.552,4.552,0,0,1-.45-.164,4.5,4.5,0,0,1-.839-.468,4.6,4.6,0,0,1-.38-.3,4.7,4.7,0,0,1-.347-.337,4.559,4.559,0,0,1-.311-.371,4.79,4.79,0,0,1-.272-.4c-1.132-1.851-.847-3.931-.355-5.928C862.128,2442.8,863.3,2443.324,867.019,2441.67Z" transform="translate(-840.632 -2287.83)" fill="#fefefe"/>
      <path id="Trazado_997248" data-name="Trazado 997248" d="M812.589,2555.413a1.954,1.954,0,0,1,.207,0,6.7,6.7,0,0,1,3.589,2.287,10.943,10.943,0,0,1,2.409,8.3l-13.408.044-5.682-.014a12.647,12.647,0,0,1,1.108-6.389,8.516,8.516,0,0,1,5.405-4.18A6.822,6.822,0,0,0,812.589,2555.413Z" transform="translate(-787.047 -2392.201)" fill="#fefefe"/>
      <path id="Trazado_997249" data-name="Trazado 997249" d="M3794.7,712.318a20.687,20.687,0,0,1,22.979,16.632q.091.492.159.989t.11,1q.044.5.063,1t.014,1q-.006.5-.035,1t-.083,1q-.053.5-.131.993t-.179.985q-.1.49-.227.975t-.273.962q-.149.478-.319.947t-.365.93q-.193.461-.409.91t-.452.889q-.237.438-.5.864t-.536.838a20.816,20.816,0,0,1-14.126,9.03q-.483.069-.97.115t-.975.067q-.488.022-.977.019t-.977-.029q-.489-.027-.974-.077t-.969-.125q-.483-.074-.962-.173t-.953-.22q-.475-.122-.942-.267t-.928-.313q-.461-.168-.912-.358t-.895-.4q-.443-.212-.875-.446t-.853-.489c-.28-.17-.557-.346-.828-.53s-.54-.374-.8-.57-.542-.408-.806-.622-.522-.435-.775-.662-.5-.461-.742-.7-.478-.486-.708-.737-.454-.51-.67-.772-.428-.532-.632-.806-.4-.553-.593-.837-.374-.573-.551-.866-.346-.591-.509-.893-.317-.608-.464-.918-.287-.623-.419-.94-.257-.637-.374-.96-.226-.649-.326-.978-.194-.66-.279-.994-.161-.669-.23-1.007-.129-.676-.181-1.017a20.09,20.09,0,0,1,17.357-23.434Z" transform="translate(-3525.018 -700.842)" fill="url(#linear-gradient)"/>
      <path id="Trazado_997250" data-name="Trazado 997250" d="M3900.428,876.316a3.41,3.41,0,0,1,.65.1,1.424,1.424,0,0,1,1.016.829,2.2,2.2,0,0,1-.489,1.494c-1.582,2.332-6.035,5.872-8.278,7.969-1.316,1.23-2.533,2.622-3.913,3.774a4.087,4.087,0,0,1-1.7,1.048c-.981.118-5.989-4.84-7.052-5.773a6.689,6.689,0,0,1-1.65-1.808,1.293,1.293,0,0,1-.02-1.178,1.064,1.064,0,0,1,.865-.6c1.7-.179,6.394,4.834,7.823,6.155,2.924-2.923,5.83-5.843,8.875-8.635A40.9,40.9,0,0,1,3900.428,876.316Z" transform="translate(-3618.583 -851.422)" fill="#fefefe"/>
      <path id="Trazado_997251" data-name="Trazado 997251" d="M3886.916,1393.84a119.349,119.349,0,0,1,10.636,18.516c4.832,10.76,8.116,24.078,7.843,35.966-.153,6.684-1.374,13.574-2.5,20.149-.841,4.9-1.727,9.813-2.855,14.649-.508,2.176-3.668,13.025-3.647,13.912-3.261,3.4-4.356,5.364-5.227,10.09-.046.247-.01.15-.114.337l-.121-.029-.155.114.075.576-.3.109.175.052c-.658-.211-.734-.383-1.167-.909-.539-3.148-2.036-6.863-3.1-9.908l-.457-1.351a26.984,26.984,0,0,0,5.454-1.4,18.778,18.778,0,0,0-.856-2.916l-1.783-.27a47.962,47.962,0,0,0-1.227-5.758,5.3,5.3,0,0,1-1.63,1.282c-3.973-12.289-7.327-25.119-16.438-34.589a16.3,16.3,0,0,1,.41-4.016c1.359-4.695,7.179-4.242,9.664-9.414a9.806,9.806,0,0,0,.943-5.377c-.756-5.363-5.617-5.679-8.6-8.878a6.221,6.221,0,0,1-1.357-2.6c.683-2.992,2.156-5.2,2.116-8.425a26.033,26.033,0,0,0,4.661-4.917A74.378,74.378,0,0,0,3886.916,1393.84Z" transform="translate(-3610.003 -1326.315)" fill="#bbc6e7"/>
      <path id="Trazado_997252" data-name="Trazado 997252" d="M4156.071,1879.2a4.241,4.241,0,0,1,1.691.134,3.2,3.2,0,0,1,1.9,1.716c.039.089.074.18.1.272s.055.186.076.281.039.191.052.288.019.194.021.291,0,.195,0,.293a2.9,2.9,0,0,1-.033.29,2.6,2.6,0,0,1-.06.286,2.78,2.78,0,0,1-.086.279,3.652,3.652,0,0,1-2.08,2.076,4.785,4.785,0,0,1-1.646-.137,3.234,3.234,0,0,1-1.948-1.728c-.041-.089-.076-.18-.109-.273s-.059-.187-.082-.283-.04-.192-.055-.29-.021-.2-.025-.294,0-.2,0-.3.017-.2.031-.293.035-.194.059-.289.055-.189.088-.282A3.566,3.566,0,0,1,4156.071,1879.2Z" transform="translate(-3871.4 -1771.667)" fill="#1f2d8a"/>
      <path id="Trazado_997253" data-name="Trazado 997253" d="M4164.359,1889.045a5.5,5.5,0,0,1,1.049-.011,2.432,2.432,0,0,1,1.634.936,2.11,2.11,0,0,1,.368,1.623,2.986,2.986,0,0,1-1.569,2.06,4.161,4.161,0,0,1-1.089-.007,2.526,2.526,0,0,1-1.674-1.213c-.036-.063-.069-.128-.1-.194s-.055-.134-.077-.2-.042-.139-.059-.211-.028-.143-.037-.215-.014-.145-.016-.218a2.179,2.179,0,0,1,.005-.219q.009-.109.026-.217c.013-.072.028-.143.048-.213A2.788,2.788,0,0,1,4164.359,1889.045Z" transform="translate(-3879.682 -1780.697)" fill="#bbc6e7"/>
      <path id="Trazado_997254" data-name="Trazado 997254" d="M2546.727,932.925c.093-.022.187-.04.279-.066.777-.213,8.275-7.106,9.69-8.257a73.99,73.99,0,0,1,6.65-5.079,66.182,66.182,0,0,1,6.106-3.22c14.983-7.474,30.335-8.452,45.473-.57q1.455.76,2.865,1.607t2.768,1.776q1.358.93,2.661,1.939t2.546,2.1c1.591,1.39,3.069,2.942,4.7,4.275,1.839,1.5,3.875,2.778,5.762,4.224,7.078,5.42,13.661,11.157,19,18.433a74.5,74.5,0,0,1-9.557,14.988c-.5-.973-.878-2.024-1.373-3.007a24.811,24.811,0,0,0-6.587-8.391c-2.743-2.166-7.123-4.309-10.636-3.851a22.736,22.736,0,0,0-5.2-11,31.546,31.546,0,0,0-22.1-10.8c-7.136-1.206-12.534-1.58-19.375,1.3-2.043-.572-4.956.6-6.74,1.633a25.122,25.122,0,0,0-6.63,5.851c-6.306,7.645-7.262,14.389-10.765,23.034q-.579,1.441-1.245,2.843t-1.417,2.757q-.751,1.355-1.583,2.66t-1.744,2.553a30.749,30.749,0,0,1-9.955,9.06,29.484,29.484,0,0,1-10.2,3.982,2.551,2.551,0,0,0,.218-1.249l.757-.4a5.222,5.222,0,0,0,.625-.534c2.137-2.2,1.46-7.556,1.448-10.469l2.852,0q1.119.062,2.239.09a8.341,8.341,0,0,0,6.28-2.279,7.469,7.469,0,0,0,2.018-4.186c.55-3.182.2-8.2.191-11.567C2546.731,946.371,2546.829,939.645,2546.727,932.925Z" transform="translate(-2378.309 -882.556)" fill="#e6eaf6"/>
      <path id="Trazado_997255" data-name="Trazado 997255" d="M845.053,810.286q-5.653-.024-11.306.018c-2.292.009-4.915.286-7.145-.266q-.284-.072-.562-.164t-.551-.2q-.272-.11-.536-.239t-.52-.275q-.255-.146-.5-.309t-.48-.343q-.234-.18-.456-.375t-.431-.4q-.232-.232-.446-.483t-.407-.518q-.193-.267-.366-.549t-.323-.576q-.15-.295-.277-.6t-.23-.622q-.1-.315-.181-.638t-.132-.651a32.391,32.391,0,0,1-.131-5.491l.011-8.355-.035-31.794c-.008-2.869-.111-5.626,2.088-7.795q.2-.2.417-.382t.445-.347q.229-.165.47-.311t.492-.272q.251-.126.512-.232t.528-.19q.267-.084.541-.147t.55-.1a61.146,61.146,0,0,1,7.959-.111l15.407-.044,57.216-.057c3.412-.005,7.5-.666,10.108,2.115a7.583,7.583,0,0,1,1.813,3.57c.639,2.914.209,11.118.182,14.577l-.011,7.085c-4.905-.242-9.961-.105-14.874-.027a25.616,25.616,0,0,0,.049-3.756,86.68,86.68,0,0,1,.023-10.61,3.871,3.871,0,0,0-1.5-2.568,4.426,4.426,0,0,0-2.32-.657c-3.187-.179-6.466-.015-9.661-.006l-17.984,0-26.469-.012c-4.852,0-9.72-.1-14.568.031-.375,7.47-.078,15.063-.12,22.549l-.056,9.2a37.15,37.15,0,0,0,.139,5.754A6.2,6.2,0,0,0,832.938,798a7.122,7.122,0,0,0,5.517,2.214c1.134.021,2.269.014,3.4.022,5.333-.431,10.874-.133,16.235-.137l24.5.019c5.346.027,10.716.161,16.06.044l.016,10.162-.263-.02c-9.512.159-19.054.028-28.568-.014l-8.36-.008a45.321,45.321,0,0,0-5.463.12c-.355-.066-.71-.116-1.067-.165l-.141.2c-2.76-.549-6.325-.114-9.162-.125,0,5.122.055,10.253-.014,15.374l-.54.144C844.874,820.68,845.056,815.445,845.053,810.286Z" transform="translate(-805.745 -733.115)" fill="#789bf2"/>
      <path id="Trazado_997256" data-name="Trazado 997256" d="M1861.6,905.523a53.766,53.766,0,0,1,.113,7.878c4.893.037,9.812-.362,14.7-.571l-.011,7.085c-4.905-.242-9.961-.105-14.874-.026a25.652,25.652,0,0,0,.049-3.756A86.8,86.8,0,0,1,1861.6,905.523Z" transform="translate(-1763.383 -878.223)" fill="#4e81e9"/>
      <path id="Trazado_997257" data-name="Trazado 997257" d="M1091.55,1386.327c5.333-.431,10.874-.134,16.235-.137l24.5.019c5.346.027,10.716.161,16.06.044l.016,10.162-.263-.02c-2.371-.5-5.646-.173-8.1-.172l-17.294.013c1.81-3.348,4.586-6.593,6.641-9.879-8.6-.1-17.222.022-25.828.033C1099.555,1386.395,1095.505,1386.568,1091.55,1386.327Z" transform="translate(-1055.437 -1319.207)" fill="#4e81e9"/>
      <path id="Trazado_997258" data-name="Trazado 997258" d="M3091.977,2941.43c.382,1.074.57,3.189,1.241,3.928l.31.149a9.008,9.008,0,0,1-.617,1.8c-.337,1.076-1.626,4.18-1.258,5.132l.162.45c-1.218.779-3,8.788-3.407,10.571q-.04.172-.075.345a18.09,18.09,0,0,1,3.672-2.26l.026.194a19.5,19.5,0,0,0-3.8,2.709,79.61,79.61,0,0,0-2.4,9.473c-.29,1.618-.353,3.429-.794,5,.113-3.533.446-6.993.459-10.54a11.2,11.2,0,0,0-2.331-3.381,14.908,14.908,0,0,1-6.962-.206c-1.044-.284-4.172-1.749-4.834-1.626a56.856,56.856,0,0,1-.12,19.966c2.677,0,22.522-.267,23.383.177.185.367.151.4.074.809a2.076,2.076,0,0,1-1.332.321c-2.786.1-5.62-.078-8.413-.078l-23.265.019c-10.451-.25-20.954-.068-31.41,0,.55-2.71,1.939-6.762,1.568-9.444a3.04,3.04,0,0,0-2.323-2.479c-3.533-1.171-24.266.313-25.452-.557a64.181,64.181,0,0,1,.3-7.37c.626-6.327,1.312-13.171,4.772-18.615,8.7,4.589,34.314,2.933,44.435,1.736q3.221-.364,6.416-.925c1.694-.3,3.415-.715,5.125-.862l.166-.012.432-.294c.154-1.032.178-2.084.233-3.127a99.674,99.674,0,0,0,11.279,3.485c1.607.344,3.218.427,4.83.691a29.243,29.243,0,0,0,3-.593l.672-.181c.622.849.181,2.725.222,3.791l.437-.3a15.706,15.706,0,0,0,.066-3.788,16.988,16.988,0,0,0,3.323-1.643A11.158,11.158,0,0,0,3091.977,2941.43Z" transform="translate(-2814.133 -2746.423)" fill="#161848"/>
      <path id="Trazado_997259" data-name="Trazado 997259" d="M3832.111,3160.28c4.236.83,9.235,2.59,12.518,5.542a14.9,14.9,0,0,1-6.961-.206c-1.044-.284-4.172-1.749-4.834-1.626Z" transform="translate(-3575.598 -2947.245)" fill="#a792ed"/>
      <path id="Trazado_997260" data-name="Trazado 997260" d="M4026.942,2941.43c.382,1.074.57,3.189,1.241,3.928l.311.149a8.976,8.976,0,0,1-.616,1.8c-.572.381-.96,2.112-1.211,2.832-2.25,7.153-3.7,14.552-5.8,21.736a19.172,19.172,0,0,1,.016-3.555c.84-3.025.386-15.049.485-19a15.71,15.71,0,0,0,.066-3.789,16.982,16.982,0,0,0,3.322-1.642A11.136,11.136,0,0,0,4026.942,2941.43Z" transform="translate(-3749.097 -2746.423)" fill="#fefefe"/>
      <path id="Trazado_997261" data-name="Trazado 997261" d="M4072.317,2941.43c.382,1.074.57,3.189,1.241,3.928l.31.149a8.976,8.976,0,0,1-.616,1.8c-.572.381-.96,2.112-1.211,2.832-1.672-1.6-1.8-4.053-1.914-6.246A11.173,11.173,0,0,0,4072.317,2941.43Z" transform="translate(-3794.472 -2746.423)" fill="#a792ed"/>
      <path id="Trazado_997262" data-name="Trazado 997262" d="M3766.222,2953.65a99.673,99.673,0,0,0,11.279,3.485c1.606.344,3.218.426,4.83.69a29.111,29.111,0,0,0,3-.592l.671-.181c.622.848.182,2.725.222,3.79l.437-.3c-.1,3.948.355,15.971-.485,19l-.27-.388a17.566,17.566,0,0,1-2.039-3.07c-.955-.584-1.806-1.361-2.777-1.949a31.709,31.709,0,0,0-10.288-3.765c-.369-1.473-.822-2.928-1.246-4.386a79.957,79.957,0,0,0-4-8.909l.432-.294C3766.142,2955.744,3766.166,2954.692,3766.222,2953.65Z" transform="translate(-3514.396 -2757.635)" fill="#fefefe"/>
      <path id="Trazado_997263" data-name="Trazado 997263" d="M3977.144,2995.125l.672-.181c.622.849.181,2.726.222,3.791l.436-.3c-.1,3.949.355,15.971-.485,19l-.27-.387c-.084-1.59.089-3.242.109-4.839l.042-10.012c-1.311-2.1-2.457-4.341-3.727-6.474A29.045,29.045,0,0,0,3977.144,2995.125Z" transform="translate(-3706.208 -2795.528)" fill="#a792ed"/>
      <path id="Trazado_997264" data-name="Trazado 997264" d="M4011.45,2995.125l.671-.181c.622.849.181,2.726.222,3.791-.05.39,0,.746-.292,1.017A16.224,16.224,0,0,1,4011.45,2995.125Z" transform="translate(-3740.515 -2795.528)" fill="#e6eaf6"/>
      <path id="Trazado_997265" data-name="Trazado 997265" d="M3815.3,3103.311c4.19.135,8.774,1.438,11.745,4.651a10.92,10.92,0,0,1,2.566,5.448c-.955-.583-1.806-1.361-2.777-1.948a31.693,31.693,0,0,0-10.288-3.765C3816.177,3106.224,3815.725,3104.768,3815.3,3103.311Z" transform="translate(-3560.139 -2894.968)" fill="#a792ed"/>
      <path id="Trazado_997266" data-name="Trazado 997266" d="M2907.789,2501.189a16.679,16.679,0,0,1-1.307-3.26,3.978,3.978,0,0,1,.309-3.069,1.781,1.781,0,0,1,1.275-.861c2.033-.359,6.509,3.547,8.128,4.912a32.328,32.328,0,0,1,2.163,2.83l.14.149q1.124,1.729,2.127,3.533c3.6,1.091,7.374,1.81,11.048,2.627l17.228,3.9c3.859.848,7.794,1.546,11.606,2.588,0-1.642-.1-3.348.03-4.981-.082-1.511-1.083-2.78-1.307-4.28.148-.478.183-.438.618-.685,4.563-1.543,9.09-3.237,13.622-4.879,2.352-.852,6.046-1.822,8.022-3.154a5.3,5.3,0,0,0,1.63-1.283,47.879,47.879,0,0,1,1.227,5.758l1.783.271a18.646,18.646,0,0,1,.856,2.916,26.967,26.967,0,0,1-5.454,1.4l.458,1.351c1.063,3.044,2.561,6.76,3.1,9.908a20.645,20.645,0,0,0,.745,3.021,18.9,18.9,0,0,1-2.459,10.929,11.128,11.128,0,0,1-2.19,2.468,16.973,16.973,0,0,1-3.323,1.642,15.705,15.705,0,0,1-.066,3.788l-.437.3c-.041-1.064.4-2.942-.222-3.79l-.672.181a29.038,29.038,0,0,1-3,.593c-1.612-.263-3.224-.346-4.831-.69a99.723,99.723,0,0,1-11.279-3.485c-.055,1.042-.079,2.094-.233,3.127l-.432.294-.166.012c-1.71.146-3.431.56-5.126.862q-3.194.56-6.415.925c-10.121,1.2-35.736,2.853-44.435-1.737-.638-.385-1.24-.821-1.849-1.252a72.546,72.546,0,0,1,.314-8.154c.143-2.233.358-4.457.452-6.693a9.851,9.851,0,0,0-1.293-.842,14.351,14.351,0,0,1-3.522-3.094,9.791,9.791,0,0,1-2.976-.365l.128-.532.44-1.685c-1.222-1.49-4.538-2.981-6.292-4.008a33.414,33.414,0,0,0,2.37-7.985l.081-.008c1.893,1.145,3.843,2.249,5.66,3.515.279-.964.735-1.892,1.067-2.842a14.549,14.549,0,0,1-.585-6.143c3.271,4.521,6.739,4.956,11.868,5.738Q2907.1,2501.074,2907.789,2501.189Z" transform="translate(-2705.531 -2335.827)" fill="#f6a695"/>
      <path id="Trazado_997267" data-name="Trazado 997267" d="M2957.693,2686.722a19.833,19.833,0,0,1,.96-3.109,23.242,23.242,0,0,0,1.448,5.691,9.778,9.778,0,0,1-2.975-.365l.127-.532Z" transform="translate(-2770.98 -2509.843)" fill="#fefefe"/>
      <path id="Trazado_997268" data-name="Trazado 997268" d="M2888.318,2575.683l.08-.008c1.893,1.145,3.843,2.249,5.66,3.515-.408,1.768-.615,3.579-.859,5.376a19.917,19.917,0,0,0-.96,3.109c-1.221-1.49-4.537-2.981-6.291-4.008A33.475,33.475,0,0,0,2888.318,2575.683Z" transform="translate(-2705.527 -2410.797)" fill="#ceb4b3"/>
      <path id="Trazado_997269" data-name="Trazado 997269" d="M2991.65,2509.28c3.272,4.521,6.739,4.956,11.868,5.738q.689.1,1.375.215a33.644,33.644,0,0,0,2.8,3.443c-4.336.618-9.994.27-13.623-2.552-.443-.345-.877-.91-1.426-.961l-.409.259A14.58,14.58,0,0,1,2991.65,2509.28Z" transform="translate(-2802.636 -2349.871)" fill="#f29734"/>
      <path id="Trazado_997270" data-name="Trazado 997270" d="M3819.381,2511.054a5.3,5.3,0,0,0,1.63-1.282,48.087,48.087,0,0,1,1.227,5.758l1.782.27a18.721,18.721,0,0,1,.856,2.916,26.894,26.894,0,0,1-5.454,1.4l.458,1.352c-4.99,1.492-13.592,4.612-17.593,7.958.074.168.034.049.031.375-.962.21-2.774-.48-3.757-.721a33.235,33.235,0,0,0-.135-5.03c-.083-1.511-1.083-2.779-1.307-4.28.148-.478.183-.438.618-.685,4.563-1.543,9.09-3.237,13.622-4.879C3813.71,2513.357,3817.4,2512.386,3819.381,2511.054Z" transform="translate(-3543.42 -2350.322)" fill="#fefefe"/>
      <path id="Trazado_997271" data-name="Trazado 997271" d="M3846.08,2634.328c2.111-.853,16.806-6.894,18.069-6.679l.3.632.458,1.352c-4.99,1.492-13.591,4.612-17.592,7.957C3846.846,2636.532,3846.479,2635.413,3846.08,2634.328Z" transform="translate(-3588.444 -2458.484)" fill="#f47045"/>
      <path id="Trazado_997272" data-name="Trazado 997272" d="M3048.827,2800c.562-.175,4.97.9,5.968.982a34.556,34.556,0,0,0,11.455-1.026q13.7,4.082,27.359,8.319c4.382,1.392,8.694,3.063,13.106,4.341-.055,1.042-.08,2.094-.234,3.126a11.658,11.658,0,0,0-3.763-1.706c-6.114-1.872-12.593-2.855-18.865-4.057-4.526-.867-9.262-2.078-13.859-2.293-2.682-.125-5.409-.011-8.1-.011q-4.306-.021-8.608-.2a21.284,21.284,0,0,1-4.76-.292l-.156-.49C3048.518,2804.459,3048.733,2802.233,3048.827,2800Z" transform="translate(-2854.89 -2616.601)" fill="#eb8139"/>
      <path id="Trazado_997273" data-name="Trazado 997273" d="M3044.48,2889.9a72.433,72.433,0,0,1,.314-8.154l.155.49a21.263,21.263,0,0,0,4.76.293q4.3.181,8.609.2c2.687,0,5.413-.114,8.1.011,4.6.215,9.333,1.427,13.859,2.293,6.272,1.2,12.751,2.186,18.865,4.057a11.673,11.673,0,0,1,3.763,1.706l-.432.293-.166.013c-1.71.146-3.431.56-5.126.861q-3.194.561-6.415.926c-10.121,1.2-35.736,2.852-44.435-1.738C3045.69,2890.763,3045.088,2890.327,3044.48,2889.9Z" transform="translate(-2851.309 -2691.651)" fill="#f9b861"/>
      <path id="Trazado_997274" data-name="Trazado 997274" d="M959.685,865.466c4.848-.132,9.717-.033,14.568-.031l26.469.012,17.984,0c3.195-.008,6.475-.173,9.661.006a4.426,4.426,0,0,1,2.32.657,3.871,3.871,0,0,1,1.5,2.568,86.705,86.705,0,0,0-.023,10.61,25.632,25.632,0,0,1-.049,3.756l-.914.047c-1.669.771-3.2,1.7-3.889,3.555-.845,2.281-.415,17.241-.413,20.716l-.017,1.063c-5.344.116-10.714-.018-16.06-.044l-24.5-.019c-5.36,0-10.9-.294-16.235.137-1.134-.008-2.27,0-3.4-.022a7.122,7.122,0,0,1-5.517-2.214,6.2,6.2,0,0,1-1.521-3.289,37.135,37.135,0,0,1-.139-5.754l.056-9.2C959.608,880.529,959.31,872.936,959.685,865.466Z" transform="translate(-933.976 -841.375)" fill="#789bf2"/>
      <path id="Trazado_997275" data-name="Trazado 997275" d="M1346.45,1221.847c4.142-.242,8.383-.071,12.535-.08,2.126,0,5.563-.329,7.542.117l.207.567c-2.7.108-18.527.417-20.105-.04Z" transform="translate(-1289.837 -1168.308)" fill="#fefefe"/>
      <path id="Trazado_997276" data-name="Trazado 997276" d="M1346.9,1118.362c2.6-.13,27.286-.294,27.975.026.232.107.247.344.334.568-2.4.228-27.5.176-28-.031C1346.984,1118.832,1346.976,1118.578,1346.9,1118.362Z" transform="translate(-1290.251 -1073.383)" fill="#fefefe"/>
      <path id="Trazado_997277" data-name="Trazado 997277" d="M1348.383,1015.512l18.945-.041c3.341-.006,6.754-.173,10.082.051l.2.262-.1.343-.344.139-20.292.006c-2.495,0-6.994.339-9.234-.145l-.047-.221A1.3,1.3,0,0,1,1348.383,1015.512Z" transform="translate(-1290.893 -979.054)" fill="#fefefe"/>
      <path id="Trazado_997278" data-name="Trazado 997278" d="M959.685,865.466c4.848-.132,9.717-.033,14.568-.031l26.469.012,17.983,0c3.195-.008,6.475-.173,9.661.006a4.426,4.426,0,0,1,2.321.657,3.871,3.871,0,0,1,1.5,2.568,86.705,86.705,0,0,0-.022,10.61,25.632,25.632,0,0,1-.049,3.756l-.914.047c-.184-2.313.023-4.686-.059-7.013-.038-2.123.586-7.46-.844-8.965-.51-.537-1.911-.591-2.637-.636-2.624-.163-5.323-.041-7.954-.041l-14.532,0-44.56.015.027,25.539c.007,3.053-.348,7.734.065,10.629q.033.223.084.443t.117.435q.067.215.15.424t.182.411q.1.2.212.4t.242.378q.128.183.269.357t.3.334c1.546,1.636,3.742,1.609,5.8,1.592,13.139-.108,26.287.1,39.423-.083,6.465.086,12.952-.149,19.411.055l-.017,1.064c-5.343.116-10.714-.018-16.06-.044l-24.5-.019c-5.36,0-10.9-.294-16.235.137-1.134-.008-2.27,0-3.4-.022a7.123,7.123,0,0,1-5.517-2.214,6.2,6.2,0,0,1-1.521-3.289,37.135,37.135,0,0,1-.139-5.754l.056-9.2C959.608,880.529,959.311,872.936,959.685,865.466Z" transform="translate(-933.976 -841.375)" fill="#1f2d8a"/>
      <path id="Trazado_997279" data-name="Trazado 997279" d="M1580.3,995.349c.082,2.328-.125,4.7.059,7.013-1.669.771-3.2,1.7-3.889,3.555-.845,2.281-.415,17.241-.413,20.716-6.46-.2-12.946.032-19.411-.055a3.811,3.811,0,0,0,1.653-.3c.944-.6,2.489-3.408,3.231-4.462q5.246-7.312,10.228-14.814c2.051-3.094,3.909-6.369,6.147-9.324A6.783,6.783,0,0,1,1580.3,995.349Z" transform="translate(-1483.129 -960.65)" fill="#4e81e9"/>
      <path id="Trazado_997280" data-name="Trazado 997280" d="M1059.325,963.68l16.206-.011c-.224,8.867-.037,17.782-.017,26.654L1059.3,990.3Z" transform="translate(-1025.781 -931.579)" fill="#f379b8"/>
      <path id="Trazado_997281" data-name="Trazado 997281" d="M1092.076,980.077l10.706-.018-.009,8.271-1.386-1.169a6.719,6.719,0,0,0-3.2-1.268c-2.474-.244-4.266,1.082-6.078,2.585Q1092.054,984.279,1092.076,980.077Z" transform="translate(-1055.914 -946.619)" fill="#fefefe"/>
      <path id="Trazado_997282" data-name="Trazado 997282" d="M3459.1,3582.52l10.5.016c1.316,2,6.037,5.124,7.978,7.371l9.8-.026c2.126-.016,4.6-.312,6.666.139a4.513,4.513,0,0,1,2.062,1.186c1.385,1.341,1.438,3.082,1.437,4.906,0,5.883-.172,11.781,0,17.662,2.258,1.814,4.09,4.489,6.012,6.665.047,5.831,1.111,13.726-3.2,18.245-2.887,3.03-6.37,3.587-10.318,3.6l-16.147-.005c-2.178.008-7.026.342-8.8-.117-1.854-1.894-3.917-3.577-5.8-5.442-3.38.108-6.791.022-10.174.025a62.076,62.076,0,0,1-7.173-.1,7.828,7.828,0,0,1-2.972-.91,7.355,7.355,0,0,1-3.085-4.2c-.549-2.183-.244-5.1-.243-7.363l-.026-9.816-.06-12.75c-.011-2.409-.126-4.888.04-7.292a4.2,4.2,0,0,1,.638-2.094,4.948,4.948,0,0,1,2.688-2.184c.079-.013.16-.021.239-.032a69.815,69.815,0,0,1,9.656-.181l17.234.049C3464.439,3587.3,3461.263,3584.712,3459.1,3582.52Z" transform="translate(-3210.89 -3334.703)" fill="#fefefe"/>
      <path id="Trazado_997283" data-name="Trazado 997283" d="M3728.92,3582.52l10.5.016c1.316,2,6.037,5.124,7.978,7.371q-5.767.035-11.534-.038C3734.255,3587.3,3731.079,3584.712,3728.92,3582.52Z" transform="translate(-3480.706 -3334.703)" fill="#ec528c"/>
      <path id="Trazado_997284" data-name="Trazado 997284" d="M3766.5,3777.208c5.3-.185,10.653-.068,15.962-.037,2.568.015,5.2-.18,7.761-.013a6.153,6.153,0,0,1,1.992.4,1.849,1.849,0,0,1,1.146,1.082,1.686,1.686,0,0,1-.156,1.15,2.562,2.562,0,0,1-1.651,1.632q-9.168.053-18.336,0c-2.129-.009-4.819.425-6.879-.1a2.179,2.179,0,0,1-1.5-1.076,2.368,2.368,0,0,1,.018-1.882A2.619,2.619,0,0,1,3766.5,3777.208Z" transform="translate(-3513.569 -3513.245)" fill="#4e81e9"/>
      <path id="Trazado_997285" data-name="Trazado 997285" d="M3764.939,3861.555c4.272-.235,8.665-.022,12.95-.026,2.742,0,11.015-.363,12.995.176a1.605,1.605,0,0,1,1.112.939,2.842,2.842,0,0,1,0,1.892,2.611,2.611,0,0,1-1.456,1.43c-4.591.078-9.223-.071-13.819-.067-3.6,0-7.348.208-10.931-.033a2.429,2.429,0,0,1-2.04-.823,2,2,0,0,1-.2-1.636A2.6,2.6,0,0,1,3764.939,3861.555Z" transform="translate(-3512.472 -3590.619)" fill="#4e81e9"/>
      <path id="Trazado_997286" data-name="Trazado 997286" d="M3508.759,4077.462c9.012-.207,18.063-.006,27.078,0,6.568,0,13.247-.273,19.8.032a2.889,2.889,0,0,1,1.521.311,1.561,1.561,0,0,1,.392.936,1.987,1.987,0,0,1-.51,1.6c-2.48.149-5,.076-7.482.082l-14.127-.022c-8.258-.019-16.618.236-24.866-.073a4.11,4.11,0,0,1-1.879-.308,1.17,1.17,0,0,1-.513-.85A2.211,2.211,0,0,1,3508.759,4077.462Z" transform="translate(-3277.692 -3788.773)" fill="#e6eaf6"/>
      <path id="Trazado_997287" data-name="Trazado 997287" d="M3543.422,4011.587c2.127-.04,10.9-.572,12.208.591.374.331.353.625.356,1.085a1.752,1.752,0,0,1-.5,1.408c-1.865.742-31.361.268-36.155.285-1.77.022-3.534-.015-5.306.034a44.215,44.215,0,0,1-5.53.063,3.115,3.115,0,0,1-1.718-.564.9.9,0,0,1-.342-.652,2.091,2.091,0,0,1,.72-1.469,1.377,1.377,0,0,1,.945-.377c4.542-.3,9.89.018,14.535.005C3529.562,4011.976,3536.495,4011.7,3543.422,4011.587Z" transform="translate(-3276.114 -3728.283)" fill="#e6eaf6"/>
      <path id="Trazado_997288" data-name="Trazado 997288" d="M3511.861,3749.55a8.256,8.256,0,0,1,4.247,1.086c.114.069.227.141.337.215s.219.153.325.233.212.164.314.249.2.175.3.266.194.185.288.281.184.195.273.3.174.2.258.309.164.214.242.323.153.221.225.335.142.229.208.347.13.236.191.356.118.243.172.366.106.249.154.375.093.254.135.383.08.259.115.39.067.262.1.395.057.264.08.4.043.267.06.4.03.269.041.4.018.27.021.405,0,.27,0,.4-.009.271-.019.406-.022.269-.039.4-.036.268-.058.4-.048.266-.077.4-.062.263-.1.393-.074.259-.116.388-.087.255-.134.382-.1.25-.153.373-.111.245-.171.366-.123.239-.189.356-.135.233-.206.347a8.651,8.651,0,0,1-5.954,3.744,8.154,8.154,0,0,1-5.293-1.79c-.1-.084-.2-.172-.3-.261s-.194-.182-.289-.277-.186-.192-.274-.291-.176-.2-.26-.3-.166-.21-.245-.318-.155-.218-.229-.33-.145-.226-.212-.341-.133-.233-.2-.352-.122-.239-.178-.362-.109-.245-.16-.37-.1-.251-.142-.378-.085-.256-.123-.385-.072-.26-.1-.391-.06-.263-.084-.4-.047-.266-.065-.4-.033-.268-.045-.4a8.6,8.6,0,0,1,1.92-6.068A7.543,7.543,0,0,1,3511.861,3749.55Z" transform="translate(-3274.337 -3487.974)" fill="#f9b861"/>
      <path id="Trazado_997289" data-name="Trazado 997289" d="M3565.128,3806.17c.072.021.145.038.215.064a1.221,1.221,0,0,1,.808.718c-.474,1.167-3.794,4.941-4.841,5.882a29.342,29.342,0,0,1-2.28-2.614,7.22,7.22,0,0,1-.813-1.052,1.831,1.831,0,0,1-.1-1.471l.265-.149c1.128.272,2.284,2.039,3.026,2.932A12.519,12.519,0,0,1,3565.128,3806.17Z" transform="translate(-3323.542 -3539.929)" fill="#fefefe"/>
      <path id="Trazado_997290" data-name="Trazado 997290" d="M3769.487,3961.92c2.258,1.815,4.089,4.489,6.012,6.665.047,5.831,1.111,13.726-3.2,18.245-2.888,3.03-6.37,3.588-10.319,3.6l-16.147,0c-2.178.008-7.027.343-8.8-.116-1.854-1.895-3.917-3.577-5.8-5.443,2.732-.214,5.625-.009,8.372.009l16.676.075c2.4-.006,5.318.287,7.642-.192a6.886,6.886,0,0,0,3.343-1.944,7.894,7.894,0,0,0,2.043-3.552C3770.017,3976.467,3769.522,3965.468,3769.487,3961.92Z" transform="translate(-3482.83 -3682.85)" fill="#ec528c"/>
      <path id="Trazado_997291" data-name="Trazado 997291" d="M1801.968,1078.682c4.913-.078,9.969-.216,14.875.027,14.57.155,29.168.031,43.741-.027,3.351-.057,6.523-.053,9.133,2.532a9.382,9.382,0,0,1,2.524,6.171c.1,6.72.005,13.447.016,20.168.005,3.369.359,8.385-.191,11.567a7.471,7.471,0,0,1-2.018,4.187,8.341,8.341,0,0,1-6.28,2.279q-1.12-.028-2.239-.09l-2.852,0c.012,2.912.689,8.264-1.448,10.469a5.224,5.224,0,0,1-.625.534l-.757.4a8.759,8.759,0,0,1-.932.069,3.167,3.167,0,0,1-1.772-.626,43.1,43.1,0,0,1-5.588-4.745c-2.234-2.008-4.511-3.943-6.647-6.063-3.545-.136-7.13-.025-10.679-.021q-8.727.022-17.454-.049c-3.232-.012-7.709.382-10.8-.217a6.761,6.761,0,0,1-3.237-1.841c-2.446-2.44-2-6-1.99-9.186l-.016-10.162.017-1.064c0-3.475-.432-18.434.413-20.716.687-1.854,2.22-2.784,3.889-3.555Z" transform="translate(-1703.823 -1037.017)" fill="#f9b861"/>
      <path id="Trazado_997292" data-name="Trazado 997292" d="M2463.9,1648.08q4.187.046,8.375.015c.012,2.913.688,8.264-1.449,10.469a5.161,5.161,0,0,1-.625.534C2469.575,1655.236,2466.268,1651.1,2463.9,1648.08Z" transform="translate(-2317.42 -1559.612)" fill="#eb8139"/>
      <path id="Trazado_997293" data-name="Trazado 997293" d="M2389.332,1280.989a5.57,5.57,0,0,1,1.984.052,4.121,4.121,0,0,1,2.623,2.018,3.87,3.87,0,0,1,.17.367,4.023,4.023,0,0,1,.279,1.179q.016.2.013.406c0,.135-.012.27-.029.4s-.04.268-.069.4-.066.262-.109.391a4.942,4.942,0,0,1-2.709,2.881,4.818,4.818,0,0,1-3.294-.529c-1.267-.822-1.637-2.136-1.958-3.537.073-.3.148-.607.245-.9A5,5,0,0,1,2389.332,1280.989Z" transform="translate(-2246 -1222.702)" fill="#fefefe"/>
      <path id="Trazado_997294" data-name="Trazado 997294" d="M2010.257,1279.159a5.078,5.078,0,0,1,2.191.184q.19.066.374.151t.357.188a4.037,4.037,0,0,1,.337.224,3.976,3.976,0,0,1,.314.257q.151.137.288.287t.259.315q.121.164.227.34t.193.362a4.127,4.127,0,0,1,.16.4,4.246,4.246,0,0,1,.119.415,4.312,4.312,0,0,1,.076.425,4.243,4.243,0,0,1,.033.431,4.192,4.192,0,0,1-.01.433,4.291,4.291,0,0,1-.055.429q-.038.213-.1.421a4.27,4.27,0,0,1-.14.408,4.478,4.478,0,0,1-2.717,2.467,4.2,4.2,0,0,1-2.4-.019,3.708,3.708,0,0,1-2.187-2.052,4.7,4.7,0,0,1-.1-3.5A4.476,4.476,0,0,1,2010.257,1279.159Z" transform="translate(-1897.439 -1221.046)" fill="#fefefe"/>
      <path id="Trazado_997295" data-name="Trazado 997295" d="M2198.816,1279.214a5.25,5.25,0,0,1,2.39.214,3.967,3.967,0,0,1,.393.177,4.036,4.036,0,0,1,.372.218,3.967,3.967,0,0,1,.348.258,4.034,4.034,0,0,1,.319.294,4.16,4.16,0,0,1,.287.327,4.27,4.27,0,0,1,.252.356,4.136,4.136,0,0,1,.213.382,4.321,4.321,0,0,1,.173.4q.074.2.129.414t.087.425q.033.214.045.432c.008.145.009.289,0,.434s-.02.289-.04.432-.048.286-.082.426a4.334,4.334,0,0,1-.124.416,4.285,4.285,0,0,1-.163.4,4.508,4.508,0,0,1-2.819,2.328,5.168,5.168,0,0,1-2.028-.137,4.172,4.172,0,0,1-2.458-2.308,4.373,4.373,0,0,1-.077-3.4A4.607,4.607,0,0,1,2198.816,1279.214Z" transform="translate(-2070.815 -1221.095)" fill="#fefefe"/>
      <path id="Trazado_997296" data-name="Trazado 997296" d="M2591.73,1079.76c3.351-.057,6.524-.053,9.133,2.532a9.381,9.381,0,0,1,2.524,6.171c.1,6.72.005,13.447.016,20.168.006,3.369.359,8.385-.191,11.567a7.47,7.47,0,0,1-2.018,4.186,8.34,8.34,0,0,1-6.28,2.279q-1.12-.028-2.239-.09c1.634-1.059,3.062-1.57,4.288-3.226a6.741,6.741,0,0,0,1.265-3.33,47.457,47.457,0,0,0,.131-5.891l-.031-8.666-.007-10.911a69.679,69.679,0,0,0-.247-8.145,3.967,3.967,0,0,0-.129-.768C2596.991,1082.68,2594.243,1081.095,2591.73,1079.76Z" transform="translate(-2434.97 -1038.094)" fill="#eb8139"/>
      <path id="Trazado_997297" data-name="Trazado 997297" d="M2796.962,1799.976a35.371,35.371,0,0,0,16.574-4.563c1.273-.69,2.4-1.859,3.728-2.4.082-.034.165-.065.248-.1v.22c.022,4.322-.137,8.7.055,13.015.859,1.34,1.762,2.618,2.708,3.893a33.308,33.308,0,0,1,18.69,5.452c1.369,1,2.651,2.07,3.95,3.165,9.111,9.47,12.465,22.3,16.438,34.589-1.976,1.331-5.67,2.3-8.022,3.154-4.532,1.642-9.058,3.336-13.621,4.879-.436.246-.47.207-.618.685.223,1.5,1.224,2.769,1.307,4.28-.129,1.634-.032,3.34-.03,4.982-3.812-1.043-7.747-1.74-11.606-2.589l-17.228-3.9c-3.673-.818-7.444-1.536-11.048-2.627q-1-1.8-2.127-3.533l-.14-.149a32.405,32.405,0,0,0-2.164-2.831c-1.619-1.364-6.094-5.27-8.128-4.911a1.782,1.782,0,0,0-1.275.861,3.978,3.978,0,0,0-.309,3.069,16.747,16.747,0,0,0,1.307,3.26q-.687-.115-1.375-.215c-5.129-.781-8.6-1.216-11.868-5.738a14.566,14.566,0,0,0,.585,6.143c-.332.95-.789,1.878-1.067,2.842-1.817-1.267-3.767-2.37-5.66-3.515l-.081.008a33.41,33.41,0,0,1-2.37,7.985q-3.921-2.308-7.819-4.658a14.458,14.458,0,0,1-2.861-4.178c1.1-1.75,1.922-3.76,2.962-5.572a28.735,28.735,0,0,0,1.638-3.608c1.067-1.453,2.5-5.22,3.415-7.035,4.377-8.7,8.748-17.628,16.016-24.2q2.136-1.5,4.359-2.855a34.4,34.4,0,0,1,12.7-3.49,16.155,16.155,0,0,0,2.586-2.916,6.425,6.425,0,0,0,.149-2.558Z" transform="translate(-2583.395 -1692.513)" fill="#f9b861"/>
      <path id="Trazado_997298" data-name="Trazado 997298" d="M3261.98,2535.781a12.5,12.5,0,0,0,.653-1.626l.154.282a2.25,2.25,0,0,0,.709,1.177,1.168,1.168,0,0,0,1.051-.135,4.409,4.409,0,0,0,.612-.547,4.848,4.848,0,0,1-1.016,3.679A32.269,32.269,0,0,0,3261.98,2535.781Z" transform="translate(-3051.318 -2372.697)" fill="#eb8139"/>
      <path id="Trazado_997299" data-name="Trazado 997299" d="M3272.762,2506.81a6.659,6.659,0,0,1,1.346.343,2.9,2.9,0,0,1,.3,2.643l-.01.043a4.469,4.469,0,0,1-.612.547,1.171,1.171,0,0,1-1.051.135,2.244,2.244,0,0,1-.708-1.177A9.955,9.955,0,0,1,3272.762,2506.81Z" transform="translate(-3060.557 -2347.604)" fill="#fefefe"/>
      <path id="Trazado_997300" data-name="Trazado 997300" d="M3293.477,2351.93c.228,1.114-1.006,5.5-1.375,6.743a1.8,1.8,0,0,0-1.159-.576,2.562,2.562,0,0,0-.828.741,17.593,17.593,0,0,1,.927-5.49l.331,0a3.754,3.754,0,0,0,.076.744,1.367,1.367,0,0,0,.686.822l.321-.1A10.363,10.363,0,0,0,3293.477,2351.93Z" transform="translate(-3077.166 -2205.483)" fill="#f29734"/>
      <path id="Trazado_997301" data-name="Trazado 997301" d="M3280.452,2427.533a2.56,2.56,0,0,1,.828-.741,1.8,1.8,0,0,1,1.159.576,15.221,15.221,0,0,1-.181,2.454.973.973,0,0,1,.039.911,24.114,24.114,0,0,1-1.245,2.993,6.7,6.7,0,0,0-1.347-.343,1.36,1.36,0,0,1-.043-.13,9.367,9.367,0,0,1,.534-4.395A6.814,6.814,0,0,0,3280.452,2427.533Z" transform="translate(-3067.502 -2274.177)" fill="#f29734"/>
      <path id="Trazado_997302" data-name="Trazado 997302" d="M3287.5,2427.533a2.573,2.573,0,0,1,.828-.741,1.8,1.8,0,0,1,1.159.576,15.11,15.11,0,0,1-.181,2.454,1.877,1.877,0,0,1-1.3.171,2.63,2.63,0,0,1-.766-1.135A6.813,6.813,0,0,0,3287.5,2427.533Z" transform="translate(-3074.548 -2274.177)" fill="#fefefe"/>
      <path id="Trazado_997303" data-name="Trazado 997303" d="M3386.148,1953.58c.859,1.339,1.762,2.618,2.708,3.894a40.149,40.149,0,0,1,2.637,4.55c-.251,2.63-2.576,13.27-4.3,14.728a4.623,4.623,0,0,1-2.165.8,16.063,16.063,0,0,1-3.516-1.455c-3.055-1.86-6.642-4.056-10.069-5.024.2-.741,4.891-4.849,5.871-5.866C3380.7,1961.7,3384.087,1958.087,3386.148,1953.58Z" transform="translate(-3151.974 -1839.947)" fill="#fefefe"/>
      <path id="Trazado_997304" data-name="Trazado 997304" d="M3290.62,2434.754c7.753,1.123,23.725,4.075,30.186-.886a10.426,10.426,0,0,0,3.835-7.165,21.975,21.975,0,0,0-.223-5.891c2.905,3.676,6.372,12,7.552,16.644-.435.247-.469.207-.618.685.224,1.5,1.224,2.769,1.307,4.28-.129,1.634-.032,3.34-.03,4.981-3.812-1.042-7.747-1.74-11.606-2.588l-17.228-3.9c-3.673-.818-7.444-1.536-11.048-2.627Q3291.744,2436.482,3290.62,2434.754Z" transform="translate(-3077.655 -2268.691)" fill="#eb8139"/>
      <path id="Trazado_997305" data-name="Trazado 997305" d="M2796.962,1799.976a35.371,35.371,0,0,0,16.574-4.563c1.273-.69,2.4-1.859,3.728-2.4.082-.034.165-.065.248-.1v.22c.022,4.322-.137,8.7.055,13.015-2.061,4.508-5.453,8.117-8.837,11.63-.98,1.017-5.672,5.125-5.871,5.866,3.427.968,7.014,3.164,10.069,5.024a16.384,16.384,0,0,1-1.235,4.409c-2.049-1.131-5.6-3.6-7.965-2.812a3.738,3.738,0,0,0-2.1,2.189,11.391,11.391,0,0,0-.79,2.855c-.126,1-.453,2.81-1.157,3.518a2.676,2.676,0,0,0-1.526-.124,3.013,3.013,0,0,0-.553,1.674l-.33,0a17.589,17.589,0,0,0-.927,5.49,6.807,6.807,0,0,1-.255,1.325,9.367,9.367,0,0,0-.534,4.395c.01.045.029.087.043.131a9.98,9.98,0,0,0-.733,2.534l-.155-.282a12.423,12.423,0,0,1-.653,1.625c-1.619-1.364-6.094-5.27-8.128-4.911a1.784,1.784,0,0,0-1.275.861,3.979,3.979,0,0,0-.309,3.069,16.743,16.743,0,0,0,1.307,3.259q-.687-.115-1.375-.215c-5.129-.781-8.6-1.216-11.868-5.738a14.566,14.566,0,0,0,.585,6.143c-.332.95-.789,1.878-1.067,2.842-1.817-1.267-3.767-2.37-5.66-3.515l-.081.008a33.414,33.414,0,0,1-2.37,7.985q-3.921-2.308-7.819-4.658a14.461,14.461,0,0,1-2.861-4.178c1.1-1.75,1.922-3.761,2.962-5.572a28.754,28.754,0,0,0,1.638-3.608c1.067-1.452,2.5-5.22,3.415-7.035,4.377-8.7,8.748-17.628,16.016-24.2q2.136-1.5,4.359-2.856a34.4,34.4,0,0,1,12.7-3.489,16.156,16.156,0,0,0,2.586-2.916,6.425,6.425,0,0,0,.149-2.558Z" transform="translate(-2583.395 -1692.513)" fill="#f9b861"/>
      <path id="Trazado_997306" data-name="Trazado 997306" d="M2922.839,2263.44c-.589,5.178-2.083,10.908-1.327,16.1a34.185,34.185,0,0,0,1.052,4.147,14.568,14.568,0,0,0,.585,6.143c-.332.95-.789,1.878-1.067,2.842-1.817-1.266-3.767-2.37-5.66-3.515a35.562,35.562,0,0,1,1.288-6.729A166.479,166.479,0,0,1,2922.839,2263.44Z" transform="translate(-2733.551 -2124.282)" fill="#eb8139"/>
      <path id="Trazado_997307" data-name="Trazado 997307" d="M2753.14,2503.376c1.1-1.75,1.921-3.76,2.962-5.572,3.3,2.239,6.81,4.177,10.088,6.422a33.431,33.431,0,0,1-2.37,7.985q-3.922-2.308-7.82-4.658A14.437,14.437,0,0,1,2753.14,2503.376Z" transform="translate(-2583.4 -2339.341)" fill="#fefefe"/>
      <path id="Trazado_997308" data-name="Trazado 997308" d="M3179.375,1962.37a8.544,8.544,0,0,1,.218,2.776,72.695,72.695,0,0,0,1.746,15.194,21.45,21.45,0,0,0-7.314.315c-1.209.316-2.335.994-3.558,1.252a1.037,1.037,0,0,1-1.064-.244,2.048,2.048,0,0,1-.224-.715,9.27,9.27,0,0,1,.349-2.817c1.11-4.964,4.035-9.077,7.263-12.844A16.208,16.208,0,0,0,3179.375,1962.37Z" transform="translate(-2965.961 -1848.012)" fill="#fefefe"/>
      <path id="Trazado_997309" data-name="Trazado 997309" d="M3239.709,2165.98c3.427.968,7.014,3.164,10.068,5.024a16.369,16.369,0,0,1-1.234,4.409c-2.049-1.131-5.6-3.6-7.966-2.812a3.738,3.738,0,0,0-2.1,2.189,11.415,11.415,0,0,0-.791,2.855c-.125,1-.453,2.81-1.157,3.518a2.674,2.674,0,0,0-1.526-.125,3.012,3.012,0,0,0-.553,1.674l-.33,0c.146-2.035-.131-4.553.865-6.373l.085-.191c-.161-1.229.058-2.559-.18-3.768a.862.862,0,0,0-.468-.722c-2.022-.269-4.319,1.036-6.124,1.879a41.462,41.462,0,0,1,.008-6.048,21.413,21.413,0,0,1,7.314-.314,30.463,30.463,0,0,1,.143,3.513l.1-.2C3236.661,2168.99,3238.032,2166.488,3239.709,2165.98Z" transform="translate(-3020.244 -2034.85)" fill="#eb8139"/>
      <path id="Trazado_997310" data-name="Trazado 997310" d="M3312.633,2277.741a2.52,2.52,0,0,1,1.118-1.052c.456.019.641.006.969.389a2.818,2.818,0,0,1,.4,2.093,5.755,5.755,0,0,1-.413.717,1.363,1.363,0,0,1-1.006.592,1.183,1.183,0,0,1-.667-.4,2.791,2.791,0,0,1-.482-2.149Z" transform="translate(-3097.806 -2136.439)" fill="#e6eaf6"/>
      <path id="Trazado_997311" data-name="Trazado 997311" d="M3296.345,1799.976a35.37,35.37,0,0,0,16.573-4.563c1.273-.69,2.4-1.859,3.729-2.4.082-.034.165-.065.248-.1v.22c.022,4.322-.137,8.7.055,13.015-2.061,4.508-5.453,8.117-8.837,11.63-.98,1.017-5.673,5.125-5.871,5.866-1.677.508-3.048,3.01-3.843,4.515l-.1.2a30.361,30.361,0,0,0-.143-3.514,72.66,72.66,0,0,1-1.745-15.194,8.558,8.558,0,0,0-.219-2.776,6.434,6.434,0,0,0,.15-2.558Z" transform="translate(-3082.778 -1692.513)" fill="#f6a695"/>
      <path id="Trazado_997312" data-name="Trazado 997312" d="M3298.054,1799.976a35.371,35.371,0,0,0,16.574-4.563c1.273-.69,2.4-1.859,3.728-2.4.082-.034.165-.065.248-.1v.22c-.081.057-.162.112-.242.17-1.093.793-1.907,2.063-2.959,2.951-4.729,3.988-11.1,7.76-17.354,8.061Z" transform="translate(-3084.487 -1692.513)" fill="#f47045"/>
      <path id="Trazado_997313" data-name="Trazado 997313" d="M2883.3,1117.263c6.841-2.881,12.239-2.507,19.375-1.3a31.542,31.542,0,0,1,22.1,10.8,22.738,22.738,0,0,1,5.2,11c3.513-.458,7.893,1.685,10.637,3.851A24.822,24.822,0,0,1,2947.2,1150c.495.984.874,2.035,1.373,3.007a26.015,26.015,0,0,1-4.661,4.916c.04,3.221-1.432,5.433-2.116,8.425a6.217,6.217,0,0,0,1.357,2.6c2.984,3.2,7.845,3.515,8.6,8.878a9.8,9.8,0,0,1-.943,5.377c-2.485,5.172-8.306,4.719-9.664,9.414a16.28,16.28,0,0,0-.409,4.016c-1.3-1.1-2.581-2.162-3.95-3.165a33.3,33.3,0,0,0-18.69-5.451c-.947-1.275-1.849-2.554-2.708-3.894-.192-4.312-.033-8.694-.055-13.015v-.22c-.083.032-.166.064-.248.1-1.326.545-2.455,1.714-3.728,2.4a35.368,35.368,0,0,1-16.573,4.563l0,4.337a6.425,6.425,0,0,1-.149,2.558,16.147,16.147,0,0,1-2.586,2.916,34.4,34.4,0,0,0-12.7,3.49q-2.224,1.356-4.359,2.855a32,32,0,0,1-8.261-1.813,10.828,10.828,0,0,1-6.444-5.548,11.759,11.759,0,0,1,1.4-10.9c1.4-1.909,3.31-3.056,4.111-5.409l.075-.229-.068-.242c-.794-2.87-2.681-5.225-2.868-8.29-.48-7.865,6.436-6.6,9.563-10.522,1.912-2.4,1.3-5.969,1.041-8.812-.469-4.747.924-9.622,2.716-13.939a6.753,6.753,0,0,1,.286-2.746C2877.474,1121.649,2879.981,1119.324,2883.3,1117.263Z" transform="translate(-2681.218 -1070.499)" fill="url(#linear-gradient-2)"/>
      <path id="Trazado_997314" data-name="Trazado 997314" d="M3027.094,1798.427q-.308-.137-.6-.3a12.343,12.343,0,0,1-5.934-7.154c-1.446-5.207,1.564-7.4,4.292-11a23,23,0,0,0,1.921-3.253,18.12,18.12,0,0,0,11.761,8.044,25.606,25.606,0,0,0,4,.354l0,4.337a6.434,6.434,0,0,1-.15,2.558,16.179,16.179,0,0,1-2.586,2.916A34.407,34.407,0,0,0,3027.094,1798.427Z" transform="translate(-2828.963 -1677.664)" fill="#161848"/>
      <path id="Trazado_997315" data-name="Trazado 997315" d="M3042.612,1117.263c6.841-2.881,12.239-2.507,19.375-1.3l.265.135c1.594.8,3.371,1.243,4.988,2.009,5.693,2.7,9.525,7.565,12.007,13.349a39.157,39.157,0,0,1,2.654,14.769c-1.726-.138-3.331-.534-5.1-.555a47.548,47.548,0,0,0-.436-7.13,42.129,42.129,0,0,0-4.271.87c-1.839.545-3.608,1.309-5.467,1.787-3.312-2.263-8.121-8.868-10.622-12.207-1.129-1.508-2.372-3.728-3.931-4.714-4.233,4.894-9.021,8.9-13.842,13.146-1.824,1.607-3.7,3.153-5.383,4.924-.469-4.747.923-9.621,2.716-13.939a6.735,6.735,0,0,1,.285-2.746C3036.788,1121.649,3039.3,1119.324,3042.612,1117.263Z" transform="translate(-2840.532 -1070.499)" fill="#1f2d8a"/>
      <path id="Trazado_997316" data-name="Trazado 997316" d="M3074.011,1117.263c6.842-2.881,12.24-2.507,19.375-1.3l.265.135c1.594.8,3.371,1.243,4.988,2.009,5.693,2.7,9.525,7.565,12.007,13.349a39.176,39.176,0,0,1,2.654,14.769c-1.726-.138-3.332-.534-5.1-.555a47.483,47.483,0,0,0-.436-7.13q-.062-.32-.134-.638a23.952,23.952,0,0,0-10.449-15.175,24.208,24.208,0,0,0-18.6-3.142c-5.578,1.424-8.7,3.805-11.616,8.821a6.727,6.727,0,0,1,.286-2.746C3068.187,1121.649,3070.695,1119.324,3074.011,1117.263Z" transform="translate(-2871.93 -1070.499)" fill="#f9b861"/>
      <path id="Trazado_997317" data-name="Trazado 997317" d="M3077.034,1268.61c1.61,2.123,3.022,4.4,4.678,6.488,4.46,5.628,9.821,9.608,15.74,13.45a14.891,14.891,0,0,0-3.57,10.876,11.2,11.2,0,0,0,3.639,7.365c.516.419,1.061.807,1.6,1.195.012,1.262.08,2.556.01,3.814-.083.033-.166.064-.248.1-1.325.545-2.455,1.714-3.728,2.4a35.366,35.366,0,0,1-16.574,4.563,25.6,25.6,0,0,1-4-.354,18.12,18.12,0,0,1-11.761-8.043c-3.429-6.559-3.324-9.837-3.4-17.034a25.783,25.783,0,0,1,.232-5.487c1.482-7.161,8.157-11.245,13.29-15.466A46.332,46.332,0,0,0,3077.034,1268.61Z" transform="translate(-2865.012 -1211.401)" fill="#f6a695"/>
      <path id="Trazado_997318" data-name="Trazado 997318" d="M3186.9,1572.96a1.842,1.842,0,0,1,.542.479,4.291,4.291,0,0,1,.236,2.663c-.3,1.494-1.36,1.822-2.473,2.582a1.557,1.557,0,0,0-.729,1.18c.4.55,1.1.556,1.7.879l-.015.443a2.074,2.074,0,0,1-.452.025,2.993,2.993,0,0,1-2.118-.745,1.354,1.354,0,0,1-.015-1.11c.476-1.185,1.533-1.583,2.575-2.112A12.976,12.976,0,0,0,3186.9,1572.96Z" transform="translate(-2979.109 -1490.68)" fill="#f47045"/>
      <path id="Trazado_997319" data-name="Trazado 997319" d="M3083.036,1459.982a5.641,5.641,0,0,1,3.369.6,1.887,1.887,0,0,1,.89,1.431,1.269,1.269,0,0,1-.529.857c-.491.061-.463.062-.864-.237-1.784-1.562-3.481.037-4.891-.957v-.345A3.017,3.017,0,0,1,3083.036,1459.982Z" transform="translate(-2884.901 -1386.985)" fill="#161848"/>
      <path id="Trazado_997320" data-name="Trazado 997320" d="M3329.715,1471.01a6.668,6.668,0,0,1,2.39.373,2.466,2.466,0,0,1,1.341,1.335c.089.285-.015.365-.125.618a1.525,1.525,0,0,1-.474.209c-.674.148-1.549-.414-2.142-.7-1.3-.066-2.77.523-3.8.412a.631.631,0,0,1-.59-.4,1.1,1.1,0,0,1,.27-.777C3327.334,1471.142,3328.643,1471.1,3329.715,1471.01Z" transform="translate(-3110.481 -1397.128)" fill="#161848"/>
      <path id="Trazado_997321" data-name="Trazado 997321" d="M3092.548,1530.117a3.419,3.419,0,0,1,.977.028,3,3,0,0,1,1.792,1.357,3.716,3.716,0,0,1,.436,2.715,3.058,3.058,0,0,1-1.578,2.052,7.608,7.608,0,0,1-.928.03,2.642,2.642,0,0,1-1.714-.932,3.21,3.21,0,0,1-.689-2.452A3.854,3.854,0,0,1,3092.548,1530.117Z" transform="translate(-2893.923 -1451.347)" fill="#161848"/>
      <path id="Trazado_997322" data-name="Trazado 997322" d="M3319.631,1535.951a4.413,4.413,0,0,1,1.7,0,3.138,3.138,0,0,1,1.861,1.632,3.864,3.864,0,0,1,.154.361,3.694,3.694,0,0,1,.118.375,3.816,3.816,0,0,1,.08.385,3.9,3.9,0,0,1,.042.391q.01.2,0,.394a3.9,3.9,0,0,1-.037.392q-.029.2-.076.386a3.857,3.857,0,0,1-.114.376,3.079,3.079,0,0,1-1.852,1.868,3.251,3.251,0,0,1-1.07,0,3.048,3.048,0,0,1-1.984-1.445q-.1-.171-.184-.352t-.149-.369c-.044-.125-.082-.253-.114-.382s-.058-.26-.077-.392-.032-.264-.039-.4-.007-.266,0-.4.018-.266.037-.4.043-.262.074-.392A3.06,3.06,0,0,1,3319.631,1535.951Z" transform="translate(-3102.723 -1456.642)" fill="#161848"/>
      <path id="Trazado_997323" data-name="Trazado 997323" d="M3216.939,1722.23l.109.152a6.346,6.346,0,0,1-1.1,2.516,6,6,0,0,1-4.006,2.559,5.279,5.279,0,0,1-4.277-1.4,12.794,12.794,0,0,1-1.979-3.185C3209.392,1722.4,3213.213,1722.4,3216.939,1722.23Z" transform="translate(-2999.555 -1627.654)" fill="#fefefe"/>
      <path id="Trazado_997324" data-name="Trazado 997324" d="M3396.19,1126.02a31.545,31.545,0,0,1,22.1,10.8,22.733,22.733,0,0,1,5.2,11c3.513-.458,7.893,1.685,10.637,3.851a24.814,24.814,0,0,1,6.587,8.391c.5.984.875,2.035,1.373,3.007a26.016,26.016,0,0,1-4.661,4.916c.04,3.221-1.433,5.433-2.116,8.425a6.216,6.216,0,0,0,1.357,2.6c2.985,3.2,7.845,3.515,8.6,8.878a9.8,9.8,0,0,1-.943,5.377c-2.485,5.172-8.306,4.719-9.664,9.414a16.3,16.3,0,0,0-.41,4.016c-1.3-1.1-2.581-2.162-3.95-3.165a33.309,33.309,0,0,0-18.69-5.451c-.947-1.275-1.849-2.554-2.708-3.893-.192-4.312-.033-8.694-.055-13.015v-.22c.071-1.258,0-2.552-.009-3.814-.539-.388-1.083-.776-1.6-1.195a11.19,11.19,0,0,1-3.638-7.365,14.889,14.889,0,0,1,3.569-10.876,14.018,14.018,0,0,1,3.832-1.978c1.767.021,3.372.417,5.1.555a39.174,39.174,0,0,0-2.654-14.769c-2.481-5.784-6.314-10.651-12.007-13.349-1.617-.766-3.394-1.209-4.987-2.009Z" transform="translate(-3174.735 -1080.557)" fill="#1f2d8a"/>
      <path id="Trazado_997325" data-name="Trazado 997325" d="M3610.81,1313.29c.3-.036.555-.166.8.043,1.813,1.518,5.062,10.749,5.756,13.221a17.8,17.8,0,0,1,.7,4.054,9.661,9.661,0,0,1-.059,1.572,11,11,0,0,0-4.551-4.122A39.167,39.167,0,0,0,3610.81,1313.29Z" transform="translate(-3372.094 -1252.334)" fill="#161848"/>
      <path id="Trazado_997326" data-name="Trazado 997326" d="M3691.931,1649.51c1.068,1.951.162,5.029.955,7.259,2.086,5.867,6.94,4.712,6.667,12.8a19.673,19.673,0,0,0-2.307-4.209c-3.478-4.175-7.04-3.715-7.622-10.614A14.5,14.5,0,0,0,3691.931,1649.51Z" transform="translate(-3444.57 -1560.924)" fill="#161848"/>
      <path id="Trazado_997327" data-name="Trazado 997327" d="M3735.71,1389.966c3.513-.458,7.894,1.685,10.637,3.851a24.819,24.819,0,0,1,6.587,8.391c.5.984.874,2.035,1.373,3.007a26.02,26.02,0,0,1-4.661,4.916c-.885-3.874-3.545-5.937-6.974-7.3a14.636,14.636,0,0,1-4.093-2.045C3735.543,1398.274,3736.092,1393.512,3735.71,1389.966Z" transform="translate(-3486.95 -1322.703)" fill="#bbc6e7"/>
      <path id="Trazado_997328" data-name="Trazado 997328" d="M3553.168,1746.61c.333.126.678.24,1,.387,0,2.461.259,5.115,2.062,6.954,2.366,2.412,6.21,2.2,8.766,4.4a4.615,4.615,0,0,1,.856.96c1.218,1.83.92,4.25,2.065,6.126,1.6,2.616,4.559,3.878,6.363,6.249a1.224,1.224,0,0,1,.291.707c.007.082,0,.165,0,.247s.042.282.057.366a33.308,33.308,0,0,0-18.69-5.451c-.947-1.275-1.849-2.554-2.708-3.894-.192-4.312-.033-8.694-.055-13.015v-.22C3553.247,1749.165,3553.179,1747.872,3553.168,1746.61Z" transform="translate(-3319.06 -1650.026)" fill="#161848"/>
      <path id="Trazado_997329" data-name="Trazado 997329" d="M3495.061,1486.66c1.767.021,3.372.417,5.1.555a11,11,0,0,1,4.551,4.122,15.085,15.085,0,0,1,1.44,8.739,14.507,14.507,0,0,1-2.306,5.238c-1.819,2.044-3.878,3.552-6.688,3.673a9.273,9.273,0,0,1-3.256-.526c-.325-.147-.669-.261-1-.387-.539-.389-1.083-.776-1.6-1.2a11.194,11.194,0,0,1-3.639-7.365,14.89,14.89,0,0,1,3.57-10.876A13.962,13.962,0,0,1,3495.061,1486.66Z" transform="translate(-3258.789 -1411.489)" fill="url(#linear-gradient-3)"/>
      <path id="Trazado_997330" data-name="Trazado 997330" d="M3533.707,1527.12a1.45,1.45,0,0,1,.912.606,2.163,2.163,0,0,1,.138,1.466,5.324,5.324,0,0,1-1.176,2.662l-.282-.165c-.582-.459-1.2-.879-1.8-1.311A7.48,7.48,0,0,1,3533.707,1527.12Z" transform="translate(-3299.166 -1448.616)" fill="#f6a695"/>
      <path id="Trazado_997331" data-name="Trazado 997331" d="M3521.314,1580.6a11.255,11.255,0,0,1,2.323,1.2,11.769,11.769,0,0,1-.888,4.182,1.723,1.723,0,0,1-.747-.013,1.7,1.7,0,0,1-1.1-1C3520.31,1583.589,3520.866,1581.93,3521.314,1580.6Z" transform="translate(-3289.179 -1497.691)" fill="#f6a695"/>
      <path id="Trazado_997332" data-name="Trazado 997332" d="M3520.31,1649.23a1.152,1.152,0,0,1,.13.055,7.856,7.856,0,0,0,.966.58c.834.324,1.448.121,2.068.959.576.777.344,2.278.2,3.174a1.114,1.114,0,0,1-.811.4,1.566,1.566,0,0,1-1.178-.591A6.658,6.658,0,0,1,3520.31,1649.23Z" transform="translate(-3288.871 -1560.667)" fill="#f6a695"/>
      <path id="Trazado_997333" data-name="Trazado 997333" d="M3583.458,1507.04a5.874,5.874,0,0,1,2.623,3.054,13.656,13.656,0,0,1,.075,9.714,11.176,11.176,0,0,1-6.075,6.674l-.239-.115a11.494,11.494,0,0,0,3.054-1.951c1.463-1.57,1.825-4.858,2.446-6.918.43-1.428,1.293-2.956,1.289-4.469C3586.621,1510.556,3585.068,1508.687,3583.458,1507.04Z" transform="translate(-3343.616 -1430.19)" fill="#f87d7c"/>
      <path id="Trazado_997334" data-name="Trazado 997334" d="M2089.682,1194.5a29.485,29.485,0,0,0,10.2-3.982,30.75,30.75,0,0,0,9.955-9.06q.911-1.248,1.744-2.553t1.583-2.66q.751-1.356,1.417-2.757t1.244-2.842c3.5-8.645,4.459-15.389,10.765-23.034a25.13,25.13,0,0,1,6.63-5.851c1.784-1.036,4.7-2.205,6.74-1.633-3.316,2.061-5.823,4.386-6.758,8.4a6.741,6.741,0,0,0-.286,2.746c-1.792,4.318-3.186,9.193-2.717,13.939.255,2.843.871,6.415-1.041,8.813-3.128,3.921-10.043,2.657-9.563,10.522.187,3.065,2.074,5.42,2.867,8.29l.069.242-.076.229c-.8,2.354-2.707,3.5-4.111,5.409a11.76,11.76,0,0,0-1.4,10.9,10.829,10.829,0,0,0,6.444,5.548,32.023,32.023,0,0,0,8.261,1.813c-7.268,6.574-11.638,15.5-16.016,24.2-.913,1.814-2.347,5.582-3.414,7.035a28.83,28.83,0,0,1-1.638,3.608c-1.041,1.811-1.858,3.821-2.963,5.571a14.472,14.472,0,0,0,2.861,4.178c.326,1.581,1.842,2.872,2.471,4.331.542,1.242,1.28,2.429,1.723,3.7a13.153,13.153,0,0,1-4.97,9.084,12.633,12.633,0,0,1-9.455,2.646c-.069-.011-.137-.024-.207-.035-.409-.065-.227-.082-.582.037-1.485-2.464-2.729-5.1-4.059-7.659-6.185.449-13.536.106-19.87.107a39.349,39.349,0,0,0-6.682.089,57.61,57.61,0,0,1-9.8-13.111,61.866,61.866,0,0,1-6.338-16.4c-2.109-9.871-2.8-22.328,2.785-31.105C2063.2,1201.155,2076.693,1197.36,2089.682,1194.5Z" transform="translate(-1937.876 -1093.367)" fill="#bbc6e7"/>
      <path id="Trazado_997335" data-name="Trazado 997335" d="M2714.92,2454.188c1.479-.83,6.4-4.559,7.448-4.765l.227.377a28.647,28.647,0,0,1-1.638,3.609c-1.041,1.811-1.858,3.821-2.962,5.571Q2716.494,2456.559,2714.92,2454.188Z" transform="translate(-2548.253 -2294.944)" fill="#e6eaf6"/>
      <path id="Trazado_997336" data-name="Trazado 997336" d="M2149.21,2603.414c2.191-.2,4.458-.145,6.659-.174q7.282-.079,14.564-.049c2.9.01,5.841.132,8.738-.043q3.152,6.612,6.391,13.18c-6.186.449-13.536.106-19.87.107a39.447,39.447,0,0,0-6.682.09A57.678,57.678,0,0,1,2149.21,2603.414Z" transform="translate(-2028.038 -2436.006)" fill="#e6eaf6"/>
      <path id="Trazado_997337" data-name="Trazado 997337" d="M2242.46,2097.679c-.2-1.854-1.011-4.419.186-6.036a2.465,2.465,0,0,1,1.332-1.02c1.45-.265,1.759,1.482,3.233-.107a1.589,1.589,0,0,1,1.24-.589c3.371-.111,10.979,7.223,13.413,9.753a13.138,13.138,0,0,1,1.77,2.308c.328-2.65.282-6.271,2.541-8.048a3.277,3.277,0,0,1,2.248-.806,1.5,1.5,0,0,1,1.09.669,2.868,2.868,0,0,1,.5,1.6,27.023,27.023,0,0,1-.524,3.95,37.426,37.426,0,0,0-.541,10.343c1.5,1.308,3.333,2.692,4.291,4.5-5.007,2.979-9.318,5.73-12.064,11.177-1.2-2.49-2.04-5.568-3.7-7.756-.856-1.126-2.311-1.734-3.415-2.6a49.543,49.543,0,0,1-8.363-7.869c-1.307-1.655-4.4-6.236-3.987-8.432A1.578,1.578,0,0,1,2242.46,2097.679Z" transform="translate(-2113.057 -1965.06)" fill="#f6a695"/>
      <path id="Trazado_997338" data-name="Trazado 997338" d="M2251.56,2184.05a2.851,2.851,0,0,1,.9.437c1.35,1.007,2.549,2.255,3.855,3.325,1.6,1.312,3.958,2.588,5.244,4.169l.095.41c-1.526-.076-8.47-6.074-9.631-7.365A1.5,1.5,0,0,1,2251.56,2184.05Z" transform="translate(-2122.157 -2051.432)" fill="#f47045"/>
      <path id="Trazado_997339" data-name="Trazado 997339" d="M2264.65,2133.2a1.4,1.4,0,0,1,.617.177,31.294,31.294,0,0,1,3.041,2.632c2.252,1.908,4.8,3.756,6.867,5.859.4.406.39.543.39,1.118a4.6,4.6,0,0,1-1.007-.638c-1.281-1.048-9.552-7.835-9.847-8.573A2.165,2.165,0,0,1,2264.65,2133.2Z" transform="translate(-2134.194 -2004.77)" fill="#f47045"/>
      <path id="Trazado_997340" data-name="Trazado 997340" d="M2299.32,2109.15a2.074,2.074,0,0,1,.825.149c1.971.867,12.087,9.073,12.673,10.661a3.941,3.941,0,0,1-1.185-.632c-2.832-2.074-5.449-4.533-8.16-6.775A37.649,37.649,0,0,1,2299.32,2109.15Z" transform="translate(-2166.076 -1982.701)" fill="#f47045"/>
      <path id="Trazado_997341" data-name="Trazado 997341" d="M2496.275,2384.49c2.286,3.279,4.263,6.79,6.49,10.115q1.574,2.37,3.073,4.792a14.463,14.463,0,0,0,2.861,4.177c.326,1.581,1.841,2.872,2.471,4.332.542,1.242,1.28,2.429,1.723,3.7a13.151,13.151,0,0,1-4.97,9.085,12.633,12.633,0,0,1-9.455,2.645c-.069-.011-.137-.024-.207-.034-.409-.065-.227-.083-.582.037-1.485-2.464-2.729-5.1-4.058-7.66q-3.24-6.568-6.391-13.181-1.537-3.405-3.02-6.834C2486.957,2390.22,2491.268,2387.469,2496.275,2384.49Z" transform="translate(-2336.098 -2235.361)" fill="#f6a695"/>
      <path id="Trazado_997342" data-name="Trazado 997342" d="M2234.464,3311.38c1.187.87,21.92-.615,25.453.557a3.039,3.039,0,0,1,2.322,2.479c.371,2.681-1.019,6.733-1.569,9.444,10.456-.07,20.959-.252,31.41,0-3.414.489-7.217.121-10.683.116l-20.768.059-8.452,40.856c-1.031,4.917-1.855,9.889-2.961,14.788l-1.549,6.856a30.756,30.756,0,0,1,4.431.073,63.3,63.3,0,0,1-8.153.1l-16.979.015-59.835-.1.063-1.568c.495-1.214,2.313-11.163,1.97-12.168l.017-.123a1.523,1.523,0,0,0,.431-.871c.749-3.379,1.063-7.019,1.637-10.444l1.478-8.953c.375-2.206.836-4.43,1.022-6.662,1.244-5.092,1.824-10.682,2.643-15.873l1.579-8.241c.379-2.217.641-6.556,1.811-8.335,1.978-3.01,6.623-1.073,9.45-1.807.091-.024.181-.052.271-.077,1.99.375,7.529.042,9.937.032l22.093-.015C2223.275,3311.519,2233.507,3311.794,2234.464,3311.38Z" transform="translate(-2044.518 -3085.898)" fill="#bbc6e7"/>
      <path id="Trazado_997343" data-name="Trazado 997343" d="M2686.62,3672.79a8.183,8.183,0,0,1,4.669,1.55,7.539,7.539,0,0,1,2.872,5.084,9.543,9.543,0,0,1-1.976,6.94,9.359,9.359,0,0,1-6.852,3.578,7.72,7.72,0,0,1-5.026-1.677,7.575,7.575,0,0,1-2.7-5.38,9.766,9.766,0,0,1,2.313-6.756A9.136,9.136,0,0,1,2686.62,3672.79Z" transform="translate(-2513.92 -3417.537)" fill="#e6eaf6"/>
      <path id="Trazado_997344" data-name="Trazado 997344" d="M1296.466,1510.413c-.013,3.187-.456,6.745,1.989,9.185a6.764,6.764,0,0,0,3.237,1.841c3.088.6,7.566.205,10.8.217q8.727.071,17.453.05c3.549,0,7.134-.115,10.679.021,2.136,2.12,4.413,4.055,6.647,6.063a43.137,43.137,0,0,0,5.588,4.744,3.162,3.162,0,0,0,1.772.626,8.575,8.575,0,0,0,.932-.069,2.552,2.552,0,0,1-.218,1.249c-12.988,2.858-26.479,6.653-34.186,18.772-5.582,8.777-4.894,21.234-2.785,31.1a61.864,61.864,0,0,0,6.338,16.4,57.615,57.615,0,0,0,9.8,13.111,39.347,39.347,0,0,1,6.682-.09c6.334,0,13.685.342,19.87-.107,1.329,2.557,2.573,5.2,4.059,7.659.355-.12.173-.1.582-.037l.206.035a12.633,12.633,0,0,0,9.455-2.646,13.153,13.153,0,0,0,4.97-9.084c-.443-1.275-1.181-2.462-1.723-3.7-.63-1.459-2.146-2.75-2.471-4.331q3.9,2.349,7.819,4.658c1.754,1.027,5.07,2.517,6.291,4.008l-.439,1.685-.128.532a9.765,9.765,0,0,0,2.975.365,14.348,14.348,0,0,0,3.523,3.094,9.913,9.913,0,0,1,1.294.842c-.094,2.236-.309,4.46-.452,6.694a72.5,72.5,0,0,0-.314,8.153c.609.431,1.21.867,1.848,1.253-3.461,5.443-4.147,12.288-4.772,18.615a64.262,64.262,0,0,0-.3,7.37c-.958.414-11.19.139-12.934.138l-22.093.015c-2.408.011-7.946.342-9.936-.032l-12-15.9a124.16,124.16,0,0,0-9.509-11.733c-8.856-9.12-17.107-8.119-28.644-8.113-.553-1-.277-8.373-.286-9.931-.309-.4-.16-1.368-.14-1.872l.017-5.094a24.64,24.64,0,0,1-6.466.569,24.064,24.064,0,0,1-16.434-7.981c-.094-2.244.422-7.785-.356-9.5,1.661-4.313,1.223-7.012.7-11.479a18.177,18.177,0,0,0-4.543-6.237c-.714-.435-1.453-.826-2.186-1.227-3.213-1.125-6.084-1.265-9.194.285a11.233,11.233,0,0,0-2.856,2.013,2.573,2.573,0,0,1-.665.387,125.136,125.136,0,0,0-1.292-14.051l-.372-.366c.147-2.068-.2-4.143-.036-6.2.1-1.243.938-2.23,1-3.533.152-3.433.237-33.992-.266-35.632a4.65,4.65,0,0,0-2.382-2.682l.141-.2c.357.049.712.1,1.067.165a45.321,45.321,0,0,1,5.463-.12l8.36.009c9.514.043,19.057.173,28.568.014Z" transform="translate(-1203.538 -1433.204)" fill="#fefefe"/>
      <path id="Trazado_997345" data-name="Trazado 997345" d="M1584.611,1665.031a4.931,4.931,0,0,1,2.059.082,3.581,3.581,0,0,1,2.107,1.765q.075.15.136.306c.04.1.075.21.106.318s.054.217.073.327a3.3,3.3,0,0,1,.041.333q.013.167.009.335c0,.112-.011.223-.024.335a3.491,3.491,0,0,1-.146.653,4.468,4.468,0,0,1-2.319,2.549,3.927,3.927,0,0,1-1.824.044,3.3,3.3,0,0,1-2.057-1.648,4.033,4.033,0,0,1-.175-.375,4.11,4.11,0,0,1-.135-.392q-.058-.2-.1-.4a3.972,3.972,0,0,1-.054-.412,4.137,4.137,0,0,1-.012-.415q0-.208.03-.414a3.962,3.962,0,0,1,.072-.408,3.915,3.915,0,0,1,.112-.4A3.626,3.626,0,0,1,1584.611,1665.031Z" transform="translate(-1506.718 -1575.105)" fill="#e6eaf6"/>
      <path id="Trazado_997346" data-name="Trazado 997346" d="M1252.6,1510.526l.141-.2c.358.05.712.1,1.067.165,1.614,1.557,1.873,2.748,1.938,4.938.331,11.164-.1,22.393.03,33.57a9.95,9.95,0,0,1,7.729-1.521,15.611,15.611,0,0,1,.061-2.553,25.505,25.505,0,0,1,.047,3.111c1.8.6,3.57,1.2,5.307,1.968-.575,2.3-.228,16.086-.11,19.339l-.143.969c-3.214-1.125-6.084-1.265-9.194.285a11.185,11.185,0,0,0-1.5.893,11.307,11.307,0,0,0-1.352,1.12,2.573,2.573,0,0,1-.665.387,125.113,125.113,0,0,0-1.293-14.051l-.371-.365c.147-2.069-.2-4.143-.036-6.205.1-1.243.938-2.23,1-3.533.153-3.433.237-33.992-.266-35.632A4.648,4.648,0,0,0,1252.6,1510.526Z" transform="translate(-1203.535 -1433.203)" fill="url(#linear-gradient-4)"/>
      <path id="Trazado_997347" data-name="Trazado 997347" d="M1388.93,1806.6a5.088,5.088,0,0,1,2.379-3.446,8.376,8.376,0,0,1,3.208-1.119,64.4,64.4,0,0,1,8.981-.226l15.475-.069a9.649,9.649,0,0,0,3.6-.394c1.874-.757,6.6-5.688,8.333-5.029a2.394,2.394,0,0,1,1.145,1.67c.362,1.291.244,2.8.794,4l.288.133c1.715-1.031,1.506-6.69,3.806-6.166,2.456.56,4.588,3.577,5.7,5.723a18.745,18.745,0,0,1,1.448,13.66q-.094.311-.2.616t-.234.6q-.125.3-.265.591t-.294.577q-.154.284-.323.56t-.351.542q-.183.266-.378.523t-.4.5q-.208.246-.429.48t-.453.456q-.232.222-.476.432t-.5.405q-.253.2-.517.378t-.535.35q-.272.168-.552.321t-.568.292c-.073.036-.149.066-.223.1l-.509.261c-1.678,2.04-5.54,2.552-7.991,2.758-6.306.528-18.255-1.3-24.485-2.724a13.124,13.124,0,0,0-3.752,3.182v8.535a34.393,34.393,0,0,0,.116,4.766,18.183,18.183,0,0,0-4.543-6.237c-.714-.435-1.453-.826-2.186-1.227l.143-.969c-.118-3.253-.465-17.042.11-19.339-1.736-.769-3.511-1.367-5.307-1.968a25.483,25.483,0,0,0-.047-3.111Z" transform="translate(-1328.901 -1695.276)" fill="#1f2d8a"/>
      <path id="Trazado_997348" data-name="Trazado 997348" d="M1881.315,1932.3a1.074,1.074,0,0,1,.07.482c-.092,2-2.318,4.365-3.719,5.634-2.828,2.561-7.05,5.135-10.931,4.881l-.009-.043.418-.172-.126-.14.166.031C1873.315,1940.727,1878.044,1938.3,1881.315,1932.3Z" transform="translate(-1768.272 -1820.42)" fill="#161848"/>
      <path id="Trazado_997349" data-name="Trazado 997349" d="M1388.93,1925.55c2.349.338,7.939.8,9.741,2.007a16.009,16.009,0,0,0-4.308,3.372l-.076.095c-1.736-.769-3.51-1.367-5.306-1.968a25.482,25.482,0,0,0-.047-3.111Z" transform="translate(-1328.901 -1814.226)" fill="#161848"/>
      <path id="Trazado_997350" data-name="Trazado 997350" d="M1539.962,1900.744c.064.005.128.006.192.016,1.432.206,2.935.983,4.384,1.32,7.57,1.76,14.924,2.218,21.6-2.613a18.413,18.413,0,0,0,2.551-2.421c-1.876,3.661-6.267,5.737-9.969,6.905a32.584,32.584,0,0,1-15.3.575c-.982-.171-1.938-.519-2.911-.675-.937-.149-2.7.026-3.483-.409a1.225,1.225,0,0,1-.127-.093A22.041,22.041,0,0,0,1539.962,1900.744Z" transform="translate(-1464.968 -1788.07)" fill="#161848"/>
      <path id="Trazado_997351" data-name="Trazado 997351" d="M1456.24,1890.512c1.611-.99,2.825-2.63,4.527-3.555,2.884-1.568,13.292-1.776,16.974-1.777-.159.211-.319.42-.49.621-1.818,2.126-7.618,2.13-10.237,2.284-.533-.422-2.092-.05-2.816.045-.284.037-.581.064-.863.111-1.853.311-8.606,4.643-9.692,6.226-.989,1.442.136,17.865-1.285,19.8l-.32-.092a7.544,7.544,0,0,1-.29-.859c-.118-3.253-.465-17.042.11-19.339l.076-.095A16.011,16.011,0,0,1,1456.24,1890.512Z" transform="translate(-1386.47 -1777.181)" fill="#2d4b9d"/>
      <path id="Trazado_997352" data-name="Trazado 997352" d="M1534.55,2076.97c2.442.322,4.933,1.079,7.345,1.617,8.52,1.9,20.338,4.809,28.887,2.639-1.677,2.04-5.54,2.553-7.99,2.758-6.306.528-18.255-1.3-24.485-2.724a13.118,13.118,0,0,0-3.752,3.182Z" transform="translate(-1462.81 -1953.172)" fill="#f87d7c"/>
      <path id="Trazado_997353" data-name="Trazado 997353" d="M1564.211,2125.727l.509-.26q.227,10.293.172,20.589c.01,3.859.47,8.658-.424,12.407q-.112.463-.254.918t-.312.9q-.17.444-.368.876t-.424.85q-.226.418-.477.82t-.528.786q-.276.384-.577.749t-.624.709a19.427,19.427,0,0,1-10.095,5.566c0,2.321.01,4.645-.027,6.966-.31-.4-.16-1.368-.14-1.872l.017-5.095a24.628,24.628,0,0,1-6.465.57,24.065,24.065,0,0,1-16.435-7.981c-.094-2.243.423-7.785-.355-9.5,1.661-4.313,1.223-7.012.7-11.479a34.4,34.4,0,0,1-.116-4.767v-8.535a13.127,13.127,0,0,1,3.752-3.182c6.23,1.425,18.178,3.252,24.485,2.724C1558.671,2128.281,1562.533,2127.768,1564.211,2125.727Z" transform="translate(-1456.238 -1997.674)" fill="#f6a695"/>
      <path id="Trazado_997354" data-name="Trazado 997354" d="M1815.182,2332.32a6.677,6.677,0,0,1,2.245,2.612,3.563,3.563,0,0,1,.255,2.68,3.163,3.163,0,0,1-1.819,1.548.665.665,0,0,1-.576-.313l.08-.287a7,7,0,0,0,1.107-.708C1818.488,2336.168,1814.977,2334.221,1815.182,2332.32Z" transform="translate(-1720.865 -2187.488)" fill="#c9464f"/>
      <path id="Trazado_997355" data-name="Trazado 997355" d="M1622.169,2197.743a9.659,9.659,0,0,1,2.708-.016,2.6,2.6,0,0,1,1.861,1.033c-.005.271.043.3-.078.489-.929,1.428-3.153.548-4.58.861-.06.012-.119.027-.179.042-.8.268-1.534.869-2.338,1.081a1.349,1.349,0,0,1-1.125-.136,1.258,1.258,0,0,1,.187-1.07C1619.49,2198.516,1620.629,2198.14,1622.169,2197.743Z" transform="translate(-1539.91 -2063.896)" fill="#1f2d8a"/>
      <path id="Trazado_997356" data-name="Trazado 997356" d="M1867.695,2189.506c1.9-.152,4.07-.371,5.774.7a2.512,2.512,0,0,1,1.22,1.655,1.056,1.056,0,0,1-.455.825c-.586.048-.753-.131-1.257-.421-1.884-1.2-3.635-.149-5.617-.285a1.409,1.409,0,0,1-1.073-.521,1.546,1.546,0,0,1,.027-1.034A3.252,3.252,0,0,1,1867.695,2189.506Z" transform="translate(-1767.798 -2056.321)" fill="#1f2d8a"/>
      <path id="Trazado_997357" data-name="Trazado 997357" d="M1886.885,2260.19a1.994,1.994,0,0,1,1.467.836,4.253,4.253,0,0,1,.588,3.321,3.534,3.534,0,0,1-1.568,2.517,2.159,2.159,0,0,1-1.634-1.064,4.431,4.431,0,0,1-.456-3.245A3.272,3.272,0,0,1,1886.885,2260.19Z" transform="translate(-1785.229 -2121.3)" fill="#161848"/>
      <path id="Trazado_997358" data-name="Trazado 997358" d="M1661.623,2269.09a2.482,2.482,0,0,1,1.557.722,3.848,3.848,0,0,1,.846,2.876,4.257,4.257,0,0,1-1.531,3.154c-.119-.013-.477-.047-.6-.076a2,2,0,0,1-1.192-.946,4.831,4.831,0,0,1-.572-3.511A3.057,3.057,0,0,1,1661.623,2269.09Z" transform="translate(-1578.198 -2129.467)" fill="#161848"/>
      <path id="Trazado_997359" data-name="Trazado 997359" d="M1708.223,2435.523c.962-.081,1.956-.039,2.922-.042a11.437,11.437,0,0,1-1.3,5.118,7.03,7.03,0,0,1-4.105,3.679,6.525,6.525,0,0,1-5.185-.977,11.76,11.76,0,0,1-4.113-6.566,1.161,1.161,0,0,1,.277-1c1.244-.454,4.922.025,6.459.01Q1705.706,2435.716,1708.223,2435.523Z" transform="translate(-1611.667 -2282.144)" fill="#fefefe"/>
      <path id="Trazado_997360" data-name="Trazado 997360" d="M2315.172,2620.49c-.629-1.459-2.145-2.75-2.471-4.332q3.9,2.349,7.819,4.658c1.754,1.027,5.07,2.518,6.292,4.008l-.44,1.685-.128.532a9.774,9.774,0,0,0,2.975.365,14.363,14.363,0,0,0,3.523,3.094,9.859,9.859,0,0,1,1.294.842c-.094,2.236-.31,4.46-.452,6.693a72.483,72.483,0,0,0-.314,8.154c.608.431,1.21.867,1.848,1.253-3.461,5.443-4.147,12.288-4.773,18.615-.675-.016-1.353-.09-2.024-.159-14.327-1.452-35.065-9.5-44.913-20.52-4.652-5.205-7.962-11.472-12.337-16.914a39.374,39.374,0,0,1,6.682-.089c6.334,0,13.685.342,19.87-.107,1.329,2.557,2.573,5.2,4.059,7.66.355-.12.173-.1.582-.038.069.01.137.024.207.035a12.638,12.638,0,0,0,9.455-2.646,13.153,13.153,0,0,0,4.97-9.084C2316.452,2622.919,2315.713,2621.732,2315.172,2620.49Z" transform="translate(-2140.098 -2447.946)" fill="#bbc6e7"/>
      <path id="Trazado_997361" data-name="Trazado 997361" d="M2665.189,2620.49c-.63-1.459-2.145-2.75-2.471-4.332q3.9,2.349,7.819,4.658c1.754,1.027,5.07,2.518,6.291,4.008l-.439,1.685-.128.532q-1.026,3.56-2.091,7.108c-1.261,4.216-2.438,9.1-6.565,11.324a8.236,8.236,0,0,1-6.62.394c-4.35-1.511-7.359-5.9-9.288-9.941.355-.12.174-.1.582-.038.069.01.137.024.206.035a12.64,12.64,0,0,0,9.456-2.646,13.156,13.156,0,0,0,4.97-9.085C2666.468,2622.919,2665.73,2621.732,2665.189,2620.49Z" transform="translate(-2490.115 -2447.946)" fill="#f47045"/>
      <path id="Trazado_997362" data-name="Trazado 997362" d="M2791.192,2620.49c-.63-1.459-2.146-2.75-2.471-4.332q3.9,2.349,7.819,4.658c1.754,1.027,5.07,2.518,6.291,4.008l-.439,1.685Q2796.721,2623.637,2791.192,2620.49Z" transform="translate(-2616.119 -2447.946)" fill="#1f2d8a"/>
      <path id="Trazado_997363" data-name="Trazado 997363" d="M775.479,2468.49c.778,1.715.262,7.256.356,9.5a24.065,24.065,0,0,0,16.434,7.981,24.629,24.629,0,0,0,6.466-.57l-.017,5.095c-.02.5-.169,1.476.14,1.872.009,1.558-.267,8.932.285,9.931,11.538-.005,19.788-1.008,28.645,8.113a124.155,124.155,0,0,1,9.509,11.733l12,15.9c-.09.026-.18.053-.271.077-2.828.734-7.472-1.2-9.45,1.807-1.17,1.78-1.432,6.119-1.811,8.336l-1.579,8.242c-.819,5.191-1.4,10.781-2.642,15.873-.186,2.231-.648,4.455-1.022,6.661l-1.478,8.953c-.573,3.426-.888,7.065-1.636,10.444a1.518,1.518,0,0,1-.431.87l-.017.123c.344,1.005-1.476,10.954-1.97,12.168l-.064,1.568-.445.112c-.022,1.65-.49,4.463.713,5.745a4.562,4.562,0,0,0,1.242.887l-20.975.042c-3.243.006-7.15.345-10.3-.1a4.682,4.682,0,0,1-2.2-.917,21.572,21.572,0,0,0-3.582.056,16.4,16.4,0,0,1-4.814,1.156l-8.519,0c-.937.053-1.882.02-2.82.012-9.834-.232-19.712-.071-29.55-.049-4.926.01-10.925.507-15.711-.463a25.6,25.6,0,0,1-10.028-4.627,26.922,26.922,0,0,1-10.036-17.435,30.69,30.69,0,0,1-.074-6.049c.384-5.041,1.229-10.125,1.875-15.138l3.312-25.933,2.238-17.1a100.806,100.806,0,0,1,1.716-11.177,24.633,24.633,0,0,1,4.287-8.845c9.368-12.314,21.683-10.761,35.244-10.762a57.648,57.648,0,0,0,7.493-.144l.167-.025a3.1,3.1,0,0,1-.032-1.472q1.227-13.184,1.727-26.417c.34-.068.681-.141,1.014-.24A11.224,11.224,0,0,0,775.479,2468.49Z" transform="translate(-704.314 -2312.441)" fill="#7544a4"/>
      <path id="Trazado_997364" data-name="Trazado 997364" d="M2177.807,3626.5c1.862,2.8,4.061,5.562,5.69,8.5-.187,2.231-.648,4.456-1.022,6.662l-1.478,8.953c-.573,3.426-.888,7.065-1.636,10.444a1.522,1.522,0,0,1-.431.87c-.383-1.318-.324-7.6-.392-9.435l-.574-16.26C2177.859,3633.016,2177.606,3629.707,2177.807,3626.5Z" transform="translate(-2054.266 -3375.06)" fill="#fefefe"/>
      <path id="Trazado_997365" data-name="Trazado 997365" d="M997.728,3102.61c1.275-9.807,1.995-19.721,3.089-29.555l1.683-15.335c.325-2.951.8-5.977.9-8.94a21.432,21.432,0,0,0-.494-5.616,18.111,18.111,0,0,0-2.633-6.179c-.919-1.309-4.5-4.633-4.763-5.686l.285-.124c1.745.452,3.681,2.748,4.724,4.169,5.242,7.141,4.011,14.083,3.122,22.293-.412,3.808-.75,7.645-1.29,11.435-.828,5.881-1.205,11.861-1.839,17.771-.567,5.294-1.449,10.708-1.644,16.023,3.093.261,27.033,4.7,28.9,5.882-.11.259-.2.223-.446.324a7.852,7.852,0,0,0-1.309.148q-9.967-2.179-20-4.032a60.447,60.447,0,0,0-8.483-1.441,5.816,5.816,0,0,0-2.217.459,13.865,13.865,0,0,0-7.92,7.427c-.356.863-.356,2.011-.758,2.781-.121.231-.1.149-.4.214-.226-.085-.373-.071-.485-.311a2.754,2.754,0,0,1,.147-1.806c1.493-5.195,4.417-7.063,8.8-9.476a22.092,22.092,0,0,0-10.365.7,30.12,30.12,0,0,1-2.867,1.383c-.39-.126-.357-.134-.555-.508a1.03,1.03,0,0,1,.555-.832,12.046,12.046,0,0,1,2.845-1.189C988.961,3101.064,993.06,3101.7,997.728,3102.61Z" transform="translate(-953.691 -2828.774)" fill="#161848"/>
      <path id="Trazado_997366" data-name="Trazado 997366" d="M2179.361,3186.75c.631,3.126.249,7.742.2,11.027a14.845,14.845,0,0,0,.174,4.145c1.435,2.669,2.741,5.411,4.19,8.073,1.005,1.848,2.255,3.669,3.076,5.6-.819,5.191-1.4,10.781-2.643,15.873-1.629-2.934-3.827-5.7-5.69-8.5.421-2.161.141-4.894.15-7.125l.1-14.327C2179.223,3196.6,2179.044,3191.676,2179.361,3186.75Z" transform="translate(-2055.13 -2971.534)" fill="#1f2d8a"/>
      <path id="Trazado_997367" data-name="Trazado 997367" d="M1315.675,2895.571a2.986,2.986,0,0,1,1.317.083c.66.294,2,4.237,2.366,5.047a26.552,26.552,0,0,0,14.82,13.544,21.283,21.283,0,0,0,17.036-.848c5.036-2.489,8.265-7.164,10-12.512.348-1.075.193-2.3.607-3.359a1.4,1.4,0,0,1,.965-.917,1.244,1.244,0,0,1,1.048.317c.485.925.142,2.077-.016,3.064a24.664,24.664,0,0,1-3.473,8.776,22.338,22.338,0,0,1-14.286,9.247,25.154,25.154,0,0,1-18.906-4.4,32.88,32.88,0,0,1-10.585-13.016,12.781,12.781,0,0,1-1.354-3.531A1.656,1.656,0,0,1,1315.675,2895.571Z" transform="translate(-1261.083 -2704.312)" fill="#a792ed"/>
      <path id="Trazado_997368" data-name="Trazado 997368" d="M1503.068,3976.838a33.415,33.415,0,0,1,7.628.641l.074.164-.03.042a2.652,2.652,0,0,0-1.455,1.85c-1.936,6.33-1.765,15.254-.159,21.644.435,1.1,1.182,1.978,1.635,3.032l-8.519,0c-.937.054-1.882.02-2.82.013-1.592-3.231-2.033-7.088-2.144-10.662-.15-4.856.082-12.826,3.549-16.607a7.958,7.958,0,0,1,1.31-.149Z" transform="translate(-1428.506 -3696.507)" fill="#7544a4"/>
      <path id="Trazado_997369" data-name="Trazado 997369" d="M1502.143,3976.8l.931.035c-.557,1.33-1.328,2.587-1.8,3.95-2,5.817-2.283,15.457-.085,21.248a17.022,17.022,0,0,0,1.057,2.172c-.937.054-1.882.019-2.82.012-1.592-3.231-2.033-7.087-2.144-10.662-.15-4.856.082-12.825,3.549-16.607A7.9,7.9,0,0,1,1502.143,3976.8Z" transform="translate(-1428.511 -3696.504)" fill="#a792ed"/>
      <path id="Trazado_997370" data-name="Trazado 997370" d="M1207.738,3491.231c-.127,2.929,8.152,15.538,10.2,18.412a78.931,78.931,0,0,0,5.56,7.041,41.517,41.517,0,0,0,25.716,13.919c1.514.205,5.8.341,6.8.884-.921.588-1.874,1.427-2.821,1.918-1.154-.59-5.928-.306-7.511-.458a25.174,25.174,0,0,1-4.371-.837l.03-.042-.074-.164a33.363,33.363,0,0,0-7.629-.64l-.931-.035c.246-.1.336-.065.446-.323-1.867-1.186-25.808-5.621-28.9-5.882.2-5.315,1.077-10.729,1.644-16.022C1206.532,3503.092,1206.91,3497.112,1207.738,3491.231Z" transform="translate(-1159.078 -3250.934)" fill="#1f2d8a"/>
      <path id="Trazado_997371" data-name="Trazado 997371" d="M1419.69,2468.49c.778,1.715.262,7.256.355,9.5a24.067,24.067,0,0,0,16.435,7.981,24.629,24.629,0,0,0,6.466-.57l-.017,5.095c-.02.5-.169,1.476.14,1.872.009,1.558-.267,8.932.285,9.931.805,2.037.1,5.254-.737,7.194a14.3,14.3,0,0,1-7.833,7.363,18.38,18.38,0,0,1-23.108-10.738,37.141,37.141,0,0,0-.96-3.59l-.339-.126a3.1,3.1,0,0,1-.032-1.472q1.227-13.184,1.727-26.417c.34-.069.681-.141,1.014-.24A11.223,11.223,0,0,0,1419.69,2468.49Z" transform="translate(-1348.525 -2312.441)" fill="#f6a695"/>
      <path id="Trazado_997372" data-name="Trazado 997372" d="M1420.523,2468.49c.778,1.715.262,7.256.355,9.5a24.065,24.065,0,0,0,16.434,7.981,24.629,24.629,0,0,0,6.466-.57l-.017,5.095c-7.141.741-13.476-1.577-19.023-6.175-1.525-1.264-2.938-2.663-4.348-4.059-2.156,5.6-4.7,11.059-6.937,16.632a43.257,43.257,0,0,1-1.733,4.57,1.244,1.244,0,0,1-.255.146,1.117,1.117,0,0,1-.29-.682q1.227-13.185,1.727-26.417c.34-.069.681-.142,1.014-.24A11.223,11.223,0,0,0,1420.523,2468.49Z" transform="translate(-1349.358 -2312.441)" fill="#f87d7c"/>
      <path id="Trazado_997373" data-name="Trazado 997373" d="M1647.014,3933.652c5.634-2.76,12.077-5.6,18.346-3.328a14.842,14.842,0,0,1,7.788,6.9,19.4,19.4,0,0,0,1.575,2.866c.343,1.005-1.476,10.954-1.97,12.168l-.064,1.568-.445.112c-.022,1.649-.49,4.463.713,5.745a4.563,4.563,0,0,0,1.242.886l-20.975.043c-3.243.006-7.15.344-10.3-.1a4.682,4.682,0,0,1-2.2-.917,21.549,21.549,0,0,0-3.582.056,16.4,16.4,0,0,1-4.814,1.156c-.452-1.055-1.2-1.929-1.635-3.033-1.606-6.389-1.777-15.313.159-21.643a2.652,2.652,0,0,1,1.455-1.85,25.127,25.127,0,0,0,4.37.837c1.583.151,6.357-.132,7.511.458C1645.14,3935.078,1646.093,3934.24,1647.014,3933.652Z" transform="translate(-1550.077 -3653.099)" fill="#f6a695"/>
      <path id="Trazado_997374" data-name="Trazado 997374" d="M1644.98,4272.7c1.559.594,5.428,1.329,6.448,1.876a16.358,16.358,0,0,1-4.814,1.156C1646.163,4274.678,1645.415,4273.8,1644.98,4272.7Z" transform="translate(-1564.359 -3968.029)" fill="#5d1c90"/>
      <path id="Trazado_997375" data-name="Trazado 997375" d="M1648.409,3987.491a25.175,25.175,0,0,0,4.371.836c1.583.151,6.357-.132,7.511.458a2.95,2.95,0,0,1-1.065.627c-2.221.528-9.683.042-12.272-.071A2.652,2.652,0,0,1,1648.409,3987.491Z" transform="translate(-1566.174 -3706.314)" fill="#161848"/>
      <path id="Trazado_997376" data-name="Trazado 997376" d="M1963.389,4037.781c-1.389-5.748-3.918-12.139-9.111-15.3-.414-.252-1.337-.487-1.458-.978-.069-.278-.026-.274.069-.537.68-.171,1.4.336,1.979.691,5.757,3.559,7.871,9.848,9.668,16.146Z" transform="translate(-1847.411 -3737.003)" fill="#f47045"/>
      <path id="Trazado_997377" data-name="Trazado 997377" d="M2041.831,4007.378c-.777-5.888-2.931-12.71-7.3-16.82-.735-.692-2.669-1.675-3-2.523l.265-.177a3.546,3.546,0,0,1,1.874.809c5.574,3.973,7.735,10.594,8.83,17.141l-.063,1.568-.445.112Z" transform="translate(-1919.828 -3706.652)" fill="#f47045"/>
      <path id="Trazado_997378" data-name="Trazado 997378" d="M1897.96,4109.451a12.633,12.633,0,0,1,7.733,3.107,1.138,1.138,0,0,1,.5.957,2.3,2.3,0,0,1-1.348.375,17.616,17.616,0,0,0-6.881,1.385C1898,4113.337,1897.964,4111.39,1897.96,4109.451Z" transform="translate(-1796.994 -3818.228)" fill="#f47045"/>
      <path id="Trazado_997379" data-name="Trazado 997379" d="M1796.351,4224.811l.165.111c-.022,1.649-.49,4.463.713,5.746a4.57,4.57,0,0,0,1.242.885l-20.975.043c-3.243,0-7.15.344-10.3-.1a4.659,4.659,0,0,1-2.2-.916,20.8,20.8,0,0,1-.4-5.736l25.726.023,1.148.024Q1793.911,4224.825,1796.351,4224.811Z" transform="translate(-1674.347 -3924.084)" fill="#2b83a0"/>
    </g>
  </g>
</svg>
