<svg id="buena-calidad" xmlns="http://www.w3.org/2000/svg" width="109.996" height="110" viewBox="0 0 109.996 110">
  <path id="Trazado_151391" data-name="Trazado 151391" d="M75.167,100.833H5.5a3.678,3.678,0,0,1-3.667-3.667V5.5A3.678,3.678,0,0,1,5.5,1.833H61.582a1.8,1.8,0,0,1,1.283.532l11.77,11.77a1.8,1.8,0,0,1,.532,1.283Z" fill="#e4f1ff"/>
  <rect id="Rectángulo_36124" data-name="Rectángulo 36124" width="33" height="7.333" rx="3.667" transform="translate(22 14.667)" fill="#64bab7"/>
  <path id="Trazado_151392" data-name="Trazado 151392" d="M67.467,87.633l-5.812,13.33a2.365,2.365,0,0,0,2.182,3.282h4.9a1.58,1.58,0,0,1,1.118.458l2.768,2.77a2.394,2.394,0,0,0,3.868-.715L82.5,93.5l6.013,13.257a2.394,2.394,0,0,0,3.868.715l2.768-2.77a1.58,1.58,0,0,1,1.118-.458h4.895a2.365,2.365,0,0,0,2.182-3.282l-5.812-13.31Z" fill="#a54759"/>
  <path id="Trazado_151393" data-name="Trazado 151393" d="M107.362,70.8v.013a5.867,5.867,0,0,0-.75,3.777,5.876,5.876,0,0,1-2.279,5.5,5.867,5.867,0,0,0-2.145,3.207,5.876,5.876,0,0,1-4.2,4.2,5.867,5.867,0,0,0-3.2,2.145,5.867,5.867,0,0,1-5.5,2.279,5.88,5.88,0,0,0-3.779.75H85.49a5.885,5.885,0,0,1-5.94,0h-.013a5.867,5.867,0,0,0-3.777-.75,5.876,5.876,0,0,1-5.5-2.279A5.867,5.867,0,0,0,67.054,87.5a5.876,5.876,0,0,1-4.2-4.2,5.867,5.867,0,0,0-2.145-3.2,5.867,5.867,0,0,1-2.279-5.5,5.88,5.88,0,0,0-.75-3.779V70.8a5.885,5.885,0,0,1,0-5.94V64.85a5.867,5.867,0,0,0,.75-3.777,5.876,5.876,0,0,1,2.279-5.5,5.867,5.867,0,0,0,2.145-3.207,5.876,5.876,0,0,1,4.2-4.2,5.867,5.867,0,0,0,3.2-2.145,5.867,5.867,0,0,1,5.5-2.279,5.879,5.879,0,0,0,3.778-.75h.011a5.885,5.885,0,0,1,5.94,0H85.5a5.867,5.867,0,0,0,3.777.75,5.876,5.876,0,0,1,5.5,2.279,5.867,5.867,0,0,0,3.207,2.145,5.876,5.876,0,0,1,4.2,4.2,5.867,5.867,0,0,0,2.145,3.2,5.867,5.867,0,0,1,2.279,5.5,5.879,5.879,0,0,0,.75,3.778v.011a5.885,5.885,0,0,1,0,5.94Z" fill="#64bab7"/>
  <circle id="Elipse_4780" data-name="Elipse 4780" cx="16.5" cy="16.5" r="16.5" transform="translate(66 51.333)" fill="#90d3ce"/>
  <path id="Trazado_151394" data-name="Trazado 151394" d="M75,14.667H66A3.678,3.678,0,0,1,62.333,11V2a1.976,1.976,0,0,1,.532.367l11.77,11.77a1.976,1.976,0,0,1,.367.532Z" fill="#a3bdce"/>
  <g id="Grupo_100682" data-name="Grupo 100682">
    <path id="Trazado_151395" data-name="Trazado 151395" d="M51.333,23.833a5.5,5.5,0,1,0,0-11H25.667a5.5,5.5,0,0,0,0,11Zm-27.5-5.5A1.833,1.833,0,0,1,25.667,16.5H51.333a1.833,1.833,0,1,1,0,3.667H25.667A1.833,1.833,0,0,1,23.833,18.333Z" fill="#373737"/>
    <path id="Trazado_151396" data-name="Trazado 151396" d="M108.421,61.323a7.716,7.716,0,0,0-2.99-7.216,4.033,4.033,0,0,1-1.478-2.213,7.72,7.72,0,0,0-5.522-5.511,4.066,4.066,0,0,1-2.2-1.478,7.683,7.683,0,0,0-7.22-2.99,4.09,4.09,0,0,1-2.611-.522,7.731,7.731,0,0,0-7.8,0,4.033,4.033,0,0,1-1.6.515V15.418a3.625,3.625,0,0,0-1.074-2.585L64.167,1.069A3.625,3.625,0,0,0,61.582,0H5.5A5.5,5.5,0,0,0,0,5.5V97.167a5.5,5.5,0,0,0,5.5,5.5H55A1.833,1.833,0,1,0,55,99H5.5a1.833,1.833,0,0,1-1.833-1.833V5.5A1.833,1.833,0,0,1,5.5,3.667h55V11A5.5,5.5,0,0,0,66,16.5h7.333V42.022a7.713,7.713,0,0,0-4.559,2.88,4.033,4.033,0,0,1-2.213,1.478A7.72,7.72,0,0,0,61.05,51.9a4.066,4.066,0,0,1-1.478,2.2,7.722,7.722,0,0,0-2.99,7.22,4.061,4.061,0,0,1-.523,2.611,7.722,7.722,0,0,0,0,7.8,4.072,4.072,0,0,1,.515,2.605,7.717,7.717,0,0,0,2.99,7.216,4.033,4.033,0,0,1,1.478,2.213,7.7,7.7,0,0,0,3.967,4.912l-5.044,11.57a4.2,4.2,0,0,0,3.87,5.83h4.8l2.7,2.7A4.252,4.252,0,0,0,74.309,110a4.4,4.4,0,0,0,.787-.073,4.217,4.217,0,0,0,3.062-2.411L82.5,97.94l4.34,9.564a4.217,4.217,0,0,0,3.065,2.422,4.284,4.284,0,0,0,3.773-1.157l2.689-2.691h4.8a4.2,4.2,0,0,0,3.861-5.848l-5.04-11.55a7.7,7.7,0,0,0,3.965-4.915,4.066,4.066,0,0,1,1.478-2.2,7.722,7.722,0,0,0,2.99-7.22,4.149,4.149,0,0,1,.521-2.613,7.722,7.722,0,0,0,0-7.8,4.072,4.072,0,0,1-.517-2.609ZM64.167,11V6.257l6.58,6.576H66A1.833,1.833,0,0,1,64.167,11Zm10.646,95.011a.528.528,0,0,1-.4.312.559.559,0,0,1-.5-.145l-2.765-2.766a3.43,3.43,0,0,0-2.418-1h-4.9a.53.53,0,0,1-.447-.242.493.493,0,0,1-.053-.473L68.321,90.26a3.948,3.948,0,0,1,.453.5,7.68,7.68,0,0,0,7.22,2.99,4.068,4.068,0,0,1,2.611.523,7.8,7.8,0,0,0,1.269.577Zm26.8-3.841a.53.53,0,0,1-.447.242H96.268a3.428,3.428,0,0,0-2.415,1l-2.75,2.75a.565.565,0,0,1-.51.156.53.53,0,0,1-.4-.323L85.136,94.844a7.77,7.77,0,0,0,1.283-.583,4.1,4.1,0,0,1,2.605-.515,7.7,7.7,0,0,0,7.216-2.99,4.014,4.014,0,0,1,.449-.5l4.981,11.416A.5.5,0,0,1,101.611,102.17Zm4.173-32.3v.017a7.759,7.759,0,0,0-.981,4.95,4.054,4.054,0,0,1-1.569,3.786,7.753,7.753,0,0,0-2.816,4.217,4.057,4.057,0,0,1-2.9,2.895A7.713,7.713,0,0,0,93.3,88.552a4.1,4.1,0,0,1-3.786,1.567,7.775,7.775,0,0,0-4.974.988,4.033,4.033,0,0,1-4.1,0,7.748,7.748,0,0,0-3.9-1.054,7.836,7.836,0,0,0-1.054.073A4.081,4.081,0,0,1,71.7,88.557a7.753,7.753,0,0,0-4.217-2.816,4.057,4.057,0,0,1-2.895-2.9,7.713,7.713,0,0,0-2.814-4.217,4.048,4.048,0,0,1-1.567-3.786,7.773,7.773,0,0,0-.988-4.974,4.033,4.033,0,0,1,0-4.1,7.759,7.759,0,0,0,.981-4.95,4.053,4.053,0,0,1,1.569-3.786,7.753,7.753,0,0,0,2.816-4.217,4.057,4.057,0,0,1,2.9-2.895A7.713,7.713,0,0,0,71.7,47.109a4.094,4.094,0,0,1,3.786-1.568,7.79,7.79,0,0,0,4.974-.988,4.033,4.033,0,0,1,4.1,0,7.746,7.746,0,0,0,4.95.981A4.072,4.072,0,0,1,93.293,47.1a7.753,7.753,0,0,0,4.217,2.816,4.057,4.057,0,0,1,2.895,2.9,7.713,7.713,0,0,0,2.814,4.217,4.048,4.048,0,0,1,1.567,3.786,7.773,7.773,0,0,0,.988,4.974,4.033,4.033,0,0,1,.009,4.081Z" fill="#373737"/>
    <path id="Trazado_151397" data-name="Trazado 151397" d="M82.5,49.5a18.333,18.333,0,1,0,18.333,18.333A18.333,18.333,0,0,0,82.5,49.5Zm0,33A14.667,14.667,0,1,1,97.167,67.833,14.667,14.667,0,0,1,82.5,82.5Z" fill="#373737"/>
    <path id="Trazado_151398" data-name="Trazado 151398" d="M11,33a1.833,1.833,0,0,0,1.833,1.833H64.167a1.833,1.833,0,1,0,0-3.667H12.833A1.833,1.833,0,0,0,11,33Z" fill="#373737"/>
    <path id="Trazado_151399" data-name="Trazado 151399" d="M62.333,42.167A1.833,1.833,0,0,0,60.5,40.333H12.833a1.833,1.833,0,0,0,0,3.667H60.5A1.833,1.833,0,0,0,62.333,42.167Z" fill="#373737"/>
    <path id="Trazado_151400" data-name="Trazado 151400" d="M55,51.333A1.833,1.833,0,0,0,53.167,49.5H40.333a1.833,1.833,0,0,0,0,3.667H53.167A1.833,1.833,0,0,0,55,51.333Z" fill="#373737"/>
    <path id="Trazado_151401" data-name="Trazado 151401" d="M33,49.5H12.833a1.833,1.833,0,0,0,0,3.667H33A1.833,1.833,0,0,0,33,49.5Z" fill="#373737"/>
    <path id="Trazado_151402" data-name="Trazado 151402" d="M23.833,60.5a1.833,1.833,0,0,0,1.833,1.833H49.5a1.833,1.833,0,0,0,0-3.667H25.667A1.833,1.833,0,0,0,23.833,60.5Z" fill="#373737"/>
    <path id="Trazado_151403" data-name="Trazado 151403" d="M12.833,62.333h5.5a1.833,1.833,0,1,0,0-3.667h-5.5a1.833,1.833,0,1,0,0,3.667Z" fill="#373737"/>
    <path id="Trazado_151404" data-name="Trazado 151404" d="M12.833,71.5H49.5a1.833,1.833,0,0,0,0-3.667H12.833a1.833,1.833,0,0,0,0,3.667Z" fill="#373737"/>
    <path id="Trazado_151405" data-name="Trazado 151405" d="M53.167,78.833A1.833,1.833,0,0,0,51.333,77h-38.5a1.833,1.833,0,1,0,0,3.667h38.5A1.833,1.833,0,0,0,53.167,78.833Z" fill="#373737"/>
    <path id="Trazado_151406" data-name="Trazado 151406" d="M12.833,86.167a1.833,1.833,0,1,0,0,3.667H33a1.833,1.833,0,1,0,0-3.667Z" fill="#373737"/>
    <path id="Trazado_151407" data-name="Trazado 151407" d="M86.7,62.87l-7.87,7.87L78.3,70.2A1.833,1.833,0,1,0,75.7,72.8l1.834,1.833a1.833,1.833,0,0,0,2.592,0L89.3,65.463A1.833,1.833,0,1,0,86.7,62.87Z" fill="#373737"/>
  </g>
</svg>
