<svg xmlns="http://www.w3.org/2000/svg" xmlns:xlink="http://www.w3.org/1999/xlink" width="509" height="186" viewBox="0 0 509 186">
  <defs>
    <clipPath id="clip-path">
      <rect id="Rectángulo_456360" data-name="Rectángulo 456360" width="509" height="186" transform="translate(300.348 3755)" fill="#fff" stroke="#707070" stroke-width="1"/>
    </clipPath>
  </defs>
  <g id="Enmascarar_grupo_1119326" data-name="Enmascarar grupo 1119326" transform="translate(-300.348 -3755)" clip-path="url(#clip-path)">
    <g id="Grupo_99204" data-name="Grupo 99204" transform="translate(234.037 3695.783)">
      <g id="Background_Complete" data-name="Background Complete" transform="translate(154.978 70.672)">
        <g id="Grupo_99057" data-name="Grupo 99057" transform="translate(349.81 139.679)">
          <path id="Trazado_150704" data-name="Trazado 150704" d="M598.161,275.646l4.9,8.521,4.9,8.521,4.932-8.5,4.931-8.5-6.793-.014.065-32.85-6.069-.012-.065,32.85Z" transform="translate(-598.161 -242.809)" fill="#ffa648"/>
        </g>
        <g id="Grupo_99058" data-name="Grupo 99058" transform="translate(367.252 130.38)">
          <path id="Trazado_150705" data-name="Trazado 150705" d="M619.656,250.932l2.92,5.081,2.92,5.081,2.941-5.07,2.94-5.07-4.051-.008.039-19.59-3.619-.007-.039,19.59Z" transform="translate(-619.656 -231.35)" fill="#ffa648"/>
        </g>
        <g id="Grupo_99059" data-name="Grupo 99059" transform="translate(11.576)">
          <path id="Trazado_150706" data-name="Trazado 150706" d="M200.986,87.713l-4.9-8.521-4.9-8.521-4.932,8.5-4.931,8.5,6.793.013-.065,32.85,6.069.012.065-32.85Z" transform="translate(-181.33 -70.672)" fill="#ffa648"/>
        </g>
        <g id="Grupo_99060" data-name="Grupo 99060" transform="translate(0 28.345)">
          <path id="Trazado_150707" data-name="Trazado 150707" d="M178.946,115.906l-2.96-5.151-2.96-5.151-2.982,5.139-2.981,5.139,4.107.008-.04,19.86,3.669.007.039-19.86Z" transform="translate(-167.063 -105.604)" fill="#ffa648"/>
        </g>
      </g>
      <g id="Windows" transform="translate(102.97 84.088)">
        <g id="Grupo_99092" data-name="Grupo 99092" transform="translate(95.883)">
          <g id="Grupo_99063" data-name="Grupo 99063" transform="translate(0.086 15.622)">
            <rect id="Rectángulo_36022" data-name="Rectángulo 36022" width="249.409" height="194.072" transform="translate(0.211 0.211)" fill="#fff"/>
            <g id="Grupo_99062" data-name="Grupo 99062">
              <g id="Grupo_99061" data-name="Grupo 99061">
                <path id="Trazado_150708" data-name="Trazado 150708" d="M470.86,300.741c0-1.452-.069-76.921-.174-194.072l.174.174-249.388.037h-.021l.211-.211c-.008,69.953-.015,136.119-.022,194.072l-.189-.19,249.409.19-249.409.19h-.19v-.19c-.007-57.953-.014-124.119-.022-194.072v-.211h.233l249.388.037h.174v.174C470.929,223.82,470.861,299.29,470.86,300.741Z" transform="translate(-221.239 -106.458)" fill="#263238"/>
              </g>
            </g>
          </g>
          <g id="Grupo_99091" data-name="Grupo 99091">
            <g id="Grupo_99065" data-name="Grupo 99065" transform="translate(68.665 99.375)">
              <g id="Grupo_99064" data-name="Grupo 99064">
                <path id="Trazado_150709" data-name="Trazado 150709" d="M305.967,303.9c-.117,0-.212-21.1-.212-47.114s.095-47.118.212-47.118.211,21.092.211,47.118S306.083,303.9,305.967,303.9Z" transform="translate(-305.755 -209.673)" fill="#263238"/>
              </g>
            </g>
            <g id="Grupo_99067" data-name="Grupo 99067" transform="translate(176.904 99.375)">
              <g id="Grupo_99066" data-name="Grupo 99066">
                <path id="Trazado_150710" data-name="Trazado 150710" d="M439.357,303.9c-.117,0-.211-21.1-.211-47.114s.094-47.118.211-47.118.212,21.092.212,47.118S439.474,303.9,439.357,303.9Z" transform="translate(-439.146 -209.673)" fill="#263238"/>
              </g>
            </g>
            <g id="Grupo_99069" data-name="Grupo 99069" transform="translate(105.617 73.14)">
              <g id="Grupo_99068" data-name="Grupo 99068">
                <path id="Trazado_150711" data-name="Trazado 150711" d="M351.505,297.808c-.116,0-.211-26.97-.211-60.231s.095-60.236.211-60.236.212,26.963.212,60.236S351.622,297.808,351.505,297.808Z" transform="translate(-351.294 -177.342)" fill="#263238"/>
              </g>
            </g>
            <g id="Grupo_99071" data-name="Grupo 99071" transform="translate(30.714 73.14)">
              <g id="Grupo_99070" data-name="Grupo 99070">
                <path id="Trazado_150712" data-name="Trazado 150712" d="M259.2,297.808c-.117,0-.212-26.97-.212-60.231s.095-60.236.212-60.236.211,26.963.211,60.236S259.313,297.808,259.2,297.808Z" transform="translate(-258.985 -177.342)" fill="#263238"/>
              </g>
            </g>
            <g id="Grupo_99073" data-name="Grupo 99073" transform="translate(219.388 73.14)">
              <g id="Grupo_99072" data-name="Grupo 99072">
                <path id="Trazado_150713" data-name="Trazado 150713" d="M491.714,297.808c-.117,0-.212-26.97-.212-60.231s.095-60.236.212-60.236.211,26.963.211,60.236S491.83,297.808,491.714,297.808Z" transform="translate(-491.502 -177.342)" fill="#263238"/>
              </g>
            </g>
            <g id="Grupo_99075" data-name="Grupo 99075" transform="translate(138.021 54.511)">
              <g id="Grupo_99074" data-name="Grupo 99074">
                <path id="Trazado_150714" data-name="Trazado 150714" d="M391.438,293.479c-.117,0-.211-31.14-.211-69.544s.094-69.551.211-69.551.211,31.133.211,69.551S391.555,293.479,391.438,293.479Z" transform="translate(-391.227 -154.384)" fill="#263238"/>
              </g>
            </g>
            <g id="Grupo_99076" data-name="Grupo 99076" transform="translate(67.993 98.491)">
              <path id="Trazado_150715" data-name="Trazado 150715" d="M306.694,209.468a.884.884,0,1,1-.884-.884A.884.884,0,0,1,306.694,209.468Z" transform="translate(-304.926 -208.584)" fill="#263238"/>
            </g>
            <g id="Grupo_99077" data-name="Grupo 99077" transform="translate(104.945 72.256)">
              <circle id="Elipse_4759" data-name="Elipse 4759" cx="0.884" cy="0.884" r="0.884" fill="#263238"/>
            </g>
            <g id="Grupo_99078" data-name="Grupo 99078" transform="translate(102.728 70.039)">
              <path id="Trazado_150716" data-name="Trazado 150716" d="M350.833,179.721a3.1,3.1,0,1,1,3.1-3.1A3.1,3.1,0,0,1,350.833,179.721Zm0-6a2.9,2.9,0,1,0,2.9,2.9A2.9,2.9,0,0,0,350.833,173.724Z" transform="translate(-347.733 -173.521)" fill="#263238"/>
            </g>
            <g id="Grupo_99079" data-name="Grupo 99079" transform="translate(137.348 53.627)">
              <circle id="Elipse_4760" data-name="Elipse 4760" cx="0.884" cy="0.884" r="0.884" fill="#263238"/>
            </g>
            <g id="Grupo_99080" data-name="Grupo 99080" transform="translate(176.231 99.375)">
              <circle id="Elipse_4761" data-name="Elipse 4761" cx="0.884" cy="0.884" r="0.884" fill="#263238"/>
            </g>
            <g id="Grupo_99081" data-name="Grupo 99081" transform="translate(218.736 72.256)">
              <circle id="Elipse_4762" data-name="Elipse 4762" cx="0.884" cy="0.884" r="0.884" fill="#263238"/>
            </g>
            <g id="Grupo_99082" data-name="Grupo 99082" transform="translate(30.042 73.14)">
              <path id="Trazado_150717" data-name="Trazado 150717" d="M259.924,178.226a.884.884,0,1,1-.884-.884A.884.884,0,0,1,259.924,178.226Z" transform="translate(-258.156 -177.342)" fill="#263238"/>
            </g>
            <g id="Grupo_99084" data-name="Grupo 99084" transform="translate(14.416 93.178)" style="isolation: isolate">
              <g id="Grupo_99083" data-name="Grupo 99083">
                <path id="Trazado_150718" data-name="Trazado 150718" d="M452.452,224.633a3.122,3.122,0,0,1-.7.226,15.027,15.027,0,0,0-2.007.687,19.321,19.321,0,0,0-6.44,4.889c-2.412,2.61-4.826,6.248-7.857,10.335a50.085,50.085,0,0,1-5.338,6.2,29.549,29.549,0,0,1-3.466,2.866,24.115,24.115,0,0,1-4.174,2.283,23.542,23.542,0,0,1-10,1.683,26.882,26.882,0,0,1-5.38-.674,14.042,14.042,0,0,1-5.206-2.292,16.867,16.867,0,0,1-4.064-4.24c-1.123-1.625-2.13-3.343-3.1-5.093-1.942-3.514-3.958-7.051-6.253-10.6-2.252-3.6-4.34-7.39-6.671-11.12a53.258,53.258,0,0,0-8.167-10.537,23.731,23.731,0,0,0-5.485-3.929,18.218,18.218,0,0,0-6.517-1.908,22.932,22.932,0,0,0-13.516,2.89,34.253,34.253,0,0,0-10.289,9.594,106.419,106.419,0,0,0-7.353,11.825,120.491,120.491,0,0,1-7.124,11.569,56.868,56.868,0,0,1-8.625,9.832c-.82.692-1.625,1.389-2.5,1.991a28.642,28.642,0,0,1-2.65,1.732,23.043,23.043,0,0,1-5.747,2.365,19.04,19.04,0,0,1-3,.559,10.321,10.321,0,0,1-1.508.088c-.5,0-1,.038-1.5.019a22.821,22.821,0,0,1-5.755-1.066,38.984,38.984,0,0,1-9.728-5.083c-2.888-1.988-5.53-4.048-8.112-5.907a43.354,43.354,0,0,0-7.7-4.667,25.469,25.469,0,0,0-7.669-2.179,18.885,18.885,0,0,0-6.892.445,11.327,11.327,0,0,0-1.49.48,9.433,9.433,0,0,0-1.392.549,17.862,17.862,0,0,0-2.435,1.35,25.882,25.882,0,0,0-3.663,2.931l-1.274,1.4a11.591,11.591,0,0,0-1.022,1.188l-1.29,1.7a3.2,3.2,0,0,1-.477.557,3.083,3.083,0,0,1,.37-.63l1.194-1.783a11.088,11.088,0,0,1,.984-1.238l1.246-1.454a25.294,25.294,0,0,1,3.66-3.079,18.215,18.215,0,0,1,2.474-1.436,9.86,9.86,0,0,1,1.426-.592,11.886,11.886,0,0,1,1.532-.522,19.39,19.39,0,0,1,7.123-.567,26.048,26.048,0,0,1,7.922,2.147,43.767,43.767,0,0,1,7.9,4.675c2.617,1.849,5.271,3.884,8.141,5.828a38.209,38.209,0,0,0,9.5,4.891,21.838,21.838,0,0,0,5.479.984c.471.015.945-.02,1.42-.027a9.548,9.548,0,0,0,1.427-.09,17.968,17.968,0,0,0,2.839-.544,25.827,25.827,0,0,0,10.412-5.887,55.945,55.945,0,0,0,8.406-9.654,120.116,120.116,0,0,0,7.03-11.475,106.8,106.8,0,0,1,7.426-11.973,35.417,35.417,0,0,1,10.676-9.944,24.147,24.147,0,0,1,14.268-3.041,19.454,19.454,0,0,1,6.956,2.045,24.952,24.952,0,0,1,5.771,4.144,54.2,54.2,0,0,1,8.343,10.8c2.343,3.773,4.419,7.574,6.634,11.142,2.278,3.551,4.326,7.178,6.235,10.675,1.945,3.451,3.841,6.922,6.809,9.022a13.021,13.021,0,0,0,4.836,2.159,26,26,0,0,0,5.175.683,22.69,22.69,0,0,0,9.623-1.534,23.267,23.267,0,0,0,4.033-2.157,28.879,28.879,0,0,0,3.393-2.747,50.086,50.086,0,0,0,5.33-6.04c3.065-4.017,5.558-7.646,8.061-10.243a18.789,18.789,0,0,1,6.7-4.788,11.839,11.839,0,0,1,2.074-.578A3.155,3.155,0,0,1,452.452,224.633Z" transform="translate(-238.9 -202.037)" fill="#e9dcbf"/>
              </g>
            </g>
            <g id="Grupo_99085" data-name="Grupo 99085" transform="translate(30.042 37.618)">
              <rect id="Rectángulo_36023" data-name="Rectángulo 36023" width="43.487" height="2.42" fill="#263238"/>
            </g>
            <g id="Grupo_99086" data-name="Grupo 99086" transform="translate(30.042 43.28)">
              <rect id="Rectángulo_36024" data-name="Rectángulo 36024" width="21.49" height="2.42" fill="#263238"/>
            </g>
            <g id="Grupo_99087" data-name="Grupo 99087">
              <path id="Rectángulo_36025" data-name="Rectángulo 36025" d="M4.506,0H245.2a4.506,4.506,0,0,1,4.506,4.506V15.833a0,0,0,0,1,0,0H0a0,0,0,0,1,0,0V4.506A4.506,4.506,0,0,1,4.506,0Z" fill="#373660"/>
            </g>
            <g id="Grupo_99088" data-name="Grupo 99088" transform="translate(9.536 6.519)">
              <path id="Trazado_150719" data-name="Trazado 150719" d="M236.291,96.942a1.7,1.7,0,1,1-1.7-1.7A1.7,1.7,0,0,1,236.291,96.942Z" transform="translate(-232.885 -95.24)" fill="#fff"/>
            </g>
            <g id="Grupo_99089" data-name="Grupo 99089" transform="translate(16.971 6.519)">
              <path id="Trazado_150720" data-name="Trazado 150720" d="M245.454,96.942a1.7,1.7,0,1,1-1.7-1.7A1.7,1.7,0,0,1,245.454,96.942Z" transform="translate(-242.048 -95.24)" fill="#fff"/>
            </g>
            <g id="Grupo_99090" data-name="Grupo 99090" transform="translate(24.407 6.519)">
              <path id="Trazado_150721" data-name="Trazado 150721" d="M254.618,96.942a1.7,1.7,0,1,1-1.7-1.7A1.7,1.7,0,0,1,254.618,96.942Z" transform="translate(-251.212 -95.24)" fill="#fff"/>
            </g>
          </g>
        </g>
        <g id="Grupo_99101" data-name="Grupo 99101" transform="translate(0 130.035)">
          <g id="Grupo_99093" data-name="Grupo 99093">
            <rect id="Rectángulo_36026" data-name="Rectángulo 36026" width="102.412" height="28.714" rx="3.23" fill="#b3b2d4"/>
          </g>
          <g id="Grupo_99094" data-name="Grupo 99094" transform="translate(10.478 9.001)">
            <path id="Trazado_150722" data-name="Trazado 150722" d="M126.992,268.695a6.24,6.24,0,1,1-.965-8.772A6.24,6.24,0,0,1,126.992,268.695Z" transform="translate(-115.883 -258.551)" fill="#fff"/>
          </g>
          <g id="Grupo_99096" data-name="Grupo 99096" transform="translate(13.208 13.12)">
            <g id="Grupo_99095" data-name="Grupo 99095">
              <path id="Trazado_150723" data-name="Trazado 150723" d="M126.265,263.63a28.829,28.829,0,0,1-3.376,3.588l-.824.8-.148.143-.141-.144a20,20,0,0,1-2.525-2.816,19.989,19.989,0,0,1,2.816,2.525l-.289,0,.816-.8A28.907,28.907,0,0,1,126.265,263.63Z" transform="translate(-119.247 -263.627)" fill="#263238"/>
            </g>
          </g>
          <g id="Grupo_99098" data-name="Grupo 99098" transform="translate(34.266 12.042)">
            <g id="Grupo_99097" data-name="Grupo 99097">
              <path id="Trazado_150724" data-name="Trazado 150724" d="M203.349,262.509c0,.117-13.019.212-29.074.212s-29.076-.095-29.076-.212,13.015-.211,29.076-.211S203.349,262.392,203.349,262.509Z" transform="translate(-145.199 -262.298)" fill="#263238"/>
            </g>
          </g>
          <g id="Grupo_99100" data-name="Grupo 99100" transform="translate(34.948 17.72)">
            <g id="Grupo_99099" data-name="Grupo 99099">
              <path id="Trazado_150725" data-name="Trazado 150725" d="M179.657,269.507c0,.117-7.526.212-16.808.212s-16.81-.095-16.81-.212,7.524-.211,16.81-.211S179.657,269.391,179.657,269.507Z" transform="translate(-146.039 -269.296)" fill="#263238"/>
            </g>
          </g>
        </g>
        <g id="Grupo_99111" data-name="Grupo 99111" transform="translate(30.23 60.851)">
          <g id="Grupo_99102" data-name="Grupo 99102">
            <rect id="Rectángulo_36027" data-name="Rectángulo 36027" width="100.964" height="41.929" rx="2.616" fill="#b3b2d4"/>
          </g>
          <g id="Grupo_99106" data-name="Grupo 99106" transform="translate(11.563 8.546)">
            <g id="Grupo_99103" data-name="Grupo 99103">
              <path id="Trazado_150726" data-name="Trazado 150726" d="M163.887,177.435a4.707,4.707,0,1,1-4.707-4.706A4.707,4.707,0,0,1,163.887,177.435Z" transform="translate(-154.474 -172.729)" fill="#e8505b"/>
            </g>
            <g id="Grupo_99104" data-name="Grupo 99104" transform="translate(14.12 1.455)">
              <rect id="Rectángulo_36028" data-name="Rectángulo 36028" width="32.796" height="1.821" fill="#e8505b"/>
            </g>
            <g id="Grupo_99105" data-name="Grupo 99105" transform="translate(14.12 5.593)">
              <rect id="Rectángulo_36029" data-name="Rectángulo 36029" width="63.798" height="1.821" fill="#fff"/>
            </g>
          </g>
          <g id="Grupo_99110" data-name="Grupo 99110" transform="translate(11.563 23.016)">
            <g id="Grupo_99107" data-name="Grupo 99107">
              <path id="Trazado_150727" data-name="Trazado 150727" d="M163.887,195.268a4.707,4.707,0,1,1-4.707-4.706A4.707,4.707,0,0,1,163.887,195.268Z" transform="translate(-154.474 -190.562)" fill="#e8505b"/>
            </g>
            <g id="Grupo_99108" data-name="Grupo 99108" transform="translate(14.12 1.455)">
              <rect id="Rectángulo_36030" data-name="Rectángulo 36030" width="16.747" height="1.821" fill="#e8505b"/>
            </g>
            <g id="Grupo_99109" data-name="Grupo 99109" transform="translate(14.12 5.593)">
              <rect id="Rectángulo_36031" data-name="Rectángulo 36031" width="63.798" height="1.821" fill="#fff"/>
            </g>
          </g>
        </g>
        <g id="Grupo_99125" data-name="Grupo 99125" transform="translate(48.023 171.119)">
          <g id="Grupo_99112" data-name="Grupo 99112">
            <rect id="Rectángulo_36032" data-name="Rectángulo 36032" width="130.265" height="55.37" rx="3.958" fill="#b3b2d4"/>
          </g>
          <g id="Grupo_99121" data-name="Grupo 99121" transform="translate(9.941 15.527)">
            <g id="Grupo_99117" data-name="Grupo 99117">
              <g id="Grupo_99113" data-name="Grupo 99113">
                <path id="Trazado_150728" data-name="Trazado 150728" d="M188.293,328.455l-.073-11.231a14.329,14.329,0,0,0-9.266,3.613,13.28,13.28,0,0,0-4.465,11.631,15.729,15.729,0,0,0,.262,1.632c0,.014,0,.027.007.04h0l13.532-3.045Z" transform="translate(-174.402 -317.224)" fill="#e9dcbf"/>
              </g>
              <g id="Grupo_99116" data-name="Grupo 99116" transform="translate(15.326 0.043)">
                <g id="Grupo_99114" data-name="Grupo 99114">
                  <path id="Trazado_150729" data-name="Trazado 150729" d="M205.8,325.007a13.325,13.325,0,0,0-10.923-7.646c-.142-.014-.285-.027-.428-.037-.091-.007-.181-.015-.273-.021-.268-.015-.54-.022-.815-.024h-.073v0h0l.073,11.231.017,2.64,13.537,2.953.016,0h0a13.318,13.318,0,0,0,.3-2.912A14.563,14.563,0,0,0,205.8,325.007Z" transform="translate(-193.29 -317.277)" fill="#ff9e95"/>
                </g>
                <g id="Grupo_99115" data-name="Grupo 99115" opacity="0.2">
                  <path id="Trazado_150730" data-name="Trazado 150730" d="M205.8,325.007a13.325,13.325,0,0,0-10.923-7.646c-.142-.014-.285-.027-.428-.037-.091-.007-.181-.015-.273-.021-.268-.015-.54-.022-.815-.024h-.073v0h0l.073,11.231.017,2.64,13.537,2.953.016,0h0a13.318,13.318,0,0,0,.3-2.912A14.563,14.563,0,0,0,205.8,325.007Z" transform="translate(-193.29 -317.277)" fill="#ff9e95"/>
                </g>
              </g>
            </g>
            <g id="Grupo_99120" data-name="Grupo 99120" transform="translate(1.083 15.272)">
              <g id="Grupo_99118" data-name="Grupo 99118">
                <path id="Trazado_150731" data-name="Trazado 150731" d="M189.27,336.045l-13.533,3.044A13.871,13.871,0,0,0,202.824,339l-13.536-2.954" transform="translate(-175.737 -336.045)" fill="#ffceca"/>
              </g>
              <g id="Grupo_99119" data-name="Grupo 99119" opacity="0.1">
                <path id="Trazado_150732" data-name="Trazado 150732" d="M189.27,336.045l-13.533,3.044A13.871,13.871,0,0,0,202.824,339l-13.536-2.954" transform="translate(-175.737 -336.045)" fill="#ffceca"/>
              </g>
            </g>
          </g>
          <g id="Grupo_99122" data-name="Grupo 99122" transform="translate(48.278 18.885)">
            <rect id="Rectángulo_36033" data-name="Rectángulo 36033" width="68.757" height="3.115" fill="#fff"/>
          </g>
          <g id="Grupo_99123" data-name="Grupo 99123" transform="translate(48.278 27.097)">
            <rect id="Rectángulo_36034" data-name="Rectángulo 36034" width="68.757" height="3.115" fill="#fff"/>
          </g>
          <g id="Grupo_99124" data-name="Grupo 99124" transform="translate(48.278 36.177)">
            <rect id="Rectángulo_36035" data-name="Rectángulo 36035" width="37.161" height="3.115" fill="#fff"/>
          </g>
        </g>
        <g id="Grupo_99159" data-name="Grupo 99159" transform="translate(199.868 131.857)">
          <g id="Grupo_99126" data-name="Grupo 99126">
            <rect id="Rectángulo_36036" data-name="Rectángulo 36036" width="135.829" height="130.778" rx="8.41" fill="#b3b2d4"/>
          </g>
          <g id="Grupo_99155" data-name="Grupo 99155" transform="translate(9.493 13.815)">
            <g id="Grupo_99149" data-name="Grupo 99149">
              <g id="Grupo_99127" data-name="Grupo 99127" transform="translate(0 75.776)">
                <rect id="Rectángulo_36037" data-name="Rectángulo 36037" width="4.458" height="1.285" fill="#263238"/>
              </g>
              <g id="Grupo_99128" data-name="Grupo 99128" transform="translate(10.085 82.643)">
                <rect id="Rectángulo_36038" data-name="Rectángulo 36038" width="5.701" height="1.285" fill="#263238"/>
              </g>
              <g id="Grupo_99129" data-name="Grupo 99129" transform="translate(29.931 82.643)">
                <rect id="Rectángulo_36039" data-name="Rectángulo 36039" width="5.701" height="1.285" fill="#263238"/>
              </g>
              <g id="Grupo_99130" data-name="Grupo 99130" transform="translate(49.776 82.643)">
                <rect id="Rectángulo_36040" data-name="Rectángulo 36040" width="5.701" height="1.285" fill="#263238"/>
              </g>
              <g id="Grupo_99131" data-name="Grupo 99131" transform="translate(69.622 82.643)">
                <rect id="Rectángulo_36041" data-name="Rectángulo 36041" width="5.701" height="1.285" fill="#263238"/>
              </g>
              <g id="Grupo_99132" data-name="Grupo 99132" transform="translate(89.468 82.643)">
                <rect id="Rectángulo_36042" data-name="Rectángulo 36042" width="5.701" height="1.285" fill="#263238"/>
              </g>
              <g id="Grupo_99133" data-name="Grupo 99133" transform="translate(109.313 82.643)">
                <rect id="Rectángulo_36043" data-name="Rectángulo 36043" width="5.701" height="1.285" fill="#263238"/>
              </g>
              <g id="Grupo_99134" data-name="Grupo 99134" transform="translate(0 58.618)">
                <rect id="Rectángulo_36044" data-name="Rectángulo 36044" width="4.458" height="1.285" fill="#263238"/>
              </g>
              <g id="Grupo_99135" data-name="Grupo 99135" transform="translate(0 26.327)">
                <rect id="Rectángulo_36045" data-name="Rectángulo 36045" width="4.458" height="1.285" fill="#263238"/>
              </g>
              <g id="Grupo_99136" data-name="Grupo 99136" transform="translate(0 10.1)">
                <rect id="Rectángulo_36046" data-name="Rectángulo 36046" width="4.458" height="1.285" fill="#263238"/>
              </g>
              <g id="Grupo_99137" data-name="Grupo 99137" transform="translate(0.226 42.473)">
                <rect id="Rectángulo_36047" data-name="Rectángulo 36047" width="4.458" height="1.285" fill="#263238"/>
              </g>
              <g id="Grupo_99139" data-name="Grupo 99139" transform="translate(6.575)">
                <g id="Grupo_99138" data-name="Grupo 99138">
                  <path id="Trazado_150733" data-name="Trazado 150733" d="M477.364,343.789s-.162.015-.478.022l-1.4.021-5.394.039-19.837.067L384.8,344l-15.51,0h-.208v-.209c.028-21.885.054-41.144.071-54.95.027-6.884.048-12.408.062-16.227.015-1.889.028-3.356.037-4.368.008-.486.014-.861.019-1.131.006-.254.019-.384.019-.384s.013.13.019.384c0,.27.011.645.019,1.131.008,1.012.02,2.479.036,4.368.015,3.819.037,9.343.063,16.227.018,13.806.043,33.065.071,54.95l-.209-.209,15.51,0,65.449.062,19.837.067,5.394.04,1.4.02C477.2,343.774,477.364,343.789,477.364,343.789Z" transform="translate(-369.084 -266.729)" fill="#263238"/>
                </g>
              </g>
              <g id="Grupo_99141" data-name="Grupo 99141" transform="translate(11.095 42.904)">
                <g id="Grupo_99140" data-name="Grupo 99140">
                  <path id="Trazado_150734" data-name="Trazado 150734" d="M479.67,319.814c0,.117-23.51.212-52.505.212s-52.51-.095-52.51-.212,23.5-.211,52.51-.211S479.67,319.7,479.67,319.814Z" transform="translate(-374.655 -319.603)" fill="#263238"/>
                </g>
              </g>
              <g id="Grupo_99143" data-name="Grupo 99143" transform="translate(11.095 26.758)">
                <g id="Grupo_99142" data-name="Grupo 99142">
                  <path id="Trazado_150735" data-name="Trazado 150735" d="M479.67,299.917c0,.117-23.51.211-52.505.211s-52.51-.094-52.51-.211,23.5-.212,52.51-.212S479.67,299.8,479.67,299.917Z" transform="translate(-374.655 -299.705)" fill="#263238"/>
                </g>
              </g>
              <g id="Grupo_99145" data-name="Grupo 99145" transform="translate(11.095 10.531)">
                <g id="Grupo_99144" data-name="Grupo 99144">
                  <path id="Trazado_150736" data-name="Trazado 150736" d="M479.67,279.918c0,.117-23.51.212-52.505.212s-52.51-.095-52.51-.212,23.5-.211,52.51-.211S479.67,279.8,479.67,279.918Z" transform="translate(-374.655 -279.707)" fill="#263238"/>
                </g>
              </g>
              <g id="Grupo_99147" data-name="Grupo 99147" transform="translate(11.095 59.049)">
                <g id="Grupo_99146" data-name="Grupo 99146">
                  <path id="Trazado_150737" data-name="Trazado 150737" d="M479.67,339.712c0,.116-23.51.211-52.505.211s-52.51-.095-52.51-.211,23.5-.212,52.51-.212S479.67,339.595,479.67,339.712Z" transform="translate(-374.655 -339.5)" fill="#263238"/>
                </g>
              </g>
              <g id="Grupo_99148" data-name="Grupo 99148" transform="translate(12.178 1.19)">
                <path id="Trazado_150738" data-name="Trazado 150738" d="M375.989,340.591V326.267l8.928-13.861,6.059,4.649,12.435-19.317,7.335,5.165,10.2-17.82,8.29,6.754,12.436-23.64,13.393,26.421,10.842-13.22,12.755-3.65v62.844Z" transform="translate(-375.989 -268.196)" fill="#e9dcbf"/>
              </g>
            </g>
            <g id="Grupo_99151" data-name="Grupo 99151" transform="translate(12.178 5.538)">
              <g id="Grupo_99150" data-name="Grupo 99150">
                <path id="Trazado_150739" data-name="Trazado 150739" d="M479.921,273.672a1.1,1.1,0,0,1-.225.016l-.665.016-2.588.03-9.788.055.093-.045-10.487,13.708-.05.065h-.083l-26.259.037.174-.1L419,305.835c-3.76,6.251-7.4,12.3-10.839,18.016l-.158.264-.18-.249L393.6,304.306l.284-.009-12.976,20.216c-1.555,2.4-2.776,4.288-3.619,5.588l-.96,1.459c-.219.328-.343.489-.343.489s.094-.18.3-.518.523-.846.918-1.486l3.539-5.639,12.852-20.3.135-.213.149.2,14.274,19.522-.339.015,10.826-18.023L429.7,287.246l.06-.1h.114l26.259.036-.132.065L466.563,273.6l.036-.046h.057l9.788.055,2.588.03.665.015A1.288,1.288,0,0,1,479.921,273.672Z" transform="translate(-375.989 -273.554)" fill="#263238"/>
              </g>
            </g>
            <g id="Grupo_99152" data-name="Grupo 99152" transform="translate(32.22 39.81)">
              <path id="Trazado_150740" data-name="Trazado 150740" d="M402.7,316.76a1.008,1.008,0,1,1-1.008-.97A.99.99,0,0,1,402.7,316.76Z" transform="translate(-400.689 -315.79)" fill="#263238"/>
            </g>
            <g id="Grupo_99153" data-name="Grupo 99153" transform="translate(62.509 22.595)">
              <path id="Trazado_150741" data-name="Trazado 150741" d="M440.031,295.544a1.008,1.008,0,1,1-1.008-.97A.989.989,0,0,1,440.031,295.544Z" transform="translate(-438.016 -294.574)" fill="#263238"/>
            </g>
            <g id="Grupo_99154" data-name="Grupo 99154" transform="translate(86.055 18.364)">
              <path id="Trazado_150742" data-name="Trazado 150742" d="M469.049,290.331a1.008,1.008,0,1,1-1.008-.97A.989.989,0,0,1,469.049,290.331Z" transform="translate(-467.034 -289.361)" fill="#263238"/>
            </g>
          </g>
          <g id="Grupo_99156" data-name="Grupo 99156" transform="translate(19.578 107.351)">
            <ellipse id="Elipse_4763" data-name="Elipse 4763" cx="6.515" cy="6.273" rx="6.515" ry="6.273" fill="#fff"/>
          </g>
          <g id="Grupo_99157" data-name="Grupo 99157" transform="translate(42.274 109.422)">
            <rect id="Rectángulo_36048" data-name="Rectángulo 36048" width="76.532" height="2.348" fill="#fff"/>
          </g>
          <g id="Grupo_99158" data-name="Grupo 99158" transform="translate(42.274 115.285)">
            <rect id="Rectángulo_36049" data-name="Rectángulo 36049" width="31.777" height="2.348" fill="#fff"/>
          </g>
        </g>
        <g id="Grupo_99190" data-name="Grupo 99190" transform="translate(291.974 30.277)">
          <g id="Grupo_99160" data-name="Grupo 99160" style="isolation: isolate">
            <rect id="Rectángulo_36050" data-name="Rectángulo 36050" width="90.185" height="74.8" rx="4.937" fill="#b3b2d4"/>
          </g>
          <g id="Grupo_99189" data-name="Grupo 99189" transform="translate(5.338 7.798)">
            <g id="Grupo_99161" data-name="Grupo 99161" transform="translate(10.401 22.151)">
              <rect id="Rectángulo_36051" data-name="Rectángulo 36051" width="4.862" height="36.703" fill="#e8505b"/>
            </g>
            <g id="Grupo_99162" data-name="Grupo 99162" transform="translate(32.497 19.173)">
              <rect id="Rectángulo_36052" data-name="Rectángulo 36052" width="4.862" height="39.681" fill="#e8505b"/>
            </g>
            <g id="Grupo_99163" data-name="Grupo 99163" transform="translate(55.384 14.134)">
              <rect id="Rectángulo_36053" data-name="Rectángulo 36053" width="4.862" height="44.72" fill="#e8505b"/>
            </g>
            <g id="Grupo_99166" data-name="Grupo 99166" transform="translate(44.633 40.983)">
              <g id="Grupo_99164" data-name="Grupo 99164">
                <rect id="Rectángulo_36054" data-name="Rectángulo 36054" width="4.862" height="17.871" fill="#e8505b"/>
              </g>
              <g id="Grupo_99165" data-name="Grupo 99165" opacity="0.2">
                <rect id="Rectángulo_36055" data-name="Rectángulo 36055" width="4.862" height="17.871"/>
              </g>
            </g>
            <g id="Grupo_99169" data-name="Grupo 99169" transform="translate(16.067 18.219)">
              <g id="Grupo_99167" data-name="Grupo 99167">
                <rect id="Rectángulo_36056" data-name="Rectángulo 36056" width="4.862" height="40.634" fill="#e8505b"/>
              </g>
              <g id="Grupo_99168" data-name="Grupo 99168" opacity="0.1">
                <rect id="Rectángulo_36057" data-name="Rectángulo 36057" width="4.862" height="40.634"/>
              </g>
            </g>
            <g id="Grupo_99172" data-name="Grupo 99172" transform="translate(38.559 9.706)">
              <g id="Grupo_99170" data-name="Grupo 99170">
                <rect id="Rectángulo_36058" data-name="Rectángulo 36058" width="4.862" height="49.148" fill="#e8505b"/>
              </g>
              <g id="Grupo_99171" data-name="Grupo 99171" opacity="0.1">
                <rect id="Rectángulo_36059" data-name="Rectángulo 36059" width="4.862" height="49.148"/>
              </g>
            </g>
            <g id="Grupo_99175" data-name="Grupo 99175" transform="translate(67.923 9.706)">
              <g id="Grupo_99173" data-name="Grupo 99173">
                <rect id="Rectángulo_36060" data-name="Rectángulo 36060" width="4.862" height="49.148" fill="#e8505b"/>
              </g>
              <g id="Grupo_99174" data-name="Grupo 99174" opacity="0.2">
                <rect id="Rectángulo_36061" data-name="Rectángulo 36061" width="4.862" height="49.148"/>
              </g>
            </g>
            <g id="Grupo_99178" data-name="Grupo 99178" transform="translate(61.578)">
              <g id="Grupo_99176" data-name="Grupo 99176">
                <rect id="Rectángulo_36062" data-name="Rectángulo 36062" width="4.862" height="58.854" fill="#e8505b"/>
              </g>
              <g id="Grupo_99177" data-name="Grupo 99177" opacity="0.1">
                <rect id="Rectángulo_36063" data-name="Rectángulo 36063" width="4.862" height="58.854"/>
              </g>
            </g>
            <g id="Grupo_99181" data-name="Grupo 99181" transform="translate(22.014 33.064)">
              <g id="Grupo_99179" data-name="Grupo 99179">
                <rect id="Rectángulo_36064" data-name="Rectángulo 36064" width="4.862" height="25.79" fill="#e8505b"/>
              </g>
              <g id="Grupo_99180" data-name="Grupo 99180" opacity="0.2">
                <rect id="Rectángulo_36065" data-name="Rectángulo 36065" width="4.862" height="25.79"/>
              </g>
            </g>
            <g id="Grupo_99183" data-name="Grupo 99183" transform="translate(2.252 60.869)">
              <g id="Grupo_99182" data-name="Grupo 99182">
                <path id="Trazado_150743" data-name="Trazado 150743" d="M549.634,209.353c0,.117-17.347.211-38.741.211s-38.746-.094-38.746-.211,17.344-.211,38.746-.211S549.634,209.236,549.634,209.353Z" transform="translate(-472.146 -209.142)" fill="#263238"/>
              </g>
            </g>
            <g id="Grupo_99184" data-name="Grupo 99184" transform="translate(0 52.325)">
              <rect id="Rectángulo_36066" data-name="Rectángulo 36066" width="2.967" height="0.978" fill="#263238"/>
            </g>
            <g id="Grupo_99185" data-name="Grupo 99185" transform="translate(0 39.264)">
              <rect id="Rectángulo_36067" data-name="Rectángulo 36067" width="2.967" height="0.978" fill="#263238"/>
            </g>
            <g id="Grupo_99186" data-name="Grupo 99186" transform="translate(0 14.683)">
              <rect id="Rectángulo_36068" data-name="Rectángulo 36068" width="2.967" height="0.978" fill="#263238"/>
            </g>
            <g id="Grupo_99187" data-name="Grupo 99187" transform="translate(0 2.33)">
              <rect id="Rectángulo_36069" data-name="Rectángulo 36069" width="2.967" height="0.978" fill="#263238"/>
            </g>
            <g id="Grupo_99188" data-name="Grupo 99188" transform="translate(0.15 26.974)">
              <rect id="Rectángulo_36070" data-name="Rectángulo 36070" width="2.967" height="0.978" fill="#263238"/>
            </g>
          </g>
        </g>
        <g id="Grupo_99199" data-name="Grupo 99199" transform="translate(188.124 24.197)">
          <g id="Grupo_99191" data-name="Grupo 99191">
            <path id="Rectángulo_36071" data-name="Rectángulo 36071" d="M3.23,0H89.273A3.23,3.23,0,0,1,92.5,3.23V22.7a3.23,3.23,0,0,1-3.23,3.23H3.231A3.231,3.231,0,0,1,0,22.7V3.23A3.23,3.23,0,0,1,3.23,0Z" fill="#e9dcbf"/>
          </g>
          <g id="Grupo_99192" data-name="Grupo 99192" transform="translate(9.443 8.109)">
            <path id="Trazado_150744" data-name="Trazado 150744" d="M356.507,136.209a5.636,5.636,0,1,1-.871-7.924A5.637,5.637,0,0,1,356.507,136.209Z" transform="translate(-346.452 -127.025)" fill="#fff"/>
            <path id="Trazado_150745" data-name="Trazado 150745" d="M352.094,138.336a5.658,5.658,0,1,1,4.424-2.119h0a5.675,5.675,0,0,1-4.424,2.119Zm.022-11.275a5.617,5.617,0,1,0,4.37,9.13h0a5.617,5.617,0,0,0-4.37-9.13Z" transform="translate(-346.448 -127.02)" fill="#263238"/>
          </g>
          <g id="Grupo_99194" data-name="Grupo 99194" transform="translate(11.929 11.849)">
            <g id="Grupo_99193" data-name="Grupo 99193">
              <path id="Trazado_150746" data-name="Trazado 150746" d="M355.851,131.633a23.555,23.555,0,0,1-3.036,3.256l-.745.718-.148.142-.141-.144a16.331,16.331,0,0,1-2.267-2.559,16.369,16.369,0,0,1,2.558,2.267l-.288,0,.737-.726A23.662,23.662,0,0,1,355.851,131.633Z" transform="translate(-349.511 -131.629)" fill="#e8505b"/>
            </g>
          </g>
          <g id="Grupo_99196" data-name="Grupo 99196" transform="translate(30.951 10.856)">
            <g id="Grupo_99195" data-name="Grupo 99195">
              <path id="Trazado_150747" data-name="Trazado 150747" d="M425.477,130.617c0,.116-11.759.211-26.261.211s-26.263-.095-26.263-.211,11.756-.212,26.263-.212S425.477,130.5,425.477,130.617Z" transform="translate(-372.953 -130.405)" fill="#fff"/>
            </g>
          </g>
          <g id="Grupo_99198" data-name="Grupo 99198" transform="translate(31.566 15.985)">
            <g id="Grupo_99197" data-name="Grupo 99197">
              <path id="Trazado_150748" data-name="Trazado 150748" d="M404.077,136.938c0,.117-6.8.211-15.182.211s-15.184-.094-15.184-.211,6.8-.212,15.184-.212S404.077,136.821,404.077,136.938Z" transform="translate(-373.711 -136.726)" fill="#fff"/>
            </g>
          </g>
        </g>
      </g>
      <g id="Speech_Bubble" data-name="Speech Bubble" transform="translate(489.523 125.418)">
        <g id="Grupo_99203" data-name="Grupo 99203">
          <g id="Grupo_99201" data-name="Grupo 99201">
            <g id="Grupo_99200" data-name="Grupo 99200">
              <path id="Trazado_150749" data-name="Trazado 150749" d="M615.3,170.353s-.107.137-.336.389-.562.634-1.034,1.1a19.718,19.718,0,0,1-4.706,3.281,16.105,16.105,0,0,1-1.808.777l-1,.358-1.071.282a20.747,20.747,0,0,1-2.312.444c-.405.045-.821.065-1.243.1a8.96,8.96,0,0,1-1.29.032,19.492,19.492,0,0,1-11.092-3.565l.133.029-9.646,1.863-.543.105.363-.419,5.311-6.116-.01.252a19.579,19.579,0,0,1-3.662-9.093,19.484,19.484,0,0,1,22.889-21.687,19.339,19.339,0,0,1,10,5.162,19.271,19.271,0,0,1,3.982,22.377l-.545,1.065c-.182.328-.388.613-.56.889a10.576,10.576,0,0,1-.949,1.342c-.271.331-.484.591-.641.781a2.194,2.194,0,0,1-.229.257,2.234,2.234,0,0,1,.2-.285l.606-.806a11.231,11.231,0,0,0,.91-1.358c.166-.278.364-.565.54-.893s.339-.69.523-1.066a19.218,19.218,0,0,0,1.7-5.84A19.258,19.258,0,0,0,614,143.893a18.512,18.512,0,0,0-4.4-3.169,18.318,18.318,0,0,0-5.429-1.862,19.126,19.126,0,0,0-22.406,21.251,19.2,19.2,0,0,0,3.572,8.907l.094.133-.1.119-5.325,6.1-.18-.313,9.651-1.827.072-.014.061.043a19.272,19.272,0,0,0,10.9,3.566,8.966,8.966,0,0,0,1.272-.022c.416-.031.827-.047,1.227-.088a20.68,20.68,0,0,0,2.287-.419l1.061-.268.988-.344a16.013,16.013,0,0,0,1.8-.749,20.385,20.385,0,0,0,4.722-3.178c.481-.448.82-.821,1.066-1.056S615.3,170.353,615.3,170.353Z" transform="translate(-579.35 -138.139)" fill="#373660"/>
            </g>
          </g>
          <g id="Grupo_99202" data-name="Grupo 99202" transform="translate(15.095 13.324)">
            <path id="Trazado_150750" data-name="Trazado 150750" d="M604.469,156.718l-3.258-1.079-3.259-1.079.694,3.362.695,3.362,1.772-1.578,7.629,8.57,1.583-1.409L602.7,158.3Z" transform="translate(-597.952 -154.559)" fill="#373660"/>
          </g>
        </g>
      </g>
    </g>
  </g>
</svg>
