<svg xmlns="http://www.w3.org/2000/svg" xmlns:xlink="http://www.w3.org/1999/xlink" width="103" height="103" viewBox="0 0 103 103">
  <defs>
    <filter id="Elipse_13737" x="0" y="0" width="103" height="103" filterUnits="userSpaceOnUse">
      <feOffset dy="3" input="SourceAlpha"/>
      <feGaussianBlur stdDeviation="3" result="blur"/>
      <feFlood flood-opacity="0.161"/>
      <feComposite operator="in" in2="blur"/>
      <feComposite in="SourceGraphic"/>
    </filter>
  </defs>
  <g id="Grupo_1185650" data-name="Grupo 1185650" transform="translate(-592 -2476)">
    <g id="Grupo_1185633" data-name="Grupo 1185633" transform="translate(601 2482)">
      <g transform="matrix(1, 0, 0, 1, -9, -6)" filter="url(#Elipse_13737)">
        <circle id="Elipse_13737-2" data-name="Elipse 13737" cx="42.5" cy="42.5" r="42.5" transform="translate(9 6)" fill="#fff"/>
      </g>
    </g>
    <g id="ingeniero" transform="translate(622.066 2497.252)">
      <g id="Grupo_100581" data-name="Grupo 100581" transform="translate(0.822 0.819)">
        <g id="Grupo_100559" data-name="Grupo 100559" transform="translate(9.818 27.011)">
          <path id="Trazado_151174" data-name="Trazado 151174" d="M27.9,37.823a2.456,2.456,0,0,1,0,4.911H22.988a2.456,2.456,0,0,1,0-4.911Z" transform="translate(-20.532 -37.823)" fill="#ffeaa7"/>
        </g>
        <g id="Grupo_100560" data-name="Grupo 100560" transform="translate(9.818 45.149)">
          <path id="Trazado_151175" data-name="Trazado 151175" d="M20.532,61.77a8.088,8.088,0,0,0,3.274.688h6.548v.819A2.452,2.452,0,0,1,27.9,65.731H22.988a2.452,2.452,0,0,1-2.455-2.456v-1.5Z" transform="translate(-20.532 -61.77)" fill="#e6e9ed"/>
        </g>
        <g id="Grupo_100561" data-name="Grupo 100561" transform="translate(9.818 29.466)">
          <path id="Trazado_151176" data-name="Trazado 151176" d="M22.988,43.52H27.9a2.452,2.452,0,0,0,2.455-2.456v9.822h-.139a1.642,1.642,0,0,0-1.162.483L27.9,52.524H24.625a8.149,8.149,0,0,1-4.092-1.1V41.065a2.459,2.459,0,0,0,2.455,2.456Z" transform="translate(-20.532 -41.065)" fill="#e6e9ed"/>
        </g>
        <g id="Grupo_100562" data-name="Grupo 100562" transform="translate(0.398 20.528)">
          <path id="Trazado_151177" data-name="Trazado 151177" d="M17.834,35.394l.36,1.113a2.437,2.437,0,0,0-.679,1.694v7.44L13.963,40.33,8.094,31.539c.745.819,2.431,1.162,4.24.778,2.169-.458,3.716-1.809,3.528-3.053Z" transform="translate(-8.094 -29.264)" fill="#e6e9ed"/>
        </g>
        <g id="Grupo_100563" data-name="Grupo 100563" transform="translate(0 18.825)">
          <path id="Trazado_151178" data-name="Trazado 151178" d="M15.734,28.718c.188,1.244-1.359,2.595-3.528,3.053-1.809.385-3.495.041-4.24-.778l-.27-.4a1.413,1.413,0,0,1-.09-.262c-.3-1.269,1.269-2.685,3.5-3.159,2.046-.434,3.945.065,4.485,1.121l.008.025Z" transform="translate(-7.569 -27.015)" fill="#f0d0b4"/>
        </g>
        <g id="Grupo_100564" data-name="Grupo 100564" transform="translate(21.277 0.147)">
          <path id="Trazado_151179" data-name="Trazado 151179" d="M43,10.393H35.661V2.356A9.026,9.026,0,0,1,43,10.393Z" transform="translate(-35.661 -2.356)" fill="#ff826e"/>
        </g>
        <g id="Grupo_100565" data-name="Grupo 100565" transform="translate(10.67 0.147)">
          <path id="Trazado_151180" data-name="Trazado 151180" d="M28.99,2.364v8.03H21.656A9.016,9.016,0,0,1,28.99,2.356Z" transform="translate(-21.656 -2.356)" fill="#ff826e"/>
        </g>
        <g id="Grupo_100566" data-name="Grupo 100566" transform="translate(18.003)">
          <path id="Trazado_151181" data-name="Trazado 151181" d="M34.613,2.317v8.03H31.339V2.309a9.168,9.168,0,0,1,3.274,0Z" transform="translate(-31.339 -2.161)" fill="#fc6e51"/>
        </g>
        <g id="Grupo_100567" data-name="Grupo 100567" transform="translate(9 8.185)">
          <path id="Trazado_151182" data-name="Trazado 151182" d="M21.121,12.968H39.914a.821.821,0,0,1,.818.819v1.637a.821.821,0,0,1-.818.819H20.27a.821.821,0,0,1-.818-.819V13.786a.821.821,0,0,1,.818-.819Z" transform="translate(-19.452 -12.968)" fill="#fc6e51"/>
        </g>
        <g id="Grupo_100568" data-name="Grupo 100568" transform="translate(25.37 11.459)">
          <path id="Trazado_151183" data-name="Trazado 151183" d="M44.339,17.29V22.2a2.459,2.459,0,0,0-2.455-2.456h-.819V17.29Z" transform="translate(-41.065 -17.29)" fill="#656d78"/>
        </g>
        <g id="Grupo_100569" data-name="Grupo 100569" transform="translate(10.637 11.459)">
          <path id="Trazado_151184" data-name="Trazado 151184" d="M24.068,19.746A2.452,2.452,0,0,0,21.613,22.2V17.29h3.274v2.456Z" transform="translate(-21.613 -17.29)" fill="#656d78"/>
        </g>
        <g id="Grupo_100570" data-name="Grupo 100570" transform="translate(22.513 22.918)">
          <path id="Trazado_151185" data-name="Trazado 151185" d="M49.554,42.945,50.79,32.419H55.7V44.861a5.564,5.564,0,0,1-10.542,2.488l-.917-1.833v13.1H37.694V55.337A1.642,1.642,0,0,0,39.331,53.7V52.063a1.642,1.642,0,0,0-1.637-1.637V34.056l-.4-.319.4-.5a16.321,16.321,0,0,1,11.639,9.233Z" transform="translate(-37.293 -32.419)" fill="#fcd770"/>
        </g>
        <g id="Grupo_100571" data-name="Grupo 100571" transform="translate(10.138 23.737)">
          <path id="Trazado_151186" data-name="Trazado 151186" d="M29.736,37.494A2.45,2.45,0,0,0,28,36.774H23.09a2.466,2.466,0,0,0-1.776.761l-.36-1.113a14.1,14.1,0,0,1,5.975-2.865l.254-.057,3.274,4.093V39.23A2.45,2.45,0,0,0,29.736,37.494Z" transform="translate(-20.954 -33.5)" fill="#fcd770"/>
        </g>
        <g id="Grupo_100572" data-name="Grupo 100572" transform="translate(4.907 31.594)">
          <path id="Trazado_151187" data-name="Trazado 151187" d="M15.407,43.874l3.552,5.312v2.922a8.149,8.149,0,0,0,4.092,1.1h3.274v4.911H22.233a8.088,8.088,0,0,1-3.274-.688,8.178,8.178,0,0,1-4.911-7.5,14.092,14.092,0,0,1,1.359-6.057Z" transform="translate(-14.048 -43.874)" fill="#fcd770"/>
        </g>
        <g id="Grupo_100573" data-name="Grupo 100573" transform="translate(17.185 45.836)">
          <path id="Trazado_151188" data-name="Trazado 151188" d="M35.988,62.677v3.274H30.258A2.452,2.452,0,0,0,32.714,63.5v-.819Z" transform="translate(-30.258 -62.677)" fill="#75b1f2"/>
        </g>
        <g id="Grupo_100574" data-name="Grupo 100574" transform="translate(19.64 24.236)">
          <path id="Trazado_151189" data-name="Trazado 151189" d="M36.774,34.478v16.37h-.819a1.642,1.642,0,0,0-1.637-1.637H33.5V37.752l2.873-3.593Z" transform="translate(-33.5 -34.159)" fill="#75b1f2"/>
        </g>
        <g id="Grupo_100575" data-name="Grupo 100575" transform="translate(17.185 39.288)">
          <path id="Trazado_151190" data-name="Trazado 151190" d="M37.625,57.306v1.637a1.642,1.642,0,0,1-1.637,1.637H30.258V55.669l1.154-1.154a1.642,1.642,0,0,1,1.162-.483h.958a1.642,1.642,0,0,1,1.637,1.637h.818A1.642,1.642,0,0,1,37.625,57.306Z" transform="translate(-30.258 -54.032)" fill="#f0d0b4"/>
        </g>
        <g id="Grupo_100576" data-name="Grupo 100576" transform="translate(34.373 15.552)">
          <path id="Trazado_151191" data-name="Trazado 151191" d="M59.5,24.331v5.73H54.589l-1.154-1.154a1.642,1.642,0,0,1-.483-1.162v-.958a1.649,1.649,0,0,1,1.637-1.637v-.819a1.642,1.642,0,0,1,1.637-1.637h1.637A1.642,1.642,0,0,1,59.5,24.331Z" transform="translate(-52.952 -22.694)" fill="#f0d0b4"/>
        </g>
        <g id="Grupo_100577" data-name="Grupo 100577" transform="translate(25.263 13.915)">
          <path id="Trazado_151192" data-name="Trazado 151192" d="M43.584,21.253a2.454,2.454,0,0,1-1.735,4.191h-.925a2.993,2.993,0,0,0,.106-.819V20.532h.818A2.45,2.45,0,0,1,43.584,21.253Z" transform="translate(-40.924 -20.532)" fill="#f0d0b4"/>
        </g>
        <g id="Grupo_100578" data-name="Grupo 100578" transform="translate(16.366 21.281)">
          <path id="Trazado_151193" data-name="Trazado 151193" d="M34.907,30.258l.819,2.456-.4.5-2.873,3.593-3.274-4.093L30,30.258Z" transform="translate(-29.177 -30.258)" fill="#f0d0b4"/>
        </g>
        <g id="Grupo_100579" data-name="Grupo 100579" transform="translate(13.911 11.459)">
          <path id="Trazado_151194" data-name="Trazado 151194" d="M26.042,24.657a2.993,2.993,0,0,1-.106-.819V17.29H37.394v6.548a2.993,2.993,0,0,1-.106.819,3.267,3.267,0,0,1-3.168,2.456H29.209A3.267,3.267,0,0,1,26.042,24.657Z" transform="translate(-25.935 -17.29)" fill="#f0d0b4"/>
        </g>
        <g id="Grupo_100580" data-name="Grupo 100580" transform="translate(10.637 13.915)">
          <path id="Trazado_151195" data-name="Trazado 151195" d="M24.993,25.443h-.925a2.456,2.456,0,0,1,0-4.911h.818v4.093A2.993,2.993,0,0,0,24.993,25.443Z" transform="translate(-21.613 -20.532)" fill="#f0d0b4"/>
        </g>
      </g>
      <path id="Trazado_151196" data-name="Trazado 151196" d="M46.59,16.632H44.953A2.458,2.458,0,0,0,42.5,19.088v.14a2.46,2.46,0,0,0-1.637,2.316V22.5a2.444,2.444,0,0,0,.719,1.737l.877.877-.882,7.5a17.161,17.161,0,0,0-10.726-7.682l-.366-1.1a4.094,4.094,0,0,0,2.664-2.292h.347a3.277,3.277,0,0,0,3.274-3.274V14.177a1.639,1.639,0,0,0,1.637-1.637V10.9a1.639,1.639,0,0,0-1.637-1.637h-.142a9.816,9.816,0,0,0-19.359,0h-.142A1.639,1.639,0,0,0,15.487,10.9V12.54a1.639,1.639,0,0,0,1.637,1.637v4.093A3.277,3.277,0,0,0,20.4,21.543h.347a4.1,4.1,0,0,0,2.664,2.292l-.367,1.1a15.071,15.071,0,0,0-5.174,2.284l-1.612-5.007c0-.027,0-.054-.01-.081-.411-1.725-2.851-2.627-5.568-2.05a5.9,5.9,0,0,0-3.771,2.273,2.415,2.415,0,0,0-.364,1.876,2.244,2.244,0,0,0,.5.953l5.608,8.4a14.865,14.865,0,0,0-1.257,5.969,9.007,9.007,0,0,0,4.911,8.01v.994a3.277,3.277,0,0,0,3.274,3.274H37.587V41.111A6.374,6.374,0,0,0,49.046,37.26V19.088a2.459,2.459,0,0,0-2.455-2.456ZM42.5,21.543a.819.819,0,0,1,.818-.819h.818V19.088a.819.819,0,0,1,.819-.819H46.59a.819.819,0,0,1,.819.819V24H43.655l-.918-.918a.815.815,0,0,1-.24-.58ZM29.4,48.554v1.637H27.31a3.24,3.24,0,0,0,.455-1.637Zm.818-1.637H25.309V43.163l.918-.918a.826.826,0,0,1,.579-.24h.959a.819.819,0,0,1,.819.819v.819H30.22a.819.819,0,0,1,.819.819V46.1A.819.819,0,0,1,30.22,46.917ZM28.812,24l.491,1.473-2.356,2.946-2.357-2.947L25.08,24h3.732ZM24.6,28.1c-.036,0-.07-.011-.106-.011H19.58l-.024,0a13.383,13.383,0,0,1,3.8-1.539ZM19.58,29.728h2.077a3.249,3.249,0,0,0-.44,1.637v.819h1.637v-.819A1.637,1.637,0,1,1,24.491,33H19.58a1.637,1.637,0,0,1,0-3.274Zm-1.637,4.456a3.24,3.24,0,0,0,1.637.455h4.911a3.24,3.24,0,0,0,1.637-.455v6.291a2.431,2.431,0,0,0-1.058.613l-.918.918H21.217a7.373,7.373,0,0,1-3.274-.773ZM29.4,41a2.442,2.442,0,0,0-1.637-.634v-9a3.236,3.236,0,0,0-.2-1.1l1.84-2.3Zm4.092-21.1V16.632a1.637,1.637,0,0,1,0,3.274Zm1.637-4.456A3.24,3.24,0,0,0,33.494,15v-.819h1.637Zm-.167-6.185H29.4V3.093A8.113,8.113,0,0,1,34.964,9.266Zm-7.2-6.507V9.266H26.128V2.759c.269-.026.542-.041.818-.041S27.5,2.732,27.765,2.759Zm-3.274.334V9.266H18.928A8.113,8.113,0,0,1,24.491,3.093ZM17.124,10.9H36.768V12.54H17.124ZM20.4,14.177V15a3.24,3.24,0,0,0-1.637.455V14.177Zm-1.637,4.093A1.639,1.639,0,0,1,20.4,16.632v3.274A1.639,1.639,0,0,1,18.761,18.269Zm3.274,1.637v-5.73h9.822v5.73A2.458,2.458,0,0,1,29.4,22.362H24.491A2.458,2.458,0,0,1,22.035,19.906ZM8.29,23.229a4.42,4.42,0,0,1,2.729-1.548,6.3,6.3,0,0,1,1.3-.142,2.76,2.76,0,0,1,2.252.786l.08.249a.849.849,0,0,1-.154.558,4.42,4.42,0,0,1-2.729,1.548,3.923,3.923,0,0,1-3.439-.515l-.16-.241a.739.739,0,0,1-.036-.072.826.826,0,0,1,.156-.623ZM10.5,26.453a7.771,7.771,0,0,0,1.612-.174,6.581,6.581,0,0,0,3.218-1.606l1.558,4.837a3.249,3.249,0,0,0-.581,1.855v4.742L9.836,26.418c.215.021.435.035.662.035Zm2.533,13.1a13.263,13.263,0,0,1,.717-4.323l2.557,3.83v1.057a7.319,7.319,0,0,1-.982-1.054l-1.31.982a9.046,9.046,0,0,0,7.2,3.6h2.455v3.274H20.4a7.375,7.375,0,0,1-7.366-7.367Zm9,10.641H19.58a1.639,1.639,0,0,1-1.637-1.637v-.349a8.975,8.975,0,0,0,2.455.349h5.729a1.639,1.639,0,0,1-1.637,1.637Zm20.627-8.185a4.721,4.721,0,0,1-4.245-2.623l-.831-1.662V34.639H35.95V50.191H31.039V48.4a2.452,2.452,0,0,0,1.637-2.3V44.461a2.452,2.452,0,0,0-1.637-2.3V26.67a15.522,15.522,0,0,1,10.076,8.541l.124.271-.371,3.155,1.626.191,1.551-13.192h3.365V37.26a4.752,4.752,0,0,1-4.746,4.746Z" transform="translate(-6.484 -1.08)"/>
    </g>
  </g>
</svg>
