<svg xmlns="http://www.w3.org/2000/svg" width="295" height="156" viewBox="0 0 295 156">
  <g id="Grupo_1186778" data-name="Grupo 1186778" transform="translate(-836.667 -5006.49)">
    <g id="Trazado_998054" data-name="Trazado 998054" transform="translate(860.667 5006.49)" fill="#fff">
      <path d="M 270.5 23.5 L 0.5 23.5 L 0.5 0.5 L 270.5 0.5 L 270.5 23.5 Z" stroke="none"/>
      <path d="M 1 1 L 1 23 L 270 23 L 270 1 L 1 1 M 0 0 L 271 0 L 271 24 L 0 24 L 0 0 Z" stroke="none" fill="#21c9b8"/>
    </g>
    <path id="Trazado_998055" data-name="Trazado 998055" d="M0,0H24V24H0Z" transform="translate(836.667 5006.49)" fill="#21c9b8"/>
    <g id="Trazado_998056" data-name="Trazado 998056" transform="translate(986.667 5008.481)" fill="#e9dcbf">
      <path d="M 19.5 19.5 L 0.5 19.5 L 0.5 0.5 L 19.5 0.5 L 19.5 19.5 Z" stroke="none"/>
      <path d="M 1 1 L 1 19 L 19 19 L 19 1 L 1 1 M 0 0 L 20 0 L 20 20 L 0 20 L 0 0 Z" stroke="none" fill="#e9dcbf"/>
    </g>
    <g id="Trazado_998057" data-name="Trazado 998057" transform="translate(860.667 5039.49)" fill="#fff">
      <path d="M 270.5 23.5 L 0.5 23.5 L 0.5 0.5 L 270.5 0.5 L 270.5 23.5 Z" stroke="none"/>
      <path d="M 1 1 L 1 23 L 270 23 L 270 1 L 1 1 M 0 0 L 271 0 L 271 24 L 0 24 L 0 0 Z" stroke="none" fill="#21c9b8"/>
    </g>
    <g id="Trazado_998058" data-name="Trazado 998058" transform="translate(860.667 5072.49)" fill="#fff">
      <path d="M 270.5 23.5 L 0.5 23.5 L 0.5 0.5 L 270.5 0.5 L 270.5 23.5 Z" stroke="none"/>
      <path d="M 1 1 L 1 23 L 270 23 L 270 1 L 1 1 M 0 0 L 271 0 L 271 24 L 0 24 L 0 0 Z" stroke="none" fill="#21c9b8"/>
    </g>
    <g id="Trazado_998053" data-name="Trazado 998053" transform="translate(860.667 5105.49)" fill="#fff">
      <path d="M 270.5 23.5 L 0.5 23.5 L 0.5 0.5 L 270.5 0.5 L 270.5 23.5 Z" stroke="none"/>
      <path d="M 1 1 L 1 23 L 270 23 L 270 1 L 1 1 M 0 0 L 271 0 L 271 24 L 0 24 L 0 0 Z" stroke="none" fill="#21c9b8"/>
    </g>
    <g id="Trazado_998051" data-name="Trazado 998051" transform="translate(860.667 5138.49)" fill="#fff">
      <path d="M 270.5 23.5 L 0.5 23.5 L 0.5 0.5 L 270.5 0.5 L 270.5 23.5 Z" stroke="none"/>
      <path d="M 1 1 L 1 23 L 270 23 L 270 1 L 1 1 M 0 0 L 271 0 L 271 24 L 0 24 L 0 0 Z" stroke="none" fill="#21c9b8"/>
    </g>
    <path id="Trazado_998059" data-name="Trazado 998059" d="M0,0H24V24H0Z" transform="translate(836.667 5072.49)" fill="#21c9b8"/>
    <path id="Trazado_998060" data-name="Trazado 998060" d="M0,0H24V24H0Z" transform="translate(836.667 5039.49)" fill="#21c9b8"/>
    <path id="Trazado_998061" data-name="Trazado 998061" d="M0,0H24V24H0Z" transform="translate(836.667 5105.49)" fill="#21c9b8"/>
    <path id="Trazado_998062" data-name="Trazado 998062" d="M0,0H24V24H0Z" transform="translate(836.667 5138.49)" fill="#21c9b8"/>
    <g id="Trazado_998063" data-name="Trazado 998063" transform="translate(986.667 5074.481)" fill="#e9dcbf">
      <path d="M 19.5 19.5 L 0.5 19.5 L 0.5 0.5 L 19.5 0.5 L 19.5 19.5 Z" stroke="none"/>
      <path d="M 1 1 L 1 19 L 19 19 L 19 1 L 1 1 M 0 0 L 20 0 L 20 20 L 0 20 L 0 0 Z" stroke="none" fill="#e9dcbf"/>
    </g>
    <g id="Trazado_998064" data-name="Trazado 998064" transform="translate(986.667 5107.481)" fill="#e9dcbf">
      <path d="M 19.5 19.5 L 0.5 19.5 L 0.5 0.5 L 19.5 0.5 L 19.5 19.5 Z" stroke="none"/>
      <path d="M 1 1 L 1 19 L 19 19 L 19 1 L 1 1 M 0 0 L 20 0 L 20 20 L 0 20 L 0 0 Z" stroke="none" fill="#e9dcbf"/>
    </g>
    <g id="Trazado_998065" data-name="Trazado 998065" transform="translate(986.667 5140.481)" fill="#e9dcbf">
      <path d="M 19.5 19.5 L 0.5 19.5 L 0.5 0.5 L 19.5 0.5 L 19.5 19.5 Z" stroke="none"/>
      <path d="M 1 1 L 1 19 L 19 19 L 19 1 L 1 1 M 0 0 L 20 0 L 20 20 L 0 20 L 0 0 Z" stroke="none" fill="#e9dcbf"/>
    </g>
    <path id="Trazado_998066" data-name="Trazado 998066" d="M7.406,17H1.469V5.8H7.156V6.984H2.781v3.727H6.828v1.18H2.781v3.922H7.406Zm9.57-3.391a3.236,3.236,0,0,1-.6,1.945A3.542,3.542,0,0,1,14.7,16.789a7.37,7.37,0,0,1-2.594.406A8.472,8.472,0,0,1,8.891,16.6v-3.07a6.358,6.358,0,0,0,1.555.832,4.573,4.573,0,0,0,1.586.316,1.566,1.566,0,0,0,.859-.2.652.652,0,0,0,.3-.582.789.789,0,0,0-.152-.48,1.5,1.5,0,0,0-.461-.387,8.585,8.585,0,0,0-1.145-.492q-2.7-1.039-2.7-3.359a3.139,3.139,0,0,1,1.234-2.6,5.207,5.207,0,0,1,3.313-.973q.586,0,1.078.047t.895.117q.4.07,1.129.266V8.891A5.769,5.769,0,0,0,13.6,8.117a1.716,1.716,0,0,0-.906.211.649.649,0,0,0-.344.578.725.725,0,0,0,.277.582,5.2,5.2,0,0,0,1.16.6,6.433,6.433,0,0,1,2.465,1.539A2.935,2.935,0,0,1,16.977,13.609Zm2.875,2.234H19.82V20.68H18.539V9H19.82v1.406h.031a3.03,3.03,0,0,1,2.766-1.594,2.93,2.93,0,0,1,2.414,1.074,4.449,4.449,0,0,1,.867,2.879,4.959,4.959,0,0,1-.977,3.215,3.251,3.251,0,0,1-2.672,1.207A2.676,2.676,0,0,1,19.852,15.844Zm-.031-3.227v1.117a2.379,2.379,0,0,0,.645,1.684,2.3,2.3,0,0,0,3.461-.2,4.086,4.086,0,0,0,.66-2.477,3.225,3.225,0,0,0-.617-2.094A2.043,2.043,0,0,0,22.3,9.891a2.27,2.27,0,0,0-1.8.777A2.854,2.854,0,0,0,19.82,12.617Zm14.555.7H28.727a2.992,2.992,0,0,0,.719,2.063,2.478,2.478,0,0,0,1.891.727,3.931,3.931,0,0,0,2.484-.891v1.2a4.643,4.643,0,0,1-2.789.766,3.381,3.381,0,0,1-2.664-1.09,4.461,4.461,0,0,1-.969-3.066,4.375,4.375,0,0,1,1.059-3.043,3.394,3.394,0,0,1,2.629-1.176,3.008,3.008,0,0,1,2.43,1.016,4.234,4.234,0,0,1,.859,2.82Zm-1.312-1.086a2.607,2.607,0,0,0-.535-1.727,1.823,1.823,0,0,0-1.465-.617,2.07,2.07,0,0,0-1.539.648,2.943,2.943,0,0,0-.781,1.7Zm8.7,4.4a4.163,4.163,0,0,1-2.187.555,3.622,3.622,0,0,1-2.762-1.113,4.035,4.035,0,0,1-1.051-2.887A4.435,4.435,0,0,1,36.9,10.012a3.963,3.963,0,0,1,3.023-1.2,4.209,4.209,0,0,1,1.859.391v1.313a3.258,3.258,0,0,0-1.906-.625,2.576,2.576,0,0,0-2.012.879,3.335,3.335,0,0,0-.785,2.309,3.176,3.176,0,0,0,.738,2.219,2.545,2.545,0,0,0,1.98.813,3.211,3.211,0,0,0,1.969-.7ZM44.984,17H43.7V9h1.281ZM46.133,4.922,44.086,7.484h-.992l1.742-2.562Zm5.4,1.359a1.707,1.707,0,0,0-.852-.211q-1.344,0-1.344,1.7V9h1.875v1.094H49.336V17H48.063V10.094H46.7V9h1.367V7.7a2.7,2.7,0,0,1,.727-1.988,2.453,2.453,0,0,1,1.813-.73,2.511,2.511,0,0,1,.93.141Zm1.711.688a.812.812,0,0,1-.586-.234.791.791,0,0,1-.242-.594.821.821,0,0,1,.828-.836.827.827,0,0,1,.6.238.835.835,0,0,1,0,1.184A.82.82,0,0,1,53.242,6.969ZM53.867,17H52.586V9h1.281Zm8.047-.367a4.163,4.163,0,0,1-2.187.555,3.622,3.622,0,0,1-2.762-1.113,4.035,4.035,0,0,1-1.051-2.887,4.435,4.435,0,0,1,1.133-3.176,3.963,3.963,0,0,1,3.023-1.2A4.209,4.209,0,0,1,61.93,9.2v1.313a3.258,3.258,0,0,0-1.906-.625,2.576,2.576,0,0,0-2.012.879,3.335,3.335,0,0,0-.785,2.309,3.176,3.176,0,0,0,.738,2.219,2.545,2.545,0,0,0,1.98.813,3.211,3.211,0,0,0,1.969-.7Zm5.281.555a3.711,3.711,0,0,1-2.832-1.121A4.153,4.153,0,0,1,63.3,13.094a4.326,4.326,0,0,1,1.1-3.148,3.96,3.96,0,0,1,2.977-1.133,3.588,3.588,0,0,1,2.793,1.1,4.368,4.368,0,0,1,1,3.055A4.3,4.3,0,0,1,70.1,16.035,3.791,3.791,0,0,1,67.2,17.188Zm.094-7.3a2.437,2.437,0,0,0-1.953.84,3.449,3.449,0,0,0-.719,2.316,3.262,3.262,0,0,0,.727,2.242,2.469,2.469,0,0,0,1.945.82,2.342,2.342,0,0,0,1.91-.8,3.492,3.492,0,0,0,.668-2.289A3.552,3.552,0,0,0,69.2,10.7,2.332,2.332,0,0,0,67.289,9.891Zm5.453,6.82V15.336a3.792,3.792,0,0,0,2.3.773q1.688,0,1.688-1.125a.976.976,0,0,0-.145-.543,1.44,1.44,0,0,0-.391-.395,3.007,3.007,0,0,0-.578-.309q-.332-.137-.715-.285a9.207,9.207,0,0,1-.934-.426,2.82,2.82,0,0,1-.672-.484,1.8,1.8,0,0,1-.406-.613,2.17,2.17,0,0,1-.137-.8,1.912,1.912,0,0,1,.258-1A2.286,2.286,0,0,1,73.7,9.4a3.206,3.206,0,0,1,.98-.441,4.349,4.349,0,0,1,1.137-.148,4.59,4.59,0,0,1,1.859.359v1.3a3.624,3.624,0,0,0-2.031-.578A2.374,2.374,0,0,0,75,9.973a1.587,1.587,0,0,0-.5.23,1.065,1.065,0,0,0-.32.355.936.936,0,0,0-.113.457,1.1,1.1,0,0,0,.113.523,1.152,1.152,0,0,0,.332.375,2.538,2.538,0,0,0,.531.3q.313.133.711.289a9.9,9.9,0,0,1,.953.418,3.269,3.269,0,0,1,.719.484,1.893,1.893,0,0,1,.457.621,2,2,0,0,1,.16.836,1.971,1.971,0,0,1-.262,1.031,2.243,2.243,0,0,1-.7.727,3.2,3.2,0,0,1-1.008.43,4.976,4.976,0,0,1-1.2.141A4.539,4.539,0,0,1,72.742,16.711ZM11.359,50V43.859q0-.867.055-1.906l.023-.516h-.094q-.25,1.32-.383,1.828L9.313,50H6.141L4.414,43.344q-.07-.25-.367-1.906H3.953q.109,2.625.109,3.281V50H1.1V38.8H6.156L7.7,44.883a7.512,7.512,0,0,1,.145.762q.09.574.113.887H8q.086-.711.273-1.68L9.711,38.8h4.977V50Zm12.156-3.68H17.867a2.992,2.992,0,0,0,.719,2.063,2.478,2.478,0,0,0,1.891.727,3.931,3.931,0,0,0,2.484-.891v1.2a4.643,4.643,0,0,1-2.789.766,3.381,3.381,0,0,1-2.664-1.09,4.461,4.461,0,0,1-.969-3.066A4.375,4.375,0,0,1,17.6,42.988a3.394,3.394,0,0,1,2.629-1.176,3.008,3.008,0,0,1,2.43,1.016,4.234,4.234,0,0,1,.859,2.82ZM22.2,45.234a2.607,2.607,0,0,0-.535-1.727,1.823,1.823,0,0,0-1.465-.617,2.07,2.07,0,0,0-1.539.648,2.943,2.943,0,0,0-.781,1.7ZM32.281,50H31V48.641h-.031a2.958,2.958,0,0,1-2.75,1.547,2.988,2.988,0,0,1-2.41-1.074,4.407,4.407,0,0,1-.9-2.926,4.794,4.794,0,0,1,1-3.18,3.3,3.3,0,0,1,2.664-1.2,2.564,2.564,0,0,1,2.4,1.3H31V38.156h1.281ZM31,46.383V45.2a2.289,2.289,0,0,0-.641-1.641,2.149,2.149,0,0,0-1.625-.672,2.212,2.212,0,0,0-1.844.859,3.766,3.766,0,0,0-.672,2.375,3.387,3.387,0,0,0,.645,2.184,2.107,2.107,0,0,0,1.73.8,2.188,2.188,0,0,0,1.738-.773A2.882,2.882,0,0,0,31,46.383Zm4.531-6.414a.812.812,0,0,1-.586-.234.791.791,0,0,1-.242-.594.821.821,0,0,1,.828-.836.827.827,0,0,1,.6.238.835.835,0,0,1,0,1.184A.82.82,0,0,1,35.531,39.969ZM36.156,50H34.875V42h1.281Zm3.906-1.156h-.031V50H38.75V38.156h1.281v5.25h.031a3.03,3.03,0,0,1,2.766-1.594,2.932,2.932,0,0,1,2.41,1.074,4.436,4.436,0,0,1,.871,2.879,4.959,4.959,0,0,1-.977,3.215,3.251,3.251,0,0,1-2.672,1.207A2.631,2.631,0,0,1,40.063,48.844Zm-.031-3.227v1.117a2.379,2.379,0,0,0,.645,1.684,2.3,2.3,0,0,0,3.461-.2,4.086,4.086,0,0,0,.66-2.477,3.225,3.225,0,0,0-.617-2.094,2.043,2.043,0,0,0-1.672-.758,2.27,2.27,0,0,0-1.8.777A2.854,2.854,0,0,0,40.031,45.617ZM49.438,50H48.156V38.156h1.281Zm9.023-3.68H52.813a2.992,2.992,0,0,0,.719,2.063,2.478,2.478,0,0,0,1.891.727,3.931,3.931,0,0,0,2.484-.891v1.2a4.643,4.643,0,0,1-2.789.766,3.381,3.381,0,0,1-2.664-1.09,4.461,4.461,0,0,1-.969-3.066,4.375,4.375,0,0,1,1.059-3.043,3.394,3.394,0,0,1,2.629-1.176,3.008,3.008,0,0,1,2.43,1.016,4.234,4.234,0,0,1,.859,2.82Zm-1.312-1.086a2.607,2.607,0,0,0-.535-1.727,1.823,1.823,0,0,0-1.465-.617,2.07,2.07,0,0,0-1.539.648,2.943,2.943,0,0,0-.781,1.7Zm2.766,4.477V48.336a3.792,3.792,0,0,0,2.3.773q1.688,0,1.688-1.125a.976.976,0,0,0-.145-.543,1.44,1.44,0,0,0-.391-.395,3.007,3.007,0,0,0-.578-.309q-.332-.137-.715-.285a9.206,9.206,0,0,1-.934-.426,2.82,2.82,0,0,1-.672-.484,1.8,1.8,0,0,1-.406-.613,2.17,2.17,0,0,1-.137-.8,1.912,1.912,0,0,1,.258-1,2.286,2.286,0,0,1,.688-.727,3.206,3.206,0,0,1,.98-.441,4.349,4.349,0,0,1,1.137-.148,4.59,4.59,0,0,1,1.859.359v1.3a3.624,3.624,0,0,0-2.031-.578,2.374,2.374,0,0,0-.648.082,1.587,1.587,0,0,0-.5.23,1.065,1.065,0,0,0-.32.355.936.936,0,0,0-.113.457,1.1,1.1,0,0,0,.113.523,1.152,1.152,0,0,0,.332.375,2.538,2.538,0,0,0,.531.3q.312.133.711.289a9.894,9.894,0,0,1,.953.418,3.269,3.269,0,0,1,.719.484,1.893,1.893,0,0,1,.457.621,2,2,0,0,1,.16.836,1.971,1.971,0,0,1-.262,1.031,2.243,2.243,0,0,1-.7.727,3.2,3.2,0,0,1-1.008.43,4.976,4.976,0,0,1-1.2.141A4.539,4.539,0,0,1,59.914,49.711ZM8.125,83l-.492-2.062H4.289L3.758,83H.109L3.969,71.8H8.156L11.789,83ZM6,74.234H5.922a5.443,5.443,0,0,1-.109.617q-.094.43-.945,3.688H7.008l-.781-3.047A9.635,9.635,0,0,1,6,74.234ZM14.578,83H13.3V71.156h1.281Zm8.047-.367a4.163,4.163,0,0,1-2.187.555,3.622,3.622,0,0,1-2.762-1.113,4.035,4.035,0,0,1-1.051-2.887,4.435,4.435,0,0,1,1.133-3.176,3.963,3.963,0,0,1,3.023-1.2,4.209,4.209,0,0,1,1.859.391v1.313a3.258,3.258,0,0,0-1.906-.625,2.576,2.576,0,0,0-2.012.879,3.335,3.335,0,0,0-.785,2.309,3.176,3.176,0,0,0,.738,2.219,2.545,2.545,0,0,0,1.98.813,3.211,3.211,0,0,0,1.969-.7ZM30.289,83H29.008V81.75h-.031a2.682,2.682,0,0,1-2.461,1.438,2.63,2.63,0,0,1-1.871-.633,2.192,2.192,0,0,1-.676-1.68q0-2.242,2.641-2.609l2.4-.336q0-2.039-1.648-2.039a3.938,3.938,0,0,0-2.609.984V75.563a4.958,4.958,0,0,1,2.719-.75q2.82,0,2.82,2.984Zm-1.281-4.047-1.93.266a3.133,3.133,0,0,0-1.344.441,1.273,1.273,0,0,0-.453,1.121,1.221,1.221,0,0,0,.418.957,1.615,1.615,0,0,0,1.113.371,2.056,2.056,0,0,0,1.574-.668,2.387,2.387,0,0,0,.621-1.691ZM39.344,83H38.063V78.438q0-2.547-1.859-2.547a2.017,2.017,0,0,0-1.59.723,2.679,2.679,0,0,0-.629,1.824V83H32.7V75h1.281v1.328h.031a2.887,2.887,0,0,1,2.625-1.516,2.448,2.448,0,0,1,2.008.848,3.776,3.776,0,0,1,.7,2.449Zm7.992-7.633L42.6,81.906h4.688V83h-6.57v-.4l4.734-6.508H41.164V75h6.172ZM54.719,83H53.438V81.75h-.031a2.682,2.682,0,0,1-2.461,1.438,2.63,2.63,0,0,1-1.871-.633,2.192,2.192,0,0,1-.676-1.68q0-2.242,2.641-2.609l2.4-.336q0-2.039-1.648-2.039a3.938,3.938,0,0,0-2.609.984V75.563a4.958,4.958,0,0,1,2.719-.75q2.82,0,2.82,2.984Zm-1.281-4.047-1.93.266a3.133,3.133,0,0,0-1.344.441,1.273,1.273,0,0,0-.453,1.121,1.221,1.221,0,0,0,.418.957,1.615,1.615,0,0,0,1.113.371,2.056,2.056,0,0,0,1.574-.668,2.387,2.387,0,0,0,.621-1.691Zm5.008,2.891h-.031V83H57.133V71.156h1.281v5.25h.031a3.03,3.03,0,0,1,2.766-1.594,2.932,2.932,0,0,1,2.41,1.074,4.436,4.436,0,0,1,.871,2.879,4.959,4.959,0,0,1-.977,3.215,3.251,3.251,0,0,1-2.672,1.207A2.631,2.631,0,0,1,58.445,81.844Zm-.031-3.227v1.117a2.379,2.379,0,0,0,.645,1.684,2.3,2.3,0,0,0,3.461-.2,4.086,4.086,0,0,0,.66-2.477,3.225,3.225,0,0,0-.617-2.094,2.043,2.043,0,0,0-1.672-.758,2.27,2.27,0,0,0-1.8.777A2.854,2.854,0,0,0,58.414,78.617ZM67.82,83H66.539V71.156H67.82Zm9.023-3.68H71.2a2.992,2.992,0,0,0,.719,2.063,2.478,2.478,0,0,0,1.891.727,3.931,3.931,0,0,0,2.484-.891v1.2a4.643,4.643,0,0,1-2.789.766,3.381,3.381,0,0,1-2.664-1.09,4.461,4.461,0,0,1-.969-3.066,4.375,4.375,0,0,1,1.059-3.043,3.394,3.394,0,0,1,2.629-1.176,3.008,3.008,0,0,1,2.43,1.016,4.234,4.234,0,0,1,.859,2.82Zm-1.312-1.086A2.607,2.607,0,0,0,75,76.508a1.823,1.823,0,0,0-1.465-.617,2.07,2.07,0,0,0-1.539.648,2.943,2.943,0,0,0-.781,1.7ZM78.3,82.711V81.336a3.792,3.792,0,0,0,2.3.773q1.688,0,1.688-1.125a.976.976,0,0,0-.145-.543,1.44,1.44,0,0,0-.391-.395,3.007,3.007,0,0,0-.578-.309q-.332-.137-.715-.285a9.207,9.207,0,0,1-.934-.426,2.82,2.82,0,0,1-.672-.484,1.8,1.8,0,0,1-.406-.613,2.17,2.17,0,0,1-.137-.8,1.912,1.912,0,0,1,.258-1,2.286,2.286,0,0,1,.688-.727,3.206,3.206,0,0,1,.98-.441,4.349,4.349,0,0,1,1.137-.148,4.59,4.59,0,0,1,1.859.359v1.3a3.624,3.624,0,0,0-2.031-.578,2.374,2.374,0,0,0-.648.082,1.587,1.587,0,0,0-.5.23,1.065,1.065,0,0,0-.32.355.936.936,0,0,0-.113.457,1.1,1.1,0,0,0,.113.523,1.152,1.152,0,0,0,.332.375,2.538,2.538,0,0,0,.531.3q.313.133.711.289a9.9,9.9,0,0,1,.953.418,3.269,3.269,0,0,1,.719.484,1.893,1.893,0,0,1,.457.621,2,2,0,0,1,.16.836,1.971,1.971,0,0,1-.262,1.031,2.243,2.243,0,0,1-.7.727,3.2,3.2,0,0,1-1.008.43,4.976,4.976,0,0,1-1.2.141A4.539,4.539,0,0,1,78.3,82.711ZM6.914,116l-.836-2.414a3,3,0,0,0-.629-1.117,1.148,1.148,0,0,0-.84-.406H4.477V116H1.1V104.8H5.586a6.218,6.218,0,0,1,3.473.77,2.614,2.614,0,0,1,1.121,2.309,2.921,2.921,0,0,1-.652,1.938,3.718,3.718,0,0,1-1.941,1.133v.031a2.713,2.713,0,0,1,1.184.711,4.4,4.4,0,0,1,.848,1.461l1.1,2.852Zm-.32-7.648a1.173,1.173,0,0,0-.344-.891,1.517,1.517,0,0,0-1.078-.328h-.7V109.7h.609a1.547,1.547,0,0,0,1.094-.383A1.254,1.254,0,0,0,6.594,108.352Zm12.047,3.969H12.992a2.992,2.992,0,0,0,.719,2.063,2.478,2.478,0,0,0,1.891.727,3.931,3.931,0,0,0,2.484-.891v1.2a4.643,4.643,0,0,1-2.789.766,3.381,3.381,0,0,1-2.664-1.09,4.461,4.461,0,0,1-.969-3.066,4.375,4.375,0,0,1,1.059-3.043,3.394,3.394,0,0,1,2.629-1.176,3.008,3.008,0,0,1,2.43,1.016,4.234,4.234,0,0,1,.859,2.82Zm-1.312-1.086a2.607,2.607,0,0,0-.535-1.727,1.823,1.823,0,0,0-1.465-.617,2.07,2.07,0,0,0-1.539.648,2.943,2.943,0,0,0-.781,1.7ZM21.859,116H20.578V104.156h1.281Zm9.023-3.68H25.234a2.992,2.992,0,0,0,.719,2.063,2.478,2.478,0,0,0,1.891.727,3.931,3.931,0,0,0,2.484-.891v1.2a4.643,4.643,0,0,1-2.789.766,3.381,3.381,0,0,1-2.664-1.09,4.461,4.461,0,0,1-.969-3.066,4.375,4.375,0,0,1,1.059-3.043,3.394,3.394,0,0,1,2.629-1.176,3.008,3.008,0,0,1,2.43,1.016,4.234,4.234,0,0,1,.859,2.82Zm-1.312-1.086a2.607,2.607,0,0,0-.535-1.727,1.823,1.823,0,0,0-1.465-.617,2.07,2.07,0,0,0-1.539.648,2.943,2.943,0,0,0-.781,1.7ZM39.109,108l-3.187,8H34.664l-3.031-8h1.406l2.031,5.813a5.217,5.217,0,0,1,.281,1.117h.031a5.283,5.283,0,0,1,.25-1.086L37.758,108Zm7.1,8H44.93v-1.25H44.9a2.682,2.682,0,0,1-2.461,1.438,2.63,2.63,0,0,1-1.871-.633,2.192,2.192,0,0,1-.676-1.68q0-2.242,2.641-2.609l2.4-.336q0-2.039-1.648-2.039a3.938,3.938,0,0,0-2.609.984v-1.312a4.958,4.958,0,0,1,2.719-.75q2.82,0,2.82,2.984Zm-1.281-4.047-1.93.266a3.133,3.133,0,0,0-1.344.441,1.273,1.273,0,0,0-.453,1.121,1.221,1.221,0,0,0,.418.957,1.615,1.615,0,0,0,1.113.371,2.056,2.056,0,0,0,1.574-.668,2.387,2.387,0,0,0,.621-1.691ZM55.266,116H53.984v-4.562q0-2.547-1.859-2.547a2.017,2.017,0,0,0-1.59.723,2.679,2.679,0,0,0-.629,1.824V116H48.625v-8h1.281v1.328h.031a2.887,2.887,0,0,1,2.625-1.516,2.448,2.448,0,0,1,2.008.848,3.776,3.776,0,0,1,.7,2.449Zm6.125-.078a2.47,2.47,0,0,1-1.2.25q-2.1,0-2.1-2.344v-4.734H56.719V108h1.375v-1.953l1.281-.414V108h2.016v1.094H59.375V113.6a1.869,1.869,0,0,0,.273,1.148,1.091,1.091,0,0,0,.906.344,1.347,1.347,0,0,0,.836-.266Zm8.141-3.6H63.883a2.992,2.992,0,0,0,.719,2.063,2.478,2.478,0,0,0,1.891.727,3.931,3.931,0,0,0,2.484-.891v1.2a4.643,4.643,0,0,1-2.789.766,3.381,3.381,0,0,1-2.664-1.09,4.461,4.461,0,0,1-.969-3.066,4.375,4.375,0,0,1,1.059-3.043,3.394,3.394,0,0,1,2.629-1.176,3.008,3.008,0,0,1,2.43,1.016,4.234,4.234,0,0,1,.859,2.82Zm-1.312-1.086a2.607,2.607,0,0,0-.535-1.727,1.823,1.823,0,0,0-1.465-.617,2.07,2.07,0,0,0-1.539.648,2.943,2.943,0,0,0-.781,1.7Zm2.766,4.477v-1.375a3.792,3.792,0,0,0,2.3.773q1.688,0,1.688-1.125a.976.976,0,0,0-.145-.543,1.44,1.44,0,0,0-.391-.395,3.007,3.007,0,0,0-.578-.309q-.332-.137-.715-.285a9.207,9.207,0,0,1-.934-.426,2.82,2.82,0,0,1-.672-.484,1.8,1.8,0,0,1-.406-.613,2.17,2.17,0,0,1-.137-.8,1.912,1.912,0,0,1,.258-1,2.286,2.286,0,0,1,.688-.727,3.206,3.206,0,0,1,.98-.441,4.349,4.349,0,0,1,1.137-.148,4.59,4.59,0,0,1,1.859.359v1.3a3.624,3.624,0,0,0-2.031-.578,2.374,2.374,0,0,0-.648.082,1.587,1.587,0,0,0-.5.23,1.065,1.065,0,0,0-.32.355.936.936,0,0,0-.113.457,1.1,1.1,0,0,0,.113.523,1.152,1.152,0,0,0,.332.375,2.538,2.538,0,0,0,.531.3q.313.133.711.289a9.9,9.9,0,0,1,.953.418,3.269,3.269,0,0,1,.719.484,1.893,1.893,0,0,1,.457.621,2,2,0,0,1,.16.836,1.971,1.971,0,0,1-.262,1.031,2.243,2.243,0,0,1-.7.727,3.2,3.2,0,0,1-1.008.43,4.976,4.976,0,0,1-1.2.141A4.539,4.539,0,0,1,70.984,115.711ZM10.141,149H8.688L7.5,145.859H2.75L1.633,149H.172l4.3-11.2H5.828Zm-3.07-4.32-1.758-4.773a4.571,4.571,0,0,1-.172-.75H5.109a4.185,4.185,0,0,1-.18.75L3.188,144.68Zm14.461-4.242V149H18.141v-8.562H15.008V137.8h9.7v2.641Zm5.367-1.469a.812.812,0,0,1-.586-.234.791.791,0,0,1-.242-.594.821.821,0,0,1,.828-.836.827.827,0,0,1,.6.238.835.835,0,0,1,0,1.184A.82.82,0,0,1,26.9,138.969ZM27.523,149H26.242v-8h1.281Zm9.023-3.68H30.9a2.992,2.992,0,0,0,.719,2.063,2.478,2.478,0,0,0,1.891.727,3.931,3.931,0,0,0,2.484-.891v1.2a4.643,4.643,0,0,1-2.789.766,3.381,3.381,0,0,1-2.664-1.09,4.461,4.461,0,0,1-.969-3.066,4.375,4.375,0,0,1,1.059-3.043,3.394,3.394,0,0,1,2.629-1.176,3.008,3.008,0,0,1,2.43,1.016,4.234,4.234,0,0,1,.859,2.82Zm-1.312-1.086a2.607,2.607,0,0,0-.535-1.727,1.823,1.823,0,0,0-1.465-.617,2.07,2.07,0,0,0-1.539.648,2.943,2.943,0,0,0-.781,1.7ZM49.844,149H48.563v-4.594a3.466,3.466,0,0,0-.41-1.922,1.555,1.555,0,0,0-1.379-.594,1.708,1.708,0,0,0-1.395.75,2.869,2.869,0,0,0-.574,1.8V149H43.523v-4.75q0-2.359-1.82-2.359a1.686,1.686,0,0,0-1.391.707,2.923,2.923,0,0,0-.547,1.84V149H38.484v-8h1.281v1.266H39.8a2.718,2.718,0,0,1,2.484-1.453,2.311,2.311,0,0,1,2.266,1.656,2.855,2.855,0,0,1,2.656-1.656q2.641,0,2.641,3.258Zm3.734-1.156h-.031v4.836H52.266V141h1.281v1.406h.031a3.03,3.03,0,0,1,2.766-1.594,2.93,2.93,0,0,1,2.414,1.074,4.449,4.449,0,0,1,.867,2.879,4.959,4.959,0,0,1-.977,3.215,3.251,3.251,0,0,1-2.672,1.207A2.676,2.676,0,0,1,53.578,147.844Zm-.031-3.227v1.117a2.379,2.379,0,0,0,.645,1.684,2.3,2.3,0,0,0,3.461-.2,4.086,4.086,0,0,0,.66-2.477,3.225,3.225,0,0,0-.617-2.094,2.043,2.043,0,0,0-1.672-.758,2.27,2.27,0,0,0-1.8.777A2.854,2.854,0,0,0,53.547,144.617Zm11.469,4.57a3.711,3.711,0,0,1-2.832-1.121,4.153,4.153,0,0,1-1.059-2.973,4.326,4.326,0,0,1,1.1-3.148,3.96,3.96,0,0,1,2.977-1.133,3.588,3.588,0,0,1,2.793,1.1,4.368,4.368,0,0,1,1,3.055,4.3,4.3,0,0,1-1.082,3.066A3.791,3.791,0,0,1,65.016,149.188Zm.094-7.3a2.437,2.437,0,0,0-1.953.84,3.449,3.449,0,0,0-.719,2.316,3.262,3.262,0,0,0,.727,2.242,2.469,2.469,0,0,0,1.945.82,2.342,2.342,0,0,0,1.91-.8,3.492,3.492,0,0,0,.668-2.289,3.552,3.552,0,0,0-.668-2.312A2.332,2.332,0,0,0,65.109,141.891Z" transform="translate(872.667 5009.49)" fill="#12263f"/>
    <path id="Trazado_998052" data-name="Trazado 998052" d="M6.352,5.8A18.768,18.768,0,0,0,4.605,7.766a13.3,13.3,0,0,0-1.324,2.1,11.049,11.049,0,0,0-.844,2.254,9.991,9.991,0,0,0-.215,3.7,9.556,9.556,0,0,0,.246,1.25,10.148,10.148,0,0,0,.4,1.191,7.436,7.436,0,0,0,.539,1.078H2.3a7.428,7.428,0,0,1-.574-1.1,9.192,9.192,0,0,1-.41-1.191,9.557,9.557,0,0,1-.246-1.227,9.129,9.129,0,0,1-.082-1.2,10.858,10.858,0,0,1,.289-2.551A11.1,11.1,0,0,1,2.1,9.781,12.112,12.112,0,0,1,3.395,7.707,18.134,18.134,0,0,1,5.1,5.8Zm6.258,1.68a2.843,2.843,0,0,0-.465-.266,4.441,4.441,0,0,0-.578-.219,4.953,4.953,0,0,0-.645-.148,4.128,4.128,0,0,0-.664-.055,2.761,2.761,0,0,0-1.051.176,1.97,1.97,0,0,0-.684.445A1.643,1.643,0,0,0,8.152,8a1.809,1.809,0,0,0-.113.6,2.043,2.043,0,0,0,.1.664,2.089,2.089,0,0,0,.3.57,3.385,3.385,0,0,0,.523.547q.32.273.75.586a10.219,10.219,0,0,1,.863.7,4.731,4.731,0,0,1,.645.707,2.843,2.843,0,0,1,.4.766,2.691,2.691,0,0,1,.137.871,3.856,3.856,0,0,1-.059.637,3.019,3.019,0,0,1-.211.7,3.1,3.1,0,0,1-.418.688,2.643,2.643,0,0,1-.676.594,3.629,3.629,0,0,1-.988.414,5.246,5.246,0,0,1-1.359.156,5.857,5.857,0,0,1-.859-.062,7.127,7.127,0,0,1-.8-.164,5.88,5.88,0,0,1-.7-.23,5.183,5.183,0,0,1-.543-.254l.227-1.359a4.177,4.177,0,0,0,.57.34,5.371,5.371,0,0,0,1.422.473,4.188,4.188,0,0,0,.758.07,3.268,3.268,0,0,0,1.02-.141,1.98,1.98,0,0,0,.7-.387,1.476,1.476,0,0,0,.406-.582,2.011,2.011,0,0,0,.129-.727,1.734,1.734,0,0,0-.109-.633,1.971,1.971,0,0,0-.336-.551,4.034,4.034,0,0,0-.574-.547q-.348-.277-.824-.613a7.946,7.946,0,0,1-.73-.59,4.127,4.127,0,0,1-.609-.691,3.3,3.3,0,0,1-.414-.816,2.915,2.915,0,0,1-.152-.957,3.138,3.138,0,0,1,.238-1.215,2.846,2.846,0,0,1,.707-1.008,3.421,3.421,0,0,1,1.16-.687,4.648,4.648,0,0,1,1.605-.254,5.7,5.7,0,0,1,.7.043q.348.043.676.117t.621.164q.293.09.52.184Zm8.273,4.32a6.075,6.075,0,0,1-.125,1.2,6.207,6.207,0,0,1-.383,1.223,6.02,6.02,0,0,1-.645,1.141,4.625,4.625,0,0,1-.91.949,4.22,4.22,0,0,1-1.187.648,4.323,4.323,0,0,1-1.469.238,4.833,4.833,0,0,1-.91-.086,5.6,5.6,0,0,1-.785-.2l-.8,3.8h-1.3l1.953-9.25q.055-.25.1-.6t.082-.707q.035-.355.059-.668T14.594,9h1.313q0,.133-.02.359t-.051.473q-.031.246-.062.477t-.055.371h.031A4.221,4.221,0,0,1,17,9.27,2.672,2.672,0,0,1,18.516,8.8a2.476,2.476,0,0,1,.984.188,1.949,1.949,0,0,1,.746.563,2.6,2.6,0,0,1,.473.938A4.675,4.675,0,0,1,20.883,11.8Zm-1.312.055a3.864,3.864,0,0,0-.074-.781,1.733,1.733,0,0,0-.246-.617,1.246,1.246,0,0,0-.441-.406,1.352,1.352,0,0,0-.66-.148,1.76,1.76,0,0,0-.762.168,2.623,2.623,0,0,0-.66.449,3.682,3.682,0,0,0-.555.652,6.484,6.484,0,0,0-.445.77,6.762,6.762,0,0,0-.332.8,6.037,6.037,0,0,0-.207.754l-.492,2.32a2.192,2.192,0,0,0,.336.113q.2.051.406.09t.43.063a3.83,3.83,0,0,0,.406.023,2.7,2.7,0,0,0,1-.18,2.891,2.891,0,0,0,.82-.488,3.446,3.446,0,0,0,.641-.727,4.821,4.821,0,0,0,.465-.891,5.242,5.242,0,0,0,.281-.977A5.4,5.4,0,0,0,19.57,11.852Zm9.406-.977a2.381,2.381,0,0,1-.281,1.152,2.331,2.331,0,0,1-.93.891,5.584,5.584,0,0,1-1.711.574,14.678,14.678,0,0,1-2.625.211,1,1,0,0,0-.016.18v.156a2.657,2.657,0,0,0,.117.8,1.8,1.8,0,0,0,.363.656,1.714,1.714,0,0,0,.633.445,2.341,2.341,0,0,0,.918.164,3.9,3.9,0,0,0,1.184-.207,5.087,5.087,0,0,0,1.23-.59l-.242,1.266a5.078,5.078,0,0,1-1.023.438,4.4,4.4,0,0,1-1.328.188,3.609,3.609,0,0,1-1.488-.273,2.621,2.621,0,0,1-.977-.73,2.848,2.848,0,0,1-.535-1.055,4.716,4.716,0,0,1-.164-1.254,5.8,5.8,0,0,1,.156-1.355,5.519,5.519,0,0,1,.441-1.215,5.148,5.148,0,0,1,.684-1.027,4.444,4.444,0,0,1,.883-.793A4.092,4.092,0,0,1,25.3,8.984a3.7,3.7,0,0,1,1.148-.18,3.319,3.319,0,0,1,1.09.164,2.277,2.277,0,0,1,.789.449,1.915,1.915,0,0,1,.48.66A1.966,1.966,0,0,1,28.977,10.875Zm-1.3.063a.9.9,0,0,0-.363-.766,1.565,1.565,0,0,0-.965-.273,2.163,2.163,0,0,0-.922.207,2.984,2.984,0,0,0-.82.57,3.56,3.56,0,0,0-.648.867,4.038,4.038,0,0,0-.4,1.09,13.5,13.5,0,0,0,1.9-.113,4.925,4.925,0,0,0,1.273-.332,1.712,1.712,0,0,0,.719-.535A1.2,1.2,0,0,0,27.672,10.938Zm8.359-.352a2.941,2.941,0,0,0-.793-.488,2.582,2.582,0,0,0-1.027-.2,2.427,2.427,0,0,0-.973.188,2.684,2.684,0,0,0-.77.5,3.244,3.244,0,0,0-.578.719,4.792,4.792,0,0,0-.4.844,5.193,5.193,0,0,0-.23.871,4.81,4.81,0,0,0-.074.809,2.552,2.552,0,0,0,.492,1.7,1.672,1.672,0,0,0,1.344.578,2.957,2.957,0,0,0,1.07-.215,5.151,5.151,0,0,0,1.047-.551l-.273,1.281a5.483,5.483,0,0,1-1.012.426,3.666,3.666,0,0,1-1.066.152,3.029,3.029,0,0,1-1.277-.25,2.5,2.5,0,0,1-.9-.687,2.946,2.946,0,0,1-.539-1.035,4.472,4.472,0,0,1-.18-1.293,6.315,6.315,0,0,1,.133-1.293,5.569,5.569,0,0,1,.395-1.2,5.218,5.218,0,0,1,.645-1.051A4.107,4.107,0,0,1,33.047,9a4.451,4.451,0,0,1,1.961-.152,3.8,3.8,0,0,1,.555.125,3.737,3.737,0,0,1,.445.168,1.829,1.829,0,0,1,.313.176Zm3.477,6.383a2.994,2.994,0,0,1-.441.1,3.111,3.111,0,0,1-.488.039,1.594,1.594,0,0,1-1.18-.395,1.439,1.439,0,0,1-.391-1.059,3.227,3.227,0,0,1,.039-.461q.039-.266.125-.656L38.336,9h1.3l-1.172,5.57q-.07.328-.1.508a2.078,2.078,0,0,0-.027.3.644.644,0,0,0,.176.488.787.787,0,0,0,.559.168,2.366,2.366,0,0,0,.355-.023,1.575,1.575,0,0,0,.285-.07Zm.914-10.82a.841.841,0,0,1-.238.6.782.782,0,0,1-.59.25.831.831,0,0,1-.6-.246.81.81,0,0,1-.254-.605A.749.749,0,0,1,39,5.563a.869.869,0,0,1,.6-.227.819.819,0,0,1,.586.23A.769.769,0,0,1,40.422,6.148Zm6.406.117a1.339,1.339,0,0,0-.187-.074q-.109-.035-.234-.066a2.588,2.588,0,0,0-.262-.051,1.852,1.852,0,0,0-.262-.02,1.213,1.213,0,0,0-.988.418,2.912,2.912,0,0,0-.527,1.246L44.078,9h1.891l-.258,1.086H43.82l-2.047,9.57h-1.3l2.063-9.57H41.164L41.406,9h1.375l.32-1.484a4.341,4.341,0,0,1,.414-1.172,2.689,2.689,0,0,1,.633-.789,2.358,2.358,0,0,1,.832-.445A3.509,3.509,0,0,1,46,4.969a3.393,3.393,0,0,1,.566.047,3.473,3.473,0,0,1,.473.109Zm1.539,10.7a2.994,2.994,0,0,1-.441.1,3.111,3.111,0,0,1-.488.039,1.594,1.594,0,0,1-1.18-.395,1.439,1.439,0,0,1-.391-1.059,3.227,3.227,0,0,1,.039-.461q.039-.266.125-.656L47.2,9h1.3L47.32,14.57q-.07.328-.1.508a2.078,2.078,0,0,0-.027.3.644.644,0,0,0,.176.488.787.787,0,0,0,.559.168,2.366,2.366,0,0,0,.355-.023,1.575,1.575,0,0,0,.285-.07Zm.914-10.82a.841.841,0,0,1-.238.6.782.782,0,0,1-.59.25.831.831,0,0,1-.6-.246.81.81,0,0,1-.254-.605.749.749,0,0,1,.254-.586.869.869,0,0,1,.6-.227.819.819,0,0,1,.586.23A.769.769,0,0,1,49.281,6.148Zm6.727,4.438a2.941,2.941,0,0,0-.793-.488,2.582,2.582,0,0,0-1.027-.2,2.427,2.427,0,0,0-.973.188,2.684,2.684,0,0,0-.77.5,3.244,3.244,0,0,0-.578.719,4.793,4.793,0,0,0-.4.844,5.193,5.193,0,0,0-.23.871,4.81,4.81,0,0,0-.074.809,2.552,2.552,0,0,0,.492,1.7A1.672,1.672,0,0,0,53,16.1a2.957,2.957,0,0,0,1.07-.215,5.151,5.151,0,0,0,1.047-.551l-.273,1.281a5.483,5.483,0,0,1-1.012.426,3.666,3.666,0,0,1-1.066.152,3.029,3.029,0,0,1-1.277-.25,2.5,2.5,0,0,1-.9-.687,2.946,2.946,0,0,1-.539-1.035,4.472,4.472,0,0,1-.18-1.293A6.315,6.315,0,0,1,50,12.637a5.569,5.569,0,0,1,.395-1.2,5.218,5.218,0,0,1,.645-1.051A4.107,4.107,0,0,1,53.023,9a4.451,4.451,0,0,1,1.961-.152,3.8,3.8,0,0,1,.555.125,3.737,3.737,0,0,1,.445.168,1.829,1.829,0,0,1,.313.176Zm4.164-.062a10.731,10.731,0,0,1-1.113,4.832,12.372,12.372,0,0,1-1.3,2.07,18.134,18.134,0,0,1-1.707,1.91H54.8a19.358,19.358,0,0,0,1.75-1.965,12.992,12.992,0,0,0,1.328-2.1,11.049,11.049,0,0,0,.844-2.254,9.97,9.97,0,0,0,.215-3.691,10.184,10.184,0,0,0-.242-1.25,9.587,9.587,0,0,0-.395-1.2A7.809,7.809,0,0,0,57.758,5.8h1.086a7.983,7.983,0,0,1,.578,1.109,9.014,9.014,0,0,1,.414,1.2,10.08,10.08,0,0,1,.25,1.223A8.637,8.637,0,0,1,60.172,10.523ZM6.352,38.8a18.768,18.768,0,0,0-1.746,1.969,13.3,13.3,0,0,0-1.324,2.1,11.049,11.049,0,0,0-.844,2.254,9.991,9.991,0,0,0-.215,3.7,9.556,9.556,0,0,0,.246,1.25,10.148,10.148,0,0,0,.4,1.191,7.436,7.436,0,0,0,.539,1.078H2.3a7.428,7.428,0,0,1-.574-1.1,9.192,9.192,0,0,1-.41-1.191,9.557,9.557,0,0,1-.246-1.227,9.129,9.129,0,0,1-.082-1.2,10.858,10.858,0,0,1,.289-2.551,11.1,11.1,0,0,1,.82-2.285,12.112,12.112,0,0,1,1.293-2.074A18.133,18.133,0,0,1,5.1,38.8ZM15.617,50h-1.3l1.594-7.516q.094-.445.242-1.012t.344-1.215h-.031q-.094.188-.234.418t-.293.445q-.152.215-.277.387t-.18.258l-4.008,5.313h-.641l-1.75-5.3A1.939,1.939,0,0,0,9,41.512q-.059-.176-.113-.391t-.1-.441a2.273,2.273,0,0,1-.043-.422H8.719q-.047.336-.152.906T8.3,42.5L6.711,50H5.445L7.82,38.8H9.383l1.773,5.328a6.393,6.393,0,0,1,.184.656,3.757,3.757,0,0,1,.082.531h.047q.125-.234.3-.547a5.787,5.787,0,0,1,.461-.672l4.023-5.3h1.734Zm9.82-6.125a2.381,2.381,0,0,1-.281,1.152,2.331,2.331,0,0,1-.93.891,5.584,5.584,0,0,1-1.711.574,14.678,14.678,0,0,1-2.625.211,1,1,0,0,0-.016.18v.156a2.657,2.657,0,0,0,.117.8,1.8,1.8,0,0,0,.363.656,1.714,1.714,0,0,0,.633.445,2.341,2.341,0,0,0,.918.164,3.9,3.9,0,0,0,1.184-.207,5.087,5.087,0,0,0,1.23-.59l-.242,1.266a5.078,5.078,0,0,1-1.023.438,4.4,4.4,0,0,1-1.328.188,3.609,3.609,0,0,1-1.488-.273,2.621,2.621,0,0,1-.977-.73,2.848,2.848,0,0,1-.535-1.055,4.716,4.716,0,0,1-.164-1.254,5.8,5.8,0,0,1,.156-1.355,5.519,5.519,0,0,1,.441-1.215,5.148,5.148,0,0,1,.684-1.027,4.444,4.444,0,0,1,.883-.793,4.093,4.093,0,0,1,1.039-.508,3.7,3.7,0,0,1,1.148-.18,3.319,3.319,0,0,1,1.09.164,2.277,2.277,0,0,1,.789.449,1.915,1.915,0,0,1,.48.66A1.966,1.966,0,0,1,25.438,43.875Zm-1.3.063a.9.9,0,0,0-.363-.766A1.565,1.565,0,0,0,22.8,42.9a2.163,2.163,0,0,0-.922.207,2.983,2.983,0,0,0-.82.57,3.56,3.56,0,0,0-.648.867,4.038,4.038,0,0,0-.4,1.09,13.5,13.5,0,0,0,1.9-.113,4.925,4.925,0,0,0,1.273-.332,1.712,1.712,0,0,0,.719-.535A1.2,1.2,0,0,0,24.133,43.938Zm8.68,3.5q-.063.3-.121.668t-.1.734q-.043.363-.07.676T32.492,50H31.164q.008-.156.023-.375t.043-.453q.027-.234.055-.461t.059-.391h-.031q-.242.383-.492.723a3.478,3.478,0,0,1-.555.6,2.429,2.429,0,0,1-.68.406,2.612,2.612,0,0,1-1.84-.039A2.006,2.006,0,0,1,27,49.449a2.574,2.574,0,0,1-.48-.93,4.532,4.532,0,0,1-.168-1.3,6.518,6.518,0,0,1,.094-1.031,6.309,6.309,0,0,1,.316-1.18,6.006,6.006,0,0,1,.594-1.176,4.465,4.465,0,0,1,.922-1.027,4.4,4.4,0,0,1,1.3-.727,5.051,5.051,0,0,1,1.734-.273A9.22,9.22,0,0,1,32.6,41.9q.664.094,1.32.227Zm-.367-4.383q-.273-.063-.641-.109a5.447,5.447,0,0,0-.687-.047,3.118,3.118,0,0,0-1.2.215,3.077,3.077,0,0,0-.9.563,3.313,3.313,0,0,0-.645.8,4.965,4.965,0,0,0-.418.926,5.449,5.449,0,0,0-.223.934,5.91,5.91,0,0,0-.066.836,3.744,3.744,0,0,0,.078.8,1.749,1.749,0,0,0,.246.605,1.156,1.156,0,0,0,.43.387,1.325,1.325,0,0,0,.621.137,1.692,1.692,0,0,0,.73-.16,2.532,2.532,0,0,0,.637-.434,3.56,3.56,0,0,0,.539-.633,6.225,6.225,0,0,0,.438-.762,6.515,6.515,0,0,0,.332-.82q.137-.418.223-.809Zm7.633.352a3.329,3.329,0,0,0-.789-.367,2.845,2.845,0,0,0-.875-.141,1.726,1.726,0,0,0-1.137.336,1.1,1.1,0,0,0-.4.891,1.116,1.116,0,0,0,.074.414,1.25,1.25,0,0,0,.219.355,1.986,1.986,0,0,0,.367.324q.223.156.512.336A4.028,4.028,0,0,1,39.309,46.6,2.01,2.01,0,0,1,39.7,47.8a2.435,2.435,0,0,1-.168.887,2,2,0,0,1-.535.766,2.745,2.745,0,0,1-.949.535,4.331,4.331,0,0,1-1.418.2,4.7,4.7,0,0,1-.516-.031,5.461,5.461,0,0,1-.566-.094A4.942,4.942,0,0,1,35,49.918a2.407,2.407,0,0,1-.457-.207l.258-1.219a2.692,2.692,0,0,0,.387.219,4,4,0,0,0,.5.2,4.672,4.672,0,0,0,.563.141,3.166,3.166,0,0,0,.582.055A1.834,1.834,0,0,0,38,48.789a1.053,1.053,0,0,0,.387-.867,1.155,1.155,0,0,0-.059-.375,1.052,1.052,0,0,0-.207-.344,2.3,2.3,0,0,0-.391-.348q-.242-.176-.609-.395a3.947,3.947,0,0,1-1.176-1.012,1.992,1.992,0,0,1-.379-1.191,2.432,2.432,0,0,1,.18-.926,2.24,2.24,0,0,1,.535-.781,2.6,2.6,0,0,1,.895-.543,3.559,3.559,0,0,1,1.258-.2,5.018,5.018,0,0,1,1.066.109,3.786,3.786,0,0,1,.855.281ZM48,47.727q-.07.3-.129.633l-.113.633q-.055.3-.094.57T47.6,50h-1.25q.039-.3.09-.637t.1-.613q.055-.328.1-.641h-.031a6.607,6.607,0,0,1-.605.809,4.531,4.531,0,0,1-.719.664,3.413,3.413,0,0,1-.82.449,2.529,2.529,0,0,1-.9.164,2.346,2.346,0,0,1-.9-.16,1.741,1.741,0,0,1-.645-.449,1.886,1.886,0,0,1-.387-.7,2.988,2.988,0,0,1-.129-.906,2.2,2.2,0,0,1,.031-.3q.031-.2.07-.437t.09-.465q.051-.23.082-.395L42.7,42H44l-.992,4.688q-.031.125-.062.289t-.059.328q-.027.164-.043.3a2.009,2.009,0,0,0-.016.215,1.427,1.427,0,0,0,.285.934,1.042,1.042,0,0,0,.855.348,1.8,1.8,0,0,0,.688-.141,3.128,3.128,0,0,0,.668-.379,4.2,4.2,0,0,0,.613-.555,5.41,5.41,0,0,0,.523-.672,4.879,4.879,0,0,0,.4-.73,4.028,4.028,0,0,0,.242-.719L47.938,42h1.289Zm7.648-4.367h-.031a2.307,2.307,0,0,0-.41-.184,1.5,1.5,0,0,0-.5-.09,1.479,1.479,0,0,0-.867.293,3.188,3.188,0,0,0-.754.773,5.549,5.549,0,0,0-.594,1.1,7.5,7.5,0,0,0-.395,1.266L51.344,50H50.063l1.125-5.312q.07-.328.141-.687t.129-.719q.059-.359.105-.687t.07-.594H52.9q-.023.234-.055.5T52.781,43q-.031.246-.062.445t-.047.309H52.7a8.623,8.623,0,0,1,.508-.8,3.718,3.718,0,0,1,.543-.613,2.3,2.3,0,0,1,.605-.395,1.71,1.71,0,0,1,.7-.141,2.206,2.206,0,0,1,.434.043q.215.043.387.09Zm6.766,4.078q-.063.3-.121.668t-.1.734q-.043.363-.07.676T62.094,50H60.766q.008-.156.023-.375t.043-.453q.027-.234.055-.461t.059-.391h-.031q-.242.383-.492.723a3.478,3.478,0,0,1-.555.6,2.429,2.429,0,0,1-.68.406,2.612,2.612,0,0,1-1.84-.039,2.006,2.006,0,0,1-.746-.559,2.574,2.574,0,0,1-.48-.93,4.532,4.532,0,0,1-.168-1.3,6.518,6.518,0,0,1,.094-1.031,6.309,6.309,0,0,1,.316-1.18,6.006,6.006,0,0,1,.594-1.176,4.465,4.465,0,0,1,.922-1.027,4.4,4.4,0,0,1,1.3-.727,5.051,5.051,0,0,1,1.734-.273A9.22,9.22,0,0,1,62.2,41.9q.664.094,1.32.227Zm-.367-4.383q-.273-.063-.641-.109a5.447,5.447,0,0,0-.687-.047,3.118,3.118,0,0,0-1.2.215,3.077,3.077,0,0,0-.9.563,3.313,3.313,0,0,0-.645.8,4.965,4.965,0,0,0-.418.926,5.448,5.448,0,0,0-.223.934,5.91,5.91,0,0,0-.066.836,3.744,3.744,0,0,0,.078.8,1.748,1.748,0,0,0,.246.605,1.156,1.156,0,0,0,.43.387,1.325,1.325,0,0,0,.621.137,1.692,1.692,0,0,0,.73-.16,2.532,2.532,0,0,0,.637-.434,3.56,3.56,0,0,0,.539-.633,6.225,6.225,0,0,0,.438-.762,6.515,6.515,0,0,0,.332-.82q.137-.418.223-.809ZM72.078,44.8a6.412,6.412,0,0,1-.109,1.137,6.073,6.073,0,0,1-.352,1.2A6.237,6.237,0,0,1,71,48.289a4.4,4.4,0,0,1-.9.977,4.314,4.314,0,0,1-1.219.676,4.523,4.523,0,0,1-1.566.254,5.644,5.644,0,0,1-.742-.051A6.466,6.466,0,0,1,65.82,50a5.84,5.84,0,0,1-.7-.227,3.7,3.7,0,0,1-.609-.3l2.406-11.312h1.3l-.8,3.828q-.086.383-.176.8t-.176.75h.016a5.586,5.586,0,0,1,.531-.719,3.394,3.394,0,0,1,.605-.547,2.635,2.635,0,0,1,.7-.348,2.593,2.593,0,0,1,.809-.121,2.1,2.1,0,0,1,1.754.781A3.507,3.507,0,0,1,72.078,44.8Zm-1.312.031a3.625,3.625,0,0,0-.082-.8,1.71,1.71,0,0,0-.258-.609,1.161,1.161,0,0,0-.449-.383,1.509,1.509,0,0,0-.664-.133,1.732,1.732,0,0,0-.945.289,3.355,3.355,0,0,0-.828.766,5.242,5.242,0,0,0-.648,1.078,5.622,5.622,0,0,0-.4,1.227l-.523,2.492a2.765,2.765,0,0,0,.668.25,3.386,3.386,0,0,0,.832.1,2.721,2.721,0,0,0,1.016-.184,2.859,2.859,0,0,0,.828-.5,3.517,3.517,0,0,0,.641-.742,4.73,4.73,0,0,0,.453-.895,5.419,5.419,0,0,0,.27-.977A5.54,5.54,0,0,0,70.766,44.828Zm5.172,5.141a2.994,2.994,0,0,1-.441.1,3.11,3.11,0,0,1-.488.039,1.594,1.594,0,0,1-1.18-.395,1.439,1.439,0,0,1-.391-1.059,3.228,3.228,0,0,1,.039-.461q.039-.266.125-.656l2-9.391h1.3L74.891,47.57q-.07.328-.1.508a2.079,2.079,0,0,0-.027.3.644.644,0,0,0,.176.488.787.787,0,0,0,.559.168,2.366,2.366,0,0,0,.355-.023,1.575,1.575,0,0,0,.285-.07Zm8.375-6.094a2.381,2.381,0,0,1-.281,1.152,2.331,2.331,0,0,1-.93.891,5.584,5.584,0,0,1-1.711.574,14.678,14.678,0,0,1-2.625.211,1,1,0,0,0-.016.18v.156a2.657,2.657,0,0,0,.117.8,1.8,1.8,0,0,0,.363.656,1.714,1.714,0,0,0,.633.445,2.341,2.341,0,0,0,.918.164,3.9,3.9,0,0,0,1.184-.207,5.087,5.087,0,0,0,1.23-.59l-.242,1.266a5.078,5.078,0,0,1-1.023.438A4.4,4.4,0,0,1,80.6,50.2a3.609,3.609,0,0,1-1.488-.273,2.621,2.621,0,0,1-.977-.73,2.848,2.848,0,0,1-.535-1.055,4.716,4.716,0,0,1-.164-1.254,5.8,5.8,0,0,1,.156-1.355,5.519,5.519,0,0,1,.441-1.215,5.148,5.148,0,0,1,.684-1.027,4.444,4.444,0,0,1,.883-.793,4.093,4.093,0,0,1,1.039-.508,3.7,3.7,0,0,1,1.148-.18,3.319,3.319,0,0,1,1.09.164,2.277,2.277,0,0,1,.789.449,1.915,1.915,0,0,1,.48.66A1.966,1.966,0,0,1,84.313,43.875Zm-1.3.063a.9.9,0,0,0-.363-.766,1.565,1.565,0,0,0-.965-.273,2.163,2.163,0,0,0-.922.207,2.983,2.983,0,0,0-.82.57,3.56,3.56,0,0,0-.648.867,4.038,4.038,0,0,0-.4,1.09,13.5,13.5,0,0,0,1.9-.113,4.925,4.925,0,0,0,1.273-.332,1.712,1.712,0,0,0,.719-.535A1.2,1.2,0,0,0,83.008,43.938Zm5.547-.414a10.731,10.731,0,0,1-1.113,4.832,12.372,12.372,0,0,1-1.3,2.07,18.133,18.133,0,0,1-1.707,1.91H83.18a19.358,19.358,0,0,0,1.75-1.965,12.993,12.993,0,0,0,1.328-2.1A11.048,11.048,0,0,0,87.1,46.02a9.97,9.97,0,0,0,.215-3.691,10.184,10.184,0,0,0-.242-1.25,9.587,9.587,0,0,0-.395-1.2,7.809,7.809,0,0,0-.539-1.086h1.086a7.982,7.982,0,0,1,.578,1.109,9.014,9.014,0,0,1,.414,1.2,10.079,10.079,0,0,1,.25,1.223A8.638,8.638,0,0,1,88.555,43.523ZM6.352,71.8a18.767,18.767,0,0,0-1.746,1.969,13.3,13.3,0,0,0-1.324,2.1,11.049,11.049,0,0,0-.844,2.254,9.991,9.991,0,0,0-.215,3.7,9.556,9.556,0,0,0,.246,1.25,10.148,10.148,0,0,0,.4,1.191,7.437,7.437,0,0,0,.539,1.078H2.3a7.428,7.428,0,0,1-.574-1.1,9.192,9.192,0,0,1-.41-1.191,9.557,9.557,0,0,1-.246-1.227,9.129,9.129,0,0,1-.082-1.2,10.858,10.858,0,0,1,.289-2.551,11.1,11.1,0,0,1,.82-2.285,12.112,12.112,0,0,1,1.293-2.074A18.134,18.134,0,0,1,5.1,71.8ZM12.672,83l-.508-3.133H7.414L5.6,83H4.055l6.672-11.2H12.1L14.055,83Zm-1.437-9.086q-.008-.078-.012-.18t0-.2q0-.109,0-.2t0-.172h-.031q-.023.07-.062.168t-.086.2q-.047.105-.1.207l-.09.18L8.086,78.68h3.867Zm10.492,2.672a2.94,2.94,0,0,0-.793-.488,2.582,2.582,0,0,0-1.027-.2,2.427,2.427,0,0,0-.973.188,2.684,2.684,0,0,0-.77.5,3.244,3.244,0,0,0-.578.719,4.792,4.792,0,0,0-.4.844,5.193,5.193,0,0,0-.23.871,4.81,4.81,0,0,0-.074.809,2.552,2.552,0,0,0,.492,1.7,1.672,1.672,0,0,0,1.344.578,2.957,2.957,0,0,0,1.07-.215,5.151,5.151,0,0,0,1.047-.551l-.273,1.281a5.483,5.483,0,0,1-1.012.426,3.666,3.666,0,0,1-1.066.152,3.029,3.029,0,0,1-1.277-.25,2.5,2.5,0,0,1-.9-.687,2.946,2.946,0,0,1-.539-1.035,4.472,4.472,0,0,1-.18-1.293,6.315,6.315,0,0,1,.133-1.293,5.569,5.569,0,0,1,.395-1.2,5.218,5.218,0,0,1,.645-1.051A4.107,4.107,0,0,1,18.742,75a4.451,4.451,0,0,1,1.961-.152,3.8,3.8,0,0,1,.555.125,3.737,3.737,0,0,1,.445.168,1.829,1.829,0,0,1,.313.176Zm8.32.43a2.6,2.6,0,0,1-.027.309q-.027.207-.062.441t-.078.465q-.043.23-.082.387L28.867,83h-1.3l.977-4.687q.031-.125.063-.289t.055-.328q.023-.164.039-.3a2.01,2.01,0,0,0,.016-.215,1.446,1.446,0,0,0-.277-.945,1.046,1.046,0,0,0-.855-.336,1.963,1.963,0,0,0-1,.293,4.069,4.069,0,0,0-.93.758,5.27,5.27,0,0,0-.746,1.039,4.286,4.286,0,0,0-.441,1.137L23.633,83h-1.3l2.531-11.844h1.281L24.93,76.875h.031a6.451,6.451,0,0,1,.633-.824,4.636,4.636,0,0,1,.73-.656,3.4,3.4,0,0,1,.813-.434,2.532,2.532,0,0,1,.879-.156,1.905,1.905,0,0,1,1.516.59A2.38,2.38,0,0,1,30.047,77.016Zm4.07,5.953a2.994,2.994,0,0,1-.441.1,3.111,3.111,0,0,1-.488.039,1.594,1.594,0,0,1-1.18-.395,1.439,1.439,0,0,1-.391-1.059,3.228,3.228,0,0,1,.039-.461q.039-.266.125-.656L32.945,75h1.3L33.07,80.57q-.07.328-.1.508a2.078,2.078,0,0,0-.027.3.644.644,0,0,0,.176.488.787.787,0,0,0,.559.168,2.366,2.366,0,0,0,.355-.023,1.575,1.575,0,0,0,.285-.07Zm.914-10.82a.841.841,0,0,1-.238.6.782.782,0,0,1-.59.25.831.831,0,0,1-.6-.246.81.81,0,0,1-.254-.605.749.749,0,0,1,.254-.586.869.869,0,0,1,.6-.227.819.819,0,0,1,.586.23A.769.769,0,0,1,35.031,72.148Zm7.461,4.727a2.381,2.381,0,0,1-.281,1.152,2.331,2.331,0,0,1-.93.891,5.584,5.584,0,0,1-1.711.574,14.678,14.678,0,0,1-2.625.211,1,1,0,0,0-.016.18v.156a2.657,2.657,0,0,0,.117.8,1.8,1.8,0,0,0,.363.656,1.714,1.714,0,0,0,.633.445,2.341,2.341,0,0,0,.918.164,3.9,3.9,0,0,0,1.184-.207,5.087,5.087,0,0,0,1.23-.59l-.242,1.266a5.078,5.078,0,0,1-1.023.438,4.4,4.4,0,0,1-1.328.188,3.609,3.609,0,0,1-1.488-.273,2.621,2.621,0,0,1-.977-.73,2.848,2.848,0,0,1-.535-1.055,4.716,4.716,0,0,1-.164-1.254,5.8,5.8,0,0,1,.156-1.355,5.519,5.519,0,0,1,.441-1.215,5.149,5.149,0,0,1,.684-1.027,4.444,4.444,0,0,1,.883-.793,4.092,4.092,0,0,1,1.039-.508,3.7,3.7,0,0,1,1.148-.18,3.319,3.319,0,0,1,1.09.164,2.277,2.277,0,0,1,.789.449,1.915,1.915,0,0,1,.48.66A1.966,1.966,0,0,1,42.492,76.875Zm-1.3.063a.9.9,0,0,0-.363-.766,1.565,1.565,0,0,0-.965-.273,2.163,2.163,0,0,0-.922.207,2.984,2.984,0,0,0-.82.57,3.56,3.56,0,0,0-.648.867,4.038,4.038,0,0,0-.4,1.09,13.5,13.5,0,0,0,1.9-.113,4.925,4.925,0,0,0,1.273-.332,1.712,1.712,0,0,0,.719-.535A1.2,1.2,0,0,0,41.188,76.938ZM46.219,83H45.133l-1.266-8h1.3l.7,5.039q.023.148.043.336t.039.383q.02.2.027.383t.008.336h.031q.063-.141.145-.32t.184-.371q.1-.191.207-.387t.2-.359L49.609,75H51.07Zm11.219-2.562q-.063.3-.121.668t-.1.734q-.043.363-.07.676T57.117,83H55.789q.008-.156.023-.375t.043-.453q.027-.234.055-.461t.059-.391h-.031q-.242.383-.492.723a3.478,3.478,0,0,1-.555.6,2.429,2.429,0,0,1-.68.406,2.612,2.612,0,0,1-1.84-.039,2.006,2.006,0,0,1-.746-.559,2.574,2.574,0,0,1-.48-.93,4.532,4.532,0,0,1-.168-1.3,6.518,6.518,0,0,1,.094-1.031,6.309,6.309,0,0,1,.316-1.18,6.007,6.007,0,0,1,.594-1.176A4.465,4.465,0,0,1,52.9,75.8a4.4,4.4,0,0,1,1.3-.727,5.051,5.051,0,0,1,1.734-.273,9.22,9.22,0,0,1,1.289.094q.664.094,1.32.227Zm-.367-4.383q-.273-.062-.641-.109a5.447,5.447,0,0,0-.687-.047,3.119,3.119,0,0,0-1.2.215,3.077,3.077,0,0,0-.9.563,3.313,3.313,0,0,0-.645.8,4.965,4.965,0,0,0-.418.926,5.448,5.448,0,0,0-.223.934,5.91,5.91,0,0,0-.066.836,3.744,3.744,0,0,0,.078.8,1.748,1.748,0,0,0,.246.605,1.156,1.156,0,0,0,.43.387,1.325,1.325,0,0,0,.621.137,1.692,1.692,0,0,0,.73-.16,2.532,2.532,0,0,0,.637-.434,3.56,3.56,0,0,0,.539-.633,6.226,6.226,0,0,0,.438-.762,6.514,6.514,0,0,0,.332-.82q.137-.418.223-.809ZM67.1,77.8a6.412,6.412,0,0,1-.109,1.137,6.073,6.073,0,0,1-.352,1.2,6.237,6.237,0,0,1-.617,1.152,4.4,4.4,0,0,1-.9.977,4.314,4.314,0,0,1-1.219.676,4.523,4.523,0,0,1-1.566.254,5.645,5.645,0,0,1-.742-.051,6.466,6.466,0,0,1-.75-.145,5.84,5.84,0,0,1-.7-.227,3.7,3.7,0,0,1-.609-.3l2.406-11.312h1.3l-.8,3.828q-.086.383-.176.8t-.176.75h.016a5.586,5.586,0,0,1,.531-.719,3.394,3.394,0,0,1,.605-.547,2.635,2.635,0,0,1,.7-.348,2.593,2.593,0,0,1,.809-.121,2.1,2.1,0,0,1,1.754.781A3.507,3.507,0,0,1,67.1,77.8Zm-1.312.031a3.625,3.625,0,0,0-.082-.8,1.71,1.71,0,0,0-.258-.609A1.161,1.161,0,0,0,65,76.031a1.51,1.51,0,0,0-.664-.133,1.732,1.732,0,0,0-.945.289,3.356,3.356,0,0,0-.828.766,5.242,5.242,0,0,0-.648,1.078,5.621,5.621,0,0,0-.4,1.227l-.523,2.492a2.764,2.764,0,0,0,.668.25,3.386,3.386,0,0,0,.832.1,2.721,2.721,0,0,0,1.016-.184,2.859,2.859,0,0,0,.828-.5,3.517,3.517,0,0,0,.641-.742,4.731,4.731,0,0,0,.453-.895,5.418,5.418,0,0,0,.27-.977A5.54,5.54,0,0,0,65.789,77.828Zm5.172,5.141a2.994,2.994,0,0,1-.441.1,3.111,3.111,0,0,1-.488.039,1.594,1.594,0,0,1-1.18-.395,1.439,1.439,0,0,1-.391-1.059A3.228,3.228,0,0,1,68.5,81.2q.039-.266.125-.656l2-9.391h1.3L69.914,80.57q-.07.328-.1.508a2.079,2.079,0,0,0-.027.3.644.644,0,0,0,.176.488.787.787,0,0,0,.559.168,2.366,2.366,0,0,0,.355-.023,1.575,1.575,0,0,0,.285-.07Zm8.375-6.094a2.381,2.381,0,0,1-.281,1.152,2.331,2.331,0,0,1-.93.891,5.584,5.584,0,0,1-1.711.574,14.679,14.679,0,0,1-2.625.211,1,1,0,0,0-.016.18v.156a2.657,2.657,0,0,0,.117.8,1.8,1.8,0,0,0,.363.656,1.714,1.714,0,0,0,.633.445,2.341,2.341,0,0,0,.918.164,3.9,3.9,0,0,0,1.184-.207,5.087,5.087,0,0,0,1.23-.59l-.242,1.266a5.078,5.078,0,0,1-1.023.438,4.4,4.4,0,0,1-1.328.188,3.609,3.609,0,0,1-1.488-.273,2.621,2.621,0,0,1-.977-.73,2.848,2.848,0,0,1-.535-1.055,4.716,4.716,0,0,1-.164-1.254,5.8,5.8,0,0,1,.156-1.355,5.519,5.519,0,0,1,.441-1.215,5.148,5.148,0,0,1,.684-1.027,4.444,4.444,0,0,1,.883-.793,4.092,4.092,0,0,1,1.039-.508,3.7,3.7,0,0,1,1.148-.18,3.319,3.319,0,0,1,1.09.164,2.277,2.277,0,0,1,.789.449,1.915,1.915,0,0,1,.48.66A1.966,1.966,0,0,1,79.336,76.875Zm-1.3.063a.9.9,0,0,0-.363-.766A1.565,1.565,0,0,0,76.7,75.9a2.163,2.163,0,0,0-.922.207,2.984,2.984,0,0,0-.82.57,3.56,3.56,0,0,0-.648.867,4.038,4.038,0,0,0-.4,1.09,13.5,13.5,0,0,0,1.9-.113,4.925,4.925,0,0,0,1.273-.332,1.712,1.712,0,0,0,.719-.535A1.2,1.2,0,0,0,78.031,76.938Zm5.547-.414a10.731,10.731,0,0,1-1.113,4.832,12.372,12.372,0,0,1-1.3,2.07,18.134,18.134,0,0,1-1.707,1.91H78.2a19.358,19.358,0,0,0,1.75-1.965,12.992,12.992,0,0,0,1.328-2.1,11.048,11.048,0,0,0,.844-2.254,9.97,9.97,0,0,0,.215-3.691,10.184,10.184,0,0,0-.242-1.25,9.587,9.587,0,0,0-.395-1.2,7.809,7.809,0,0,0-.539-1.086H82.25a7.983,7.983,0,0,1,.578,1.109,9.014,9.014,0,0,1,.414,1.2,10.08,10.08,0,0,1,.25,1.223A8.638,8.638,0,0,1,83.578,76.523ZM6.352,104.8a18.767,18.767,0,0,0-1.746,1.969,13.3,13.3,0,0,0-1.324,2.1,11.049,11.049,0,0,0-.844,2.254,9.991,9.991,0,0,0-.215,3.7,9.556,9.556,0,0,0,.246,1.25,10.148,10.148,0,0,0,.4,1.191,7.437,7.437,0,0,0,.539,1.078H2.3a7.428,7.428,0,0,1-.574-1.1,9.192,9.192,0,0,1-.41-1.191,9.557,9.557,0,0,1-.246-1.227,9.129,9.129,0,0,1-.082-1.2,10.858,10.858,0,0,1,.289-2.551,11.1,11.1,0,0,1,.82-2.285,12.112,12.112,0,0,1,1.293-2.074A18.134,18.134,0,0,1,5.1,104.8ZM14,107.57a3.269,3.269,0,0,1-.254,1.313,3.031,3.031,0,0,1-.7,1.008,3.416,3.416,0,0,1-1.062.676,4.532,4.532,0,0,1-1.344.316v.031a1.3,1.3,0,0,1,.645.492,3.027,3.027,0,0,1,.449,1.008L12.672,116H11.234l-.828-3.344a2.026,2.026,0,0,0-.574-1.078,1.531,1.531,0,0,0-1.043-.344H7.813L6.789,116H5.445l2.367-11.2H10.9a4.028,4.028,0,0,1,1.406.219,2.615,2.615,0,0,1,.961.6,2.373,2.373,0,0,1,.555.883A3.175,3.175,0,0,1,14,107.57Zm-1.375.141a1.976,1.976,0,0,0-.117-.691,1.431,1.431,0,0,0-.359-.547,1.666,1.666,0,0,0-.617-.359,2.747,2.747,0,0,0-.891-.129H8.914l-.859,4.063H9.6a4.36,4.36,0,0,0,1.395-.2,2.728,2.728,0,0,0,.938-.516,1.894,1.894,0,0,0,.527-.746A2.424,2.424,0,0,0,12.625,107.711Zm9.039,2.164a2.381,2.381,0,0,1-.281,1.152,2.331,2.331,0,0,1-.93.891,5.584,5.584,0,0,1-1.711.574,14.678,14.678,0,0,1-2.625.211,1,1,0,0,0-.016.18v.156a2.657,2.657,0,0,0,.117.8,1.8,1.8,0,0,0,.363.656,1.714,1.714,0,0,0,.633.445,2.341,2.341,0,0,0,.918.164,3.9,3.9,0,0,0,1.184-.207,5.087,5.087,0,0,0,1.23-.59L20.3,115.57a5.078,5.078,0,0,1-1.023.438,4.4,4.4,0,0,1-1.328.188,3.609,3.609,0,0,1-1.488-.273,2.621,2.621,0,0,1-.977-.73,2.848,2.848,0,0,1-.535-1.055,4.716,4.716,0,0,1-.164-1.254,5.8,5.8,0,0,1,.156-1.355,5.519,5.519,0,0,1,.441-1.215,5.149,5.149,0,0,1,.684-1.027,4.444,4.444,0,0,1,.883-.793,4.092,4.092,0,0,1,1.039-.508,3.7,3.7,0,0,1,1.148-.18,3.319,3.319,0,0,1,1.09.164,2.277,2.277,0,0,1,.789.449,1.915,1.915,0,0,1,.48.66A1.966,1.966,0,0,1,21.664,109.875Zm-1.3.063a.9.9,0,0,0-.363-.766,1.565,1.565,0,0,0-.965-.273,2.163,2.163,0,0,0-.922.207,2.984,2.984,0,0,0-.82.57,3.56,3.56,0,0,0-.648.867,4.038,4.038,0,0,0-.4,1.09,13.5,13.5,0,0,0,1.9-.113,4.925,4.925,0,0,0,1.273-.332,1.712,1.712,0,0,0,.719-.535A1.2,1.2,0,0,0,20.359,109.938Zm4.859,6.031a2.994,2.994,0,0,1-.441.1,3.111,3.111,0,0,1-.488.039,1.594,1.594,0,0,1-1.18-.395,1.439,1.439,0,0,1-.391-1.059,3.228,3.228,0,0,1,.039-.461q.039-.266.125-.656l2-9.391h1.3l-2.008,9.422q-.07.328-.1.508a2.079,2.079,0,0,0-.027.3.644.644,0,0,0,.176.488.787.787,0,0,0,.559.168,2.366,2.366,0,0,0,.355-.023,1.575,1.575,0,0,0,.285-.07Zm8.375-6.094a2.381,2.381,0,0,1-.281,1.152,2.331,2.331,0,0,1-.93.891,5.584,5.584,0,0,1-1.711.574,14.678,14.678,0,0,1-2.625.211,1,1,0,0,0-.016.18v.156a2.657,2.657,0,0,0,.117.8,1.8,1.8,0,0,0,.363.656,1.714,1.714,0,0,0,.633.445,2.341,2.341,0,0,0,.918.164,3.9,3.9,0,0,0,1.184-.207,5.087,5.087,0,0,0,1.23-.59l-.242,1.266a5.078,5.078,0,0,1-1.023.438,4.4,4.4,0,0,1-1.328.188,3.609,3.609,0,0,1-1.488-.273,2.621,2.621,0,0,1-.977-.73,2.848,2.848,0,0,1-.535-1.055,4.716,4.716,0,0,1-.164-1.254,5.8,5.8,0,0,1,.156-1.355,5.519,5.519,0,0,1,.441-1.215A5.148,5.148,0,0,1,28,109.285a4.444,4.444,0,0,1,.883-.793,4.092,4.092,0,0,1,1.039-.508,3.7,3.7,0,0,1,1.148-.18,3.319,3.319,0,0,1,1.09.164,2.277,2.277,0,0,1,.789.449,1.915,1.915,0,0,1,.48.66A1.966,1.966,0,0,1,33.594,109.875Zm-1.3.063a.9.9,0,0,0-.363-.766,1.565,1.565,0,0,0-.965-.273,2.163,2.163,0,0,0-.922.207,2.984,2.984,0,0,0-.82.57,3.56,3.56,0,0,0-.648.867,4.038,4.038,0,0,0-.4,1.09,13.5,13.5,0,0,0,1.9-.113,4.925,4.925,0,0,0,1.273-.332,1.712,1.712,0,0,0,.719-.535A1.2,1.2,0,0,0,32.289,109.938ZM37.32,116H36.234l-1.266-8h1.3l.7,5.039q.023.148.043.336t.039.383q.02.2.027.383t.008.336h.031q.063-.141.145-.32t.184-.371q.1-.191.207-.387t.2-.359L40.711,108h1.461Zm11.219-2.562q-.063.3-.121.668t-.1.734q-.043.363-.07.676t-.027.484H46.891q.008-.156.023-.375t.043-.453q.027-.234.055-.461t.059-.391h-.031q-.242.383-.492.723a3.478,3.478,0,0,1-.555.6,2.429,2.429,0,0,1-.68.406,2.612,2.612,0,0,1-1.84-.039,2.006,2.006,0,0,1-.746-.559,2.574,2.574,0,0,1-.48-.93,4.532,4.532,0,0,1-.168-1.3,6.518,6.518,0,0,1,.094-1.031,6.309,6.309,0,0,1,.316-1.18,6.007,6.007,0,0,1,.594-1.176A4.465,4.465,0,0,1,44,108.8a4.4,4.4,0,0,1,1.3-.727,5.051,5.051,0,0,1,1.734-.273,9.22,9.22,0,0,1,1.289.094q.664.094,1.32.227Zm-.367-4.383q-.273-.062-.641-.109a5.447,5.447,0,0,0-.687-.047,3.119,3.119,0,0,0-1.2.215,3.077,3.077,0,0,0-.9.563,3.313,3.313,0,0,0-.645.8,4.965,4.965,0,0,0-.418.926,5.448,5.448,0,0,0-.223.934,5.91,5.91,0,0,0-.066.836,3.744,3.744,0,0,0,.078.8,1.748,1.748,0,0,0,.246.605,1.156,1.156,0,0,0,.43.387,1.325,1.325,0,0,0,.621.137,1.692,1.692,0,0,0,.73-.16,2.532,2.532,0,0,0,.637-.434,3.56,3.56,0,0,0,.539-.633,6.226,6.226,0,0,0,.438-.762,6.514,6.514,0,0,0,.332-.82q.137-.418.223-.809ZM58.313,110a2.546,2.546,0,0,1-.027.32q-.027.2-.07.438t-.086.465q-.043.23-.082.395L57.117,116h-1.3l.977-4.687q.031-.125.063-.289t.055-.328q.023-.164.039-.3a2.009,2.009,0,0,0,.016-.215,1.424,1.424,0,0,0-.285-.937,1.038,1.038,0,0,0-.848-.344,1.972,1.972,0,0,0-1.023.3,4.211,4.211,0,0,0-.937.773,5.275,5.275,0,0,0-.738,1.031,3.951,3.951,0,0,0-.418,1.086L51.883,116h-1.3l1.234-5.711q.063-.3.125-.637t.117-.641q.055-.309.094-.574t.063-.437h1.25q-.039.3-.094.637t-.094.613q-.047.328-.1.641h.031a6.606,6.606,0,0,1,.605-.809,4.531,4.531,0,0,1,.719-.664,3.413,3.413,0,0,1,.82-.449,2.55,2.55,0,0,1,.91-.164,2.362,2.362,0,0,1,.914.16,1.712,1.712,0,0,1,.637.449,1.829,1.829,0,0,1,.375.7A3.108,3.108,0,0,1,58.313,110Zm6.211-.914H62.508l-.9,4.242q-.047.242-.094.523a2.892,2.892,0,0,0-.047.453.789.789,0,0,0,.176.574.764.764,0,0,0,.559.176,1.228,1.228,0,0,0,.242-.031q.148-.031.3-.078t.309-.105l.27-.105-.242,1.125a3.788,3.788,0,0,1-.621.2,2.877,2.877,0,0,1-.66.082,2.234,2.234,0,0,1-.758-.113,1.3,1.3,0,0,1-.512-.324,1.256,1.256,0,0,1-.289-.512,2.359,2.359,0,0,1-.09-.676,3.788,3.788,0,0,1,.043-.527,5.466,5.466,0,0,1,.105-.551l.922-4.352H59.9L60.141,108h1.313l.414-1.953a2.409,2.409,0,0,1,.238-.074q.207-.059.453-.133l.453-.137.23-.07L62.75,108h2.016Zm3.719.438a10.731,10.731,0,0,1-1.113,4.832,12.372,12.372,0,0,1-1.3,2.07,18.134,18.134,0,0,1-1.707,1.91H62.867a19.358,19.358,0,0,0,1.75-1.965,12.992,12.992,0,0,0,1.328-2.1,11.048,11.048,0,0,0,.844-2.254A9.97,9.97,0,0,0,67,108.328a10.184,10.184,0,0,0-.242-1.25,9.587,9.587,0,0,0-.395-1.2,7.809,7.809,0,0,0-.539-1.086h1.086a7.983,7.983,0,0,1,.578,1.109,9.014,9.014,0,0,1,.414,1.2,10.08,10.08,0,0,1,.25,1.223A8.638,8.638,0,0,1,68.242,109.523ZM6.352,137.8a18.769,18.769,0,0,0-1.746,1.969,13.3,13.3,0,0,0-1.324,2.1,11.049,11.049,0,0,0-.844,2.254,9.991,9.991,0,0,0-.215,3.7,9.556,9.556,0,0,0,.246,1.25,10.148,10.148,0,0,0,.4,1.191,7.436,7.436,0,0,0,.539,1.078H2.3a7.428,7.428,0,0,1-.574-1.1,9.192,9.192,0,0,1-.41-1.191,9.557,9.557,0,0,1-.246-1.227,9.129,9.129,0,0,1-.082-1.2,10.858,10.858,0,0,1,.289-2.551,11.1,11.1,0,0,1,.82-2.285,12.112,12.112,0,0,1,1.293-2.074A18.132,18.132,0,0,1,5.1,137.8Zm10.133,4.547a7.874,7.874,0,0,1-.133,1.441,8.11,8.11,0,0,1-.383,1.379,7.4,7.4,0,0,1-.613,1.258,6.147,6.147,0,0,1-.824,1.07,5.99,5.99,0,0,1-.812.707,5.151,5.151,0,0,1-2.008.879,6.091,6.091,0,0,1-1.227.117,4.755,4.755,0,0,1-1.9-.363,4.179,4.179,0,0,1-1.434-1,4.345,4.345,0,0,1-.9-1.512,5.605,5.605,0,0,1-.312-1.9,7.637,7.637,0,0,1,.527-2.914,6.72,6.72,0,0,1,1.473-2.234,5.871,5.871,0,0,1,1.77-1.215,5.52,5.52,0,0,1,2.277-.449,4.743,4.743,0,0,1,1.863.352,4.057,4.057,0,0,1,1.418.984,4.4,4.4,0,0,1,.9,1.5A5.5,5.5,0,0,1,16.484,142.344Zm-1.391.047a4.63,4.63,0,0,0-.227-1.5,3.227,3.227,0,0,0-.648-1.133,2.821,2.821,0,0,0-1.016-.719,3.391,3.391,0,0,0-1.328-.25,3.813,3.813,0,0,0-1.656.375,4.516,4.516,0,0,0-1.4,1.039,4.78,4.78,0,0,0-.621.859,6.655,6.655,0,0,0-.477,1.031,6.888,6.888,0,0,0-.41,2.344,4.6,4.6,0,0,0,.215,1.438A3.235,3.235,0,0,0,8.152,147a2.835,2.835,0,0,0,1.012.738,3.394,3.394,0,0,0,1.383.266,4.091,4.091,0,0,0,1.66-.348,3.986,3.986,0,0,0,1.395-1.027,4.843,4.843,0,0,0,.652-.941,7.048,7.048,0,0,0,.465-1.078A7.226,7.226,0,0,0,15,143.484,6.746,6.746,0,0,0,15.094,142.391ZM25.1,143a2.546,2.546,0,0,1-.027.32q-.027.2-.07.438t-.086.465q-.043.23-.082.395L23.906,149h-1.3l.977-4.687q.031-.125.063-.289t.055-.328q.023-.164.039-.3a2.01,2.01,0,0,0,.016-.215,1.424,1.424,0,0,0-.285-.937,1.038,1.038,0,0,0-.848-.344,1.972,1.972,0,0,0-1.023.3,4.211,4.211,0,0,0-.937.773,5.274,5.274,0,0,0-.738,1.031,3.952,3.952,0,0,0-.418,1.086L18.672,149h-1.3l1.234-5.711q.062-.3.125-.637t.117-.641q.055-.309.094-.574t.063-.437h1.25q-.039.3-.094.637t-.094.613q-.047.328-.1.641H20a6.607,6.607,0,0,1,.605-.809,4.531,4.531,0,0,1,.719-.664,3.413,3.413,0,0,1,.82-.449,2.55,2.55,0,0,1,.91-.164,2.362,2.362,0,0,1,.914.16,1.712,1.712,0,0,1,.637.449,1.829,1.829,0,0,1,.375.7A3.108,3.108,0,0,1,25.1,143Zm10.609-.914H33.7l-.9,4.242q-.047.242-.094.523a2.892,2.892,0,0,0-.047.453.789.789,0,0,0,.176.574.764.764,0,0,0,.559.176,1.228,1.228,0,0,0,.242-.031q.148-.031.3-.078t.309-.105l.27-.105-.242,1.125a3.788,3.788,0,0,1-.621.2,2.877,2.877,0,0,1-.66.082,2.234,2.234,0,0,1-.758-.113,1.3,1.3,0,0,1-.512-.324,1.256,1.256,0,0,1-.289-.512,2.359,2.359,0,0,1-.09-.676,3.788,3.788,0,0,1,.043-.527,5.468,5.468,0,0,1,.105-.551l.922-4.352H31.086L31.328,141h1.313l.414-1.953a2.406,2.406,0,0,1,.238-.074q.207-.059.453-.133l.453-.137.23-.07L33.938,141h2.016Zm3.031,6.883a2.994,2.994,0,0,1-.441.1,3.11,3.11,0,0,1-.488.039,1.594,1.594,0,0,1-1.18-.395,1.439,1.439,0,0,1-.391-1.059,3.227,3.227,0,0,1,.039-.461q.039-.266.125-.656L37.57,141h1.3L37.7,146.57q-.07.328-.1.508a2.079,2.079,0,0,0-.027.3.644.644,0,0,0,.176.488.787.787,0,0,0,.559.168,2.366,2.366,0,0,0,.355-.023,1.575,1.575,0,0,0,.285-.07Zm.914-10.82a.841.841,0,0,1-.238.6.782.782,0,0,1-.59.25.831.831,0,0,1-.6-.246.81.81,0,0,1-.254-.605.749.749,0,0,1,.254-.586.869.869,0,0,1,.6-.227.819.819,0,0,1,.586.23A.769.769,0,0,1,39.656,138.148Zm12.891,4.867a2.6,2.6,0,0,1-.027.309q-.027.207-.07.441t-.086.465q-.043.23-.074.387L51.344,149H50.063l.977-4.687q.031-.133.063-.3t.059-.324q.027-.16.043-.3a2.009,2.009,0,0,0,.016-.215,1.487,1.487,0,0,0-.266-.949,1,1,0,0,0-.828-.332,1.542,1.542,0,0,0-.613.137,2.836,2.836,0,0,0-.617.371,4.353,4.353,0,0,0-.578.547,5.566,5.566,0,0,0-.508.668,5.2,5.2,0,0,0-.395.727,3.809,3.809,0,0,0-.242.73L46.336,149h-1.3l.992-4.687q.031-.133.063-.3t.059-.324q.027-.16.043-.3a2.009,2.009,0,0,0,.016-.215,1.457,1.457,0,0,0-.273-.949,1,1,0,0,0-.82-.332,1.586,1.586,0,0,0-.625.137,2.8,2.8,0,0,0-.625.375,4.293,4.293,0,0,0-.582.555,5.826,5.826,0,0,0-.508.672,4.916,4.916,0,0,0-.391.727,3.977,3.977,0,0,0-.238.73L41.313,149h-1.3l1.234-5.711q.063-.3.125-.637t.117-.641q.055-.309.094-.574t.063-.437H42.9q-.039.3-.094.637t-.094.613q-.047.328-.1.641h.031a6.756,6.756,0,0,1,.609-.836,4.456,4.456,0,0,1,.7-.66,3.22,3.22,0,0,1,.766-.434,2.411,2.411,0,0,1,1.688-.008,1.6,1.6,0,0,1,.6.418,1.827,1.827,0,0,1,.363.652,3.263,3.263,0,0,1,.148.852,7.559,7.559,0,0,1,.621-.816,4.409,4.409,0,0,1,.711-.656,3.362,3.362,0,0,1,.8-.437,2.542,2.542,0,0,1,.9-.16,1.869,1.869,0,0,1,1.5.582A2.423,2.423,0,0,1,52.547,143.016Zm8.3-.141a2.381,2.381,0,0,1-.281,1.152,2.331,2.331,0,0,1-.93.891,5.585,5.585,0,0,1-1.711.574,14.677,14.677,0,0,1-2.625.211,1,1,0,0,0-.016.18v.156a2.657,2.657,0,0,0,.117.8,1.8,1.8,0,0,0,.363.656,1.714,1.714,0,0,0,.633.445,2.341,2.341,0,0,0,.918.164,3.9,3.9,0,0,0,1.184-.207,5.087,5.087,0,0,0,1.23-.59l-.242,1.266a5.078,5.078,0,0,1-1.023.438,4.4,4.4,0,0,1-1.328.188,3.609,3.609,0,0,1-1.488-.273,2.621,2.621,0,0,1-.977-.73,2.848,2.848,0,0,1-.535-1.055,4.716,4.716,0,0,1-.164-1.254,5.8,5.8,0,0,1,.156-1.355,5.519,5.519,0,0,1,.441-1.215,5.148,5.148,0,0,1,.684-1.027,4.444,4.444,0,0,1,.883-.793,4.093,4.093,0,0,1,1.039-.508,3.7,3.7,0,0,1,1.148-.18,3.319,3.319,0,0,1,1.09.164,2.277,2.277,0,0,1,.789.449,1.915,1.915,0,0,1,.48.66A1.966,1.966,0,0,1,60.844,142.875Zm-1.3.063a.9.9,0,0,0-.363-.766,1.565,1.565,0,0,0-.965-.273,2.163,2.163,0,0,0-.922.207,2.983,2.983,0,0,0-.82.57,3.56,3.56,0,0,0-.648.867,4.038,4.038,0,0,0-.4,1.09,13.5,13.5,0,0,0,1.9-.113,4.925,4.925,0,0,0,1.273-.332,1.712,1.712,0,0,0,.719-.535A1.2,1.2,0,0,0,59.539,142.938Zm5.547-.414a10.731,10.731,0,0,1-1.113,4.832,12.372,12.372,0,0,1-1.3,2.07,18.133,18.133,0,0,1-1.707,1.91H59.711a19.358,19.358,0,0,0,1.75-1.965,12.993,12.993,0,0,0,1.328-2.1,11.049,11.049,0,0,0,.844-2.254,9.97,9.97,0,0,0,.215-3.691,10.184,10.184,0,0,0-.242-1.25,9.587,9.587,0,0,0-.395-1.2,7.809,7.809,0,0,0-.539-1.086h1.086a7.982,7.982,0,0,1,.578,1.109,9.014,9.014,0,0,1,.414,1.2,10.079,10.079,0,0,1,.25,1.223A8.638,8.638,0,0,1,65.086,142.523Z" transform="translate(1026.667 5009.49)" fill="#12263f"/>
    <path id="Trazado_998067" data-name="Trazado 998067" d="M3.391,0H1.055V-1.148H1.023A2.607,2.607,0,0,1-1.359.2a2.492,2.492,0,0,1-1.832-.66,2.366,2.366,0,0,1-.668-1.762q0-2.328,2.758-2.687L1.07-5.2q0-1.312-1.422-1.312a4.853,4.853,0,0,0-2.719.852V-7.523a6.116,6.116,0,0,1,1.41-.469A7.413,7.413,0,0,1-.031-8.2q3.422,0,3.422,3.414ZM1.07-3.25v-.539L-.383-3.6q-1.2.156-1.2,1.086a.9.9,0,0,0,.293.691,1.126,1.126,0,0,0,.793.27,1.462,1.462,0,0,0,1.133-.48A1.735,1.735,0,0,0,1.07-3.25ZM-1.422,32.07h-.031V33H-3.922V21.156h2.469V26.2h.031a2.929,2.929,0,0,1,2.6-1.4,2.855,2.855,0,0,1,2.383,1.063A4.582,4.582,0,0,1,4.4,28.773a4.962,4.962,0,0,1-.977,3.211A3.181,3.181,0,0,1,.813,33.2,2.521,2.521,0,0,1-1.422,32.07Zm-.07-3.375v.82A1.872,1.872,0,0,0-1.047,30.8,1.449,1.449,0,0,0,.094,31.3,1.514,1.514,0,0,0,1.4,30.652,3.15,3.15,0,0,0,1.867,28.8a2.506,2.506,0,0,0-.426-1.551A1.437,1.437,0,0,0,.227,26.7,1.569,1.569,0,0,0-1,27.25,2.107,2.107,0,0,0-1.492,28.7ZM3.262,65.711A4.881,4.881,0,0,1,.848,66.2a4.083,4.083,0,0,1-2.984-1.117A3.859,3.859,0,0,1-3.277,62.2,4.251,4.251,0,0,1-2.055,58.98,4.518,4.518,0,0,1,1.215,57.8a4.2,4.2,0,0,1,2.047.375v2.094A2.814,2.814,0,0,0,1.535,59.7a2.275,2.275,0,0,0-1.684.621A2.317,2.317,0,0,0-.77,62.031,2.28,2.28,0,0,0-.176,63.7a2.182,2.182,0,0,0,1.633.605,3.258,3.258,0,0,0,1.8-.578ZM3.914,99H1.445V97.9H1.414a2.768,2.768,0,0,1-2.477,1.3,3.033,3.033,0,0,1-2.414-1.059,4.382,4.382,0,0,1-.914-2.957A4.77,4.77,0,0,1-3.383,92,3.287,3.287,0,0,1-.742,90.8a2.246,2.246,0,0,1,2.156,1.109h.031V87.156H3.914ZM1.492,95.109v-.6a1.893,1.893,0,0,0-.453-1.3A1.5,1.5,0,0,0-.141,92.7a1.487,1.487,0,0,0-1.281.645,2.993,2.993,0,0,0-.461,1.77,2.59,2.59,0,0,0,.445,1.625A1.479,1.479,0,0,0-.2,97.3a1.485,1.485,0,0,0,1.223-.6A2.507,2.507,0,0,0,1.492,95.109ZM3.9,128.7H-1.32q.125,1.742,2.2,1.742a4.286,4.286,0,0,0,2.32-.625V131.6a6.1,6.1,0,0,1-2.883.594A4.058,4.058,0,0,1-2.7,131.121a4.058,4.058,0,0,1-1.07-3,4.281,4.281,0,0,1,1.156-3.156A3.852,3.852,0,0,1,.234,123.8a3.5,3.5,0,0,1,2.707,1.039,4,4,0,0,1,.957,2.82Zm-2.289-1.516q0-1.719-1.391-1.719a1.328,1.328,0,0,0-1.027.492,2.234,2.234,0,0,0-.527,1.227Z" transform="translate(848.667 5024.49)" fill="#12263f"/>
    <g id="Trazado_998068" data-name="Trazado 998068" transform="translate(986.667 5041.481)" fill="#e9dcbf">
      <path d="M 19.5 19.5 L 0.5 19.5 L 0.5 0.5 L 19.5 0.5 L 19.5 19.5 Z" stroke="none"/>
      <path d="M 1 1 L 1 19 L 19 19 L 19 1 L 1 1 M 0 0 L 20 0 L 20 20 L 0 20 L 0 0 Z" stroke="none" fill="#e9dcbf"/>
    </g>
    <path id="Trazado_998069" data-name="Trazado 998069" d="M4.309-3.391a3.236,3.236,0,0,1-.6,1.945A3.542,3.542,0,0,1,2.035-.211,7.37,7.37,0,0,1-.559.2,8.472,8.472,0,0,1-3.777-.4v-3.07a6.358,6.358,0,0,0,1.555.832A4.573,4.573,0,0,0-.637-2.32a1.566,1.566,0,0,0,.859-.2.652.652,0,0,0,.3-.582.789.789,0,0,0-.152-.48,1.5,1.5,0,0,0-.461-.387A8.585,8.585,0,0,0-1.23-4.461q-2.7-1.039-2.7-3.359a3.139,3.139,0,0,1,1.234-2.6,5.207,5.207,0,0,1,3.313-.973q.586,0,1.078.047t.895.117q.4.07,1.129.266v2.852A5.769,5.769,0,0,0,.934-8.883a1.716,1.716,0,0,0-.906.211.649.649,0,0,0-.344.578.725.725,0,0,0,.277.582,5.2,5.2,0,0,0,1.16.6A6.433,6.433,0,0,1,3.586-5.375,2.935,2.935,0,0,1,4.309-3.391ZM3.465,33V26.859q0-.867.055-1.906l.023-.516H3.449q-.25,1.32-.383,1.828L1.418,33H-1.754L-3.48,26.344q-.07-.25-.367-1.906h-.094q.109,2.625.109,3.281V33H-6.793V21.8h5.055L-.2,27.883a7.512,7.512,0,0,1,.145.762q.09.574.113.887H.105q.086-.711.273-1.68L1.816,21.8H6.793V33ZM2.125,66l-.492-2.062H-1.711L-2.242,66H-5.891l3.859-11.2H2.156L5.789,66ZM0,57.234H-.078a5.442,5.442,0,0,1-.109.617q-.094.43-.945,3.688H1.008L.227,58.492A9.635,9.635,0,0,1,0,57.234ZM1.457,99,.621,96.586a3,3,0,0,0-.629-1.117,1.148,1.148,0,0,0-.84-.406H-.98V99H-4.355V87.8H.129a6.218,6.218,0,0,1,3.473.77,2.614,2.614,0,0,1,1.121,2.309,2.921,2.921,0,0,1-.652,1.938,3.718,3.718,0,0,1-1.941,1.133v.031a2.713,2.713,0,0,1,1.184.711,4.4,4.4,0,0,1,.848,1.461L5.262,99Zm-.32-7.648a1.173,1.173,0,0,0-.344-.891,1.517,1.517,0,0,0-1.078-.328h-.7V92.7h.609a1.547,1.547,0,0,0,1.094-.383A1.254,1.254,0,0,0,1.137,91.352Zm.539,32.086V132H-1.715v-8.562H-4.848V120.8h9.7v2.641Z" transform="translate(996.667 5024.49)" fill="#12263f"/>
  </g>
</svg>
