<svg xmlns="http://www.w3.org/2000/svg" width="126" height="103.359" viewBox="0 0 126 103.359">
  <g id="sla" transform="translate(0 -11.32)">
    <g id="Grupo_100680" data-name="Grupo 100680">
      <path id="Trazado_151377" data-name="Trazado 151377" d="M75.3,102.375H50.7a2.468,2.468,0,0,1-2.461-2.461H2.461V107.3a4.936,4.936,0,0,0,4.922,4.922H118.617a4.936,4.936,0,0,0,4.922-4.922V99.914H77.765A2.468,2.468,0,0,1,75.3,102.375Z" fill="#8690af" fill-rule="evenodd"/>
      <path id="Trazado_151378" data-name="Trazado 151378" d="M50.7,102.375H75.3a2.468,2.468,0,0,0,2.461-2.461h40.851V90.07H7.383v9.844H48.234A2.468,2.468,0,0,0,50.7,102.375Z" fill="#b6bccf" fill-rule="evenodd"/>
      <path id="Trazado_151379" data-name="Trazado 151379" d="M7.383,90.07H118.617V18.7a4.936,4.936,0,0,0-4.922-4.922H12.3A4.937,4.937,0,0,0,7.383,18.7ZM45.527,77.765A25.839,25.839,0,1,1,67.9,39.006L45.527,51.926Z" fill="#99ebfa" fill-rule="evenodd"/>
      <path id="Trazado_151380" data-name="Trazado 151380" d="M23.146,64.847A25.829,25.829,0,0,0,45.527,77.765V51.926Z" fill="#ffc144" fill-rule="evenodd"/>
      <path id="Trazado_151381" data-name="Trazado 151381" d="M23.146,64.847,45.527,51.926,27.256,33.655a25.851,25.851,0,0,0-4.11,31.193Z" fill="#ff5d7d" fill-rule="evenodd"/>
      <path id="Trazado_151382" data-name="Trazado 151382" d="M27.256,33.655,45.527,51.926,67.9,39.006a25.839,25.839,0,0,0-40.648-5.352Z" fill="#cbe558" fill-rule="evenodd"/>
    </g>
    <g id="Grupo_100681" data-name="Grupo 100681">
      <path id="Trazado_151383" data-name="Trazado 151383" d="M123.539,97.453h-2.461V18.7a7.391,7.391,0,0,0-7.383-7.383H12.3A7.391,7.391,0,0,0,4.922,18.7v78.75H2.461A2.461,2.461,0,0,0,0,99.914V107.3a7.391,7.391,0,0,0,7.383,7.383H118.617A7.391,7.391,0,0,0,126,107.3V99.914a2.461,2.461,0,0,0-2.461-2.461ZM9.844,92.531H51.925a2.461,2.461,0,0,0,0-4.922H9.844V18.7A2.464,2.464,0,0,1,12.3,16.242H113.7a2.464,2.464,0,0,1,2.461,2.461V87.609H74.073a2.461,2.461,0,0,0,0,4.922h42.083v4.922H77.765A2.461,2.461,0,0,0,75.3,99.914H50.7a2.461,2.461,0,0,0-2.461-2.461H9.844ZM121.078,107.3a2.464,2.464,0,0,1-2.461,2.461H7.383A2.464,2.464,0,0,1,4.922,107.3v-4.922H46.434a4.925,4.925,0,0,0,4.261,2.461H75.3a4.925,4.925,0,0,0,4.261-2.461h41.512Z"/>
      <path id="Trazado_151384" data-name="Trazado 151384" d="M61.259,60.026a7.371,7.371,0,0,0,3.984,9.619l2.652,1.1a2.441,2.441,0,0,1-1.868,4.51L64.7,74.7a2.461,2.461,0,1,0-1.884,4.547l1.327.549a7.362,7.362,0,0,0,5.635-13.6l-2.652-1.1a2.441,2.441,0,0,1,1.868-4.51l1.326.549A2.461,2.461,0,1,0,72.2,56.59l-1.326-.549a7.371,7.371,0,0,0-9.619,3.985Z"/>
      <path id="Trazado_151385" data-name="Trazado 151385" d="M80.287,80.226H88.9a2.461,2.461,0,1,0,0-4.922H82.748V58.077a2.461,2.461,0,0,0-4.922,0V77.765A2.461,2.461,0,0,0,80.287,80.226Z"/>
      <path id="Trazado_151386" data-name="Trazado 151386" d="M101.39,55.616A7.391,7.391,0,0,0,94.007,63V77.765a2.461,2.461,0,1,0,4.922,0V72.843h4.922v4.922a2.461,2.461,0,1,0,4.922,0V63a7.391,7.391,0,0,0-7.383-7.383Zm2.461,12.3H98.929V63a2.461,2.461,0,0,1,4.922,0Z"/>
      <path id="Trazado_151387" data-name="Trazado 151387" d="M70.035,37.776a28.3,28.3,0,1,0-24.508,42.45,2.461,2.461,0,0,0,2.461-2.461V53.346L69.135,41.137A2.461,2.461,0,0,0,70.035,37.776Zm-42.681-.542L41.519,51.4,24.163,61.418a23.347,23.347,0,0,1,3.191-24.184Zm-.724,28.443,16.435-9.489V75.175a23.387,23.387,0,0,1-16.435-9.5Zm19.3-16.827-15.1-15.1a23.358,23.358,0,0,1,33.594,4.417Z"/>
      <path id="Trazado_151388" data-name="Trazado 151388" d="M80.287,33.469h26.025a2.461,2.461,0,1,0,0-4.922H80.287a2.461,2.461,0,0,0,0,4.922Z"/>
      <path id="Trazado_151389" data-name="Trazado 151389" d="M106.312,38.391H93.3a2.461,2.461,0,1,0,0,4.922h13.012a2.461,2.461,0,1,0,0-4.922Z"/>
      <path id="Trazado_151390" data-name="Trazado 151390" d="M63,87.609h0a2.461,2.461,0,1,0,2.463,2.461A2.46,2.46,0,0,0,63,87.609Z"/>
    </g>
  </g>
</svg>
