<svg xmlns="http://www.w3.org/2000/svg" xmlns:xlink="http://www.w3.org/1999/xlink" width="103" height="103" viewBox="0 0 103 103">
  <defs>
    <filter id="Elipse_13737" x="0" y="0" width="103" height="103" filterUnits="userSpaceOnUse">
      <feOffset dy="3" input="SourceAlpha"/>
      <feGaussianBlur stdDeviation="3" result="blur"/>
      <feFlood flood-opacity="0.161"/>
      <feComposite operator="in" in2="blur"/>
      <feComposite in="SourceGraphic"/>
    </filter>
  </defs>
  <g id="Grupo_1185640" data-name="Grupo 1185640" transform="translate(-280 -2200)">
    <g id="Grupo_1185638" data-name="Grupo 1185638" transform="translate(289 2206)">
      <g transform="matrix(1, 0, 0, 1, -9, -6)" filter="url(#Elipse_13737)">
        <circle id="Elipse_13737-2" data-name="Elipse 13737" cx="42.5" cy="42.5" r="42.5" transform="translate(9 6)" fill="#fff"/>
      </g>
    </g>
    <g id="mapa" transform="translate(308.945 2226.945)">
      <g id="Grupo_100512" data-name="Grupo 100512" transform="translate(0.695 0.695)">
        <g id="Grupo_100504" data-name="Grupo 100504" transform="translate(0 15.297)">
          <path id="Trazado_151079" data-name="Trazado 151079" d="M2.161,25.935H43.879V52.357H2.161Z" transform="translate(-2.161 -25.935)" fill="#e6e9ed"/>
        </g>
        <g id="Grupo_100505" data-name="Grupo 100505" transform="translate(6.953 35.085)">
          <path id="Trazado_151080" data-name="Trazado 151080" d="M17.14,57.518v5.806H12.968V56.691a4.124,4.124,0,0,0,2.781,1.071A4.035,4.035,0,0,0,17.14,57.518Z" transform="translate(-12.968 -56.691)" fill="#b4dd7f"/>
        </g>
        <g id="Grupo_100506" data-name="Grupo 100506" transform="translate(0 15.297)">
          <path id="Trazado_151081" data-name="Trazado 151081" d="M13.286,25.935V38.694a4.035,4.035,0,0,0-1.391-.243,4.124,4.124,0,0,0-2.781,1.071V34.279H2.161V30.107H9.114V25.935Z" transform="translate(-2.161 -25.935)" fill="#b4dd7f"/>
        </g>
        <g id="Grupo_100507" data-name="Grupo 100507" transform="translate(25.031 18.182)">
          <path id="Trazado_151082" data-name="Trazado 151082" d="M49.867,30.42c2.941.32,5.1,1.4,5.1,2.677,0,1.537-3.115,2.781-6.953,2.781s-6.953-1.245-6.953-2.781c0-1.279,2.162-2.357,5.1-2.677a10.255,10.255,0,0,1,.264,1.3,1.6,1.6,0,0,0,3.171,0A10.256,10.256,0,0,1,49.867,30.42Z" transform="translate(-41.065 -30.42)" fill="#dfb28b"/>
        </g>
        <g id="Grupo_100508" data-name="Grupo 100508" transform="translate(5.562 27.812)">
          <path id="Trazado_151083" data-name="Trazado 151083" d="M16.369,45.63a4.165,4.165,0,0,1,0,7.857,4.035,4.035,0,0,1-1.391.243,4.172,4.172,0,0,1,0-8.344A4.035,4.035,0,0,1,16.369,45.63Z" transform="translate(-10.806 -45.387)" fill="#fcd770"/>
        </g>
        <g id="Grupo_100509" data-name="Grupo 100509" transform="translate(8.344 30.593)">
          <ellipse id="Elipse_4774" data-name="Elipse 4774" cx="1.391" cy="1.391" rx="1.391" ry="1.391" fill="#ffc729"/>
        </g>
        <g id="Grupo_100510" data-name="Grupo 100510" transform="translate(25.031)">
          <path id="Trazado_151084" data-name="Trazado 151084" d="M54.97,9.114v.4A6.949,6.949,0,0,1,53.5,13.78l-1.238,1.592a12.564,12.564,0,0,0-1.321,2.086h-.007a12.406,12.406,0,0,0-1.071,2.885,10.256,10.256,0,0,0-.264,1.3,1.6,1.6,0,0,1-3.171,0,10.255,10.255,0,0,0-.264-1.3A12.406,12.406,0,0,0,45.1,17.458H45.09a12.564,12.564,0,0,0-1.321-2.086L42.532,13.78a6.949,6.949,0,0,1-1.467-4.269v-.4a6.953,6.953,0,1,1,13.906,0Z" transform="translate(-41.065 -2.161)" fill="#ff826e"/>
        </g>
        <g id="Grupo_100511" data-name="Grupo 100511" transform="translate(27.812 2.781)">
          <ellipse id="Elipse_4775" data-name="Elipse 4775" cx="4.172" cy="4.172" rx="4.172" ry="4.172" fill="#ffeaa7"/>
        </g>
      </g>
      <g id="Grupo_100513" data-name="Grupo 100513" transform="translate(0 0)">
        <path id="Trazado_151085" data-name="Trazado 151085" d="M49.174,15.137a4.867,4.867,0,1,0-4.867-4.867A4.873,4.873,0,0,0,49.174,15.137Zm0-8.344A3.476,3.476,0,1,1,45.7,10.27,3.48,3.48,0,0,1,49.174,6.794Z" transform="translate(-16.495 -2.622)"/>
        <path id="Trazado_151086" data-name="Trazado 151086" d="M16.134,48.629a2.086,2.086,0,1,0,2.086,2.086A2.088,2.088,0,0,0,16.134,48.629Zm0,2.781a.7.7,0,1,1,.7-.7A.7.7,0,0,1,16.134,51.41Z" transform="translate(-5.705 -18.036)"/>
        <path id="Trazado_151087" data-name="Trazado 151087" d="M37.886,16.377c.211-.331.431-.655.672-.966L39.8,13.82a7.681,7.681,0,0,0,1.612-4.7v-.4a7.648,7.648,0,1,0-15.3,0v.4a7.683,7.683,0,0,0,1.611,4.7l1.238,1.592c.241.311.462.636.672.966H1.081V44.189H44.189V16.377Zm-9.066-3.41A6.289,6.289,0,0,1,27.5,9.125v-.4a6.258,6.258,0,1,1,12.515,0v.4A6.287,6.287,0,0,1,38.7,12.967l-1.238,1.592a13.993,13.993,0,0,0-2.8,6.6.908.908,0,0,1-1.8,0,14,14,0,0,0-2.8-6.6Zm4.939,11.754c-3.82,0-6.258-1.236-6.258-2.086,0-.559,1.247-1.5,3.873-1.9.04.206.079.412.109.62a2.3,2.3,0,0,0,4.551,0c.03-.208.069-.414.109-.619,2.625.4,3.873,1.338,3.873,1.9C40.017,23.485,37.579,24.721,33.759,24.721Zm-2.732-5.344c-3.012.487-4.916,1.727-4.916,3.258,0,2.117,3.464,3.321,6.953,3.463v3.49a.7.7,0,0,1-.7.7H25.416a.7.7,0,0,1-.7-.7V26.111a2.086,2.086,0,1,0-4.172,0V39.322a.7.7,0,1,1-1.391,0V35.15a2.088,2.088,0,0,0-2.086-2.086h-.751a4.873,4.873,0,0,0-2.726-3.7v-11.6H30.4a12.6,12.6,0,0,1,.628,1.609ZM9.424,38.15a4.836,4.836,0,0,0,2.086.476,4.885,4.885,0,0,0,.7-.056V42.8H9.424Zm2.086-.914a3.476,3.476,0,1,1,3.476-3.476A3.48,3.48,0,0,1,11.51,37.236ZM9.424,17.768h2.781v11.18a4.885,4.885,0,0,0-.7-.056,4.836,4.836,0,0,0-2.086.476V24.721H2.471V21.94H9.424Zm-1.391,0v2.781H2.471V17.768ZM2.471,26.111H8.034V30.36a4.85,4.85,0,0,0,0,6.8V42.8H2.471ZM42.8,42.8H13.6V38.15a4.873,4.873,0,0,0,2.726-3.7h.751a.7.7,0,0,1,.7.7v4.172a2.086,2.086,0,1,0,4.172,0V26.111a.7.7,0,0,1,1.391,0v3.476a2.088,2.088,0,0,0,2.086,2.086h6.953a2.088,2.088,0,0,0,2.086-2.086V26.1c3.489-.142,6.953-1.345,6.953-3.463,0-1.531-1.9-2.771-4.916-3.258a12.66,12.66,0,0,1,.628-1.609H42.8Z" transform="translate(-1.081 -1.081)"/>
        <path id="Trazado_151088" data-name="Trazado 151088" d="M61.6,61.6h1.391v1.391H61.6Z" transform="translate(-22.66 -22.66)"/>
        <path id="Trazado_151089" data-name="Trazado 151089" d="M57.274,61.6h1.391v1.391H57.274Z" transform="translate(-21.119 -22.66)"/>
        <path id="Trazado_151090" data-name="Trazado 151090" d="M52.952,61.6h1.391v1.391H52.952Z" transform="translate(-19.578 -22.66)"/>
        <path id="Trazado_151091" data-name="Trazado 151091" d="M52.952,57.274H59.9v1.391H52.952Z" transform="translate(-19.578 -21.119)"/>
        <path id="Trazado_151092" data-name="Trazado 151092" d="M52.952,52.952H59.9v1.391H52.952Z" transform="translate(-19.578 -19.577)"/>
      </g>
    </g>
  </g>
</svg>
