<svg xmlns="http://www.w3.org/2000/svg" xmlns:xlink="http://www.w3.org/1999/xlink" width="103" height="103" viewBox="0 0 103 103">
  <defs>
    <filter id="Elipse_13737" x="0" y="0" width="103" height="103" filterUnits="userSpaceOnUse">
      <feOffset dy="3" input="SourceAlpha"/>
      <feGaussianBlur stdDeviation="3" result="blur"/>
      <feFlood flood-opacity="0.161"/>
      <feComposite operator="in" in2="blur"/>
      <feComposite in="SourceGraphic"/>
    </filter>
  </defs>
  <g id="Grupo_1186782" data-name="Grupo 1186782" transform="translate(-282 -3121)">
    <g id="Grupo_1186405" data-name="Grupo 1186405" transform="translate(291 3127)">
      <g transform="matrix(1, 0, 0, 1, -9, -6)" filter="url(#Elipse_13737)">
        <circle id="Elipse_13737-2" data-name="Elipse 13737" cx="42.5" cy="42.5" r="42.5" transform="translate(9 6)" fill="#fff"/>
      </g>
    </g>
    <g id="la-satisfaccion-del-cliente" transform="translate(312.505 3148)">
      <g id="Grupo_100676" data-name="Grupo 100676" transform="translate(0.675 6.074)">
        <g id="Grupo_100665" data-name="Grupo 100665" transform="translate(0 13.869)">
          <g id="Grupo_100663" data-name="Grupo 100663" transform="translate(25.16 0)">
            <path id="Trazado_151307" data-name="Trazado 151307" d="M56.236,43.792A20.29,20.29,0,0,0,45.714,33.014L43.089,35.5l-.641.6a16.209,16.209,0,0,1,5.791,3.287,3.722,3.722,0,0,1,2.119-.668,3.131,3.131,0,0,1-.749,2.031,16.21,16.21,0,0,1,4.124,10.791h4.049a20.041,20.041,0,0,0-1.545-7.748Z" transform="translate(-42.448 -33.014)" fill="#fcd770"/>
          </g>
          <g id="Grupo_100664" data-name="Grupo 100664">
            <path id="Trazado_151308" data-name="Trazado 151308" d="M14.228,33.014A20.291,20.291,0,0,0,3.707,43.792a20.041,20.041,0,0,0-1.545,7.748H6.211a16.18,16.18,0,0,1,1.228-6.2h.007a15.97,15.97,0,0,1,3.509-5.257,16.151,16.151,0,0,1,6.54-3.989l-.641-.6Z" transform="translate(-2.161 -33.014)" fill="#fcd770"/>
          </g>
        </g>
        <g id="Grupo_100666" data-name="Grupo 100666" transform="translate(23.992 21.603)">
          <path id="Trazado_151309" data-name="Trazado 151309" d="M53.03,56.189H40.652a4.084,4.084,0,0,0-.074-2.9l8.1-7.653a2.58,2.58,0,0,0,.229-.243A16.21,16.21,0,0,1,53.03,56.189Z" transform="translate(-40.578 -45.398)" fill="#ffeaa7"/>
        </g>
        <g id="Grupo_100667" data-name="Grupo 100667" transform="translate(4.049 16.953)">
          <path id="Trazado_151310" data-name="Trazado 151310" d="M35.546,41.239q-.132.091-.263.2L26.86,48.534a4.008,4.008,0,0,0-2.018-.54,4.054,4.054,0,0,0-3.82,5.4H8.645a16.18,16.18,0,0,1,1.228-6.2H9.88a15.97,15.97,0,0,1,3.509-5.257,16.151,16.151,0,0,1,6.54-3.989L24.842,42.6l4.913-4.643A16.209,16.209,0,0,1,35.546,41.239Z" transform="translate(-8.645 -37.952)" fill="#ffeaa7"/>
        </g>
        <g id="Grupo_100668" data-name="Grupo 100668" transform="translate(16.197 26.995)">
          <path id="Trazado_151311" data-name="Trazado 151311" d="M35.892,56.536a4.051,4.051,0,1,1-3.746-2.5,4.008,4.008,0,0,1,2.018.54A4.085,4.085,0,0,1,35.892,56.536Zm-2.4,1.545a1.35,1.35,0,1,0-1.35,1.35A1.354,1.354,0,0,0,33.5,58.082Z" transform="translate(-28.097 -54.032)" fill="#ff826e"/>
        </g>
        <g id="Grupo_100669" data-name="Grupo 100669" transform="translate(22.264 19.572)">
          <path id="Trazado_151312" data-name="Trazado 151312" d="M48.617,42.145a3.131,3.131,0,0,1-.749,2.031,2.58,2.58,0,0,1-.229.243l-8.1,7.653a4.085,4.085,0,0,0-1.728-1.964l8.423-7.093q.132-.111.263-.2A3.722,3.722,0,0,1,48.617,42.145Z" transform="translate(-37.812 -42.145)" fill="#e6e9ed"/>
        </g>
        <g id="Grupo_100670" data-name="Grupo 100670" transform="translate(20.294 0)">
          <path id="Trazado_151313" data-name="Trazado 151313" d="M46.757,17.852a7.153,7.153,0,0,1-2.234,5.19l-1.734,1.633-2.625,2.484-.02-.02a4.149,4.149,0,0,0-1.923-1.087l-1.586-.4-.385-1.525v-.007A2.7,2.7,0,0,0,37.9,22.273l.02.007.479-.459a5.155,5.155,0,0,0,1.613-3.759v-.506a4.044,4.044,0,0,0-.81-2.43,3.94,3.94,0,0,0-1.431-1.195,4.051,4.051,0,0,0-1.809-.425h-1.3v-.067A6.628,6.628,0,0,1,36.985,11.5a6.563,6.563,0,0,1,6.762.533l.02.013a7.109,7.109,0,0,1,2.99,5.8Z" transform="translate(-34.656 -10.806)" fill="#ff826e"/>
        </g>
        <g id="Grupo_100671" data-name="Grupo 100671" transform="translate(14.692 14.848)">
          <path id="Trazado_151314" data-name="Trazado 151314" d="M36.8,36.086l-.641.6L31.241,41.33l-4.913-4.643-.641-.6.02-.02a4.149,4.149,0,0,1,1.923-1.087l1.586-.4,2.025,2.025,2.025-2.025,1.586.4a4.149,4.149,0,0,1,1.923,1.087Z" transform="translate(-25.687 -34.581)" fill="#b4dd7f"/>
        </g>
        <g id="Grupo_100672" data-name="Grupo 100672" transform="translate(14.847 2.7)">
          <path id="Trazado_151315" data-name="Trazado 151315" d="M36.734,19.178v.506a5.155,5.155,0,0,1-1.613,3.759l-.479.459-.02-.007a2.454,2.454,0,0,0,.088-.668V21.014a.684.684,0,0,0-.459-.641l-.135-.04a20.81,20.81,0,0,1-2.781-1.154,20.81,20.81,0,0,1-2.781,1.154l-.135.04a.684.684,0,0,0-.459.641v2.214a2.454,2.454,0,0,0,.088.668l-.02.007-.479-.459a5.155,5.155,0,0,1-1.613-3.759v-.506a4.049,4.049,0,0,1,4.049-4.049h2.7a4.051,4.051,0,0,1,1.809.425,3.94,3.94,0,0,1,1.431,1.195A4.044,4.044,0,0,1,36.734,19.178Z" transform="translate(-25.935 -15.129)" fill="#656d78"/>
        </g>
        <g id="Grupo_100673" data-name="Grupo 100673" transform="translate(16.872 6.749)">
          <path id="Trazado_151316" data-name="Trazado 151316" d="M35.926,23.449v2.214a2.454,2.454,0,0,1-.088.668,2.7,2.7,0,0,1-1.647,1.849,2.557,2.557,0,0,1-.965.182h-1.35a2.557,2.557,0,0,1-.965-.182,2.7,2.7,0,0,1-1.647-1.849,2.454,2.454,0,0,1-.088-.668V23.449a.684.684,0,0,1,.459-.641l.135-.04a20.81,20.81,0,0,0,2.781-1.154,20.81,20.81,0,0,0,2.781,1.154l.135.04A.684.684,0,0,1,35.926,23.449Z" transform="translate(-29.177 -21.613)" fill="#f0d0b4"/>
        </g>
        <g id="Grupo_100674" data-name="Grupo 100674" transform="translate(18.222 13.316)">
          <path id="Trazado_151317" data-name="Trazado 151317" d="M35,32.134l.385,1.525-2.025,2.025L31.339,33.66l.385-1.525v-.007a2.557,2.557,0,0,0,.965.182h1.35A2.557,2.557,0,0,0,35,32.128Z" transform="translate(-31.339 -32.128)" fill="#f0d0b4"/>
        </g>
        <g id="Grupo_100675" data-name="Grupo 100675" transform="translate(8.099)">
          <path id="Trazado_151318" data-name="Trazado 151318" d="M27.23,13.439v.067h-1.3a4.049,4.049,0,0,0-4.049,4.049v.506a5.155,5.155,0,0,0,1.613,3.759l.479.459.02-.007a2.7,2.7,0,0,0,1.647,1.849v.007l-.385,1.525-1.586.4a4.149,4.149,0,0,0-1.923,1.087l-.02.02L19.1,24.675l-1.734-1.633a7.263,7.263,0,0,1-1.653-2.362,7.143,7.143,0,0,1,2.409-8.632l.02-.013a6.524,6.524,0,0,1,3.82-1.228,6.591,6.591,0,0,1,5.271,2.632Z" transform="translate(-15.129 -10.806)" fill="#ff826e"/>
        </g>
      </g>
      <g id="Grupo_100677" data-name="Grupo 100677" transform="translate(0 0)">
        <path id="Trazado_151319" data-name="Trazado 151319" d="M33.363,57.274A2.025,2.025,0,1,0,35.388,59.3,2.027,2.027,0,0,0,33.363,57.274Zm0,2.7a.675.675,0,1,1,.675-.675A.675.675,0,0,1,33.363,59.974Z" transform="translate(-12.442 -22.18)"/>
        <path id="Trazado_151320" data-name="Trazado 151320" d="M42.924,42.8a20.936,20.936,0,0,0-11.568-18.7l1.021-.964a7.812,7.812,0,0,0-.843-12.049,7.211,7.211,0,0,0-4.217-1.352A7.3,7.3,0,0,0,22,12.044a7.253,7.253,0,0,0-9.551-.953,7.811,7.811,0,0,0-.824,12.035l1.021.964A20.938,20.938,0,0,0,1.081,42.8v.675H17.74a4.714,4.714,0,0,0,8.524,0h16.66Zm-8-10.823a3.825,3.825,0,0,0,.559-1.7l.819-.819a19.619,19.619,0,0,1,3.5,5.244l-2.494,1.033a16.8,16.8,0,0,0-2.384-3.753ZM25.111,37.9l7.766-6.54a3.026,3.026,0,0,1,1.144-.6,2.469,2.469,0,0,1-.64,1l-7.462,7.048A4.79,4.79,0,0,0,25.111,37.9Zm10.239-9.405-.832.832a4.361,4.361,0,0,0-1.741.494,16.721,16.721,0,0,0-4.6-2.725l2.132-2.013a19.536,19.536,0,0,1,5.042,3.412ZM19.007,17.662l-.13.043a1.348,1.348,0,0,0-.924,1.281v1.039a4.455,4.455,0,0,1-.675-2.368V17.15a3.374,3.374,0,0,1,3.374-3.374h2.7a3.375,3.375,0,0,1,3.374,3.374v.508a4.455,4.455,0,0,1-.675,2.368V18.986a1.347,1.347,0,0,0-.922-1.28L25,17.662A20.736,20.736,0,0,1,22.3,16.547L22,16.4l-.3.151a20.706,20.706,0,0,1-2.693,1.116Zm.3,1.324.131-.044A22,22,0,0,0,22,17.9a21.994,21.994,0,0,0,2.567,1.041l.132.044V21.2a2.027,2.027,0,0,1-2.025,2.025h-1.35A2.027,2.027,0,0,1,19.3,21.2Zm2.024,5.587h1.35a3.334,3.334,0,0,0,.474-.048l.129.516L22,26.319l-1.278-1.278.129-.516a3.334,3.334,0,0,0,.474.048ZM19.77,26,22,28.227,24.234,26l1.215.3a3.462,3.462,0,0,1,1.085.489L22,31.069l-4.532-4.28a3.439,3.439,0,0,1,1.085-.489Zm11-13.806a6.463,6.463,0,0,1,.682,9.957l-3.912,3.7a4.814,4.814,0,0,0-1.761-.85l-1.194-.3-.156-.622a3.37,3.37,0,0,0,1.429-1.784l.4-.381a5.871,5.871,0,0,0,1.821-4.247V17.15a4.713,4.713,0,0,0-4.526-4.712,5.9,5.9,0,0,1,7.219-.248Zm-20.24,5.258a6.488,6.488,0,0,1,2.725-5.272,5.875,5.875,0,0,1,3.433-1.1,5.936,5.936,0,0,1,3.768,1.361,4.713,4.713,0,0,0-4.527,4.713v.508A5.865,5.865,0,0,0,17.748,21.9l.4.381a3.368,3.368,0,0,0,1.429,1.784l-.156.622-1.194.3a4.814,4.814,0,0,0-1.761.85l-3.912-3.694a6.491,6.491,0,0,1-2.025-4.7Zm5.3,9.648a16.83,16.83,0,0,0-5.274,3.3l-1.9-1.9A19.535,19.535,0,0,1,13.7,25.079ZM6.684,35.72,4.2,34.691a19.619,19.619,0,0,1,3.5-5.244l1.9,1.9A16.792,16.792,0,0,0,6.684,35.72Zm-3,.219,2.486,1.029A16.907,16.907,0,0,0,5.157,42.12H2.443a19.515,19.515,0,0,1,1.241-6.182ZM6.507,42.12A15.445,15.445,0,0,1,16.928,28.133L22,32.925l5.071-4.789a15.366,15.366,0,0,1,4.556,2.509l-7.707,6.49A4.675,4.675,0,0,0,22,36.721a4.689,4.689,0,0,0-4.67,5.4ZM22,44.82a3.374,3.374,0,1,1,3.374-3.374A3.378,3.378,0,0,1,22,44.82Zm4.523-4.732L34.027,33a15.469,15.469,0,0,1,3.467,9.116H26.672a4.53,4.53,0,0,0-.147-2.033ZM38.843,42.12A16.864,16.864,0,0,0,37.83,36.97l2.49-1.031a19.516,19.516,0,0,1,1.242,6.182Z" transform="translate(-1.081 -4.327)"/>
        <path id="Trazado_151321" data-name="Trazado 151321" d="M33.5,1.081h1.35v2.7H33.5Z" transform="translate(-13.253 -1.081)"/>
        <path id="Trazado_151322" data-name="Trazado 151322" d="M0,0H1.349V4.1H0Z" transform="translate(1.908 12.136) rotate(-80.557)"/>
        <path id="Trazado_151323" data-name="Trazado 151323" d="M0,0H1.35V3.817H0Z" transform="translate(5.596 4.527) rotate(-45)"/>
        <path id="Trazado_151324" data-name="Trazado 151324" d="M0,0H1.349V3.017H0Z" transform="translate(12.213 0.979) rotate(-26.565)"/>
        <path id="Trazado_151325" data-name="Trazado 151325" d="M0,0H4.1V1.349H0Z" transform="translate(35.639 11.492) rotate(-9.443)"/>
        <path id="Trazado_151326" data-name="Trazado 151326" d="M0,0H3.817V1.35H0Z" transform="translate(32.589 6.275) rotate(-45)"/>
        <path id="Trazado_151327" data-name="Trazado 151327" d="M0,0H3.017V1.349H0Z" transform="translate(27.06 3.084) rotate(-63.435)"/>
      </g>
    </g>
  </g>
</svg>
