<svg xmlns="http://www.w3.org/2000/svg" xmlns:xlink="http://www.w3.org/1999/xlink" width="103" height="103" viewBox="0 0 103 103">
  <defs>
    <filter id="Elipse_13737" x="0" y="0" width="103" height="103" filterUnits="userSpaceOnUse">
      <feOffset dy="3" input="SourceAlpha"/>
      <feGaussianBlur stdDeviation="3" result="blur"/>
      <feFlood flood-opacity="0.161"/>
      <feComposite operator="in" in2="blur"/>
      <feComposite in="SourceGraphic"/>
    </filter>
  </defs>
  <g id="Grupo_1186513" data-name="Grupo 1186513" transform="translate(-905 -1996.764)">
    <g id="Grupo_1186501" data-name="Grupo 1186501" transform="translate(914 2002.764)">
      <g transform="matrix(1, 0, 0, 1, -9, -6)" filter="url(#Elipse_13737)">
        <circle id="Elipse_13737-2" data-name="Elipse 13737" cx="42.5" cy="42.5" r="42.5" transform="translate(9 6)" fill="#fff"/>
      </g>
    </g>
    <path id="Trazado_151503" data-name="Trazado 151503" d="M50.239,22.385,51,26.95l-4.565-3.043-1.522,4.565-1.522-4.565L38.826,26.95l.761-4.565-5.326.761,3.8-3.8L33.5,17.82l3.8-3.043-3.8-3.043,4.565-.761-3.8-3.8,5.326.761-.761-4.565,4.565,2.283,1.522-4.565,1.522,4.565L51,3.363l-.761,4.565,5.326-.761-3.8,3.8,4.565.761-3.8,3.043,3.8,3.043-4.565,1.522,3.8,3.8Z" transform="translate(921.904 2020.655)" fill="#eebe33"/>
    <ellipse id="Elipse_4785" data-name="Elipse 4785" cx="1.522" cy="1.522" rx="1.522" ry="1.522" transform="translate(965.295 2039.236)" fill="#e44b4d"/>
    <path id="Trazado_151504" data-name="Trazado 151504" d="M47.989,19.176h1.522l1.522-8.37H46.468Z" transform="translate(918.067 2017.778)" fill="#e44b4d"/>
    <path id="Trazado_151505" data-name="Trazado 151505" d="M13.089,31.339h2.8V35.9h-2.8a2.283,2.283,0,0,1-2.283-2.283h0A2.283,2.283,0,0,1,13.089,31.339Z" transform="translate(928.619 2011.702)" fill="#f2c194"/>
    <path id="Trazado_151506" data-name="Trazado 151506" d="M2.283,0h2.8V4.565h-2.8A2.283,2.283,0,0,1,0,2.283H0A2.283,2.283,0,0,1,2.283,0Z" transform="translate(959.208 2047.605) rotate(180)" fill="#f2c194"/>
    <path id="Trazado_151507" data-name="Trazado 151507" d="M33.676,60.4v.2H3.242v-.2a16.8,16.8,0,0,1,.126-2.063,17,17,0,0,1,.378-2.032,10.394,10.394,0,0,1,7.919-7.646,10.372,10.372,0,0,1,2.167-.229h.062a2.285,2.285,0,0,0,2.283-2.282v-.762h4.565v.762a2.285,2.285,0,0,0,2.283,2.282h.062q.518,0,1.03.051a10.211,10.211,0,0,1,1.137.178q.352.074.7.174a10.4,10.4,0,0,1,7.22,7.472,16.883,16.883,0,0,1,.5,4.094Z" transform="translate(930.858 2007.545)" fill="#f4ceaf"/>
    <path id="Trazado_151508" data-name="Trazado 151508" d="M33.676,61.7v.2H3.242v-.2a16.8,16.8,0,0,1,.126-2.063,17,17,0,0,1,.378-2.032,10.394,10.394,0,0,1,7.919-7.646,10.213,10.213,0,0,1,1.137-.178,6.736,6.736,0,0,0,.69.852,6.84,6.84,0,0,0,10.624-.852c.21.021.418.049.627.082q.257.041.511.1.352.074.7.174a10.4,10.4,0,0,1,7.22,7.472,16.883,16.883,0,0,1,.5,4.094Z" transform="translate(930.858 2006.244)" fill="#c4d4e0"/>
    <path id="Trazado_151509" data-name="Trazado 151509" d="M28.134,49.552A6.84,6.84,0,0,1,17.51,50.4a6.736,6.736,0,0,1-.69-.852c.192-.019.384-.033.577-.041.15-.008.3-.01.453-.01h.062a2.269,2.269,0,0,0,1.42-.5,4.563,4.563,0,0,0,6.29,0,2.269,2.269,0,0,0,1.42.5H27.1Q27.622,49.5,28.134,49.552Z" transform="translate(926.84 2006.475)" fill="#a6b2bc"/>
    <path id="Trazado_151510" data-name="Trazado 151510" d="M41.991,61.775v.2H31.339a20.027,20.027,0,0,1,.514-4.508l.676-2.929,1.04-4.507q.352.074.7.174a10.4,10.4,0,0,1,7.22,7.472,16.883,16.883,0,0,1,.5,4.094Z" transform="translate(922.544 2006.17)" fill="#396795"/>
    <path id="Trazado_151511" data-name="Trazado 151511" d="M13.894,61.98H3.242v-.2a16.8,16.8,0,0,1,.126-2.063,17,17,0,0,1,.378-2.032,10.393,10.393,0,0,1,7.919-7.646l.58,2.517.459,1.991.676,2.93a20.025,20.025,0,0,1,.514,4.507Z" transform="translate(930.858 2006.17)" fill="#396795"/>
    <path id="Trazado_151512" data-name="Trazado 151512" d="M28.824,28.659v4.565a6.848,6.848,0,1,1-13.7,0V28.659l9.13-3.8Z" transform="translate(927.34 2013.621)" fill="#f4ceaf"/>
    <path id="Trazado_151513" data-name="Trazado 151513" d="M29.067,24.773V27.5H27.284a3.043,3.043,0,0,1-2.151-.891L22.98,24.458A10.391,10.391,0,0,1,15.633,27.5H14.7a3.9,3.9,0,0,1-3.9-3.9v-.669a.945.945,0,0,1,.952-.947.926.926,0,0,1,.662.279.946.946,0,0,0,1.337,0l2.013-2.013a6.429,6.429,0,0,1,9.092,0l.488.488a.952.952,0,0,1,0,1.345l-.088.088H26.47a2.6,2.6,0,0,1,2.6,2.6Z" transform="translate(928.619 2015.539)" fill="#ad7d4d"/>
    <path id="Trazado_151514" data-name="Trazado 151514" d="M36.4,50.832v5.061l-3.375-1.351,1.04-4.507q.352.074.7.174A10.351,10.351,0,0,1,36.4,50.832Z" transform="translate(922.043 2006.17)" fill="#26507a"/>
    <path id="Trazado_151515" data-name="Trazado 151515" d="M15.262,54.542l-2.574,1.03-.8.321V50.832a10.361,10.361,0,0,1,2.336-.8l.58,2.517Z" transform="translate(928.3 2006.17)" fill="#26507a"/>
    <path id="Trazado_151516" data-name="Trazado 151516" d="M19.315,47.109h0a1.4,1.4,0,0,0,.076,1.066l.5,1-1.522,2.283L23.7,54.505l3.7-4.93a1.522,1.522,0,0,0-.243-2.082L25,45.7a1.522,1.522,0,0,0-2.24.325l-.582.874-.762-.508a1.4,1.4,0,0,0-2.1.72Z" transform="translate(926.381 2007.557)" fill="#f4ceaf"/>
    <path id="Trazado_151517" data-name="Trazado 151517" d="M18.728,63.163l2.754-3.9a1.522,1.522,0,0,0-.488-2.2l-5.31-3.034-6.391,9.13Z" transform="translate(929.067 2004.986)" fill="#396795"/>
    <path id="Trazado_151518" data-name="Trazado 151518" d="M19.573,32.419H18.051a.761.761,0,0,0,0,1.522h1.522a.761.761,0,0,0,0-1.522Z" transform="translate(926.701 2011.382)"/>
    <path id="Trazado_151519" data-name="Trazado 151519" d="M28.858,33.941h1.522a.761.761,0,0,0,0-1.522H28.858a.761.761,0,0,0,0,1.522Z" transform="translate(923.503 2011.382)"/>
    <path id="Trazado_151520" data-name="Trazado 151520" d="M24.574,36.784a.761.761,0,1,0,1.444-.481l-.761-2.283a.761.761,0,1,0-1.444.481Z" transform="translate(924.782 2011.063)"/>
    <ellipse id="Elipse_4786" data-name="Elipse 4786" cx="0.761" cy="0.761" rx="0.761" ry="0.761" transform="translate(944.752 2045.322)"/>
    <ellipse id="Elipse_4787" data-name="Elipse 4787" cx="0.761" cy="0.761" rx="0.761" ry="0.761" transform="translate(952.36 2045.322)"/>
    <path id="Trazado_151521" data-name="Trazado 151521" d="M23.454,42.586h1.522a.761.761,0,0,0,0-1.522H23.454a.761.761,0,0,0,0,1.522Z" transform="translate(925.102 2008.823)"/>
    <path id="Trazado_151522" data-name="Trazado 151522" d="M28.68,41.051a11.153,11.153,0,0,0-5.241-1.674,2.273,2.273,0,0,0-.6-.771l-1.1-.917a7.632,7.632,0,0,0,3.852-5.182h.155A3.042,3.042,0,0,0,27.27,26.83V24.453a3.359,3.359,0,0,0-3.359-3.359h-.08a1.707,1.707,0,0,0-.5-1.211l-.488-.488a7.19,7.19,0,0,0-10.168,0L10.661,21.41a.185.185,0,0,1-.261,0,1.706,1.706,0,0,0-2.913,1.207v.669a4.627,4.627,0,0,0,1.364,3.293c.074.074.15.143.228.212a3.043,3.043,0,0,0,1.452,5.718h.155a7.632,7.632,0,0,0,3.736,5.117,2.157,2.157,0,0,0-.733,1.725c-.038,0-.076.007-.115.007h-.061A11.158,11.158,0,0,0,2.688,47.807a17.658,17.658,0,0,0-.527,4.279v.2H3.683v-.2a16.13,16.13,0,0,1,.481-3.908,9.586,9.586,0,0,1,4.084-5.732V46.2a.761.761,0,0,0,1.043.706l1.012-.4L7.625,50.332l1.247.873,4.928-7.04,4.707,2.69a.761.761,0,0,1,.244,1.1L16.534,51.09l1.243.878,2.216-3.135a2.279,2.279,0,0,0-.069-2.727l3.283-4.377a2.275,2.275,0,0,0,.388-.816c.14.012.279.028.417.046l-1.535,6.653a20.835,20.835,0,0,0-.533,4.678h1.522a19.3,19.3,0,0,1,.493-4.333l.477-2.068,2.551,1.021A.761.761,0,0,0,28.03,46.2V42.445a9.586,9.586,0,0,1,4.084,5.731,16.134,16.134,0,0,1,.481,3.91v.2h1.522v-.2a17.654,17.654,0,0,0-.526-4.277A11.1,11.1,0,0,0,28.68,41.051ZM25.748,30.986V27.942a1.522,1.522,0,0,1,0,3.043ZM9.009,22.616a.185.185,0,0,1,.315-.13,1.708,1.708,0,0,0,2.413,0l2.014-2.014a5.668,5.668,0,0,1,8.016,0l.488.488a.19.19,0,0,1,0,.269l-.849.849a.761.761,0,0,0,1.076,1.076l.538-.538h.891a1.837,1.837,0,0,1,1.837,1.837v1.968H24.726a2.267,2.267,0,0,1-1.614-.669L20.96,23.6a.761.761,0,0,0-1.076,0,9.567,9.567,0,0,1-6.81,2.821h-.93a3.136,3.136,0,0,1-3.136-3.136Zm0,6.848a1.523,1.523,0,0,1,1.522-1.522v3.043A1.523,1.523,0,0,1,9.009,29.464Zm3.043,1.522V27.94l.092,0h.93A11.07,11.07,0,0,0,20.4,25.2l1.632,1.632a3.774,3.774,0,0,0,2.19,1.081v3.077a6.1,6.1,0,0,1-3.8,5.641,2.281,2.281,0,0,0-3.1.672l-.16.24-.129-.086a2.181,2.181,0,0,0-.455-.232.76.76,0,0,0-.473-.5A6.1,6.1,0,0,1,12.052,30.986Zm1.521,9.891a3.051,3.051,0,0,0,.637-.068l.006.013L12.946,42.73l-.2.291-.476-2.062a9.65,9.65,0,0,1,1.246-.082Zm-3.8.758a9.612,9.612,0,0,1,1.008-.361l.719,3.115-1.727.691Zm12.219-.819-3.295,4.393L14.659,42.9l1.07-1.6a.761.761,0,0,0,.047-.762l-.5-1a.635.635,0,0,1,.92-.813l.762.508a.761.761,0,0,0,1.055-.211l.582-.874a.761.761,0,0,1,1.12-.162l2.154,1.795a.761.761,0,0,1,.122,1.041Zm2.793,3.572.719-3.115a9.636,9.636,0,0,1,1.008.361v3.444Z" transform="translate(931.178 2015.859)"/>
    <path id="Trazado_151523" data-name="Trazado 151523" d="M56.481,16.906,53.42,14.456l3.062-2.449a.761.761,0,0,0-.35-1.345l-3.107-.518,2.759-2.759a.761.761,0,0,0-.646-1.291l-4.3.614.59-3.54a.761.761,0,0,0-1.091-.806l-3.781,1.89L45.315.52a.761.761,0,0,0-1.444,0L42.627,4.253l-3.781-1.89a.761.761,0,0,0-1.091.806l.59,3.54-4.3-.614A.761.761,0,0,0,33.4,7.386l2.759,2.759-3.107.518a.761.761,0,0,0-.35,1.345l3.062,2.449-.208.167.951,1.188.951-.761a.761.761,0,0,0,0-1.188l-2.474-1.979L37.87,11.4a.761.761,0,0,0,.413-1.289l-2.19-2.19,3.066.438a.761.761,0,0,0,.858-.878L39.5,4.392l3.229,1.614a.761.761,0,0,0,1.062-.44l.8-2.4.8,2.4a.761.761,0,0,0,1.062.44l3.229-1.614-.515,3.091a.761.761,0,0,0,.858.878l3.066-.438-2.19,2.19a.761.761,0,0,0,.413,1.289l2.884.481-2.474,1.979a.761.761,0,0,0,0,1.188l2.712,2.17L51.2,18.3a.761.761,0,0,0-.3,1.26l2.19,2.19-3.066-.438a.761.761,0,0,0-.858.878l.472,2.833-3.1-2.069a.761.761,0,0,0-1.144.392l-.8,2.4-.8-2.4a.761.761,0,0,0-1.144-.392l-3.8,2.536.844,1.266,2.975-1.984,1.207,3.62a.761.761,0,0,0,1.444,0l1.207-3.62,3.736,2.491a.761.761,0,0,0,1.173-.758l-.59-3.54,4.3.614a.761.761,0,0,0,.646-1.291l-2.934-2.934,3.4-1.132a.761.761,0,0,0,.235-1.316Z" transform="translate(922.224 2020.976)"/>
    <path id="Trazado_151524" data-name="Trazado 151524" d="M46.468,27.137a2.283,2.283,0,1,0,2.283-2.283,2.283,2.283,0,0,0-2.283,2.283Zm3.043,0a.761.761,0,1,1-.761-.761A.761.761,0,0,1,49.511,27.137Z" transform="translate(918.067 2013.621)"/>
    <path id="Trazado_151525" data-name="Trazado 151525" d="M51.3,10a.761.761,0,0,0-.584-.273H46.148a.761.761,0,0,0-.749.9l1.522,8.37a.761.761,0,0,0,.749.625h1.522a.761.761,0,0,0,.749-.625l1.522-8.37A.761.761,0,0,0,51.3,10Zm-2.741,8.1H48.3L47.06,11.248H49.8Z" transform="translate(918.386 2018.098)"/>
  </g>
</svg>
