<svg xmlns="http://www.w3.org/2000/svg" width="133" height="133" viewBox="0 0 133 133">
  <g id="metas" transform="translate(0)">
    <path id="Trazado_151639" data-name="Trazado 151639" d="M116.08,64.193A54.465,54.465,0,1,1,61.615,9.727,54.465,54.465,0,0,1,116.08,64.193Z" transform="translate(-0.158 -0.215)" fill="#ffd35d"/>
    <path id="Trazado_151640" data-name="Trazado 151640" d="M117.252,64.193a54.465,54.465,0,0,1-54.466,54.466c-.845,0-1.686-.022-2.522-.06a54.464,54.464,0,0,0,0-108.811c.836-.038,1.676-.06,2.522-.06A54.466,54.466,0,0,1,117.252,64.193Z" transform="translate(-1.329 -0.215)" fill="#ffa644"/>
    <path id="Trazado_151641" data-name="Trazado 151641" d="M106.222,64.421A44.379,44.379,0,1,1,61.842,20.041,44.379,44.379,0,0,1,106.222,64.421Z" transform="translate(-0.385 -0.442)" fill="#f9e7c7"/>
    <path id="Trazado_151642" data-name="Trazado 151642" d="M91.434,64.762a29.25,29.25,0,1,1-29.25-29.25A29.25,29.25,0,0,1,91.434,64.762Z" transform="translate(-0.726 -0.783)" fill="#ffb750"/>
    <path id="Trazado_151643" data-name="Trazado 151643" d="M76.645,65.1A14.121,14.121,0,1,1,62.525,50.982,14.121,14.121,0,0,1,76.645,65.1Z" transform="translate(-1.068 -1.125)" fill="#fff7d4"/>
    <path id="Trazado_151644" data-name="Trazado 151644" d="M76.873,65.1A14.122,14.122,0,0,1,58.718,78.636a14.121,14.121,0,0,0,0-27.065A14.122,14.122,0,0,1,76.873,65.1Z" transform="translate(-1.295 -1.125)" fill="#f9e7c7"/>
    <path id="Trazado_151645" data-name="Trazado 151645" d="M132.927,45.769V83.592a2.522,2.522,0,0,1-2.522,2.522H97.121A2.522,2.522,0,0,1,94.6,83.592V73.83l-9.162-8.211a1.261,1.261,0,0,1,0-1.878L94.6,55.531V45.769a2.522,2.522,0,0,1,2.522-2.522h33.285A2.522,2.522,0,0,1,132.927,45.769Z" transform="translate(-1.875 -0.954)" fill="#a9f2c2"/>
    <path id="Trazado_151646" data-name="Trazado 151646" d="M133.849,45.769V83.592a2.522,2.522,0,0,1-2.522,2.522h-4.538a2.522,2.522,0,0,0,2.522-2.522V45.769a2.522,2.522,0,0,0-2.522-2.522h4.538A2.521,2.521,0,0,1,133.849,45.769Z" transform="translate(-2.797 -0.954)" fill="#90eeba"/>
    <path id="Trazado_151647" data-name="Trazado 151647" d="M125.555,64.559a11.781,11.781,0,1,1-11.781-11.781A11.781,11.781,0,0,1,125.555,64.559Z" transform="translate(-2.25 -1.164)" fill="#43cc99"/>
    <path id="Trazado_151648" data-name="Trazado 151648" d="M42.337,132.927H4.514a2.522,2.522,0,0,1-2.522-2.522V97.121A2.522,2.522,0,0,1,4.514,94.6h9.762l8.211-9.162a1.261,1.261,0,0,1,1.878,0L32.575,94.6h9.762a2.522,2.522,0,0,1,2.522,2.522v33.285A2.521,2.521,0,0,1,42.337,132.927Z" transform="translate(-0.044 -1.875)" fill="#ff7459"/>
    <path id="Trazado_151649" data-name="Trazado 151649" d="M45.285,97.121v33.285a2.522,2.522,0,0,1-2.522,2.522H37.721a2.522,2.522,0,0,0,2.522-2.522V97.121A2.522,2.522,0,0,0,37.721,94.6h5.043A2.522,2.522,0,0,1,45.285,97.121ZM22.913,85.437,21.331,87.2l5.876,6.558a2.521,2.521,0,0,0,1.878.839H33l-8.211-9.162A1.26,1.26,0,0,0,22.913,85.437Z" transform="translate(-0.471 -1.875)" fill="#fc5b52"/>
    <path id="Trazado_151650" data-name="Trazado 151650" d="M24.279,123.139a1.163,1.163,0,0,1-1.248,0c-2.958-1.878-15.166-10.232-8.835-16.476h0a5.235,5.235,0,0,1,7.4,0l1.645,1.645a.582.582,0,0,0,.822,0l1.645-1.645a5.235,5.235,0,0,1,7.4,0h0C39.446,112.906,27.237,121.261,24.279,123.139Z" transform="translate(-0.274 -2.319)" fill="#fff7d4"/>
    <path id="Trazado_151651" data-name="Trazado 151651" d="M70.643,4.514V37.8a2.522,2.522,0,0,1-2.522,2.522H58.359l-8.211,9.162a1.261,1.261,0,0,1-1.878,0L40.06,40.32H30.3A2.522,2.522,0,0,1,27.777,37.8V4.514A2.522,2.522,0,0,1,30.3,1.992H68.121A2.522,2.522,0,0,1,70.643,4.514Z" transform="translate(-0.613 -0.044)" fill="#fff47a"/>
    <path id="Trazado_151652" data-name="Trazado 151652" d="M71.07,4.514V37.8a2.522,2.522,0,0,1-2.522,2.522H63.5A2.522,2.522,0,0,0,66.026,37.8V4.514A2.522,2.522,0,0,0,63.5,1.992h5.043A2.522,2.522,0,0,1,71.07,4.514ZM52.991,41.159l-5.876,6.558L48.7,49.483a1.261,1.261,0,0,0,1.878,0l8.211-9.162H54.869A2.52,2.52,0,0,0,52.991,41.159Z" transform="translate(-1.039 -0.044)" fill="#ffe766"/>
    <path id="Trazado_151653" data-name="Trazado 151653" d="M50.356,9.444l2.9,5.881a2.126,2.126,0,0,0,1.6,1.163l6.49.943a1.063,1.063,0,0,1,.589,1.813l-4.7,4.578a2.126,2.126,0,0,0-.611,1.881l1.109,6.464a1.063,1.063,0,0,1-1.542,1.12l-5.8-3.052a2.126,2.126,0,0,0-1.978,0l-5.8,3.052a1.063,1.063,0,0,1-1.542-1.12L42.176,25.7a2.126,2.126,0,0,0-.611-1.881l-4.7-4.578a1.063,1.063,0,0,1,.589-1.813l6.49-.943a2.125,2.125,0,0,0,1.6-1.163l2.9-5.881A1.063,1.063,0,0,1,50.356,9.444Z" transform="translate(-0.806 -0.195)" fill="#ffb750"/>
    <path id="Trazado_151654" data-name="Trazado 151654" d="M39.4,25.021a.177.177,0,0,1,.051.157l-1.109,6.464a3.007,3.007,0,0,0,4.369,3.174l5.8-3.052a.176.176,0,0,1,.165,0l5.8,3.052a3.011,3.011,0,0,0,4.369-3.174l-1.109-6.464a.178.178,0,0,1,.051-.157l4.7-4.578a3.011,3.011,0,0,0-1.668-5.136l-6.491-.943a.176.176,0,0,1-.133-.1L51.3,8.387a3.011,3.011,0,0,0-5.4,0h0L43,14.268a.177.177,0,0,1-.134.1l-6.49.943A3.011,3.011,0,0,0,34.7,20.443Zm4.023-6.8a4.072,4.072,0,0,0,3.068-2.228L48.6,11.721l2.108,4.272a4.072,4.072,0,0,0,3.067,2.228l4.714.685-3.412,3.325A4.074,4.074,0,0,0,53.9,25.837l.806,4.7-4.217-2.217a4.073,4.073,0,0,0-3.791,0l-4.217,2.217.806-4.7a4.073,4.073,0,0,0-1.172-3.606l-3.412-3.325ZM29.139,100.862a7.134,7.134,0,0,0-5.079,2.1l-.679.679-.679-.678a7.182,7.182,0,0,0-10.148-.01,7.327,7.327,0,0,0-2.334,6.128c.629,5.89,8.247,11.319,11.492,13.379a3.124,3.124,0,0,0,3.337,0c3.246-2.061,10.864-7.49,11.493-13.379a7.326,7.326,0,0,0-2.33-6.124A7.135,7.135,0,0,0,29.139,100.862Zm3.529,7.809c-.355,3.324-5.13,7.52-9.287,10.233C19.225,116.192,14.45,112,14.1,108.671a3.442,3.442,0,0,1,1.206-2.95,3.286,3.286,0,0,1,4.647,0l1.644,1.644a2.53,2.53,0,0,0,3.578,0l1.645-1.645a3.286,3.286,0,0,1,4.647,0l.01.01A3.434,3.434,0,0,1,32.668,108.671ZM128.53,40.345H112.689a56.443,56.443,0,0,0-40.71-31.8V4.47A4.475,4.475,0,0,0,67.509,0H29.686a4.475,4.475,0,0,0-4.47,4.47V20.776a1.934,1.934,0,0,0-.243.174A56.44,56.44,0,0,0,11.805,90.776H4.47A4.475,4.475,0,0,0,0,95.246V128.53A4.475,4.475,0,0,0,4.47,133H42.293a4.475,4.475,0,0,0,4.47-4.47V118.459a56.5,56.5,0,0,0,66.162-31.351H128.53a4.475,4.475,0,0,0,4.47-4.47V44.815A4.475,4.475,0,0,0,128.53,40.345Zm-20.166,0h-7.057A46.458,46.458,0,0,0,77.16,20.381a1.948,1.948,0,1,0-1.321,3.666A42.55,42.55,0,0,1,96.7,40.345H95.246a4.475,4.475,0,0,0-4.47,4.47v8.892l-8.515,7.63a3.2,3.2,0,0,0-.578.694H77.411a16.08,16.08,0,0,0-12.83-13.814q-.586-.116-1.176-.188v-5.8h4.1a4.475,4.475,0,0,0,4.357-3.487A27.336,27.336,0,0,1,84.972,50.1a1.948,1.948,0,1,0,3.353-1.984A31.226,31.226,0,0,0,71.978,34.6V12.519A52.271,52.271,0,0,1,108.365,40.345ZM61.519,76.154c-.021,0-.041,0-.062,0l-.044,0a12.286,12.286,0,0,1-2.322-.235A12.182,12.182,0,0,1,51.122,57.54a1.948,1.948,0,0,0-3.307-2.061,16.019,16.019,0,0,0-2.121,5.376c-.078.391-.136.783-.184,1.175H34.224a27.02,27.02,0,0,1,7.212-16.615l4.771,5.324a3.209,3.209,0,0,0,4.78,0l7.63-8.514h.892v5.8a15.994,15.994,0,0,0-4.346,1.166,1.948,1.948,0,0,0,1.529,3.584,12.174,12.174,0,1,1,4.827,23.378ZM19.07,62.03a41.862,41.862,0,0,1,7.064-21.572,4.461,4.461,0,0,0,3.551,1.766h8.892l.251.28A30.884,30.884,0,0,0,30.32,62.03ZM29.112,4.47a.574.574,0,0,1,.573-.573H67.509a.574.574,0,0,1,.573.573V37.754a.574.574,0,0,1-.573.573H57.747a1.947,1.947,0,0,0-1.451.648l-7.7,8.591-7.7-8.591a1.948,1.948,0,0,0-1.451-.648H29.686a.574.574,0,0,1-.573-.573V4.47Zm-3.9,21.5v9.161a2.006,2.006,0,0,0-.132.151A45.8,45.8,0,0,0,15.169,62.03H8.98A52.434,52.434,0,0,1,25.216,25.972ZM42.867,128.53a.574.574,0,0,1-.573.573H4.47a.574.574,0,0,1-.573-.573V95.246a.574.574,0,0,1,.573-.573h9.762a1.947,1.947,0,0,0,1.451-.648l7.7-8.591,7.7,8.591a1.948,1.948,0,0,0,1.451.648h9.762a.574.574,0,0,1,.573.573V128.53Zm-.573-37.754H33.4l-7.63-8.515a3.209,3.209,0,0,0-4.78,0l-5.838,6.515a52.455,52.455,0,0,1-6.176-22.85h6.194a46.188,46.188,0,0,0,2.246,12.468,1.948,1.948,0,1,0,3.7-1.212,42.3,42.3,0,0,1-2.049-11.256H30.32A31,31,0,0,0,42.352,88.645a1.948,1.948,0,0,0,2.388-3.079A27.124,27.124,0,0,1,34.226,65.927H45.5a16.08,16.08,0,0,0,12.83,13.814c.391.078.783.136,1.175.184V91.211a27.03,27.03,0,0,1-8.815-2.134,1.948,1.948,0,0,0-1.538,3.581,30.9,30.9,0,0,0,10.353,2.457v11.248a42.621,42.621,0,0,1-6.639-.823,1.948,1.948,0,1,0-.784,3.817,46.5,46.5,0,0,0,7.423.9v6.2a52.459,52.459,0,0,1-12.746-2.048V95.246A4.475,4.475,0,0,0,42.293,90.776ZM63.405,116.46v-6.2a45.749,45.749,0,0,0,18.886-4.894A46.756,46.756,0,0,0,98.234,92.155a1.948,1.948,0,0,0-3.091-2.372,42.134,42.134,0,0,1-31.737,16.579V95.113A31.238,31.238,0,0,0,88.767,79.073a1.948,1.948,0,0,0-3.409-1.888A27.341,27.341,0,0,1,63.405,91.209V79.935A16.088,16.088,0,0,0,77.219,67.1c.078-.391.136-.783.184-1.175h4.668c.061.065.123.129.19.189l8.515,7.63v8.892a4.475,4.475,0,0,0,4.47,4.47H108.62A52.487,52.487,0,0,1,63.405,116.46Zm65.7-33.822a.574.574,0,0,1-.573.573H95.246a.574.574,0,0,1-.573-.573V72.876a1.947,1.947,0,0,0-.648-1.451l-8.591-7.7,8.591-7.7a1.948,1.948,0,0,0,.648-1.451V44.815a.574.574,0,0,1,.573-.573H128.53a.574.574,0,0,1,.573.573Zm-3.98-31.778-2.7,4.182a13.7,13.7,0,1,1-6.933-4.794,1.948,1.948,0,0,1-1.123,3.731,9.836,9.836,0,1,0,5.75,4.632l-6.548,10.135-.035.052a2.445,2.445,0,0,1-2,1.077h-.013a2.44,2.44,0,0,1-1.938-1.013l-5.061-6.277a1.948,1.948,0,1,1,3.033-2.445l3.849,4.774L121.85,48.745a1.948,1.948,0,0,1,3.273,2.114Z"/>
  </g>
</svg>
