<svg id="contacto" xmlns="http://www.w3.org/2000/svg" width="136.606" height="136.605" viewBox="0 0 136.606 136.605">
  <g id="Grupo_1186110" data-name="Grupo 1186110" transform="translate(2.203 2.203)">
    <g id="Grupo_1186103" data-name="Grupo 1186103" transform="translate(17.627 8.813)">
      <path id="Trazado_997408" data-name="Trazado 997408" d="M14.618,66.693A5.642,5.642,0,0,0,9,72.311V23.53a2.155,2.155,0,0,1,.2-.9H22.22v6.61a2.21,2.21,0,0,0,2.2,2.2H68.49a2.21,2.21,0,0,0,2.2-2.2V20.423a2.21,2.21,0,0,0-2.2-2.2H26.627V5.2a2.155,2.155,0,0,1,.9-.2H83.582l-.749.749.551.551a4.4,4.4,0,0,1-3.129,7.513h-.749v8.813h.749a4.4,4.4,0,0,1,3.129,7.513l-.551.551,6.235,6.235.551-.551A4.4,4.4,0,0,1,97.133,39.5v.749h4.407v77.116a2.21,2.21,0,0,1-2.2,2.2h-68.3v-2.2a2.21,2.21,0,0,0-2.2-2.2l.881-3.547a43.811,43.811,0,0,0,1.322-10.686A43.941,43.941,0,0,0,24.754,78.26l-5.31-8.835a5.612,5.612,0,0,0-4.825-2.732Z" transform="translate(-9 -5)" fill="#e6e9ed"/>
    </g>
    <g id="Grupo_1186104" data-name="Grupo 1186104" transform="translate(8.813 118.979)">
      <path id="Trazado_997409" data-name="Trazado 997409" d="M35.847,59.407V68.22H5V57.2A2.21,2.21,0,0,1,7.2,55h26.44a2.21,2.21,0,0,1,2.2,2.2Z" transform="translate(-5 -55)" fill="#ff826e"/>
    </g>
    <g id="Grupo_1186105" data-name="Grupo 1186105" transform="translate(0 46.27)">
      <path id="Trazado_997410" data-name="Trazado 997410" d="M18.627,51.855a5.642,5.642,0,0,1,5.618-5.618,5.612,5.612,0,0,1,4.825,2.732L34.38,57.8A43.941,43.941,0,0,1,40.66,80.476a43.811,43.811,0,0,1-1.322,10.686l-.881,3.547H12.017L2.873,67.278A36.616,36.616,0,0,1,3.38,42.733a36.216,36.216,0,0,1,6.852-11.281L18.627,22Z" transform="translate(-1 -22)" fill="#f0d0b4"/>
    </g>
    <g id="Grupo_1186106" data-name="Grupo 1186106" transform="translate(30.847 22.033)">
      <path id="Trazado_997411" data-name="Trazado 997411" d="M63.473,13.2v8.813a2.21,2.21,0,0,1-2.2,2.2H17.2a2.21,2.21,0,0,1-2.2-2.2v-6.61h4.407V11H61.27A2.21,2.21,0,0,1,63.473,13.2Z" transform="translate(-15 -11)" fill="#ff826e"/>
    </g>
    <g id="Grupo_1186107" data-name="Grupo 1186107" transform="translate(17.847 9.034)">
      <path id="Trazado_997412" data-name="Trazado 997412" d="M22.1,22.506H9.1a1.79,1.79,0,0,1,.419-.639L25.867,5.519a1.79,1.79,0,0,1,.639-.419V22.506Z" transform="translate(-9.1 -5.1)" fill="#b4dd7f"/>
    </g>
    <g id="Grupo_1186108" data-name="Grupo 1186108" transform="translate(88.133)">
      <path id="Trazado_997413" data-name="Trazado 997413" d="M58.627,44.317a4.4,4.4,0,0,0-7.513-3.129l-.551.551L44.327,35.5l.551-.551a4.4,4.4,0,0,0-3.129-7.513H41V18.627h.749a4.4,4.4,0,0,0,3.129-7.513l-.551-.551.749-.749H45.1l5.464-5.486.551.551a4.4,4.4,0,0,0,7.513-3.129V1H67.44v.749a4.4,4.4,0,0,0,7.513,3.129l.551-.551,6.235,6.235-.551.551a4.4,4.4,0,0,0,3.129,7.513h.749V27.44h-.749a4.4,4.4,0,0,0-3.129,7.513l.551.551L75.5,41.739l-.551-.551a4.4,4.4,0,0,0-7.513,3.129v.749H58.627ZM49.813,23.033a13.22,13.22,0,1,0,13.22-13.22A13.23,13.23,0,0,0,49.813,23.033Z" transform="translate(-41 -1)" fill="#ffc729"/>
    </g>
    <g id="Grupo_1186109" data-name="Grupo 1186109" transform="translate(96.946 8.813)">
      <path id="Trazado_997414" data-name="Trazado 997414" d="M58.22,5A13.22,13.22,0,1,1,45,18.22,13.23,13.23,0,0,1,58.22,5Zm4.407,13.22a4.407,4.407,0,1,0-4.407,4.407A4.42,4.42,0,0,0,62.627,18.22Z" transform="translate(-45 -5)" fill="#fcd770"/>
    </g>
  </g>
  <g id="Grupo_1186111" data-name="Grupo 1186111" transform="translate(0 0)">
    <path id="Trazado_997415" data-name="Trazado 997415" d="M54.61,8a6.61,6.61,0,1,0,6.61,6.61A6.618,6.618,0,0,0,54.61,8Zm0,8.813a2.2,2.2,0,1,1,2.2-2.2A2.207,2.207,0,0,1,54.61,16.813Z" transform="translate(57.76 9.627)"/>
    <path id="Trazado_997416" data-name="Trazado 997416" d="M133.647,30.846h2.959V17.627h-2.959a2.2,2.2,0,0,1-1.558-3.761l2.093-2.093-9.349-9.349-2.093,2.093a2.2,2.2,0,0,1-3.761-1.558V0h-13.22V2.959A2.2,2.2,0,0,1,102,4.517L99.905,2.424l-6.387,6.39H38.369A4.377,4.377,0,0,0,35.253,10.1L18.918,26.44a4.377,4.377,0,0,0-1.291,3.115V47.633L9.789,56.451a38.758,38.758,0,0,0-7.8,38.007l8.5,25.5a4.387,4.387,0,0,0-1.675,3.431v13.22H44.066v-8.813h66.1a4.411,4.411,0,0,0,4.407-4.407V48.473h4.407V45.514a2.2,2.2,0,0,1,3.761-1.558l2.093,2.093,9.349-9.349-2.093-2.093a2.2,2.2,0,0,1,1.558-3.761ZM25.149,26.44l10.1-10.1v10.1Zm10.1,4.407H39.66V26.44H79.32v8.813H35.253ZM4.407,82.2a34.3,34.3,0,0,1,8.677-22.82l4.543-5.114V78.337a19.71,19.71,0,0,0,1.258,6.943l5.491,14.643L28.5,98.376,23.012,83.733a15.294,15.294,0,0,1-.978-5.4,3.425,3.425,0,0,1,6.361-1.763l5.3,8.838a41.865,41.865,0,0,1,5.964,21.535A41.944,41.944,0,0,1,38.411,117.1l-.472,1.882H14.809L6.169,93.064A34.29,34.29,0,0,1,4.407,82.2Zm35.253,50H13.22v-8.813H39.66Zm70.506-8.813h-66.1a4.4,4.4,0,0,0-1.8-3.536l.421-1.683a46.325,46.325,0,0,0,1.381-11.219,46.272,46.272,0,0,0-6.592-23.8l-5.3-8.84a7.877,7.877,0,0,0-6.716-3.8,7.744,7.744,0,0,0-3.424.822V30.846h8.813v4.407a4.411,4.411,0,0,0,4.407,4.407H79.32a4.411,4.411,0,0,0,4.407-4.407V26.44a4.411,4.411,0,0,0-4.407-4.407H39.66V13.22H92l.646.646a2.2,2.2,0,0,1-1.558,3.761H88.133v13.22h2.959a2.2,2.2,0,0,1,1.558,3.761L90.557,36.7l9.349,9.349L102,43.956a2.2,2.2,0,0,1,3.761,1.558v2.959h4.407ZM127.539,30.52a6.488,6.488,0,0,0,.518,6.072l-3.331,3.331a6.628,6.628,0,0,0-10,4.142h-4.713a6.628,6.628,0,0,0-10-4.142L96.68,36.593a6.628,6.628,0,0,0-4.142-10V21.881a6.628,6.628,0,0,0,4.142-10l3.331-3.331a6.5,6.5,0,0,0,6.072.518,6.492,6.492,0,0,0,3.931-4.66h4.713a6.494,6.494,0,0,0,3.929,4.66,6.482,6.482,0,0,0,6.072-.518l3.331,3.331a6.629,6.629,0,0,0,4.14,10v4.713a6.486,6.486,0,0,0-4.66,3.926Z" transform="translate(0 0)"/>
    <path id="Trazado_997417" data-name="Trazado 997417" d="M59.423,4A15.423,15.423,0,1,0,74.847,19.423,15.44,15.44,0,0,0,59.423,4Zm0,26.44A11.017,11.017,0,1,1,70.44,19.423,11.029,11.029,0,0,1,59.423,30.44Z" transform="translate(52.946 4.813)"/>
    <path id="Trazado_997418" data-name="Trazado 997418" d="M14,20h8.813v4.407H14Z" transform="translate(16.847 24.066)"/>
    <path id="Trazado_997419" data-name="Trazado 997419" d="M20,20H59.66v4.407H20Z" transform="translate(24.066 24.066)"/>
    <path id="Trazado_997420" data-name="Trazado 997420" d="M14,24H66.88v4.407H14Z" transform="translate(16.847 28.88)"/>
    <path id="Trazado_997421" data-name="Trazado 997421" d="M14,28H49.253v4.407H14Z" transform="translate(16.847 33.693)"/>
    <path id="Trazado_997422" data-name="Trazado 997422" d="M32,28H45.22v4.407H32Z" transform="translate(38.506 33.693)"/>
    <path id="Trazado_997423" data-name="Trazado 997423" d="M20,32h4.407v4.407H20Z" transform="translate(24.066 38.506)"/>
    <path id="Trazado_997424" data-name="Trazado 997424" d="M24,32h4.407v4.407H24Z" transform="translate(28.88 38.506)"/>
    <path id="Trazado_997425" data-name="Trazado 997425" d="M28,32h4.407v4.407H28Z" transform="translate(33.693 38.506)"/>
    <path id="Trazado_997426" data-name="Trazado 997426" d="M72.586,42.211a4.379,4.379,0,0,0-2.538,3.459l-.969,7.756L66.705,49.47A5.476,5.476,0,0,0,56.7,50.962l-.139.555-3.1-6.2a5.266,5.266,0,0,0-9.875,1.322l-.729,3.646-8.518-9.465A8.553,8.553,0,0,0,28,38a6,6,0,0,0-6,6,5.79,5.79,0,0,0,.278,1.8L26.49,60.635l4.239-1.2L26.488,44.5a1.631,1.631,0,0,1-.082-.5A1.589,1.589,0,0,1,28,42.407a4.13,4.13,0,0,1,3.067,1.366L41.777,55.679l-1,5.013a6.818,6.818,0,0,0,6.685,8.154,5.387,5.387,0,0,0,4-8.992L46.53,54.373,47.9,47.505a.9.9,0,0,1,1.615-.216l3.1,6.2a4.406,4.406,0,0,0,8.216-.9l.139-.553a1.113,1.113,0,0,1,1.952-.291L65.3,55.695a4.406,4.406,0,0,0,8.15-1.721l.969-7.756,3.644,2.43,2.443-3.666L76.863,42.55a4.385,4.385,0,0,0-4.277-.339ZM48.189,62.8a.981.981,0,0,1-.729,1.637,2.41,2.41,0,0,1-2.366-2.882l.359-1.793Z" transform="translate(26.473 45.726)"/>
  </g>
</svg>
