<svg xmlns="http://www.w3.org/2000/svg" width="124" height="124" viewBox="0 0 124 124">
  <g id="Grupo_1186763" data-name="Grupo 1186763" transform="translate(-1155.174 -11306.926)">
    <circle id="Elipse_13730" data-name="Elipse 13730" cx="62" cy="62" r="62" transform="translate(1155.174 11306.926)" fill="#fff"/>
    <g id="interactivo" transform="translate(1172.485 11333.093)">
      <g id="Grupo_1186749" data-name="Grupo 1186749" transform="translate(7.227 1.05)">
        <path id="Trazado_997945" data-name="Trazado 997945" d="M58.831,9.991A2.5,2.5,0,0,0,56.343,7.5H32.518A2.5,2.5,0,0,0,30.03,9.991V20.636a2.5,2.5,0,0,0,2.488,2.491H56.343a2.5,2.5,0,0,0,2.488-2.491V9.991Z" transform="translate(-30.03 -7.5)" fill="#ffdb4e" fill-rule="evenodd"/>
      </g>
      <g id="Grupo_1186750" data-name="Grupo 1186750" transform="translate(36.938 18.037)">
        <path id="Trazado_997946" data-name="Trazado 997946" d="M261.427,136.085a9.733,9.733,0,1,0-12.19,11.853c2.349.779,6.016,2.737,9.377-2.157a9.741,9.741,0,0,0,2.813-9.7Z" transform="translate(-242.294 -128.863)" fill="#b1d7fe" fill-rule="evenodd"/>
      </g>
      <g id="Grupo_1186751" data-name="Grupo 1186751" transform="translate(4.561 34.035)">
        <path id="Trazado_997947" data-name="Trazado 997947" d="M30.123,248.286a10.257,10.257,0,1,0-3.754,14.021A10.247,10.247,0,0,0,30.123,248.286Z" transform="translate(-10.985 -243.151)" fill="#ff8389" fill-rule="evenodd"/>
      </g>
      <g id="Grupo_1186752" data-name="Grupo 1186752" transform="translate(10.551 40.031)">
        <path id="Trazado_997948" data-name="Trazado 997948" d="M61.739,288.124a4.267,4.267,0,1,0-1.559,5.831A4.263,4.263,0,0,0,61.739,288.124Z" transform="translate(-53.777 -285.986)" fill="#e7ecf1" fill-rule="evenodd"/>
      </g>
      <g id="Grupo_1186753" data-name="Grupo 1186753" transform="translate(33.164 25.073)">
        <path id="Trazado_997949" data-name="Trazado 997949" d="M237.214,194.164v-2.379a2.8,2.8,0,1,0-5.583,0v-9.7a2.8,2.8,0,1,0-5.583,0V202.14c0,2.121-.448,3.722-1.881,1.938-2.21-3.217-3.833-4.969-6.937-4.429-1.821.322-2.516,2.014-1.27,3.619l8.841,12.981a10.741,10.741,0,0,1,2.155,7.039,1.389,1.389,0,0,0,1.385,1.382h16.54a1.389,1.389,0,0,0,1.385-1.382v-4.282c0-3.591,1.639-3.253,2.111-7.642v-14.82a2.794,2.794,0,1,0-5.579,0v-2.379a2.8,2.8,0,1,0-5.583,0Z" transform="translate(-215.33 -179.126)" fill="#ffece4" fill-rule="evenodd"/>
      </g>
      <g id="Grupo_1186754" data-name="Grupo 1186754" transform="translate(28.461 1.05)">
        <path id="Trazado_997950" data-name="Trazado 997950" d="M189.3,9.991A2.5,2.5,0,0,0,186.809,7.5H181.73a2.5,2.5,0,0,1,2.488,2.491V20.636a2.5,2.5,0,0,1-2.488,2.491h5.079a2.5,2.5,0,0,0,2.488-2.491Z" transform="translate(-181.73 -7.5)" fill="#ffaf5d" fill-rule="evenodd"/>
      </g>
      <g id="Grupo_1186755" data-name="Grupo 1186755" transform="translate(40.905 18.037)">
        <path id="Trazado_997951" data-name="Trazado 997951" d="M285.8,136.085a9.732,9.732,0,0,0-15.167-5.327A9.74,9.74,0,0,1,280.511,146a2.9,2.9,0,0,1,2.476-.222,9.742,9.742,0,0,0,2.814-9.7Z" transform="translate(-270.634 -128.863)" fill="#8bc6f8" fill-rule="evenodd"/>
      </g>
      <g id="Grupo_1186756" data-name="Grupo 1186756" transform="translate(59.984 39.534)">
        <path id="Trazado_997952" data-name="Trazado 997952" d="M413.168,285.394a2.8,2.8,0,0,0-4.155-2.618,2.813,2.813,0,0,1,1.425,2.618v14.82c-.472,4.389-2.111,4.052-2.111,7.642v4.282a1.389,1.389,0,0,1-1.385,1.382h2.73a1.389,1.389,0,0,0,1.385-1.382v-4.282c0-3.591,1.639-3.253,2.111-7.642v-14.82Z" transform="translate(-406.942 -282.437)" fill="#ffddce" fill-rule="evenodd"/>
      </g>
      <g id="Grupo_1186757" data-name="Grupo 1186757" transform="translate(64.076 23.846)">
        <path id="Trazado_997953" data-name="Trazado 997953" d="M444.031,174.293a3.931,3.931,0,1,0-3.929,3.932A3.933,3.933,0,0,0,444.031,174.293Z" transform="translate(-436.17 -170.357)" fill="#ff8389" fill-rule="evenodd"/>
      </g>
      <g id="Grupo_1186758" data-name="Grupo 1186758" transform="translate(61.146 2.668)">
        <path id="Trazado_997954" data-name="Trazado 997954" d="M425.484,20.821a6,6,0,1,0,0,8.492,6,6,0,0,0,0-8.492Z" transform="translate(-415.241 -19.064)" fill="#ff8389" fill-rule="evenodd"/>
      </g>
      <g id="Grupo_1186759" data-name="Grupo 1186759" transform="translate(65.044 2.668)">
        <path id="Trazado_997955" data-name="Trazado 997955" d="M449.433,29.31a6,6,0,0,0-6.345-9.871,6.007,6.007,0,0,1,.682,11.46A5.983,5.983,0,0,0,449.433,29.31Z" transform="translate(-443.088 -19.06)" fill="#f67" fill-rule="evenodd"/>
      </g>
      <g id="Grupo_1186760" data-name="Grupo 1186760" transform="translate(66.036 23.846)">
        <path id="Trazado_997956" data-name="Trazado 997956" d="M456.076,174.293a3.927,3.927,0,0,0-5.9-3.4,3.933,3.933,0,0,1,.417,7.015,3.927,3.927,0,0,0,5.484-3.611Z" transform="translate(-450.175 -170.357)" fill="#f67" fill-rule="evenodd"/>
      </g>
      <g id="Grupo_1186761" data-name="Grupo 1186761" transform="translate(12.544 34.034)">
        <path id="Trazado_997957" data-name="Trazado 997957" d="M75.106,248.375A10.277,10.277,0,0,1,68.5,263.52a10.266,10.266,0,1,0-.48-20.123A10.233,10.233,0,0,1,75.106,248.375Z" transform="translate(-68.019 -243.143)" fill="#f67" fill-rule="evenodd"/>
      </g>
      <g id="Grupo_1186762" data-name="Grupo 1186762" transform="translate(3.515 0)">
        <path id="Trazado_997958" data-name="Trazado 997958" d="M126.393,37.43h-10.96a1.05,1.05,0,0,0,0,2.1h10.96a1.05,1.05,0,0,0,0-2.1Z" transform="translate(-98.864 -32.191)"/>
        <path id="Trazado_997959" data-name="Trazado 997959" d="M53.971,39.53h3.194a1.05,1.05,0,0,0,0-2.1H53.971a1.05,1.05,0,0,0,0,2.1Z" transform="translate(-46.005 -32.191)"/>
        <path id="Trazado_997960" data-name="Trazado 997960" d="M53.971,75.484h10.96a1.05,1.05,0,0,0,0-2.1H53.971a1.05,1.05,0,0,0,0,2.1Z" transform="translate(-46.005 -63.112)"/>
        <path id="Trazado_997961" data-name="Trazado 997961" d="M174.108,73.384h-3.194a1.05,1.05,0,0,0,0,2.1h3.194a1.05,1.05,0,0,0,0-2.1Z" transform="translate(-146.58 -63.112)"/>
        <path id="Trazado_997962" data-name="Trazado 997962" d="M68.008,22.8a4.991,4.991,0,0,0-4.87,3.936H57.4A10.851,10.851,0,0,0,55,20.926l7.21-7.217A7.051,7.051,0,0,0,72.132,3.684a7.054,7.054,0,0,0-11.195,8.334l-.021.019-7.4,7.406a10.9,10.9,0,0,0-1.458-1.011,10.777,10.777,0,0,0-12.231,1.011L36.5,16.115a3.521,3.521,0,0,0,.574-1.93V3.54A3.543,3.543,0,0,0,33.54,0H9.715A3.543,3.543,0,0,0,6.177,3.54V14.185a3.543,3.543,0,0,0,3.538,3.54h8.274a1.05,1.05,0,0,0,0-2.1H9.715a1.441,1.441,0,0,1-1.438-1.441V3.54A1.441,1.441,0,0,1,9.715,2.1H33.54A1.441,1.441,0,0,1,34.978,3.54V14.185a1.441,1.441,0,0,1-1.438,1.441h-10.7a1.05,1.05,0,0,0,0,2.1h10.7a3.515,3.515,0,0,0,1.34-.265l3.468,3.471a10.8,10.8,0,0,0-2.269,8.844L23.5,37.049l0,0A11.3,11.3,0,0,0,9.165,34.5a11.312,11.312,0,1,0,15.521,4.285l12-6.937a10.706,10.706,0,0,0,6.146,6.012V48.087a9.066,9.066,0,0,1-.067,1.2c-2.136-3.093-4.1-5.379-7.883-4.721a3.235,3.235,0,0,0-2.573,1.961,3.4,3.4,0,0,0,.636,3.307l8.823,12.955a9.713,9.713,0,0,1,1.973,6.448,2.436,2.436,0,0,0,2.435,2.432h16.54a2.436,2.436,0,0,0,2.435-2.432V64.953a5.551,5.551,0,0,1,.775-3.066,11.181,11.181,0,0,0,1.33-4.464,1.074,1.074,0,0,0,.006-.112V53.716a1.05,1.05,0,1,0-2.1,0v3.538a9.087,9.087,0,0,1-1.1,3.675,7.6,7.6,0,0,0-1.006,4.025v4.282a.338.338,0,0,1-.335.332H46.175a.338.338,0,0,1-.335-.332A11.76,11.76,0,0,0,43.5,61.605L34.662,48.624c-.012-.018-.025-.036-.038-.053a1.391,1.391,0,0,1-.356-1.292,1.2,1.2,0,0,1,.977-.648c2.424-.422,3.721.831,5.891,3.989.015.022.031.043.047.063.792.986,1.585,1.348,2.355,1.077.964-.339,1.394-1.472,1.394-3.673V28.028a1.749,1.749,0,1,1,3.484,0v18.1a1.05,1.05,0,1,0,2.1,0v-8.4a1.71,1.71,0,0,1,1.742-1.905,1.9,1.9,0,0,1,.589.094q.047.02.1.036A1.737,1.737,0,0,1,54,37.732v9.8a1.05,1.05,0,0,0,2.1,0V40.111a1.749,1.749,0,1,1,3.484,0v8.826a1.05,1.05,0,0,0,2.1,0V42.491a1.709,1.709,0,0,1,1.739-1.907,1.757,1.757,0,0,1,1.2.454,1.908,1.908,0,0,1,.542,1.453v6.375a1.05,1.05,0,1,0,2.1,0V42.49a3.8,3.8,0,0,0-3.841-4.007,3.947,3.947,0,0,0-1.877.473,3.748,3.748,0,0,0-3.7-2.851,3.953,3.953,0,0,0-1.879.473A3.718,3.718,0,0,0,54.9,34.752a10.773,10.773,0,0,0,2.5-5.921h5.732A4.981,4.981,0,1,0,68.008,22.8ZM63.647,5.169h0a4.952,4.952,0,0,1,7,7.009,4.952,4.952,0,0,1-7-7.008ZM19.42,52.282h0A9.194,9.194,0,0,1,6.846,48.909,9.207,9.207,0,1,1,19.42,52.282ZM55.356,27.8a8.679,8.679,0,0,1-2.408,5.989,3.972,3.972,0,0,0-2.434.341v-6.1a3.845,3.845,0,1,0-7.683,0v7.548a8.683,8.683,0,1,1,12.525-7.82c0,.009,0,.017,0,.026s0,.011,0,.017Zm12.652,2.866a2.885,2.885,0,1,1,2.879-2.883A2.886,2.886,0,0,1,68.008,30.665Z" transform="translate(-3.515 0)"/>
        <path id="Trazado_997963" data-name="Trazado 997963" d="M52.979,278.659a5.32,5.32,0,0,0-2.752,10.278,5.287,5.287,0,0,0,4.036-.532h0a5.323,5.323,0,0,0-1.284-9.746Zm.233,7.928a3.223,3.223,0,1,1,1.176-4.4A3.2,3.2,0,0,1,53.212,286.587Z" transform="translate(-40.3 -239.496)"/>
      </g>
    </g>
  </g>
</svg>
