<svg xmlns="http://www.w3.org/2000/svg" width="136" height="126.868" viewBox="0 0 136 126.868">
  <g id="metrica" transform="translate(0 0)">
    <path id="Trazado_151655" data-name="Trazado 151655" d="M12.98,58.573a4.2,4.2,0,0,1-2.547-7.534L47.114,23.064a4.2,4.2,0,0,1,4.292-.479l34.27,15.682L120.325,9.2a4.2,4.2,0,1,1,5.394,6.43L89.038,46.4A4.2,4.2,0,0,1,84.6,47L50.2,31.264,15.523,57.713a4.176,4.176,0,0,1-2.542.86Zm0,0" fill="#5b6fa0"/>
    <path id="Trazado_151656" data-name="Trazado 151656" d="M19.848,80.953H6.106a4.115,4.115,0,0,0-4.114,4.115v35.693a4.114,4.114,0,0,0,4.114,4.114H19.848a4.115,4.115,0,0,0,4.115-4.114V85.069A4.116,4.116,0,0,0,19.848,80.953Zm0,0" fill="#ea7988"/>
    <path id="Trazado_151657" data-name="Trazado 151657" d="M56.53,52.978H42.788a4.115,4.115,0,0,0-4.114,4.115v63.669a4.114,4.114,0,0,0,4.114,4.114H56.53a4.114,4.114,0,0,0,4.114-4.114V57.093a4.115,4.115,0,0,0-4.114-4.115Zm0,0" fill="#89dbd4"/>
    <path id="Trazado_151658" data-name="Trazado 151658" d="M93.211,69.764H79.47a4.114,4.114,0,0,0-4.114,4.114v46.884a4.114,4.114,0,0,0,4.114,4.114H93.211a4.115,4.115,0,0,0,4.115-4.114V73.878A4.115,4.115,0,0,0,93.211,69.764Zm0,0" fill="#5b6fa0"/>
    <path id="Trazado_151659" data-name="Trazado 151659" d="M129.894,38.99H116.152a4.116,4.116,0,0,0-4.115,4.115v77.657a4.115,4.115,0,0,0,4.115,4.114h13.742a4.114,4.114,0,0,0,4.114-4.114V43.1a4.114,4.114,0,0,0-4.114-4.114Zm0,0" fill="#fce182"/>
    <path id="Trazado_151660" data-name="Trazado 151660" d="M23.4,54.376A10.421,10.421,0,1,1,12.977,43.956,10.422,10.422,0,0,1,23.4,54.376Zm0,0" fill="#89dbd4"/>
    <path id="Trazado_151661" data-name="Trazado 151661" d="M18.29,59.485A10.421,10.421,0,0,1,8.76,44.847,10.421,10.421,0,1,0,22.508,58.594a10.4,10.4,0,0,1-4.218.891Zm0,0" fill="#7ac5bf"/>
    <path id="Trazado_151662" data-name="Trazado 151662" d="M60.08,26.4A10.421,10.421,0,1,1,49.659,15.98,10.42,10.42,0,0,1,60.08,26.4Zm0,0" fill="#89dbd4"/>
    <path id="Trazado_151663" data-name="Trazado 151663" d="M54.972,31.509a10.421,10.421,0,0,1-9.529-14.637A10.421,10.421,0,1,0,59.189,30.617a10.377,10.377,0,0,1-4.217.891Zm0,0" fill="#7ac5bf"/>
    <path id="Trazado_151664" data-name="Trazado 151664" d="M96.762,43.187A10.421,10.421,0,1,1,86.34,32.765,10.422,10.422,0,0,1,96.762,43.187Zm0,0" fill="#89dbd4"/>
    <path id="Trazado_151665" data-name="Trazado 151665" d="M91.653,48.295a10.421,10.421,0,0,1-9.529-14.637A10.421,10.421,0,1,0,95.871,47.4a10.4,10.4,0,0,1-4.218.891Zm0,0" fill="#7ac5bf"/>
    <path id="Trazado_151666" data-name="Trazado 151666" d="M133.443,12.413A10.421,10.421,0,1,1,123.023,1.992a10.421,10.421,0,0,1,10.421,10.421Zm0,0" fill="#89dbd4"/>
    <path id="Trazado_151667" data-name="Trazado 151667" d="M128.335,17.522a10.42,10.42,0,0,1-9.529-14.638A10.421,10.421,0,1,0,132.552,16.63a10.378,10.378,0,0,1-4.217.892Zm0,0" fill="#7ac5bf"/>
    <path id="Trazado_151668" data-name="Trazado 151668" d="M19.848,78.961H6.106A6.113,6.113,0,0,0,0,85.069v35.693a6.113,6.113,0,0,0,6.106,6.106H19.848a6.113,6.113,0,0,0,6.107-6.106V85.069A6.114,6.114,0,0,0,19.848,78.961Zm2.123,41.8a2.125,2.125,0,0,1-2.123,2.122H6.106a2.125,2.125,0,0,1-2.122-2.122V85.068a2.125,2.125,0,0,1,2.122-2.123H19.848a2.126,2.126,0,0,1,2.123,2.123Zm0,0"/>
    <path id="Trazado_151669" data-name="Trazado 151669" d="M56.53,50.985H42.788a6.113,6.113,0,0,0-6.106,6.106V68.419a1.992,1.992,0,0,0,3.984,0V57.092a2.124,2.124,0,0,1,2.122-2.122H56.53a2.124,2.124,0,0,1,2.122,2.122v63.67a2.124,2.124,0,0,1-2.122,2.122H42.788a2.124,2.124,0,0,1-2.122-2.122V76.388a1.992,1.992,0,0,0-3.984,0v44.374a6.113,6.113,0,0,0,6.106,6.106H56.53a6.113,6.113,0,0,0,6.106-6.106V57.093a6.113,6.113,0,0,0-6.106-6.107Zm0,0"/>
    <path id="Trazado_151670" data-name="Trazado 151670" d="M93.211,67.772H79.47a6.113,6.113,0,0,0-6.106,6.106v46.884a6.113,6.113,0,0,0,6.106,6.106H93.211a6.113,6.113,0,0,0,6.107-6.106V73.878A6.113,6.113,0,0,0,93.211,67.772Zm2.123,52.99a2.125,2.125,0,0,1-2.123,2.122H79.47a2.124,2.124,0,0,1-2.122-2.122V73.878a2.124,2.124,0,0,1,2.122-2.122H93.211a2.125,2.125,0,0,1,2.123,2.122Zm0,0"/>
    <path id="Trazado_151671" data-name="Trazado 151671" d="M129.894,37H116.152a6.114,6.114,0,0,0-6.107,6.106v56.925a1.992,1.992,0,0,0,3.984,0V43.1a2.125,2.125,0,0,1,2.123-2.122h13.742a2.124,2.124,0,0,1,2.122,2.122v77.658a2.125,2.125,0,0,1-2.122,2.122H116.152a2.125,2.125,0,0,1-2.123-2.122V108a1.992,1.992,0,0,0-3.984,0v12.765a6.114,6.114,0,0,0,6.107,6.106h13.742A6.113,6.113,0,0,0,136,120.762V43.1A6.113,6.113,0,0,0,129.894,37Zm0,0"/>
    <path id="Trazado_151672" data-name="Trazado 151672" d="M12.977,41.963A12.413,12.413,0,1,0,25.391,54.376a12.55,12.55,0,0,0-.107-1.6L44.856,37.846a12.382,12.382,0,0,0,12-1.344l17.122,7.835A12.412,12.412,0,1,0,98.56,41.014L118.755,24.07a12.413,12.413,0,1,0-8.146-11.657,12.488,12.488,0,0,0,.194,2.173l-20.2,16.944A12.382,12.382,0,0,0,79.14,33.086L62.017,25.25A12.411,12.411,0,1,0,37.353,28L17.78,42.93a12.344,12.344,0,0,0-4.8-.967ZM123.023,3.984a8.429,8.429,0,0,1,0,16.858,8.531,8.531,0,0,1-8.429-8.429A8.438,8.438,0,0,1,123.023,3.984Zm-10.774,14.59c.033.058.07.114.1.171a12.482,12.482,0,0,0,2.73,3.206L97.115,37.025c-.033-.058-.578-.923-.845-1.279a12.524,12.524,0,0,0-1.989-2.1ZM77.913,43.062a8.428,8.428,0,0,1,16.856.125,8.428,8.428,0,1,1-16.857,0c0-.042,0-.083,0-.125ZM59.9,33.413a12.513,12.513,0,0,0,1.79-3.932L76.153,36.1a12.513,12.513,0,0,0-1.689,3.477q-.081.263-.149.529l-14.468-6.62c.017-.024.032-.049.049-.074ZM49.659,17.972A8.438,8.438,0,0,1,58.088,26.4a8.429,8.429,0,1,1-16.858,0A8.438,8.438,0,0,1,49.659,17.972ZM38.61,32.056c.024.046.051.091.075.137a12.487,12.487,0,0,0,2.6,3.367L24.026,48.722a12.609,12.609,0,0,0-2.675-3.505ZM18,47.681a8.356,8.356,0,1,1-5.023-1.733A8.3,8.3,0,0,1,18,47.681Zm0,0"/>
  </g>
</svg>
