<svg xmlns="http://www.w3.org/2000/svg" width="136" height="136" viewBox="0 0 136 136">
  <g id="Layer_33" data-name="Layer 33" transform="translate(-4.533 -4.533)">
    <path id="Trazado_151720" data-name="Trazado 151720" d="M36.267,106.533V129.2c0,5.007,16.236,9.067,36.267,9.067s36.267-4.06,36.267-9.067V106.533Z" fill="#fcbe42"/>
    <ellipse id="Elipse_4791" data-name="Elipse 4791" cx="36.267" cy="9.067" rx="36.267" ry="9.067" transform="translate(36.267 97.467)" fill="#f7b237"/>
    <path id="Trazado_151721" data-name="Trazado 151721" d="M88.4,47.6H56.667V6.8H74.8L88.4,20.4Z" fill="#d6e4e8"/>
    <path id="Trazado_151722" data-name="Trazado 151722" d="M74.8,6.8V20.4H88.4Z" fill="#baced3"/>
    <path id="Trazado_151723" data-name="Trazado 151723" d="M97.467,6.8h40.8V47.6h-40.8Z" fill="#d6e4e8"/>
    <g id="Grupo_100779" data-name="Grupo 100779">
      <path id="Trazado_151724" data-name="Trazado 151724" d="M6.8,6.8H47.6V47.6H6.8Z" fill="#62b5e8"/>
      <circle id="Elipse_4792" data-name="Elipse 4792" cx="4.533" cy="4.533" r="4.533" transform="translate(104.267 31.733)" fill="#62b5e8"/>
      <circle id="Elipse_4793" data-name="Elipse 4793" cx="4.533" cy="4.533" r="4.533" transform="translate(122.4 29.467)" fill="#62b5e8"/>
    </g>
    <path id="Trazado_151725" data-name="Trazado 151725" d="M6.8,34,20.4,20.4,47.6,47.6H6.8Z" fill="#6dbc53"/>
    <path id="Trazado_151726" data-name="Trazado 151726" d="M29.467,29.467,38.533,20.4,47.6,29.467V47.6Z" fill="#62a94b"/>
    <path id="Trazado_151727" data-name="Trazado 151727" d="M72.533,95.2C59.205,95.2,34,97.569,34,106.533V129.2c0,8.965,25.205,11.333,38.533,11.333s38.533-2.369,38.533-11.333V106.533C111.067,97.569,85.861,95.2,72.533,95.2Zm0,40.8c-22.086,0-34-4.826-34-6.8V112.316c7.75,4.264,23.737,5.551,34,5.551a131.16,131.16,0,0,0,18.46-1.238l-.653-4.483a127.341,127.341,0,0,1-17.807,1.188c-21.27,0-33.438-4.411-34-6.777v-.023c0-1.974,11.914-6.8,34-6.8s34,4.826,34,6.8c-.082.542-2.314,2.947-11.787,4.848l.907,4.445a39.637,39.637,0,0,0,10.88-3.511V129.2c0,1.974-11.914,6.8-34,6.8Z"/>
    <path id="Trazado_151728" data-name="Trazado 151728" d="M56.667,49.867h13.6V82.928L67.336,80,64.131,83.2l6.8,6.8a2.267,2.267,0,0,0,3.205,0l6.8-6.8L77.731,80,74.8,82.928V49.867H88.4A2.267,2.267,0,0,0,90.667,47.6V20.4A2.266,2.266,0,0,0,90,18.8L76.4,5.2a2.267,2.267,0,0,0-1.6-.664H56.667A2.267,2.267,0,0,0,54.4,6.8V47.6a2.267,2.267,0,0,0,2.267,2.267Zm20.4-37.595,5.862,5.862H77.067ZM58.933,9.067h13.6V20.4A2.267,2.267,0,0,0,74.8,22.667H86.133V45.333h-27.2Z"/>
    <path id="Trazado_151729" data-name="Trazado 151729" d="M63.467,27.2H81.6v4.533H63.467Z"/>
    <path id="Trazado_151730" data-name="Trazado 151730" d="M63.467,36.267H81.6V40.8H63.467Z"/>
    <path id="Trazado_151731" data-name="Trazado 151731" d="M138.267,4.533h-40.8A2.267,2.267,0,0,0,95.2,6.8V47.6a2.267,2.267,0,0,0,2.267,2.267H115.6V68H95.2a2.267,2.267,0,0,0-2.267,2.267V82.928L90,80,86.8,83.2,93.6,90A2.267,2.267,0,0,0,96.8,90l6.8-6.8L100.4,80l-2.931,2.931V72.533h20.4a2.267,2.267,0,0,0,2.267-2.267v-20.4h18.133a2.267,2.267,0,0,0,2.267-2.267V6.8a2.267,2.267,0,0,0-2.267-2.267ZM136,45.333H99.733V9.067H136Z"/>
    <path id="Trazado_151732" data-name="Trazado 151732" d="M108.8,43.067a6.8,6.8,0,0,0,6.8-6.8v-11.6l13.6-1.7v4.649a6.723,6.723,0,0,0-2.267-.417,6.8,6.8,0,1,0,6.8,6.8V13.6a2.267,2.267,0,0,0-2.548-2.249l-18.133,2.267a2.267,2.267,0,0,0-1.986,2.249V29.884a6.723,6.723,0,0,0-2.267-.417,6.8,6.8,0,1,0,0,13.6Zm18.133-6.8A2.267,2.267,0,1,1,129.2,34,2.267,2.267,0,0,1,126.933,36.267Zm2.267-20.1V18.4l-13.6,1.7v-2.23ZM108.8,34a2.267,2.267,0,1,1-2.267,2.267A2.267,2.267,0,0,1,108.8,34Z"/>
    <path id="Trazado_151733" data-name="Trazado 151733" d="M47.6,82.928,44.669,80,41.464,83.2l6.8,6.8a2.267,2.267,0,0,0,3.205,0l6.8-6.8L55.064,80l-2.931,2.931V70.267A2.267,2.267,0,0,0,49.867,68h-20.4V49.867H47.6A2.267,2.267,0,0,0,49.867,47.6V6.8A2.267,2.267,0,0,0,47.6,4.533H6.8A2.267,2.267,0,0,0,4.533,6.8V47.6A2.267,2.267,0,0,0,6.8,49.867H24.933v20.4A2.267,2.267,0,0,0,27.2,72.533H47.6Zm-2.267-40.8-.664-.664-12-12,5.862-5.862,6.8,6.8Zm0-33.062V23.995l-5.2-5.2a2.267,2.267,0,0,0-3.205,0l-7.464,7.464L22,18.8a2.267,2.267,0,0,0-3.205,0L9.067,28.528V9.067ZM9.067,34.938,20.4,23.605l7.464,7.464,13.6,13.6.664.664H9.067Z"/>
  </g>
</svg>
