<svg xmlns="http://www.w3.org/2000/svg" width="124" height="124" viewBox="0 0 124 124">
  <g id="Grupo_1186778" data-name="Grupo 1186778" transform="translate(-320.848 -8770.926)">
    <circle id="Elipse_13634" data-name="Elipse 13634" cx="62" cy="62" r="62" transform="translate(320.848 8770.926)" fill="#fff"/>
    <g id="apoyo-tecnico" transform="translate(346.348 8796.653)">
      <g id="Grupo_100629" data-name="Grupo 100629" transform="translate(1.064 1.064)">
        <g id="Grupo_100628" data-name="Grupo 100628">
          <g id="Grupo_100620" data-name="Grupo 100620">
            <g id="Grupo_100608" data-name="Grupo 100608" transform="translate(46.422)">
              <path id="Trazado_151215" data-name="Trazado 151215" d="M99.442,1.831H81.548a3.094,3.094,0,0,0-3.094,3.094v8.95a3.094,3.094,0,0,0,3.094,3.094,1.807,1.807,0,0,1,1.807,1.807v5.535a.693.693,0,0,0,1.287.356l4.09-6.82a1.807,1.807,0,0,1,1.55-.878h9.161a3.094,3.094,0,0,0,3.094-3.094V4.925a3.094,3.094,0,0,0-3.094-3.094Z" transform="translate(-78.454 -1.831)" fill="#b3e59f"/>
              <path id="Trazado_151216" data-name="Trazado 151216" d="M101.46,1.831H92.192a3.094,3.094,0,0,1,3.094,3.094v8.95a3.094,3.094,0,0,1-3.094,3.094H83.566a1.807,1.807,0,0,1,1.807,1.807v5.535a.693.693,0,0,0,1.287.356l4.09-6.82a1.807,1.807,0,0,1,1.55-.878h9.161a3.094,3.094,0,0,0,3.094-3.094V4.925a3.094,3.094,0,0,0-3.094-3.094Z" transform="translate(-80.471 -1.831)" fill="#95d6a4"/>
            </g>
            <g id="Grupo_100619" data-name="Grupo 100619" transform="translate(0 31.74)">
              <g id="Grupo_100618" data-name="Grupo 100618">
                <g id="Grupo_100617" data-name="Grupo 100617">
                  <g id="Grupo_100612" data-name="Grupo 100612" transform="translate(18.975)">
                    <g id="Grupo_100611" data-name="Grupo 100611">
                      <g id="Grupo_100610" data-name="Grupo 100610">
                        <g id="Grupo_100609" data-name="Grupo 100609">
                          <path id="Trazado_151217" data-name="Trazado 151217" d="M49.978,65.822a3.1,3.1,0,0,1-2.513-3.042V54.27H35.621v8.51a3.1,3.1,0,0,1-2.513,3.042S50.779,65.976,49.978,65.822Z" transform="translate(-33.108 -54.27)" fill="#ffddce"/>
                        </g>
                      </g>
                    </g>
                  </g>
                  <g id="Grupo_100616" data-name="Grupo 100616" transform="translate(0.851 12.112)">
                    <g id="Grupo_100615" data-name="Grupo 100615">
                      <g id="Grupo_100614" data-name="Grupo 100614">
                        <g id="Grupo_100613" data-name="Grupo 100613">
                          <path id="Trazado_151218" data-name="Trazado 151218" d="M41.443,74.352c-.844-.162-23.439,0-23.439,0A18.3,18.3,0,0,0,3.164,92.321v6.034a2.478,2.478,0,0,0,2.478,2.478H53.8a2.478,2.478,0,0,0,2.478-2.478V92.321A18.3,18.3,0,0,0,41.443,74.352Z" transform="translate(-3.164 -74.28)" fill="#ffd064"/>
                        </g>
                      </g>
                    </g>
                  </g>
                  <path id="Trazado_151219" data-name="Trazado 151219" d="M53.81,97.387H10.593L9.447,76.268a3.266,3.266,0,0,1,3.261-3.443H51.7a3.266,3.266,0,0,1,3.261,3.443Z" transform="translate(-4.791 -61.594)" fill="#eaf2ff"/>
                  <path id="Trazado_151220" data-name="Trazado 151220" d="M73.206,72.825H63.938A3.266,3.266,0,0,1,67.2,76.268L66.053,97.387h9.268l1.146-21.119A3.266,3.266,0,0,0,73.206,72.825Z" transform="translate(-26.302 -61.594)" fill="#dbe8f9"/>
                  <path id="Trazado_151221" data-name="Trazado 151221" d="M54.292,110.609H4.046a2.288,2.288,0,1,0,0,4.576H54.292a2.288,2.288,0,1,0,0-4.576Z" transform="translate(-1.758 -76.508)" fill="#9bc4f9"/>
                  <path id="Trazado_151222" data-name="Trazado 151222" d="M82.463,110.609H75.416V112.9a2.288,2.288,0,0,1-2.288,2.288h9.335a2.288,2.288,0,0,0,0-4.576Z" transform="translate(-29.929 -76.508)" fill="#7fb2f9"/>
                </g>
              </g>
              <path id="Trazado_151223" data-name="Trazado 151223" d="M45.667,100.733a7.581,7.581,0,0,1,1.957-5.071l.028-.031a6.49,6.49,0,0,0-1.639-9.968.558.558,0,0,0-.835.483v4.828a1.465,1.465,0,0,1-1.465,1.465h-1.8a1.465,1.465,0,0,1-1.465-1.465V86.145a.558.558,0,0,0-.835-.483,6.49,6.49,0,0,0-1.638,9.968l.028.031a7.581,7.581,0,0,1,1.957,5.071Z" transform="translate(-15.402 -66.632)" fill="#7fb2f9"/>
            </g>
          </g>
          <g id="Grupo_100627" data-name="Grupo 100627" transform="translate(11.105 3.991)">
            <g id="Grupo_100626" data-name="Grupo 100626">
              <g id="Grupo_100625" data-name="Grupo 100625">
                <g id="Grupo_100624" data-name="Grupo 100624">
                  <path id="Trazado_151224" data-name="Trazado 151224" d="M49.971,26.191l-.791,0L49.166,23a11.611,11.611,0,0,0-23.218.1l.009,2.249,0,.941-.791,0a2.114,2.114,0,0,0-2.092,2.136l.01,2.357a2.114,2.114,0,0,0,2.11,2.118l.795,0a10.989,10.989,0,0,0,3.7,8.059,11.781,11.781,0,0,0,15.888-.068A10.991,10.991,0,0,0,49.2,32.8l.795,0a2.114,2.114,0,0,0,2.092-2.136l-.01-2.357a2.114,2.114,0,0,0-2.11-2.118Z" transform="translate(-21.278 -9.697)" fill="#ffddce"/>
                  <path id="Trazado_151225" data-name="Trazado 151225" d="M59.423,28.682a2.114,2.114,0,0,0-2.11-2.118l-.791,0-.013-3.189A11.281,11.281,0,0,0,48.453,12.6a11.149,11.149,0,0,1,1.539,5.675l.038,14.906a10.991,10.991,0,0,1-3.628,8.09,12.422,12.422,0,0,1-4.723,2.638,11.668,11.668,0,0,0,11.239-2.638,10.991,10.991,0,0,0,3.628-8.09l.795,0a2.114,2.114,0,0,0,2.092-2.136Z" transform="translate(-28.62 -10.071)" fill="#ffcbbe"/>
                  <g id="Grupo_100623" data-name="Grupo 100623" transform="translate(0 14.573)">
                    <g id="Grupo_100621" data-name="Grupo 100621" transform="translate(27.918)">
                      <path id="Trazado_151226" data-name="Trazado 151226" d="M66.228,32.5v8.771h2.329a2.365,2.365,0,0,0,2.365-2.365V34.865A2.365,2.365,0,0,0,68.558,32.5Z" transform="translate(-66.228 -32.5)" fill="#9bc4f9"/>
                    </g>
                    <g id="Grupo_100622" data-name="Grupo 100622">
                      <path id="Trazado_151227" data-name="Trazado 151227" d="M24.8,32.5v8.771H22.469A2.365,2.365,0,0,1,20.1,38.907V34.865A2.365,2.365,0,0,1,22.469,32.5Z" transform="translate(-20.104 -32.5)" fill="#9bc4f9"/>
                    </g>
                  </g>
                  <path id="Trazado_151228" data-name="Trazado 151228" d="M48.5,13.16h-.119a1.2,1.2,0,0,1-1.2-1.2,3.54,3.54,0,0,0-3.54-3.54H32.38A9.08,9.08,0,0,0,23.3,17.5v6a2.071,2.071,0,0,0,1.39,1.956l2.237.779a1.2,1.2,0,0,0,1.6-1.137l0-4.231a3.7,3.7,0,0,1,3.665-3.742h.044a5.879,5.879,0,0,1,1.825.283,10.375,10.375,0,0,0,3.215.533h.806a10.37,10.37,0,0,0,3.215-.533,5.884,5.884,0,0,1,1.825-.283h.044a3.7,3.7,0,0,1,3.665,3.742l0,4.231a1.2,1.2,0,0,0,1.6,1.136l2.236-.779a2.071,2.071,0,0,0,1.39-1.956V16.7a3.54,3.54,0,0,0-3.54-3.54Z" transform="translate(-21.366 -8.424)" fill="#756e78"/>
                  <path id="Trazado_151229" data-name="Trazado 151229" d="M58.842,13.16h-.119a1.2,1.2,0,0,1-1.2-1.2,3.54,3.54,0,0,0-3.54-3.54H49.494a11.066,11.066,0,0,1,3.583,8.2v.516c.125-.008.251-.012.377-.012H53.5a3.7,3.7,0,0,1,3.665,3.742l0,4.231a1.2,1.2,0,0,0,1.6,1.136l2.236-.779a2.071,2.071,0,0,0,1.39-1.956V16.7A3.54,3.54,0,0,0,58.842,13.16Z" transform="translate(-31.705 -8.424)" fill="#665e66"/>
                  <path id="Trazado_151230" data-name="Trazado 151230" d="M57.366,55.268H54.7a1.845,1.845,0,0,1,0-3.689h2.67a1.845,1.845,0,0,1,0,3.689Z" transform="translate(-33.03 -25.458)" fill="#db636e"/>
                </g>
              </g>
            </g>
          </g>
        </g>
      </g>
      <g id="Grupo_100631" data-name="Grupo 100631" transform="translate(0 0)">
        <g id="Grupo_100630" data-name="Grupo 100630">
          <path id="Trazado_151231" data-name="Trazado 151231" d="M103.623,8.731H94.34a1.064,1.064,0,0,0,0,2.128h9.284a1.064,1.064,0,1,0,0-2.128Z" transform="translate(-36.818 -3.491)"/>
          <path id="Trazado_151232" data-name="Trazado 151232" d="M85.63,10.859h1.132a1.064,1.064,0,1,0,0-2.128H85.63a1.064,1.064,0,0,0,0,2.128Z" transform="translate(-33.38 -3.491)"/>
          <path id="Trazado_151233" data-name="Trazado 151233" d="M85.63,19.116h14.556a1.064,1.064,0,0,0,0-2.128H85.63a1.064,1.064,0,1,0,0,2.128Z" transform="translate(-33.38 -6.75)"/>
          <path id="Trazado_151234" data-name="Trazado 151234" d="M56.1,65.632a19.432,19.432,0,0,0-4-11.788l.2-3.632a4.327,4.327,0,0,0-4.324-4.565H36.322a2.03,2.03,0,0,1-.861-1.658V41.018a12.055,12.055,0,0,0,4-4.084h2.059a4.325,4.325,0,0,0,4.32-4.32V24.668a3.427,3.427,0,0,0-1.935-3.085V16.006a4.609,4.609,0,0,0-4.6-4.6h-.119a.132.132,0,0,1-.132-.132,4.61,4.61,0,0,0-4.6-4.6H23.183A10.155,10.155,0,0,0,13.039,16.809v4.773A3.428,3.428,0,0,0,11.1,24.668v4.041a3.433,3.433,0,0,0,3.429,3.429h1.373A11.949,11.949,0,0,0,19.882,39.8a14.591,14.591,0,0,0,1.606,1.206v2.983a2.032,2.032,0,0,1-.865,1.658H8.981a4.327,4.327,0,0,0-4.324,4.565l.2,3.632a19.432,19.432,0,0,0-4,11.788v4.007a3.349,3.349,0,0,0,2.5,5.581H53.6a3.349,3.349,0,0,0,2.5-5.58Zm-2.128,0v2.906a3.366,3.366,0,0,0-.373-.021H51.3l.6-11.064a17.289,17.289,0,0,1,2.071,8.179ZM43.608,24.148a1.3,1.3,0,0,1,.109.52v4.041a1.3,1.3,0,0,1-1.3,1.3H41.151V26l.656-.228A3.135,3.135,0,0,0,43.608,24.148ZM36.5,36.476h-2.67a.781.781,0,1,1,0-1.561H36.5a.781.781,0,1,1,0,1.561Zm5.021-1.67H40.45a12.523,12.523,0,0,0,.616-2.668h1.351a3.41,3.41,0,0,0,1.3-.257v.733A2.194,2.194,0,0,1,41.525,34.806Zm-26.358-18a8.025,8.025,0,0,1,8.016-8.016H34.451a2.479,2.479,0,0,1,2.476,2.476,2.262,2.262,0,0,0,2.26,2.26h.119a2.479,2.479,0,0,1,2.476,2.476v6.8a1.008,1.008,0,0,1-.676.951l-2.236.779a.137.137,0,0,1-.183-.131l0-4.228c.013-3.086-2.876-5.777-6.925-4.476a11.309,11.309,0,0,1-6.585,0c-4.006-1.288-6.937,1.356-6.925,4.473l0,4.232a.137.137,0,0,1-.183.13l-2.237-.779a1.008,1.008,0,0,1-.676-.951v-6Zm-1.935,11.9V24.668a1.3,1.3,0,0,1,.109-.52,3.135,3.135,0,0,0,1.8,1.623L15.8,26V30.01H14.534a1.3,1.3,0,0,1-1.3-1.3Zm4.714,2.2c-.035-1.4-.014-2.883-.02-4.243.066.006.131.009.2.009a2.266,2.266,0,0,0,2.267-2.268l0-4.234c-.007-1.728,1.542-3.278,4.146-2.442a13.394,13.394,0,0,0,7.887,0c2.48-.8,4.153.606,4.146,2.445l0,4.231a2.265,2.265,0,0,0,2.463,2.259V31a10.5,10.5,0,0,1-.439,2.67,2.9,2.9,0,0,0-2.079-.879h-2.67a2.908,2.908,0,1,0,0,5.817h1.352a10.888,10.888,0,0,1-6.655,2.374A10.432,10.432,0,0,1,17.946,30.909Zm5.67,13.08V42.127a12.969,12.969,0,0,0,4.911.979h.024a12.983,12.983,0,0,0,4.782-.97v1.853a4.151,4.151,0,0,0,.345,1.658H23.27a4.141,4.141,0,0,0,.347-1.658ZM5.051,57.453l.168,3.1a1.064,1.064,0,0,0,2.125-.115L6.782,50.1a2.2,2.2,0,0,1,2.2-2.321H47.968a2.2,2.2,0,0,1,2.2,2.321l-1,18.421H32.483a6.534,6.534,0,0,1,1.594-3.3l.03-.034a7.559,7.559,0,0,0-1.906-11.6,1.622,1.622,0,0,0-2.425,1.408V59.82a.4.4,0,0,1-.4.4h-1.8a.4.4,0,0,1-.4-.4V54.993a1.622,1.622,0,0,0-2.425-1.408,7.559,7.559,0,0,0-1.9,11.606l.027.03a6.533,6.533,0,0,1,1.594,3.295H7.782l-.171-3.145a1.064,1.064,0,1,0-2.125.115l.164,3.03h-2.3a3.4,3.4,0,0,0-.373.021V65.632a17.291,17.291,0,0,1,2.071-8.179ZM26.616,68.516A8.65,8.65,0,0,0,24.454,63.8l-.026-.029a5.427,5.427,0,0,1,.617-7.817V59.82a2.532,2.532,0,0,0,2.529,2.529h1.8A2.532,2.532,0,0,0,31.9,59.82V55.952a5.427,5.427,0,0,1,.614,7.82L32.5,63.8a8.65,8.65,0,0,0-2.162,4.719ZM53.6,73.092H3.352a1.224,1.224,0,1,1,0-2.448H53.6a1.224,1.224,0,1,1,0,2.448Z" transform="translate(0 -2.676)"/>
          <path id="Trazado_151235" data-name="Trazado 151235" d="M101.843,7.355a1.064,1.064,0,0,0,1.064-1.064V4.231A4.163,4.163,0,0,0,98.748.073H80.854A4.163,4.163,0,0,0,76.7,4.231v8.95a4.163,4.163,0,0,0,4.158,4.158.744.744,0,0,1,.743.743v5.535a1.757,1.757,0,0,0,3.263.9l4.09-6.82a.747.747,0,0,1,.637-.361h9.161a4.163,4.163,0,0,0,4.158-4.158V11.265a1.064,1.064,0,0,0-2.128,0v1.916a2.033,2.033,0,0,1-2.03,2.03H89.587a2.886,2.886,0,0,0-2.462,1.394l-3.4,5.67V18.082a2.874,2.874,0,0,0-2.871-2.871,2.033,2.033,0,0,1-2.03-2.03V4.231a2.033,2.033,0,0,1,2.03-2.03H98.748a2.033,2.033,0,0,1,2.03,2.03V6.291a1.064,1.064,0,0,0,1.064,1.064Z" transform="translate(-30.274 -0.073)"/>
        </g>
      </g>
    </g>
  </g>
</svg>
