<svg id="comentario" xmlns="http://www.w3.org/2000/svg" width="133.875" height="136" viewBox="0 0 133.875 136">
  <g id="Grupo_100780" data-name="Grupo 100780">
    <path id="Trazado_151755" data-name="Trazado 151755" d="M80.619,41.1V53.723a4.445,4.445,0,0,0,4.438,4.433H127.43a4.45,4.45,0,0,0,4.438-4.433V13.482a4.446,4.446,0,0,0-4.438-4.434H85.056a4.446,4.446,0,0,0-4.438,4.434V26.334L75.24,30.449c-2.314,1.629-2.314,4.653,0,6.524Zm0,0" fill="#eee" fill-rule="evenodd"/>
    <path id="Trazado_151756" data-name="Trazado 151756" d="M33.276,2.008A31.238,31.238,0,1,0,64.544,33.246,31.248,31.248,0,0,0,33.276,2.008Zm0,0" fill="#bbdefb" fill-rule="evenodd"/>
    <path id="Trazado_151757" data-name="Trazado 151757" d="M11.671,55.829a31.294,31.294,0,0,0,43.21,0,23.288,23.288,0,0,0-43.21,0Zm0,0" fill="#51db61" fill-rule="evenodd"/>
    <path id="Trazado_151758" data-name="Trazado 151758" d="M44.4,31.578A11.142,11.142,0,1,0,33.276,42.7a11.341,11.341,0,0,0,3.672-.614c.326-.121.644-.243.956-.386a11.135,11.135,0,0,0,6.5-10.118Zm0,0" fill="#fadf8c" fill-rule="evenodd"/>
    <path id="Trazado_151759" data-name="Trazado 151759" d="M64.544,33.246A31.254,31.254,0,0,0,33.276,2.007c-.357,0-.706,0-1.055.016A31.236,31.236,0,0,1,50.192,48.516a23.278,23.278,0,0,1,4.688,7.313,31.14,31.14,0,0,0,9.664-22.583Zm0,0" fill="#7fbaeb" fill-rule="evenodd"/>
    <path id="Trazado_151760" data-name="Trazado 151760" d="M54.879,55.829A23.308,23.308,0,0,0,37.9,41.7h-.007a9.846,9.846,0,0,1-.948.386c-.387.129-.781.243-1.183.333,4.574,3.638,7.4,8.7,7.4,14.3A16.557,16.557,0,0,1,41.8,63.3a31.226,31.226,0,0,0,13.078-7.473Zm0,0" fill="#1ab52c" fill-rule="evenodd"/>
    <path id="Trazado_151761" data-name="Trazado 151761" d="M44.29,29.987a11.135,11.135,0,0,0-21.544-2.023c4.438-1.137,14.83,6.388,21.544,2.023Zm0,0" fill="gray" fill-rule="evenodd"/>
    <path id="Trazado_151762" data-name="Trazado 151762" d="M119.261,13.481V53.723a4.457,4.457,0,0,1-4.446,4.433h12.616a4.451,4.451,0,0,0,4.438-4.433V13.482a4.446,4.446,0,0,0-4.438-4.434H114.815a4.454,4.454,0,0,1,4.446,4.434Zm0,0" fill="#bdbdbd" fill-rule="evenodd"/>
    <path id="Trazado_151763" data-name="Trazado 151763" d="M80.619,110.606v12.626a4.446,4.446,0,0,0,4.438,4.434H127.43a4.446,4.446,0,0,0,4.438-4.434V82.99a4.45,4.45,0,0,0-4.438-4.434H85.056a4.451,4.451,0,0,0-4.438,4.434V95.843L75.24,99.958c-2.314,1.637-2.314,4.661,0,6.533Zm0,0" fill="#eee" fill-rule="evenodd"/>
    <path id="Trazado_151764" data-name="Trazado 151764" d="M119.261,82.99v40.241a4.453,4.453,0,0,1-4.446,4.434h12.616a4.446,4.446,0,0,0,4.438-4.434V82.99a4.451,4.451,0,0,0-4.438-4.434H114.815A4.458,4.458,0,0,1,119.261,82.99Zm0,0" fill="#bdbdbd" fill-rule="evenodd"/>
    <path id="Trazado_151765" data-name="Trazado 151765" d="M37.675,31.275a9.9,9.9,0,0,0,6.615-1.289,11.133,11.133,0,0,0-15.475-8.594,11.137,11.137,0,0,1,8.86,9.883Zm0,0" fill="#666" fill-rule="evenodd"/>
    <path id="Trazado_151766" data-name="Trazado 151766" d="M37.9,41.7a11.135,11.135,0,0,0,6.5-10.118,12.24,12.24,0,0,0-.114-1.592,9.892,9.892,0,0,1-6.615,1.289c.023.333.046.667.046,1.008a11.1,11.1,0,0,1-4.528,8.95A11.513,11.513,0,0,1,31.22,42.4a1.7,1.7,0,0,0-.174.076,11.333,11.333,0,0,0,2.23.22,11.138,11.138,0,0,0,2.488-.281,12.233,12.233,0,0,0,1.183-.333q.49-.171.956-.386Zm0,0" fill="#e89b3c" fill-rule="evenodd"/>
    <path id="Trazado_151767" data-name="Trazado 151767" d="M33.276,71.516a31.238,31.238,0,1,0,31.268,31.238A31.249,31.249,0,0,0,33.276,71.516Zm0,0" fill="#bbdefb" fill-rule="evenodd"/>
    <path id="Trazado_151768" data-name="Trazado 151768" d="M11.671,125.338a31.294,31.294,0,0,0,43.21,0,23.288,23.288,0,0,0-43.21,0Zm0,0" fill="#ff7b83" fill-rule="evenodd"/>
    <path id="Trazado_151769" data-name="Trazado 151769" d="M44.4,101.1a11.1,11.1,0,1,0-7.456,10.5q.489-.17.956-.386A11.132,11.132,0,0,0,44.4,101.1Zm0,0" fill="#fadf8c" fill-rule="evenodd"/>
    <path id="Trazado_151770" data-name="Trazado 151770" d="M64.544,102.754A31.254,31.254,0,0,0,33.276,71.516c-.357,0-.706.007-1.055.016a31.235,31.235,0,0,1,17.971,46.493,23.294,23.294,0,0,1,4.688,7.314,31.144,31.144,0,0,0,9.664-22.584Zm0,0" fill="#7fbaeb" fill-rule="evenodd"/>
    <path id="Trazado_151771" data-name="Trazado 151771" d="M54.879,125.338A23.308,23.308,0,0,0,37.9,111.2h-.007a9.341,9.341,0,0,1-.948.386q-.581.195-1.183.341c4.574,3.638,7.4,8.7,7.4,14.3a16.576,16.576,0,0,1-1.365,6.586,31.3,31.3,0,0,0,13.078-7.48Zm0,0" fill="#e63e49" fill-rule="evenodd"/>
    <path id="Trazado_151772" data-name="Trazado 151772" d="M44.29,99.5A11.135,11.135,0,0,0,22.746,97.48c4.438-1.144,14.83,6.388,21.544,2.016Zm0,0" fill="gray" fill-rule="evenodd"/>
    <path id="Trazado_151773" data-name="Trazado 151773" d="M37.675,100.791a9.938,9.938,0,0,0,6.615-1.3A11.149,11.149,0,0,0,28.815,90.9a11.137,11.137,0,0,1,8.86,9.889Zm0,0" fill="#666" fill-rule="evenodd"/>
    <path id="Trazado_151774" data-name="Trazado 151774" d="M37.9,111.2A11.132,11.132,0,0,0,44.4,101.1a12.276,12.276,0,0,0-.114-1.6,9.937,9.937,0,0,1-6.615,1.3c.023.327.046.667.046,1.009a11.177,11.177,0,0,1-6.5,10.109c-.061.023-.114.054-.174.076a11.333,11.333,0,0,0,2.23.22,11.2,11.2,0,0,0,2.488-.273c.4-.1.8-.212,1.183-.341a10.1,10.1,0,0,0,.956-.386Zm0,0" fill="#e89b3c" fill-rule="evenodd"/>
  </g>
  <path id="Trazado_151775" data-name="Trazado 151775" d="M127.43,7.04H85.056a6.45,6.45,0,0,0-6.443,6.441V25.342l-4.562,3.49a5.892,5.892,0,0,0-2.548,4.6,6.323,6.323,0,0,0,2.477,5.1l.042.032,4.592,3.521V53.723a6.45,6.45,0,0,0,6.443,6.44h17.288a2.007,2.007,0,0,0,0-4.014H85.056a2.431,2.431,0,0,1-2.431-2.426V41.1a2.009,2.009,0,0,0-.785-1.594l-5.356-4.1a2.356,2.356,0,0,1-.971-1.834,1.877,1.877,0,0,1,.883-1.473l.064-.048,5.378-4.115a2.005,2.005,0,0,0,.788-1.594V13.481a2.432,2.432,0,0,1,2.431-2.427H127.43a2.432,2.432,0,0,1,2.432,2.427V53.723a2.432,2.432,0,0,1-2.432,2.426H112.009a2.007,2.007,0,0,0,0,4.014H127.43a6.449,6.449,0,0,0,6.445-6.44V13.481A6.45,6.45,0,0,0,127.43,7.04Zm0,0"/>
  <path id="Trazado_151776" data-name="Trazado 151776" d="M92.5,46.84h28.143a2.007,2.007,0,0,0,0-4.014H92.5a2.007,2.007,0,0,0,0,4.014Zm0,0"/>
  <path id="Trazado_151777" data-name="Trazado 151777" d="M111.789,31.458a2.007,2.007,0,0,0,0,4.014h9.3a2.007,2.007,0,0,0,0-4.014Zm0,0"/>
  <path id="Trazado_151778" data-name="Trazado 151778" d="M92.5,35.472h9.754a2.007,2.007,0,0,0,0-4.014H92.5a2.007,2.007,0,0,0,0,4.014Zm0,0"/>
  <path id="Trazado_151779" data-name="Trazado 151779" d="M120.642,20.09H92.5a2.007,2.007,0,0,0,0,4.014h28.143a2.007,2.007,0,0,0,0-4.014Zm0,0"/>
  <path id="Trazado_151780" data-name="Trazado 151780" d="M127.43,76.55H85.056a6.449,6.449,0,0,0-6.443,6.44V94.851l-4.564,3.492a5.909,5.909,0,0,0-2.546,4.61,6.324,6.324,0,0,0,2.477,5.1l.043.034,4.591,3.512v11.634a6.45,6.45,0,0,0,6.443,6.441h17.288a2.008,2.008,0,0,0,0-4.015H85.056a2.431,2.431,0,0,1-2.431-2.426V110.606a2.006,2.006,0,0,0-.788-1.595l-5.354-4.1a2.356,2.356,0,0,1-.971-1.832A1.89,1.89,0,0,1,76.4,101.6l.061-.045,5.378-4.116a2,2,0,0,0,.788-1.594V82.99a2.431,2.431,0,0,1,2.431-2.426H127.43a2.432,2.432,0,0,1,2.432,2.426v40.241a2.432,2.432,0,0,1-2.432,2.426H112.009a2.008,2.008,0,0,0,0,4.016H127.43a6.45,6.45,0,0,0,6.445-6.441V82.99a6.449,6.449,0,0,0-6.445-6.44Zm0,0"/>
  <path id="Trazado_151781" data-name="Trazado 151781" d="M92.5,116.349h28.143a2.007,2.007,0,0,0,0-4.014H92.5a2.007,2.007,0,0,0,0,4.014Zm0,0"/>
  <path id="Trazado_151782" data-name="Trazado 151782" d="M111.789,100.966a2.008,2.008,0,0,0,0,4.016h9.3a2.008,2.008,0,0,0,0-4.016Zm0,0"/>
  <path id="Trazado_151783" data-name="Trazado 151783" d="M92.5,104.982h9.754a2.008,2.008,0,0,0,0-4.016H92.5a2.008,2.008,0,0,0,0,4.016Zm0,0"/>
  <path id="Trazado_151784" data-name="Trazado 151784" d="M120.642,89.6H92.5a2.007,2.007,0,0,0,0,4.014h28.143a2.007,2.007,0,0,0,0-4.014Zm0,0"/>
  <path id="Trazado_151785" data-name="Trazado 151785" d="M33.276,0A33.222,33.222,0,0,0,10.1,57.08a2.017,2.017,0,0,0,.384.367,33.234,33.234,0,0,0,45.578,0,2.011,2.011,0,0,0,.383-.367A33.222,33.222,0,0,0,33.276,0ZM14.095,55.3A21.176,21.176,0,0,1,28.468,43.789a13.1,13.1,0,0,0,9.611,0A21.181,21.181,0,0,1,52.457,55.3a29.232,29.232,0,0,1-38.362,0Zm10.22-25.425a29.615,29.615,0,0,1,5.049,1.365c3.024.99,6.5,2.128,9.872,2.128a12.522,12.522,0,0,0,3.047-.357,9.121,9.121,0,1,1-17.968-3.137ZM26,26.091a9.123,9.123,0,0,1,16,2.809c-3.238,1.191-7.537-.214-11.382-1.472A43.648,43.648,0,0,0,26,26.091ZM55.433,52.318a25.163,25.163,0,0,0-12.972-11.37,13.077,13.077,0,0,0,3.95-9.369,13.264,13.264,0,0,0-.119-1.745c-.005-.068-.015-.136-.026-.2A13.137,13.137,0,0,0,20.9,27.174a1.965,1.965,0,0,0-.106.314,13.082,13.082,0,0,0,3.291,13.459A25.166,25.166,0,0,0,11.118,52.318a29.243,29.243,0,1,1,51.42-19.072,29.085,29.085,0,0,1-7.105,19.072Zm0,0"/>
  <path id="Trazado_151786" data-name="Trazado 151786" d="M33.276,69.509A33.222,33.222,0,0,0,10.1,126.589a1.955,1.955,0,0,0,.384.367,33.233,33.233,0,0,0,45.576,0,1.961,1.961,0,0,0,.385-.367,33.222,33.222,0,0,0-23.173-57.08Zm-19.181,55.3A21.177,21.177,0,0,1,28.467,113.3a13.094,13.094,0,0,0,9.613,0,21.182,21.182,0,0,1,14.375,11.514,29.231,29.231,0,0,1-38.361,0Zm10.22-25.419a29.378,29.378,0,0,1,5.054,1.364c3.021.989,6.494,2.125,9.863,2.125a12.511,12.511,0,0,0,3.052-.358,9.121,9.121,0,1,1-17.969-3.131ZM26,95.606a9.121,9.121,0,0,1,15.991,2.806c-3.236,1.192-7.533-.213-11.375-1.47A43.739,43.739,0,0,0,26,95.606Zm29.432,26.221a25.157,25.157,0,0,0-12.97-11.369,13.07,13.07,0,0,0,3.948-9.363,13.232,13.232,0,0,0-.119-1.743,1.84,1.84,0,0,0-.029-.224A13.136,13.136,0,0,0,20.9,96.69a1.957,1.957,0,0,0-.107.316,13.07,13.07,0,0,0,3.29,13.45,25.162,25.162,0,0,0-12.969,11.371,29.242,29.242,0,1,1,51.419-19.073,29.09,29.09,0,0,1-7.105,19.073Zm0,0"/>
</svg>
