<svg xmlns="http://www.w3.org/2000/svg" width="153.615" height="363.371" viewBox="0 0 153.615 363.371">
  <g id="Grupo_95426" data-name="Grupo 95426" transform="translate(-496.327 -160.627)">
    <g id="Grupo_95419" data-name="Grupo 95419" transform="translate(496.327 180.519)">
      <g id="Grupo_95410" data-name="Grupo 95410" transform="translate(8.046 22.288)">
        <path id="Trazado_147353" data-name="Trazado 147353" d="M503.435,246.7c-1.041,3.83,2.256,7.234,3.321,7.872s8.3,3.617,12.765,3.724,11.062-9.362,8.722-10.425-18.722-2.234-20.53-2.234A13.62,13.62,0,0,0,503.435,246.7Z" transform="translate(-503.235 -188.795)" fill="#ffc5c7"/>
        <path id="Trazado_147354" data-name="Trazado 147354" d="M513.609,246.8c1.117,11.489,5.107,20.424,6.543,20.584S535.843,262.76,539.8,261s.913-28.719-1.507-28.244-8.029,5.654-12.53,8.139S513.609,246.8,513.609,246.8Z" transform="translate(-501.525 -190.919)" fill="#fff"/>
        <path id="Trazado_147355" data-name="Trazado 147355" d="M535.7,248.915c-1.508,2.3-12.984,8.127-19.226,10.252,1.257,3.393,2.523,5.481,3.208,5.556,1.229.137,11.856-3.352,17.373-5.461A79.193,79.193,0,0,0,535.7,248.915Z" transform="translate(-501.053 -188.255)" fill="#dcedff"/>
        <path id="Trazado_147356" data-name="Trazado 147356" d="M503.432,253.006c-.441,4.558,3.617,5.213,8.616,4.042s13.829-12.233,17.765-17.233,11.249-13.909,12.685-14.707,4.628-1.221,7.66-5.717.16-13.909-1.038-15.026-12.419,2.613-13.829,4.5.027,12.018-.452,13.294-10.558,11.7-14.813,14.254S503.751,249.708,503.432,253.006Z" transform="translate(-503.208 -195.632)" fill="#ffc5c7"/>
        <path id="Trazado_147357" data-name="Trazado 147357" d="M538.244,211.23c1.334-.637,1.857-3.536,1.009-3.026s-2.263.5-4.179.474a15.852,15.852,0,0,1-2.69-.192,17.111,17.111,0,0,0-.353,2.285S536.909,211.868,538.244,211.23Z" transform="translate(-498.488 -194.975)" fill="#fe8a8b"/>
        <path id="Trazado_147358" data-name="Trazado 147358" d="M549.964,211.72c-.676-1.451-1.2-2.552-1.2-2.552l-8.061,7.251A42.669,42.669,0,0,0,536.372,213l-.749,1.182a22.7,22.7,0,0,1,1.76,7.488s1.064,1.277,1.7,1.383c0,0-8.989,12.765-14.627,19.041-5.605,6.239-9.526,11.635-12.081,13.37,5.105-2.825,12.458-12.035,15.955-16.477,3.936-5,11.249-13.909,12.685-14.707s4.628-1.221,7.66-5.717C549.88,216.784,550.145,214.227,549.964,211.72Z" transform="translate(-501.728 -194.806)" fill="#fe8a8b"/>
        <path id="Trazado_147359" data-name="Trazado 147359" d="M531.137,214.48c.037.744,7.052,7.234,7.781,7.979a1.122,1.122,0,0,0,.8,0c2.119-1.75,11.962-17.538,12.158-18.107.183-.531-5.193-5.962-6.85-7.414a1.591,1.591,0,0,0-1.4.162C541.659,199.734,531.089,213.519,531.137,214.48Z" transform="translate(-498.636 -196.839)" fill="#0c0835"/>
        <path id="Trazado_147360" data-name="Trazado 147360" d="M531.828,214.472c.037.744,7.052,7.234,7.781,7.979s12.75-17.491,12.962-18.107c.184-.531-5.853-5.873-7.51-7.327a.5.5,0,0,0-.742.075C542.349,199.725,531.78,213.511,531.828,214.472Z" transform="translate(-498.522 -196.83)" fill="#252384"/>
        <path id="Trazado_147361" data-name="Trazado 147361" d="M532.977,213.4c.035.7,6.6,6.767,7.279,7.463s11.928-16.362,12.127-16.939c.171-.5-5.476-5.495-7.026-6.854a.471.471,0,0,0-.694.069C542.82,199.6,532.932,212.5,532.977,213.4Z" transform="translate(-498.332 -196.821)" fill="#57aff7"/>
        <path id="Trazado_147362" data-name="Trazado 147362" d="M537.833,204.214a9.255,9.255,0,0,0,2.991-3.864c.186-.8.16-1.515-.452-1.675s-2.713,2.34-3.723,3.084-2.288,2.288-1.888,3.324,2.552.638,2.792.479S537.833,204.214,537.833,204.214Z" transform="translate(-498.05 -196.537)" fill="#ffc5c7"/>
        <path id="Trazado_147363" data-name="Trazado 147363" d="M540.5,198.854c.3.907-2.359,4.548-4.535,5.595l.715.893s.36-.079.824-.186a6.443,6.443,0,0,0,.113-.973,9.256,9.256,0,0,0,2.991-3.864A1.735,1.735,0,0,0,540.5,198.854Z" transform="translate(-497.839 -196.506)" fill="#fe8a8b"/>
        <path id="Trazado_147364" data-name="Trazado 147364" d="M535.258,207.131c2.072-1.066,3.627-.947,4.744-1.385s1.436-2.114.719-2.394-5.266.439-6.462.957-1.924,2.907-1.924,2.907Z" transform="translate(-498.438 -195.775)" fill="#ffc5c7"/>
        <path id="Trazado_147365" data-name="Trazado 147365" d="M536.02,205.7a2.531,2.531,0,0,1-1.516,0c0,.44-.432.66-.947,1.287l1.5-.044c2.072-1.066,3.627-.947,4.744-1.385a1.788,1.788,0,0,0,1-1.123C540.249,205.353,537.158,205.487,536.02,205.7Z" transform="translate(-498.237 -195.587)" fill="#fe8a8b"/>
        <path id="Trazado_147366" data-name="Trazado 147366" d="M530.778,208.464c.957,1.474,6.222.835,7.287.676s1.772-.825,1.713-1.494c-.118-1.351-7.032-1.112-7.618-.9S530.778,208.464,530.778,208.464Z" transform="translate(-498.695 -195.233)" fill="#ffc5c7"/>
        <path id="Trazado_147367" data-name="Trazado 147367" d="M539.465,207.773c-.764.709-2.508,1.114-4.39,1.264a17.7,17.7,0,0,1-2.77.05,21.746,21.746,0,0,0,5.509-.144A1.907,1.907,0,0,0,539.465,207.773Z" transform="translate(-498.443 -195.036)" fill="#fe8a8b"/>
      </g>
      <g id="Grupo_95413" data-name="Grupo 95413" transform="translate(0 147.53)">
        <g id="Grupo_95411" data-name="Grupo 95411" transform="translate(65.144 160.852)">
          <path id="Trazado_147368" data-name="Trazado 147368" d="M552.856,470.929c.318,2.792,1.435,3.83,5.5,4.388s10.052.479,13.164-2.553,5.026-6.542,5.265-8.058.16-3.19.638-3.988,3.01-1.3,2.7-5.745S552.856,470.929,552.856,470.929Z" transform="translate(-552.153 -440.489)" fill="#ffdcdc"/>
          <path id="Trazado_147369" data-name="Trazado 147369" d="M579.3,446.365c-.458-6.178-15.1-3.794-15.179-1.321s-3.51,12.845-6.879,15.994l0,.007c-4.411,2.006-6.073,7.029-4.292,11.843,1.511,4.085,12.845,3.1,15.557,1.6,2.859-1.582,5.687-5.723,6.535-7.965h0c.614-1.322.882-3.284,2.239-4.959s2.075-1.356,2.713-3.351S579.762,452.544,579.3,446.365Z" transform="translate(-552.252 -442.449)" fill="#ffa648"/>
          <path id="Trazado_147370" data-name="Trazado 147370" d="M565.26,445.758c-1.408,6.372-4.446,10.521-3.556,11.262s6.372,1.631,7.408,0,2.815-8.52,2.815-11.262S565.26,445.758,565.26,445.758Z" transform="translate(-550.721 -442.104)" fill="#ffdcdc"/>
        </g>
        <g id="Grupo_95412" data-name="Grupo 95412" transform="translate(0 150.922)">
          <path id="Trazado_147371" data-name="Trazado 147371" d="M543.617,452.734a19.115,19.115,0,0,0-1.948-11.47c-2.349-4.628-2.234-5.026-4.947-5.505s-12.6-1.835-12.6-1.835a16.4,16.4,0,0,1-7.5,7.818c-5.824,3.192-7.02,4.308-10.77,4.308s-12.037.441-8.776,10.372c0,0,2.633,1.144,9.228,1.09s13.3-.585,15.69-1.489,4.894-1.383,6.33-.8,6.117.373,8.776,0A25.035,25.035,0,0,0,543.617,452.734Z" transform="translate(-496.327 -433.924)" fill="#ffa648"/>
          <path id="Trazado_147372" data-name="Trazado 147372" d="M510.127,443.518a.651.651,0,0,0-.328.983c.785,1.218,2.418,2.553,3.287,2.249,1.064-.373,6-4.1,8.616-6.382,1.223-1.065,2.394-3.086,1.7-4.042s-2.5-2.075-3.244-1.49-2.18,3.392-5.213,5.9A15.342,15.342,0,0,1,510.127,443.518Z" transform="translate(-494.125 -433.8)" fill="#ffdcdc"/>
          <path id="Trazado_147373" data-name="Trazado 147373" d="M496.966,453.77c6.542.638,21.611-.637,24.687-1.435s4.751-2.155,7.7-1.038,12.047-.638,13.483-1.2,1.037,1.689,0,1.921-7.58,1.616-10.931,1.922-3.51-2.168-7.5-.332-10.531,1.835-13.4,1.835-11.089.638-12.606,0S496.966,453.77,496.966,453.77Z" transform="translate(-496.222 -431.272)" fill="#ffdcdc"/>
        </g>
        <path id="Trazado_147374" data-name="Trazado 147374" d="M568.547,469.242c4.475,1.221,17.234.8,17.871-.958s-1.754-29.361-1.754-38.137-3.032-30.477-2.553-32.87.479-4.148-.319-8.3-1.112-52.231-4.947-84.623l-49.784,4.681s-7.978,30.636-8.616,52.337.106,32.125,0,35.316,1.357,6.382,1.689,8.935-.093,21.489-.519,28.3-.735,19.361-1.432,20.85,15.048,4.467,17.175,3.4,2.128-1.277,2.128-12.339,1.489-37.658,1.489-42.338,1.49-5.532.852-7.872,1.7-12.979,4.042-20.85,5.107-16.381,5.107-16.381,6.6,42.55,8.722,45.1,1.7,9.149,2.978,12.977,5.107,29.786,5.107,37.658S563.867,467.966,568.547,469.242Z" transform="translate(-492.728 -304.358)" fill="#4d4c86"/>
        <path id="Trazado_147375" data-name="Trazado 147375" d="M576.41,469.865a30.832,30.832,0,0,0,5.477-.669c.531-2.27,1.1-5.128,1.686-8.446-.49-9.288-1.647-24.5-1.647-30.6,0-8.776-3.032-30.477-2.553-32.87s.479-4.148-.319-8.3-1.112-52.231-4.947-84.623l-10.018.942-29.315,11.024a223.425,223.425,0,0,0,30.565-1.817s2.292,25.935,2.369,29.764,2.843,39.587,2.843,42.877,1.277,4.241,1.49,7.808a4.931,4.931,0,0,1-2.553,4.843s3.83,1.277,3.83,1.915.8,10.9.8,14.894,1.738,9.414,2.225,21.382,2.083,26.168,2.083,27.764C578.423,467.311,578.417,468.932,576.41,469.865Z" transform="translate(-489.99 -304.358)" fill="#373660"/>
        <path id="Trazado_147376" data-name="Trazado 147376" d="M545.738,330.423l-10.691-2.713,8.3,3.99-6.7.16,5.136,1.833s1.6,13.333-1.731,22.261c-3.653,9.787-5.32,34.785-6.436,36.7s-3.99,1.436-3.99,1.436,3.032.319,3.192,2.553-.638,8.457-.638,15.052A201.465,201.465,0,0,1,530.9,433.2c-.638,4.45-.937,15.337-1.277,18.231s-4.688,2.217-4.688,2.217h0a55.865,55.865,0,0,0,6.255.856c6.572.618,5.207-1.815,5.2-14.747.163-12.05,1.472-35.716,1.472-40.105,0-4.681,1.49-5.532.852-7.872s1.7-12.979,4.042-20.85,5.107-16.381,5.107-16.381-1.162-10.882-1.322-13.435S545.738,330.423,545.738,330.423Z" transform="translate(-491.612 -300.509)" fill="#373660"/>
      </g>
      <g id="Grupo_95414" data-name="Grupo 95414" transform="translate(30.309 42.261)">
        <path id="Trazado_147377" data-name="Trazado 147377" d="M555.092,226.456c-11.489,5.638-13.291,5.42-18.234,7.978s-5.487,29.467-5.487,33.616-.054,20.637-1.01,25.1-4.628,21.063-5.9,23.616-3.67,6.861-.638,9.414,9.712,4.309,24.563,3.351,31.445-10.052,32.243-11.329-5.266-24.733-5.266-29.2a58.439,58.439,0,0,0-.956-9.894c-.319-2.073,5.09-11.808,6.295-18.03s9.215-23.39,8.161-26.535-12.573-6.648-20.3-10.647S555.092,226.456,555.092,226.456Z" transform="translate(-522.347 -212.564)" fill="#fff"/>
        <path id="Trazado_147378" data-name="Trazado 147378" d="M548.229,229.766a8.294,8.294,0,0,0,.157,2.017,4.8,4.8,0,0,0,.7,1.824,3.684,3.684,0,0,0,3.206,1.7,10.666,10.666,0,0,0,3.864-.772c1.268-.457,2.48-1.07,3.719-1.66-.553.4-1.128.776-1.7,1.161-.609.316-1.2.679-1.835.954a9.449,9.449,0,0,1-4.072.955l-.539-.026-.535-.121a3.823,3.823,0,0,1-1.025-.39,3.771,3.771,0,0,1-1.5-1.555A5.908,5.908,0,0,1,548.229,229.766Z" transform="translate(-518.108 -211.384)" fill="#dcedff"/>
        <path id="Trazado_147379" data-name="Trazado 147379" d="M575.626,313.87c.8-1.277-5.266-24.733-5.266-29.2a58.407,58.407,0,0,0-.956-9.893c-.319-2.075,5.09-11.809,6.295-18.032a35.285,35.285,0,0,1,1.164-4.108l-4.725-3.722c-3.524,8.171-6.4,22.533-9.428,26.042s-10.052,4.947-10.052,4.947,6.716,1.6,9.74.957c0,0,2.263,12.606,1.846,18.828s-1.68,15.638-1.846,16.915c-.062.476-.077,2.137-.072,4.031C569.689,317.8,575.176,314.591,575.626,313.87Z" transform="translate(-517.351 -208.227)" fill="#dcedff"/>
        <path id="Trazado_147380" data-name="Trazado 147380" d="M563.717,213.985c-.37,6.658-.264,11.232,1.118,12.509,0,0-3.341,11.05-13.4,10.106-3.4-.319-2.66-6.064-.746-8.723l-.425-8.167Z" transform="translate(-517.943 -213.985)" fill="#ffc5c7"/>
        <path id="Trazado_147381" data-name="Trazado 147381" d="M563.98,225.321h0c-.718-2.042-.728-6.022-.432-11.336l-13.455,5.725.273,5.237h0C552.6,225.985,563.98,225.321,563.98,225.321Z" transform="translate(-517.773 -213.985)" fill="#fe8a8b"/>
      </g>
      <g id="Grupo_95415" data-name="Grupo 95415" transform="translate(59.357 64.13)">
        <path id="Trazado_147382" data-name="Trazado 147382" d="M596,260.217c2.021,3.084,4.467,10.743,3.084,14.254s-14.148,19.147-19.893,25-7.02,6.808-8.084,8.723-6.17,9.813-7.447,11.01a6.429,6.429,0,0,1-3.43,1.356,6.053,6.053,0,0,1-4.773,1.436,19.232,19.232,0,0,1-4.96,2.313s-.8,1.355-1.516,1.476-1.517-1.316,0-4.189,3.75-4.069,4.228-5.9a40.455,40.455,0,0,1,2.411-5.578s-4.007,3.823-6.32,4.063-2.524-1.117-1.182-2.234A32.528,32.528,0,0,0,552.887,307a9.612,9.612,0,0,1,6.622-3.988c2.952-.4,5.026-.719,5.824-1.277s5.013-5.984,8.051-11.835,5.921-13.328,13.037-19.892l-2.552-5.107Z" transform="translate(-547.284 -228.233)" fill="#ffc5c7"/>
        <path id="Trazado_147383" data-name="Trazado 147383" d="M550.146,316.092a13.564,13.564,0,0,1,3.059-4.226l.486-.446c.144-.139.393-.314.451-.4.25-.291.476-.676.721-1.022.474-.718.937-1.449,1.454-2.154a19.3,19.3,0,0,1-1.029,2.4,7.948,7.948,0,0,1-.678,1.159,5.3,5.3,0,0,1-.5.476l-.459.441c-.617.588-1.207,1.208-1.8,1.825S550.7,315.418,550.146,316.092Z" transform="translate(-546.813 -220.383)" fill="#fe8a8b"/>
        <path id="Trazado_147384" data-name="Trazado 147384" d="M554.438,313.456c.5-.86,1.077-1.6,1.6-2.387.544-.772,1.032-1.547,1.538-2.4a5.267,5.267,0,0,1-1.012,2.762A7.04,7.04,0,0,1,554.438,313.456Z" transform="translate(-546.105 -220.247)" fill="#fe8a8b"/>
        <path id="Trazado_147385" data-name="Trazado 147385" d="M556.421,314a5.739,5.739,0,0,0,2.3-1.224,6.429,6.429,0,0,0,3.43-1.356,34.3,34.3,0,0,0,2.948-3.964c-.026.029-1.469,1.482-2.517,2.68a3.4,3.4,0,0,1-3.379,1.13l.374-1.555S558.027,313.239,556.421,314Z" transform="translate(-545.778 -220.448)" fill="#fe8a8b"/>
        <path id="Trazado_147386" data-name="Trazado 147386" d="M596.343,269.105c-.169,1.456-.27,2.614-2.708,6.435-2.743,4.3-18.669,22.418-22.1,25.77s-3.35,3.563-5.621,8.857c.96-1.5,1.766-2.8,2.12-3.439,1.064-1.915,2.34-2.872,8.084-8.723s18.51-21.488,19.893-25A8.841,8.841,0,0,0,596.343,269.105Z" transform="translate(-544.214 -226.768)" fill="#fe8a8b"/>
        <path id="Trazado_147387" data-name="Trazado 147387" d="M583.018,265.555l1.043,1.978a7.4,7.4,0,0,0-2.89,1.642l-2.029-3.93Z" transform="translate(-542.033 -227.405)" fill="#fe8a8b"/>
        <path id="Trazado_147388" data-name="Trazado 147388" d="M571.432,260.093c-2.614-6-3.126-15.737,0-20.863s8.458-6.972,9.688-6.357,4.1,8.612,7.074,12.3,11.073,14.046,11.278,14.917-6.974,7.9-19.889,13.071C578.045,273.779,571.432,260.093,571.432,260.093Z" transform="translate(-543.659 -232.759)" fill="#fff"/>
        <path id="Trazado_147389" data-name="Trazado 147389" d="M580.377,262.078l1.7,4.1s-9.136-9.879-12.691-17.25a28.087,28.087,0,0,0,2.026,8.5s6.613,13.686,8.15,13.071c2.21-.884,4.239-1.824,6.1-2.777Z" transform="translate(-543.641 -230.094)" fill="#dcedff"/>
      </g>
      <g id="Grupo_95418" data-name="Grupo 95418" transform="translate(47.72)">
        <path id="Trazado_147390" data-name="Trazado 147390" d="M572.514,211.294c2.347-5.733,5.22-11.8,1.6-14.988,0,0,4.042-1.277,6.169-.85a16.556,16.556,0,0,0-6.382-1.7s.836-9.68-1.39-13.829c0,0,.007,4.255-1.164,5.957,0,0-2.34-5-9.255-6.914s-13.616-2.127-18.4,2.766S533.3,192.9,541.369,202.369a37.771,37.771,0,0,0,23.28,12.553C569.223,215.561,572.514,211.294,572.514,211.294Z" transform="translate(-537.294 -177.704)" fill="#252384"/>
        <path id="Trazado_147391" data-name="Trazado 147391" d="M546.356,190.931a25.789,25.789,0,0,0,4.918,1.55c1.672.377,3.354.715,5.047.977,1.691.277,3.393.49,5.1.651a22.5,22.5,0,0,0,5.147,0,12.787,12.787,0,0,1-5.18.991A30.729,30.729,0,0,1,551,193.434,13.818,13.818,0,0,1,546.356,190.931Z" transform="translate(-535.8 -175.524)" fill="#0c0835"/>
        <path id="Trazado_147392" data-name="Trazado 147392" d="M564.589,198.543c1.844-.457,4.9-3.408,4.9-3.408s-3.166,2.238-9.677,1.7a55.47,55.47,0,0,1-10.86-1.886s6.711,3.938,9.184,4.573S564.589,198.543,564.589,198.543Z" transform="translate(-535.372 -174.861)" fill="#0c0835"/>
        <path id="Trazado_147393" data-name="Trazado 147393" d="M543.476,194.424c-3.023-1.493-3.9.022-3.9,1.3s1.418,3.993,1.418,3.993Z" transform="translate(-536.918 -175.051)" fill="#0c0835"/>
        <path id="Trazado_147394" data-name="Trazado 147394" d="M571.519,198.363c-2.412,4.775-7.788,8.473-7.788,8.473s-2.1,2.832.257,3.98c.1.048.208.09.316.133a11.224,11.224,0,0,0,3.994-3.06C569.635,204.623,571.138,201.252,571.519,198.363Z" transform="translate(-533.078 -174.299)" fill="#0c0835"/>
        <path id="Trazado_147395" data-name="Trazado 147395" d="M567.428,207.5s2.473-1.835,4.148,0-1.515,10.373-5.265,8.3c0,0-6.223,7.9-10.531,10.132s-7.18,1.117-8.616-.479-6.254-8.14-6.7-15.079c-.16-2.473.559-7.34.559-8.376s-.638-5.107.239-6.3a3.372,3.372,0,0,1,2.075-1.357,33.785,33.785,0,0,0,9.973,3.032,18.1,18.1,0,0,1-2.953-2.313s9.175,3.19,15.638,3.59a35.8,35.8,0,0,0,.239,5.265A21.235,21.235,0,0,0,567.428,207.5Z" transform="translate(-536.776 -174.963)" fill="#ffc5c7"/>
        <path id="Trazado_147396" data-name="Trazado 147396" d="M567.035,207.843c-.222-1.564-1.534-1.873-2.607-.783-1.1,1.117-1.526,4.656-1.3,5.177s1.974.485,2.384-.6-.559-1.758-1.564-1.437a3.855,3.855,0,0,1,.716-2.592c.877-1.015,1.686-.627,1.872-.366A7.208,7.208,0,0,0,567.035,207.843Z" transform="translate(-533.046 -172.972)" fill="#fe8a8b"/>
        <g id="Grupo_95417" data-name="Grupo 95417" transform="translate(6.14 24.825)">
          <path id="Trazado_147397" data-name="Trazado 147397" d="M558.4,202.028a12.366,12.366,0,0,0-1.126-.989,7.648,7.648,0,0,0-1.3-.8,4.171,4.171,0,0,0-1.463-.5,3.216,3.216,0,0,0-1.538.2v.071a7.2,7.2,0,0,0,.72.238l.69.195c.447.134.918.175,1.371.33a9.348,9.348,0,0,1,1.322.575c.436.22.853.481,1.274.742Z" transform="translate(-540.848 -198.901)" fill="#0c0835"/>
          <path id="Trazado_147398" data-name="Trazado 147398" d="M542.6,200.352a5.527,5.527,0,0,1,1.386-.49,7.517,7.517,0,0,1,1.439-.169c.485-.01.956.089,1.434.085a13.954,13.954,0,0,0,1.5-.037l.02-.069a3.417,3.417,0,0,0-1.442-.606,4.48,4.48,0,0,0-1.556.056,6.482,6.482,0,0,0-1.5.4,5.11,5.11,0,0,0-1.319.772Z" transform="translate(-542.565 -199.017)" fill="#0c0835"/>
          <path id="Trazado_147399" data-name="Trazado 147399" d="M553.4,204.272c.066-.676.444-1.19.842-1.151s.667.619.6,1.294-.444,1.189-.843,1.15S553.329,204.947,553.4,204.272Z" transform="translate(-540.781 -198.34)" fill="#0c0835"/>
          <path id="Trazado_147400" data-name="Trazado 147400" d="M544.3,203.542c.066-.674.384-1.2.711-1.164s.536.606.469,1.281-.386,1.2-.712,1.164S544.233,204.217,544.3,203.542Z" transform="translate(-542.281 -198.463)" fill="#0c0835"/>
          <path id="Trazado_147401" data-name="Trazado 147401" d="M550.585,209.745a3.009,3.009,0,0,1-3.289-.033,1.389,1.389,0,0,0,.765,1.211,2.058,2.058,0,0,0,1.535-.083C550.076,210.626,550.26,210.159,550.585,209.745Z" transform="translate(-541.785 -197.254)" fill="#fe8a8b"/>
          <g id="Grupo_95416" data-name="Grupo 95416" transform="translate(2.934 15.828)">
            <path id="Trazado_147402" data-name="Trazado 147402" d="M554.36,213.228a90.736,90.736,0,0,1-9.276-.623c.523,2.255,2.165,4.482,4.685,4.483C552.037,217.09,553.671,215.226,554.36,213.228Z" transform="translate(-545.084 -212.605)" fill="#c31f2a"/>
            <path id="Trazado_147403" data-name="Trazado 147403" d="M551.808,215.891a3.989,3.989,0,0,0-2.147-.021,3.335,3.335,0,0,0-2.867-.282,4.017,4.017,0,0,0,5.013.3Z" transform="translate(-544.802 -212.144)" fill="#fb8384"/>
            <path id="Trazado_147404" data-name="Trazado 147404" d="M546.352,214.478a10.969,10.969,0,0,0,6.854-.264c.038-.333.089-.669.139-1-2.2-.047-5.738-.313-7.63-.525A5.959,5.959,0,0,0,546.352,214.478Z" transform="translate(-544.98 -212.592)" fill="#fff"/>
          </g>
        </g>
      </g>
    </g>
    <g id="Grupo_95425" data-name="Grupo 95425" transform="translate(587.709 160.627)">
      <g id="Grupo_95420" data-name="Grupo 95420" transform="translate(5.824 5.824)" opacity="0.25" style="mix-blend-mode: multiply;isolation: isolate">
        <path id="Trazado_147405" data-name="Trazado 147405" d="M601.176,193.888a22.6,22.6,0,0,1,1.668-3.552,8.344,8.344,0,0,1,2.676-2.763,10.834,10.834,0,0,1,4.629-1.506q.889-.121,2.523-.277a25.783,25.783,0,0,0,3.4-.559,11.558,11.558,0,0,0,3.174-1.21,4.161,4.161,0,0,0,1.937-2.2,3.046,3.046,0,0,0,.077-1.978,3.934,3.934,0,0,0-1.051-1.718,5.257,5.257,0,0,0-1.846-1.142,4.652,4.652,0,0,0-2.954-.211,7.269,7.269,0,0,0-2.339,1.13c-.672.5-1.271.9-1.8,1.216l-6.017-8.842a13.988,13.988,0,0,1,4.984-3.491,15.718,15.718,0,0,1,5.993-1.156,18.312,18.312,0,0,1,6.435,1.2,20.206,20.206,0,0,1,4.893,2.653,15.6,15.6,0,0,1,3.9,4.112,12.46,12.46,0,0,1,1.908,5.507,14.913,14.913,0,0,1-1.039,6.848,17.99,17.99,0,0,1-1.413,2.981,11.3,11.3,0,0,1-1.943,2.44,11.681,11.681,0,0,1-2.606,1.85,14.564,14.564,0,0,1-3.341,1.237,28.5,28.5,0,0,1-4.862.785,25.03,25.03,0,0,0-4.186.616,3.078,3.078,0,0,0-2.326,1.921Zm-4.343,12.332.224-.6a5.584,5.584,0,0,1,7.178-3.293h0a5.584,5.584,0,0,1,3.293,7.178l-.225.6a5.583,5.583,0,0,1-7.177,3.293h0A5.584,5.584,0,0,1,596.834,206.22Z" transform="translate(-577.025 -165.627)" fill="#00264f"/>
        <path id="Trazado_147406" data-name="Trazado 147406" d="M585.521,194.356a16.5,16.5,0,0,1-.191-2.855,6.088,6.088,0,0,1,.732-2.708,7.893,7.893,0,0,1,2.422-2.6c.349-.261.853-.619,1.511-1.068a18.8,18.8,0,0,0,1.97-1.557,8.445,8.445,0,0,0,1.6-1.894,3.033,3.033,0,0,0,.457-2.09,2.214,2.214,0,0,0-.649-1.289,2.863,2.863,0,0,0-1.278-.725,3.838,3.838,0,0,0-1.582-.076,3.4,3.4,0,0,0-1.959.909,5.308,5.308,0,0,0-1.093,1.548c-.254.553-.494,1.022-.716,1.409l-6.963-3.514a10.191,10.191,0,0,1,1.946-3.988,11.45,11.45,0,0,1,3.415-2.855,13.334,13.334,0,0,1,4.528-1.511,14.7,14.7,0,0,1,4.061-.036,11.366,11.366,0,0,1,3.938,1.246,9.105,9.105,0,0,1,3.164,2.84,10.9,10.9,0,0,1,1.757,4.736,13.159,13.159,0,0,1,.151,2.4,8.242,8.242,0,0,1-.377,2.243,8.537,8.537,0,0,1-1.009,2.1,10.649,10.649,0,0,1-1.695,1.97,20.74,20.74,0,0,1-2.825,2.219,18.31,18.31,0,0,0-2.453,1.872,2.243,2.243,0,0,0-.8,2.047Zm1.586,9.4-.07-.465a4.072,4.072,0,0,1,3.415-4.637h0a4.073,4.073,0,0,1,4.637,3.416l.071.465a4.074,4.074,0,0,1-3.416,4.637h0A4.074,4.074,0,0,1,587.107,203.758Z" transform="translate(-579.778 -165.016)" fill="#00264f"/>
      </g>
      <g id="Grupo_95424" data-name="Grupo 95424">
        <g id="Grupo_95423" data-name="Grupo 95423">
          <g id="Grupo_95421" data-name="Grupo 95421" transform="translate(19.459)">
            <path id="Trazado_147407" data-name="Trazado 147407" d="M596.176,188.888a22.608,22.608,0,0,1,1.668-3.552,8.344,8.344,0,0,1,2.676-2.763,10.834,10.834,0,0,1,4.629-1.506q.889-.121,2.523-.277a25.788,25.788,0,0,0,3.4-.559,11.558,11.558,0,0,0,3.174-1.21,4.161,4.161,0,0,0,1.937-2.2,3.046,3.046,0,0,0,.077-1.978,3.934,3.934,0,0,0-1.051-1.718,5.257,5.257,0,0,0-1.846-1.142,4.652,4.652,0,0,0-2.954-.211,7.268,7.268,0,0,0-2.339,1.13c-.672.5-1.271.9-1.8,1.216l-6.017-8.842a13.987,13.987,0,0,1,4.984-3.491,15.718,15.718,0,0,1,5.993-1.156,18.313,18.313,0,0,1,6.435,1.2,20.206,20.206,0,0,1,4.893,2.653,15.6,15.6,0,0,1,3.9,4.112,12.46,12.46,0,0,1,1.908,5.507,14.913,14.913,0,0,1-1.039,6.848,17.989,17.989,0,0,1-1.413,2.981,11.3,11.3,0,0,1-1.943,2.44,11.68,11.68,0,0,1-2.606,1.85,14.564,14.564,0,0,1-3.341,1.237,28.5,28.5,0,0,1-4.862.785,25.033,25.033,0,0,0-4.186.616,3.078,3.078,0,0,0-2.326,1.921Zm-4.343,12.332.224-.6a5.584,5.584,0,0,1,7.178-3.293h0a5.584,5.584,0,0,1,3.293,7.178l-.225.6a5.583,5.583,0,0,1-7.177,3.293h0A5.584,5.584,0,0,1,591.834,201.22Z" transform="translate(-591.483 -160.627)" fill="#e9dcbf"/>
          </g>
          <g id="Grupo_95422" data-name="Grupo 95422" transform="translate(0 4.32)">
            <path id="Trazado_147408" data-name="Trazado 147408" d="M580.521,189.356a16.5,16.5,0,0,1-.191-2.855,6.088,6.088,0,0,1,.732-2.708,7.893,7.893,0,0,1,2.422-2.6c.349-.261.853-.619,1.511-1.068a18.807,18.807,0,0,0,1.97-1.557,8.447,8.447,0,0,0,1.6-1.894,3.033,3.033,0,0,0,.457-2.09,2.214,2.214,0,0,0-.649-1.289,2.863,2.863,0,0,0-1.278-.725,3.838,3.838,0,0,0-1.582-.076,3.4,3.4,0,0,0-1.959.909,5.306,5.306,0,0,0-1.093,1.548c-.254.553-.494,1.022-.716,1.409l-6.963-3.514a10.191,10.191,0,0,1,1.946-3.988,11.45,11.45,0,0,1,3.415-2.855,13.334,13.334,0,0,1,4.528-1.511,14.7,14.7,0,0,1,4.061-.036,11.366,11.366,0,0,1,3.938,1.246,9.1,9.1,0,0,1,3.164,2.84,10.9,10.9,0,0,1,1.757,4.736,13.16,13.16,0,0,1,.151,2.4,8.242,8.242,0,0,1-.377,2.243,8.537,8.537,0,0,1-1.009,2.1,10.649,10.649,0,0,1-1.695,1.97,20.74,20.74,0,0,1-2.825,2.219,18.308,18.308,0,0,0-2.453,1.872,2.243,2.243,0,0,0-.8,2.047Zm1.586,9.4-.07-.465a4.072,4.072,0,0,1,3.415-4.637h0a4.073,4.073,0,0,1,4.637,3.416l.071.465a4.074,4.074,0,0,1-3.416,4.637h0A4.074,4.074,0,0,1,582.107,198.758Z" transform="translate(-574.778 -164.335)" fill="#e9dcbf"/>
          </g>
        </g>
      </g>
    </g>
  </g>
</svg>
