<svg xmlns="http://www.w3.org/2000/svg" width="124" height="124" viewBox="0 0 124 124">
  <g id="Grupo_1186779" data-name="Grupo 1186779" transform="translate(-676.348 -8784.125)">
    <circle id="Elipse_13635" data-name="Elipse 13635" cx="62" cy="62" r="62" transform="translate(676.348 8784.125)" fill="#fff"/>
    <g id="operando" transform="translate(701.348 8809.809)">
      <g id="Grupo_100642" data-name="Grupo 100642" transform="translate(1.172 1.171)">
        <g id="Grupo_100632" data-name="Grupo 100632" transform="translate(56.232 0)">
          <path id="Trazado_151236" data-name="Trazado 151236" d="M101.413,22.615l-.012.012a.57.57,0,0,0-.129-.164l-.832-.832a2.419,2.419,0,0,0-2.812-.445,2.239,2.239,0,0,1-.855.246V3.871h14.058V22.615Z" transform="translate(-96.774 -3.871)" fill="#e6e9ed"/>
        </g>
        <g id="Grupo_100633" data-name="Grupo 100633" transform="translate(28.116)">
          <path id="Trazado_151237" data-name="Trazado 151237" d="M64.381,13.243v7.708a2.371,2.371,0,0,0-1.324.679l-.832.832a.57.57,0,0,0-.129.164l-.012-.012H50.323V3.871H64.381Z" transform="translate(-50.323 -3.871)" fill="#e6e9ed"/>
        </g>
        <g id="Grupo_100634" data-name="Grupo 100634" transform="translate(0 0)">
          <path id="Trazado_151238" data-name="Trazado 151238" d="M17.929,13.243v9.372H3.871V3.871H17.929Z" transform="translate(-3.871 -3.871)" fill="#e6e9ed"/>
        </g>
        <g id="Grupo_100635" data-name="Grupo 100635" transform="translate(36.317 14.058)">
          <path id="Trazado_151239" data-name="Trazado 151239" d="M65.546,38.261a2.4,2.4,0,0,0,1.476-1.382l.176-.422a2.294,2.294,0,0,0,.187-.925,2.366,2.366,0,0,0-.258-1.089,2.382,2.382,0,0,1,.316-2.648.57.57,0,0,1,.129-.164L68.4,30.8a2.371,2.371,0,0,1,1.324-.679,2.157,2.157,0,0,1,.387-.035,2.463,2.463,0,0,1,1.1.269,2.38,2.38,0,0,0,2.015.07l.422-.176a2.4,2.4,0,0,0,1.382-1.476A2.442,2.442,0,0,1,77.343,27.1h1.172a2.442,2.442,0,0,1,2.308,1.675A2.4,2.4,0,0,0,82.2,30.248l.422.176a2.294,2.294,0,0,0,.925.187,1.57,1.57,0,0,0,.234-.012,2.239,2.239,0,0,0,.855-.246,2.419,2.419,0,0,1,2.812.445l.832.832a.57.57,0,0,1,.129.164A2.315,2.315,0,0,1,89,33.341a2.463,2.463,0,0,1-.269,1.1,2.38,2.38,0,0,0-.07,2.015l.176.422a2.4,2.4,0,0,0,1.476,1.382,2.442,2.442,0,0,1,1.675,2.308v1.171a2.442,2.442,0,0,1-1.675,2.308,2.4,2.4,0,0,0-1.476,1.382l-.176.422a2.294,2.294,0,0,0-.187.925,2.366,2.366,0,0,0,.258,1.09,2.419,2.419,0,0,1-.445,2.812l-.832.832a2.424,2.424,0,0,1-1.71.715,2.463,2.463,0,0,1-1.1-.269,2.38,2.38,0,0,0-2.015-.07l-.422.176a2.4,2.4,0,0,0-1.382,1.476,2.442,2.442,0,0,1-2.308,1.675H77.343a2.424,2.424,0,0,1-1.757-.75V47.785A7.031,7.031,0,1,0,70.9,41.155H63.871v-.586a2.442,2.442,0,0,1,1.675-2.308Z" transform="translate(-63.871 -27.097)" fill="#ffc729"/>
        </g>
        <g id="Grupo_100636" data-name="Grupo 100636" transform="translate(43.346 21.087)">
          <path id="Trazado_151240" data-name="Trazado 151240" d="M80.17,50.425a4.685,4.685,0,0,0-4.686-4.686,7.016,7.016,0,1,1,4.686,6.631Zm0-4.686A2.343,2.343,0,1,0,82.513,43.4,2.35,2.35,0,0,0,80.17,45.739Z" transform="translate(-75.484 -38.71)" fill="#fcd770"/>
        </g>
        <g id="Grupo_100637" data-name="Grupo 100637" transform="translate(0 60.918)">
          <path id="Trazado_151241" data-name="Trazado 151241" d="M53.074,104.516H6.214a2.36,2.36,0,0,0-2.343,2.343,7.035,7.035,0,0,0,7.029,7.029H48.388a7.04,7.04,0,0,0,7.029-7.029,2.35,2.35,0,0,0-2.343-2.343Z" transform="translate(-3.871 -104.516)" fill="#969faa"/>
        </g>
        <g id="Grupo_100638" data-name="Grupo 100638" transform="translate(18.744 60.918)">
          <path id="Trazado_151242" data-name="Trazado 151242" d="M48.9,104.516v2.343a2.35,2.35,0,0,1-2.343,2.343H37.182a2.35,2.35,0,0,1-2.343-2.343v-2.343Z" transform="translate(-34.839 -104.516)" fill="#fcd770"/>
        </g>
        <g id="Grupo_100639" data-name="Grupo 100639" transform="translate(3.515 28.116)">
          <path id="Trazado_151243" data-name="Trazado 151243" d="M54.194,63.631V83.125H9.677V55.009a4.685,4.685,0,0,1,4.686-4.686H49.508a4.685,4.685,0,0,1,4.686,4.686v8.622Z" transform="translate(-9.677 -50.323)" fill="#ccd1d9"/>
        </g>
        <g id="Grupo_100640" data-name="Grupo 100640" transform="translate(8.201 32.802)">
          <path id="Trazado_151244" data-name="Trazado 151244" d="M52.564,59.236V80.323a1.175,1.175,0,0,1-1.172,1.172h-32.8a1.175,1.175,0,0,1-1.172-1.172V59.236a1.175,1.175,0,0,1,1.172-1.172h32.8A1.175,1.175,0,0,1,52.564,59.236Z" transform="translate(-17.419 -58.065)" fill="#69d6f4"/>
        </g>
        <g id="Grupo_100641" data-name="Grupo 100641" transform="translate(12.887 37.488)">
          <path id="Trazado_151245" data-name="Trazado 151245" d="M46.248,70.492a4.686,4.686,0,0,1,0,9.372h-16.4a4.686,4.686,0,0,1,0-9.372,4.777,4.777,0,0,1,1.488.258,7.029,7.029,0,0,1,13.425,0A4.777,4.777,0,0,1,46.248,70.492Z" transform="translate(-25.161 -65.806)" fill="#e6e9ed"/>
        </g>
      </g>
      <g id="Grupo_100643" data-name="Grupo 100643" transform="translate(0 0)">
        <path id="Trazado_151246" data-name="Trazado 151246" d="M50.629,56.129h-32.8a2.345,2.345,0,0,0-2.343,2.343V79.559A2.345,2.345,0,0,0,17.827,81.9h32.8a2.345,2.345,0,0,0,2.343-2.343V58.472A2.345,2.345,0,0,0,50.629,56.129Zm-32.8,23.43V58.472h32.8V79.559Z" transform="translate(-7.283 -23.327)"/>
        <path id="Trazado_151247" data-name="Trazado 151247" d="M44.723,68.613a8.206,8.206,0,0,0-14.878,0,5.854,5.854,0,1,0-.761,11.659h16.4a5.854,5.854,0,1,0-.761-11.659Zm.761,9.316h-16.4a3.515,3.515,0,0,1,0-7.029,3.471,3.471,0,0,1,1.112.2l1.138.384.355-1.147a5.859,5.859,0,0,1,11.193,0l.355,1.148,1.138-.383a3.442,3.442,0,0,1,1.112-.2,3.515,3.515,0,0,1,0,7.029Z" transform="translate(-10.339 -26.383)"/>
        <path id="Trazado_151248" data-name="Trazado 151248" d="M74.569,1.935h-16.4v9.372H46.453V1.935h-16.4v9.372H18.336V1.935H1.935V23.022h16.4V13.65H30.052v9.372H41.274a3.592,3.592,0,0,0,.358,2.016,1.2,1.2,0,0,1,.045,1.024c-.066.151-.129.3-.189.457a1.2,1.2,0,0,1-.759.7A3.6,3.6,0,0,0,38.3,30.051H11.307A5.864,5.864,0,0,0,5.45,35.909V62.854a3.519,3.519,0,0,0-3.515,3.514,8.21,8.21,0,0,0,8.2,8.2H47.624a8.21,8.21,0,0,0,8.2-8.2,3.519,3.519,0,0,0-3.515-3.514V46.392a3.525,3.525,0,0,0,.588.061h1.167a3.6,3.6,0,0,0,3.422-2.479,1.2,1.2,0,0,1,.7-.757c.155-.06.308-.122.46-.189a1.2,1.2,0,0,1,1.023.045,3.594,3.594,0,0,0,4.172-.668l.826-.825a3.593,3.593,0,0,0,.668-4.172,1.2,1.2,0,0,1-.045-1.024c.066-.151.129-.3.189-.457a1.2,1.2,0,0,1,.759-.7,3.6,3.6,0,0,0,2.477-3.423V30.64a3.6,3.6,0,0,0-2.479-3.422,1.2,1.2,0,0,1-.757-.7c-.06-.155-.122-.308-.189-.46a1.206,1.206,0,0,1,.045-1.023,3.59,3.59,0,0,0,.358-2.016h8.879ZM15.993,20.679H4.278V4.278H15.993ZM58.168,13.65v5.567a1.2,1.2,0,0,1-.681-.747,3.6,3.6,0,0,0-3.422-2.477H52.9a3.6,3.6,0,0,0-3.422,2.479,1.2,1.2,0,0,1-.7.757c-.153.06-.306.122-.458.189a1.2,1.2,0,0,1-1.023-.045,3.61,3.61,0,0,0-.845-.292V13.65ZM32.395,4.278H44.11V19.346a3.571,3.571,0,0,0-.984.695l-.638.638H32.395Zm21.087,62.09a5.864,5.864,0,0,1-5.858,5.858H10.136a5.864,5.864,0,0,1-5.858-5.858A1.173,1.173,0,0,1,5.45,65.2h15.23v1.172a3.519,3.519,0,0,0,3.515,3.515h9.372a3.519,3.519,0,0,0,3.515-3.515V65.2H52.31A1.173,1.173,0,0,1,53.482,66.368ZM23.022,65.2H34.738v1.172a1.173,1.173,0,0,1-1.172,1.172H24.194a1.173,1.173,0,0,1-1.171-1.172ZM7.793,62.854V35.909a3.519,3.519,0,0,1,3.515-3.514H46.453a3.519,3.519,0,0,1,3.515,3.514V62.854Zm44.312-28.4a3.514,3.514,0,1,0-2.138-3.233c0,.012,0,.021,0,.033A5.818,5.818,0,0,0,47.727,30.2a5.9,5.9,0,1,1,4.583,6.75V35.909a5.775,5.775,0,0,0-.205-1.453Zm.205-3.233a1.172,1.172,0,1,1,1.172,1.172A1.173,1.173,0,0,1,52.31,31.223ZM65.5,29.443a1.257,1.257,0,0,1,.866,1.2v1.167A1.257,1.257,0,0,1,65.5,33a3.534,3.534,0,0,0-2.209,2.076c-.049.125-.1.251-.153.373a3.537,3.537,0,0,0,.1,3.013,1.255,1.255,0,0,1-.233,1.457l-.826.826a1.254,1.254,0,0,1-1.457.233,3.539,3.539,0,0,0-3.012-.1q-.185.079-.376.155a3.537,3.537,0,0,0-2.075,2.211,1.257,1.257,0,0,1-1.2.866H52.9a1.239,1.239,0,0,1-.588-.166V39.325a8.3,8.3,0,0,0,1.172.1,8.2,8.2,0,1,0-8.107-9.372H40.758a1.247,1.247,0,0,1,.7-.608,3.533,3.533,0,0,0,2.211-2.076c.049-.125.1-.251.153-.373a3.537,3.537,0,0,0-.1-3.013,1.257,1.257,0,0,1,.233-1.459l.825-.825a1.253,1.253,0,0,1,1.459-.233,3.535,3.535,0,0,0,3.012.1c.124-.054.25-.105.375-.153A3.545,3.545,0,0,0,51.7,19.2a1.254,1.254,0,0,1,1.195-.867h1.167a1.257,1.257,0,0,1,1.2.867,3.538,3.538,0,0,0,2.075,2.209c.125.049.251.1.374.153a3.541,3.541,0,0,0,3.013-.1,1.256,1.256,0,0,1,1.459.233l.825.825a1.257,1.257,0,0,1,.233,1.459,3.535,3.535,0,0,0-.1,3.012q.079.185.155.376A3.534,3.534,0,0,0,65.5,29.443Zm6.723-8.764H64.476l-.637-.637a3.584,3.584,0,0,0-3.327-.959V4.278H72.227v16.4Z" transform="translate(-1.935 -1.935)"/>
        <path id="Trazado_151249" data-name="Trazado 151249" d="M9.677,9.677h7.029V12.02H9.677Z" transform="translate(-4.991 -4.991)"/>
        <path id="Trazado_151250" data-name="Trazado 151250" d="M9.677,17.419h7.029v2.343H9.677Z" transform="translate(-4.991 -8.047)"/>
        <path id="Trazado_151251" data-name="Trazado 151251" d="M9.677,25.161h7.029V27.5H9.677Z" transform="translate(-4.991 -11.103)"/>
        <path id="Trazado_151252" data-name="Trazado 151252" d="M56.129,9.677h7.029V12.02H56.129Z" transform="translate(-23.327 -4.991)"/>
        <path id="Trazado_151253" data-name="Trazado 151253" d="M56.129,17.419h7.029v2.343H56.129Z" transform="translate(-23.327 -8.047)"/>
        <path id="Trazado_151254" data-name="Trazado 151254" d="M56.129,25.161h7.029V27.5H56.129Z" transform="translate(-23.327 -11.103)"/>
        <path id="Trazado_151255" data-name="Trazado 151255" d="M102.581,9.677h7.029V12.02h-7.029Z" transform="translate(-41.663 -4.991)"/>
        <path id="Trazado_151256" data-name="Trazado 151256" d="M102.581,17.419h7.029v2.343h-7.029Z" transform="translate(-41.663 -8.047)"/>
        <path id="Trazado_151257" data-name="Trazado 151257" d="M102.581,25.161h7.029V27.5h-7.029Z" transform="translate(-41.663 -11.103)"/>
      </g>
    </g>
  </g>
</svg>
