<svg xmlns="http://www.w3.org/2000/svg" xmlns:xlink="http://www.w3.org/1999/xlink" width="103" height="103" viewBox="0 0 103 103">
  <defs>
    <filter id="Elipse_13737" x="0" y="0" width="103" height="103" filterUnits="userSpaceOnUse">
      <feOffset dy="3" input="SourceAlpha"/>
      <feGaussianBlur stdDeviation="3" result="blur"/>
      <feFlood flood-opacity="0.161"/>
      <feComposite operator="in" in2="blur"/>
      <feComposite in="SourceGraphic"/>
    </filter>
  </defs>
  <g id="Grupo_1186120" data-name="Grupo 1186120" transform="translate(-281 -10457)">
    <g id="Grupo_1185634" data-name="Grupo 1185634" transform="translate(290 10463)">
      <g transform="matrix(1, 0, 0, 1, -9, -6)" filter="url(#Elipse_13737)">
        <circle id="Elipse_13737-2" data-name="Elipse 13737" cx="42.5" cy="42.5" r="42.5" transform="translate(9 6)" fill="#fff"/>
      </g>
    </g>
    <g id="XMLID_2150_" transform="translate(311.899 10476.817)">
      <g id="XMLID_978_" transform="translate(9.318 9.318)">
        <path id="XMLID_2300_" d="M42.364,25.182A11.187,11.187,0,1,1,31.182,14,11.134,11.134,0,0,1,42.364,25.182Z" transform="translate(-20 -14)" fill="#dfe0df"/>
      </g>
      <g id="XMLID_971_" transform="translate(0.932 30.573)">
        <path id="XMLID_2298_" d="M50.137,53.816v3.671H11V53.816a19.09,19.09,0,0,1,.466-4.221A19.494,19.494,0,0,1,20.9,36.81a13.876,13.876,0,0,0,9.216,3.9c.149.009.308.009.457.009a13.884,13.884,0,0,0,9.672-3.9,19.542,19.542,0,0,1,9.9,17.006Z" transform="translate(-11 -36.81)" fill="#dfe0df"/>
      </g>
      <g id="XMLID_982_" transform="translate(15.077 14.555)">
        <path id="XMLID_2296_" d="M37.026,23.767c0,.5-.466,1.137-1.416,1.826a1.759,1.759,0,0,0-.643,1.351,1.4,1.4,0,0,0,.065.447,5.069,5.069,0,0,1,.28,1.482c0,.829-.4,1.23-1.1,1.128a4.047,4.047,0,0,1-1.659-.811,1.756,1.756,0,0,0-1.9,0,3.512,3.512,0,0,1-1.873.829c-.867,0-1.155-.932-.606-2.628a1.4,1.4,0,0,0,.065-.447,1.786,1.786,0,0,0-.615-1.333c-.009,0-.019-.009-.028-.019-.95-.69-1.416-1.323-1.416-1.826,0-.662.811-1.09,2.358-1.09h.037a1.748,1.748,0,0,0,1.5-1.109c.419-1.3.969-1.948,1.528-1.948s1.109.652,1.528,1.948a1.743,1.743,0,0,0,1.538,1.109c1.36,0,2.153.335,2.32.867v.009a.547.547,0,0,1,.037.214Z" transform="translate(-26.18 -19.62)" fill="#fbd736"/>
      </g>
      <g id="XMLID_920_" transform="translate(0.932 43.358)">
        <g id="XMLID_958_">
          <path id="XMLID_2294_" d="M42.216,58.423H11V54.751a19.09,19.09,0,0,1,.466-4.221,2.341,2.341,0,0,1,1.948,2.525c-.056.568-.084,1.137-.084,1.7v1.342H39.887A2.33,2.33,0,0,1,42.216,58.423Z" transform="translate(-11 -50.53)" fill="#bcbcbb"/>
        </g>
      </g>
      <g id="XMLID_921_" transform="translate(20.044 30.573)">
        <g id="XMLID_936_">
          <path id="XMLID_2291_" d="M50.137,46.548a2.316,2.316,0,0,1-3.028-.988,17.393,17.393,0,0,0-2.954-3.932,16.832,16.832,0,0,0-2.3-1.929A16.164,16.164,0,0,1,34.138,42.9a2.331,2.331,0,0,1-2.618-2,1.376,1.376,0,0,1-.009-.2c.149.009.308.009.457.009a13.884,13.884,0,0,0,9.672-3.9,19.518,19.518,0,0,1,8.5,9.738Z" transform="translate(-31.51 -36.81)" fill="#f4f4f4"/>
        </g>
      </g>
      <g id="XMLID_916_" transform="translate(16.521 20.464)">
        <g id="XMLID_980_">
          <path id="XMLID_2288_" d="M34.318,30.433a4.047,4.047,0,0,1-1.659-.811,1.756,1.756,0,0,0-1.9,0,3.512,3.512,0,0,1-1.873.829c-.867,0-1.155-.932-.606-2.628a1.4,1.4,0,0,0,.065-.447,1.786,1.786,0,0,0-.615-1.333,1.864,1.864,0,0,1,1.128.009,1.844,1.844,0,0,1,1.286,1.78,3.579,3.579,0,0,1,3.56.252A1.875,1.875,0,0,1,34.318,30.433Z" transform="translate(-27.73 -25.961)" fill="#f8a822"/>
        </g>
      </g>
      <g id="XMLID_923_" transform="translate(17.472 14.555)">
        <g id="XMLID_977_">
          <path id="XMLID_2285_" d="M37.164,23.543v.009a1.856,1.856,0,0,1-1.659,1.016,1.128,1.128,0,0,1-.177-.009c-.149-.009-.308-.019-.485-.019a3.632,3.632,0,0,1-3.084-1.882,1.881,1.881,0,0,1-2.087.68,1.808,1.808,0,0,1-.923-.662,1.748,1.748,0,0,0,1.5-1.109c.419-1.3.969-1.948,1.528-1.948s1.109.652,1.528,1.948a1.743,1.743,0,0,0,1.538,1.109c1.36,0,2.153.335,2.32.867Z" transform="translate(-28.75 -19.62)" fill="#fff178"/>
        </g>
      </g>
      <g id="XMLID_918_" transform="translate(9.318 18.18)">
        <g id="XMLID_976_">
          <path id="XMLID_2282_" d="M33.5,36.77a11.187,11.187,0,0,1-13.26-13.26,2.334,2.334,0,0,1,2.087,2.32,8.86,8.86,0,0,0,8.852,8.852A2.334,2.334,0,0,1,33.5,36.77Z" transform="translate(-20 -23.51)" fill="#bcbcbb"/>
        </g>
      </g>
      <g id="XMLID_922_" transform="translate(18.18 9.318)">
        <g id="XMLID_972_">
          <path id="XMLID_2279_" d="M43.012,25.182a11.134,11.134,0,0,1-.242,2.32,2.334,2.334,0,0,1-2.087-2.32A8.86,8.86,0,0,0,31.83,16.33a2.334,2.334,0,0,1-2.32-2.087,11.187,11.187,0,0,1,13.5,10.94Z" transform="translate(-29.51 -14)" fill="#f4f4f4"/>
        </g>
      </g>
      <g id="XMLID_301_" transform="translate(35.409 19.568)">
        <path id="XMLID_1914_" d="M52.659,26.864H48.932a.932.932,0,1,1,0-1.864h3.727a.932.932,0,1,1,0,1.864Z" transform="translate(-48 -25)" fill="#212121"/>
      </g>
      <g id="XMLID_300_" transform="translate(0 19.568)">
        <path id="XMLID_1913_" d="M14.659,26.864H10.932a.932.932,0,1,1,0-1.864h3.727a.932.932,0,1,1,0,1.864Z" transform="translate(-10 -25)" fill="#212121"/>
      </g>
      <g id="XMLID_299_" transform="translate(1.481 12.077)">
        <path id="XMLID_1912_" d="M15.97,20.25a.94.94,0,0,1-.356-.071l-3.448-1.426a.932.932,0,0,1,.712-1.723l3.448,1.426a.932.932,0,0,1-.356,1.794Z" transform="translate(-11.59 -16.961)" fill="#212121"/>
      </g>
      <g id="XMLID_298_" transform="translate(34.207 25.636)">
        <path id="XMLID_1911_" d="M51.09,34.8a.94.94,0,0,1-.356-.071L47.286,33.3A.932.932,0,0,1,48,31.581l3.448,1.426A.932.932,0,0,1,51.09,34.8Z" transform="translate(-46.71 -31.511)" fill="#212121"/>
      </g>
      <g id="XMLID_297_" transform="translate(5.73 5.73)">
        <path id="XMLID_1910_" d="M19.719,14.651a.929.929,0,0,1-.659-.273l-2.637-2.637a.932.932,0,0,1,1.318-1.318l2.637,2.637a.932.932,0,0,1-.659,1.591Z" transform="translate(-16.15 -10.15)" fill="#212121"/>
      </g>
      <g id="XMLID_281_" transform="translate(12.076 1.483)">
        <path id="XMLID_1909_" d="M25.318,10.9a.931.931,0,0,1-.861-.576L23.031,6.879a.932.932,0,1,1,1.722-.713l1.426,3.448a.932.932,0,0,1-.861,1.289Z" transform="translate(-22.96 -5.591)" fill="#212121"/>
      </g>
      <g id="XMLID_275_" transform="translate(19.568 0)">
        <path id="XMLID_1908_" d="M31.932,9.591A.932.932,0,0,1,31,8.659V4.932a.932.932,0,1,1,1.864,0V8.659A.932.932,0,0,1,31.932,9.591Z" transform="translate(-31 -4)" fill="#212121"/>
      </g>
      <g id="XMLID_272_" transform="translate(25.634 1.483)">
        <path id="XMLID_1907_" d="M38.442,10.9a.932.932,0,0,1-.861-1.289l1.426-3.448a.932.932,0,1,1,1.722.713L39.3,10.327A.933.933,0,0,1,38.442,10.9Z" transform="translate(-37.51 -5.591)" fill="#212121"/>
      </g>
      <g id="XMLID_270_" transform="translate(30.769 5.73)">
        <path id="XMLID_1906_" d="M43.952,14.651a.932.932,0,0,1-.659-1.591l2.637-2.637a.932.932,0,1,1,1.318,1.318l-2.637,2.637a.932.932,0,0,1-.659.273Z" transform="translate(-43.02 -10.15)" fill="#212121"/>
      </g>
      <g id="XMLID_254_" transform="translate(34.207 12.077)">
        <path id="XMLID_1905_" d="M47.642,20.25a.932.932,0,0,1-.356-1.794l3.448-1.426a.932.932,0,0,1,.712,1.723L48,20.18A.94.94,0,0,1,47.642,20.25Z" transform="translate(-46.71 -16.961)" fill="#212121"/>
      </g>
      <g id="XMLID_248_" transform="translate(1.481 25.636)">
        <path id="XMLID_1904_" d="M12.522,34.8a.932.932,0,0,1-.356-1.794l3.448-1.426a.932.932,0,0,1,.712,1.723L12.878,34.73a.94.94,0,0,1-.356.071Z" transform="translate(-11.59 -31.511)" fill="#212121"/>
      </g>
      <g id="XMLID_517_" transform="translate(0 29.642)">
        <path id="XMLID_1600_" d="M50.069,58.351H10.932A.932.932,0,0,1,10,57.419V53.748A20.533,20.533,0,0,1,20.368,35.932a.933.933,0,0,1,1.107.139,13,13,0,0,0,18.052,0,.931.931,0,0,1,1.106-.139A20.461,20.461,0,0,1,51,53.748v3.671A.932.932,0,0,1,50.069,58.351Zm-38.2-1.864H49.137v-2.74A18.6,18.6,0,0,0,40.294,37.9a14.864,14.864,0,0,1-19.586,0,18.667,18.667,0,0,0-8.844,15.851Z" transform="translate(-10 -35.81)" fill="#212121"/>
      </g>
      <g id="XMLID_974_" transform="translate(17.518 40.805)">
        <path id="XMLID_2250_" d="M34.764,58.236H28.8l.624-2.33,2.162-8.116.2.2.2-.2,2.162,8.116Z" transform="translate(-28.8 -47.79)" fill="#546e7a"/>
      </g>
      <g id="XMLID_913_" transform="translate(16.847 34.459)">
        <path id="XMLID_2248_" d="M35.386,43.869l-3.653,3.653L28.08,43.869l2.9-2.889c.252.009.5.019.755.019s.5-.009.755-.019Z" transform="translate(-28.08 -40.98)" fill="#546e7a"/>
      </g>
      <g id="XMLID_515_" transform="translate(15.916 33.526)">
        <path id="XMLID_1597_" d="M31.665,48.385a.929.929,0,0,1-.659-.273l-3.653-3.653a.932.932,0,0,1,0-1.319l2.9-2.889a.933.933,0,0,1,.693-.271q.717.028,1.438,0a.922.922,0,0,1,.693.271l2.9,2.889a.932.932,0,0,1,0,1.319l-3.653,3.653A.926.926,0,0,1,31.665,48.385ZM29.33,43.8l2.334,2.334L34,43.8l-1.952-1.945c-.254.007-.51.007-.764,0Z" transform="translate(-27.08 -39.979)" fill="#212121"/>
      </g>
      <g id="XMLID_915_" transform="translate(17.518 48.921)">
        <g id="XMLID_967_">
          <path id="XMLID_2242_" d="M34.764,58.83H28.8l.624-2.33h4.715Z" transform="translate(-28.8 -56.5)" fill="#455b64"/>
        </g>
      </g>
      <g id="XMLID_516_" transform="translate(16.587 39.872)">
        <path id="XMLID_1594_" d="M34.7,59.1H28.732a.932.932,0,0,1-.9-1.172l2.786-10.446a.932.932,0,0,1,.658-.66.918.918,0,0,1,.438-.011.918.918,0,0,1,.438.011.932.932,0,0,1,.658.66L35.6,57.927a.932.932,0,0,1-.9,1.172Zm-4.75-1.864h3.538L31.714,50.6Z" transform="translate(-27.8 -46.789)" fill="#212121"/>
      </g>
      <g id="XMLID_514_" transform="translate(8.386 8.386)">
        <path id="XMLID_1591_" d="M31.114,37.227A12.114,12.114,0,1,1,43.227,25.114,12.128,12.128,0,0,1,31.114,37.227Zm0-22.364a10.25,10.25,0,1,0,10.25,10.25A10.262,10.262,0,0,0,31.114,14.864Z" transform="translate(-19 -13)" fill="#212121"/>
      </g>
      <g id="XMLID_198_" transform="translate(14.143 13.623)">
        <path id="XMLID_1588_" d="M28.711,30.882a1.754,1.754,0,0,1-1.053-.329c-.582-.423-1.13-1.376-.435-3.516a.806.806,0,0,0-.247-.759c-1.82-1.321-1.937-2.415-1.715-3.1s.959-1.5,3.209-1.5a.8.8,0,0,0,.645-.469c.7-2.14,1.7-2.59,2.42-2.59s1.724.449,2.419,2.589a.8.8,0,0,0,.645.469c2.25,0,2.987.815,3.209,1.5s.105,1.778-1.715,3.1a.8.8,0,0,0-.247.759c.7,2.14.147,3.094-.435,3.516s-1.656.651-3.479-.673a.808.808,0,0,0-.8,0,4.279,4.279,0,0,1-2.424,1Zm2.824-2.973a2.556,2.556,0,0,1,1.495.464,3.014,3.014,0,0,0,1.264.64,3.021,3.021,0,0,0-.218-1.4A2.636,2.636,0,0,1,35,24.771a3.013,3.013,0,0,0,1-1,3.027,3.027,0,0,0-1.4-.225,2.637,2.637,0,0,1-2.418-1.757,3.025,3.025,0,0,0-.646-1.261,3.017,3.017,0,0,0-.646,1.261,2.636,2.636,0,0,1-2.418,1.756,3.027,3.027,0,0,0-1.4.225,3.013,3.013,0,0,0,1,1,2.638,2.638,0,0,1,.923,2.844,3.007,3.007,0,0,0-.218,1.4,3.016,3.016,0,0,0,1.263-.64,2.555,2.555,0,0,1,1.5-.464Z" transform="translate(-25.178 -18.62)" fill="#212121"/>
      </g>
    </g>
  </g>
</svg>
