<svg xmlns="http://www.w3.org/2000/svg" xmlns:xlink="http://www.w3.org/1999/xlink" width="103" height="103" viewBox="0 0 103 103">
  <defs>
    <filter id="Elipse_13737" x="0" y="0" width="103" height="103" filterUnits="userSpaceOnUse">
      <feOffset dy="3" input="SourceAlpha"/>
      <feGaussianBlur stdDeviation="3" result="blur"/>
      <feFlood flood-opacity="0.161"/>
      <feComposite operator="in" in2="blur"/>
      <feComposite in="SourceGraphic"/>
    </filter>
  </defs>
  <g id="Grupo_1186123" data-name="Grupo 1186123" transform="translate(-592 -10556)">
    <g id="Grupo_1185634" data-name="Grupo 1185634" transform="translate(601 10562)">
      <g transform="matrix(1, 0, 0, 1, -9, -6)" filter="url(#Elipse_13737)">
        <circle id="Elipse_13737-2" data-name="Elipse 13737" cx="42.5" cy="42.5" r="42.5" transform="translate(9 6)" fill="#fff"/>
      </g>
    </g>
    <g id="_x35_2_Audit" transform="translate(625 10579.434)">
      <g id="Grupo_1186112" data-name="Grupo 1186112" transform="translate(0 0)">
        <path id="Trazado_997460" data-name="Trazado 997460" d="M64.8,45.981V8.1a1.755,1.755,0,0,0-1.755-1.755H33.927A1.755,1.755,0,0,0,32.172,8.1V53.677a1.755,1.755,0,0,0,1.755,1.755H55.344Z" transform="translate(-31.647 -5.821)" fill="#e8f1f8"/>
        <path id="Trazado_997461" data-name="Trazado 997461" d="M64.785,8.1V45.976l-9.452,9.452H33.913a1.755,1.755,0,0,1-1.755-1.755V51.935A34.76,34.76,0,0,0,58.1,6.341h4.935A1.755,1.755,0,0,1,64.785,8.1Z" transform="translate(-31.635 -5.818)" opacity="0.1"/>
        <path id="Trazado_997462" data-name="Trazado 997462" d="M277.335,409.528h-7.7a1.755,1.755,0,0,0-1.755,1.755v7.7Z" transform="translate(-244.187 -369.369)" fill="#acbadf"/>
        <path id="Trazado_997463" data-name="Trazado 997463" d="M75.458,58.286A4.085,4.085,0,1,1,71.371,54.2,4.086,4.086,0,0,1,75.458,58.286Z" transform="translate(-63.31 -48.974)" fill="#0e9c4a"/>
        <path id="Trazado_997464" data-name="Trazado 997464" d="M75.458,183.121a4.085,4.085,0,1,1-4.087-4.084A4.086,4.086,0,0,1,75.458,183.121Z" transform="translate(-63.31 -161.536)" fill="#475da9"/>
        <path id="Trazado_997465" data-name="Trazado 997465" d="M75.458,307.955a4.085,4.085,0,1,1-4.087-4.084A4.086,4.086,0,0,1,75.458,307.955Z" transform="translate(-63.31 -274.098)" fill="#f14f4a"/>
        <path id="Trazado_997466" data-name="Trazado 997466" d="M364.029,349.128V362.4a2.118,2.118,0,0,0,4.235,0V349.128Z" transform="translate(-330.881 -314.906)" fill="#474747"/>
        <path id="Trazado_997467" data-name="Trazado 997467" d="M307.133,204.077a9.266,9.266,0,1,1,0-13.1A9.267,9.267,0,0,1,307.133,204.077Z" transform="translate(-265.314 -169.852)" fill="#f14f4a"/>
        <path id="Trazado_997468" data-name="Trazado 997468" d="M318.41,215.341a9.266,9.266,0,0,1-13.1,0,9.39,9.39,0,0,1-1.486-1.941,9.268,9.268,0,0,0,12.65-12.65,9.271,9.271,0,0,1,1.939,14.589Z" transform="translate(-276.592 -181.117)" opacity="0.1"/>
        <path id="Trazado_997469" data-name="Trazado 997469" d="M324,229.766a6.235,6.235,0,1,1,8.818,0A6.243,6.243,0,0,1,324,229.766Z" transform="translate(-293.147 -197.683)" fill="#fdcf17"/>
        <path id="Trazado_997470" data-name="Trazado 997470" d="M344.117,241.027a6.242,6.242,0,0,1-9.409-.681,6.237,6.237,0,0,0,8.72-8.73,6.237,6.237,0,0,1,.689,9.411Z" transform="translate(-304.442 -208.947)" opacity="0.1"/>
        <path id="Trazado_997471" data-name="Trazado 997471" d="M93.467,81.358l-1.449,1.448-.314-.314a.522.522,0,0,0-.738.738l.683.683a.522.522,0,0,0,.738,0L94.2,82.1a.522.522,0,0,0-.738-.738Z" transform="translate(-84.523 -73.322)"/>
        <path id="Trazado_997472" data-name="Trazado 997472" d="M187.164,71.705a.522.522,0,0,0-.522-.522H171.653a.522.522,0,0,0,0,1.044h14.988A.522.522,0,0,0,187.164,71.705Z" transform="translate(-156.946 -64.285)"/>
        <path id="Trazado_997473" data-name="Trazado 997473" d="M171.653,110.76h9.6a.522.522,0,0,0,0-1.044h-9.6a.522.522,0,0,0,0,1.044Z" transform="translate(-156.946 -99.03)"/>
        <path id="Trazado_997474" data-name="Trazado 997474" d="M93.467,206.19l-1.449,1.449-.314-.314a.522.522,0,1,0-.738.738l.683.683a.522.522,0,0,0,.738,0l1.818-1.818a.522.522,0,0,0-.738-.738Z" transform="translate(-84.523 -185.882)"/>
        <path id="Trazado_997475" data-name="Trazado 997475" d="M181.346,196.015h-9.693a.522.522,0,0,0,0,1.044h9.693a.522.522,0,0,0,0-1.044Z" transform="translate(-156.945 -176.845)"/>
        <path id="Trazado_997476" data-name="Trazado 997476" d="M181.253,234.552h-9.6a.522.522,0,0,0,0,1.044h9.6a.522.522,0,1,0,0-1.044Z" transform="translate(-156.945 -211.594)"/>
        <path id="Trazado_997477" data-name="Trazado 997477" d="M93.467,331.027l-1.449,1.448-.314-.313a.522.522,0,0,0-.738.738l.683.682a.522.522,0,0,0,.738,0l1.818-1.818a.522.522,0,0,0-.738-.738Z" transform="translate(-84.523 -298.447)"/>
        <path id="Trazado_997478" data-name="Trazado 997478" d="M181.253,320.851h-9.6a.522.522,0,0,0,0,1.044h9.6a.522.522,0,0,0,0-1.044Z" transform="translate(-156.945 -289.409)"/>
        <path id="Trazado_997479" data-name="Trazado 997479" d="M181.253,359.384h-9.6a.522.522,0,1,0,0,1.044h9.6a.522.522,0,1,0,0-1.044Z" transform="translate(-156.945 -324.154)"/>
        <path id="Trazado_997480" data-name="Trazado 997480" d="M66.582,48.892A4.607,4.607,0,1,0,71.191,53.5a4.611,4.611,0,0,0-4.609-4.606Zm0,8.171A3.563,3.563,0,1,1,70.147,53.5a3.567,3.567,0,0,1-3.565,3.565Z" transform="translate(-58.522 -44.186)"/>
        <path id="Trazado_997481" data-name="Trazado 997481" d="M62.1,51.148a2.643,2.643,0,0,0,2.642-2.637v-10.4a9.78,9.78,0,0,0-4.235-19.067V3.294a2.28,2.28,0,0,0-2.277-2.277H29.113a2.28,2.28,0,0,0-2.277,2.277V48.872a2.28,2.28,0,0,0,2.277,2.276H50.525l.008,0A.522.522,0,0,0,50.9,51l8.562-8.562v6.076A2.64,2.64,0,0,0,62.1,51.148Zm1.6-2.637a1.6,1.6,0,0,1-3.19,0V38.34a9.2,9.2,0,0,0,3.19,0Zm4.588-26a8.744,8.744,0,1,1-12.366,0A8.738,8.738,0,0,1,68.286,22.508ZM51.055,49.367V42.931A1.234,1.234,0,0,1,52.287,41.7h6.436Zm1.233-8.713a2.28,2.28,0,0,0-2.277,2.277V50.1h-20.9a1.234,1.234,0,0,1-1.233-1.232V3.294a1.234,1.234,0,0,1,1.233-1.233H58.231a1.234,1.234,0,0,1,1.233,1.233V19.272a9.78,9.78,0,0,0,0,18.841v2.541Z" transform="translate(-26.836 -1.017)"/>
        <path id="Trazado_997482" data-name="Trazado 997482" d="M66.582,173.724a4.608,4.608,0,1,0,4.609,4.606A4.611,4.611,0,0,0,66.582,173.724Zm0,8.171a3.563,3.563,0,1,1,3.565-3.565,3.567,3.567,0,0,1-3.565,3.565Z" transform="translate(-58.522 -156.746)"/>
        <path id="Trazado_997483" data-name="Trazado 997483" d="M66.582,298.561a4.607,4.607,0,1,0,4.609,4.606A4.611,4.611,0,0,0,66.582,298.561Zm0,8.171a3.563,3.563,0,1,1,3.565-3.565,3.567,3.567,0,0,1-3.565,3.565Z" transform="translate(-58.522 -269.311)"/>
        <path id="Trazado_997484" data-name="Trazado 997484" d="M318.829,225.341a6.757,6.757,0,1,0,0-9.558A6.765,6.765,0,0,0,318.829,225.341Zm.738-8.819a5.713,5.713,0,1,1,0,8.081A5.719,5.719,0,0,1,319.568,216.521Z" transform="translate(-288.341 -192.889)"/>
      </g>
    </g>
  </g>
</svg>
